<svg width="141" height="14" viewBox="0 0 141 14" fill="none" xmlns="http://www.w3.org/2000/svg">
<path d="M6.89258 6.91211H7.89062C7.89062 7.6276 7.68555 8.16536 7.27539 8.52539C6.86979 8.88086 6.31836 9.05859 5.62109 9.05859C5.13802 9.05859 4.71875 8.94694 4.36328 8.72363C4.01237 8.50033 3.73893 8.19043 3.54297 7.79395C3.35156 7.39746 3.25586 6.93717 3.25586 6.41309V5.62695C3.25586 5.10286 3.35156 4.64258 3.54297 4.24609C3.73893 3.84961 4.01237 3.53971 4.36328 3.31641C4.71875 3.0931 5.13802 2.98145 5.62109 2.98145C6.31836 2.98145 6.87207 3.15918 7.28223 3.51465C7.69238 3.87012 7.89746 4.4056 7.89746 5.12109H6.89941C6.89941 4.66992 6.79004 4.34635 6.57129 4.15039C6.3571 3.95443 6.04036 3.85645 5.62109 3.85645C5.32031 3.85645 5.06738 3.93164 4.8623 4.08203C4.65723 4.23242 4.50228 4.44206 4.39746 4.71094C4.29264 4.97526 4.24023 5.27832 4.24023 5.62012V6.41309C4.24023 6.75944 4.29264 7.06706 4.39746 7.33594C4.50228 7.60026 4.65723 7.80762 4.8623 7.95801C5.06738 8.1084 5.32031 8.18359 5.62109 8.18359C6.04036 8.18359 6.3571 8.08561 6.57129 7.88965C6.78548 7.69368 6.89258 7.36784 6.89258 6.91211ZM1.64941 6.0166C1.64941 6.62272 1.75423 7.18783 1.96387 7.71191C2.1735 8.236 2.46517 8.69401 2.83887 9.08594C3.21257 9.47786 3.64551 9.7832 4.1377 10.002C4.62988 10.2207 5.15625 10.3301 5.7168 10.3301C6.27734 10.3301 6.80143 10.2207 7.28906 10.002C7.78125 9.7832 8.21191 9.47786 8.58105 9.08594C8.95475 8.69401 9.24642 8.236 9.45605 7.71191C9.66569 7.18783 9.77051 6.62272 9.77051 6.0166C9.77051 5.40592 9.66569 4.84082 9.45605 4.32129C9.24642 3.80176 8.95475 3.34831 8.58105 2.96094C8.21191 2.56901 7.78125 2.26595 7.28906 2.05176C6.80143 1.83301 6.27734 1.72363 5.7168 1.72363C5.15625 1.72363 4.62988 1.83301 4.1377 2.05176C3.64551 2.26595 3.21257 2.56901 2.83887 2.96094C2.46517 3.34831 2.1735 3.80176 1.96387 4.32129C1.75423 4.84082 1.64941 5.40592 1.64941 6.0166ZM0.863281 6.0166C0.863281 5.29199 0.988607 4.61979 1.23926 4C1.48991 3.38021 1.83854 2.84017 2.28516 2.37988C2.73177 1.91504 3.24674 1.55501 3.83008 1.2998C4.41797 1.04004 5.04688 0.910156 5.7168 0.910156C6.38672 0.910156 7.01335 1.04004 7.59668 1.2998C8.18457 1.55501 8.69954 1.91504 9.1416 2.37988C9.58822 2.84017 9.93685 3.38021 10.1875 4C10.4382 4.61979 10.5635 5.29199 10.5635 6.0166C10.5635 6.74121 10.4382 7.41341 10.1875 8.0332C9.93685 8.65299 9.58822 9.19759 9.1416 9.66699C8.69954 10.1318 8.18457 10.4941 7.59668 10.7539C7.01335 11.0137 6.38672 11.1436 5.7168 11.1436C5.04688 11.1436 4.41797 11.0137 3.83008 10.7539C3.24674 10.4941 2.73177 10.1318 2.28516 9.66699C1.83854 9.19759 1.48991 8.65299 1.23926 8.0332C0.988607 7.41341 0.863281 6.74121 0.863281 6.0166ZM23.0254 1.92871L19.7305 11H18.3838L22.1777 1.04688H23.0459L23.0254 1.92871ZM25.7871 11L22.4854 1.92871L22.4648 1.04688H23.333L27.1406 11H25.7871ZM25.6162 7.31543V8.39551H20.0244V7.31543H25.6162ZM29.6562 0.5V11H28.3848V0.5H29.6562ZM33.0605 0.5V11H31.7891V0.5H33.0605ZM38.7549 1.04688H42.0498C42.7972 1.04688 43.4284 1.16081 43.9434 1.38867C44.4629 1.61654 44.8571 1.95378 45.126 2.40039C45.3994 2.84245 45.5361 3.38704 45.5361 4.03418C45.5361 4.48991 45.4427 4.9069 45.2559 5.28516C45.0736 5.65885 44.8092 5.97786 44.4629 6.24219C44.1211 6.50195 43.7109 6.69564 43.2324 6.82324L42.8633 6.9668H39.7666L39.7529 5.89355H42.0908C42.5648 5.89355 42.959 5.81152 43.2734 5.64746C43.5879 5.47884 43.8249 5.25326 43.9844 4.9707C44.1439 4.68815 44.2236 4.37598 44.2236 4.03418C44.2236 3.65137 44.1484 3.31641 43.998 3.0293C43.8477 2.74219 43.6107 2.52116 43.2871 2.36621C42.9681 2.20671 42.5557 2.12695 42.0498 2.12695H40.0742V11H38.7549V1.04688ZM44.5723 11L42.1523 6.48828L43.5264 6.48145L45.9805 10.918V11H44.5723ZM48.5645 3.60352V11H47.293V3.60352H48.5645ZM47.1973 1.6416C47.1973 1.43652 47.2588 1.26335 47.3818 1.12207C47.5094 0.980794 47.6963 0.910156 47.9424 0.910156C48.1839 0.910156 48.3685 0.980794 48.4961 1.12207C48.6283 1.26335 48.6943 1.43652 48.6943 1.6416C48.6943 1.83757 48.6283 2.00618 48.4961 2.14746C48.3685 2.28418 48.1839 2.35254 47.9424 2.35254C47.6963 2.35254 47.5094 2.28418 47.3818 2.14746C47.2588 2.00618 47.1973 1.83757 47.1973 1.6416ZM55.3867 3.60352H56.5352V10.8428C56.5352 11.4945 56.403 12.0505 56.1387 12.5107C55.8743 12.971 55.5052 13.3197 55.0312 13.5566C54.5618 13.7982 54.0195 13.9189 53.4043 13.9189C53.1491 13.9189 52.8483 13.8779 52.502 13.7959C52.1602 13.7184 51.8229 13.584 51.4902 13.3926C51.1621 13.2057 50.8864 12.9528 50.6631 12.6338L51.3262 11.8818C51.6361 12.2555 51.9596 12.5153 52.2969 12.6611C52.6387 12.807 52.9759 12.8799 53.3086 12.8799C53.7096 12.8799 54.056 12.8047 54.3477 12.6543C54.6393 12.5039 54.8649 12.2806 55.0244 11.9844C55.1885 11.6927 55.2705 11.3327 55.2705 10.9043V5.23047L55.3867 3.60352ZM50.2939 7.38379V7.24023C50.2939 6.67513 50.36 6.16243 50.4922 5.70215C50.6289 5.2373 50.8226 4.83854 51.0732 4.50586C51.3285 4.17318 51.6361 3.91797 51.9961 3.74023C52.3561 3.55794 52.7617 3.4668 53.2129 3.4668C53.6777 3.4668 54.0833 3.54883 54.4297 3.71289C54.7806 3.8724 55.0768 4.1071 55.3184 4.41699C55.5645 4.72233 55.7581 5.09147 55.8994 5.52441C56.0407 5.95736 56.1387 6.44727 56.1934 6.99414V7.62305C56.1432 8.16536 56.0452 8.65299 55.8994 9.08594C55.7581 9.51888 55.5645 9.88802 55.3184 10.1934C55.0768 10.4987 54.7806 10.7334 54.4297 10.8975C54.0788 11.057 53.6686 11.1367 53.1992 11.1367C52.7572 11.1367 52.3561 11.0433 51.9961 10.8564C51.6406 10.6696 51.3353 10.4076 51.0801 10.0703C50.8249 9.73307 50.6289 9.33659 50.4922 8.88086C50.36 8.42057 50.2939 7.92155 50.2939 7.38379ZM51.5586 7.24023V7.38379C51.5586 7.75293 51.5951 8.09928 51.668 8.42285C51.7454 8.74642 51.8617 9.03125 52.0166 9.27734C52.1761 9.52344 52.3789 9.71712 52.625 9.8584C52.8711 9.99512 53.165 10.0635 53.5068 10.0635C53.9261 10.0635 54.2725 9.97461 54.5459 9.79688C54.8193 9.61914 55.0358 9.38444 55.1953 9.09277C55.3594 8.80111 55.487 8.48438 55.5781 8.14258V6.49512C55.528 6.24447 55.4505 6.00293 55.3457 5.77051C55.2454 5.53353 55.1133 5.32389 54.9492 5.1416C54.7897 4.95475 54.5915 4.80664 54.3545 4.69727C54.1175 4.58789 53.8395 4.5332 53.5205 4.5332C53.1742 4.5332 52.8757 4.60612 52.625 4.75195C52.3789 4.89323 52.1761 5.08919 52.0166 5.33984C51.8617 5.58594 51.7454 5.87305 51.668 6.20117C51.5951 6.52474 51.5586 6.87109 51.5586 7.24023ZM59.7207 0.5V11H58.4561V0.5H59.7207ZM59.4199 7.02148L58.8936 7.00098C58.8981 6.49512 58.9733 6.02799 59.1191 5.59961C59.265 5.16667 59.4701 4.79069 59.7344 4.47168C59.9987 4.15267 60.3132 3.90658 60.6777 3.7334C61.0469 3.55566 61.4548 3.4668 61.9014 3.4668C62.266 3.4668 62.5941 3.51693 62.8857 3.61719C63.1774 3.71289 63.4258 3.86784 63.6309 4.08203C63.8405 4.29622 64 4.57422 64.1094 4.91602C64.2188 5.25326 64.2734 5.66569 64.2734 6.15332V11H63.002V6.13965C63.002 5.75228 62.945 5.44238 62.8311 5.20996C62.7171 4.97298 62.5508 4.80208 62.332 4.69727C62.1133 4.58789 61.8444 4.5332 61.5254 4.5332C61.2109 4.5332 60.9238 4.59928 60.6641 4.73145C60.4089 4.86361 60.1878 5.0459 60.001 5.27832C59.8187 5.51074 59.6751 5.77734 59.5703 6.07812C59.4701 6.37435 59.4199 6.6888 59.4199 7.02148ZM69.2637 3.60352V4.57422H65.2646V3.60352H69.2637ZM66.6182 1.80566H67.8828V9.16797C67.8828 9.41862 67.9215 9.60775 67.999 9.73535C68.0765 9.86296 68.1768 9.94727 68.2998 9.98828C68.4229 10.0293 68.555 10.0498 68.6963 10.0498C68.8011 10.0498 68.9105 10.0407 69.0244 10.0225C69.1429 9.99967 69.2318 9.98145 69.291 9.96777L69.2979 11C69.1976 11.0319 69.0654 11.0615 68.9014 11.0889C68.7419 11.1208 68.5482 11.1367 68.3203 11.1367C68.0104 11.1367 67.7256 11.0752 67.4658 10.9521C67.2061 10.8291 66.9987 10.624 66.8438 10.3369C66.6934 10.0452 66.6182 9.65332 66.6182 9.16113V1.80566ZM75.0537 9.03809C75.0537 8.85579 75.0127 8.68717 74.9307 8.53223C74.8532 8.37272 74.6914 8.22917 74.4453 8.10156C74.2038 7.9694 73.8392 7.85547 73.3516 7.75977C72.9414 7.67318 72.57 7.57064 72.2373 7.45215C71.9092 7.33366 71.6289 7.1901 71.3965 7.02148C71.1686 6.85286 70.9932 6.65462 70.8701 6.42676C70.7471 6.19889 70.6855 5.93229 70.6855 5.62695C70.6855 5.33529 70.7493 5.05957 70.877 4.7998C71.0091 4.54004 71.1937 4.3099 71.4307 4.10938C71.6722 3.90885 71.9616 3.75163 72.2988 3.6377C72.6361 3.52376 73.012 3.4668 73.4268 3.4668C74.0192 3.4668 74.5251 3.57161 74.9443 3.78125C75.3636 3.99089 75.6849 4.27116 75.9082 4.62207C76.1315 4.96842 76.2432 5.35352 76.2432 5.77734H74.9785C74.9785 5.57227 74.917 5.37402 74.7939 5.18262C74.6755 4.98665 74.5 4.82487 74.2676 4.69727C74.0397 4.56966 73.7594 4.50586 73.4268 4.50586C73.0758 4.50586 72.791 4.56055 72.5723 4.66992C72.3581 4.77474 72.2008 4.90918 72.1006 5.07324C72.0049 5.2373 71.957 5.41048 71.957 5.59277C71.957 5.72949 71.9798 5.85254 72.0254 5.96191C72.0755 6.06673 72.1621 6.16471 72.2852 6.25586C72.4082 6.34245 72.5814 6.42448 72.8047 6.50195C73.028 6.57943 73.3128 6.6569 73.6592 6.73438C74.2653 6.87109 74.7643 7.03516 75.1562 7.22656C75.5482 7.41797 75.8398 7.65267 76.0312 7.93066C76.2227 8.20866 76.3184 8.5459 76.3184 8.94238C76.3184 9.26595 76.25 9.56217 76.1133 9.83105C75.9811 10.0999 75.7874 10.3324 75.5322 10.5283C75.2816 10.7197 74.9808 10.8701 74.6299 10.9795C74.2835 11.0843 73.8939 11.1367 73.4609 11.1367C72.8092 11.1367 72.2578 11.0205 71.8066 10.7881C71.3555 10.5557 71.0137 10.2549 70.7812 9.88574C70.5488 9.5166 70.4326 9.12695 70.4326 8.7168H71.7041C71.7223 9.06315 71.8226 9.33887 72.0049 9.54395C72.1872 9.74447 72.4105 9.88802 72.6748 9.97461C72.9391 10.0566 73.2012 10.0977 73.4609 10.0977C73.8073 10.0977 74.0967 10.0521 74.3291 9.96094C74.5661 9.86979 74.7461 9.74447 74.8691 9.58496C74.9922 9.42546 75.0537 9.24316 75.0537 9.03809ZM81.6436 1.04688H84.9385C85.6859 1.04688 86.3171 1.16081 86.832 1.38867C87.3516 1.61654 87.7458 1.95378 88.0146 2.40039C88.2881 2.84245 88.4248 3.38704 88.4248 4.03418C88.4248 4.48991 88.3314 4.9069 88.1445 5.28516C87.9622 5.65885 87.6979 5.97786 87.3516 6.24219C87.0098 6.50195 86.5996 6.69564 86.1211 6.82324L85.752 6.9668H82.6553L82.6416 5.89355H84.9795C85.4535 5.89355 85.8477 5.81152 86.1621 5.64746C86.4766 5.47884 86.7135 5.25326 86.873 4.9707C87.0326 4.68815 87.1123 4.37598 87.1123 4.03418C87.1123 3.65137 87.0371 3.31641 86.8867 3.0293C86.7363 2.74219 86.4993 2.52116 86.1758 2.36621C85.8568 2.20671 85.4443 2.12695 84.9385 2.12695H82.9629V11H81.6436V1.04688ZM87.4609 11L85.041 6.48828L86.415 6.48145L88.8691 10.918V11H87.4609ZM93.1484 11.1367C92.6335 11.1367 92.1663 11.0501 91.7471 10.877C91.3324 10.6992 90.9746 10.4508 90.6738 10.1318C90.3776 9.81283 90.1497 9.43457 89.9902 8.99707C89.8307 8.55957 89.751 8.08105 89.751 7.56152V7.27441C89.751 6.67285 89.8398 6.13737 90.0176 5.66797C90.1953 5.19401 90.4368 4.79297 90.7422 4.46484C91.0475 4.13672 91.3939 3.88835 91.7812 3.71973C92.1686 3.55111 92.5697 3.4668 92.9844 3.4668C93.513 3.4668 93.9688 3.55794 94.3516 3.74023C94.7389 3.92253 95.0557 4.17773 95.3018 4.50586C95.5479 4.82943 95.7301 5.21224 95.8486 5.6543C95.9671 6.0918 96.0264 6.57031 96.0264 7.08984V7.65723H90.5029V6.625H94.7617V6.5293C94.7435 6.20117 94.6751 5.88216 94.5566 5.57227C94.4427 5.26237 94.2604 5.00716 94.0098 4.80664C93.7591 4.60612 93.4173 4.50586 92.9844 4.50586C92.6973 4.50586 92.4329 4.56738 92.1914 4.69043C91.9499 4.80892 91.7425 4.98665 91.5693 5.22363C91.3962 5.46061 91.2617 5.75 91.166 6.0918C91.0703 6.43359 91.0225 6.8278 91.0225 7.27441V7.56152C91.0225 7.91243 91.0703 8.24284 91.166 8.55273C91.2663 8.85807 91.4098 9.12695 91.5967 9.35938C91.7881 9.5918 92.0182 9.77409 92.2871 9.90625C92.5605 10.0384 92.8704 10.1045 93.2168 10.1045C93.6634 10.1045 94.0417 10.0133 94.3516 9.83105C94.6615 9.64876 94.9326 9.40495 95.165 9.09961L95.9307 9.70801C95.7712 9.94954 95.5684 10.1797 95.3223 10.3984C95.0762 10.6172 94.7731 10.7949 94.4131 10.9316C94.0576 11.0684 93.6361 11.1367 93.1484 11.1367ZM101.81 9.03809C101.81 8.85579 101.769 8.68717 101.687 8.53223C101.609 8.37272 101.447 8.22917 101.201 8.10156C100.96 7.9694 100.595 7.85547 100.107 7.75977C99.6973 7.67318 99.3258 7.57064 98.9932 7.45215C98.665 7.33366 98.3848 7.1901 98.1523 7.02148C97.9245 6.85286 97.749 6.65462 97.626 6.42676C97.5029 6.19889 97.4414 5.93229 97.4414 5.62695C97.4414 5.33529 97.5052 5.05957 97.6328 4.7998C97.765 4.54004 97.9495 4.3099 98.1865 4.10938C98.4281 3.90885 98.7174 3.75163 99.0547 3.6377C99.3919 3.52376 99.7679 3.4668 100.183 3.4668C100.775 3.4668 101.281 3.57161 101.7 3.78125C102.119 3.99089 102.441 4.27116 102.664 4.62207C102.887 4.96842 102.999 5.35352 102.999 5.77734H101.734C101.734 5.57227 101.673 5.37402 101.55 5.18262C101.431 4.98665 101.256 4.82487 101.023 4.69727C100.796 4.56966 100.515 4.50586 100.183 4.50586C99.8317 4.50586 99.5469 4.56055 99.3281 4.66992C99.1139 4.77474 98.9567 4.90918 98.8564 5.07324C98.7607 5.2373 98.7129 5.41048 98.7129 5.59277C98.7129 5.72949 98.7357 5.85254 98.7812 5.96191C98.8314 6.06673 98.918 6.16471 99.041 6.25586C99.1641 6.34245 99.3372 6.42448 99.5605 6.50195C99.7839 6.57943 100.069 6.6569 100.415 6.73438C101.021 6.87109 101.52 7.03516 101.912 7.22656C102.304 7.41797 102.596 7.65267 102.787 7.93066C102.979 8.20866 103.074 8.5459 103.074 8.94238C103.074 9.26595 103.006 9.56217 102.869 9.83105C102.737 10.0999 102.543 10.3324 102.288 10.5283C102.037 10.7197 101.737 10.8701 101.386 10.9795C101.039 11.0843 100.65 11.1367 100.217 11.1367C99.5651 11.1367 99.0137 11.0205 98.5625 10.7881C98.1113 10.5557 97.7695 10.2549 97.5371 9.88574C97.3047 9.5166 97.1885 9.12695 97.1885 8.7168H98.46C98.4782 9.06315 98.5785 9.33887 98.7607 9.54395C98.943 9.74447 99.1663 9.88802 99.4307 9.97461C99.695 10.0566 99.957 10.0977 100.217 10.0977C100.563 10.0977 100.853 10.0521 101.085 9.96094C101.322 9.86979 101.502 9.74447 101.625 9.58496C101.748 9.42546 101.81 9.24316 101.81 9.03809ZM107.805 11.1367C107.29 11.1367 106.823 11.0501 106.403 10.877C105.989 10.6992 105.631 10.4508 105.33 10.1318C105.034 9.81283 104.806 9.43457 104.646 8.99707C104.487 8.55957 104.407 8.08105 104.407 7.56152V7.27441C104.407 6.67285 104.496 6.13737 104.674 5.66797C104.852 5.19401 105.093 4.79297 105.398 4.46484C105.704 4.13672 106.05 3.88835 106.438 3.71973C106.825 3.55111 107.226 3.4668 107.641 3.4668C108.169 3.4668 108.625 3.55794 109.008 3.74023C109.395 3.92253 109.712 4.17773 109.958 4.50586C110.204 4.82943 110.386 5.21224 110.505 5.6543C110.623 6.0918 110.683 6.57031 110.683 7.08984V7.65723H105.159V6.625H109.418V6.5293C109.4 6.20117 109.331 5.88216 109.213 5.57227C109.099 5.26237 108.917 5.00716 108.666 4.80664C108.415 4.60612 108.074 4.50586 107.641 4.50586C107.354 4.50586 107.089 4.56738 106.848 4.69043C106.606 4.80892 106.399 4.98665 106.226 5.22363C106.052 5.46061 105.918 5.75 105.822 6.0918C105.727 6.43359 105.679 6.8278 105.679 7.27441V7.56152C105.679 7.91243 105.727 8.24284 105.822 8.55273C105.923 8.85807 106.066 9.12695 106.253 9.35938C106.444 9.5918 106.674 9.77409 106.943 9.90625C107.217 10.0384 107.527 10.1045 107.873 10.1045C108.32 10.1045 108.698 10.0133 109.008 9.83105C109.318 9.64876 109.589 9.40495 109.821 9.09961L110.587 9.70801C110.427 9.94954 110.225 10.1797 109.979 10.3984C109.732 10.6172 109.429 10.7949 109.069 10.9316C108.714 11.0684 108.292 11.1367 107.805 11.1367ZM113.424 4.76562V11H112.159V3.60352H113.39L113.424 4.76562ZM115.734 3.5625L115.728 4.73828C115.623 4.71549 115.522 4.70182 115.427 4.69727C115.336 4.68815 115.231 4.68359 115.112 4.68359C114.821 4.68359 114.563 4.72917 114.34 4.82031C114.117 4.91146 113.927 5.03906 113.772 5.20312C113.618 5.36719 113.494 5.56315 113.403 5.79102C113.317 6.01432 113.26 6.26042 113.232 6.5293L112.877 6.73438C112.877 6.28776 112.92 5.86849 113.007 5.47656C113.098 5.08464 113.237 4.73828 113.424 4.4375C113.611 4.13216 113.848 3.89518 114.135 3.72656C114.426 3.55339 114.773 3.4668 115.174 3.4668C115.265 3.4668 115.37 3.47819 115.488 3.50098C115.607 3.51921 115.689 3.53971 115.734 3.5625ZM119.275 9.8584L121.299 3.60352H122.591L119.932 11H119.084L119.275 9.8584ZM117.587 3.60352L119.672 9.89258L119.815 11H118.968L116.288 3.60352H117.587ZM126.781 11.1367C126.266 11.1367 125.799 11.0501 125.38 10.877C124.965 10.6992 124.607 10.4508 124.307 10.1318C124.01 9.81283 123.783 9.43457 123.623 8.99707C123.464 8.55957 123.384 8.08105 123.384 7.56152V7.27441C123.384 6.67285 123.473 6.13737 123.65 5.66797C123.828 5.19401 124.07 4.79297 124.375 4.46484C124.68 4.13672 125.027 3.88835 125.414 3.71973C125.801 3.55111 126.202 3.4668 126.617 3.4668C127.146 3.4668 127.602 3.55794 127.984 3.74023C128.372 3.92253 128.688 4.17773 128.935 4.50586C129.181 4.82943 129.363 5.21224 129.481 5.6543C129.6 6.0918 129.659 6.57031 129.659 7.08984V7.65723H124.136V6.625H128.395V6.5293C128.376 6.20117 128.308 5.88216 128.189 5.57227C128.076 5.26237 127.893 5.00716 127.643 4.80664C127.392 4.60612 127.05 4.50586 126.617 4.50586C126.33 4.50586 126.066 4.56738 125.824 4.69043C125.583 4.80892 125.375 4.98665 125.202 5.22363C125.029 5.46061 124.895 5.75 124.799 6.0918C124.703 6.43359 124.655 6.8278 124.655 7.27441V7.56152C124.655 7.91243 124.703 8.24284 124.799 8.55273C124.899 8.85807 125.043 9.12695 125.229 9.35938C125.421 9.5918 125.651 9.77409 125.92 9.90625C126.193 10.0384 126.503 10.1045 126.85 10.1045C127.296 10.1045 127.674 10.0133 127.984 9.83105C128.294 9.64876 128.565 9.40495 128.798 9.09961L129.563 9.70801C129.404 9.94954 129.201 10.1797 128.955 10.3984C128.709 10.6172 128.406 10.7949 128.046 10.9316C127.69 11.0684 127.269 11.1367 126.781 11.1367ZM135.798 9.56445V0.5H137.069V11H135.907L135.798 9.56445ZM130.821 7.38379V7.24023C130.821 6.67513 130.89 6.16243 131.026 5.70215C131.168 5.2373 131.366 4.83854 131.621 4.50586C131.881 4.17318 132.188 3.91797 132.544 3.74023C132.904 3.55794 133.305 3.4668 133.747 3.4668C134.212 3.4668 134.618 3.54883 134.964 3.71289C135.315 3.8724 135.611 4.1071 135.853 4.41699C136.099 4.72233 136.292 5.09147 136.434 5.52441C136.575 5.95736 136.673 6.44727 136.728 6.99414V7.62305C136.677 8.16536 136.579 8.65299 136.434 9.08594C136.292 9.51888 136.099 9.88802 135.853 10.1934C135.611 10.4987 135.315 10.7334 134.964 10.8975C134.613 11.057 134.203 11.1367 133.733 11.1367C133.3 11.1367 132.904 11.0433 132.544 10.8564C132.188 10.6696 131.881 10.4076 131.621 10.0703C131.366 9.73307 131.168 9.33659 131.026 8.88086C130.89 8.42057 130.821 7.92155 130.821 7.38379ZM132.093 7.24023V7.38379C132.093 7.75293 132.129 8.09928 132.202 8.42285C132.28 8.74642 132.398 9.03125 132.558 9.27734C132.717 9.52344 132.92 9.71712 133.166 9.8584C133.412 9.99512 133.706 10.0635 134.048 10.0635C134.467 10.0635 134.811 9.97461 135.08 9.79688C135.354 9.61914 135.572 9.38444 135.736 9.09277C135.9 8.80111 136.028 8.48438 136.119 8.14258V6.49512C136.064 6.24447 135.985 6.00293 135.88 5.77051C135.78 5.53353 135.647 5.32389 135.483 5.1416C135.324 4.95475 135.126 4.80664 134.889 4.69727C134.656 4.58789 134.381 4.5332 134.062 4.5332C133.715 4.5332 133.417 4.60612 133.166 4.75195C132.92 4.89323 132.717 5.08919 132.558 5.33984C132.398 5.58594 132.28 5.87305 132.202 6.20117C132.129 6.52474 132.093 6.87109 132.093 7.24023ZM139.059 10.3301C139.059 10.1159 139.125 9.93587 139.257 9.79004C139.394 9.63965 139.59 9.56445 139.845 9.56445C140.1 9.56445 140.294 9.63965 140.426 9.79004C140.562 9.93587 140.631 10.1159 140.631 10.3301C140.631 10.5397 140.562 10.7174 140.426 10.8633C140.294 11.0091 140.1 11.082 139.845 11.082C139.59 11.082 139.394 11.0091 139.257 10.8633C139.125 10.7174 139.059 10.5397 139.059 10.3301Z" fill="white"/>
</svg>
