<svg width="160" height="137" viewBox="0 0 160 137" fill="none" xmlns="http://www.w3.org/2000/svg">
<path style="mix-blend-mode:hard-light" d="M4.59655 70.0562C2.00841 64.9229 0.455501 59.2762 1.14999 53.4958C1.84016 47.7715 4.61378 42.5692 8.40109 38.2943C12.2272 33.9763 16.9247 30.5469 21.6481 27.2857C26.38 24.0159 30.9179 20.5779 36.2193 18.2528C41.3481 16.0097 46.8005 14.6034 52.1709 13.0548C57.3601 11.5622 62.4458 9.75049 67.635 8.24931C78.255 5.17364 89.164 2.38266 100.138 0.967764C105.853 0.225805 111.664 -0.0459694 117.392 0.687362C123.409 1.45952 128.901 3.58187 134.245 6.38579C143.955 11.476 151.939 19.3571 156.309 29.5289C161.006 40.4728 160.079 52.5037 157.672 63.8876C156.499 69.4221 155.088 74.9178 153.639 80.3876C152.172 85.9091 150.326 90.8526 146.396 95.1448C138.541 103.72 127.067 106.347 116.059 108.241C110.624 109.173 104.861 109.207 99.6589 111.192C94.5258 113.15 90.6781 117.235 86.8606 121.018C79.5059 128.313 70.1972 137.574 58.9259 136.729C47.6761 135.883 40.0411 125.509 35.0158 116.493C30.5771 108.53 26.5569 100.567 20.9018 93.3589C18.0635 89.7397 15.3416 86.073 12.6758 82.3158C9.85046 78.3428 6.80507 74.426 4.60084 70.0562C3.76401 68.3997 5.43767 71.717 4.60084 70.0562H4.59655Z" fill="url(#paint0_radial_151_2640)"/>
<defs>
<radialGradient id="paint0_radial_151_2640" cx="0" cy="0" r="1" gradientUnits="userSpaceOnUse" gradientTransform="translate(58.8612 135.681) rotate(180) scale(144.474 144.479)">
<stop stop-color="#F92FC0"/>
<stop offset="0.2" stop-color="#F92FC0"/>
<stop offset="0.29" stop-color="#D439C4"/>
<stop offset="0.45" stop-color="#924CCB"/>
<stop offset="0.56" stop-color="#6958D0"/>
<stop offset="0.62" stop-color="#5A5DD2"/>
<stop offset="0.63" stop-color="#545FD3"/>
<stop offset="0.72" stop-color="#2B70E2"/>
<stop offset="0.79" stop-color="#117BEB"/>
<stop offset="0.83" stop-color="#087FEF"/>
<stop offset="0.86" stop-color="#0F89F0"/>
<stop offset="0.91" stop-color="#22A6F4"/>
<stop offset="0.97" stop-color="#40D4FB"/>
<stop offset="1" stop-color="#50ECFF"/>
</radialGradient>
</defs>
</svg>
