<svg width="126" height="154" viewBox="0 0 126 154" fill="none" xmlns="http://www.w3.org/2000/svg">
<path d="M64.768 1.37383C75.5347 3.7248 80.1804 13.7973 83.2689 23.4212C84.8822 28.4596 85.5637 34.2357 88.1519 38.8945C90.8435 43.7604 96.0026 43.6051 100.907 43.9761C106.139 44.3772 111.536 44.7914 116.112 47.6384C120.59 50.4294 122.902 55.1486 123.937 60.1827C125.059 65.6266 124.377 71.1438 123.881 76.6136C123.64 79.2363 123.467 81.8763 123.583 84.5077C123.709 87.3806 124.36 90.0552 124.895 92.8548C126.922 103.354 120.288 112.629 112.096 118.513C107.835 121.575 103.042 123.663 98.0774 125.29C93.2807 126.86 88.3373 128.055 83.834 130.401C74.4218 135.293 67.4425 144.287 56.844 146.927C51.6246 148.23 46.7373 150.611 41.5309 151.987C36.2726 153.385 30.6693 153.846 25.3765 152.354C14.7652 149.369 9.03243 139.395 5.90509 129.53C2.6009 119.104 0.664117 108.229 0.465693 97.2935C0.366481 91.6987 -0.142515 86.0089 0.0386543 80.4226C0.211197 75.1469 3.46361 70.3199 6.33213 66.0968C12.1641 57.5211 18.6991 48.9584 21.9559 39.0067C23.5605 34.1063 24.8201 29.0808 26.8906 24.3487C28.9956 19.5346 31.9634 15.0742 35.6817 11.3558C43.1182 3.90598 54.161 -0.955581 64.7637 1.36951C63.0685 0.998531 66.4848 1.74912 64.7637 1.36951L64.768 1.37383Z" fill="url(#paint0_radial_151_2748)"/>
<defs>
<radialGradient id="paint0_radial_151_2748" cx="0" cy="0" r="1" gradientUnits="userSpaceOnUse" gradientTransform="translate(8.18698 149.071) rotate(180) scale(152.592 152.598)">
<stop stop-color="#FF00FF"/>
<stop offset="0.11" stop-color="#FB01FF"/>
<stop offset="0.2" stop-color="#F007FF"/>
<stop offset="0.29" stop-color="#DD10FF"/>
<stop offset="0.38" stop-color="#C31CFF"/>
<stop offset="0.47" stop-color="#A22DFF"/>
<stop offset="0.56" stop-color="#7941FF"/>
<stop offset="0.64" stop-color="#4859FF"/>
<stop offset="0.73" stop-color="#1174FF"/>
<stop offset="0.75" stop-color="#007DFF"/>
<stop offset="0.79" stop-color="#0087FF"/>
<stop offset="0.85" stop-color="#00A4FF"/>
<stop offset="0.93" stop-color="#00D3FF"/>
<stop offset="1" stop-color="#00FFFF"/>
</radialGradient>
</defs>
</svg>
