<svg width="1009" height="91" viewBox="0 0 1009 91" fill="none" xmlns="http://www.w3.org/2000/svg">
<g clip-path="url(#clip0_43_19930)">
<rect width="1009" height="91" fill="#191414"/>
<path d="M-10 0H1019" stroke="#191414" stroke-width="3"/>
<path d="M-10 91H1019" stroke="#191414" stroke-width="3"/>
<g clip-path="url(#clip1_43_19930)">
<path d="M-3.24394 29.527H2.89749L2.6877 30.7775C2.39779 32.6442 1.61517 34.1236 0.339839 35.2159C-0.935493 36.3081 -2.48929 36.8542 -4.32155 36.8542C-6.22882 36.8542 -7.69107 36.2206 -8.70828 34.9534C-9.7255 33.6862 -10.0911 32.1193 -9.80497 30.2526C-9.53857 28.5035 -8.65835 26.9101 -7.32551 25.7641C-6.02014 24.6012 -4.33255 23.9735 -2.59355 24.0042C-1.51814 23.9825 -0.456167 24.2488 0.484794 24.776C1.35145 25.2714 2.05363 26.0154 2.50268 26.9142L-0.358232 28.458C-0.866838 27.5433 -1.71939 27.0859 -2.91588 27.0859C-3.82736 27.0785 -4.70976 27.4102 -5.39535 28.018C-6.09401 28.6442 -6.55529 29.4971 -6.69993 30.4301C-6.87285 31.4143 -6.71645 32.2351 -6.23073 32.8925C-5.74501 33.5499 -5.01453 33.8715 -4.03927 33.8573C-2.55414 33.8573 -1.5045 33.3176 -0.890357 32.2383H-3.70741L-3.24394 29.527Z" fill="#C8C8C8"/>
<path d="M7.62948 36.5859H4.51489L6.65486 24.2646H9.07329L12.2394 30.706L13.3704 24.2646H16.4659L14.3259 36.5859H11.9266L8.76049 30.1445L7.62948 36.5859Z" fill="#C8C8C8"/>
<path d="M28.9044 24.2646H32.2097L30.0697 36.5859H26.978L28.1224 29.9322L24.3078 34.8955H23.995L21.9237 29.8454L20.7584 36.5859H17.6438L19.7838 24.2646H22.8983L24.8819 29.581L28.9044 24.2646Z" fill="#C8C8C8"/>
<path d="M43.2738 24.2646L42.7512 27.2036H38.1413L37.8285 28.9288H42.0455L41.5229 31.8234H37.3479L37.0351 33.6373H41.7327L41.2273 36.5936H33.4075L35.5474 24.2724L43.2738 24.2646Z" fill="#C8C8C8"/>
<path d="M47.2056 36.5859H44.0911L46.231 24.2646H48.6495L51.8155 30.706L52.9466 24.2646H56.0421L53.904 36.5859H51.5027L48.3405 30.1387L47.2056 36.5859Z" fill="#C8C8C8"/>
<path d="M58.5826 24.2646H67.7165L67.1768 27.3097H64.1843L62.5669 36.5859H59.4523L61.0697 27.3097H58.0676L58.5826 24.2646Z" fill="#C8C8C8"/>
<path d="M-5.84595 51.2184L-4.27244 42.2529H1.81749L-2.39378 66.4806H-8.48181L-6.87397 57.1716H-13.6143L-15.2221 66.4806H-21.3445L-17.137 42.2529H-11.0128L-12.5863 51.2184H-5.84595Z" fill="#D9D9D9"/>
<path d="M25.3521 66.4806H18.8197L18.4382 62.9859H10.4677L8.82557 66.4806H2.08716L14.2003 42.2529H21.6577L25.3521 66.4806ZM16.9715 49.279L13.0025 57.656H17.8603L16.9715 49.279Z" fill="#D9D9D9"/>
<path d="M29.8391 66.4806L34.0351 42.2529H40.1575L35.95 66.4806H29.8391Z" fill="#D9D9D9"/>
<path d="M48.5787 66.4806H42.4563L46.6638 42.2529H51.4186L57.6439 54.9215L59.8678 42.2529H65.9578L61.7503 66.4806H57.0298L50.8025 53.8139L48.5787 66.4806Z" fill="#D9D9D9"/>
</g>
<g clip-path="url(#clip2_43_19930)">
<path d="M148.695 38.9403L150.633 37.8062C150.193 36.6869 149.296 34.6709 148.695 33.6621V38.9403Z" fill="#D9D9D9"/>
<path d="M148.695 38.9408L150.588 40.0486C150.775 39.5391 151.007 38.9108 150.862 38.4361C150.82 38.2977 150.74 38.0782 150.633 37.8057L148.695 38.9408Z" fill="#D9D9D9"/>
<path d="M148.695 44.3215L151.398 42.7398C151.312 42.6504 151.222 42.5605 151.125 42.4688C150.623 41.992 150.392 41.2117 150.392 40.7546C150.392 40.5896 150.483 40.3382 150.588 40.0491L148.695 38.9414V44.3215Z" fill="#D9D9D9"/>
<path d="M148.695 44.321L152.524 46.5612C152.757 46.4376 152.943 46.2384 153.052 45.9952C153.246 45.5751 153.281 45.308 153.108 44.931C152.914 44.5111 152.704 44.3527 152.366 43.8958C152.089 43.5215 151.789 43.1408 151.399 42.7383L148.695 44.32L148.695 44.321Z" fill="#D9D9D9"/>
<path d="M148.695 49.7006L151.725 47.9276C151.625 47.6502 151.542 47.4127 151.52 47.3243C151.464 47.0958 151.708 47.0196 151.877 46.8481C151.975 46.7482 152.249 46.7121 152.524 46.5614L148.695 44.3213L148.695 49.7006Z" fill="#D9D9D9"/>
<path d="M148.691 49.7L151.925 51.5921C152.014 51.4324 152.08 51.294 152.08 51.2449C152.08 51.1306 151.967 50.7305 151.798 50.559C151.677 50.4326 151.564 50.299 151.46 50.1589L151.89 49.8101C151.89 49.8101 152.265 49.4619 152.152 49.1189C152.083 48.9087 151.882 48.3665 151.722 47.9258L148.691 49.699L148.691 49.7Z" fill="#D9D9D9"/>
<path d="M148.695 55.0811L151.506 53.4367C151.392 53.1768 151.274 52.9499 151.238 52.8096C151.182 52.5809 151.389 52.4116 151.558 52.1825C151.692 51.9931 151.816 51.7964 151.929 51.5933L148.695 49.7012V55.0811Z" fill="#D9D9D9"/>
<path d="M148.695 55.0816L151.018 56.4407C151.036 56.4299 151.053 56.4191 151.069 56.4086C151.407 56.1801 151.689 55.7227 151.802 55.323C151.915 54.9232 151.802 54.4087 151.689 53.9513C151.643 53.7745 151.581 53.6019 151.506 53.4355L148.695 55.08V55.0816Z" fill="#D9D9D9"/>
<path d="M149.434 56.9254C149.864 56.9254 150.652 56.6659 151.017 56.4437L148.695 55.085V56.9017C149.01 56.9124 149.281 56.9254 149.434 56.9254Z" fill="#D9D9D9"/>
<path d="M148.595 33.502L148.584 33.4843C147.851 32.3423 146.105 31.2681 145.09 30.4118C145.06 30.3865 145.03 30.3645 145 30.3398L144.095 30.8689L148.595 33.502Z" fill="#D9D9D9"/>
<path d="M148.648 33.5859C148.63 33.5571 148.613 33.5292 148.596 33.5022L144.095 30.8691V36.2495L148.648 33.5859Z" fill="#8A8A8A"/>
<path d="M148.693 38.9408V33.6626C148.678 33.6371 148.662 33.6112 148.647 33.5869L144.095 36.2505L148.693 38.9408Z" fill="#D9D9D9"/>
<path d="M148.693 38.9412L144.095 36.251H144.095V36.2512V41.6313H144.095L148.693 38.9412Z" fill="#8A8A8A"/>
<path d="M148.693 38.9414L144.095 41.6315L148.693 44.3217V38.9424V38.9416V38.9414H148.693Z" fill="#D9D9D9"/>
<path d="M148.693 44.3205L148.693 44.3201H148.693L144.095 41.6299H144.095V41.6301V47.0104L148.692 44.3207L148.693 44.3205Z" fill="#8A8A8A"/>
<path d="M148.693 44.3211V44.3203L148.693 44.3207L148.692 44.3209L144.095 47.0106L148.693 49.7006H148.693V49.7004V44.3211Z" fill="#D9D9D9"/>
<path d="M148.693 49.7008L144.095 47.0107H144.095V52.3911L148.693 49.7008Z" fill="#8A8A8A"/>
<path d="M144.095 52.3914H144.095L148.692 55.0811L148.693 55.0817H148.693V49.7022V49.7014V49.7012H148.693L144.095 52.3914Z" fill="#D9D9D9"/>
<path d="M148.693 55.0828L148.693 55.0824L148.692 55.0822L144.095 52.3926V57.7729H144.095L148.693 55.0828Z" fill="#8A8A8A"/>
<path d="M148.693 55.083L144.095 57.7731L145.576 58.6396C145.714 58.4001 145.832 58.2477 145.863 58.1889C146.054 57.835 146.269 57.147 146.838 56.9826C147.282 56.8544 148.077 56.8809 148.693 56.9017V55.0842V55.083Z" fill="#D9D9D9"/>
<path d="M144.095 57.7734V61.4096C144.596 60.4433 145.211 59.2748 145.576 58.6398L144.095 57.7734Z" fill="#8A8A8A"/>
<path d="M144.095 30.8685L145 30.3394C144.713 30.1036 144.411 29.888 144.095 29.6943V30.8685Z" fill="#8A8A8A"/>
<path d="M144.093 29.6951C143.396 29.2675 142.675 28.9681 141.875 28.698C141.327 28.5131 140.454 28.3771 139.673 28.2842L144.093 30.8708V29.6951Z" fill="#A8A8A8"/>
<path d="M139.495 33.5615L144.093 30.8718L139.672 28.2852C139.612 28.2782 139.553 28.2713 139.495 28.2656V33.5615Z" fill="#999999"/>
<path d="M139.496 33.559H139.495L139.496 33.5592V33.5598L144.093 36.2497V30.8691L139.496 33.5588V33.559Z" fill="#A8A8A8"/>
<path d="M139.495 38.9399L144.093 36.2502L139.495 33.5605V38.9399Z" fill="#999999"/>
<path d="M139.495 38.9408V38.9416L144.093 41.6313H144.093V36.251H144.093L139.495 38.9406V38.9408Z" fill="#A8A8A8"/>
<path d="M144.093 41.6311L139.495 38.9414V44.3207L144.093 41.6311Z" fill="#999999"/>
<path d="M139.496 44.3215L139.495 44.3219L139.496 44.3221L139.496 44.3217V44.3225L144.094 47.0122V41.632V41.6318H144.094L139.496 44.3215Z" fill="#A8A8A8"/>
<path d="M139.495 49.7006L144.093 47.011H144.093L139.495 44.3213V49.7006Z" fill="#999999"/>
<path d="M139.495 49.7006V49.7014L144.093 52.3911H144.093V47.0107L139.495 49.7006Z" fill="#A8A8A8"/>
<path d="M144.093 52.3918L139.495 49.7021V55.0817L144.093 52.3918Z" fill="#999999"/>
<path d="M139.496 55.0824H139.496L139.496 55.0828L139.496 55.0832V55.0834L144.094 57.7731V52.3928V52.3926H144.094L139.496 55.0824Z" fill="#A8A8A8"/>
<path d="M144.093 57.7746L139.495 55.085V60.4643L144.093 57.7746Z" fill="#999999"/>
<path d="M139.495 60.4631L143.403 62.7493C143.544 62.4736 143.799 61.9774 144.094 61.409V57.7734L139.495 60.4631Z" fill="#A8A8A8"/>
<path d="M139.498 33.561V28.2633C139.458 28.2586 139.418 28.2543 139.378 28.25L134.9 30.8699L139.497 33.5596L139.498 33.561Z" fill="#B8B8B8"/>
<path d="M139.498 33.5594L139.498 33.5592L139.497 33.559L134.9 30.8691V36.2497L139.498 33.5594Z" fill="#CFCFCF"/>
<path d="M139.498 38.9399V33.5605V33.5602V33.5596L134.9 36.2498L139.497 38.9395L139.498 38.9399H139.498Z" fill="#B8B8B8"/>
<path d="M139.498 44.3217V38.9424V38.9416V38.9414H139.498L139.497 38.9418L134.9 41.6315L139.498 44.3217Z" fill="#B8B8B8"/>
<path d="M139.497 44.3205L139.498 44.3201L134.9 41.6299V47.0104L139.497 44.3207L139.497 44.3205Z" fill="#E5E5E5"/>
<path d="M139.498 49.7006V49.7004V44.3211V44.3203L139.497 44.3207L139.497 44.3209L134.9 47.0106L139.498 49.7006Z" fill="#B8B8B8"/>
<path d="M139.498 49.7008L134.9 47.0107V52.3911L139.498 49.7008Z" fill="#CFCFCF"/>
<path d="M139.498 55.0817V49.7022V49.7014V49.7012L134.9 52.3914L139.497 55.0811L139.498 55.0817H139.498Z" fill="#B8B8B8"/>
<path d="M139.498 55.0828L139.497 55.0824L139.497 55.0822L134.9 52.3926V57.7731L139.498 55.0828Z" fill="#E5E5E5"/>
<path d="M139.498 60.4633V55.084V55.0832V55.083L134.9 57.7733L139.497 60.4629L139.498 60.4633H139.498Z" fill="#B8B8B8"/>
<path d="M134.859 36.3996L130.261 33.71V39.0893L134.859 36.3996Z" fill="#D6D6D6"/>
<path d="M134.859 36.4004L130.262 39.0901V39.0903V39.0901L130.261 39.0906L134.859 41.7807H134.859V36.4004Z" fill="#B4B4B4"/>
<path d="M130.262 44.469L134.859 47.1588V41.7785V41.7783H134.859L130.261 44.4686H130.261L130.262 44.4684V44.469Z" fill="#B4B4B4"/>
<path d="M130.262 49.8508L130.261 49.8512L134.859 52.5415V47.1611L130.262 49.8508V49.851V49.8508Z" fill="#B4B4B4"/>
<path d="M130.261 49.8506V55.2311L134.859 52.5408L130.261 49.8506Z" fill="#D6D6D6"/>
<path d="M130.26 33.7086V28.3281L125.661 31.0184L130.26 33.7086Z" fill="#E5E5E5"/>
<path d="M130.26 39.0885V39.0883V33.709V33.708L130.259 33.7086L125.662 36.3983L130.259 39.0879L130.26 39.0883V39.0885Z" fill="#E5E5E5"/>
<path d="M130.26 44.4697L130.259 44.4699L125.661 47.1598L130.26 49.85V49.8502V49.85V44.4703V44.4697Z" fill="#E5E5E5"/>
<path d="M121.062 39.0889V44.4694L125.66 41.7791L121.062 39.0889Z" fill="#D6D6D6"/>
</g>
<path d="M158.288 42.1895C158.266 42.1895 158.25 42.2112 158.256 42.2327L161.925 54.2353C161.929 54.2494 161.942 54.259 161.957 54.259H164.095C164.11 54.259 164.123 54.2495 164.127 54.2355L167.223 44.3065L170.327 54.259L174.041 42.1895L171.315 51.0476L170.327 54.259L167.223 44.3065L166.041 42.2557C166.026 42.2304 165.988 42.2346 165.98 42.2625L163.085 51.5476C163.075 51.5794 163.03 51.5788 163.021 51.5468L160.387 42.2139C160.383 42.1994 160.37 42.1895 160.355 42.1895H158.288Z" fill="#D9D9D9"/>
<path d="M164.956 42.1898C164.934 42.1898 164.918 42.2116 164.924 42.2331L168.593 54.2357C168.597 54.2498 168.61 54.2594 168.625 54.2594H170.763C170.778 54.2594 170.791 54.2499 170.795 54.2359L173.891 44.3069L174.529 42.2328C174.536 42.2113 174.52 42.1895 174.497 42.1895L172.695 42.1898C172.68 42.1898 172.667 42.1994 172.663 42.2134L169.753 51.548C169.743 51.5798 169.698 51.5792 169.689 51.5471L167.055 42.2142C167.051 42.1998 167.038 42.1898 167.023 42.1898H164.956Z" fill="#D9D9D9"/>
<path d="M176.566 39.124C176.842 39.3835 177.183 39.5133 177.588 39.5133C177.978 39.5133 178.31 39.3835 178.586 39.124C178.862 38.8482 179 38.5075 179 38.102C179 37.7126 178.862 37.3882 178.586 37.1286C178.31 36.869 177.978 36.7393 177.588 36.7393C177.183 36.7393 176.842 36.869 176.566 37.1286C176.307 37.3882 176.177 37.7126 176.177 38.102C176.177 38.5075 176.307 38.8482 176.566 39.124Z" fill="#D9D9D9"/>
<path d="M176.566 42.2235V54.2261C176.566 54.2446 176.581 54.2596 176.6 54.2596H178.577C178.595 54.2596 178.61 54.2446 178.61 54.2261V42.2235C178.61 42.205 178.595 42.19 178.577 42.19H176.6C176.581 42.19 176.566 42.205 176.566 42.2235Z" fill="#D9D9D9"/>
<path d="M180.633 42.2239V54.2265C180.633 54.245 180.648 54.26 180.667 54.26H182.644C182.662 54.26 182.677 54.245 182.677 54.2265V48.0063C182.677 46.6111 183.018 45.5404 183.699 44.7942C184.397 44.0317 185.265 43.6505 186.303 43.6505C188.379 43.6505 189.418 44.9077 189.418 47.4222V54.2265C189.418 54.245 189.433 54.26 189.451 54.26H191.428C191.447 54.26 191.462 54.245 191.462 54.2265V47.2032C191.462 45.4025 191.032 44.0723 190.172 43.2125C189.328 42.3364 188.193 41.8984 186.765 41.8984C185.841 41.8984 185.013 42.1174 184.283 42.5554C183.588 42.9722 183.048 43.5359 182.662 44.2465C182.646 44.2766 182.599 44.2666 182.597 44.2325L182.484 42.2221C182.483 42.2043 182.469 42.1904 182.451 42.1904H180.667C180.648 42.1904 180.633 42.2054 180.633 42.2239Z" fill="#D9D9D9"/>
<path d="M193.095 42.2239V54.2265C193.095 54.245 193.11 54.26 193.128 54.26H195.105C195.124 54.26 195.139 54.245 195.139 54.2265V48.0063C195.139 46.6111 195.479 45.5404 196.161 44.7942C196.858 44.0317 197.726 43.6505 198.764 43.6505C200.841 43.6505 201.879 44.9077 201.879 47.4222V54.2265C201.879 54.245 201.894 54.26 201.913 54.26H203.89C203.908 54.26 203.923 54.245 203.923 54.2265V47.2032C203.923 45.4025 203.493 44.0723 202.634 43.2125C201.79 42.3364 200.654 41.8984 199.227 41.8984C198.302 41.8984 197.475 42.1174 196.745 42.5554C196.05 42.9722 195.51 43.5359 195.124 44.2465C195.107 44.2766 195.061 44.2666 195.059 44.2325L194.946 42.2221C194.945 42.2043 194.93 42.1904 194.912 42.1904H193.128C193.11 42.1904 193.095 42.2054 193.095 42.2239Z" fill="#D9D9D9"/>
<path d="M211.568 54.2601C210.433 54.2601 209.41 54.0005 208.502 53.4813C207.594 52.9623 206.872 52.2322 206.336 51.2913C205.817 50.3342 205.558 49.2148 205.558 47.9332C205.558 46.6517 205.825 45.5404 206.361 44.5995C206.896 43.6424 207.618 42.9042 208.526 42.3851C209.451 41.866 210.481 41.6064 211.617 41.6064C212.752 41.6064 213.774 41.866 214.683 42.3851C215.591 42.9042 216.305 43.6424 216.824 44.5995C217.36 45.5404 217.627 46.6517 217.627 47.9332C217.627 49.2148 217.36 50.3342 216.824 51.2913C216.289 52.2322 215.559 52.9623 214.634 53.4813C213.726 54.0005 212.704 54.2601 211.568 54.2601ZM211.568 52.508C212.266 52.508 212.915 52.3377 213.515 51.997C214.115 51.6564 214.602 51.1453 214.975 50.464C215.348 49.7826 215.535 48.939 215.535 47.9332C215.535 46.9275 215.348 46.0839 214.975 45.4025C214.618 44.7211 214.139 44.2101 213.539 43.8695C212.939 43.5288 212.298 43.3585 211.617 43.3585C210.919 43.3585 210.27 43.5288 209.67 43.8695C209.07 44.2101 208.583 44.7211 208.21 45.4025C207.837 46.0839 207.65 46.9275 207.65 47.9332C207.65 48.939 207.837 49.7826 208.21 50.464C208.583 51.1453 209.062 51.6564 209.646 51.997C210.246 52.3377 210.887 52.508 211.568 52.508Z" fill="#D9D9D9"/>
<path d="M219.306 42.1895C219.283 42.1895 219.267 42.2112 219.274 42.2327L222.942 54.2353C222.947 54.2494 222.96 54.259 222.974 54.259H225.113C225.127 54.259 225.14 54.2495 225.145 54.2355L228.241 44.3065L231.345 54.259L235.059 42.1895L232.333 51.0476L231.345 54.259L228.241 44.3065L227.058 42.2557C227.044 42.2304 227.006 42.2346 226.997 42.2625L224.102 51.5476C224.093 51.5794 224.047 51.5788 224.038 51.5468L221.405 42.2139C221.401 42.1994 221.387 42.1895 221.372 42.1895H219.306Z" fill="#D9D9D9"/>
<path d="M225.974 42.1898C225.951 42.1898 225.935 42.2116 225.942 42.2331L229.61 54.2357C229.615 54.2498 229.628 54.2594 229.642 54.2594H231.781C231.795 54.2594 231.808 54.2499 231.813 54.2359L234.909 44.3069L235.547 42.2328C235.553 42.2113 235.537 42.1895 235.515 42.1895L233.713 42.1898C233.698 42.1898 233.685 42.1994 233.681 42.2134L230.77 51.548C230.761 51.5798 230.715 51.5792 230.706 51.5471L228.073 42.2142C228.068 42.1998 228.055 42.1898 228.04 42.1898H225.974Z" fill="#D9D9D9"/>
<path d="M237.909 54.2597C237.891 54.2597 237.876 54.2447 237.876 54.2262V51.4365C237.876 51.418 237.861 51.403 237.842 51.403H236.933C236.915 51.403 236.9 51.388 236.9 51.3695V50.9437C236.9 50.9252 236.915 50.9102 236.933 50.9102H239.436C239.454 50.9102 239.469 50.9252 239.469 50.9437V51.3695C239.469 51.388 239.454 51.403 239.436 51.403H238.522C238.503 51.403 238.488 51.418 238.488 51.4365V54.2262C238.488 54.2447 238.473 54.2597 238.455 54.2597H237.909ZM239.956 54.2597C239.938 54.2597 239.923 54.2447 239.923 54.2262V50.9437C239.923 50.9252 239.938 50.9102 239.956 50.9102H240.63C240.642 50.9102 240.654 50.9173 240.66 50.9286L241.687 52.9747C241.7 52.9994 241.735 52.9993 241.747 52.9745L242.761 50.9288C242.766 50.9174 242.778 50.9102 242.791 50.9102H243.464C243.482 50.9102 243.497 50.9252 243.497 50.9437V54.2262C243.497 54.2447 243.482 54.2597 243.464 54.2597H242.918C242.9 54.2597 242.885 54.2447 242.885 54.2262V52.0881C242.885 52.0529 242.837 52.0415 242.822 52.0729L241.961 53.7629C241.955 53.7741 241.944 53.7812 241.931 53.7812H241.489C241.476 53.7812 241.465 53.7741 241.459 53.7629L240.599 52.0729C240.583 52.0415 240.535 52.0529 240.535 52.0881V54.2262C240.535 54.2447 240.52 54.2597 240.502 54.2597H239.956Z" fill="#D9D9D9"/>
<path d="M310.385 59.7113L341.935 25.9316L347.407 31.3413L316.472 65.492L310.385 59.7113Z" fill="#EEEEEE" stroke="#CFCFCF" stroke-width="0.211553" stroke-miterlimit="10"/>
<path d="M342.081 28.0484L345.714 31.416L316.219 63.2342L312.368 59.9941L342.081 28.0484ZM341.971 25.085L309.329 60.179L316.398 66.1262L348.678 31.3025L341.971 25.085Z" fill="#D9D9D9"/>
<path d="M342.25 27.5687L346.251 31.3902L335.029 43.576L333.315 45.438L335.217 47.1096L347.3 57.7353L343.966 61.546L331.4 50.6587L329.563 49.0676L327.934 50.8708L316.548 63.4652L312.487 59.7583L323.774 47.8743L325.499 46.0571L323.66 44.3546L311.155 32.7693L314.579 29.1382L326.745 40.7637L328.579 42.5173L330.292 40.646L342.252 27.5703M342.131 24.0273L328.46 38.9744L314.488 25.6216L307.636 32.8854L321.974 46.1686L308.949 59.8821L316.717 66.9725L329.776 52.5285L344.208 65.0347L350.793 57.5078L336.855 45.2507L349.723 31.2772L342.131 24.0273Z" fill="#D9D9D9"/>
<path d="M328.47 27.5983C328.496 27.5983 328.524 27.5983 328.55 27.5999C328.997 27.6203 329.409 27.8198 329.711 28.1575C330.012 28.4953 330.167 28.9351 330.146 29.3938C330.104 30.3127 329.371 31.0322 328.476 31.0322C328.45 31.0322 328.423 31.0322 328.397 31.0306C327.475 30.9866 326.758 30.1823 326.801 29.2367C326.843 28.3177 327.576 27.5983 328.47 27.5983ZM328.47 25.085C326.279 25.085 324.455 26.8537 324.353 29.122C324.248 31.4563 326.008 33.4355 328.284 33.5424C328.348 33.5455 328.412 33.5471 328.476 33.5471C330.668 33.5471 332.492 31.7783 332.594 29.51C332.698 27.1757 330.939 25.1965 328.663 25.0897C328.599 25.0865 328.535 25.085 328.47 25.085Z" fill="#D9D9D9"/>
<path d="M330.163 60.8108C330.183 60.8108 330.202 60.8108 330.224 60.8108C330.918 60.8437 331.457 61.4513 331.425 62.1641C331.394 62.858 330.842 63.4012 330.169 63.4012C330.149 63.4012 330.129 63.4012 330.108 63.4012C329.413 63.3682 328.875 62.7607 328.907 62.0479C328.937 61.354 329.49 60.8108 330.163 60.8108ZM330.163 58.2988C328.197 58.2988 326.559 59.8908 326.468 61.9317C326.374 64.0323 327.953 65.8142 329.996 65.91C330.054 65.9132 330.112 65.9147 330.169 65.9147C332.135 65.9147 333.772 64.3228 333.864 62.2818C333.957 60.1812 332.379 58.3993 330.335 58.3035C330.277 58.3004 330.219 58.2988 330.163 58.2988Z" fill="#D9D9D9"/>
<path d="M304.463 40.3172C305.281 40.3172 305.944 39.6542 305.944 38.8363C305.944 38.0185 305.281 37.3555 304.463 37.3555C303.645 37.3555 302.982 38.0185 302.982 38.8363C302.982 39.6542 303.645 40.3172 304.463 40.3172Z" fill="#D9D9D9"/>
<path d="M353.331 37.3553C354.149 37.3553 354.812 36.6923 354.812 35.8744C354.812 35.0566 354.149 34.3936 353.331 34.3936C352.513 34.3936 351.85 35.0566 351.85 35.8744C351.85 36.6923 352.513 37.3553 353.331 37.3553Z" fill="#ABABAB"/>
<path d="M354.601 53.6453C355.419 53.6453 356.082 52.9823 356.082 52.1645C356.082 51.3466 355.419 50.6836 354.601 50.6836C353.783 50.6836 353.12 51.3466 353.12 52.1645C353.12 52.9823 353.783 53.6453 354.601 53.6453Z" fill="#ABABAB"/>
<path d="M349.1 51.9525C349.568 51.9525 349.947 51.621 349.947 51.2121C349.947 50.8032 349.568 50.4717 349.1 50.4717C348.633 50.4717 348.254 50.8032 348.254 51.2121C348.254 51.621 348.633 51.9525 349.1 51.9525Z" fill="#D9D9D9"/>
<path d="M359.255 51.9528C359.839 51.9528 360.313 51.5266 360.313 51.0008C360.313 50.475 359.839 50.0488 359.255 50.0488C358.671 50.0488 358.197 50.475 358.197 51.0008C358.197 51.5266 358.671 51.9528 359.255 51.9528Z" fill="#D9D9D9"/>
<path d="M355.659 61.8948C356.243 61.8948 356.717 61.4212 356.717 60.8371C356.717 60.2529 356.243 59.7793 355.659 59.7793C355.075 59.7793 354.601 60.2529 354.601 60.8371C354.601 61.4212 355.075 61.8948 355.659 61.8948Z" fill="#D9D9D9"/>
<path d="M358.62 36.9322C359.321 36.9322 359.889 36.3639 359.889 35.6629C359.889 34.9618 359.321 34.3936 358.62 34.3936C357.919 34.3936 357.35 34.9618 357.35 35.6629C357.35 36.3639 357.919 36.9322 358.62 36.9322Z" fill="#D9D9D9"/>
<path d="M305.203 56.6063C306.079 56.6063 306.79 55.9433 306.79 55.1254C306.79 54.3075 306.079 53.6445 305.203 53.6445C304.327 53.6445 303.616 54.3075 303.616 55.1254C303.616 55.9433 304.327 56.6063 305.203 56.6063Z" fill="#D9D9D9"/>
<path d="M300.126 55.5485C300.652 55.5485 301.078 55.1223 301.078 54.5965C301.078 54.0707 300.652 53.6445 300.126 53.6445C299.6 53.6445 299.174 54.0707 299.174 54.5965C299.174 55.1223 299.6 55.5485 300.126 55.5485Z" fill="#D9D9D9"/>
<path d="M304.992 64.6452C305.517 64.6452 305.944 64.219 305.944 63.6932C305.944 63.1674 305.517 62.7412 304.992 62.7412C304.466 62.7412 304.04 63.1674 304.04 63.6932C304.04 64.219 304.466 64.6452 304.992 64.6452Z" fill="#D9D9D9"/>
<path d="M297.904 42.2795L297.829 43.9185C297.825 44.0056 297.892 44.0794 297.979 44.0834L312.737 44.7613C312.824 44.7653 312.898 44.6979 312.902 44.6108L312.977 42.9719C312.981 42.8848 312.914 42.8109 312.827 42.8069L298.069 42.1291C297.982 42.1251 297.908 42.1924 297.904 42.2795Z" fill="#D9D9D9"/>
<path d="M305.718 45.7848L305.642 47.4439C305.638 47.531 305.705 47.6048 305.792 47.6088L316.809 48.1148C316.897 48.1188 316.97 48.0515 316.974 47.9644L317.051 46.3053C317.055 46.2182 316.987 46.1444 316.9 46.1404L305.883 45.6344C305.796 45.6304 305.722 45.6977 305.718 45.7848Z" fill="#D9D9D9"/>
<path d="M297.715 46.4163L297.636 48.1465C297.631 48.2387 297.703 48.3169 297.795 48.3211L303.878 48.6005C303.97 48.6048 304.048 48.5335 304.053 48.4412L304.132 46.7111C304.136 46.6188 304.065 46.5407 303.973 46.5364L297.89 46.257C297.798 46.2528 297.719 46.3241 297.715 46.4163Z" fill="#D9D9D9"/>
<path d="M296.928 49.8301L296.852 51.4922C296.849 51.5537 296.897 51.6058 296.958 51.6086L313.155 52.3526C313.217 52.3554 313.269 52.3079 313.272 52.2464L313.348 50.5842C313.351 50.5228 313.303 50.4706 313.242 50.4678L297.045 49.7239C296.983 49.721 296.931 49.7686 296.928 49.8301Z" fill="#D9D9D9"/>
<path d="M344.8 39.2064L344.713 41.0958C344.71 41.1615 344.761 41.2173 344.826 41.2203L362.443 42.0295C362.509 42.0325 362.565 41.9816 362.568 41.9159L362.654 40.0265C362.657 39.9607 362.607 39.905 362.541 39.9019L344.924 39.0928C344.858 39.0898 344.803 39.1406 344.8 39.2064Z" fill="#ABABAB"/>
<path d="M341.552 43.3714L341.479 44.9578C341.475 45.0372 341.537 45.1045 341.616 45.1082L353.801 45.6678C353.88 45.6715 353.947 45.6101 353.951 45.5306L354.024 43.9443C354.028 43.8649 353.966 43.7975 353.887 43.7939L341.702 43.2342C341.623 43.2306 341.555 43.292 341.552 43.3714Z" fill="#D9D9D9"/>
<path d="M356.412 42.8579L356.327 44.6947C356.323 44.7776 356.387 44.8478 356.47 44.8516L364.245 45.2087C364.328 45.2125 364.398 45.1485 364.402 45.0656L364.486 43.2288C364.49 43.1459 364.426 43.0757 364.343 43.0719L356.568 42.7148C356.486 42.711 356.415 42.7751 356.412 42.8579Z" fill="#ABABAB"/>
<path d="M345.512 47.207L345.436 48.8691C345.433 48.9306 345.48 48.9828 345.542 48.9856L352.138 49.2886C352.2 49.2914 352.252 49.2438 352.255 49.1824L352.331 47.5202C352.334 47.4587 352.286 47.4066 352.225 47.4038L345.628 47.1008C345.567 47.098 345.515 47.1455 345.512 47.207Z" fill="#ABABAB"/>
<path d="M353.915 46.28L353.824 48.2715C353.82 48.3535 353.884 48.423 353.966 48.4267L363.09 48.8458C363.172 48.8496 363.242 48.7862 363.245 48.7042L363.337 46.7128C363.341 46.6308 363.277 46.5613 363.195 46.5575L354.071 46.1384C353.989 46.1346 353.919 46.1981 353.915 46.28Z" fill="#ABABAB"/>
<path d="M383.331 32.6108C383 32.2076 382.594 31.9006 382.113 31.6847C381.632 31.4687 381.075 31.3621 380.443 31.3621C379.811 31.3621 379.225 31.4843 378.687 31.7289C378.148 31.9734 377.68 32.3142 377.284 32.7539C376.889 33.1935 376.579 33.7138 376.358 34.3174C376.134 34.9209 376.025 35.5739 376.025 36.2789C376.025 36.9839 376.137 37.6551 376.358 38.2509C376.582 38.8466 376.886 39.3643 377.274 39.8014C377.662 40.241 378.117 40.5818 378.642 40.8264C379.168 41.0709 379.73 41.1932 380.333 41.1932C381.023 41.1932 381.634 41.0501 382.165 40.7613C382.696 40.4752 383.136 40.0719 383.479 39.5542L386.281 41.6459C385.633 42.5512 384.816 43.2198 383.825 43.6516C382.834 44.0835 381.814 44.2994 380.765 44.2994C379.571 44.2994 378.473 44.1121 377.466 43.7401C376.46 43.3654 375.591 42.8321 374.86 42.1349C374.126 41.4377 373.556 40.5948 373.145 39.6011C372.737 38.6099 372.531 37.5042 372.531 36.2815C372.531 35.0588 372.737 33.9532 373.145 32.962C373.553 31.9708 374.126 31.1253 374.86 30.4281C375.593 29.7309 376.462 29.195 377.466 28.823C378.473 28.4484 379.571 28.2637 380.765 28.2637C381.197 28.2637 381.645 28.3027 382.113 28.3833C382.579 28.4614 383.039 28.5889 383.492 28.7606C383.945 28.9323 384.379 29.1638 384.795 29.45C385.212 29.7387 385.586 30.0899 385.917 30.5062L383.331 32.6186V32.6108Z" fill="#D9D9D9"/>
<path d="M388.331 28.6465H394.237C395.012 28.6465 395.748 28.7219 396.445 28.8728C397.143 29.0237 397.754 29.276 398.277 29.6273C398.803 29.9785 399.219 30.4545 399.528 31.0503C399.838 31.646 399.992 32.3901 399.992 33.2824C399.992 34.3594 399.711 35.2751 399.151 36.0296C398.592 36.784 397.772 37.2627 396.695 37.463L400.574 43.907H396.544L393.355 37.8064H391.695V43.907H388.333V28.6465H388.331ZM391.692 34.9604H393.675C393.976 34.9604 394.296 34.9499 394.635 34.9291C394.973 34.9083 395.277 34.8433 395.551 34.734C395.824 34.6274 396.05 34.4583 396.23 34.2267C396.409 33.9978 396.5 33.6752 396.5 33.2564C396.5 32.8687 396.422 32.5592 396.263 32.3302C396.105 32.1013 395.904 31.9244 395.66 31.8021C395.415 31.6798 395.134 31.5966 394.819 31.555C394.502 31.5107 394.195 31.4899 393.893 31.4899H391.695V34.9604H391.692Z" fill="#D9D9D9"/>
<path d="M401.696 36.2767C401.696 35.0565 401.901 33.9483 402.31 32.9571C402.718 31.9659 403.291 31.1205 404.024 30.4232C404.758 29.726 405.627 29.1901 406.631 28.8181C407.638 28.4435 408.736 28.2588 409.93 28.2588C411.124 28.2588 412.222 28.4461 413.229 28.8181C414.236 29.1927 415.105 29.726 415.836 30.4232C416.57 31.1205 417.139 31.9633 417.551 32.9571C417.962 33.9509 418.165 35.0539 418.165 36.2767C418.165 37.4994 417.959 38.605 417.551 39.5962C417.142 40.5874 416.57 41.4328 415.836 42.1301C415.102 42.8273 414.233 43.3632 413.229 43.7352C412.222 44.1098 411.124 44.2945 409.93 44.2945C408.736 44.2945 407.638 44.1072 406.631 43.7352C405.624 43.3606 404.755 42.8273 404.024 42.1301C403.291 41.4328 402.721 40.59 402.31 39.5962C401.901 38.605 401.696 37.4994 401.696 36.2767ZM405.187 36.2767C405.187 36.9947 405.299 37.6529 405.52 38.2486C405.744 38.8443 406.061 39.362 406.48 39.7991C406.897 40.2388 407.396 40.5796 407.979 40.8241C408.562 41.0686 409.212 41.1909 409.93 41.1909C410.648 41.1909 411.299 41.0686 411.881 40.8241C412.464 40.5796 412.964 40.2388 413.38 39.7991C413.796 39.362 414.116 38.8443 414.34 38.2486C414.564 37.6529 414.673 36.9947 414.673 36.2767C414.673 35.5586 414.561 34.9187 414.34 34.3151C414.116 33.7116 413.796 33.1913 413.38 32.7516C412.964 32.3146 412.464 31.9712 411.881 31.7266C411.299 31.4821 410.648 31.3598 409.93 31.3598C409.212 31.3598 408.562 31.4821 407.979 31.7266C407.396 31.9712 406.897 32.3119 406.48 32.7516C406.064 33.1913 405.744 33.7116 405.52 34.3151C405.297 34.9187 405.187 35.5716 405.187 36.2767Z" fill="#D9D9D9"/>
<path d="M428.207 32.3741C427.934 32.0281 427.565 31.7731 427.096 31.6092C426.628 31.4453 426.188 31.3621 425.769 31.3621C425.525 31.3621 425.273 31.3907 425.015 31.4479C424.757 31.5052 424.513 31.5962 424.281 31.7185C424.052 31.8408 423.865 32.002 423.722 32.2024C423.579 32.4027 423.506 32.6472 423.506 32.936C423.506 33.3965 423.678 33.7477 424.024 33.9922C424.37 34.2367 424.804 34.4449 425.327 34.6166C425.853 34.7883 426.415 34.9626 427.018 35.1343C427.622 35.306 428.186 35.5505 428.709 35.8679C429.235 36.1853 429.669 36.6093 430.013 37.14C430.359 37.6707 430.531 38.3836 430.531 39.2733C430.531 40.163 430.372 40.8602 430.057 41.4924C429.74 42.1245 429.313 42.65 428.774 43.0663C428.236 43.4825 427.611 43.7921 426.899 43.9924C426.188 44.1927 425.436 44.2942 424.646 44.2942C423.654 44.2942 422.733 44.1433 421.888 43.8415C421.04 43.5398 420.249 43.0507 419.518 42.3769L421.911 39.7467C422.257 40.2072 422.692 40.5636 423.215 40.8134C423.74 41.0657 424.281 41.1906 424.841 41.1906C425.114 41.1906 425.39 41.1594 425.671 41.0943C425.952 41.0293 426.201 40.933 426.425 40.803C426.649 40.6729 426.828 40.509 426.964 40.3061C427.099 40.1057 427.169 39.869 427.169 39.5959C427.169 39.1354 426.992 38.7738 426.641 38.5084C426.29 38.2431 425.847 38.0167 425.314 37.8294C424.783 37.6421 424.208 37.4548 423.589 37.2701C422.97 37.0828 422.395 36.8331 421.864 36.5157C421.334 36.2009 420.891 35.782 420.537 35.2669C420.186 34.7492 420.009 34.0676 420.009 33.2195C420.009 32.3715 420.171 31.6821 420.493 31.0629C420.816 30.4463 421.248 29.9286 421.786 29.5124C422.325 29.0962 422.947 28.784 423.652 28.5758C424.357 28.3677 425.083 28.2637 425.829 28.2637C426.69 28.2637 427.526 28.3859 428.33 28.6305C429.133 28.875 429.859 29.2835 430.507 29.8584L428.199 32.3793L428.207 32.3741Z" fill="#D9D9D9"/>
<path d="M440.794 32.3741C440.521 32.0281 440.152 31.7731 439.683 31.6092C439.215 31.4453 438.775 31.3621 438.357 31.3621C438.112 31.3621 437.86 31.3907 437.602 31.4479C437.344 31.5052 437.1 31.5962 436.868 31.7185C436.639 31.8408 436.452 32.002 436.309 32.2024C436.166 32.4027 436.093 32.6472 436.093 32.936C436.093 33.3965 436.265 33.7477 436.611 33.9922C436.957 34.2367 437.391 34.4449 437.914 34.6166C438.44 34.7883 439.002 34.9626 439.605 35.1343C440.209 35.306 440.773 35.5505 441.296 35.8679C441.822 36.1853 442.256 36.6093 442.6 37.14C442.946 37.6707 443.118 38.3836 443.118 39.2733C443.118 40.163 442.959 40.8602 442.644 41.4924C442.327 42.1245 441.9 42.65 441.361 43.0663C440.823 43.4825 440.199 43.7921 439.486 43.9924C438.775 44.1927 438.024 44.2942 437.233 44.2942C436.241 44.2942 435.32 44.1433 434.472 43.8415C433.624 43.5398 432.833 43.0507 432.102 42.3769L434.496 39.7467C434.842 40.2072 435.276 40.5636 435.799 40.8134C436.325 41.0657 436.866 41.1906 437.425 41.1906C437.698 41.1906 437.974 41.1594 438.255 41.0943C438.536 41.0293 438.786 40.933 439.01 40.803C439.233 40.6729 439.413 40.509 439.548 40.3061C439.683 40.1057 439.754 39.869 439.754 39.5959C439.754 39.1354 439.577 38.7738 439.225 38.5084C438.874 38.2431 438.432 38.0167 437.901 37.8294C437.37 37.6421 436.796 37.4548 436.176 37.2701C435.557 37.0854 434.985 36.8331 434.451 36.5157C433.921 36.2009 433.478 35.782 433.127 35.2669C432.776 34.7492 432.599 34.0676 432.599 33.2195C432.599 32.3715 432.76 31.6821 433.083 31.0629C433.406 30.4463 433.837 29.9286 434.376 29.5124C434.914 29.0962 435.536 28.784 436.241 28.5758C436.946 28.3677 437.672 28.2637 438.419 28.2637C439.28 28.2637 440.115 28.3859 440.919 28.6305C441.723 28.875 442.449 29.2835 443.097 29.8584L440.789 32.3793L440.794 32.3741Z" fill="#D9D9D9"/>
<path d="M445.02 36.2767C445.02 35.0565 445.225 33.9483 445.634 32.9571C446.042 31.9659 446.614 31.1205 447.348 30.4232C448.082 29.726 448.951 29.1901 449.958 28.8181C450.964 28.4435 452.062 28.2588 453.256 28.2588C454.451 28.2588 455.549 28.4461 456.555 28.8181C457.562 29.1927 458.431 29.726 459.165 30.4232C459.899 31.1205 460.468 31.9633 460.879 32.9571C461.291 33.9509 461.493 35.0539 461.493 36.2767C461.493 37.4994 461.288 38.605 460.879 39.5962C460.471 40.5874 459.899 41.4328 459.165 42.1301C458.431 42.8273 457.562 43.3632 456.555 43.7352C455.549 44.1098 454.451 44.2945 453.256 44.2945C452.062 44.2945 450.964 44.1072 449.958 43.7352C448.951 43.3606 448.082 42.8273 447.348 42.1301C446.614 41.4328 446.045 40.59 445.634 39.5962C445.225 38.605 445.02 37.4994 445.02 36.2767ZM448.511 36.2767C448.511 36.9947 448.623 37.6529 448.844 38.2486C449.068 38.8443 449.385 39.362 449.804 39.7991C450.22 40.2388 450.72 40.5796 451.303 40.8241C451.885 41.0686 452.536 41.1909 453.254 41.1909C453.972 41.1909 454.622 41.0686 455.205 40.8241C455.788 40.5796 456.287 40.2388 456.704 39.7991C457.12 39.362 457.44 38.8443 457.664 38.2486C457.888 37.6529 457.997 36.9947 457.997 36.2767C457.997 35.5586 457.885 34.9187 457.664 34.3151C457.44 33.7116 457.123 33.1913 456.704 32.7516C456.287 32.3146 455.788 31.9712 455.205 31.7266C454.622 31.4821 453.972 31.3598 453.254 31.3598C452.536 31.3598 451.885 31.4821 451.303 31.7266C450.72 31.9712 450.22 32.3119 449.804 32.7516C449.388 33.1913 449.068 33.7116 448.844 34.3151C448.62 34.9187 448.511 35.5716 448.511 36.2767Z" fill="#D9D9D9"/>
<path d="M462.479 28.6465H466.317L470.089 38.6467H470.133L473.971 28.6465H477.572L471.278 43.907H468.583L462.482 28.6465H462.479Z" fill="#D9D9D9"/>
<path d="M479.508 28.6465H489.876V31.7501H482.869V34.5961H489.488V37.6997H482.869V40.8033H490.263V43.907H479.508V28.6465Z" fill="#D9D9D9"/>
<path d="M493.174 28.6465H499.08C499.855 28.6465 500.592 28.7219 501.289 28.8728C501.986 29.0237 502.598 29.276 503.121 29.6273C503.646 29.9785 504.062 30.4545 504.372 31.0503C504.682 31.646 504.835 32.3901 504.835 33.2824C504.835 34.3594 504.554 35.2751 503.995 36.0296C503.435 36.784 502.616 37.2627 501.539 37.463L505.418 43.907H501.388L498.198 37.8064H496.538V43.907H493.177V28.6465H493.174ZM496.536 34.9604H498.518C498.82 34.9604 499.14 34.9499 499.478 34.9291C499.816 34.9083 500.121 34.8433 500.394 34.734C500.667 34.6274 500.894 34.4583 501.073 34.2267C501.253 33.9978 501.344 33.6752 501.344 33.2564C501.344 32.8687 501.266 32.5592 501.107 32.3302C500.948 32.1013 500.748 31.9244 500.503 31.8021C500.259 31.6798 499.978 31.5966 499.663 31.555C499.346 31.5107 499.039 31.4899 498.737 31.4899H496.538V34.9604H496.536Z" fill="#D9D9D9"/>
<path d="M373.444 50.6411H376.194C376.587 50.6411 376.964 50.6796 377.326 50.7566C377.696 50.8337 378.02 50.9646 378.297 51.1495C378.574 51.3267 378.794 51.5693 378.956 51.8775C379.125 52.1779 379.21 52.5554 379.21 53.0099C379.21 53.5261 379.121 53.9421 378.944 54.2579C378.767 54.5737 378.528 54.8203 378.228 54.9974C377.927 55.1669 377.577 55.2825 377.176 55.3441C376.783 55.4057 376.371 55.4365 375.94 55.4365H374.9V58.8223H373.444V50.6411ZM375.778 54.1886C375.986 54.1886 376.202 54.1809 376.425 54.1655C376.648 54.15 376.852 54.1038 377.037 54.0268C377.23 53.9498 377.384 53.8342 377.5 53.6801C377.623 53.5261 377.684 53.3104 377.684 53.033C377.684 52.7788 377.631 52.5785 377.523 52.4321C377.415 52.2781 377.276 52.1625 377.107 52.0855C376.937 52.0007 376.748 51.9468 376.54 51.9237C376.332 51.9006 376.132 51.889 375.94 51.889H374.9V54.1886H375.778ZM382.819 50.6411H385.661C386.054 50.6411 386.432 50.6796 386.794 50.7566C387.164 50.826 387.491 50.9492 387.776 51.1264C388.061 51.3036 388.288 51.5424 388.458 51.8428C388.627 52.1433 388.712 52.5246 388.712 52.9868C388.712 53.58 388.546 54.0769 388.215 54.4774C387.892 54.878 387.426 55.1207 386.817 55.2054L388.989 58.8223H387.233L385.338 55.3557H384.275V58.8223H382.819V50.6411ZM385.407 54.1077C385.615 54.1077 385.823 54.1 386.031 54.0846C386.239 54.0615 386.428 54.0152 386.597 53.9459C386.775 53.8689 386.917 53.7572 387.025 53.6108C387.133 53.4567 387.187 53.2449 387.187 52.9753C387.187 52.7364 387.137 52.5439 387.037 52.3975C386.936 52.2511 386.805 52.1433 386.644 52.0739C386.482 51.9969 386.301 51.9468 386.101 51.9237C385.908 51.9006 385.719 51.889 385.534 51.889H384.275V54.1077H385.407ZM391.969 54.7663C391.969 54.1115 392.077 53.5184 392.293 52.9868C392.509 52.4476 392.805 51.9892 393.183 51.6117C393.568 51.2342 394.022 50.9454 394.546 50.7451C395.078 50.5371 395.659 50.4331 396.291 50.4331C396.93 50.4254 397.516 50.5217 398.047 50.722C398.579 50.9145 399.037 51.1996 399.423 51.5771C399.808 51.9545 400.108 52.409 400.324 52.9406C400.54 53.4721 400.647 54.0653 400.647 54.7201C400.647 55.3595 400.54 55.9411 400.324 56.465C400.108 56.9888 399.808 57.4395 399.423 57.8169C399.037 58.1944 398.579 58.491 398.047 58.7067C397.516 58.9147 396.93 59.0226 396.291 59.0303C395.659 59.0303 395.078 58.9301 394.546 58.7298C394.022 58.5218 393.568 58.2329 393.183 57.8632C392.805 57.4857 392.509 57.035 392.293 56.5112C392.077 55.9873 391.969 55.4057 391.969 54.7663ZM393.495 54.6739C393.495 55.113 393.56 55.5174 393.691 55.8872C393.83 56.257 394.022 56.5767 394.269 56.8463C394.515 57.1159 394.808 57.3278 395.147 57.4818C395.494 57.6359 395.879 57.713 396.303 57.713C396.726 57.713 397.111 57.6359 397.458 57.4818C397.805 57.3278 398.101 57.1159 398.348 56.8463C398.594 56.5767 398.783 56.257 398.914 55.8872C399.053 55.5174 399.122 55.113 399.122 54.6739C399.122 54.2656 399.053 53.8843 398.914 53.5299C398.783 53.1755 398.594 52.8674 398.348 52.6055C398.101 52.3359 397.805 52.1279 397.458 51.9815C397.111 51.8274 396.726 51.7504 396.303 51.7504C395.879 51.7504 395.494 51.8274 395.147 51.9815C394.808 52.1279 394.515 52.3359 394.269 52.6055C394.022 52.8674 393.83 53.1755 393.691 53.5299C393.56 53.8843 393.495 54.2656 393.495 54.6739ZM404.311 50.6411H405.767V58.8223H404.311V50.6411ZM409.872 50.6411H411.802L415.766 56.7192H415.789V50.6411H417.245V58.8223H415.396L411.351 52.5477H411.328V58.8223H409.872V50.6411ZM425.39 52.3975C425.236 52.1741 425.028 52.0123 424.766 51.9122C424.512 51.8043 424.242 51.7504 423.957 51.7504C423.788 51.7504 423.622 51.7696 423.46 51.8082C423.306 51.8467 423.164 51.9083 423.033 51.993C422.909 52.0778 422.809 52.1895 422.732 52.3282C422.655 52.4591 422.617 52.617 422.617 52.8019C422.617 53.0793 422.713 53.2911 422.906 53.4375C423.098 53.5838 423.337 53.7109 423.622 53.8188C423.907 53.9266 424.219 54.0306 424.558 54.1308C424.897 54.2309 425.209 54.3696 425.494 54.5468C425.779 54.724 426.018 54.9589 426.21 55.2517C426.403 55.5444 426.499 55.9334 426.499 56.4188C426.499 56.8579 426.418 57.243 426.257 57.5743C426.095 57.8978 425.875 58.1675 425.598 58.3832C425.328 58.5989 425.013 58.7606 424.651 58.8685C424.288 58.9763 423.907 59.0303 423.507 59.0303C422.998 59.0303 422.509 58.9455 422.039 58.776C421.569 58.6066 421.165 58.3215 420.826 57.9209L421.923 56.8579C422.101 57.1275 422.332 57.3393 422.617 57.4934C422.909 57.6398 423.218 57.713 423.541 57.713C423.711 57.713 423.88 57.6898 424.05 57.6436C424.219 57.5974 424.373 57.5281 424.512 57.4356C424.651 57.3432 424.762 57.2276 424.847 57.089C424.932 56.9426 424.974 56.777 424.974 56.5921C424.974 56.2916 424.878 56.0605 424.685 55.8988C424.493 55.737 424.254 55.6022 423.969 55.4943C423.684 55.3788 423.372 55.2709 423.033 55.1708C422.694 55.0706 422.382 54.9358 422.097 54.7663C421.812 54.5892 421.573 54.358 421.38 54.073C421.188 53.7803 421.091 53.3912 421.091 52.9059C421.091 52.4822 421.176 52.1163 421.346 51.8082C421.523 51.5 421.75 51.2458 422.027 51.0455C422.312 50.8375 422.636 50.6834 422.998 50.5833C423.36 50.4831 423.73 50.4331 424.107 50.4331C424.539 50.4331 424.955 50.4986 425.355 50.6295C425.764 50.7605 426.13 50.9762 426.453 51.2766L425.39 52.3975ZM430.327 50.6411H433.077C433.47 50.6411 433.847 50.6796 434.209 50.7566C434.579 50.8337 434.903 50.9646 435.18 51.1495C435.457 51.3267 435.677 51.5693 435.839 51.8775C436.008 52.1779 436.093 52.5554 436.093 53.0099C436.093 53.5261 436.004 53.9421 435.827 54.2579C435.65 54.5737 435.411 54.8203 435.111 54.9974C434.81 55.1669 434.46 55.2825 434.059 55.3441C433.666 55.4057 433.254 55.4365 432.823 55.4365H431.783V58.8223H430.327V50.6411ZM432.661 54.1886C432.869 54.1886 433.085 54.1809 433.308 54.1655C433.531 54.15 433.736 54.1038 433.92 54.0268C434.113 53.9498 434.267 53.8342 434.383 53.6801C434.506 53.5261 434.568 53.3104 434.568 53.033C434.568 52.7788 434.514 52.5785 434.406 52.4321C434.298 52.2781 434.159 52.1625 433.99 52.0855C433.82 52.0007 433.632 51.9468 433.424 51.9237C433.216 51.9006 433.015 51.889 432.823 51.889H431.783V54.1886H432.661ZM439.702 50.6411H445.121V51.9584H441.158V53.969H444.913V55.2863H441.158V57.505H445.329V58.8223H439.702V50.6411ZM454.693 52.5593C454.393 52.2357 454.1 52.02 453.815 51.9122C453.537 51.8043 453.256 51.7504 452.971 51.7504C452.548 51.7504 452.162 51.8274 451.816 51.9815C451.477 52.1279 451.184 52.3359 450.938 52.6055C450.691 52.8674 450.498 53.1755 450.36 53.5299C450.229 53.8843 450.163 54.2656 450.163 54.6739C450.163 55.113 450.229 55.5174 450.36 55.8872C450.498 56.257 450.691 56.5767 450.938 56.8463C451.184 57.1159 451.477 57.3278 451.816 57.4818C452.162 57.6359 452.548 57.713 452.971 57.713C453.303 57.713 453.622 57.6359 453.93 57.4818C454.246 57.3201 454.539 57.0659 454.809 56.7192L456.01 57.5743C455.641 58.0827 455.19 58.4525 454.658 58.6836C454.127 58.9147 453.561 59.0303 452.96 59.0303C452.328 59.0303 451.746 58.9301 451.215 58.7298C450.691 58.5218 450.236 58.2329 449.851 57.8632C449.474 57.4857 449.177 57.035 448.962 56.5112C448.746 55.9873 448.638 55.4057 448.638 54.7663C448.638 54.1115 448.746 53.5184 448.962 52.9868C449.177 52.4476 449.474 51.9892 449.851 51.6117C450.236 51.2342 450.691 50.9454 451.215 50.7451C451.746 50.5371 452.328 50.4331 452.96 50.4331C453.514 50.4331 454.027 50.5332 454.497 50.7335C454.974 50.9261 455.417 51.2574 455.825 51.7273L454.693 52.5593ZM460.974 51.9584H458.467V50.6411H464.938V51.9584H462.43V58.8223H460.974V51.9584Z" fill="#D9D9D9"/>
<path d="M571.864 44.5016L577.737 37.8251L573.338 32.8237C572.906 32.3335 572.209 32.3335 571.778 32.8237L561.506 44.5016C561.075 44.9918 561.075 45.7841 561.506 46.2743L571.778 57.9522C572.209 58.4424 572.906 58.4424 573.338 57.9522L577.737 52.9508L571.864 46.2743C571.433 45.7841 571.433 44.9918 571.864 44.5016Z" fill="#D9D9D9"/>
<path d="M593.967 44.5016L583.695 32.8237C583.264 32.3335 582.567 32.3335 582.136 32.8237L577.737 37.8251L583.609 44.5016C584.041 44.9918 584.041 45.7841 583.609 46.2743L577.737 52.9508L582.136 57.9522C582.567 58.4424 583.264 58.4424 583.695 57.9522L593.967 46.2743C594.398 45.7841 594.398 44.9918 593.967 44.5016Z" fill="#D9D9D9"/>
<path d="M578.953 34.8705C578.286 35.6295 577.193 35.6295 576.523 34.8705C575.856 34.1114 574.763 32.867 574.093 32.108C573.426 31.349 573.87 30.7256 575.083 30.7256H580.393C581.605 30.7256 582.051 31.3466 581.383 32.108C580.715 32.8694 579.623 34.1114 578.953 34.8705Z" fill="#AAAAAA"/>
<path d="M576.523 56.1298C577.191 55.3708 578.285 55.3708 578.953 56.1298C579.62 56.8888 580.713 58.1332 581.383 58.8923C582.052 59.6513 581.604 60.2747 580.393 60.2747H575.083C573.871 60.2747 573.425 59.6537 574.093 58.8923C574.761 58.1332 575.853 56.8888 576.523 56.1298Z" fill="#AAAAAA"/>
<path d="M606.754 48.5705C605.678 49.6567 604.361 50.1998 602.804 50.1998C601.246 50.1998 599.929 49.6567 598.853 48.5705C597.777 47.4842 597.239 46.1674 597.239 44.62C597.239 43.0624 597.777 41.7456 598.853 40.6696C599.929 39.5834 601.246 39.0403 602.804 39.0403C604.361 39.0403 605.678 39.5834 606.754 40.6696C607.84 41.7456 608.384 43.0624 608.384 44.62C608.384 46.1674 607.84 47.4842 606.754 48.5705ZM599.837 47.6021C600.636 48.4014 601.625 48.801 602.804 48.801C603.982 48.801 604.966 48.4014 605.755 47.6021C606.554 46.7925 606.954 45.7985 606.954 44.62C606.954 43.4313 606.554 42.4373 605.755 41.638C604.966 40.8285 603.982 40.4237 602.804 40.4237C601.625 40.4237 600.636 40.8285 599.837 41.638C599.048 42.4373 598.654 43.4313 598.654 44.62C598.654 45.7985 599.048 46.7925 599.837 47.6021ZM616.481 50L614.068 45.8805H611.532V50H610.102V39.2401H614.406C615.328 39.2401 616.117 39.568 616.773 40.2239C617.429 40.8694 617.757 41.6534 617.757 42.5757C617.757 43.2725 617.547 43.9078 617.127 44.4817C616.717 45.0556 616.184 45.4603 615.528 45.696L618.064 50H616.481ZM611.532 40.5774V44.5893H614.406C614.939 44.5893 615.39 44.3946 615.759 44.0052C616.138 43.6055 616.328 43.129 616.328 42.5757C616.328 42.0223 616.138 41.5509 615.759 41.1615C615.39 40.7721 614.939 40.5774 614.406 40.5774H611.532ZM619.499 39.2401H620.929V50H619.499V39.2401ZM624.666 48.6473H629.662V50H623.237V39.2401H629.585V40.5928H624.666V43.8976H629.201V45.2349H624.666V48.6473ZM638.074 39.2401H639.504V50H638.351L632.817 41.9608V50H631.388V39.2401H632.541L638.074 47.2639V39.2401ZM648.692 39.2401V40.5928H645.51V50H644.096V40.5928H640.929V39.2401H648.692ZM656.412 50L655.536 47.5867H650.694L649.818 50H648.296L652.308 39.2401H653.922L657.934 50H656.412ZM651.186 46.2494H655.044L653.107 40.9463L651.186 46.2494ZM660.633 48.6473H665.275V50H659.203V39.2401H660.633V48.6473ZM676.7 44.4202C677.192 44.6559 677.581 44.9941 677.868 45.4347C678.166 45.8754 678.314 46.3826 678.314 46.9565C678.314 47.8173 678.012 48.5397 677.407 49.1238C676.803 49.7079 676.065 50 675.194 50H670.552V39.2401H674.856C675.696 39.2401 676.408 39.5219 676.992 40.0855C677.576 40.6491 677.868 41.346 677.868 42.176C677.868 43.129 677.479 43.8771 676.7 44.4202ZM674.856 40.5774H671.981V43.8669H674.856C675.306 43.8669 675.686 43.708 675.993 43.3903C676.3 43.0727 676.454 42.6833 676.454 42.2221C676.454 41.7712 676.295 41.3869 675.978 41.0693C675.67 40.7414 675.296 40.5774 674.856 40.5774ZM675.194 48.6627C675.675 48.6627 676.08 48.4936 676.408 48.1554C676.736 47.8173 676.9 47.4022 676.9 46.9104C676.9 46.4287 676.731 46.0188 676.393 45.6807C676.065 45.3425 675.665 45.1734 675.194 45.1734H671.981V48.6627H675.194ZM686.743 49.1699C685.995 49.8565 685.027 50.1998 683.838 50.1998C682.649 50.1998 681.676 49.8565 680.917 49.1699C680.169 48.4731 679.795 47.5457 679.795 46.3877V39.2401H681.225V46.3263C681.225 47.0846 681.45 47.6892 681.901 48.1401C682.352 48.5807 682.998 48.801 683.838 48.801C684.678 48.801 685.324 48.5807 685.775 48.1401C686.225 47.6892 686.451 47.0846 686.451 46.3263V39.2401H687.865V46.3877C687.865 47.5457 687.491 48.4731 686.743 49.1699ZM690.051 39.2401H691.48V50H690.051V39.2401ZM695.218 48.6473H699.86V50H693.789V39.2401H695.218V48.6473ZM705.491 39.2401C706.956 39.2401 708.17 39.7627 709.134 40.808C710.107 41.843 710.594 43.1137 710.594 44.62C710.594 46.1264 710.107 47.4022 709.134 48.4475C708.17 49.4825 706.956 50 705.491 50H701.294V39.2401H705.491ZM705.491 48.6473C706.587 48.6473 707.484 48.263 708.181 47.4945C708.877 46.7259 709.226 45.7678 709.226 44.62C709.226 43.4723 708.877 42.5142 708.181 41.7456C707.484 40.977 706.587 40.5928 705.491 40.5928H702.724V48.6473H705.491ZM712.327 39.2401H713.757V50H712.327V39.2401ZM722.752 39.2401H724.181V50H723.028L717.495 41.9608V50H716.065V39.2401H717.218L722.752 47.2639V39.2401ZM736.858 44.6662V45.3118C736.858 46.7157 736.377 47.8839 735.413 48.8164C734.45 49.7387 733.174 50.1998 731.586 50.1998C729.946 50.1998 728.589 49.6618 727.513 48.5858C726.447 47.4996 725.914 46.1777 725.914 44.62C725.914 43.0624 726.447 41.7456 727.513 40.6696C728.589 39.5834 729.936 39.0403 731.555 39.0403C732.549 39.0403 733.461 39.2811 734.291 39.7627C735.121 40.2341 735.762 40.8592 736.213 41.638L734.983 42.3605C734.676 41.7764 734.209 41.3101 733.584 40.9617C732.969 40.603 732.288 40.4237 731.54 40.4237C730.31 40.4237 729.301 40.8285 728.512 41.638C727.723 42.4373 727.328 43.4313 727.328 44.62C727.328 45.8088 727.723 46.8028 728.512 47.6021C729.311 48.4014 730.341 48.801 731.601 48.801C732.677 48.801 733.548 48.5397 734.214 48.0171C734.881 47.4842 735.285 46.7976 735.429 45.9573H731.478V44.6662H736.858Z" fill="#D9D9D9"/>
<path fill-rule="evenodd" clip-rule="evenodd" d="M807.303 47.2809C807.303 47.2805 807.303 47.2801 807.304 47.2799L823.541 29.064C823.71 28.8745 823.845 28.6638 823.948 28.4401C825.982 28.6286 827.574 30.3398 827.574 32.4229V58.5765C827.574 60.7856 825.783 62.5765 823.574 62.5765H803.746L813.955 52.5447L822.662 58.6598C823.558 59.2895 824.762 59.0434 825.377 58.1037C825.931 57.2583 825.835 56.1089 825.149 55.3824L813.955 43.5137V43.5143L797.717 61.7305C797.494 61.9803 797.329 62.2671 797.222 62.5716C795.105 62.4683 793.42 60.7191 793.42 58.5765V32.4229C793.42 30.2137 795.211 28.4229 797.42 28.4229H817.303L807.303 38.2498L798.596 32.1347C797.699 31.5051 796.496 31.7512 795.881 32.6909C795.327 33.5363 795.423 34.6857 796.109 35.4121L807.303 47.2809Z" fill="#D9D9D9"/>
<path d="M941.725 51.4747C940.518 51.4747 939.241 51.3484 937.894 51.0958C936.547 50.8432 935.34 50.4082 934.273 49.7907C933.824 49.51 933.501 49.1873 933.305 48.8224C933.136 48.4295 933.066 48.0506 933.094 47.6857C933.151 47.2928 933.291 46.956 933.515 46.6753C933.768 46.3946 934.077 46.2122 934.442 46.128C934.835 46.0438 935.256 46.114 935.705 46.3385C936.827 46.8718 937.88 47.2507 938.862 47.4752C939.844 47.6717 940.813 47.7699 941.767 47.7699C943.114 47.7699 944.111 47.5454 944.756 47.0963C945.43 46.6192 945.766 46.0017 945.766 45.2439C945.766 44.5984 945.542 44.1072 945.093 43.7704C944.672 43.4056 944.026 43.1389 943.156 42.9705L938.946 42.1706C937.206 41.8338 935.873 41.2023 934.947 40.2761C934.049 39.3219 933.6 38.101 933.6 36.6135C933.6 35.2663 933.964 34.1015 934.694 33.1192C935.452 32.1369 936.49 31.3791 937.81 30.8458C939.129 30.3125 940.644 30.0459 942.356 30.0459C943.591 30.0459 944.742 30.1862 945.809 30.4669C946.903 30.7195 947.956 31.1265 948.966 31.6878C949.387 31.9123 949.668 32.207 949.808 32.5719C949.976 32.9367 950.019 33.3156 949.934 33.7086C949.85 34.0734 949.682 34.4102 949.429 34.719C949.177 34.9996 948.854 35.1821 948.461 35.2663C948.096 35.3224 947.675 35.2382 947.198 35.0137C946.328 34.5646 945.486 34.2418 944.672 34.0454C943.886 33.8489 943.128 33.7507 942.398 33.7507C941.023 33.7507 939.999 33.9892 939.325 34.4664C938.68 34.9435 938.357 35.575 938.357 36.3609C938.357 36.9503 938.553 37.4414 938.946 37.8344C939.339 38.2273 939.943 38.4939 940.757 38.6343L944.967 39.4341C946.791 39.7709 948.166 40.3884 949.092 41.2865C950.047 42.1847 950.524 43.3915 950.524 44.9071C950.524 46.956 949.724 48.5698 948.124 49.7486C946.524 50.8993 944.391 51.4747 941.725 51.4747Z" fill="#D9D9D9"/>
<path d="M916.84 51.4745C915.128 51.4745 913.711 51.1657 912.588 50.5483C911.465 49.9027 910.623 48.9485 910.062 47.6855C909.529 46.4225 909.262 44.8508 909.262 42.9703V32.7822C909.262 31.884 909.487 31.2245 909.936 30.8035C910.385 30.3544 911.03 30.1299 911.872 30.1299C912.714 30.1299 913.36 30.3544 913.809 30.8035C914.286 31.2245 914.525 31.884 914.525 32.7822V43.0545C914.525 44.514 914.819 45.5945 915.409 46.2962C915.998 46.9979 916.938 47.3487 918.229 47.3487C919.633 47.3487 920.784 46.8716 921.682 45.9173C922.58 44.935 923.029 43.6439 923.029 42.0441V32.7822C923.029 31.884 923.253 31.2245 923.702 30.8035C924.151 30.3544 924.797 30.1299 925.639 30.1299C926.481 30.1299 927.127 30.3544 927.576 30.8035C928.053 31.2245 928.291 31.884 928.291 32.7822V48.6959C928.291 50.4921 927.435 51.3903 925.723 51.3903C924.909 51.3903 924.278 51.1657 923.829 50.7167C923.38 50.2395 923.155 49.566 923.155 48.6959V45.4963L923.745 46.7593C923.155 48.2749 922.257 49.4397 921.05 50.2536C919.871 51.0675 918.468 51.4745 916.84 51.4745Z" fill="#D9D9D9"/>
<path d="M887.416 51.264C886.799 51.264 886.28 51.0956 885.859 50.7588C885.466 50.3939 885.255 49.9308 885.227 49.3695C885.227 48.8082 885.466 48.2188 885.943 47.6013L892.763 39.1813V41.6652L886.364 33.7926C885.859 33.1751 885.62 32.5857 885.648 32.0244C885.676 31.463 885.887 31.014 886.28 30.6772C886.701 30.3123 887.22 30.1299 887.837 30.1299C888.483 30.1299 889.016 30.2421 889.437 30.4667C889.886 30.6912 890.293 31.042 890.658 31.5192L895.71 38.0025H893.858L898.952 31.5192C899.345 31.042 899.751 30.6912 900.172 30.4667C900.593 30.2421 901.113 30.1299 901.73 30.1299C902.376 30.1299 902.895 30.3123 903.288 30.6772C903.681 31.042 903.877 31.5051 903.877 32.0665C903.905 32.6278 903.667 33.2172 903.162 33.8347L896.804 41.6231V39.2655L903.625 47.6013C904.13 48.1907 904.368 48.7661 904.34 49.3274C904.312 49.8887 904.088 50.3518 903.667 50.7167C903.274 51.0815 902.755 51.264 902.109 51.264C901.492 51.264 900.972 51.1517 900.551 50.9272C900.13 50.7026 899.723 50.3518 899.33 49.8747L893.858 42.9703H895.626L890.195 49.8747C889.83 50.3237 889.437 50.6746 889.016 50.9272C888.595 51.1517 888.062 51.264 887.416 51.264Z" fill="#D9D9D9"/>
<path d="M873.016 51.4747C870.686 51.4747 868.679 51.0397 866.995 50.1696C865.311 49.2995 864.006 48.0646 863.08 46.4648C862.182 44.865 861.733 42.9705 861.733 40.7813C861.733 38.6483 862.168 36.7819 863.038 35.1821C863.936 33.5823 865.157 32.3333 866.701 31.4352C868.272 30.509 870.055 30.0459 872.047 30.0459C873.507 30.0459 874.812 30.2845 875.963 30.7616C877.141 31.2387 878.138 31.9264 878.952 32.8245C879.794 33.7226 880.425 34.8172 880.846 36.1083C881.295 37.3713 881.52 38.8027 881.52 40.4024C881.52 40.9076 881.337 41.3006 880.973 41.5812C880.636 41.8338 880.145 41.9601 879.499 41.9601H865.985V38.929H877.815L877.141 39.5604C877.141 38.2694 876.945 37.1888 876.552 36.3188C876.187 35.4487 875.64 34.7891 874.91 34.3401C874.208 33.8629 873.324 33.6244 872.258 33.6244C871.079 33.6244 870.069 33.905 869.227 34.4664C868.413 34.9996 867.781 35.7715 867.332 36.7819C866.911 37.7642 866.701 38.943 866.701 40.3182V40.6129C866.701 42.9144 867.234 44.6405 868.3 45.7912C869.395 46.9139 870.995 47.4752 873.1 47.4752C873.83 47.4752 874.644 47.391 875.542 47.2226C876.468 47.0261 877.338 46.7034 878.152 46.2543C878.741 45.9175 879.26 45.7772 879.71 45.8333C880.159 45.8614 880.509 46.0157 880.762 46.2964C881.043 46.5771 881.211 46.9279 881.267 47.3489C881.323 47.7418 881.239 48.1488 881.015 48.5698C880.818 48.9908 880.467 49.3557 879.962 49.6644C878.98 50.2819 877.843 50.745 876.552 51.0537C875.289 51.3344 874.11 51.4747 873.016 51.4747Z" fill="#D9D9D9"/>
<path d="M840.433 51.3905C839.591 51.3905 838.945 51.166 838.496 50.7169C838.047 50.2398 837.823 49.5662 837.823 48.6961V32.7824C837.823 31.9123 838.047 31.2528 838.496 30.8037C838.945 30.3546 839.577 30.1301 840.391 30.1301C841.205 30.1301 841.836 30.3546 842.285 30.8037C842.734 31.2528 842.959 31.9123 842.959 32.7824V35.6452L842.496 34.5927C843.113 33.1051 844.068 31.9825 845.359 31.2247C846.678 30.4388 848.165 30.0459 849.821 30.0459C851.477 30.0459 852.838 30.3546 853.905 30.9721C854.971 31.5896 855.771 32.5298 856.305 33.7928C856.838 35.0277 857.104 36.5994 857.104 38.508V48.6961C857.104 49.5662 856.88 50.2398 856.431 50.7169C855.982 51.166 855.336 51.3905 854.494 51.3905C853.652 51.3905 852.993 51.166 852.516 50.7169C852.067 50.2398 851.842 49.5662 851.842 48.6961V38.7606C851.842 37.1608 851.533 35.996 850.916 35.2663C850.326 34.5365 849.4 34.1717 848.137 34.1717C846.594 34.1717 845.359 34.6628 844.432 35.6452C843.534 36.5994 843.085 37.8765 843.085 39.4763V48.6961C843.085 50.4924 842.201 51.3905 840.433 51.3905Z" fill="#D9D9D9"/>
<path d="M942.794 61.171C942.713 61.171 942.65 61.1485 942.605 61.1035C942.56 61.054 942.538 60.9866 942.538 60.9011V56.5902C942.538 56.5002 942.56 56.4328 942.605 56.3878C942.65 56.3428 942.713 56.3203 942.794 56.3203C942.866 56.3203 942.922 56.3361 942.963 56.3675C943.008 56.3945 943.048 56.4417 943.084 56.5092L944.933 59.9904H944.73L946.572 56.5092C946.608 56.4417 946.646 56.3945 946.687 56.3675C946.727 56.3361 946.786 56.3203 946.862 56.3203C946.939 56.3203 946.999 56.3428 947.044 56.3878C947.089 56.4328 947.112 56.5002 947.112 56.5902V60.9011C947.112 60.9866 947.089 61.054 947.044 61.1035C947.004 61.1485 946.941 61.171 946.855 61.171C946.774 61.171 946.711 61.1485 946.666 61.1035C946.621 61.054 946.599 60.9866 946.599 60.9011V57.1096H946.761L945.074 60.2737C945.043 60.3322 945.009 60.3749 944.973 60.4019C944.942 60.4244 944.894 60.4356 944.831 60.4356C944.768 60.4356 944.719 60.4221 944.683 60.3951C944.647 60.3681 944.615 60.3277 944.589 60.2737L942.882 57.1029H943.044V60.9011C943.044 60.9866 943.021 61.054 942.976 61.1035C942.936 61.1485 942.875 61.171 942.794 61.171Z" fill="#D9D9D9"/>
<path d="M938.142 61.1845C937.827 61.1845 937.551 61.144 937.312 61.063C937.078 60.9776 936.881 60.8539 936.719 60.692C936.557 60.5256 936.435 60.3209 936.354 60.0781C936.273 59.8352 936.233 59.5563 936.233 59.2415V56.6037C936.233 56.5092 936.255 56.4395 936.3 56.3945C936.35 56.345 936.42 56.3203 936.51 56.3203C936.599 56.3203 936.667 56.345 936.712 56.3945C936.761 56.4395 936.786 56.5092 936.786 56.6037V59.2145C936.786 59.7093 936.901 60.0803 937.13 60.3277C937.36 60.5705 937.697 60.692 938.142 60.692C938.587 60.692 938.922 60.5705 939.147 60.3277C939.372 60.0803 939.485 59.7093 939.485 59.2145V56.6037C939.485 56.5092 939.509 56.4395 939.559 56.3945C939.608 56.345 939.678 56.3203 939.768 56.3203C939.853 56.3203 939.919 56.345 939.964 56.3945C940.013 56.4395 940.038 56.5092 940.038 56.6037V59.2415C940.038 59.6598 939.966 60.0151 939.822 60.3074C939.683 60.5998 939.471 60.8202 939.188 60.9686C938.904 61.1125 938.556 61.1845 938.142 61.1845Z" fill="#D9D9D9"/>
<path d="M931.715 61.1239C931.626 61.1239 931.556 61.0992 931.506 61.0497C931.457 60.9957 931.432 60.9238 931.432 60.8338V56.6241C931.432 56.5296 931.455 56.4577 931.5 56.4082C931.549 56.3587 931.619 56.334 931.709 56.334C931.799 56.334 931.866 56.3587 931.911 56.4082C931.961 56.4577 931.985 56.5296 931.985 56.6241V60.6382H934.198C934.279 60.6382 934.342 60.6607 934.387 60.7056C934.432 60.7461 934.455 60.8046 934.455 60.8811C934.455 60.9575 934.432 61.0182 934.387 61.0632C934.342 61.1037 934.279 61.1239 934.198 61.1239H931.715Z" fill="#D9D9D9"/>
<path d="M926.092 61.1706C926.002 61.1706 925.932 61.1459 925.882 61.0964C925.837 61.0424 925.815 60.9705 925.815 60.8805V56.6505C925.815 56.5561 925.84 56.4864 925.889 56.4414C925.939 56.3919 926.008 56.3672 926.098 56.3672H927.697C928.205 56.3672 928.597 56.4931 928.871 56.745C929.145 56.9924 929.283 57.3432 929.283 57.7974C929.283 58.2472 929.145 58.598 928.871 58.8499C928.597 59.1017 928.205 59.2277 927.697 59.2277H926.368V60.8805C926.368 60.9705 926.346 61.0424 926.301 61.0964C926.256 61.1459 926.186 61.1706 926.092 61.1706ZM926.368 58.7622H927.63C927.994 58.7622 928.268 58.6812 928.453 58.5193C928.642 58.3529 928.736 58.1123 928.736 57.7974C928.736 57.4781 928.642 57.2375 928.453 57.0756C928.268 56.9091 927.994 56.8259 927.63 56.8259H926.368V58.7622Z" fill="#D9D9D9"/>
<path d="M921.984 61.1843C921.516 61.1843 921.116 61.0853 920.783 60.8874C920.45 60.6895 920.194 60.4084 920.014 60.0441C919.838 59.6798 919.75 59.2458 919.75 58.7421C919.75 58.3643 919.8 58.027 919.899 57.7301C920.002 57.4288 920.149 57.1747 920.337 56.9678C920.531 56.7564 920.767 56.5945 921.046 56.482C921.325 56.3651 921.637 56.3066 921.984 56.3066C922.262 56.3066 922.528 56.3471 922.78 56.4281C923.031 56.5045 923.25 56.6192 923.434 56.7721C923.492 56.8171 923.531 56.8688 923.549 56.9273C923.571 56.9813 923.573 57.0353 923.555 57.0892C923.542 57.1387 923.515 57.1814 923.474 57.2174C923.439 57.2489 923.394 57.2646 923.34 57.2646C923.286 57.2646 923.225 57.2421 923.157 57.1972C922.996 57.0667 922.818 56.97 922.624 56.9071C922.431 56.8441 922.222 56.8126 921.997 56.8126C921.642 56.8126 921.34 56.8891 921.093 57.042C920.846 57.1904 920.659 57.4086 920.533 57.6964C920.407 57.9842 920.344 58.3328 920.344 58.7421C920.344 59.1514 920.407 59.5022 920.533 59.7945C920.659 60.0824 920.846 60.3028 921.093 60.4557C921.34 60.6041 921.642 60.6783 921.997 60.6783C922.217 60.6783 922.427 60.6468 922.624 60.5839C922.822 60.5164 923.004 60.4174 923.171 60.287C923.238 60.242 923.299 60.2218 923.353 60.2263C923.407 60.2263 923.452 60.242 923.488 60.2735C923.524 60.305 923.549 60.3455 923.562 60.395C923.58 60.4444 923.58 60.4962 923.562 60.5501C923.549 60.6041 923.515 60.6513 923.461 60.6918C923.272 60.8537 923.049 60.9774 922.793 61.0628C922.541 61.1438 922.271 61.1843 921.984 61.1843Z" fill="#D9D9D9"/>
<path d="M917.121 61.171C917.031 61.171 916.961 61.1462 916.912 61.0968C916.867 61.0428 916.844 60.9708 916.844 60.8809V56.6104C916.844 56.516 916.867 56.444 916.912 56.3945C916.961 56.345 917.031 56.3203 917.121 56.3203C917.211 56.3203 917.278 56.345 917.323 56.3945C917.373 56.444 917.397 56.516 917.397 56.6104V60.8809C917.397 60.9708 917.375 61.0428 917.33 61.0968C917.285 61.1462 917.215 61.171 917.121 61.171Z" fill="#D9D9D9"/>
<path d="M912.772 61.1843C912.264 61.1843 911.834 61.0876 911.484 60.8942C911.137 60.7008 910.874 60.4219 910.694 60.0576C910.514 59.6933 910.424 59.2571 910.424 58.7488C910.424 58.371 910.474 58.0315 910.573 57.7301C910.676 57.4288 910.825 57.1747 911.018 56.9678C911.216 56.7564 911.454 56.5945 911.733 56.482C912.016 56.3651 912.336 56.3066 912.691 56.3066C912.974 56.3066 913.249 56.3471 913.514 56.4281C913.78 56.5045 914.016 56.6282 914.223 56.7991C914.277 56.8396 914.31 56.8846 914.324 56.9341C914.337 56.9835 914.335 57.033 914.317 57.0825C914.303 57.1319 914.279 57.1747 914.243 57.2107C914.211 57.2421 914.169 57.2601 914.115 57.2646C914.065 57.2691 914.013 57.2534 913.959 57.2174C913.775 57.0735 913.579 56.97 913.372 56.9071C913.166 56.8396 912.936 56.8059 912.684 56.8059C912.325 56.8059 912.019 56.8823 911.767 57.0353C911.519 57.1882 911.331 57.4086 911.2 57.6964C911.074 57.9842 911.011 58.3351 911.011 58.7488C911.011 59.3785 911.157 59.8597 911.45 60.1926C911.747 60.5254 912.192 60.6918 912.786 60.6918C913.001 60.6918 913.213 60.6716 913.42 60.6311C913.627 60.5861 913.822 60.5254 914.007 60.4489L913.885 60.766V59.0862H912.92C912.84 59.0862 912.779 59.0659 912.738 59.0254C912.698 58.985 912.678 58.931 912.678 58.8635C912.678 58.7916 912.698 58.7376 912.738 58.7016C912.779 58.6656 912.84 58.6476 912.92 58.6476H914.128C914.205 58.6476 914.263 58.6679 914.303 58.7084C914.344 58.7488 914.364 58.8073 914.364 58.8838V60.6446C914.364 60.712 914.353 60.7683 914.33 60.8132C914.308 60.8582 914.27 60.8919 914.216 60.9144C914.027 60.9909 913.8 61.0561 913.534 61.1101C913.274 61.1595 913.019 61.1843 912.772 61.1843Z" fill="#D9D9D9"/>
<path d="M906.075 61.1843C905.634 61.1843 905.25 61.0853 904.922 60.8874C904.598 60.6851 904.346 60.4017 904.166 60.0374C903.991 59.6731 903.903 59.2413 903.903 58.7421C903.903 58.3643 903.952 58.027 904.051 57.7301C904.155 57.4288 904.301 57.1747 904.49 56.9678C904.679 56.7564 904.906 56.5945 905.171 56.482C905.441 56.3651 905.742 56.3066 906.075 56.3066C906.525 56.3066 906.912 56.4056 907.236 56.6035C907.564 56.8014 907.816 57.0825 907.991 57.4468C908.171 57.8066 908.261 58.2361 908.261 58.7353C908.261 59.1131 908.209 59.4527 908.106 59.754C908.002 60.0554 907.856 60.3118 907.667 60.5231C907.478 60.7345 907.249 60.8987 906.979 61.0156C906.714 61.1281 906.412 61.1843 906.075 61.1843ZM906.075 60.6918C906.417 60.6918 906.705 60.6153 906.939 60.4624C907.177 60.3095 907.359 60.0869 907.485 59.7945C907.611 59.5022 907.674 59.1514 907.674 58.7421C907.674 58.1259 907.535 57.6492 907.256 57.3119C906.981 56.97 906.588 56.7991 906.075 56.7991C905.742 56.7991 905.457 56.8756 905.218 57.0285C904.985 57.1814 904.805 57.4041 904.679 57.6964C904.553 57.9842 904.49 58.3328 904.49 58.7421C904.49 59.3538 904.629 59.8328 904.908 60.1791C905.187 60.5209 905.576 60.6918 906.075 60.6918Z" fill="#D9D9D9"/>
<path d="M899.592 61.1239C899.502 61.1239 899.433 61.0992 899.383 61.0497C899.334 60.9957 899.309 60.9238 899.309 60.8338V56.6241C899.309 56.5296 899.332 56.4577 899.377 56.4082C899.426 56.3587 899.496 56.334 899.586 56.334C899.676 56.334 899.743 56.3587 899.788 56.4082C899.838 56.4577 899.862 56.5296 899.862 56.6241V60.6382H902.075C902.156 60.6382 902.219 60.6607 902.264 60.7056C902.309 60.7461 902.331 60.8046 902.331 60.8811C902.331 60.9575 902.309 61.0182 902.264 61.0632C902.219 61.1037 902.156 61.1239 902.075 61.1239H899.592Z" fill="#D9D9D9"/>
<path d="M892.277 61.171C892.187 61.171 892.117 61.1462 892.068 61.0968C892.023 61.0428 892 60.9686 892 60.8741V58.6613L892.122 59.0459L890.428 56.7116C890.388 56.6531 890.368 56.5947 890.368 56.5362C890.372 56.4732 890.397 56.4215 890.442 56.381C890.487 56.3406 890.545 56.3203 890.617 56.3203C890.68 56.3203 890.736 56.3361 890.786 56.3675C890.835 56.3945 890.88 56.4395 890.921 56.5025L892.358 58.4859H892.216L893.653 56.5025C893.703 56.435 893.75 56.3878 893.795 56.3608C893.84 56.3338 893.894 56.3203 893.957 56.3203C894.029 56.3203 894.085 56.3406 894.125 56.381C894.166 56.417 894.186 56.4665 894.186 56.5295C894.191 56.5879 894.17 56.6509 894.125 56.7183L892.439 59.0459L892.554 58.6613V60.8741C892.554 61.072 892.461 61.171 892.277 61.171Z" fill="#D9D9D9"/>
<path d="M885.341 61.1234C885.242 61.1234 885.166 61.0987 885.112 61.0492C885.062 60.9952 885.038 60.9188 885.038 60.8198V56.6708C885.038 56.5718 885.062 56.4976 885.112 56.4481C885.166 56.3942 885.242 56.3672 885.341 56.3672H886.94C887.268 56.3672 887.545 56.4167 887.77 56.5156C887.999 56.6101 888.175 56.7495 888.296 56.9339C888.418 57.1183 888.478 57.3432 888.478 57.6085C888.478 57.9054 888.391 58.1527 888.215 58.3506C888.044 58.5485 887.81 58.679 887.514 58.7419V58.6475C887.851 58.6879 888.114 58.8094 888.303 59.0118C888.496 59.2142 888.593 59.4818 888.593 59.8146C888.593 60.2374 888.456 60.5612 888.181 60.7861C887.907 61.011 887.52 61.1234 887.021 61.1234H885.341ZM885.577 60.6781H886.967C887.327 60.6781 887.597 60.6062 887.777 60.4622C887.957 60.3183 888.046 60.1002 888.046 59.8078C888.046 59.511 887.957 59.2929 887.777 59.1534C887.597 59.0095 887.327 58.9376 886.967 58.9376H885.577V60.6781ZM885.577 58.4923H886.859C887.21 58.4923 887.475 58.4203 887.655 58.2764C887.84 58.1325 887.932 57.9256 887.932 57.6557C887.932 57.3769 887.84 57.1678 887.655 57.0283C887.475 56.8844 887.21 56.8124 886.859 56.8124H885.577V58.4923Z" fill="#D9D9D9"/>
<path d="M875.896 61.1234C875.797 61.1234 875.72 61.0987 875.666 61.0492C875.617 60.9952 875.592 60.9188 875.592 60.8198V56.6708C875.592 56.5718 875.617 56.4976 875.666 56.4481C875.72 56.3942 875.797 56.3672 875.896 56.3672H877.198C877.967 56.3672 878.561 56.5696 878.979 56.9744C879.397 57.3791 879.606 57.9683 879.606 58.7419C879.606 59.1287 879.552 59.4705 879.444 59.7674C879.341 60.0597 879.186 60.3071 878.979 60.5095C878.772 60.7119 878.52 60.8648 878.223 60.9682C877.927 61.0717 877.585 61.1234 877.198 61.1234H875.896ZM876.145 60.6511H877.157C877.472 60.6511 877.744 60.6107 877.974 60.5297C878.208 60.4488 878.401 60.3296 878.554 60.1722C878.711 60.0147 878.828 59.8168 878.905 59.5785C878.981 59.3356 879.019 59.0568 879.019 58.7419C879.019 58.1078 878.864 57.6333 878.554 57.3184C878.244 56.9991 877.778 56.8394 877.157 56.8394H876.145V60.6511Z" fill="#D9D9D9"/>
<path d="M870.613 61.1234C870.514 61.1234 870.437 61.0987 870.383 61.0492C870.334 60.9952 870.309 60.9188 870.309 60.8198V56.6708C870.309 56.5718 870.334 56.4976 870.383 56.4481C870.437 56.3942 870.514 56.3672 870.613 56.3672H873.122C873.199 56.3672 873.257 56.3874 873.298 56.4279C873.338 56.4684 873.358 56.5246 873.358 56.5966C873.358 56.673 873.338 56.7315 873.298 56.772C873.257 56.8124 873.199 56.8327 873.122 56.8327H870.849V58.4788H872.981C873.057 58.4788 873.116 58.499 873.156 58.5395C873.197 58.5755 873.217 58.6317 873.217 58.7082C873.217 58.7846 873.197 58.8431 873.156 58.8836C873.116 58.9241 873.057 58.9443 872.981 58.9443H870.849V60.6579H873.122C873.199 60.6579 873.257 60.6781 873.298 60.7186C873.338 60.7591 873.358 60.8153 873.358 60.8873C873.358 60.9637 873.338 61.0222 873.298 61.0627C873.257 61.1032 873.199 61.1234 873.122 61.1234H870.613Z" fill="#D9D9D9"/>
<path d="M864.724 61.1706C864.634 61.1706 864.565 61.1459 864.515 61.0964C864.47 61.0424 864.448 60.9705 864.448 60.8805V56.6505C864.448 56.5561 864.472 56.4864 864.522 56.4414C864.571 56.3919 864.641 56.3672 864.731 56.3672H866.33C866.838 56.3672 867.23 56.4864 867.504 56.7247C867.778 56.9631 867.915 57.3027 867.915 57.7435C867.915 58.0223 867.852 58.2652 867.727 58.4721C867.605 58.6745 867.425 58.8296 867.187 58.9376C866.948 59.041 866.663 59.0927 866.33 59.0927L866.397 59.005H866.532C866.708 59.005 866.861 59.05 866.991 59.14C867.122 59.2299 867.241 59.3738 867.349 59.5717L867.996 60.7793C868.032 60.8423 868.048 60.9053 868.044 60.9682C868.044 61.0267 868.023 61.0762 867.983 61.1166C867.942 61.1526 867.884 61.1706 867.807 61.1706C867.731 61.1706 867.668 61.1526 867.619 61.1166C867.569 61.0807 867.526 61.0289 867.49 60.9615L866.755 59.5987C866.652 59.4053 866.532 59.2771 866.397 59.2142C866.263 59.1467 866.085 59.113 865.864 59.113H865.001V60.8805C865.001 60.9705 864.978 61.0424 864.933 61.0964C864.889 61.1459 864.819 61.1706 864.724 61.1706ZM865.001 58.6745H866.249C866.618 58.6745 866.897 58.598 867.086 58.4451C867.274 58.2877 867.369 58.0538 867.369 57.7435C867.369 57.4421 867.274 57.215 867.086 57.0621C866.897 56.9047 866.618 56.8259 866.249 56.8259H865.001V58.6745Z" fill="#D9D9D9"/>
<path d="M859.468 61.1234C859.369 61.1234 859.293 61.0987 859.239 61.0492C859.189 60.9952 859.165 60.9188 859.165 60.8198V56.6708C859.165 56.5718 859.189 56.4976 859.239 56.4481C859.293 56.3942 859.369 56.3672 859.468 56.3672H861.978C862.054 56.3672 862.113 56.3874 862.153 56.4279C862.194 56.4684 862.214 56.5246 862.214 56.5966C862.214 56.673 862.194 56.7315 862.153 56.772C862.113 56.8124 862.054 56.8327 861.978 56.8327H859.704V58.4788H861.836C861.913 58.4788 861.971 58.499 862.012 58.5395C862.052 58.5755 862.072 58.6317 862.072 58.7082C862.072 58.7846 862.052 58.8431 862.012 58.8836C861.971 58.9241 861.913 58.9443 861.836 58.9443H859.704V60.6579H861.978C862.054 60.6579 862.113 60.6781 862.153 60.7186C862.194 60.7591 862.214 60.8153 862.214 60.8873C862.214 60.9637 862.194 61.0222 862.153 61.0627C862.113 61.1032 862.054 61.1234 861.978 61.1234H859.468Z" fill="#D9D9D9"/>
<path d="M851.914 61.171C851.833 61.171 851.768 61.1507 851.718 61.1103C851.669 61.0653 851.628 61.0001 851.597 60.9146L850.106 56.6576C850.074 56.5632 850.081 56.4845 850.126 56.4215C850.176 56.354 850.252 56.3203 850.355 56.3203C850.432 56.3203 850.493 56.3406 850.538 56.381C850.583 56.417 850.621 56.4755 850.652 56.5564L852.049 60.6515H851.813L853.236 56.5767C853.268 56.4912 853.306 56.4283 853.351 56.3878C853.396 56.3428 853.457 56.3203 853.533 56.3203C853.605 56.3203 853.661 56.3428 853.702 56.3878C853.747 56.4283 853.785 56.4912 853.816 56.5767L855.22 60.6515H855.01L856.42 56.5564C856.443 56.48 856.477 56.4215 856.522 56.381C856.571 56.3406 856.634 56.3203 856.711 56.3203C856.805 56.3203 856.875 56.3518 856.92 56.4148C856.965 56.4777 856.969 56.5587 856.933 56.6576L855.436 60.9146C855.404 61.0001 855.364 61.0653 855.314 61.1103C855.269 61.1507 855.204 61.171 855.118 61.171C855.037 61.171 854.972 61.1507 854.923 61.1103C854.878 61.0653 854.837 61.0001 854.801 60.9146L853.445 57.0084H853.594L852.224 60.9146C852.193 61.0001 852.155 61.0653 852.11 61.1103C852.065 61.1507 851.999 61.171 851.914 61.171Z" fill="#D9D9D9"/>
<path d="M845.972 61.1843C845.531 61.1843 845.146 61.0853 844.818 60.8874C844.494 60.6851 844.242 60.4017 844.062 60.0374C843.887 59.6731 843.799 59.2413 843.799 58.7421C843.799 58.3643 843.849 58.027 843.948 57.7301C844.051 57.4288 844.197 57.1747 844.386 56.9678C844.575 56.7564 844.802 56.5945 845.068 56.482C845.337 56.3651 845.639 56.3066 845.972 56.3066C846.421 56.3066 846.808 56.4056 847.132 56.6035C847.46 56.8014 847.712 57.0825 847.888 57.4468C848.068 57.8066 848.157 58.2361 848.157 58.7353C848.157 59.1131 848.106 59.4527 848.002 59.754C847.899 60.0554 847.753 60.3118 847.564 60.5231C847.375 60.7345 847.146 60.8987 846.876 61.0156C846.61 61.1281 846.309 61.1843 845.972 61.1843ZM845.972 60.6918C846.313 60.6918 846.601 60.6153 846.835 60.4624C847.074 60.3095 847.256 60.0869 847.382 59.7945C847.508 59.5022 847.571 59.1514 847.571 58.7421C847.571 58.1259 847.431 57.6492 847.152 57.3119C846.878 56.97 846.484 56.7991 845.972 56.7991C845.639 56.7991 845.353 56.8756 845.115 57.0285C844.881 57.1814 844.701 57.4041 844.575 57.6964C844.449 57.9842 844.386 58.3328 844.386 58.7421C844.386 59.3538 844.526 59.8328 844.805 60.1791C845.083 60.5209 845.472 60.6918 845.972 60.6918Z" fill="#D9D9D9"/>
<path d="M838.685 61.1706C838.595 61.1706 838.526 61.1459 838.476 61.0964C838.431 61.0424 838.409 60.9705 838.409 60.8805V56.6505C838.409 56.5561 838.433 56.4864 838.483 56.4414C838.532 56.3919 838.602 56.3672 838.692 56.3672H840.291C840.799 56.3672 841.19 56.4931 841.465 56.745C841.739 56.9924 841.876 57.3432 841.876 57.7974C841.876 58.2472 841.739 58.598 841.465 58.8499C841.19 59.1017 840.799 59.2277 840.291 59.2277H838.962V60.8805C838.962 60.9705 838.939 61.0424 838.894 61.0964C838.849 61.1459 838.78 61.1706 838.685 61.1706ZM838.962 58.7622H840.223C840.588 58.7622 840.862 58.6812 841.047 58.5193C841.235 58.3529 841.33 58.1123 841.33 57.7974C841.33 57.4781 841.235 57.2375 841.047 57.0756C840.862 56.9091 840.588 56.8259 840.223 56.8259H838.962V58.7622Z" fill="#D9D9D9"/>
<rect x="1000.86" y="40.5254" width="70.3203" height="14.0244" rx="7.0122" fill="white" stroke="#D9D9D9" stroke-width="0.679742"/>
<path d="M1007.66 44.8677H1008.72L1011.25 50.689H1009.81L1009.31 49.4557H1007.04L1006.56 50.689H1005.15L1007.66 44.8677ZM1008.15 46.5615L1007.45 48.3704H1008.87L1008.15 46.5615Z" fill="#D9D9D9"/>
<path d="M1017.16 48.4444C1017.16 48.7897 1017.11 49.1076 1017 49.3981C1016.9 49.6886 1016.74 49.9408 1016.53 50.1546C1016.33 50.3683 1016.08 50.5355 1015.77 50.6561C1015.46 50.7767 1015.11 50.837 1014.71 50.837C1014.3 50.837 1013.95 50.7767 1013.64 50.6561C1013.33 50.5355 1013.08 50.3683 1012.87 50.1546C1012.66 49.9408 1012.51 49.6886 1012.41 49.3981C1012.3 49.1076 1012.25 48.7897 1012.25 48.4444V44.8677H1013.53V48.395C1013.53 48.5759 1013.56 48.7431 1013.62 48.8966C1013.68 49.0501 1013.76 49.1843 1013.86 49.2995C1013.97 49.4091 1014.09 49.4968 1014.23 49.5626C1014.38 49.6229 1014.54 49.653 1014.71 49.653C1014.88 49.653 1015.04 49.6229 1015.18 49.5626C1015.32 49.4968 1015.44 49.4091 1015.55 49.2995C1015.65 49.1843 1015.73 49.0501 1015.79 48.8966C1015.85 48.7431 1015.88 48.5759 1015.88 48.395V44.8677H1017.16V48.4444Z" fill="#D9D9D9"/>
<path d="M1019.88 46.0024H1018.22V44.8677H1022.83V46.0024H1021.17V50.689H1019.88V46.0024Z" fill="#D9D9D9"/>
<path d="M1023.58 47.7784C1023.58 47.3124 1023.65 46.8904 1023.81 46.5122C1023.97 46.1339 1024.18 45.8133 1024.46 45.5502C1024.74 45.2816 1025.08 45.076 1025.46 44.9335C1025.84 44.791 1026.26 44.7197 1026.72 44.7197C1027.17 44.7197 1027.59 44.791 1027.97 44.9335C1028.36 45.076 1028.69 45.2816 1028.97 45.5502C1029.25 45.8133 1029.47 46.1339 1029.62 46.5122C1029.78 46.8904 1029.86 47.3124 1029.86 47.7784C1029.86 48.2443 1029.78 48.6664 1029.62 49.0446C1029.47 49.4228 1029.25 49.7462 1028.97 50.0148C1028.69 50.2779 1028.36 50.4807 1027.97 50.6232C1027.59 50.7657 1027.17 50.837 1026.72 50.837C1026.26 50.837 1025.84 50.7657 1025.46 50.6232C1025.08 50.4807 1024.74 50.2779 1024.46 50.0148C1024.18 49.7462 1023.97 49.4228 1023.81 49.0446C1023.65 48.6664 1023.58 48.2443 1023.58 47.7784ZM1024.91 47.7784C1024.91 48.0524 1024.95 48.3046 1025.03 48.5348C1025.12 48.7595 1025.24 48.9569 1025.4 49.1268C1025.56 49.2912 1025.75 49.42 1025.97 49.5132C1026.19 49.6064 1026.44 49.653 1026.72 49.653C1026.99 49.653 1027.24 49.6064 1027.46 49.5132C1027.68 49.42 1027.87 49.2912 1028.03 49.1268C1028.19 48.9569 1028.31 48.7595 1028.39 48.5348C1028.48 48.3046 1028.53 48.0524 1028.53 47.7784C1028.53 47.5098 1028.48 47.2604 1028.39 47.0301C1028.31 46.7999 1028.19 46.6026 1028.03 46.4382C1027.87 46.2682 1027.68 46.1367 1027.46 46.0435C1027.24 45.9503 1026.99 45.9037 1026.72 45.9037C1026.44 45.9037 1026.19 45.9503 1025.97 46.0435C1025.75 46.1367 1025.56 46.2682 1025.4 46.4382C1025.24 46.6026 1025.12 46.7999 1025.03 47.0301C1024.95 47.2604 1024.91 47.5098 1024.91 47.7784Z" fill="#D9D9D9"/>
<rect y="-1" width="46" height="92" fill="url(#paint0_linear_43_19930)"/>
<rect width="46" height="92" transform="matrix(-1 0 0 1 1009 -1)" fill="url(#paint1_linear_43_19930)"/>
</g>
<defs>
<linearGradient id="paint0_linear_43_19930" x1="46" y1="45" x2="-1.37091e-06" y2="45" gradientUnits="userSpaceOnUse">
<stop stop-color="#191414" stop-opacity="0"/>
<stop offset="1" stop-color="#191414"/>
</linearGradient>
<linearGradient id="paint1_linear_43_19930" x1="46" y1="46" x2="-1.37091e-06" y2="46" gradientUnits="userSpaceOnUse">
<stop stop-color="#191414" stop-opacity="0"/>
<stop offset="1" stop-color="#191414"/>
</linearGradient>
<clipPath id="clip0_43_19930">
<rect width="1009" height="91" fill="white"/>
</clipPath>
<clipPath id="clip1_43_19930">
<rect width="143" height="43" fill="white" transform="translate(-75.2859 24)"/>
</clipPath>
<clipPath id="clip2_43_19930">
<rect width="32.1553" height="34.4999" fill="white" transform="translate(121.064 28.25)"/>
</clipPath>
</defs>
</svg>
