<svg width="1009" height="91" viewBox="0 0 1009 91" fill="none" xmlns="http://www.w3.org/2000/svg">
<g clip-path="url(#clip0_43_19120)">
<rect width="1009" height="91" fill="#191414"/>
<path d="M-10 0H1019" stroke="#191414" stroke-width="3"/>
<path d="M-10 91H1019" stroke="#191414" stroke-width="3"/>
<path d="M108.15 37.5337C107.957 37.7818 107.763 38.0298 107.515 38.3606C107.293 38.1125 107.1 37.892 106.851 37.6164C106.768 38.0574 106.685 38.4433 106.547 39.0497C105.828 38.2228 106.353 37.3959 105.994 36.6241C105.773 36.6516 105.469 36.6516 105.137 36.7068C105.109 37.451 105.054 38.1401 105.026 38.8568C104.28 38.3055 104.612 37.5888 104.446 36.8997C104.252 36.7619 103.976 36.5965 103.699 36.4311C103.727 36.376 103.755 36.2933 103.755 36.2382C104.722 36.2382 105.662 36.2382 106.74 36.2382C106.934 36.5138 107.183 36.8721 107.432 37.2305C108.04 37.0927 107.846 36.0177 108.703 36.2106C108.786 36.9273 108.869 37.6715 108.952 38.3882C108.952 38.5811 108.952 38.7465 108.952 38.9394C108.759 38.8843 108.537 38.8568 108.261 38.8016C108.289 38.4157 108.289 38.0298 108.316 37.6715C108.316 37.5888 108.316 37.5061 108.289 37.4234C108.261 37.3959 108.206 37.4786 108.15 37.5337Z" fill="#D9D9D9"/>
<path d="M108.952 38.3333C108.869 37.6166 108.786 36.8724 108.703 36.1557C108.786 36.0455 108.869 35.9628 108.952 35.8525C108.952 36.6795 108.952 37.5064 108.952 38.3333Z" fill="#909090"/>
<path d="M53.6579 55.8092C52.4415 55.947 51.3632 56.14 50.2573 56.1675C47.465 56.2227 44.6449 56.3329 41.8525 56.1951C40.4978 56.14 39.1431 55.7265 37.8713 55.2028C35.1343 54.1002 34.2772 52.0881 34.4431 49.249C34.6919 45.1695 37.1525 43.7362 41.1061 43.3227C43.3732 43.0746 45.6955 43.2676 47.9902 43.2676C48.2944 43.2676 48.6261 43.2676 48.9303 43.2676C49.0408 41.09 48.0732 39.6291 46.0549 39.1605C43.5114 38.5817 40.9402 38.5541 38.4796 39.6567C38.1478 39.7945 37.816 39.9599 37.4843 40.0977C35.7149 38.7471 35.8531 36.7625 37.8437 35.8529C38.7561 35.4394 39.779 35.1913 40.7467 35.1086C43.0967 34.8881 45.4191 34.9432 47.7414 35.5772C51.5567 36.5971 53.6579 39.2432 53.6856 43.1298C53.7132 47.0714 53.6856 51.0131 53.6856 54.9823C53.7132 55.2028 53.6856 55.4233 53.6579 55.8092ZM49.0961 46.8233C48.2114 46.7131 47.4097 46.5477 46.5802 46.4926C44.7555 46.3823 42.9032 46.2721 41.1337 46.8785C39.779 47.3471 39.0878 48.4221 39.1155 49.8278C39.1431 51.1785 39.8067 52.1708 41.189 52.5567C43.7879 53.2458 46.4143 53.0804 49.0685 52.6118C49.0961 50.6823 49.0961 48.8631 49.0961 46.8233Z" fill="#D9D9D9"/>
<path d="M21.9188 45.7203C22.1123 51.2331 17.6335 56.36 10.8599 56.4152C4.52863 56.4703 -0.337299 51.7293 -0.282004 45.6376C-0.254357 39.5184 4.50099 35.0255 10.8599 35.0255C17.3846 34.9979 22.14 40.0422 21.9188 45.7203ZM10.8046 39.1325C7.21042 39.1325 4.55628 41.9441 4.55628 45.7479C4.55628 49.4139 7.26571 52.2806 10.7493 52.2806C14.4264 52.2806 17.0805 49.5793 17.0529 45.7203C17.0529 41.1447 13.8734 39.105 10.8046 39.1325Z" fill="#D9D9D9"/>
<path d="M100.686 40.5662C98.0867 38.9123 95.1837 38.4162 92.1425 38.6367C91.4513 38.6918 90.7601 38.8296 90.1243 39.0777C89.1013 39.436 88.6313 40.1251 88.6589 41.0348C88.6866 41.9995 89.2672 42.6059 90.1243 42.7989C91.5896 43.1296 93.0825 43.3501 94.5755 43.5982C95.9855 43.8463 97.3678 44.0944 98.7778 44.37C99.1373 44.4527 99.469 44.5905 99.8284 44.7283C103.616 46.4097 104.446 51.1507 101.487 54.045C100.326 55.1751 98.9161 55.7815 97.3402 56.0571C92.806 56.8841 88.4654 56.2501 84.3183 54.293C84.1248 54.2104 83.9313 54.045 83.6548 53.852C84.2077 52.8322 84.7607 51.8398 85.2583 50.9302C87.166 51.454 88.9631 52.0879 90.8431 52.4738C92.6954 52.8597 94.6031 52.8873 96.4555 52.3636C97.0637 52.1706 97.7549 51.7847 98.1143 51.2886C98.8884 50.1584 98.1972 48.7251 96.6766 48.3392C95.4049 48.0085 94.0502 47.8706 92.7231 47.7052C90.9537 47.4572 89.1566 47.3469 87.4701 46.6027C85.5901 45.7758 84.2907 44.4251 84.0419 42.3027C83.793 39.9322 84.4842 37.9751 86.5577 36.5969C87.8848 35.7149 89.4054 35.3014 90.9537 35.1361C93.5249 34.888 96.0961 34.9431 98.6396 35.6046C99.3031 35.77 99.9667 36.0181 100.547 36.3489C102.593 37.479 102.648 39.1053 100.686 40.5662Z" fill="#D9D9D9"/>
<path d="M30.5445 55.8091C28.9686 55.8091 27.5586 55.8091 26.038 55.8091C26.0104 55.3957 25.9551 54.9822 25.9551 54.5963C25.9551 45.9963 25.9551 37.4239 25.9551 28.824C25.9551 26.7015 26.6739 26.0124 28.8027 26.1778C29.3833 26.2054 29.9639 26.3983 30.5445 26.5086C30.5445 36.3214 30.5445 45.9963 30.5445 55.8091Z" fill="#D9D9D9"/>
<path d="M63.058 55.8085C61.4821 55.8085 60.0168 55.8085 58.4685 55.8085C58.4409 55.4778 58.3856 55.1194 58.3579 54.7887C58.3579 50.9848 58.3579 47.1534 58.3579 43.3496C58.3579 42.6605 58.3579 41.9714 58.4961 41.2823C59.132 37.699 61.3438 35.6317 65.2421 35.1079C67.0668 34.8599 68.9192 34.915 70.6886 35.549C72.9833 36.3483 73.4257 38.14 71.7669 39.9592C70.8269 39.7387 69.9145 39.3804 68.9745 39.2977C67.9515 39.215 66.8456 39.215 65.8503 39.4631C63.9427 39.9868 63.2791 41.5304 63.0856 43.3496C63.0027 44.1214 63.058 44.9207 63.058 45.6925C63.058 48.5868 63.058 51.481 63.058 54.3752C63.058 54.8438 63.058 55.2848 63.058 55.8085Z" fill="#D9D9D9"/>
<path d="M79.9226 35.9906C79.9226 42.6335 79.9226 49.1662 79.9226 55.8091C78.4296 55.8091 76.9643 55.8091 75.3884 55.8091C75.3608 55.3129 75.3331 54.8719 75.3331 54.4309C75.3331 49.1386 75.4161 43.8739 75.3055 38.5816C75.2502 35.5771 76.992 35.3566 79.0102 35.7149C79.259 35.7425 79.5355 35.8527 79.9226 35.9906Z" fill="#D9D9D9"/>
<path d="M80.4756 29.3198C80.4756 30.9736 79.2591 32.214 77.6556 32.1865C76.0797 32.1589 74.9185 30.9736 74.8909 29.3749C74.8909 27.7211 76.1074 26.4807 77.7109 26.5083C79.2868 26.5358 80.4756 27.7486 80.4756 29.3198Z" fill="#D9D9D9"/>
<path d="M108.15 37.5335C108.206 37.4784 108.233 37.4233 108.289 37.3682C108.289 37.4509 108.289 37.5336 108.316 37.6162C108.261 37.5887 108.206 37.5611 108.15 37.5335Z" fill="#909090"/>
<g clip-path="url(#clip1_43_19120)">
<path d="M178.968 25.5C167.916 25.5 158.952 34.4573 158.952 45.5007V65.5H163.134V45.5007C163.134 36.6988 170.159 29.6783 178.968 29.6783H189.42V25.5H178.968Z" fill="#B9B9B9"/>
<path d="M194.801 25.5V45.5007C194.801 50.2826 192.726 54.5386 189.42 57.4276V34.2009H185.239V60.053C183.929 60.6112 182.526 60.9979 181.057 61.1884V41.362H176.876V61.3217H172.694V48.5231H168.513V65.4985H178.966C190.018 65.4985 198.981 56.5427 198.981 45.4993V25.5H194.801Z" fill="#D9D9D9"/>
<path d="M207.201 42.4391C206.518 42.1592 205.973 41.7446 205.564 41.1967C205.155 40.6488 204.939 39.9881 204.917 39.216H207.974C208.018 39.6526 208.169 39.9851 208.427 40.2151C208.685 40.4451 209.021 40.5594 209.434 40.5594C209.848 40.5594 210.195 40.4613 210.443 40.2649C210.689 40.0701 210.812 39.7976 210.812 39.4504C210.812 39.1588 210.714 38.9186 210.519 38.7281C210.323 38.5377 210.082 38.3809 209.796 38.2578C209.51 38.1348 209.104 37.9956 208.578 37.8388C207.816 37.6044 207.195 37.3686 206.713 37.1342C206.232 36.8997 205.817 36.5525 205.47 36.094C205.122 35.6354 204.949 35.0362 204.949 34.2978C204.949 33.202 205.347 32.342 206.141 31.7208C206.936 31.0997 207.972 30.7891 209.249 30.7891C210.526 30.7891 211.595 31.0997 212.391 31.7208C213.186 32.342 213.611 33.2064 213.668 34.314H210.56C210.538 33.933 210.397 33.6342 210.141 33.4159C209.883 33.1976 209.553 33.0892 209.15 33.0892C208.802 33.0892 208.522 33.1815 208.31 33.3661C208.097 33.5507 207.99 33.8173 207.99 34.1631C207.99 34.544 208.169 34.8399 208.528 35.0523C208.886 35.2648 209.446 35.4948 210.208 35.7409C210.969 35.9987 211.588 36.2449 212.064 36.4793C212.541 36.7137 212.952 37.055 213.299 37.5033C213.646 37.9516 213.819 38.5274 213.819 39.2321C213.819 39.9368 213.648 40.514 213.308 41.0619C212.966 41.6099 212.471 42.0464 211.821 42.3717C211.172 42.6969 210.405 42.8581 209.519 42.8581C208.634 42.8581 207.884 42.7189 207.201 42.4391Z" fill="#D9D9D9"/>
<path d="M215.851 33.7191C216.355 32.8064 217.058 32.0959 217.959 31.5875C218.861 31.0791 219.883 30.8242 221.025 30.8242C222.425 30.8242 223.623 31.1934 224.62 31.9318C225.617 32.6702 226.283 33.6781 226.618 34.9527H223.46C223.226 34.4604 222.891 34.0854 222.46 33.8276C222.029 33.5697 221.54 33.4422 220.99 33.4422C220.104 33.4422 219.389 33.7499 218.839 34.3652C218.291 34.9805 218.017 35.8039 218.017 36.8323C218.017 37.8608 218.291 38.6842 218.839 39.2995C219.387 39.9148 220.104 40.2225 220.99 40.2225C221.538 40.2225 222.028 40.0935 222.46 39.8371C222.891 39.5793 223.224 39.2057 223.46 38.712H226.618C226.283 39.988 225.616 40.9916 224.62 41.7256C223.623 42.4581 222.425 42.8244 221.025 42.8244C219.883 42.8244 218.861 42.5694 217.959 42.0611C217.058 41.5527 216.355 40.8436 215.851 39.9382C215.347 39.0314 215.094 37.9971 215.094 36.8323C215.094 35.6676 215.347 34.6304 215.851 33.7191Z" fill="#D9D9D9"/>
<path d="M230.911 42.0879C229.988 41.5737 229.253 40.8544 228.711 39.9314C228.167 39.0084 227.896 37.9697 227.896 36.8182C227.896 35.6667 228.167 34.6309 228.711 33.7123C229.253 32.7952 229.988 32.0788 230.911 31.5631C231.835 31.0489 232.851 30.791 233.96 30.791C235.068 30.791 236.084 31.0489 237.009 31.5631C237.933 32.0773 238.661 32.7937 239.192 33.7123C239.724 34.6294 239.99 35.6652 239.99 36.8182C239.99 37.9712 239.721 39.0084 239.183 39.9314C238.645 40.8544 237.918 41.5737 237 42.0879C236.083 42.6022 235.068 42.86 233.96 42.86C232.851 42.86 231.835 42.6022 230.911 42.0879ZM236.22 39.3014C236.786 38.6744 237.069 37.8467 237.069 36.8167C237.069 35.7868 236.786 34.9444 236.22 34.3247C235.654 33.7035 234.901 33.3929 233.961 33.3929C233.021 33.3929 232.25 33.7006 231.686 34.3159C231.12 34.9312 230.837 35.7648 230.837 36.8167C230.837 37.8686 231.12 38.689 231.686 39.3088C232.251 39.9299 233.009 40.2405 233.961 40.2405C234.913 40.2405 235.654 39.927 236.22 39.3V39.3014Z" fill="#D9D9D9"/>
<path d="M244.409 30.959V38.0088C244.409 38.7134 244.582 39.257 244.929 39.6364C245.277 40.0173 245.786 40.2078 246.458 40.2078C247.131 40.2078 247.645 40.0173 248.004 39.6364C248.362 39.2555 248.542 38.7134 248.542 38.0088V30.959H251.414V37.9926C251.414 39.0445 251.19 39.9338 250.743 40.6619C250.294 41.3901 249.693 41.938 248.936 42.3072C248.18 42.6764 247.338 42.861 246.409 42.861C245.479 42.861 244.648 42.6793 243.915 42.316C243.182 41.9526 242.601 41.4047 242.176 40.6707C241.751 39.9382 241.538 39.046 241.538 37.9941V30.9604H244.41L244.409 30.959Z" fill="#D9D9D9"/>
<path d="M261.913 30.9595V33.2596H258.789V42.7443H255.916V33.2581H252.792V30.958H261.913V30.9595Z" fill="#D9D9D9"/>
<path d="M212.206 53.364C211.926 53.8899 211.477 54.3177 210.862 54.6473C210.246 54.977 209.456 55.1425 208.494 55.1425H206.377V59.8761H204.462V48.21H208.494C209.39 48.21 210.149 48.3638 210.769 48.6715C211.391 48.9791 211.856 49.3966 212.164 49.9226C212.472 50.4485 212.625 51.036 212.625 51.685C212.625 52.2784 212.485 52.838 212.205 53.364H212.206ZM210.123 53.0871C210.48 52.7574 210.661 52.2901 210.661 51.685C210.661 50.409 209.938 49.7717 208.494 49.7717H206.377V53.5823H208.494C209.221 53.5823 209.765 53.4167 210.123 53.0871Z" fill="#B9B9B9"/>
<path d="M220.522 59.8761L217.835 55.2099H216.373V59.8761H214.458V48.21H218.49C219.386 48.21 220.145 48.3667 220.766 48.6802C221.387 48.9938 221.852 49.4128 222.16 49.9387C222.468 50.4647 222.622 51.0521 222.622 51.7012C222.622 52.463 222.4 53.153 221.958 53.7742C221.515 54.3954 220.835 54.8173 219.917 55.0414L222.807 59.8761H220.522ZM216.373 53.6819H218.49C219.207 53.6819 219.747 53.5032 220.112 53.1442C220.475 52.7867 220.657 52.3047 220.657 51.7012C220.657 51.0976 220.478 50.6243 220.119 50.283C219.76 49.9416 219.217 49.7717 218.49 49.7717H216.373V53.6834V53.6819Z" fill="#B9B9B9"/>
<path d="M227.399 59.2295C226.486 58.7212 225.764 58.0106 225.232 57.0979C224.7 56.1866 224.435 55.1596 224.435 54.0169C224.435 52.8742 224.7 51.8516 225.232 50.9447C225.764 50.0379 226.486 49.3303 227.399 48.8219C228.311 48.3135 229.311 48.0586 230.397 48.0586C231.484 48.0586 232.5 48.3135 233.413 48.8219C234.325 49.3317 235.045 50.0393 235.571 50.9447C236.098 51.8516 236.36 52.8756 236.36 54.0169C236.36 55.1582 236.096 56.1852 235.571 57.0979C235.045 58.0106 234.325 58.7212 233.413 59.2295C232.5 59.7394 231.496 59.9928 230.397 59.9928C229.299 59.9928 228.311 59.7379 227.399 59.2295ZM232.463 57.8026C233.067 57.4495 233.541 56.947 233.882 56.2921C234.224 55.6372 234.394 54.8798 234.394 54.0169C234.394 53.154 234.223 52.3995 233.882 51.7505C233.541 51.1015 233.067 50.6034 232.463 50.2562C231.859 49.9089 231.17 49.7361 230.397 49.7361C229.625 49.7361 228.936 49.9104 228.332 50.2562C227.728 50.6034 227.254 51.1015 226.912 51.7505C226.571 52.3995 226.399 53.1555 226.399 54.0169C226.399 54.8784 226.569 55.6372 226.912 56.2921C227.254 56.947 227.728 57.451 228.332 57.8026C228.936 58.1557 229.625 58.3315 230.397 58.3315C231.17 58.3315 231.859 58.1557 232.463 57.8026Z" fill="#B9B9B9"/>
<path d="M239.974 59.5831C239.346 59.3091 238.854 58.9194 238.496 58.4169C238.137 57.9129 237.958 57.3255 237.958 56.6545H240.008C240.052 57.1584 240.251 57.5716 240.604 57.8968C240.958 58.2221 241.453 58.3832 242.091 58.3832C242.729 58.3832 243.267 58.2235 243.636 57.9042C244.006 57.5848 244.191 57.1746 244.191 56.6706C244.191 56.2794 244.076 55.96 243.846 55.7139C243.616 55.4678 243.331 55.2773 242.99 55.1426C242.648 55.0078 242.175 54.8627 241.571 54.706C240.808 54.5038 240.189 54.3002 239.714 54.0936C239.238 53.887 238.833 53.5647 238.496 53.1281C238.16 52.6915 237.992 52.1099 237.992 51.3818C237.992 50.7108 238.16 50.1233 238.496 49.6194C238.832 49.1154 239.302 48.7301 239.907 48.4605C240.511 48.1924 241.211 48.0576 242.006 48.0576C243.136 48.0576 244.065 48.3404 244.786 48.9059C245.509 49.4714 245.909 50.2464 245.987 51.2309H243.87C243.836 50.806 243.635 50.4427 243.265 50.1394C242.896 49.8362 242.409 49.6867 241.804 49.6867C241.255 49.6867 240.807 49.8274 240.459 50.1072C240.112 50.387 239.939 50.7899 239.939 51.3159C239.939 51.6748 240.049 51.9678 240.266 52.1978C240.484 52.4278 240.761 52.6095 241.097 52.7428C241.433 52.8776 241.892 53.0226 242.474 53.1794C243.246 53.3918 243.877 53.6043 244.364 53.8167C244.85 54.0291 245.265 54.3573 245.607 54.7983C245.949 55.2407 246.119 55.8311 246.119 56.5695C246.119 57.1628 245.959 57.7225 245.639 58.2484C245.32 58.7744 244.855 59.1963 244.245 59.5157C243.635 59.8351 242.915 59.9933 242.087 59.9933C241.302 59.9933 240.597 59.8571 239.97 59.5816L239.974 59.5831Z" fill="#B9B9B9"/>
<path d="M256.134 53.364C255.854 53.8899 255.405 54.3177 254.789 54.6473C254.174 54.977 253.383 55.1425 252.422 55.1425H250.304V59.8761H248.39V48.21H252.422C253.317 48.21 254.077 48.3638 254.697 48.6715C255.319 48.9791 255.783 49.3966 256.091 49.9226C256.399 50.4485 256.553 51.036 256.553 51.685C256.553 52.2784 256.412 52.838 256.132 53.364H256.134ZM254.05 53.0871C254.408 52.7574 254.589 52.2901 254.589 51.685C254.589 50.409 253.866 49.7717 252.422 49.7717H250.304V53.5823H252.422C253.149 53.5823 253.693 53.4167 254.05 53.0871Z" fill="#B9B9B9"/>
<path d="M260.3 49.7536V53.1774H264.332V54.7392H260.3V58.3153H264.835V59.8771H258.384V48.1934H264.835V49.7551H260.3V49.7536Z" fill="#B9B9B9"/>
<path d="M267.347 50.9467C267.88 50.0398 268.601 49.3322 269.514 48.8238C270.426 48.3155 271.426 48.0605 272.513 48.0605C273.756 48.0605 274.861 48.3653 275.831 48.9747C276.8 49.5842 277.502 50.4486 277.939 51.5679H275.637C275.335 50.9525 274.914 50.494 274.378 50.1907C273.84 49.8889 273.218 49.738 272.513 49.738C271.74 49.738 271.051 49.9124 270.447 50.2581C269.843 50.6053 269.369 51.1034 269.028 51.7524C268.686 52.4015 268.514 53.1574 268.514 54.0189C268.514 54.8803 268.685 55.6363 269.028 56.2853C269.369 56.9343 269.843 57.4353 270.447 57.787C271.051 58.14 271.74 58.3158 272.513 58.3158C273.218 58.3158 273.84 58.1649 274.378 57.8631C274.916 57.5613 275.335 57.1028 275.637 56.486H277.939C277.502 57.6053 276.8 58.4667 275.831 59.0703C274.861 59.6739 273.756 59.9772 272.513 59.9772C271.414 59.9772 270.413 59.7223 269.506 59.2139C268.598 58.7041 267.878 57.9965 267.347 57.0911C266.815 56.1842 266.55 55.1601 266.55 54.0189C266.55 52.8776 266.815 51.8535 267.347 50.9467Z" fill="#B9B9B9"/>
<path d="M287.715 48.21V49.7717H284.606V59.8761H282.692V49.7717H279.567V48.21H287.715Z" fill="#B9B9B9"/>
</g>
<g clip-path="url(#clip2_43_19120)">
<path d="M384.043 36.5859H380.72L380.53 34.8086H376.477L375.641 36.5859H372.208L378.367 24.2646H382.159L384.043 36.5859ZM379.782 27.8385L377.764 32.0974H380.244L379.782 27.8385Z" fill="#C8C8C8"/>
<path d="M391.578 24.2646L389.961 33.5408H394.157L393.634 36.5859H386.327L388.467 24.2646H391.578Z" fill="#C8C8C8"/>
<path d="M396.152 36.5859L398.292 24.2646H401.406L399.266 36.5859H396.152Z" fill="#C8C8C8"/>
<path d="M409.756 29.527H415.897L415.688 30.7775C415.398 32.6442 414.615 34.1236 413.34 35.2159C412.065 36.3081 410.511 36.8542 408.678 36.8542C406.771 36.8542 405.309 36.2206 404.292 34.9534C403.275 33.6862 402.909 32.1193 403.195 30.2526C403.461 28.5035 404.342 26.9101 405.674 25.7641C406.98 24.6012 408.667 23.9735 410.406 24.0042C411.482 23.9825 412.544 24.2488 413.485 24.776C414.351 25.2714 415.054 26.0154 415.503 26.9142L412.642 28.458C412.133 27.5433 411.281 27.0859 410.084 27.0859C409.173 27.0785 408.29 27.4102 407.605 28.018C406.906 28.6442 406.445 29.4971 406.3 30.4301C406.127 31.4143 406.284 32.2351 406.769 32.8925C407.255 33.5499 407.985 33.8715 408.961 33.8573C410.446 33.8573 411.495 33.3176 412.11 32.2383H409.293L409.756 29.527Z" fill="#C8C8C8"/>
<path d="M420.629 36.5859H417.515L419.655 24.2646H422.073L425.239 30.706L426.37 24.2646H429.466L427.326 36.5859H424.927L421.76 30.1445L420.629 36.5859Z" fill="#C8C8C8"/>
<path d="M441.904 24.2646H445.21L443.07 36.5859H439.978L441.122 29.9322L437.308 34.8955H436.995L434.924 29.8454L433.758 36.5859H430.644L432.784 24.2646H435.898L437.882 29.581L441.904 24.2646Z" fill="#C8C8C8"/>
<path d="M456.274 24.2646L455.751 27.2036H451.141L450.829 28.9288H455.046L454.523 31.8234H450.348L450.035 33.6373H454.733L454.227 36.5936H446.407L448.547 24.2724L456.274 24.2646Z" fill="#C8C8C8"/>
<path d="M460.206 36.5859H457.091L459.231 24.2646H461.649L464.816 30.706L465.947 24.2646H469.042L466.904 36.5859H464.503L461.34 30.1387L460.206 36.5859Z" fill="#C8C8C8"/>
<path d="M471.583 24.2646H480.717L480.177 27.3097H477.184L475.567 36.5859H472.452L474.07 27.3097H471.068L471.583 24.2646Z" fill="#C8C8C8"/>
<path d="M376.605 66.9963C372.935 66.9963 370.084 65.7503 368.053 63.2584C366.047 60.7909 365.34 57.7105 365.932 54.017C366.437 50.5831 368.15 47.4488 370.756 45.1904C373.402 42.8825 376.504 41.7285 380.061 41.7285C382.363 41.7285 384.347 42.2303 386.014 43.2337C387.681 44.2425 389.015 45.7295 389.846 47.5061L384.235 50.5184C383.323 48.6968 381.738 47.7852 379.48 47.784C377.681 47.7653 375.939 48.4188 374.588 49.6191C373.214 50.8504 372.308 52.5267 372.022 54.3605C371.702 56.2979 371.998 57.8784 372.911 59.1018C373.846 60.3253 375.214 60.937 377.017 60.937C379.32 60.937 381.19 59.9676 382.627 58.0289L387.656 61.3094C386.413 63.0789 384.764 64.5161 382.85 65.4969C380.917 66.4943 378.775 67.0085 376.605 66.9963Z" fill="#D9D9D9"/>
<path d="M407.154 51.2184L408.728 42.2529H414.817L410.606 66.4806H404.518L406.126 57.1716H399.386L397.778 66.4806H391.656L395.863 42.2529H401.987L400.414 51.2184H407.154Z" fill="#D9D9D9"/>
<path d="M438.352 66.4806H431.82L431.438 62.9859H423.468L421.826 66.4806H415.087L427.2 42.2529H434.658L438.352 66.4806ZM429.972 49.279L426.003 57.656H430.86L429.972 49.279Z" fill="#D9D9D9"/>
<path d="M442.839 66.4806L447.035 42.2529H453.157L448.95 66.4806H442.839Z" fill="#D9D9D9"/>
<path d="M461.579 66.4806H455.456L459.664 42.2529H464.419L470.644 54.9215L472.868 42.2529H478.958L474.75 66.4806H470.03L463.803 53.8139L461.579 66.4806Z" fill="#D9D9D9"/>
<path d="M352.116 28.8845L347.132 37.8442C348.058 37.41 349.039 37.1055 350.046 36.9392C350.866 36.8026 351.697 36.7592 352.526 36.8099L355.732 31.0439C357.067 28.6433 360.119 27.7421 362.474 29.1335C363.574 29.7872 364.376 30.8509 364.709 32.0963C365.042 33.3416 364.879 34.6695 364.256 35.7949L361.013 41.6362L359.836 43.7589L359.203 44.8954C358.632 45.9257 357.711 46.7119 356.611 47.1088C355.94 47.3543 355.224 47.4473 354.513 47.3809C353.83 47.3195 353.167 47.1116 352.57 46.7711C352.467 46.7132 352.368 46.6515 352.27 46.5781C351.84 46.2841 351.316 46.1667 350.804 46.2498C350.291 46.333 349.83 46.6105 349.512 47.0259L349.423 47.1436C349.256 47.3654 349.136 47.619 349.07 47.8892C349.003 48.1594 348.991 48.4404 349.036 48.7153C349.08 48.9901 349.178 49.253 349.326 49.488C349.473 49.7231 349.667 49.9254 349.894 50.0826C350.085 50.2176 350.298 50.3469 350.51 50.4685C351.328 50.935 352.213 51.2696 353.132 51.4604C353.893 51.6191 354.671 51.6768 355.446 51.6321C357.412 51.5234 359.29 50.7725 360.798 49.492C361.627 48.7842 362.324 47.9312 362.856 46.9738L362.932 46.8387L367.916 37.8771C368.499 36.8273 368.873 35.6715 369.015 34.4756C369.158 33.2797 369.066 32.0672 368.745 30.9073C368.424 29.7474 367.88 28.6628 367.145 27.7154C366.41 26.7681 365.497 25.9765 364.46 25.3859C362.364 24.194 359.887 23.8929 357.572 24.549C355.257 25.2051 353.294 26.7646 352.116 28.8845Z" fill="#D9D9D9"/>
<path d="M353.664 39.0985C352.903 38.9398 352.126 38.8821 351.35 38.9267C350.425 38.9792 349.513 39.1745 348.646 39.5057C347.682 39.8724 346.787 40.4023 345.999 41.0726C345.169 41.7775 344.472 42.6271 343.939 43.5812L343.864 43.7163L338.881 52.6779C338.297 53.7277 337.923 54.8835 337.781 56.0794C337.639 57.2753 337.731 58.4877 338.052 59.6476C338.373 60.8076 338.916 61.8922 339.651 62.8395C340.387 63.7869 341.299 64.5785 342.337 65.169C343.374 65.7596 344.517 66.1377 345.698 66.2816C346.88 66.4255 348.079 66.3324 349.225 66.0077C350.372 65.683 351.444 65.133 352.38 64.3892C353.316 63.6453 354.099 62.7221 354.682 61.6723L359.666 52.7127C357.98 53.503 356.126 53.8584 354.27 53.747L351.064 59.513C349.729 61.9136 346.678 62.8148 344.322 61.4235C343.222 60.77 342.42 59.7064 342.087 58.4608C341.754 57.2153 341.917 55.8873 342.541 54.762L345.783 48.9188L346.962 46.7961L347.593 45.6595C347.797 45.294 348.047 44.9562 348.335 44.6541C348.852 44.1129 349.486 43.6996 350.187 43.4461C350.858 43.2008 351.574 43.1073 352.285 43.1721C352.968 43.2352 353.63 43.4436 354.228 43.7838C354.33 43.8417 354.431 43.9035 354.528 43.9768C354.958 44.2709 355.482 44.3883 355.994 44.3051C356.507 44.222 356.969 43.9445 357.286 43.5291L357.375 43.4114C357.542 43.1896 357.662 42.9359 357.729 42.6656C357.795 42.3953 357.807 42.1141 357.763 41.8392C357.718 41.5642 357.619 41.3013 357.471 41.0663C357.324 40.8314 357.13 40.6293 356.902 40.4724C356.712 40.3374 356.5 40.2081 356.286 40.0865C355.468 39.6209 354.584 39.2875 353.664 39.0985Z" fill="#D9D9D9"/>
</g>
<g clip-path="url(#clip3_43_19120)">
<path d="M561.695 38.9403L563.633 37.8062C563.193 36.6869 562.296 34.6709 561.695 33.6621V38.9403Z" fill="#D9D9D9"/>
<path d="M561.695 38.9408L563.588 40.0486C563.775 39.5391 564.007 38.9108 563.862 38.4361C563.82 38.2977 563.74 38.0782 563.633 37.8057L561.695 38.9408Z" fill="#D9D9D9"/>
<path d="M561.695 44.3215L564.398 42.7398C564.312 42.6504 564.222 42.5605 564.125 42.4688C563.623 41.992 563.392 41.2117 563.392 40.7546C563.392 40.5896 563.483 40.3382 563.588 40.0491L561.695 38.9414V44.3215Z" fill="#D9D9D9"/>
<path d="M561.695 44.321L565.524 46.5612C565.757 46.4376 565.943 46.2384 566.052 45.9952C566.246 45.5751 566.281 45.308 566.108 44.931C565.914 44.5111 565.704 44.3527 565.366 43.8958C565.089 43.5215 564.789 43.1408 564.399 42.7383L561.695 44.32L561.695 44.321Z" fill="#D9D9D9"/>
<path d="M561.695 49.7006L564.725 47.9276C564.625 47.6502 564.542 47.4127 564.52 47.3243C564.464 47.0958 564.708 47.0196 564.877 46.8481C564.975 46.7482 565.249 46.7121 565.524 46.5614L561.695 44.3213L561.695 49.7006Z" fill="#D9D9D9"/>
<path d="M561.691 49.7L564.925 51.5921C565.014 51.4324 565.08 51.294 565.08 51.2449C565.08 51.1306 564.967 50.7305 564.798 50.559C564.677 50.4326 564.564 50.299 564.46 50.1589L564.89 49.8101C564.89 49.8101 565.265 49.4619 565.152 49.1189C565.083 48.9087 564.882 48.3665 564.722 47.9258L561.691 49.699L561.691 49.7Z" fill="#D9D9D9"/>
<path d="M561.695 55.0811L564.506 53.4367C564.392 53.1768 564.274 52.9499 564.238 52.8096C564.182 52.5809 564.389 52.4116 564.558 52.1825C564.692 51.9931 564.816 51.7964 564.929 51.5933L561.695 49.7012V55.0811Z" fill="#D9D9D9"/>
<path d="M561.695 55.0816L564.018 56.4407C564.036 56.4299 564.053 56.4191 564.069 56.4086C564.407 56.1801 564.689 55.7227 564.802 55.323C564.915 54.9232 564.802 54.4087 564.689 53.9513C564.643 53.7745 564.581 53.6019 564.506 53.4355L561.695 55.08V55.0816Z" fill="#D9D9D9"/>
<path d="M562.434 56.9254C562.864 56.9254 563.652 56.6659 564.017 56.4437L561.695 55.085V56.9017C562.01 56.9124 562.281 56.9254 562.434 56.9254Z" fill="#D9D9D9"/>
<path d="M561.595 33.502L561.584 33.4843C560.851 32.3423 559.105 31.2681 558.09 30.4118C558.06 30.3865 558.03 30.3645 558 30.3398L557.095 30.8689L561.595 33.502Z" fill="#D9D9D9"/>
<path d="M561.648 33.5859C561.63 33.5571 561.613 33.5292 561.596 33.5022L557.095 30.8691V36.2495L561.648 33.5859Z" fill="#8A8A8A"/>
<path d="M561.693 38.9408V33.6626C561.678 33.6371 561.662 33.6112 561.647 33.5869L557.095 36.2505L561.693 38.9408Z" fill="#D9D9D9"/>
<path d="M561.693 38.9412L557.095 36.251H557.095V36.2512V41.6313H557.095L561.693 38.9412Z" fill="#8A8A8A"/>
<path d="M561.693 38.9414L557.095 41.6315L561.693 44.3217V38.9424V38.9416V38.9414H561.693Z" fill="#D9D9D9"/>
<path d="M561.693 44.3205L561.693 44.3201H561.693L557.095 41.6299H557.095V41.6301V47.0104L561.692 44.3207L561.693 44.3205Z" fill="#8A8A8A"/>
<path d="M561.693 44.3211V44.3203L561.693 44.3207L561.692 44.3209L557.095 47.0106L561.693 49.7006H561.693V49.7004V44.3211Z" fill="#D9D9D9"/>
<path d="M561.693 49.7008L557.095 47.0107H557.095V52.3911L561.693 49.7008Z" fill="#8A8A8A"/>
<path d="M557.095 52.3914H557.095L561.692 55.0811L561.693 55.0817H561.693V49.7022V49.7014V49.7012H561.693L557.095 52.3914Z" fill="#D9D9D9"/>
<path d="M561.693 55.0828L561.693 55.0824L561.692 55.0822L557.095 52.3926V57.7729H557.095L561.693 55.0828Z" fill="#8A8A8A"/>
<path d="M561.693 55.083L557.095 57.7731L558.576 58.6396C558.714 58.4001 558.832 58.2477 558.863 58.1889C559.054 57.835 559.269 57.147 559.838 56.9826C560.282 56.8544 561.077 56.8809 561.693 56.9017V55.0842V55.083Z" fill="#D9D9D9"/>
<path d="M557.095 57.7734V61.4096C557.596 60.4433 558.211 59.2748 558.576 58.6398L557.095 57.7734Z" fill="#8A8A8A"/>
<path d="M557.095 30.8685L558 30.3394C557.713 30.1036 557.411 29.888 557.095 29.6943V30.8685Z" fill="#8A8A8A"/>
<path d="M557.093 29.6951C556.396 29.2675 555.675 28.9681 554.875 28.698C554.327 28.5131 553.454 28.3771 552.673 28.2842L557.093 30.8708V29.6951Z" fill="#A8A8A8"/>
<path d="M552.495 33.5615L557.093 30.8718L552.672 28.2852C552.612 28.2782 552.553 28.2713 552.495 28.2656V33.5615Z" fill="#999999"/>
<path d="M552.496 33.559H552.495L552.496 33.5592V33.5598L557.093 36.2497V30.8691L552.496 33.5588V33.559Z" fill="#A8A8A8"/>
<path d="M552.495 38.9399L557.093 36.2502L552.495 33.5605V38.9399Z" fill="#999999"/>
<path d="M552.495 38.9408V38.9416L557.093 41.6313H557.093V36.251H557.093L552.495 38.9406V38.9408Z" fill="#A8A8A8"/>
<path d="M557.093 41.6311L552.495 38.9414V44.3207L557.093 41.6311Z" fill="#999999"/>
<path d="M552.496 44.3215L552.495 44.3219L552.496 44.3221L552.496 44.3217V44.3225L557.094 47.0122V41.632V41.6318H557.094L552.496 44.3215Z" fill="#A8A8A8"/>
<path d="M552.495 49.7006L557.093 47.011H557.093L552.495 44.3213V49.7006Z" fill="#999999"/>
<path d="M552.495 49.7006V49.7014L557.093 52.3911H557.093V47.0107L552.495 49.7006Z" fill="#A8A8A8"/>
<path d="M557.093 52.3918L552.495 49.7021V55.0817L557.093 52.3918Z" fill="#999999"/>
<path d="M552.496 55.0824H552.496L552.496 55.0828L552.496 55.0832V55.0834L557.094 57.7731V52.3928V52.3926H557.094L552.496 55.0824Z" fill="#A8A8A8"/>
<path d="M557.093 57.7746L552.495 55.085V60.4643L557.093 57.7746Z" fill="#999999"/>
<path d="M552.495 60.4631L556.403 62.7493C556.544 62.4736 556.799 61.9774 557.094 61.409V57.7734L552.495 60.4631Z" fill="#A8A8A8"/>
<path d="M552.498 33.561V28.2633C552.458 28.2586 552.418 28.2543 552.378 28.25L547.9 30.8699L552.497 33.5596L552.498 33.561Z" fill="#B8B8B8"/>
<path d="M552.498 33.5594L552.498 33.5592L552.497 33.559L547.9 30.8691V36.2497L552.498 33.5594Z" fill="#CFCFCF"/>
<path d="M552.498 38.9399V33.5605V33.5602V33.5596L547.9 36.2498L552.497 38.9395L552.498 38.9399H552.498Z" fill="#B8B8B8"/>
<path d="M552.498 44.3217V38.9424V38.9416V38.9414H552.498L552.497 38.9418L547.9 41.6315L552.498 44.3217Z" fill="#B8B8B8"/>
<path d="M552.497 44.3205L552.498 44.3201L547.9 41.6299V47.0104L552.497 44.3207L552.497 44.3205Z" fill="#E5E5E5"/>
<path d="M552.498 49.7006V49.7004V44.3211V44.3203L552.497 44.3207L552.497 44.3209L547.9 47.0106L552.498 49.7006Z" fill="#B8B8B8"/>
<path d="M552.498 49.7008L547.9 47.0107V52.3911L552.498 49.7008Z" fill="#CFCFCF"/>
<path d="M552.498 55.0817V49.7022V49.7014V49.7012L547.9 52.3914L552.497 55.0811L552.498 55.0817H552.498Z" fill="#B8B8B8"/>
<path d="M552.498 55.0828L552.497 55.0824L552.497 55.0822L547.9 52.3926V57.7731L552.498 55.0828Z" fill="#E5E5E5"/>
<path d="M552.498 60.4633V55.084V55.0832V55.083L547.9 57.7733L552.497 60.4629L552.498 60.4633H552.498Z" fill="#B8B8B8"/>
<path d="M547.859 36.3996L543.261 33.71V39.0893L547.859 36.3996Z" fill="#D6D6D6"/>
<path d="M547.859 36.4004L543.262 39.0901V39.0903V39.0901L543.261 39.0906L547.859 41.7807H547.859V36.4004Z" fill="#B4B4B4"/>
<path d="M543.262 44.469L547.859 47.1588V41.7785V41.7783H547.859L543.261 44.4686H543.261L543.262 44.4684V44.469Z" fill="#B4B4B4"/>
<path d="M543.262 49.8508L543.261 49.8512L547.859 52.5415V47.1611L543.262 49.8508V49.851V49.8508Z" fill="#B4B4B4"/>
<path d="M543.261 49.8506V55.2311L547.859 52.5408L543.261 49.8506Z" fill="#D6D6D6"/>
<path d="M543.26 33.7086V28.3281L538.661 31.0184L543.26 33.7086Z" fill="#E5E5E5"/>
<path d="M543.26 39.0885V39.0883V33.709V33.708L543.259 33.7086L538.662 36.3983L543.259 39.0879L543.26 39.0883V39.0885Z" fill="#E5E5E5"/>
<path d="M543.26 44.4697L543.259 44.4699L538.661 47.1598L543.26 49.85V49.8502V49.85V44.4703V44.4697Z" fill="#E5E5E5"/>
<path d="M534.062 39.0889V44.4694L538.66 41.7791L534.062 39.0889Z" fill="#D6D6D6"/>
</g>
<path d="M571.288 42.1895C571.266 42.1895 571.25 42.2112 571.256 42.2327L574.925 54.2353C574.929 54.2494 574.942 54.259 574.957 54.259H577.095C577.11 54.259 577.123 54.2495 577.127 54.2355L580.223 44.3065L583.327 54.259L587.041 42.1895L584.315 51.0476L583.327 54.259L580.223 44.3065L579.041 42.2557C579.026 42.2304 578.988 42.2346 578.98 42.2625L576.085 51.5476C576.075 51.5794 576.03 51.5788 576.021 51.5468L573.387 42.2139C573.383 42.1994 573.37 42.1895 573.355 42.1895H571.288Z" fill="#D9D9D9"/>
<path d="M577.956 42.1898C577.934 42.1898 577.918 42.2116 577.924 42.2331L581.593 54.2357C581.597 54.2498 581.61 54.2594 581.625 54.2594H583.763C583.778 54.2594 583.791 54.2499 583.795 54.2359L586.891 44.3069L587.529 42.2328C587.536 42.2113 587.52 42.1895 587.497 42.1895L585.695 42.1898C585.68 42.1898 585.667 42.1994 585.663 42.2134L582.753 51.548C582.743 51.5798 582.698 51.5792 582.689 51.5471L580.055 42.2142C580.051 42.1998 580.038 42.1898 580.023 42.1898H577.956Z" fill="#D9D9D9"/>
<path d="M589.566 39.124C589.842 39.3835 590.183 39.5133 590.588 39.5133C590.978 39.5133 591.31 39.3835 591.586 39.124C591.862 38.8482 592 38.5075 592 38.102C592 37.7126 591.862 37.3882 591.586 37.1286C591.31 36.869 590.978 36.7393 590.588 36.7393C590.183 36.7393 589.842 36.869 589.566 37.1286C589.307 37.3882 589.177 37.7126 589.177 38.102C589.177 38.5075 589.307 38.8482 589.566 39.124Z" fill="#D9D9D9"/>
<path d="M589.566 42.2235V54.2261C589.566 54.2446 589.581 54.2596 589.6 54.2596H591.577C591.595 54.2596 591.61 54.2446 591.61 54.2261V42.2235C591.61 42.205 591.595 42.19 591.577 42.19H589.6C589.581 42.19 589.566 42.205 589.566 42.2235Z" fill="#D9D9D9"/>
<path d="M593.633 42.2239V54.2265C593.633 54.245 593.648 54.26 593.667 54.26H595.644C595.662 54.26 595.677 54.245 595.677 54.2265V48.0063C595.677 46.6111 596.018 45.5404 596.699 44.7942C597.397 44.0317 598.265 43.6505 599.303 43.6505C601.379 43.6505 602.418 44.9077 602.418 47.4222V54.2265C602.418 54.245 602.433 54.26 602.451 54.26H604.428C604.447 54.26 604.462 54.245 604.462 54.2265V47.2032C604.462 45.4025 604.032 44.0723 603.172 43.2125C602.328 42.3364 601.193 41.8984 599.765 41.8984C598.841 41.8984 598.013 42.1174 597.283 42.5554C596.588 42.9722 596.048 43.5359 595.662 44.2465C595.646 44.2766 595.599 44.2666 595.597 44.2325L595.484 42.2221C595.483 42.2043 595.469 42.1904 595.451 42.1904H593.667C593.648 42.1904 593.633 42.2054 593.633 42.2239Z" fill="#D9D9D9"/>
<path d="M606.095 42.2239V54.2265C606.095 54.245 606.11 54.26 606.128 54.26H608.105C608.124 54.26 608.139 54.245 608.139 54.2265V48.0063C608.139 46.6111 608.479 45.5404 609.161 44.7942C609.858 44.0317 610.726 43.6505 611.764 43.6505C613.841 43.6505 614.879 44.9077 614.879 47.4222V54.2265C614.879 54.245 614.894 54.26 614.913 54.26H616.89C616.908 54.26 616.923 54.245 616.923 54.2265V47.2032C616.923 45.4025 616.493 44.0723 615.634 43.2125C614.79 42.3364 613.654 41.8984 612.227 41.8984C611.302 41.8984 610.475 42.1174 609.745 42.5554C609.05 42.9722 608.51 43.5359 608.124 44.2465C608.107 44.2766 608.061 44.2666 608.059 44.2325L607.946 42.2221C607.945 42.2043 607.93 42.1904 607.912 42.1904H606.128C606.11 42.1904 606.095 42.2054 606.095 42.2239Z" fill="#D9D9D9"/>
<path d="M624.568 54.2601C623.433 54.2601 622.41 54.0005 621.502 53.4813C620.594 52.9623 619.872 52.2322 619.336 51.2913C618.817 50.3342 618.558 49.2148 618.558 47.9332C618.558 46.6517 618.825 45.5404 619.361 44.5995C619.896 43.6424 620.618 42.9042 621.526 42.3851C622.451 41.866 623.481 41.6064 624.617 41.6064C625.752 41.6064 626.774 41.866 627.683 42.3851C628.591 42.9042 629.305 43.6424 629.824 44.5995C630.36 45.5404 630.627 46.6517 630.627 47.9332C630.627 49.2148 630.36 50.3342 629.824 51.2913C629.289 52.2322 628.559 52.9623 627.634 53.4813C626.726 54.0005 625.704 54.2601 624.568 54.2601ZM624.568 52.508C625.266 52.508 625.915 52.3377 626.515 51.997C627.115 51.6564 627.602 51.1453 627.975 50.464C628.348 49.7826 628.535 48.939 628.535 47.9332C628.535 46.9275 628.348 46.0839 627.975 45.4025C627.618 44.7211 627.139 44.2101 626.539 43.8695C625.939 43.5288 625.298 43.3585 624.617 43.3585C623.919 43.3585 623.27 43.5288 622.67 43.8695C622.07 44.2101 621.583 44.7211 621.21 45.4025C620.837 46.0839 620.65 46.9275 620.65 47.9332C620.65 48.939 620.837 49.7826 621.21 50.464C621.583 51.1453 622.062 51.6564 622.646 51.997C623.246 52.3377 623.887 52.508 624.568 52.508Z" fill="#D9D9D9"/>
<path d="M632.306 42.1895C632.283 42.1895 632.267 42.2112 632.274 42.2327L635.942 54.2353C635.947 54.2494 635.96 54.259 635.974 54.259H638.113C638.127 54.259 638.14 54.2495 638.145 54.2355L641.241 44.3065L644.345 54.259L648.059 42.1895L645.333 51.0476L644.345 54.259L641.241 44.3065L640.058 42.2557C640.044 42.2304 640.006 42.2346 639.997 42.2625L637.102 51.5476C637.093 51.5794 637.047 51.5788 637.038 51.5468L634.405 42.2139C634.401 42.1994 634.387 42.1895 634.372 42.1895H632.306Z" fill="#D9D9D9"/>
<path d="M638.974 42.1898C638.951 42.1898 638.935 42.2116 638.942 42.2331L642.61 54.2357C642.615 54.2498 642.628 54.2594 642.642 54.2594H644.781C644.795 54.2594 644.808 54.2499 644.813 54.2359L647.909 44.3069L648.547 42.2328C648.553 42.2113 648.537 42.1895 648.515 42.1895L646.713 42.1898C646.698 42.1898 646.685 42.1994 646.681 42.2134L643.77 51.548C643.761 51.5798 643.715 51.5792 643.706 51.5471L641.073 42.2142C641.068 42.1998 641.055 42.1898 641.04 42.1898H638.974Z" fill="#D9D9D9"/>
<path d="M650.909 54.2597C650.891 54.2597 650.876 54.2447 650.876 54.2262V51.4365C650.876 51.418 650.861 51.403 650.842 51.403H649.933C649.915 51.403 649.9 51.388 649.9 51.3695V50.9437C649.9 50.9252 649.915 50.9102 649.933 50.9102H652.436C652.454 50.9102 652.469 50.9252 652.469 50.9437V51.3695C652.469 51.388 652.454 51.403 652.436 51.403H651.522C651.503 51.403 651.488 51.418 651.488 51.4365V54.2262C651.488 54.2447 651.473 54.2597 651.455 54.2597H650.909ZM652.956 54.2597C652.938 54.2597 652.923 54.2447 652.923 54.2262V50.9437C652.923 50.9252 652.938 50.9102 652.956 50.9102H653.63C653.642 50.9102 653.654 50.9173 653.66 50.9286L654.687 52.9747C654.7 52.9994 654.735 52.9993 654.747 52.9745L655.761 50.9288C655.766 50.9174 655.778 50.9102 655.791 50.9102H656.464C656.482 50.9102 656.497 50.9252 656.497 50.9437V54.2262C656.497 54.2447 656.482 54.2597 656.464 54.2597H655.918C655.9 54.2597 655.885 54.2447 655.885 54.2262V52.0881C655.885 52.0529 655.837 52.0415 655.822 52.0729L654.961 53.7629C654.955 53.7741 654.944 53.7812 654.931 53.7812H654.489C654.476 53.7812 654.465 53.7741 654.459 53.7629L653.599 52.0729C653.583 52.0415 653.535 52.0529 653.535 52.0881V54.2262C653.535 54.2447 653.52 54.2597 653.502 54.2597H652.956Z" fill="#D9D9D9"/>
<path d="M723.385 59.7113L754.935 25.9316L760.407 31.3413L729.472 65.492L723.385 59.7113Z" fill="#EEEEEE" stroke="#CFCFCF" stroke-width="0.211553" stroke-miterlimit="10"/>
<path d="M755.081 28.0484L758.714 31.416L729.219 63.2342L725.368 59.9941L755.081 28.0484ZM754.971 25.085L722.329 60.179L729.398 66.1262L761.678 31.3025L754.971 25.085Z" fill="#D9D9D9"/>
<path d="M755.25 27.5687L759.251 31.3902L748.029 43.576L746.315 45.438L748.217 47.1096L760.3 57.7353L756.966 61.546L744.4 50.6587L742.563 49.0676L740.934 50.8708L729.548 63.4652L725.487 59.7583L736.774 47.8743L738.499 46.0571L736.66 44.3546L724.155 32.7693L727.579 29.1382L739.745 40.7637L741.579 42.5173L743.292 40.646L755.252 27.5703M755.131 24.0273L741.46 38.9744L727.488 25.6216L720.636 32.8854L734.974 46.1686L721.949 59.8821L729.717 66.9725L742.776 52.5285L757.208 65.0347L763.793 57.5078L749.855 45.2507L762.723 31.2772L755.131 24.0273Z" fill="#D9D9D9"/>
<path d="M741.47 27.5983C741.496 27.5983 741.524 27.5983 741.55 27.5999C741.997 27.6203 742.409 27.8198 742.711 28.1575C743.012 28.4953 743.167 28.9351 743.146 29.3938C743.104 30.3127 742.371 31.0322 741.476 31.0322C741.45 31.0322 741.423 31.0322 741.397 31.0306C740.475 30.9866 739.758 30.1823 739.801 29.2367C739.843 28.3177 740.576 27.5983 741.47 27.5983ZM741.47 25.085C739.279 25.085 737.455 26.8537 737.353 29.122C737.248 31.4563 739.008 33.4355 741.284 33.5424C741.348 33.5455 741.412 33.5471 741.476 33.5471C743.668 33.5471 745.492 31.7783 745.594 29.51C745.698 27.1757 743.939 25.1965 741.663 25.0897C741.599 25.0865 741.535 25.085 741.47 25.085Z" fill="#D9D9D9"/>
<path d="M743.163 60.8108C743.183 60.8108 743.202 60.8108 743.224 60.8108C743.918 60.8437 744.457 61.4513 744.425 62.1641C744.394 62.858 743.842 63.4012 743.169 63.4012C743.149 63.4012 743.129 63.4012 743.108 63.4012C742.413 63.3682 741.875 62.7607 741.907 62.0479C741.937 61.354 742.49 60.8108 743.163 60.8108ZM743.163 58.2988C741.197 58.2988 739.559 59.8908 739.468 61.9317C739.374 64.0323 740.953 65.8142 742.996 65.91C743.054 65.9132 743.112 65.9147 743.169 65.9147C745.135 65.9147 746.772 64.3228 746.864 62.2818C746.957 60.1812 745.379 58.3993 743.335 58.3035C743.277 58.3004 743.219 58.2988 743.163 58.2988Z" fill="#D9D9D9"/>
<path d="M717.463 40.3172C718.281 40.3172 718.944 39.6542 718.944 38.8363C718.944 38.0185 718.281 37.3555 717.463 37.3555C716.645 37.3555 715.982 38.0185 715.982 38.8363C715.982 39.6542 716.645 40.3172 717.463 40.3172Z" fill="#D9D9D9"/>
<path d="M766.331 37.3553C767.149 37.3553 767.812 36.6923 767.812 35.8744C767.812 35.0566 767.149 34.3936 766.331 34.3936C765.513 34.3936 764.85 35.0566 764.85 35.8744C764.85 36.6923 765.513 37.3553 766.331 37.3553Z" fill="#ABABAB"/>
<path d="M767.601 53.6453C768.419 53.6453 769.082 52.9823 769.082 52.1645C769.082 51.3466 768.419 50.6836 767.601 50.6836C766.783 50.6836 766.12 51.3466 766.12 52.1645C766.12 52.9823 766.783 53.6453 767.601 53.6453Z" fill="#ABABAB"/>
<path d="M762.1 51.9525C762.568 51.9525 762.947 51.621 762.947 51.2121C762.947 50.8032 762.568 50.4717 762.1 50.4717C761.633 50.4717 761.254 50.8032 761.254 51.2121C761.254 51.621 761.633 51.9525 762.1 51.9525Z" fill="#D9D9D9"/>
<path d="M772.255 51.9528C772.839 51.9528 773.313 51.5266 773.313 51.0008C773.313 50.475 772.839 50.0488 772.255 50.0488C771.671 50.0488 771.197 50.475 771.197 51.0008C771.197 51.5266 771.671 51.9528 772.255 51.9528Z" fill="#D9D9D9"/>
<path d="M768.659 61.8948C769.243 61.8948 769.717 61.4212 769.717 60.8371C769.717 60.2529 769.243 59.7793 768.659 59.7793C768.075 59.7793 767.601 60.2529 767.601 60.8371C767.601 61.4212 768.075 61.8948 768.659 61.8948Z" fill="#D9D9D9"/>
<path d="M771.62 36.9322C772.321 36.9322 772.889 36.3639 772.889 35.6629C772.889 34.9618 772.321 34.3936 771.62 34.3936C770.919 34.3936 770.35 34.9618 770.35 35.6629C770.35 36.3639 770.919 36.9322 771.62 36.9322Z" fill="#D9D9D9"/>
<path d="M718.203 56.6063C719.079 56.6063 719.79 55.9433 719.79 55.1254C719.79 54.3075 719.079 53.6445 718.203 53.6445C717.327 53.6445 716.616 54.3075 716.616 55.1254C716.616 55.9433 717.327 56.6063 718.203 56.6063Z" fill="#D9D9D9"/>
<path d="M713.126 55.5485C713.652 55.5485 714.078 55.1223 714.078 54.5965C714.078 54.0707 713.652 53.6445 713.126 53.6445C712.6 53.6445 712.174 54.0707 712.174 54.5965C712.174 55.1223 712.6 55.5485 713.126 55.5485Z" fill="#D9D9D9"/>
<path d="M717.992 64.6452C718.517 64.6452 718.944 64.219 718.944 63.6932C718.944 63.1674 718.517 62.7412 717.992 62.7412C717.466 62.7412 717.04 63.1674 717.04 63.6932C717.04 64.219 717.466 64.6452 717.992 64.6452Z" fill="#D9D9D9"/>
<path d="M710.904 42.2795L710.829 43.9185C710.825 44.0056 710.892 44.0794 710.979 44.0834L725.737 44.7613C725.824 44.7653 725.898 44.6979 725.902 44.6108L725.977 42.9719C725.981 42.8848 725.914 42.8109 725.827 42.8069L711.069 42.1291C710.982 42.1251 710.908 42.1924 710.904 42.2795Z" fill="#D9D9D9"/>
<path d="M718.718 45.7848L718.642 47.4439C718.638 47.531 718.705 47.6048 718.792 47.6088L729.809 48.1148C729.897 48.1188 729.97 48.0515 729.974 47.9644L730.051 46.3053C730.055 46.2182 729.987 46.1444 729.9 46.1404L718.883 45.6344C718.796 45.6304 718.722 45.6977 718.718 45.7848Z" fill="#D9D9D9"/>
<path d="M710.715 46.4163L710.636 48.1465C710.631 48.2387 710.703 48.3169 710.795 48.3211L716.878 48.6005C716.97 48.6048 717.048 48.5335 717.053 48.4412L717.132 46.7111C717.136 46.6188 717.065 46.5407 716.973 46.5364L710.89 46.257C710.798 46.2528 710.719 46.3241 710.715 46.4163Z" fill="#D9D9D9"/>
<path d="M709.928 49.8301L709.852 51.4922C709.849 51.5537 709.897 51.6058 709.958 51.6086L726.155 52.3526C726.217 52.3554 726.269 52.3079 726.272 52.2464L726.348 50.5842C726.351 50.5228 726.303 50.4706 726.242 50.4678L710.045 49.7239C709.983 49.721 709.931 49.7686 709.928 49.8301Z" fill="#D9D9D9"/>
<path d="M757.8 39.2064L757.713 41.0958C757.71 41.1615 757.761 41.2173 757.826 41.2203L775.443 42.0295C775.509 42.0325 775.565 41.9816 775.568 41.9159L775.654 40.0265C775.657 39.9607 775.607 39.905 775.541 39.9019L757.924 39.0928C757.858 39.0898 757.803 39.1406 757.8 39.2064Z" fill="#ABABAB"/>
<path d="M754.552 43.3714L754.479 44.9578C754.475 45.0372 754.537 45.1045 754.616 45.1082L766.801 45.6678C766.88 45.6715 766.947 45.6101 766.951 45.5306L767.024 43.9443C767.028 43.8649 766.966 43.7975 766.887 43.7939L754.702 43.2342C754.623 43.2306 754.555 43.292 754.552 43.3714Z" fill="#D9D9D9"/>
<path d="M769.412 42.8579L769.327 44.6947C769.323 44.7776 769.387 44.8478 769.47 44.8516L777.245 45.2087C777.328 45.2125 777.398 45.1485 777.402 45.0656L777.486 43.2288C777.49 43.1459 777.426 43.0757 777.343 43.0719L769.568 42.7148C769.486 42.711 769.415 42.7751 769.412 42.8579Z" fill="#ABABAB"/>
<path d="M758.512 47.207L758.436 48.8691C758.433 48.9306 758.48 48.9828 758.542 48.9856L765.138 49.2886C765.2 49.2914 765.252 49.2438 765.255 49.1824L765.331 47.5202C765.334 47.4587 765.286 47.4066 765.225 47.4038L758.628 47.1008C758.567 47.098 758.515 47.1455 758.512 47.207Z" fill="#ABABAB"/>
<path d="M766.915 46.28L766.824 48.2715C766.82 48.3535 766.884 48.423 766.966 48.4267L776.09 48.8458C776.172 48.8496 776.242 48.7862 776.245 48.7042L776.337 46.7128C776.341 46.6308 776.277 46.5613 776.195 46.5575L767.071 46.1384C766.989 46.1346 766.919 46.1981 766.915 46.28Z" fill="#ABABAB"/>
<path d="M796.331 32.6108C796 32.2076 795.594 31.9006 795.113 31.6847C794.632 31.4687 794.075 31.3621 793.443 31.3621C792.811 31.3621 792.225 31.4843 791.687 31.7289C791.148 31.9734 790.68 32.3142 790.284 32.7539C789.889 33.1935 789.579 33.7138 789.358 34.3174C789.134 34.9209 789.025 35.5739 789.025 36.2789C789.025 36.9839 789.137 37.6551 789.358 38.2509C789.582 38.8466 789.886 39.3643 790.274 39.8014C790.662 40.241 791.117 40.5818 791.642 40.8264C792.168 41.0709 792.73 41.1932 793.333 41.1932C794.023 41.1932 794.634 41.0501 795.165 40.7613C795.696 40.4752 796.136 40.0719 796.479 39.5542L799.281 41.6459C798.633 42.5512 797.816 43.2198 796.825 43.6516C795.834 44.0835 794.814 44.2994 793.765 44.2994C792.571 44.2994 791.473 44.1121 790.466 43.7401C789.46 43.3654 788.591 42.8321 787.86 42.1349C787.126 41.4377 786.556 40.5948 786.145 39.6011C785.737 38.6099 785.531 37.5042 785.531 36.2815C785.531 35.0588 785.737 33.9532 786.145 32.962C786.553 31.9708 787.126 31.1253 787.86 30.4281C788.593 29.7309 789.462 29.195 790.466 28.823C791.473 28.4484 792.571 28.2637 793.765 28.2637C794.197 28.2637 794.645 28.3027 795.113 28.3833C795.579 28.4614 796.039 28.5889 796.492 28.7606C796.945 28.9323 797.379 29.1638 797.795 29.45C798.212 29.7387 798.586 30.0899 798.917 30.5062L796.331 32.6186V32.6108Z" fill="#D9D9D9"/>
<path d="M801.331 28.6465H807.237C808.012 28.6465 808.748 28.7219 809.445 28.8728C810.143 29.0237 810.754 29.276 811.277 29.6273C811.803 29.9785 812.219 30.4545 812.528 31.0503C812.838 31.646 812.992 32.3901 812.992 33.2824C812.992 34.3594 812.711 35.2751 812.151 36.0296C811.592 36.784 810.772 37.2627 809.695 37.463L813.574 43.907H809.544L806.355 37.8064H804.695V43.907H801.333V28.6465H801.331ZM804.692 34.9604H806.675C806.976 34.9604 807.296 34.9499 807.635 34.9291C807.973 34.9083 808.277 34.8433 808.551 34.734C808.824 34.6274 809.05 34.4583 809.23 34.2267C809.409 33.9978 809.5 33.6752 809.5 33.2564C809.5 32.8687 809.422 32.5592 809.263 32.3302C809.105 32.1013 808.904 31.9244 808.66 31.8021C808.415 31.6798 808.134 31.5966 807.819 31.555C807.502 31.5107 807.195 31.4899 806.893 31.4899H804.695V34.9604H804.692Z" fill="#D9D9D9"/>
<path d="M814.696 36.2767C814.696 35.0565 814.901 33.9483 815.31 32.9571C815.718 31.9659 816.291 31.1205 817.024 30.4232C817.758 29.726 818.627 29.1901 819.631 28.8181C820.638 28.4435 821.736 28.2588 822.93 28.2588C824.124 28.2588 825.222 28.4461 826.229 28.8181C827.236 29.1927 828.105 29.726 828.836 30.4232C829.57 31.1205 830.139 31.9633 830.551 32.9571C830.962 33.9509 831.165 35.0539 831.165 36.2767C831.165 37.4994 830.959 38.605 830.551 39.5962C830.142 40.5874 829.57 41.4328 828.836 42.1301C828.102 42.8273 827.233 43.3632 826.229 43.7352C825.222 44.1098 824.124 44.2945 822.93 44.2945C821.736 44.2945 820.638 44.1072 819.631 43.7352C818.624 43.3606 817.755 42.8273 817.024 42.1301C816.291 41.4328 815.721 40.59 815.31 39.5962C814.901 38.605 814.696 37.4994 814.696 36.2767ZM818.187 36.2767C818.187 36.9947 818.299 37.6529 818.52 38.2486C818.744 38.8443 819.061 39.362 819.48 39.7991C819.897 40.2388 820.396 40.5796 820.979 40.8241C821.562 41.0686 822.212 41.1909 822.93 41.1909C823.648 41.1909 824.299 41.0686 824.881 40.8241C825.464 40.5796 825.964 40.2388 826.38 39.7991C826.796 39.362 827.116 38.8443 827.34 38.2486C827.564 37.6529 827.673 36.9947 827.673 36.2767C827.673 35.5586 827.561 34.9187 827.34 34.3151C827.116 33.7116 826.796 33.1913 826.38 32.7516C825.964 32.3146 825.464 31.9712 824.881 31.7266C824.299 31.4821 823.648 31.3598 822.93 31.3598C822.212 31.3598 821.562 31.4821 820.979 31.7266C820.396 31.9712 819.897 32.3119 819.48 32.7516C819.064 33.1913 818.744 33.7116 818.52 34.3151C818.297 34.9187 818.187 35.5716 818.187 36.2767Z" fill="#D9D9D9"/>
<path d="M841.207 32.3741C840.934 32.0281 840.565 31.7731 840.096 31.6092C839.628 31.4453 839.188 31.3621 838.769 31.3621C838.525 31.3621 838.273 31.3907 838.015 31.4479C837.757 31.5052 837.513 31.5962 837.281 31.7185C837.052 31.8408 836.865 32.002 836.722 32.2024C836.579 32.4027 836.506 32.6472 836.506 32.936C836.506 33.3965 836.678 33.7477 837.024 33.9922C837.37 34.2367 837.804 34.4449 838.327 34.6166C838.853 34.7883 839.415 34.9626 840.018 35.1343C840.622 35.306 841.186 35.5505 841.709 35.8679C842.235 36.1853 842.669 36.6093 843.013 37.14C843.359 37.6707 843.531 38.3836 843.531 39.2733C843.531 40.163 843.372 40.8602 843.057 41.4924C842.74 42.1245 842.313 42.65 841.774 43.0663C841.236 43.4825 840.611 43.7921 839.899 43.9924C839.188 44.1927 838.436 44.2942 837.646 44.2942C836.654 44.2942 835.733 44.1433 834.888 43.8415C834.04 43.5398 833.249 43.0507 832.518 42.3769L834.911 39.7467C835.257 40.2072 835.692 40.5636 836.215 40.8134C836.74 41.0657 837.281 41.1906 837.841 41.1906C838.114 41.1906 838.39 41.1594 838.671 41.0943C838.952 41.0293 839.201 40.933 839.425 40.803C839.649 40.6729 839.828 40.509 839.964 40.3061C840.099 40.1057 840.169 39.869 840.169 39.5959C840.169 39.1354 839.992 38.7738 839.641 38.5084C839.29 38.2431 838.847 38.0167 838.314 37.8294C837.783 37.6421 837.208 37.4548 836.589 37.2701C835.97 37.0828 835.395 36.8331 834.864 36.5157C834.334 36.2009 833.891 35.782 833.537 35.2669C833.186 34.7492 833.009 34.0676 833.009 33.2195C833.009 32.3715 833.171 31.6821 833.493 31.0629C833.816 30.4463 834.248 29.9286 834.786 29.5124C835.325 29.0962 835.947 28.784 836.652 28.5758C837.357 28.3677 838.083 28.2637 838.829 28.2637C839.69 28.2637 840.526 28.3859 841.33 28.6305C842.133 28.875 842.859 29.2835 843.507 29.8584L841.199 32.3793L841.207 32.3741Z" fill="#D9D9D9"/>
<path d="M853.794 32.3741C853.521 32.0281 853.152 31.7731 852.683 31.6092C852.215 31.4453 851.775 31.3621 851.357 31.3621C851.112 31.3621 850.86 31.3907 850.602 31.4479C850.344 31.5052 850.1 31.5962 849.868 31.7185C849.639 31.8408 849.452 32.002 849.309 32.2024C849.166 32.4027 849.093 32.6472 849.093 32.936C849.093 33.3965 849.265 33.7477 849.611 33.9922C849.957 34.2367 850.391 34.4449 850.914 34.6166C851.44 34.7883 852.002 34.9626 852.605 35.1343C853.209 35.306 853.773 35.5505 854.296 35.8679C854.822 36.1853 855.256 36.6093 855.6 37.14C855.946 37.6707 856.118 38.3836 856.118 39.2733C856.118 40.163 855.959 40.8602 855.644 41.4924C855.327 42.1245 854.9 42.65 854.361 43.0663C853.823 43.4825 853.199 43.7921 852.486 43.9924C851.775 44.1927 851.024 44.2942 850.233 44.2942C849.241 44.2942 848.32 44.1433 847.472 43.8415C846.624 43.5398 845.833 43.0507 845.102 42.3769L847.496 39.7467C847.842 40.2072 848.276 40.5636 848.799 40.8134C849.325 41.0657 849.866 41.1906 850.425 41.1906C850.698 41.1906 850.974 41.1594 851.255 41.0943C851.536 41.0293 851.786 40.933 852.01 40.803C852.233 40.6729 852.413 40.509 852.548 40.3061C852.683 40.1057 852.754 39.869 852.754 39.5959C852.754 39.1354 852.577 38.7738 852.225 38.5084C851.874 38.2431 851.432 38.0167 850.901 37.8294C850.37 37.6421 849.796 37.4548 849.176 37.2701C848.557 37.0854 847.985 36.8331 847.451 36.5157C846.921 36.2009 846.478 35.782 846.127 35.2669C845.776 34.7492 845.599 34.0676 845.599 33.2195C845.599 32.3715 845.76 31.6821 846.083 31.0629C846.406 30.4463 846.837 29.9286 847.376 29.5124C847.914 29.0962 848.536 28.784 849.241 28.5758C849.946 28.3677 850.672 28.2637 851.419 28.2637C852.28 28.2637 853.115 28.3859 853.919 28.6305C854.723 28.875 855.449 29.2835 856.097 29.8584L853.789 32.3793L853.794 32.3741Z" fill="#D9D9D9"/>
<path d="M858.02 36.2767C858.02 35.0565 858.225 33.9483 858.634 32.9571C859.042 31.9659 859.614 31.1205 860.348 30.4232C861.082 29.726 861.951 29.1901 862.958 28.8181C863.964 28.4435 865.062 28.2588 866.256 28.2588C867.451 28.2588 868.549 28.4461 869.555 28.8181C870.562 29.1927 871.431 29.726 872.165 30.4232C872.899 31.1205 873.468 31.9633 873.879 32.9571C874.291 33.9509 874.493 35.0539 874.493 36.2767C874.493 37.4994 874.288 38.605 873.879 39.5962C873.471 40.5874 872.899 41.4328 872.165 42.1301C871.431 42.8273 870.562 43.3632 869.555 43.7352C868.549 44.1098 867.451 44.2945 866.256 44.2945C865.062 44.2945 863.964 44.1072 862.958 43.7352C861.951 43.3606 861.082 42.8273 860.348 42.1301C859.614 41.4328 859.045 40.59 858.634 39.5962C858.225 38.605 858.02 37.4994 858.02 36.2767ZM861.511 36.2767C861.511 36.9947 861.623 37.6529 861.844 38.2486C862.068 38.8443 862.385 39.362 862.804 39.7991C863.22 40.2388 863.72 40.5796 864.303 40.8241C864.885 41.0686 865.536 41.1909 866.254 41.1909C866.972 41.1909 867.622 41.0686 868.205 40.8241C868.788 40.5796 869.287 40.2388 869.704 39.7991C870.12 39.362 870.44 38.8443 870.664 38.2486C870.888 37.6529 870.997 36.9947 870.997 36.2767C870.997 35.5586 870.885 34.9187 870.664 34.3151C870.44 33.7116 870.123 33.1913 869.704 32.7516C869.287 32.3146 868.788 31.9712 868.205 31.7266C867.622 31.4821 866.972 31.3598 866.254 31.3598C865.536 31.3598 864.885 31.4821 864.303 31.7266C863.72 31.9712 863.22 32.3119 862.804 32.7516C862.388 33.1913 862.068 33.7116 861.844 34.3151C861.62 34.9187 861.511 35.5716 861.511 36.2767Z" fill="#D9D9D9"/>
<path d="M875.479 28.6465H879.317L883.089 38.6467H883.133L886.971 28.6465H890.572L884.278 43.907H881.583L875.482 28.6465H875.479Z" fill="#D9D9D9"/>
<path d="M892.508 28.6465H902.876V31.7501H895.869V34.5961H902.488V37.6997H895.869V40.8033H903.263V43.907H892.508V28.6465Z" fill="#D9D9D9"/>
<path d="M906.174 28.6465H912.08C912.855 28.6465 913.592 28.7219 914.289 28.8728C914.986 29.0237 915.598 29.276 916.121 29.6273C916.646 29.9785 917.062 30.4545 917.372 31.0503C917.682 31.646 917.835 32.3901 917.835 33.2824C917.835 34.3594 917.554 35.2751 916.995 36.0296C916.435 36.784 915.616 37.2627 914.539 37.463L918.418 43.907H914.388L911.198 37.8064H909.538V43.907H906.177V28.6465H906.174ZM909.536 34.9604H911.518C911.82 34.9604 912.14 34.9499 912.478 34.9291C912.816 34.9083 913.121 34.8433 913.394 34.734C913.667 34.6274 913.894 34.4583 914.073 34.2267C914.253 33.9978 914.344 33.6752 914.344 33.2564C914.344 32.8687 914.266 32.5592 914.107 32.3302C913.948 32.1013 913.748 31.9244 913.503 31.8021C913.259 31.6798 912.978 31.5966 912.663 31.555C912.346 31.5107 912.039 31.4899 911.737 31.4899H909.538V34.9604H909.536Z" fill="#D9D9D9"/>
<path d="M786.444 50.6411H789.194C789.587 50.6411 789.964 50.6796 790.326 50.7566C790.696 50.8337 791.02 50.9646 791.297 51.1495C791.574 51.3267 791.794 51.5693 791.956 51.8775C792.125 52.1779 792.21 52.5554 792.21 53.0099C792.21 53.5261 792.121 53.9421 791.944 54.2579C791.767 54.5737 791.528 54.8203 791.228 54.9974C790.927 55.1669 790.577 55.2825 790.176 55.3441C789.783 55.4057 789.371 55.4365 788.94 55.4365H787.9V58.8223H786.444V50.6411ZM788.778 54.1886C788.986 54.1886 789.202 54.1809 789.425 54.1655C789.648 54.15 789.852 54.1038 790.037 54.0268C790.23 53.9498 790.384 53.8342 790.5 53.6801C790.623 53.5261 790.684 53.3104 790.684 53.033C790.684 52.7788 790.631 52.5785 790.523 52.4321C790.415 52.2781 790.276 52.1625 790.107 52.0855C789.937 52.0007 789.748 51.9468 789.54 51.9237C789.332 51.9006 789.132 51.889 788.94 51.889H787.9V54.1886H788.778ZM795.819 50.6411H798.661C799.054 50.6411 799.432 50.6796 799.794 50.7566C800.164 50.826 800.491 50.9492 800.776 51.1264C801.061 51.3036 801.288 51.5424 801.458 51.8428C801.627 52.1433 801.712 52.5246 801.712 52.9868C801.712 53.58 801.546 54.0769 801.215 54.4774C800.892 54.878 800.426 55.1207 799.817 55.2054L801.989 58.8223H800.233L798.338 55.3557H797.275V58.8223H795.819V50.6411ZM798.407 54.1077C798.615 54.1077 798.823 54.1 799.031 54.0846C799.239 54.0615 799.428 54.0152 799.597 53.9459C799.775 53.8689 799.917 53.7572 800.025 53.6108C800.133 53.4567 800.187 53.2449 800.187 52.9753C800.187 52.7364 800.137 52.5439 800.037 52.3975C799.936 52.2511 799.805 52.1433 799.644 52.0739C799.482 51.9969 799.301 51.9468 799.101 51.9237C798.908 51.9006 798.719 51.889 798.534 51.889H797.275V54.1077H798.407ZM804.969 54.7663C804.969 54.1115 805.077 53.5184 805.293 52.9868C805.509 52.4476 805.805 51.9892 806.183 51.6117C806.568 51.2342 807.022 50.9454 807.546 50.7451C808.078 50.5371 808.659 50.4331 809.291 50.4331C809.93 50.4254 810.516 50.5217 811.047 50.722C811.579 50.9145 812.037 51.1996 812.423 51.5771C812.808 51.9545 813.108 52.409 813.324 52.9406C813.54 53.4721 813.647 54.0653 813.647 54.7201C813.647 55.3595 813.54 55.9411 813.324 56.465C813.108 56.9888 812.808 57.4395 812.423 57.8169C812.037 58.1944 811.579 58.491 811.047 58.7067C810.516 58.9147 809.93 59.0226 809.291 59.0303C808.659 59.0303 808.078 58.9301 807.546 58.7298C807.022 58.5218 806.568 58.2329 806.183 57.8632C805.805 57.4857 805.509 57.035 805.293 56.5112C805.077 55.9873 804.969 55.4057 804.969 54.7663ZM806.495 54.6739C806.495 55.113 806.56 55.5174 806.691 55.8872C806.83 56.257 807.022 56.5767 807.269 56.8463C807.515 57.1159 807.808 57.3278 808.147 57.4818C808.494 57.6359 808.879 57.713 809.303 57.713C809.726 57.713 810.111 57.6359 810.458 57.4818C810.805 57.3278 811.101 57.1159 811.348 56.8463C811.594 56.5767 811.783 56.257 811.914 55.8872C812.053 55.5174 812.122 55.113 812.122 54.6739C812.122 54.2656 812.053 53.8843 811.914 53.5299C811.783 53.1755 811.594 52.8674 811.348 52.6055C811.101 52.3359 810.805 52.1279 810.458 51.9815C810.111 51.8274 809.726 51.7504 809.303 51.7504C808.879 51.7504 808.494 51.8274 808.147 51.9815C807.808 52.1279 807.515 52.3359 807.269 52.6055C807.022 52.8674 806.83 53.1755 806.691 53.5299C806.56 53.8843 806.495 54.2656 806.495 54.6739ZM817.311 50.6411H818.767V58.8223H817.311V50.6411ZM822.872 50.6411H824.802L828.766 56.7192H828.789V50.6411H830.245V58.8223H828.396L824.351 52.5477H824.328V58.8223H822.872V50.6411ZM838.39 52.3975C838.236 52.1741 838.028 52.0123 837.766 51.9122C837.512 51.8043 837.242 51.7504 836.957 51.7504C836.788 51.7504 836.622 51.7696 836.46 51.8082C836.306 51.8467 836.164 51.9083 836.033 51.993C835.909 52.0778 835.809 52.1895 835.732 52.3282C835.655 52.4591 835.617 52.617 835.617 52.8019C835.617 53.0793 835.713 53.2911 835.906 53.4375C836.098 53.5838 836.337 53.7109 836.622 53.8188C836.907 53.9266 837.219 54.0306 837.558 54.1308C837.897 54.2309 838.209 54.3696 838.494 54.5468C838.779 54.724 839.018 54.9589 839.21 55.2517C839.403 55.5444 839.499 55.9334 839.499 56.4188C839.499 56.8579 839.418 57.243 839.257 57.5743C839.095 57.8978 838.875 58.1675 838.598 58.3832C838.328 58.5989 838.013 58.7606 837.651 58.8685C837.288 58.9763 836.907 59.0303 836.507 59.0303C835.998 59.0303 835.509 58.9455 835.039 58.776C834.569 58.6066 834.165 58.3215 833.826 57.9209L834.923 56.8579C835.101 57.1275 835.332 57.3393 835.617 57.4934C835.909 57.6398 836.218 57.713 836.541 57.713C836.711 57.713 836.88 57.6898 837.05 57.6436C837.219 57.5974 837.373 57.5281 837.512 57.4356C837.651 57.3432 837.762 57.2276 837.847 57.089C837.932 56.9426 837.974 56.777 837.974 56.5921C837.974 56.2916 837.878 56.0605 837.685 55.8988C837.493 55.737 837.254 55.6022 836.969 55.4943C836.684 55.3788 836.372 55.2709 836.033 55.1708C835.694 55.0706 835.382 54.9358 835.097 54.7663C834.812 54.5892 834.573 54.358 834.38 54.073C834.188 53.7803 834.091 53.3912 834.091 52.9059C834.091 52.4822 834.176 52.1163 834.346 51.8082C834.523 51.5 834.75 51.2458 835.027 51.0455C835.312 50.8375 835.636 50.6834 835.998 50.5833C836.36 50.4831 836.73 50.4331 837.107 50.4331C837.539 50.4331 837.955 50.4986 838.355 50.6295C838.764 50.7605 839.13 50.9762 839.453 51.2766L838.39 52.3975ZM843.327 50.6411H846.077C846.47 50.6411 846.847 50.6796 847.209 50.7566C847.579 50.8337 847.903 50.9646 848.18 51.1495C848.457 51.3267 848.677 51.5693 848.839 51.8775C849.008 52.1779 849.093 52.5554 849.093 53.0099C849.093 53.5261 849.004 53.9421 848.827 54.2579C848.65 54.5737 848.411 54.8203 848.111 54.9974C847.81 55.1669 847.46 55.2825 847.059 55.3441C846.666 55.4057 846.254 55.4365 845.823 55.4365H844.783V58.8223H843.327V50.6411ZM845.661 54.1886C845.869 54.1886 846.085 54.1809 846.308 54.1655C846.531 54.15 846.736 54.1038 846.92 54.0268C847.113 53.9498 847.267 53.8342 847.383 53.6801C847.506 53.5261 847.568 53.3104 847.568 53.033C847.568 52.7788 847.514 52.5785 847.406 52.4321C847.298 52.2781 847.159 52.1625 846.99 52.0855C846.82 52.0007 846.632 51.9468 846.424 51.9237C846.216 51.9006 846.015 51.889 845.823 51.889H844.783V54.1886H845.661ZM852.702 50.6411H858.121V51.9584H854.158V53.969H857.913V55.2863H854.158V57.505H858.329V58.8223H852.702V50.6411ZM867.693 52.5593C867.393 52.2357 867.1 52.02 866.815 51.9122C866.537 51.8043 866.256 51.7504 865.971 51.7504C865.548 51.7504 865.162 51.8274 864.816 51.9815C864.477 52.1279 864.184 52.3359 863.938 52.6055C863.691 52.8674 863.498 53.1755 863.36 53.5299C863.229 53.8843 863.163 54.2656 863.163 54.6739C863.163 55.113 863.229 55.5174 863.36 55.8872C863.498 56.257 863.691 56.5767 863.938 56.8463C864.184 57.1159 864.477 57.3278 864.816 57.4818C865.162 57.6359 865.548 57.713 865.971 57.713C866.303 57.713 866.622 57.6359 866.93 57.4818C867.246 57.3201 867.539 57.0659 867.809 56.7192L869.01 57.5743C868.641 58.0827 868.19 58.4525 867.658 58.6836C867.127 58.9147 866.561 59.0303 865.96 59.0303C865.328 59.0303 864.746 58.9301 864.215 58.7298C863.691 58.5218 863.236 58.2329 862.851 57.8632C862.474 57.4857 862.177 57.035 861.962 56.5112C861.746 55.9873 861.638 55.4057 861.638 54.7663C861.638 54.1115 861.746 53.5184 861.962 52.9868C862.177 52.4476 862.474 51.9892 862.851 51.6117C863.236 51.2342 863.691 50.9454 864.215 50.7451C864.746 50.5371 865.328 50.4331 865.96 50.4331C866.514 50.4331 867.027 50.5332 867.497 50.7335C867.974 50.9261 868.417 51.2574 868.825 51.7273L867.693 52.5593ZM873.974 51.9584H871.467V50.6411H877.938V51.9584H875.43V58.8223H873.974V51.9584Z" fill="#D9D9D9"/>
<path d="M984.864 44.5016L990.737 37.8251L986.338 32.8237C985.906 32.3335 985.209 32.3335 984.778 32.8237L974.506 44.5016C974.075 44.9918 974.075 45.7841 974.506 46.2743L984.778 57.9522C985.209 58.4424 985.906 58.4424 986.338 57.9522L990.737 52.9508L984.864 46.2743C984.433 45.7841 984.433 44.9918 984.864 44.5016Z" fill="#D9D9D9"/>
<path d="M1006.97 44.5016L996.695 32.8237C996.264 32.3335 995.567 32.3335 995.136 32.8237L990.737 37.8251L996.609 44.5016C997.041 44.9918 997.041 45.7841 996.609 46.2743L990.737 52.9508L995.136 57.9522C995.567 58.4424 996.264 58.4424 996.695 57.9522L1006.97 46.2743C1007.4 45.7841 1007.4 44.9918 1006.97 44.5016Z" fill="#D9D9D9"/>
<path d="M991.953 34.8705C991.286 35.6295 990.193 35.6295 989.523 34.8705C988.856 34.1114 987.763 32.867 987.093 32.108C986.426 31.349 986.87 30.7256 988.083 30.7256H993.393C994.605 30.7256 995.051 31.3466 994.383 32.108C993.715 32.8694 992.623 34.1114 991.953 34.8705Z" fill="#AAAAAA"/>
<path d="M989.523 56.1298C990.191 55.3708 991.285 55.3708 991.953 56.1298C992.62 56.8888 993.713 58.1332 994.383 58.8923C995.052 59.6513 994.604 60.2747 993.393 60.2747H988.083C986.871 60.2747 986.425 59.6537 987.093 58.8923C987.761 58.1332 988.853 56.8888 989.523 56.1298Z" fill="#AAAAAA"/>
<rect y="-1" width="46" height="92" fill="url(#paint0_linear_43_19120)"/>
<rect width="46" height="92" transform="matrix(-1 0 0 1 1009 -1)" fill="url(#paint1_linear_43_19120)"/>
</g>
<defs>
<linearGradient id="paint0_linear_43_19120" x1="46" y1="45" x2="-1.37091e-06" y2="45" gradientUnits="userSpaceOnUse">
<stop stop-color="#191414" stop-opacity="0"/>
<stop offset="1" stop-color="#191414"/>
</linearGradient>
<linearGradient id="paint1_linear_43_19120" x1="46" y1="46" x2="-1.37091e-06" y2="46" gradientUnits="userSpaceOnUse">
<stop stop-color="#191414" stop-opacity="0"/>
<stop offset="1" stop-color="#191414"/>
</linearGradient>
<clipPath id="clip0_43_19120">
<rect width="1009" height="91" fill="white"/>
</clipPath>
<clipPath id="clip1_43_19120">
<rect width="128.762" height="40" fill="white" transform="translate(158.952 25.5)"/>
</clipPath>
<clipPath id="clip2_43_19120">
<rect width="143" height="43" fill="white" transform="translate(337.714 24)"/>
</clipPath>
<clipPath id="clip3_43_19120">
<rect width="32.1553" height="34.4999" fill="white" transform="translate(534.064 28.25)"/>
</clipPath>
</defs>
</svg>
