<svg width="1009" height="91" viewBox="0 0 1009 91" fill="none" xmlns="http://www.w3.org/2000/svg">
<g clip-path="url(#clip0_43_21550)">
<rect width="1009" height="91" fill="#191414"/>
<path d="M-10 0H1019" stroke="#191414" stroke-width="3"/>
<path d="M-10 91H1019" stroke="#191414" stroke-width="3"/>
<path d="M-10.2458 48.5705C-11.3218 49.6567 -12.6386 50.1998 -14.1962 50.1998C-15.7538 50.1998 -17.0706 49.6567 -18.1466 48.5705C-19.2226 47.4842 -19.7606 46.1674 -19.7606 44.62C-19.7606 43.0624 -19.2226 41.7456 -18.1466 40.6696C-17.0706 39.5834 -15.7538 39.0403 -14.1962 39.0403C-12.6386 39.0403 -11.3218 39.5834 -10.2458 40.6696C-9.15954 41.7456 -8.61642 43.0624 -8.61642 44.62C-8.61642 46.1674 -9.15954 47.4842 -10.2458 48.5705ZM-17.1629 47.6021C-16.3636 48.4014 -15.3747 48.801 -14.1962 48.801C-13.0177 48.801 -12.034 48.4014 -11.2449 47.6021C-10.4456 46.7925 -10.046 45.7985 -10.046 44.62C-10.046 43.4313 -10.4456 42.4373 -11.2449 41.638C-12.034 40.8285 -13.0177 40.4237 -14.1962 40.4237C-15.3747 40.4237 -16.3636 40.8285 -17.1629 41.638C-17.9519 42.4373 -18.3465 43.4313 -18.3465 44.62C-18.3465 45.7985 -17.9519 46.7925 -17.1629 47.6021ZM-0.51875 50L-2.93204 45.8805H-5.46831V50H-6.89784V39.2401H-2.59388C-1.6716 39.2401 -0.882537 39.568 -0.226695 40.2239C0.429147 40.8694 0.757068 41.6534 0.757068 42.5757C0.757068 43.2725 0.546994 43.9078 0.126845 44.4817C-0.283057 45.0556 -0.815928 45.4603 -1.47177 45.696L1.06449 50H-0.51875ZM-5.46831 40.5774V44.5893H-2.59388C-2.061 44.5893 -1.61011 44.3946 -1.2412 44.0052C-0.862042 43.6055 -0.672463 43.129 -0.672463 42.5757C-0.672463 42.0223 -0.862042 41.5509 -1.2412 41.1615C-1.61011 40.7721 -2.061 40.5774 -2.59388 40.5774H-5.46831ZM2.49907 39.2401H3.9286V50H2.49907V39.2401ZM7.66635 48.6473H12.662V50H6.23682V39.2401H12.5852V40.5928H7.66635V43.8976H12.2009V45.2349H7.66635V48.6473ZM21.0743 39.2401H22.5039V50H21.351L15.8173 41.9608V50H14.3878V39.2401H15.5407L21.0743 47.2639V39.2401ZM31.6918 39.2401V40.5928H28.51V50H27.0958V40.5928H23.9293V39.2401H31.6918ZM39.4122 50L38.536 47.5867H33.694L32.8179 50H31.2961L35.308 39.2401H36.922L40.9339 50H39.4122ZM34.1859 46.2494H38.0441L36.1073 40.9463L34.1859 46.2494ZM43.6328 48.6473H48.2749V50H42.2033V39.2401H43.6328V48.6473ZM59.7001 44.4202C60.192 44.6559 60.5814 44.9941 60.8683 45.4347C61.1655 45.8754 61.3141 46.3826 61.3141 46.9565C61.3141 47.8173 61.0118 48.5397 60.4072 49.1238C59.8026 49.7079 59.0648 50 58.1937 50H53.5516V39.2401H57.8556C58.6959 39.2401 59.4081 39.5219 59.9922 40.0855C60.5763 40.6491 60.8683 41.346 60.8683 42.176C60.8683 43.129 60.4789 43.8771 59.7001 44.4202ZM57.8556 40.5774H54.9811V43.8669H57.8556C58.3065 43.8669 58.6856 43.708 58.993 43.3903C59.3005 43.0727 59.4542 42.6833 59.4542 42.2221C59.4542 41.7712 59.2953 41.3869 58.9777 41.0693C58.6702 40.7414 58.2962 40.5774 57.8556 40.5774ZM58.1937 48.6627C58.6754 48.6627 59.0802 48.4936 59.4081 48.1554C59.736 47.8173 59.9 47.4022 59.9 46.9104C59.9 46.4287 59.7309 46.0188 59.3927 45.6807C59.0648 45.3425 58.6651 45.1734 58.1937 45.1734H54.9811V48.6627H58.1937ZM69.743 49.1699C68.9949 49.8565 68.0265 50.1998 66.8378 50.1998C65.6491 50.1998 64.6756 49.8565 63.9173 49.1699C63.1692 48.4731 62.7952 47.5457 62.7952 46.3877V39.2401H64.2247V46.3263C64.2247 47.0846 64.4501 47.6892 64.901 48.1401C65.3519 48.5807 65.9975 48.801 66.8378 48.801C67.6781 48.801 68.3237 48.5807 68.7746 48.1401C69.2255 47.6892 69.4509 47.0846 69.4509 46.3263V39.2401H70.8651V46.3877C70.8651 47.5457 70.4911 48.4731 69.743 49.1699ZM73.0509 39.2401H74.4805V50H73.0509V39.2401ZM78.2182 48.6473H82.8604V50H76.7887V39.2401H78.2182V48.6473ZM88.4906 39.2401C89.956 39.2401 91.1703 39.7627 92.1336 40.808C93.1071 41.843 93.5938 43.1137 93.5938 44.62C93.5938 46.1264 93.1071 47.4022 92.1336 48.4475C91.1703 49.4825 89.956 50 88.4906 50H84.2942V39.2401H88.4906ZM88.4906 48.6473C89.5871 48.6473 90.4837 48.263 91.1805 47.4945C91.8774 46.7259 92.2258 45.7678 92.2258 44.62C92.2258 43.4723 91.8774 42.5142 91.1805 41.7456C90.4837 40.977 89.5871 40.5928 88.4906 40.5928H85.7237V48.6473H88.4906ZM95.3273 39.2401H96.7568V50H95.3273V39.2401ZM105.752 39.2401H107.181V50H106.028L100.495 41.9608V50H99.0651V39.2401H100.218L105.752 47.2639V39.2401ZM119.858 44.6662V45.3118C119.858 46.7157 119.377 47.8839 118.413 48.8164C117.45 49.7387 116.174 50.1998 114.586 50.1998C112.946 50.1998 111.589 49.6618 110.513 48.5858C109.447 47.4996 108.914 46.1777 108.914 44.62C108.914 43.0624 109.447 41.7456 110.513 40.6696C111.589 39.5834 112.936 39.0403 114.555 39.0403C115.549 39.0403 116.461 39.2811 117.291 39.7627C118.121 40.2341 118.762 40.8592 119.213 41.638L117.983 42.3605C117.676 41.7764 117.209 41.3101 116.584 40.9617C115.969 40.603 115.288 40.4237 114.54 40.4237C113.31 40.4237 112.301 40.8285 111.512 41.638C110.723 42.4373 110.328 43.4313 110.328 44.62C110.328 45.8088 110.723 46.8028 111.512 47.6021C112.311 48.4014 113.341 48.801 114.601 48.801C115.677 48.801 116.548 48.5397 117.214 48.0171C117.881 47.4842 118.285 46.7976 118.429 45.9573H114.478V44.6662H119.858Z" fill="#D9D9D9"/>
<path fill-rule="evenodd" clip-rule="evenodd" d="M190.303 47.2809C190.303 47.2805 190.303 47.2801 190.304 47.2799L206.541 29.064C206.71 28.8745 206.845 28.6638 206.948 28.4401C208.982 28.6286 210.574 30.3398 210.574 32.4229V58.5765C210.574 60.7856 208.783 62.5765 206.574 62.5765H186.746L196.955 52.5447L205.662 58.6598C206.558 59.2895 207.762 59.0434 208.377 58.1037C208.931 57.2583 208.835 56.1089 208.149 55.3824L196.955 43.5137V43.5143L180.717 61.7305C180.494 61.9803 180.329 62.2671 180.222 62.5716C178.105 62.4683 176.42 60.7191 176.42 58.5765V32.4229C176.42 30.2137 178.211 28.4229 180.42 28.4229H200.303L190.303 38.2498L181.596 32.1347C180.699 31.5051 179.496 31.7512 178.881 32.6909C178.327 33.5363 178.423 34.6857 179.109 35.4121L190.303 47.2809Z" fill="#D9D9D9"/>
<path d="M324.725 51.4747C323.518 51.4747 322.241 51.3484 320.894 51.0958C319.547 50.8432 318.34 50.4082 317.273 49.7907C316.824 49.51 316.501 49.1873 316.305 48.8224C316.136 48.4295 316.066 48.0506 316.094 47.6857C316.151 47.2928 316.291 46.956 316.515 46.6753C316.768 46.3946 317.077 46.2122 317.442 46.128C317.835 46.0438 318.256 46.114 318.705 46.3385C319.827 46.8718 320.88 47.2507 321.862 47.4752C322.844 47.6717 323.813 47.7699 324.767 47.7699C326.114 47.7699 327.111 47.5454 327.756 47.0963C328.43 46.6192 328.766 46.0017 328.766 45.2439C328.766 44.5984 328.542 44.1072 328.093 43.7704C327.672 43.4056 327.026 43.1389 326.156 42.9705L321.946 42.1706C320.206 41.8338 318.873 41.2023 317.947 40.2761C317.049 39.3219 316.6 38.101 316.6 36.6135C316.6 35.2663 316.964 34.1015 317.694 33.1192C318.452 32.1369 319.49 31.3791 320.81 30.8458C322.129 30.3125 323.644 30.0459 325.356 30.0459C326.591 30.0459 327.742 30.1862 328.809 30.4669C329.903 30.7195 330.956 31.1265 331.966 31.6878C332.387 31.9123 332.668 32.207 332.808 32.5719C332.976 32.9367 333.019 33.3156 332.934 33.7086C332.85 34.0734 332.682 34.4102 332.429 34.719C332.177 34.9996 331.854 35.1821 331.461 35.2663C331.096 35.3224 330.675 35.2382 330.198 35.0137C329.328 34.5646 328.486 34.2418 327.672 34.0454C326.886 33.8489 326.128 33.7507 325.398 33.7507C324.023 33.7507 322.999 33.9892 322.325 34.4664C321.68 34.9435 321.357 35.575 321.357 36.3609C321.357 36.9503 321.553 37.4414 321.946 37.8344C322.339 38.2273 322.943 38.4939 323.757 38.6343L327.967 39.4341C329.791 39.7709 331.166 40.3884 332.092 41.2865C333.047 42.1847 333.524 43.3915 333.524 44.9071C333.524 46.956 332.724 48.5698 331.124 49.7486C329.524 50.8993 327.391 51.4747 324.725 51.4747Z" fill="#D9D9D9"/>
<path d="M299.84 51.4745C298.128 51.4745 296.711 51.1657 295.588 50.5483C294.465 49.9027 293.623 48.9485 293.062 47.6855C292.529 46.4225 292.262 44.8508 292.262 42.9703V32.7822C292.262 31.884 292.487 31.2245 292.936 30.8035C293.385 30.3544 294.03 30.1299 294.872 30.1299C295.714 30.1299 296.36 30.3544 296.809 30.8035C297.286 31.2245 297.525 31.884 297.525 32.7822V43.0545C297.525 44.514 297.819 45.5945 298.409 46.2962C298.998 46.9979 299.938 47.3487 301.229 47.3487C302.633 47.3487 303.784 46.8716 304.682 45.9173C305.58 44.935 306.029 43.6439 306.029 42.0441V32.7822C306.029 31.884 306.253 31.2245 306.702 30.8035C307.151 30.3544 307.797 30.1299 308.639 30.1299C309.481 30.1299 310.127 30.3544 310.576 30.8035C311.053 31.2245 311.291 31.884 311.291 32.7822V48.6959C311.291 50.4921 310.435 51.3903 308.723 51.3903C307.909 51.3903 307.278 51.1657 306.829 50.7167C306.38 50.2395 306.155 49.566 306.155 48.6959V45.4963L306.745 46.7593C306.155 48.2749 305.257 49.4397 304.05 50.2536C302.871 51.0675 301.468 51.4745 299.84 51.4745Z" fill="#D9D9D9"/>
<path d="M270.416 51.264C269.799 51.264 269.28 51.0956 268.859 50.7588C268.466 50.3939 268.255 49.9308 268.227 49.3695C268.227 48.8082 268.466 48.2188 268.943 47.6013L275.763 39.1813V41.6652L269.364 33.7926C268.859 33.1751 268.62 32.5857 268.648 32.0244C268.676 31.463 268.887 31.014 269.28 30.6772C269.701 30.3123 270.22 30.1299 270.837 30.1299C271.483 30.1299 272.016 30.2421 272.437 30.4667C272.886 30.6912 273.293 31.042 273.658 31.5192L278.71 38.0025H276.858L281.952 31.5192C282.345 31.042 282.751 30.6912 283.172 30.4667C283.593 30.2421 284.113 30.1299 284.73 30.1299C285.376 30.1299 285.895 30.3123 286.288 30.6772C286.681 31.042 286.877 31.5051 286.877 32.0665C286.905 32.6278 286.667 33.2172 286.162 33.8347L279.804 41.6231V39.2655L286.625 47.6013C287.13 48.1907 287.368 48.7661 287.34 49.3274C287.312 49.8887 287.088 50.3518 286.667 50.7167C286.274 51.0815 285.755 51.264 285.109 51.264C284.492 51.264 283.972 51.1517 283.551 50.9272C283.13 50.7026 282.723 50.3518 282.33 49.8747L276.858 42.9703H278.626L273.195 49.8747C272.83 50.3237 272.437 50.6746 272.016 50.9272C271.595 51.1517 271.062 51.264 270.416 51.264Z" fill="#D9D9D9"/>
<path d="M256.016 51.4747C253.686 51.4747 251.679 51.0397 249.995 50.1696C248.311 49.2995 247.006 48.0646 246.08 46.4648C245.182 44.865 244.733 42.9705 244.733 40.7813C244.733 38.6483 245.168 36.7819 246.038 35.1821C246.936 33.5823 248.157 32.3333 249.701 31.4352C251.272 30.509 253.055 30.0459 255.047 30.0459C256.507 30.0459 257.812 30.2845 258.963 30.7616C260.141 31.2387 261.138 31.9264 261.952 32.8245C262.794 33.7226 263.425 34.8172 263.846 36.1083C264.295 37.3713 264.52 38.8027 264.52 40.4024C264.52 40.9076 264.337 41.3006 263.973 41.5812C263.636 41.8338 263.145 41.9601 262.499 41.9601H248.985V38.929H260.815L260.141 39.5604C260.141 38.2694 259.945 37.1888 259.552 36.3188C259.187 35.4487 258.64 34.7891 257.91 34.3401C257.208 33.8629 256.324 33.6244 255.258 33.6244C254.079 33.6244 253.069 33.905 252.227 34.4664C251.413 34.9996 250.781 35.7715 250.332 36.7819C249.911 37.7642 249.701 38.943 249.701 40.3182V40.6129C249.701 42.9144 250.234 44.6405 251.3 45.7912C252.395 46.9139 253.995 47.4752 256.1 47.4752C256.83 47.4752 257.644 47.391 258.542 47.2226C259.468 47.0261 260.338 46.7034 261.152 46.2543C261.741 45.9175 262.26 45.7772 262.71 45.8333C263.159 45.8614 263.509 46.0157 263.762 46.2964C264.043 46.5771 264.211 46.9279 264.267 47.3489C264.323 47.7418 264.239 48.1488 264.015 48.5698C263.818 48.9908 263.467 49.3557 262.962 49.6644C261.98 50.2819 260.843 50.745 259.552 51.0537C258.289 51.3344 257.11 51.4747 256.016 51.4747Z" fill="#D9D9D9"/>
<path d="M223.433 51.3905C222.591 51.3905 221.945 51.166 221.496 50.7169C221.047 50.2398 220.823 49.5662 220.823 48.6961V32.7824C220.823 31.9123 221.047 31.2528 221.496 30.8037C221.945 30.3546 222.577 30.1301 223.391 30.1301C224.205 30.1301 224.836 30.3546 225.285 30.8037C225.734 31.2528 225.959 31.9123 225.959 32.7824V35.6452L225.496 34.5927C226.113 33.1051 227.068 31.9825 228.359 31.2247C229.678 30.4388 231.165 30.0459 232.821 30.0459C234.477 30.0459 235.838 30.3546 236.905 30.9721C237.971 31.5896 238.771 32.5298 239.305 33.7928C239.838 35.0277 240.104 36.5994 240.104 38.508V48.6961C240.104 49.5662 239.88 50.2398 239.431 50.7169C238.982 51.166 238.336 51.3905 237.494 51.3905C236.652 51.3905 235.993 51.166 235.516 50.7169C235.067 50.2398 234.842 49.5662 234.842 48.6961V38.7606C234.842 37.1608 234.533 35.996 233.916 35.2663C233.326 34.5365 232.4 34.1717 231.137 34.1717C229.594 34.1717 228.359 34.6628 227.432 35.6452C226.534 36.5994 226.085 37.8765 226.085 39.4763V48.6961C226.085 50.4924 225.201 51.3905 223.433 51.3905Z" fill="#D9D9D9"/>
<path d="M325.794 61.171C325.713 61.171 325.65 61.1485 325.605 61.1035C325.56 61.054 325.538 60.9866 325.538 60.9011V56.5902C325.538 56.5002 325.56 56.4328 325.605 56.3878C325.65 56.3428 325.713 56.3203 325.794 56.3203C325.866 56.3203 325.922 56.3361 325.963 56.3675C326.008 56.3945 326.048 56.4417 326.084 56.5092L327.933 59.9904H327.73L329.572 56.5092C329.608 56.4417 329.646 56.3945 329.687 56.3675C329.727 56.3361 329.786 56.3203 329.862 56.3203C329.939 56.3203 329.999 56.3428 330.044 56.3878C330.089 56.4328 330.112 56.5002 330.112 56.5902V60.9011C330.112 60.9866 330.089 61.054 330.044 61.1035C330.004 61.1485 329.941 61.171 329.855 61.171C329.774 61.171 329.711 61.1485 329.666 61.1035C329.621 61.054 329.599 60.9866 329.599 60.9011V57.1096H329.761L328.074 60.2737C328.043 60.3322 328.009 60.3749 327.973 60.4019C327.942 60.4244 327.894 60.4356 327.831 60.4356C327.768 60.4356 327.719 60.4221 327.683 60.3951C327.647 60.3681 327.615 60.3277 327.589 60.2737L325.882 57.1029H326.044V60.9011C326.044 60.9866 326.021 61.054 325.976 61.1035C325.936 61.1485 325.875 61.171 325.794 61.171Z" fill="#D9D9D9"/>
<path d="M321.142 61.1845C320.827 61.1845 320.551 61.144 320.312 61.063C320.078 60.9776 319.881 60.8539 319.719 60.692C319.557 60.5256 319.435 60.3209 319.354 60.0781C319.273 59.8352 319.233 59.5563 319.233 59.2415V56.6037C319.233 56.5092 319.255 56.4395 319.3 56.3945C319.35 56.345 319.42 56.3203 319.51 56.3203C319.599 56.3203 319.667 56.345 319.712 56.3945C319.761 56.4395 319.786 56.5092 319.786 56.6037V59.2145C319.786 59.7093 319.901 60.0803 320.13 60.3277C320.36 60.5705 320.697 60.692 321.142 60.692C321.587 60.692 321.922 60.5705 322.147 60.3277C322.372 60.0803 322.485 59.7093 322.485 59.2145V56.6037C322.485 56.5092 322.509 56.4395 322.559 56.3945C322.608 56.345 322.678 56.3203 322.768 56.3203C322.853 56.3203 322.919 56.345 322.964 56.3945C323.013 56.4395 323.038 56.5092 323.038 56.6037V59.2415C323.038 59.6598 322.966 60.0151 322.822 60.3074C322.683 60.5998 322.471 60.8202 322.188 60.9686C321.904 61.1125 321.556 61.1845 321.142 61.1845Z" fill="#D9D9D9"/>
<path d="M314.715 61.1239C314.626 61.1239 314.556 61.0992 314.506 61.0497C314.457 60.9957 314.432 60.9238 314.432 60.8338V56.6241C314.432 56.5296 314.455 56.4577 314.5 56.4082C314.549 56.3587 314.619 56.334 314.709 56.334C314.799 56.334 314.866 56.3587 314.911 56.4082C314.961 56.4577 314.985 56.5296 314.985 56.6241V60.6382H317.198C317.279 60.6382 317.342 60.6607 317.387 60.7056C317.432 60.7461 317.455 60.8046 317.455 60.8811C317.455 60.9575 317.432 61.0182 317.387 61.0632C317.342 61.1037 317.279 61.1239 317.198 61.1239H314.715Z" fill="#D9D9D9"/>
<path d="M309.092 61.1706C309.002 61.1706 308.932 61.1459 308.882 61.0964C308.837 61.0424 308.815 60.9705 308.815 60.8805V56.6505C308.815 56.5561 308.84 56.4864 308.889 56.4414C308.939 56.3919 309.008 56.3672 309.098 56.3672H310.697C311.205 56.3672 311.597 56.4931 311.871 56.745C312.145 56.9924 312.283 57.3432 312.283 57.7974C312.283 58.2472 312.145 58.598 311.871 58.8499C311.597 59.1017 311.205 59.2277 310.697 59.2277H309.368V60.8805C309.368 60.9705 309.346 61.0424 309.301 61.0964C309.256 61.1459 309.186 61.1706 309.092 61.1706ZM309.368 58.7622H310.63C310.994 58.7622 311.268 58.6812 311.453 58.5193C311.642 58.3529 311.736 58.1123 311.736 57.7974C311.736 57.4781 311.642 57.2375 311.453 57.0756C311.268 56.9091 310.994 56.8259 310.63 56.8259H309.368V58.7622Z" fill="#D9D9D9"/>
<path d="M304.983 61.1843C304.516 61.1843 304.115 61.0853 303.782 60.8874C303.45 60.6895 303.193 60.4084 303.013 60.0441C302.838 59.6798 302.75 59.2458 302.75 58.7421C302.75 58.3643 302.8 58.027 302.899 57.7301C303.002 57.4288 303.148 57.1747 303.337 56.9678C303.531 56.7564 303.767 56.5945 304.046 56.482C304.324 56.3651 304.637 56.3066 304.983 56.3066C305.262 56.3066 305.528 56.3471 305.779 56.4281C306.031 56.5045 306.249 56.6192 306.434 56.7721C306.492 56.8171 306.53 56.8688 306.548 56.9273C306.571 56.9813 306.573 57.0353 306.555 57.0892C306.542 57.1387 306.515 57.1814 306.474 57.2174C306.438 57.2489 306.393 57.2646 306.339 57.2646C306.285 57.2646 306.225 57.2421 306.157 57.1972C305.995 57.0667 305.818 56.97 305.624 56.9071C305.431 56.8441 305.222 56.8126 304.997 56.8126C304.641 56.8126 304.34 56.8891 304.093 57.042C303.845 57.1904 303.659 57.4086 303.533 57.6964C303.407 57.9842 303.344 58.3328 303.344 58.7421C303.344 59.1514 303.407 59.5022 303.533 59.7945C303.659 60.0824 303.845 60.3028 304.093 60.4557C304.34 60.6041 304.641 60.6783 304.997 60.6783C305.217 60.6783 305.426 60.6468 305.624 60.5839C305.822 60.5164 306.004 60.4174 306.171 60.287C306.238 60.242 306.299 60.2218 306.353 60.2263C306.407 60.2263 306.452 60.242 306.488 60.2735C306.524 60.305 306.548 60.3455 306.562 60.395C306.58 60.4444 306.58 60.4962 306.562 60.5501C306.548 60.6041 306.515 60.6513 306.461 60.6918C306.272 60.8537 306.049 60.9774 305.793 61.0628C305.541 61.1438 305.271 61.1843 304.983 61.1843Z" fill="#D9D9D9"/>
<path d="M300.121 61.171C300.031 61.171 299.961 61.1462 299.912 61.0968C299.867 61.0428 299.844 60.9708 299.844 60.8809V56.6104C299.844 56.516 299.867 56.444 299.912 56.3945C299.961 56.345 300.031 56.3203 300.121 56.3203C300.211 56.3203 300.278 56.345 300.323 56.3945C300.373 56.444 300.397 56.516 300.397 56.6104V60.8809C300.397 60.9708 300.375 61.0428 300.33 61.0968C300.285 61.1462 300.215 61.171 300.121 61.171Z" fill="#D9D9D9"/>
<path d="M295.772 61.1843C295.264 61.1843 294.834 61.0876 294.484 60.8942C294.137 60.7008 293.874 60.4219 293.694 60.0576C293.514 59.6933 293.424 59.2571 293.424 58.7488C293.424 58.371 293.474 58.0315 293.573 57.7301C293.676 57.4288 293.825 57.1747 294.018 56.9678C294.216 56.7564 294.454 56.5945 294.733 56.482C295.016 56.3651 295.336 56.3066 295.691 56.3066C295.974 56.3066 296.249 56.3471 296.514 56.4281C296.78 56.5045 297.016 56.6282 297.223 56.7991C297.277 56.8396 297.31 56.8846 297.324 56.9341C297.337 56.9835 297.335 57.033 297.317 57.0825C297.303 57.1319 297.279 57.1747 297.243 57.2107C297.211 57.2421 297.169 57.2601 297.115 57.2646C297.065 57.2691 297.013 57.2534 296.959 57.2174C296.775 57.0735 296.579 56.97 296.372 56.9071C296.166 56.8396 295.936 56.8059 295.684 56.8059C295.325 56.8059 295.019 56.8823 294.767 57.0353C294.519 57.1882 294.331 57.4086 294.2 57.6964C294.074 57.9842 294.011 58.3351 294.011 58.7488C294.011 59.3785 294.157 59.8597 294.45 60.1926C294.747 60.5254 295.192 60.6918 295.786 60.6918C296.001 60.6918 296.213 60.6716 296.42 60.6311C296.627 60.5861 296.822 60.5254 297.007 60.4489L296.885 60.766V59.0862H295.92C295.84 59.0862 295.779 59.0659 295.738 59.0254C295.698 58.985 295.678 58.931 295.678 58.8635C295.678 58.7916 295.698 58.7376 295.738 58.7016C295.779 58.6656 295.84 58.6476 295.92 58.6476H297.128C297.205 58.6476 297.263 58.6679 297.303 58.7084C297.344 58.7488 297.364 58.8073 297.364 58.8838V60.6446C297.364 60.712 297.353 60.7683 297.33 60.8132C297.308 60.8582 297.27 60.8919 297.216 60.9144C297.027 60.9909 296.8 61.0561 296.534 61.1101C296.274 61.1595 296.019 61.1843 295.772 61.1843Z" fill="#D9D9D9"/>
<path d="M289.075 61.1843C288.634 61.1843 288.25 61.0853 287.921 60.8874C287.597 60.6851 287.346 60.4017 287.166 60.0374C286.99 59.6731 286.903 59.2413 286.903 58.7421C286.903 58.3643 286.952 58.027 287.051 57.7301C287.154 57.4288 287.301 57.1747 287.49 56.9678C287.678 56.7564 287.906 56.5945 288.171 56.482C288.441 56.3651 288.742 56.3066 289.075 56.3066C289.525 56.3066 289.911 56.4056 290.235 56.6035C290.564 56.8014 290.815 57.0825 290.991 57.4468C291.171 57.8066 291.261 58.2361 291.261 58.7353C291.261 59.1131 291.209 59.4527 291.106 59.754C291.002 60.0554 290.856 60.3118 290.667 60.5231C290.478 60.7345 290.249 60.8987 289.979 61.0156C289.714 61.1281 289.412 61.1843 289.075 61.1843ZM289.075 60.6918C289.417 60.6918 289.705 60.6153 289.938 60.4624C290.177 60.3095 290.359 60.0869 290.485 59.7945C290.611 59.5022 290.674 59.1514 290.674 58.7421C290.674 58.1259 290.534 57.6492 290.256 57.3119C289.981 56.97 289.588 56.7991 289.075 56.7991C288.742 56.7991 288.457 56.8756 288.218 57.0285C287.984 57.1814 287.804 57.4041 287.678 57.6964C287.552 57.9842 287.49 58.3328 287.49 58.7421C287.49 59.3538 287.629 59.8328 287.908 60.1791C288.187 60.5209 288.576 60.6918 289.075 60.6918Z" fill="#D9D9D9"/>
<path d="M282.592 61.1239C282.502 61.1239 282.433 61.0992 282.383 61.0497C282.334 60.9957 282.309 60.9238 282.309 60.8338V56.6241C282.309 56.5296 282.332 56.4577 282.377 56.4082C282.426 56.3587 282.496 56.334 282.586 56.334C282.676 56.334 282.743 56.3587 282.788 56.4082C282.838 56.4577 282.862 56.5296 282.862 56.6241V60.6382H285.075C285.156 60.6382 285.219 60.6607 285.264 60.7056C285.309 60.7461 285.331 60.8046 285.331 60.8811C285.331 60.9575 285.309 61.0182 285.264 61.0632C285.219 61.1037 285.156 61.1239 285.075 61.1239H282.592Z" fill="#D9D9D9"/>
<path d="M275.277 61.171C275.187 61.171 275.117 61.1462 275.068 61.0968C275.023 61.0428 275 60.9686 275 60.8741V58.6613L275.122 59.0459L273.428 56.7116C273.388 56.6531 273.368 56.5947 273.368 56.5362C273.372 56.4732 273.397 56.4215 273.442 56.381C273.487 56.3406 273.545 56.3203 273.617 56.3203C273.68 56.3203 273.736 56.3361 273.786 56.3675C273.835 56.3945 273.88 56.4395 273.921 56.5025L275.358 58.4859H275.216L276.653 56.5025C276.703 56.435 276.75 56.3878 276.795 56.3608C276.84 56.3338 276.894 56.3203 276.957 56.3203C277.029 56.3203 277.085 56.3406 277.125 56.381C277.166 56.417 277.186 56.4665 277.186 56.5295C277.191 56.5879 277.17 56.6509 277.125 56.7183L275.439 59.0459L275.554 58.6613V60.8741C275.554 61.072 275.461 61.171 275.277 61.171Z" fill="#D9D9D9"/>
<path d="M268.341 61.1234C268.242 61.1234 268.166 61.0987 268.112 61.0492C268.062 60.9952 268.038 60.9188 268.038 60.8198V56.6708C268.038 56.5718 268.062 56.4976 268.112 56.4481C268.166 56.3942 268.242 56.3672 268.341 56.3672H269.94C270.268 56.3672 270.545 56.4167 270.77 56.5156C270.999 56.6101 271.175 56.7495 271.296 56.9339C271.418 57.1183 271.478 57.3432 271.478 57.6085C271.478 57.9054 271.391 58.1527 271.215 58.3506C271.044 58.5485 270.81 58.679 270.514 58.7419V58.6475C270.851 58.6879 271.114 58.8094 271.303 59.0118C271.496 59.2142 271.593 59.4818 271.593 59.8146C271.593 60.2374 271.456 60.5612 271.181 60.7861C270.907 61.011 270.52 61.1234 270.021 61.1234H268.341ZM268.577 60.6781H269.967C270.327 60.6781 270.597 60.6062 270.777 60.4622C270.957 60.3183 271.046 60.1002 271.046 59.8078C271.046 59.511 270.957 59.2929 270.777 59.1534C270.597 59.0095 270.327 58.9376 269.967 58.9376H268.577V60.6781ZM268.577 58.4923H269.859C270.21 58.4923 270.475 58.4203 270.655 58.2764C270.84 58.1325 270.932 57.9256 270.932 57.6557C270.932 57.3769 270.84 57.1678 270.655 57.0283C270.475 56.8844 270.21 56.8124 269.859 56.8124H268.577V58.4923Z" fill="#D9D9D9"/>
<path d="M258.896 61.1234C258.797 61.1234 258.72 61.0987 258.666 61.0492C258.617 60.9952 258.592 60.9188 258.592 60.8198V56.6708C258.592 56.5718 258.617 56.4976 258.666 56.4481C258.72 56.3942 258.797 56.3672 258.896 56.3672H260.198C260.967 56.3672 261.561 56.5696 261.979 56.9744C262.397 57.3791 262.606 57.9683 262.606 58.7419C262.606 59.1287 262.552 59.4705 262.444 59.7674C262.341 60.0597 262.186 60.3071 261.979 60.5095C261.772 60.7119 261.52 60.8648 261.223 60.9682C260.927 61.0717 260.585 61.1234 260.198 61.1234H258.896ZM259.145 60.6511H260.157C260.472 60.6511 260.744 60.6107 260.974 60.5297C261.208 60.4488 261.401 60.3296 261.554 60.1722C261.711 60.0147 261.828 59.8168 261.905 59.5785C261.981 59.3356 262.019 59.0568 262.019 58.7419C262.019 58.1078 261.864 57.6333 261.554 57.3184C261.244 56.9991 260.778 56.8394 260.157 56.8394H259.145V60.6511Z" fill="#D9D9D9"/>
<path d="M253.613 61.1234C253.514 61.1234 253.437 61.0987 253.383 61.0492C253.334 60.9952 253.309 60.9188 253.309 60.8198V56.6708C253.309 56.5718 253.334 56.4976 253.383 56.4481C253.437 56.3942 253.514 56.3672 253.613 56.3672H256.122C256.199 56.3672 256.257 56.3874 256.298 56.4279C256.338 56.4684 256.358 56.5246 256.358 56.5966C256.358 56.673 256.338 56.7315 256.298 56.772C256.257 56.8124 256.199 56.8327 256.122 56.8327H253.849V58.4788H255.981C256.057 58.4788 256.116 58.499 256.156 58.5395C256.197 58.5755 256.217 58.6317 256.217 58.7082C256.217 58.7846 256.197 58.8431 256.156 58.8836C256.116 58.9241 256.057 58.9443 255.981 58.9443H253.849V60.6579H256.122C256.199 60.6579 256.257 60.6781 256.298 60.7186C256.338 60.7591 256.358 60.8153 256.358 60.8873C256.358 60.9637 256.338 61.0222 256.298 61.0627C256.257 61.1032 256.199 61.1234 256.122 61.1234H253.613Z" fill="#D9D9D9"/>
<path d="M247.724 61.1706C247.634 61.1706 247.565 61.1459 247.515 61.0964C247.47 61.0424 247.448 60.9705 247.448 60.8805V56.6505C247.448 56.5561 247.472 56.4864 247.522 56.4414C247.571 56.3919 247.641 56.3672 247.731 56.3672H249.33C249.838 56.3672 250.23 56.4864 250.504 56.7247C250.778 56.9631 250.915 57.3027 250.915 57.7435C250.915 58.0223 250.852 58.2652 250.727 58.4721C250.605 58.6745 250.425 58.8296 250.187 58.9376C249.948 59.041 249.663 59.0927 249.33 59.0927L249.397 59.005H249.532C249.708 59.005 249.861 59.05 249.991 59.14C250.122 59.2299 250.241 59.3738 250.349 59.5717L250.996 60.7793C251.032 60.8423 251.048 60.9053 251.044 60.9682C251.044 61.0267 251.023 61.0762 250.983 61.1166C250.942 61.1526 250.884 61.1706 250.807 61.1706C250.731 61.1706 250.668 61.1526 250.619 61.1166C250.569 61.0807 250.526 61.0289 250.49 60.9615L249.755 59.5987C249.652 59.4053 249.532 59.2771 249.397 59.2142C249.263 59.1467 249.085 59.113 248.864 59.113H248.001V60.8805C248.001 60.9705 247.978 61.0424 247.933 61.0964C247.889 61.1459 247.819 61.1706 247.724 61.1706ZM248.001 58.6745H249.249C249.618 58.6745 249.897 58.598 250.086 58.4451C250.274 58.2877 250.369 58.0538 250.369 57.7435C250.369 57.4421 250.274 57.215 250.086 57.0621C249.897 56.9047 249.618 56.8259 249.249 56.8259H248.001V58.6745Z" fill="#D9D9D9"/>
<path d="M242.468 61.1234C242.369 61.1234 242.293 61.0987 242.239 61.0492C242.189 60.9952 242.165 60.9188 242.165 60.8198V56.6708C242.165 56.5718 242.189 56.4976 242.239 56.4481C242.293 56.3942 242.369 56.3672 242.468 56.3672H244.978C245.054 56.3672 245.113 56.3874 245.153 56.4279C245.194 56.4684 245.214 56.5246 245.214 56.5966C245.214 56.673 245.194 56.7315 245.153 56.772C245.113 56.8124 245.054 56.8327 244.978 56.8327H242.704V58.4788H244.836C244.913 58.4788 244.971 58.499 245.012 58.5395C245.052 58.5755 245.072 58.6317 245.072 58.7082C245.072 58.7846 245.052 58.8431 245.012 58.8836C244.971 58.9241 244.913 58.9443 244.836 58.9443H242.704V60.6579H244.978C245.054 60.6579 245.113 60.6781 245.153 60.7186C245.194 60.7591 245.214 60.8153 245.214 60.8873C245.214 60.9637 245.194 61.0222 245.153 61.0627C245.113 61.1032 245.054 61.1234 244.978 61.1234H242.468Z" fill="#D9D9D9"/>
<path d="M234.914 61.171C234.833 61.171 234.768 61.1507 234.718 61.1103C234.669 61.0653 234.628 61.0001 234.597 60.9146L233.106 56.6576C233.074 56.5632 233.081 56.4845 233.126 56.4215C233.176 56.354 233.252 56.3203 233.355 56.3203C233.432 56.3203 233.493 56.3406 233.538 56.381C233.583 56.417 233.621 56.4755 233.652 56.5564L235.049 60.6515H234.813L236.236 56.5767C236.268 56.4912 236.306 56.4283 236.351 56.3878C236.396 56.3428 236.457 56.3203 236.533 56.3203C236.605 56.3203 236.661 56.3428 236.702 56.3878C236.747 56.4283 236.785 56.4912 236.816 56.5767L238.22 60.6515H238.01L239.42 56.5564C239.443 56.48 239.477 56.4215 239.522 56.381C239.571 56.3406 239.634 56.3203 239.711 56.3203C239.805 56.3203 239.875 56.3518 239.92 56.4148C239.965 56.4777 239.969 56.5587 239.933 56.6576L238.436 60.9146C238.404 61.0001 238.364 61.0653 238.314 61.1103C238.269 61.1507 238.204 61.171 238.118 61.171C238.037 61.171 237.972 61.1507 237.923 61.1103C237.878 61.0653 237.837 61.0001 237.801 60.9146L236.445 57.0084H236.594L235.224 60.9146C235.193 61.0001 235.155 61.0653 235.11 61.1103C235.065 61.1507 234.999 61.171 234.914 61.171Z" fill="#D9D9D9"/>
<path d="M228.972 61.1843C228.531 61.1843 228.146 61.0853 227.818 60.8874C227.494 60.6851 227.242 60.4017 227.062 60.0374C226.887 59.6731 226.799 59.2413 226.799 58.7421C226.799 58.3643 226.849 58.027 226.948 57.7301C227.051 57.4288 227.197 57.1747 227.386 56.9678C227.575 56.7564 227.802 56.5945 228.068 56.482C228.337 56.3651 228.639 56.3066 228.972 56.3066C229.421 56.3066 229.808 56.4056 230.132 56.6035C230.46 56.8014 230.712 57.0825 230.888 57.4468C231.068 57.8066 231.157 58.2361 231.157 58.7353C231.157 59.1131 231.106 59.4527 231.002 59.754C230.899 60.0554 230.753 60.3118 230.564 60.5231C230.375 60.7345 230.146 60.8987 229.876 61.0156C229.61 61.1281 229.309 61.1843 228.972 61.1843ZM228.972 60.6918C229.313 60.6918 229.601 60.6153 229.835 60.4624C230.074 60.3095 230.256 60.0869 230.382 59.7945C230.508 59.5022 230.571 59.1514 230.571 58.7421C230.571 58.1259 230.431 57.6492 230.152 57.3119C229.878 56.97 229.484 56.7991 228.972 56.7991C228.639 56.7991 228.353 56.8756 228.115 57.0285C227.881 57.1814 227.701 57.4041 227.575 57.6964C227.449 57.9842 227.386 58.3328 227.386 58.7421C227.386 59.3538 227.526 59.8328 227.805 60.1791C228.083 60.5209 228.472 60.6918 228.972 60.6918Z" fill="#D9D9D9"/>
<path d="M221.685 61.1706C221.595 61.1706 221.526 61.1459 221.476 61.0964C221.431 61.0424 221.409 60.9705 221.409 60.8805V56.6505C221.409 56.5561 221.433 56.4864 221.483 56.4414C221.532 56.3919 221.602 56.3672 221.692 56.3672H223.291C223.799 56.3672 224.19 56.4931 224.465 56.745C224.739 56.9924 224.876 57.3432 224.876 57.7974C224.876 58.2472 224.739 58.598 224.465 58.8499C224.19 59.1017 223.799 59.2277 223.291 59.2277H221.962V60.8805C221.962 60.9705 221.939 61.0424 221.894 61.0964C221.849 61.1459 221.78 61.1706 221.685 61.1706ZM221.962 58.7622H223.223C223.588 58.7622 223.862 58.6812 224.047 58.5193C224.235 58.3529 224.33 58.1123 224.33 57.7974C224.33 57.4781 224.235 57.2375 224.047 57.0756C223.862 56.9091 223.588 56.8259 223.223 56.8259H221.962V58.7622Z" fill="#D9D9D9"/>
<path opacity="0.9" d="M406.552 44.4669C409.013 42.049 409.013 38.1287 406.552 35.7108C404.091 33.2929 400.102 33.2929 397.641 35.7108C395.181 38.1287 395.181 42.049 397.641 44.4669C400.102 46.8849 404.091 46.8849 406.552 44.4669Z" fill="#D9D9D9"/>
<path opacity="0.9" d="M402.009 35.5649C402.009 31.6204 405.206 28.4229 409.151 28.4229C413.095 28.4229 416.293 31.6204 416.293 35.5649V44.3873C416.293 48.3318 413.095 51.5294 409.151 51.5294C405.206 51.5294 402.009 48.3318 402.009 44.3873V35.5649Z" fill="#E3E3E3"/>
<path opacity="0.9" d="M412.09 31.7836C412.09 27.8392 415.288 24.6416 419.232 24.6416C423.177 24.6416 426.374 27.8392 426.374 31.7836V47.7481C426.374 51.6925 423.177 54.8901 419.232 54.8901C415.288 54.8901 412.09 51.6925 412.09 47.7481V31.7836Z" fill="#D9D9D9"/>
<path opacity="0.9" d="M421.754 35.5649C421.754 31.6204 424.952 28.4229 428.896 28.4229C432.841 28.4229 436.038 31.6204 436.038 35.5649V44.3873C436.038 48.3318 432.841 51.5294 428.896 51.5294C424.952 51.5294 421.754 48.3318 421.754 44.3873V35.5649Z" fill="#E3E3E3"/>
<path opacity="0.9" d="M440.581 44.4669C443.042 42.049 443.042 38.1287 440.581 35.7108C438.121 33.2929 434.131 33.2929 431.671 35.7108C429.21 38.1287 429.21 42.049 431.671 44.4669C434.131 46.8849 438.121 46.8849 440.581 44.4669Z" fill="#D9D9D9"/>
<rect x="383.864" y="40.5254" width="70.3203" height="14.0244" rx="7.0122" fill="white" stroke="#D9D9D9" stroke-width="0.679742"/>
<path d="M390.661 44.8677H391.722L394.254 50.689H392.807L392.305 49.4557H390.044L389.559 50.689H388.145L390.661 44.8677ZM391.154 46.5615L390.447 48.3704H391.87L391.154 46.5615Z" fill="#D9D9D9"/>
<path d="M400.159 48.4444C400.159 48.7897 400.107 49.1076 400.003 49.3981C399.899 49.6886 399.743 49.9408 399.534 50.1546C399.332 50.3683 399.077 50.5355 398.77 50.6561C398.463 50.7767 398.109 50.837 397.709 50.837C397.303 50.837 396.947 50.7767 396.64 50.6561C396.333 50.5355 396.076 50.3683 395.867 50.1546C395.665 49.9408 395.511 49.6886 395.407 49.3981C395.303 49.1076 395.251 48.7897 395.251 48.4444V44.8677H396.533V48.395C396.533 48.5759 396.561 48.7431 396.616 48.8966C396.676 49.0501 396.758 49.1843 396.862 49.2995C396.966 49.4091 397.09 49.4968 397.232 49.5626C397.38 49.6229 397.539 49.653 397.709 49.653C397.879 49.653 398.035 49.6229 398.178 49.5626C398.32 49.4968 398.444 49.4091 398.548 49.2995C398.652 49.1843 398.731 49.0501 398.786 48.8966C398.846 48.7431 398.877 48.5759 398.877 48.395V44.8677H400.159V48.4444Z" fill="#D9D9D9"/>
<path d="M402.883 46.0024H401.222V44.8677H405.826V46.0024H404.165V50.689H402.883V46.0024Z" fill="#D9D9D9"/>
<path d="M406.576 47.7784C406.576 47.3124 406.653 46.8904 406.806 46.5122C406.965 46.1339 407.185 45.8133 407.464 45.5502C407.744 45.2816 408.075 45.076 408.459 44.9335C408.843 44.791 409.262 44.7197 409.717 44.7197C410.172 44.7197 410.591 44.791 410.975 44.9335C411.359 45.076 411.69 45.2816 411.97 45.5502C412.249 45.8133 412.466 46.1339 412.619 46.5122C412.778 46.8904 412.858 47.3124 412.858 47.7784C412.858 48.2443 412.778 48.6664 412.619 49.0446C412.466 49.4228 412.249 49.7462 411.97 50.0148C411.69 50.2779 411.359 50.4807 410.975 50.6232C410.591 50.7657 410.172 50.837 409.717 50.837C409.262 50.837 408.843 50.7657 408.459 50.6232C408.075 50.4807 407.744 50.2779 407.464 50.0148C407.185 49.7462 406.965 49.4228 406.806 49.0446C406.653 48.6664 406.576 48.2443 406.576 47.7784ZM407.908 47.7784C407.908 48.0524 407.949 48.3046 408.031 48.5348C408.119 48.7595 408.242 48.9569 408.401 49.1268C408.56 49.2912 408.749 49.42 408.969 49.5132C409.193 49.6064 409.443 49.653 409.717 49.653C409.991 49.653 410.238 49.6064 410.457 49.5132C410.682 49.42 410.874 49.2912 411.032 49.1268C411.191 48.9569 411.312 48.7595 411.394 48.5348C411.482 48.3046 411.526 48.0524 411.526 47.7784C411.526 47.5098 411.482 47.2604 411.394 47.0301C411.312 46.7999 411.191 46.6026 411.032 46.4382C410.874 46.2682 410.682 46.1367 410.457 46.0435C410.238 45.9503 409.991 45.9037 409.717 45.9037C409.443 45.9037 409.193 45.9503 408.969 46.0435C408.749 46.1367 408.56 46.2682 408.401 46.4382C408.242 46.6026 408.119 46.7999 408.031 47.0301C407.949 47.2604 407.908 47.5098 407.908 47.7784Z" fill="#D9D9D9"/>
<path d="M425.116 44.8677H426.398V49.505H428.775V50.689H425.116V44.8677Z" fill="#D9D9D9"/>
<path d="M429.581 47.7784C429.581 47.3124 429.658 46.8904 429.811 46.5122C429.97 46.1339 430.19 45.8133 430.469 45.5502C430.749 45.2816 431.08 45.076 431.464 44.9335C431.848 44.791 432.267 44.7197 432.722 44.7197C433.177 44.7197 433.596 44.791 433.98 44.9335C434.364 45.076 434.695 45.2816 434.975 45.5502C435.255 45.8133 435.471 46.1339 435.625 46.5122C435.783 46.8904 435.863 47.3124 435.863 47.7784C435.863 48.2443 435.783 48.6664 435.625 49.0446C435.471 49.4228 435.255 49.7462 434.975 50.0148C434.695 50.2779 434.364 50.4807 433.98 50.6232C433.596 50.7657 433.177 50.837 432.722 50.837C432.267 50.837 431.848 50.7657 431.464 50.6232C431.08 50.4807 430.749 50.2779 430.469 50.0148C430.19 49.7462 429.97 49.4228 429.811 49.0446C429.658 48.6664 429.581 48.2443 429.581 47.7784ZM430.913 47.7784C430.913 48.0524 430.954 48.3046 431.037 48.5348C431.124 48.7595 431.248 48.9569 431.407 49.1268C431.566 49.2912 431.755 49.42 431.974 49.5132C432.199 49.6064 432.448 49.653 432.722 49.653C432.996 49.653 433.243 49.6064 433.462 49.5132C433.687 49.42 433.879 49.2912 434.038 49.1268C434.197 48.9569 434.317 48.7595 434.399 48.5348C434.487 48.3046 434.531 48.0524 434.531 47.7784C434.531 47.5098 434.487 47.2604 434.399 47.0301C434.317 46.7999 434.197 46.6026 434.038 46.4382C433.879 46.2682 433.687 46.1367 433.462 46.0435C433.243 45.9503 432.996 45.9037 432.722 45.9037C432.448 45.9037 432.199 45.9503 431.974 46.0435C431.755 46.1367 431.566 46.2682 431.407 46.4382C431.248 46.6026 431.124 46.7999 431.037 47.0301C430.954 47.2604 430.913 47.5098 430.913 47.7784Z" fill="#D9D9D9"/>
<path d="M442.054 48.4444C442.054 48.7897 442.002 49.1076 441.898 49.3981C441.794 49.6886 441.638 49.9408 441.43 50.1546C441.227 50.3683 440.972 50.5355 440.665 50.6561C440.358 50.7767 440.004 50.837 439.604 50.837C439.199 50.837 438.842 50.7767 438.535 50.6561C438.228 50.5355 437.971 50.3683 437.763 50.1546C437.56 49.9408 437.406 49.6886 437.302 49.3981C437.198 49.1076 437.146 48.7897 437.146 48.4444V44.8677H438.429V48.395C438.429 48.5759 438.456 48.7431 438.511 48.8966C438.571 49.0501 438.653 49.1843 438.757 49.2995C438.862 49.4091 438.985 49.4968 439.127 49.5626C439.275 49.6229 439.434 49.653 439.604 49.653C439.774 49.653 439.93 49.6229 440.073 49.5626C440.215 49.4968 440.339 49.4091 440.443 49.2995C440.547 49.1843 440.627 49.0501 440.681 48.8966C440.742 48.7431 440.772 48.5759 440.772 48.395V44.8677H442.054V48.4444Z" fill="#D9D9D9"/>
<path d="M443.651 44.8677H445.575C446.041 44.8677 446.482 44.9198 446.899 45.0239C447.321 45.1281 447.688 45.298 448.001 45.5337C448.313 45.7639 448.56 46.0654 448.741 46.4382C448.927 46.8109 449.02 47.2631 449.02 47.7948C449.02 48.2662 448.93 48.6828 448.749 49.0446C448.574 49.4009 448.335 49.7023 448.034 49.949C447.732 50.1902 447.384 50.3738 446.99 50.4999C446.595 50.626 446.181 50.689 445.748 50.689H443.651V44.8677ZM444.934 49.505H445.6C445.896 49.505 446.17 49.4749 446.422 49.4146C446.68 49.3543 446.902 49.2556 447.088 49.1186C447.275 48.9761 447.42 48.7924 447.524 48.5677C447.634 48.3375 447.688 48.0579 447.688 47.729C447.688 47.444 447.634 47.1973 447.524 46.989C447.42 46.7753 447.277 46.5999 447.096 46.4628C446.916 46.3258 446.702 46.2244 446.455 46.1586C446.214 46.0873 445.959 46.0517 445.69 46.0517H444.934V49.505Z" fill="#D9D9D9"/>
<path d="M421.63 45.3305C421.428 45.0881 421.178 44.9019 420.879 44.772C420.589 44.6422 420.251 44.5772 419.865 44.5772C419.479 44.5772 419.119 44.6508 418.785 44.798C418.46 44.9452 418.175 45.153 417.929 45.4214C417.692 45.6812 417.503 45.9929 417.363 46.3565C417.231 46.7202 417.165 47.1141 417.165 47.5384C417.165 47.9713 417.231 48.3696 417.363 48.7332C417.503 49.0882 417.692 49.3999 417.929 49.6683C418.166 49.9281 418.443 50.1316 418.759 50.2788C419.084 50.426 419.43 50.4995 419.799 50.4995C420.221 50.4995 420.594 50.413 420.919 50.2398C421.244 50.0666 421.511 49.8242 421.722 49.5125L423.434 50.7723C423.039 51.3178 422.539 51.7204 421.933 51.9801C421.327 52.2399 420.704 52.3698 420.063 52.3698C419.334 52.3698 418.662 52.2572 418.048 52.0321C417.433 51.807 416.902 51.4866 416.454 51.071C416.006 50.6467 415.655 50.1359 415.4 49.5385C415.155 48.941 415.032 48.2744 415.032 47.5384C415.032 46.8024 415.155 46.1357 415.4 45.5383C415.655 44.9409 416.006 44.4344 416.454 44.0188C416.902 43.5945 417.433 43.2698 418.048 43.0447C418.662 42.8196 419.334 42.707 420.063 42.707C420.326 42.707 420.598 42.733 420.879 42.785C421.169 42.8282 421.45 42.9018 421.722 43.0057C422.003 43.1096 422.271 43.2482 422.525 43.4213C422.78 43.5945 423.008 43.8066 423.21 44.0577L421.63 45.3305Z" fill="#D9D9D9"/>
<path d="M419.85 49.9257C419.578 49.9257 419.356 49.7089 419.356 49.4448V47.687C419.356 47.4219 419.579 47.2061 419.85 47.2061C420.123 47.2061 420.345 47.4229 420.345 47.687V49.4448C420.345 49.7098 420.122 49.9257 419.85 49.9257Z" fill="#D9D9D9"/>
<path d="M421.09 46.9482C421.225 46.2677 420.785 45.6067 420.107 45.4718C419.429 45.3368 418.771 45.779 418.636 46.4594C418.502 47.1398 418.942 47.8008 419.62 47.9358C420.298 48.0708 420.956 47.6286 421.09 46.9482Z" fill="#D9D9D9"/>
<path d="M420.345 46.7113C420.345 46.9844 420.124 47.2058 419.85 47.2058C419.577 47.2058 419.356 46.9844 419.356 46.7113C419.356 46.4381 419.577 46.2168 419.85 46.2168C420.124 46.2168 420.345 46.4381 420.345 46.7113Z" fill="#E3E3E3"/>
<path d="M407.213 59.8227C408.235 59.8227 409.102 60.5035 409.39 61.4379H411.976C412.225 61.4379 412.428 61.2339 412.428 60.9831V57.2658C412.428 56.8921 412.729 56.5892 413.1 56.5892C413.472 56.5892 413.773 56.8921 413.773 57.2658V60.9831C413.773 61.98 412.967 62.7911 411.976 62.7911H409.39C409.102 63.7255 408.235 64.4062 407.213 64.4062C405.958 64.4062 404.936 63.3782 404.936 62.1145C404.936 60.8508 405.958 59.8227 407.213 59.8227ZM407.213 63.0531C407.728 63.0531 408.146 62.6321 408.146 62.1145C408.146 61.5969 407.728 61.1759 407.213 61.1759C406.699 61.1759 406.281 61.5969 406.281 62.1145C406.281 62.6321 406.699 63.0531 407.213 63.0531Z" fill="#D9D9D9"/>
<path d="M419.835 56.5894C420.269 56.5894 420.621 56.9416 420.621 57.376V61.148C421.708 61.4843 422.499 62.4983 422.499 63.6939C422.499 65.1632 421.304 66.3584 419.835 66.3584C418.366 66.3584 417.17 65.1632 417.17 63.6939C417.17 62.4984 417.962 61.4843 419.048 61.148V57.376C419.048 56.9416 419.4 56.5894 419.835 56.5894ZM418.744 63.6939C418.744 64.2956 419.233 64.7852 419.835 64.7852C420.437 64.7852 420.926 64.2957 420.926 63.6939C420.926 63.0921 420.437 62.6026 419.835 62.6026C419.233 62.6026 418.744 63.0922 418.744 63.6939Z" fill="#D9D9D9"/>
<path d="M432.228 64.4062C431.206 64.4062 430.339 63.7255 430.052 62.7911H427.465C426.474 62.7911 425.668 61.98 425.668 60.9831V57.2658C425.668 56.8921 425.969 56.5892 426.341 56.5892C426.712 56.5892 427.013 56.8921 427.013 57.2658V60.9831C427.013 61.2339 427.216 61.4379 427.465 61.4379H430.052C430.339 60.5035 431.206 59.8227 432.228 59.8227C433.483 59.8227 434.505 60.8508 434.505 62.1145C434.505 63.3782 433.483 64.4062 432.228 64.4062ZM432.228 61.1759C431.713 61.1759 431.295 61.5969 431.295 62.1145C431.295 62.6321 431.713 63.0531 432.228 63.0531C432.742 63.0531 433.16 62.6321 433.16 62.1145C433.16 61.5969 432.742 61.1759 432.228 61.1759Z" fill="#D9D9D9"/>
<path d="M547.93 24C549.976 27.5833 552.022 31.1666 554.068 34.7224C549.976 34.75 545.857 34.75 541.765 34.7775C541.157 34.7775 540.576 34.75 539.968 34.75C536.457 34.7224 532.918 34.7224 529.406 34.7224C530.761 32.407 532.116 30.1192 533.443 27.8038C534.162 26.5635 534.825 25.2679 535.489 24C539.636 24 543.783 24 547.93 24Z" fill="#D9D9D9"/>
<path d="M535.489 24C534.798 25.2679 534.162 26.5359 533.443 27.8038C532.116 30.1192 530.761 32.407 529.407 34.7224C529.351 34.7775 529.268 34.8051 529.185 34.8051C525.121 34.7775 521.057 34.75 516.993 34.75C517.795 33.2615 518.596 31.7731 519.426 30.3122C520.615 28.1897 521.831 26.0949 523.048 24C527.195 24 531.342 24 535.489 24Z" fill="#ADADAD"/>
<path d="M504.524 55.6984C504.8 55.3401 505.105 55.0093 505.326 54.651C507.012 51.7568 508.699 48.8626 510.385 45.9408C510.413 45.8581 510.523 45.8305 510.579 45.7754C510.8 45.9132 511.076 45.9959 511.187 46.1889C511.795 47.1536 512.376 48.1183 512.956 49.0831C514.118 51.0952 515.251 53.1074 516.412 55.092C516.578 55.3401 516.938 55.4779 517.214 55.6709C516.993 56.1395 516.772 56.6356 516.523 57.1042C514.975 59.833 513.426 62.5619 511.878 65.2631C511.629 65.7317 511.325 66.1452 510.938 66.724C509.86 64.9048 508.837 63.1683 507.842 61.4593C506.902 59.8606 505.962 58.2343 505.022 56.6356C504.911 56.4427 504.69 56.3324 504.524 56.1946C504.524 56.0568 504.524 55.8914 504.524 55.6984Z" fill="#EFEFEF"/>
<path d="M700.571 37.5337C700.377 37.7818 700.184 38.0298 699.935 38.3606C699.714 38.1125 699.52 37.892 699.271 37.6164C699.188 38.0574 699.106 38.4433 698.967 39.0497C698.248 38.2228 698.774 37.3959 698.414 36.6241C698.193 36.6516 697.889 36.6516 697.557 36.7068C697.53 37.451 697.474 38.1401 697.447 38.8568C696.7 38.3055 697.032 37.5888 696.866 36.8997C696.673 36.7619 696.396 36.5965 696.12 36.4311C696.147 36.376 696.175 36.2933 696.175 36.2382C697.143 36.2382 698.083 36.2382 699.161 36.2382C699.354 36.5138 699.603 36.8721 699.852 37.2305C700.46 37.0927 700.267 36.0177 701.124 36.2106C701.207 36.9273 701.29 37.6715 701.373 38.3882C701.373 38.5811 701.373 38.7465 701.373 38.9394C701.179 38.8843 700.958 38.8568 700.681 38.8016C700.709 38.4157 700.709 38.0298 700.737 37.6715C700.737 37.5888 700.737 37.5061 700.709 37.4234C700.681 37.3959 700.626 37.4786 700.571 37.5337Z" fill="#D9D9D9"/>
<path d="M535.489 66.9997C535.489 66.917 535.489 66.8343 535.489 66.7516C535.572 66.7241 535.682 66.6965 535.765 66.6689C539.829 66.6965 543.866 66.6965 547.93 66.7241C547.93 66.8068 547.93 66.8895 547.93 66.9997C543.783 66.9997 539.636 66.9997 535.489 66.9997Z" fill="#EFEFEF"/>
<path d="M701.372 38.3333C701.289 37.6166 701.206 36.8724 701.124 36.1557C701.206 36.0455 701.289 35.9628 701.372 35.8525C701.372 36.6795 701.372 37.5064 701.372 38.3333Z" fill="#909090"/>
<path d="M571.928 53.5762C571.928 57.1595 571.928 60.4397 571.928 63.83C570.407 63.83 568.942 63.83 567.394 63.83C567.366 63.582 567.283 63.2788 567.283 62.9755C567.283 57.1871 567.2 51.3987 567.311 45.6378C567.394 41.0897 569.716 36.7346 574.942 35.4391C579.531 34.309 583.678 35.1083 586.802 38.9122C591.143 44.2045 589.512 54.1551 581.218 56.0845C578.176 56.8012 575.273 56.3602 572.785 54.2929C572.592 54.1275 572.37 53.9621 571.928 53.5762ZM584.259 45.7205C584.231 45.307 584.203 44.8936 584.148 44.4801C583.789 41.641 581.715 39.6288 578.591 39.2705C576.352 39.0224 573.532 40.1525 572.398 42.9089C571.873 44.1769 571.817 45.5 571.956 46.823C572.453 51.0128 576.905 53.4384 580.72 51.6192C583.208 50.4339 584.176 48.3115 584.259 45.7205Z" fill="#D9D9D9"/>
<path d="M646.078 55.8092C644.862 55.947 643.784 56.14 642.678 56.1675C639.885 56.2227 637.065 56.3329 634.273 56.1951C632.918 56.14 631.564 55.7265 630.292 55.2028C627.555 54.1002 626.698 52.0881 626.863 49.249C627.112 45.1695 629.573 43.7362 633.526 43.3227C635.794 43.0746 638.116 43.2676 640.411 43.2676C640.715 43.2676 641.047 43.2676 641.351 43.2676C641.461 41.09 640.494 39.6291 638.475 39.1605C635.932 38.5817 633.361 38.5541 630.9 39.6567C630.568 39.7945 630.236 39.9599 629.905 40.0977C628.135 38.7471 628.273 36.7625 630.264 35.8529C631.176 35.4394 632.199 35.1913 633.167 35.1086C635.517 34.8881 637.839 34.9432 640.162 35.5772C643.977 36.5971 646.078 39.2432 646.106 43.1298C646.134 47.0714 646.106 51.0131 646.106 54.9823C646.134 55.2028 646.106 55.4233 646.078 55.8092ZM641.517 46.8233C640.632 46.7131 639.83 46.5477 639.001 46.4926C637.176 46.3823 635.324 46.2721 633.554 46.8785C632.199 47.3471 631.508 48.4221 631.536 49.8278C631.564 51.1785 632.227 52.1708 633.609 52.5567C636.208 53.2458 638.835 53.0804 641.489 52.6118C641.517 50.6823 641.517 48.8631 641.517 46.8233Z" fill="#D9D9D9"/>
<path d="M614.339 45.7203C614.533 51.2331 610.054 56.36 603.28 56.4152C596.949 56.4703 592.083 51.7293 592.138 45.6376C592.166 39.5184 596.921 35.0255 603.28 35.0255C609.805 34.9979 614.56 40.0422 614.339 45.7203ZM603.225 39.1325C599.631 39.1325 596.977 41.9441 596.977 45.7479C596.977 49.4139 599.686 52.2806 603.17 52.2806C606.847 52.2806 609.501 49.5793 609.473 45.7203C609.473 41.1447 606.294 39.105 603.225 39.1325Z" fill="#D9D9D9"/>
<path d="M693.106 40.5662C690.507 38.9123 687.604 38.4162 684.563 38.6367C683.872 38.6918 683.181 38.8296 682.545 39.0777C681.522 39.436 681.052 40.1251 681.079 41.0348C681.107 41.9995 681.688 42.6059 682.545 42.7989C684.01 43.1296 685.503 43.3501 686.996 43.5982C688.406 43.8463 689.788 44.0944 691.198 44.37C691.558 44.4527 691.889 44.5905 692.249 44.7283C696.037 46.4097 696.866 51.1507 693.908 54.045C692.747 55.1751 691.336 55.7815 689.761 56.0571C685.226 56.8841 680.886 56.2501 676.739 54.293C676.545 54.2104 676.352 54.045 676.075 53.852C676.628 52.8322 677.181 51.8398 677.679 50.9302C679.586 51.454 681.383 52.0879 683.263 52.4738C685.116 52.8597 687.024 52.8873 688.876 52.3636C689.484 52.1706 690.175 51.7847 690.535 51.2886C691.309 50.1584 690.618 48.7251 689.097 48.3392C687.825 48.0085 686.471 47.8706 685.143 47.7052C683.374 47.4572 681.577 47.3469 679.891 46.6027C678.011 45.7758 676.711 44.4251 676.462 42.3027C676.213 39.9322 676.905 37.9751 678.978 36.5969C680.305 35.7149 681.826 35.3014 683.374 35.1361C685.945 34.888 688.516 34.9431 691.06 35.6046C691.724 35.77 692.387 36.0181 692.968 36.3489C695.014 37.479 695.069 39.1053 693.106 40.5662Z" fill="#D9D9D9"/>
<path d="M622.965 55.8091C621.389 55.8091 619.979 55.8091 618.458 55.8091C618.431 55.3957 618.375 54.9822 618.375 54.5963C618.375 45.9963 618.375 37.4239 618.375 28.824C618.375 26.7015 619.094 26.0124 621.223 26.1778C621.804 26.2054 622.384 26.3983 622.965 26.5086C622.965 36.3214 622.965 45.9963 622.965 55.8091Z" fill="#D9D9D9"/>
<path d="M560.123 45.5C559.791 46.134 559.487 46.7955 559.128 47.4295C557.33 50.4891 555.533 53.5211 553.736 56.5807C553.322 56.4705 552.907 56.3051 552.492 56.2775C548.926 56.25 545.387 56.25 541.82 56.25C541.82 56.1397 541.82 56.0295 541.793 55.9192C541.959 55.5884 542.097 55.2577 542.263 54.9545C544.087 51.8122 545.885 48.6699 547.709 45.5C551.884 45.5 556.003 45.5 560.123 45.5Z" fill="#909090"/>
<path d="M560.122 45.5C556.003 45.5 551.884 45.5 547.736 45.5C547.488 44.9763 547.239 44.425 546.962 43.9288C545.248 40.8692 543.506 37.8372 541.765 34.8051C545.856 34.7776 549.976 34.7776 554.068 34.75C556.058 38.1679 558.077 41.5859 560.067 45.0038C560.15 45.1141 560.095 45.3346 560.122 45.5Z" fill="#B7B7B7"/>
<path d="M655.478 55.8085C653.902 55.8085 652.437 55.8085 650.889 55.8085C650.861 55.4778 650.806 55.1194 650.778 54.7887C650.778 50.9848 650.778 47.1534 650.778 43.3496C650.778 42.6605 650.778 41.9714 650.917 41.2823C651.552 37.699 653.764 35.6317 657.663 35.1079C659.487 34.8599 661.34 34.915 663.109 35.549C665.404 36.3483 665.846 38.14 664.187 39.9592C663.247 39.7387 662.335 39.3804 661.395 39.2977C660.372 39.215 659.266 39.215 658.271 39.4631C656.363 39.9868 655.7 41.5304 655.506 43.3496C655.423 44.1214 655.478 44.9207 655.478 45.6925C655.478 48.5868 655.478 51.481 655.478 54.3752C655.478 54.8438 655.478 55.2848 655.478 55.8085Z" fill="#D9D9D9"/>
<path d="M541.848 56.25C545.414 56.25 548.981 56.25 552.52 56.2776C552.934 56.2776 553.349 56.4705 553.764 56.5808C552.05 59.5852 550.335 62.5897 548.649 65.5942C548.428 65.9801 548.179 66.366 547.958 66.7794C543.894 66.7519 539.857 66.7519 535.793 66.7243C535.876 66.4762 535.931 66.2006 536.069 65.9525C537.092 64.1884 538.088 62.3968 539.138 60.6327C539.995 59.1442 540.935 57.7109 541.848 56.25Z" fill="#D9D9D9"/>
<path d="M672.343 35.9906C672.343 42.6335 672.343 49.1662 672.343 55.8091C670.85 55.8091 669.385 55.8091 667.809 55.8091C667.781 55.3129 667.754 54.8719 667.754 54.4309C667.754 49.1386 667.836 43.8739 667.726 38.5816C667.671 35.5771 669.412 35.3566 671.431 35.7149C671.679 35.7425 671.956 35.8527 672.343 35.9906Z" fill="#D9D9D9"/>
<path d="M672.896 29.3198C672.896 30.9736 671.68 32.214 670.076 32.1865C668.5 32.1589 667.339 30.9736 667.311 29.3749C667.311 27.7211 668.528 26.4807 670.131 26.5083C671.707 26.5358 672.896 27.7486 672.896 29.3198Z" fill="#D9D9D9"/>
<path d="M700.571 37.5335C700.626 37.4784 700.654 37.4233 700.709 37.3682C700.709 37.4509 700.709 37.5336 700.737 37.6162C700.681 37.5887 700.626 37.5611 700.571 37.5335Z" fill="#909090"/>
<path d="M541.848 56.2495C540.936 57.7104 539.996 59.1437 539.111 60.6322C538.06 62.3963 537.065 64.1604 536.042 65.952C535.904 66.1725 535.848 66.4482 535.766 66.7238C535.683 66.7514 535.572 66.7789 535.489 66.8065C533.388 63.2232 531.314 59.6123 529.213 56.029C529.351 56.029 529.517 56.0014 529.655 56.0014C533.637 56.0014 537.646 56.0014 541.627 56.0014C541.682 55.9739 541.737 55.9739 541.82 55.9463C541.82 56.029 541.82 56.1392 541.848 56.2495Z" fill="#949494"/>
<path d="M517.242 55.6987C516.965 55.5058 516.578 55.3955 516.44 55.1199C515.251 53.1353 514.145 51.1231 512.984 49.1109C512.431 48.1186 511.823 47.1539 511.214 46.2167C511.104 46.0237 510.8 45.9411 510.606 45.8032C510.717 45.6103 510.8 45.4449 510.91 45.252C514.974 45.252 519.011 45.252 523.075 45.252C523.186 45.2795 523.296 45.2795 523.407 45.3071H523.379C523.352 45.4725 523.324 45.6378 523.296 45.8032C522.909 46.2718 522.439 46.6853 522.135 47.209C520.449 49.993 518.845 52.8596 517.242 55.6987Z" fill="#D9D9D9"/>
<path d="M523.269 45.7754C523.296 45.6101 523.324 45.4447 523.352 45.2793C523.849 45.3069 524.347 45.362 524.845 45.362C528.301 45.3896 531.784 45.3896 535.24 45.4171C535.102 45.803 535.019 46.2165 534.825 46.5472C533.664 48.5594 532.475 50.5165 531.342 52.5562C530.734 53.6588 529.794 54.5959 529.683 55.9466C529.545 55.9466 529.379 55.9741 529.241 55.9741C527.222 52.5838 525.232 49.1658 523.269 45.7754Z" fill="#D9D9D9"/>
<path d="M523.047 45.2245C518.983 45.2245 514.947 45.2245 510.883 45.2245C511.961 43.2675 513.039 41.338 514.145 39.3809C514.726 38.3611 515.306 37.3136 515.914 36.2938C516.191 35.8252 516.55 35.4117 516.882 34.9707C517.131 35.2188 517.407 35.4393 517.601 35.7425C518.181 36.6797 518.734 37.6169 519.287 38.554C520.531 40.7867 521.776 43.0194 523.047 45.2245Z" fill="#C8C8C8"/>
<path d="M523.048 45.2243C521.804 43.0192 520.532 40.7865 519.26 38.5814C518.707 37.6442 518.154 36.6795 517.574 35.7699C517.38 35.4942 517.104 35.2737 516.855 34.9981C516.882 34.9154 516.938 34.8327 516.965 34.75C521.029 34.7776 525.094 34.7776 529.185 34.8051C528.245 36.5141 527.278 38.2231 526.338 39.9045C525.342 41.6961 524.375 43.4878 523.379 45.2519C523.269 45.2519 523.158 45.2519 523.048 45.2243Z" fill="#D5D9DA"/>
<path d="M535.24 45.4453C535.461 45.6383 535.765 45.7761 535.904 45.9966C537.839 49.3043 539.746 52.6395 541.654 55.9472C537.673 55.9472 533.664 55.9472 529.683 55.9472C529.793 54.5966 530.733 53.6594 531.342 52.5568C532.475 50.5447 533.664 48.56 534.825 46.5479C534.991 46.2171 535.102 45.8036 535.24 45.4453Z" fill="#D9D9D9"/>
<g clip-path="url(#clip1_43_21550)">
<path d="M771.389 25.5C760.337 25.5 751.373 34.4573 751.373 45.5007V65.5H755.554V45.5007C755.554 36.6988 762.58 29.6783 771.389 29.6783H781.841V25.5H771.389Z" fill="#B9B9B9"/>
<path d="M787.221 25.5V45.5007C787.221 50.2826 785.147 54.5386 781.841 57.4276V34.2009H777.659V60.053C776.35 60.6112 774.947 60.9979 773.478 61.1884V41.362H769.296V61.3217H765.115V48.5231H760.933V65.4985H771.387C782.439 65.4985 791.401 56.5427 791.401 45.4993V25.5H787.221Z" fill="#D9D9D9"/>
<path d="M799.622 42.4391C798.939 42.1592 798.393 41.7446 797.984 41.1967C797.575 40.6488 797.36 39.9881 797.338 39.216H800.395C800.439 39.6526 800.59 39.9851 800.848 40.2151C801.106 40.4451 801.441 40.5594 801.855 40.5594C802.268 40.5594 802.616 40.4613 802.864 40.2649C803.11 40.0701 803.233 39.7976 803.233 39.4504C803.233 39.1588 803.135 38.9186 802.94 38.7281C802.743 38.5377 802.503 38.3809 802.217 38.2578C801.931 38.1348 801.525 37.9956 800.999 37.8388C800.236 37.6044 799.616 37.3686 799.134 37.1342C798.653 36.8997 798.238 36.5525 797.89 36.094C797.543 35.6354 797.37 35.0362 797.37 34.2978C797.37 33.202 797.767 32.342 798.562 31.7208C799.357 31.0997 800.393 30.7891 801.67 30.7891C802.947 30.7891 804.016 31.0997 804.812 31.7208C805.607 32.342 806.032 33.2064 806.089 34.314H802.981C802.959 33.933 802.818 33.6342 802.562 33.4159C802.304 33.1976 801.974 33.0892 801.57 33.0892C801.223 33.0892 800.943 33.1815 800.73 33.3661C800.518 33.5507 800.411 33.8173 800.411 34.1631C800.411 34.544 800.59 34.8399 800.949 35.0523C801.307 35.2648 801.867 35.4948 802.629 35.7409C803.39 35.9987 804.009 36.2449 804.485 36.4793C804.962 36.7137 805.372 37.055 805.72 37.5033C806.067 37.9516 806.24 38.5274 806.24 39.2321C806.24 39.9368 806.069 40.514 805.728 41.0619C805.387 41.6099 804.891 42.0464 804.242 42.3717C803.592 42.6969 802.825 42.8581 801.94 42.8581C801.054 42.8581 800.305 42.7189 799.622 42.4391Z" fill="#D9D9D9"/>
<path d="M808.272 33.7191C808.776 32.8064 809.478 32.0959 810.38 31.5875C811.282 31.0791 812.304 30.8242 813.446 30.8242C814.846 30.8242 816.044 31.1934 817.041 31.9318C818.038 32.6702 818.703 33.6781 819.039 34.9527H815.881C815.646 34.4604 815.312 34.0854 814.881 33.8276C814.45 33.5697 813.96 33.4422 813.411 33.4422C812.525 33.4422 811.809 33.7499 811.26 34.3652C810.711 34.9805 810.437 35.8039 810.437 36.8323C810.437 37.8608 810.711 38.6842 811.26 39.2995C811.808 39.9148 812.525 40.2225 813.411 40.2225C813.959 40.2225 814.449 40.0935 814.881 39.8371C815.312 39.5793 815.645 39.2057 815.881 38.712H819.039C818.703 39.988 818.036 40.9916 817.041 41.7256C816.044 42.4581 814.846 42.8244 813.446 42.8244C812.304 42.8244 811.282 42.5694 810.38 42.0611C809.478 41.5527 808.776 40.8436 808.272 39.9382C807.767 39.0314 807.515 37.9971 807.515 36.8323C807.515 35.6676 807.767 34.6304 808.272 33.7191Z" fill="#D9D9D9"/>
<path d="M823.332 42.0879C822.408 41.5737 821.674 40.8544 821.131 39.9314C820.587 39.0084 820.316 37.9697 820.316 36.8182C820.316 35.6667 820.587 34.6309 821.131 33.7123C821.674 32.7952 822.408 32.0788 823.332 31.5631C824.256 31.0489 825.272 30.791 826.38 30.791C827.489 30.791 828.505 31.0489 829.43 31.5631C830.353 32.0773 831.082 32.7937 831.613 33.7123C832.145 34.6294 832.41 35.6652 832.41 36.8182C832.41 37.9712 832.142 39.0084 831.604 39.9314C831.066 40.8544 830.339 41.5737 829.421 42.0879C828.503 42.6022 827.489 42.86 826.38 42.86C825.272 42.86 824.256 42.6022 823.332 42.0879ZM828.641 39.3014C829.207 38.6744 829.49 37.8467 829.49 36.8167C829.49 35.7868 829.207 34.9444 828.641 34.3247C828.075 33.7035 827.321 33.3929 826.382 33.3929C825.442 33.3929 824.671 33.7006 824.106 34.3159C823.54 34.9312 823.257 35.7648 823.257 36.8167C823.257 37.8686 823.54 38.689 824.106 39.3088C824.672 39.9299 825.43 40.2405 826.382 40.2405C827.333 40.2405 828.075 39.927 828.641 39.3V39.3014Z" fill="#D9D9D9"/>
<path d="M836.829 30.959V38.0088C836.829 38.7134 837.002 39.257 837.35 39.6364C837.697 40.0173 838.206 40.2078 838.879 40.2078C839.552 40.2078 840.065 40.0173 840.424 39.6364C840.782 39.2555 840.963 38.7134 840.963 38.0088V30.959H843.835V37.9926C843.835 39.0445 843.61 39.9338 843.163 40.6619C842.715 41.3901 842.113 41.938 841.357 42.3072C840.6 42.6764 839.759 42.861 838.829 42.861C837.9 42.861 837.068 42.6793 836.335 42.316C835.602 41.9526 835.022 41.4047 834.597 40.6707C834.171 39.9382 833.959 39.046 833.959 37.9941V30.9604H836.831L836.829 30.959Z" fill="#D9D9D9"/>
<path d="M854.334 30.9595V33.2596H851.209V42.7443H848.337V33.2581H845.213V30.958H854.334V30.9595Z" fill="#D9D9D9"/>
<path d="M804.627 53.364C804.347 53.8899 803.898 54.3177 803.282 54.6473C802.667 54.977 801.876 55.1425 800.914 55.1425H798.797V59.8761H796.883V48.21H800.914C801.81 48.21 802.57 48.3638 803.19 48.6715C803.812 48.9791 804.276 49.3966 804.584 49.9226C804.892 50.4485 805.046 51.036 805.046 51.685C805.046 52.2784 804.905 52.838 804.625 53.364H804.627ZM802.543 53.0871C802.901 52.7574 803.081 52.2901 803.081 51.685C803.081 50.409 802.359 49.7717 800.914 49.7717H798.797V53.5823H800.914C801.642 53.5823 802.186 53.4167 802.543 53.0871Z" fill="#B9B9B9"/>
<path d="M812.943 59.8761L810.255 55.2099H808.794V59.8761H806.879V48.21H810.911C811.807 48.21 812.566 48.3667 813.186 48.6802C813.808 48.9938 814.273 49.4128 814.581 49.9387C814.888 50.4647 815.042 51.0521 815.042 51.7012C815.042 52.463 814.821 53.153 814.378 53.7742C813.936 54.3954 813.255 54.8173 812.337 55.0414L815.227 59.8761H812.943ZM808.794 53.6819H810.911C811.628 53.6819 812.167 53.5032 812.532 53.1442C812.896 52.7867 813.078 52.3047 813.078 51.7012C813.078 51.0976 812.899 50.6243 812.54 50.283C812.181 49.9416 811.638 49.7717 810.911 49.7717H808.794V53.6834V53.6819Z" fill="#B9B9B9"/>
<path d="M819.82 59.2295C818.906 58.7212 818.185 58.0106 817.653 57.0979C817.121 56.1866 816.855 55.1596 816.855 54.0169C816.855 52.8742 817.121 51.8516 817.653 50.9447C818.185 50.0379 818.906 49.3303 819.82 48.8219C820.732 48.3135 821.732 48.0586 822.818 48.0586C823.904 48.0586 824.921 48.3135 825.834 48.8219C826.746 49.3317 827.466 50.0393 827.992 50.9447C828.518 51.8516 828.781 52.8756 828.781 54.0169C828.781 55.1582 828.517 56.1852 827.992 57.0979C827.466 58.0106 826.746 58.7212 825.834 59.2295C824.921 59.7394 823.916 59.9928 822.818 59.9928C821.72 59.9928 820.732 59.7379 819.82 59.2295ZM824.884 57.8026C825.488 57.4495 825.961 56.947 826.303 56.2921C826.645 55.6372 826.815 54.8798 826.815 54.0169C826.815 53.154 826.643 52.3995 826.303 51.7505C825.961 51.1015 825.488 50.6034 824.884 50.2562C824.28 49.9089 823.591 49.7361 822.818 49.7361C822.045 49.7361 821.356 49.9104 820.752 50.2562C820.148 50.6034 819.675 51.1015 819.333 51.7505C818.991 52.3995 818.82 53.1555 818.82 54.0169C818.82 54.8784 818.99 55.6372 819.333 56.2921C819.675 56.947 820.148 57.451 820.752 57.8026C821.356 58.1557 822.045 58.3315 822.818 58.3315C823.591 58.3315 824.28 58.1557 824.884 57.8026Z" fill="#B9B9B9"/>
<path d="M832.395 59.5831C831.767 59.3091 831.274 58.9194 830.917 58.4169C830.558 57.9129 830.379 57.3255 830.379 56.6545H832.428C832.472 57.1584 832.672 57.5716 833.025 57.8968C833.378 58.2221 833.874 58.3832 834.512 58.3832C835.15 58.3832 835.688 58.2235 836.057 57.9042C836.427 57.5848 836.611 57.1746 836.611 56.6706C836.611 56.2794 836.497 55.96 836.267 55.7139C836.037 55.4678 835.752 55.2773 835.41 55.1426C835.069 55.0078 834.595 54.8627 833.991 54.706C833.229 54.5038 832.61 54.3002 832.135 54.0936C831.659 53.887 831.254 53.5647 830.917 53.1281C830.581 52.6915 830.412 52.1099 830.412 51.3818C830.412 50.7108 830.581 50.1233 830.917 49.6194C831.252 49.1154 831.723 48.7301 832.327 48.4605C832.931 48.1924 833.632 48.0576 834.427 48.0576C835.557 48.0576 836.485 48.3404 837.207 48.9059C837.929 49.4714 838.33 50.2464 838.407 51.2309H836.29C836.256 50.806 836.056 50.4427 835.686 50.1394C835.317 49.8362 834.83 49.6867 834.224 49.6867C833.676 49.6867 833.227 49.8274 832.88 50.1072C832.532 50.387 832.359 50.7899 832.359 51.3159C832.359 51.6748 832.469 51.9678 832.686 52.1978C832.905 52.4278 833.182 52.6095 833.518 52.7428C833.853 52.8776 834.312 53.0226 834.894 53.1794C835.667 53.3918 836.298 53.6043 836.784 53.8167C837.271 54.0291 837.686 54.3573 838.028 54.7983C838.369 55.2407 838.539 55.8311 838.539 56.5695C838.539 57.1628 838.379 57.7225 838.06 58.2484C837.74 58.7744 837.275 59.1963 836.666 59.5157C836.056 59.8351 835.336 59.9933 834.507 59.9933C833.723 59.9933 833.018 59.8571 832.39 59.5816L832.395 59.5831Z" fill="#B9B9B9"/>
<path d="M848.555 53.364C848.274 53.8899 847.826 54.3177 847.21 54.6473C846.594 54.977 845.804 55.1425 844.842 55.1425H842.725V59.8761H840.81V48.21H844.842C845.738 48.21 846.498 48.3638 847.118 48.6715C847.739 48.9791 848.204 49.3966 848.512 49.9226C848.82 50.4485 848.974 51.036 848.974 51.685C848.974 52.2784 848.833 52.838 848.553 53.364H848.555ZM846.471 53.0871C846.829 52.7574 847.009 52.2901 847.009 51.685C847.009 50.409 846.286 49.7717 844.842 49.7717H842.725V53.5823H844.842C845.569 53.5823 846.113 53.4167 846.471 53.0871Z" fill="#B9B9B9"/>
<path d="M852.721 49.7536V53.1774H856.753V54.7392H852.721V58.3153H857.256V59.8771H850.804V48.1934H857.256V49.7551H852.721V49.7536Z" fill="#B9B9B9"/>
<path d="M859.768 50.9467C860.3 50.0398 861.022 49.3322 861.935 48.8238C862.847 48.3155 863.847 48.0605 864.933 48.0605C866.177 48.0605 867.282 48.3653 868.251 48.9747C869.22 49.5842 869.923 50.4486 870.36 51.5679H868.058C867.756 50.9525 867.335 50.494 866.798 50.1907C866.26 49.8889 865.639 49.738 864.933 49.738C864.161 49.738 863.472 49.9124 862.867 50.2581C862.263 50.6053 861.79 51.1034 861.448 51.7524C861.107 52.4015 860.935 53.1574 860.935 54.0189C860.935 54.8803 861.105 55.6363 861.448 56.2853C861.79 56.9343 862.263 57.4353 862.867 57.787C863.472 58.14 864.161 58.3158 864.933 58.3158C865.639 58.3158 866.26 58.1649 866.798 57.8631C867.336 57.5613 867.756 57.1028 868.058 56.486H870.36C869.923 57.6053 869.22 58.4667 868.251 59.0703C867.282 59.6739 866.177 59.9772 864.933 59.9772C863.835 59.9772 862.834 59.7223 861.926 59.2139C861.019 58.7041 860.299 57.9965 859.768 57.0911C859.236 56.1842 858.97 55.1601 858.97 54.0189C858.97 52.8776 859.236 51.8535 859.768 50.9467Z" fill="#B9B9B9"/>
<path d="M880.135 48.21V49.7717H877.027V59.8761H875.112V49.7717H871.988V48.21H880.135Z" fill="#B9B9B9"/>
</g>
<g clip-path="url(#clip2_43_21550)">
<path d="M976.464 36.5859H973.141L972.95 34.8086H968.897L968.062 36.5859H964.629L970.787 24.2646H974.579L976.464 36.5859ZM972.203 27.8385L970.185 32.0974H972.664L972.203 27.8385Z" fill="#C8C8C8"/>
<path d="M983.999 24.2646L982.381 33.5408H986.577L986.055 36.5859H978.748L980.888 24.2646H983.999Z" fill="#C8C8C8"/>
<path d="M988.572 36.5859L990.712 24.2646H993.827L991.687 36.5859H988.572Z" fill="#C8C8C8"/>
<path d="M1002.18 29.527H1008.32L1008.11 30.7775C1007.82 32.6442 1007.04 34.1236 1005.76 35.2159C1004.49 36.3081 1002.93 36.8542 1001.1 36.8542C999.192 36.8542 997.73 36.2206 996.712 34.9534C995.695 33.6862 995.33 32.1193 995.616 30.2526C995.882 28.5035 996.762 26.9101 998.095 25.7641C999.401 24.6012 1001.09 23.9735 1002.83 24.0042C1003.9 23.9825 1004.96 24.2488 1005.91 24.776C1006.77 25.2714 1007.47 26.0154 1007.92 26.9142L1005.06 28.458C1004.55 27.5433 1003.7 27.0859 1002.5 27.0859C1001.59 27.0785 1000.71 27.4102 1000.03 28.018C999.327 28.6442 998.865 29.4971 998.721 30.4301C998.548 31.4143 998.704 32.2351 999.19 32.8925C999.676 33.5499 1000.41 33.8715 1001.38 33.8573C1002.87 33.8573 1003.92 33.3176 1004.53 32.2383H1001.71L1002.18 29.527Z" fill="#C8C8C8"/>
<path d="M969.026 66.9963C965.355 66.9963 962.505 65.7503 960.474 63.2584C958.467 60.7909 957.76 57.7105 958.353 54.017C958.858 50.5831 960.57 47.4488 963.177 45.1904C965.823 42.8825 968.924 41.7285 972.482 41.7285C974.784 41.7285 976.768 42.2303 978.435 43.2337C980.102 44.2425 981.436 45.7295 982.266 47.5061L976.655 50.5184C975.744 48.6968 974.159 47.7852 971.9 47.784C970.102 47.7653 968.36 48.4188 967.008 49.6191C965.635 50.8504 964.728 52.5267 964.443 54.3605C964.123 56.2979 964.419 57.8784 965.332 59.1018C966.266 60.3253 967.635 60.937 969.438 60.937C971.741 60.937 973.611 59.9676 975.047 58.0289L980.077 61.3094C978.834 63.0789 977.185 64.5161 975.271 65.4969C973.337 66.4943 971.196 67.0085 969.026 66.9963Z" fill="#D9D9D9"/>
<path d="M999.575 51.2184L1001.15 42.2529H1007.24L1003.03 66.4806H996.939L998.547 57.1716H991.806L990.199 66.4806H984.076L988.284 42.2529H994.408L992.834 51.2184H999.575Z" fill="#D9D9D9"/>
<path d="M1030.77 66.4806H1024.24L1023.86 62.9859H1015.89L1014.25 66.4806H1007.51L1019.62 42.2529H1027.08L1030.77 66.4806ZM1022.39 49.279L1018.42 57.656H1023.28L1022.39 49.279Z" fill="#D9D9D9"/>
<path d="M944.536 28.8845L939.553 37.8442C940.479 37.41 941.459 37.1055 942.467 36.9392C943.286 36.8026 944.118 36.7592 944.947 36.8099L948.153 31.0439C949.488 28.6433 952.539 27.7421 954.895 29.1335C955.994 29.7872 956.796 30.8509 957.129 32.0963C957.462 33.3416 957.3 34.6695 956.676 35.7949L953.434 41.6362L952.257 43.7589L951.624 44.8954C951.052 45.9257 950.132 46.7119 949.032 47.1088C948.361 47.3543 947.644 47.4473 946.934 47.3809C946.251 47.3195 945.588 47.1116 944.99 46.7711C944.887 46.7132 944.788 46.6515 944.691 46.5781C944.261 46.2841 943.737 46.1667 943.224 46.2498C942.712 46.333 942.25 46.6105 941.933 47.0259L941.843 47.1436C941.677 47.3654 941.557 47.619 941.49 47.8892C941.424 48.1594 941.412 48.4404 941.456 48.7153C941.5 48.9901 941.599 49.253 941.747 49.488C941.894 49.7231 942.087 49.9254 942.314 50.0826C942.505 50.2176 942.719 50.3469 942.931 50.4685C943.748 50.935 944.633 51.2696 945.553 51.4604C946.314 51.6191 947.091 51.6768 947.867 51.6321C949.832 51.5234 951.71 50.7725 953.218 49.492C954.048 48.7842 954.745 47.9312 955.276 46.9738L955.353 46.8387L960.336 37.8771C960.92 36.8273 961.294 35.6715 961.436 34.4756C961.578 33.2797 961.486 32.0672 961.165 30.9073C960.844 29.7474 960.301 28.6628 959.566 27.7154C958.83 26.7681 957.918 25.9765 956.88 25.3859C954.785 24.194 952.307 23.8929 949.992 24.549C947.677 25.2051 945.715 26.7646 944.536 28.8845Z" fill="#D9D9D9"/>
<path d="M946.085 39.0985C945.324 38.9398 944.546 38.8821 943.771 38.9267C942.846 38.9792 941.934 39.1745 941.067 39.5057C940.103 39.8724 939.208 40.4023 938.419 41.0726C937.59 41.7775 936.892 42.6271 936.359 43.5812L936.285 43.7163L931.301 52.6779C930.718 53.7277 930.344 54.8835 930.202 56.0794C930.059 57.2753 930.151 58.4877 930.472 59.6476C930.793 60.8076 931.337 61.8922 932.072 62.8395C932.807 63.7869 933.72 64.5785 934.757 65.169C935.795 65.7596 936.937 66.1377 938.119 66.2816C939.301 66.4255 940.5 66.3324 941.646 66.0077C942.792 65.683 943.864 65.133 944.801 64.3892C945.737 63.6453 946.519 62.7221 947.103 61.6723L952.087 52.7127C950.4 53.503 948.546 53.8584 946.691 53.747L943.485 59.513C942.15 61.9136 939.098 62.8148 936.743 61.4235C935.643 60.77 934.84 59.7064 934.507 58.4608C934.174 57.2153 934.337 55.8873 934.961 54.762L938.204 48.9188L939.382 46.7961L940.014 45.6595C940.218 45.294 940.467 44.9562 940.756 44.6541C941.273 44.1129 941.907 43.6996 942.608 43.4461C943.279 43.2008 943.995 43.1073 944.706 43.1721C945.389 43.2352 946.051 43.4436 946.649 43.7838C946.75 43.8417 946.851 43.9035 946.949 43.9768C947.378 44.2709 947.903 44.3883 948.415 44.3051C948.927 44.222 949.389 43.9445 949.706 43.5291L949.796 43.4114C949.963 43.1896 950.083 42.9359 950.149 42.6656C950.216 42.3953 950.228 42.1141 950.183 41.8392C950.139 41.5642 950.04 41.3013 949.892 41.0663C949.744 40.8314 949.551 40.6293 949.323 40.4724C949.132 40.3374 948.921 40.2081 948.707 40.0865C947.889 39.6209 947.004 39.2875 946.085 39.0985Z" fill="#D9D9D9"/>
</g>
<rect y="-1" width="46" height="92" fill="url(#paint0_linear_43_21550)"/>
<rect width="46" height="92" transform="matrix(-1 0 0 1 1009 -1)" fill="url(#paint1_linear_43_21550)"/>
</g>
<defs>
<linearGradient id="paint0_linear_43_21550" x1="46" y1="45" x2="-1.37091e-06" y2="45" gradientUnits="userSpaceOnUse">
<stop stop-color="#191414" stop-opacity="0"/>
<stop offset="1" stop-color="#191414"/>
</linearGradient>
<linearGradient id="paint1_linear_43_21550" x1="46" y1="46" x2="-1.37091e-06" y2="46" gradientUnits="userSpaceOnUse">
<stop stop-color="#191414" stop-opacity="0"/>
<stop offset="1" stop-color="#191414"/>
</linearGradient>
<clipPath id="clip0_43_21550">
<rect width="1009" height="91" fill="white"/>
</clipPath>
<clipPath id="clip1_43_21550">
<rect width="128.762" height="40" fill="white" transform="translate(751.373 25.5)"/>
</clipPath>
<clipPath id="clip2_43_21550">
<rect width="143" height="43" fill="white" transform="translate(930.135 24)"/>
</clipPath>
</defs>
</svg>
