<svg width="1009" height="91" viewBox="0 0 1009 91" fill="none" xmlns="http://www.w3.org/2000/svg">
<g clip-path="url(#clip0_43_18715)">
<rect width="1009" height="91" fill="#191414"/>
<path d="M-10 0H1019" stroke="#191414" stroke-width="3"/>
<path d="M-10 91H1019" stroke="#191414" stroke-width="3"/>
<path opacity="0.9" d="M23.1317 44.4669C25.5923 42.049 25.5923 38.1287 23.1317 35.7108C20.6711 33.2929 16.6816 33.2929 14.221 35.7108C11.7604 38.1287 11.7604 42.049 14.221 44.4669C16.6816 46.8849 20.6711 46.8849 23.1317 44.4669Z" fill="#D9D9D9"/>
<path opacity="0.9" d="M18.5881 35.5649C18.5881 31.6204 21.7857 28.4229 25.7301 28.4229C29.6746 28.4229 32.8722 31.6204 32.8722 35.5649V44.3873C32.8722 48.3318 29.6746 51.5294 25.7301 51.5294C21.7857 51.5294 18.5881 48.3318 18.5881 44.3873V35.5649Z" fill="#E3E3E3"/>
<path opacity="0.9" d="M28.6699 31.7836C28.6699 27.8392 31.8675 24.6416 35.8119 24.6416C39.7564 24.6416 42.9539 27.8392 42.9539 31.7836V47.7481C42.9539 51.6925 39.7564 54.8901 35.8119 54.8901C31.8675 54.8901 28.6699 51.6925 28.6699 47.7481V31.7836Z" fill="#D9D9D9"/>
<path opacity="0.9" d="M38.334 35.5649C38.334 31.6204 41.5316 28.4229 45.476 28.4229C49.4204 28.4229 52.618 31.6204 52.618 35.5649V44.3873C52.618 48.3318 49.4204 51.5294 45.476 51.5294C41.5316 51.5294 38.334 48.3318 38.334 44.3873V35.5649Z" fill="#E3E3E3"/>
<path opacity="0.9" d="M57.161 44.4669C59.6216 42.049 59.6216 38.1287 57.161 35.7108C54.7004 33.2929 50.7109 33.2929 48.2503 35.7108C45.7897 38.1287 45.7897 42.049 48.2503 44.4669C50.7109 46.8849 54.7004 46.8849 57.161 44.4669Z" fill="#D9D9D9"/>
<rect x="0.443387" y="40.5254" width="70.3203" height="14.0244" rx="7.0122" fill="white" stroke="#D9D9D9" stroke-width="0.679742"/>
<path d="M7.24059 44.8677H8.30124L10.8337 50.689H9.38656L8.88501 49.4557H6.62392L6.13882 50.689H4.72461L7.24059 44.8677ZM7.73391 46.5615L7.02681 48.3704H8.44924L7.73391 46.5615Z" fill="#D9D9D9"/>
<path d="M16.7389 48.4444C16.7389 48.7897 16.6868 49.1076 16.5827 49.3981C16.4785 49.6886 16.3223 49.9408 16.114 50.1546C15.9112 50.3683 15.6563 50.5355 15.3493 50.6561C15.0424 50.7767 14.6888 50.837 14.2887 50.837C13.8831 50.837 13.5268 50.7767 13.2198 50.6561C12.9129 50.5355 12.6552 50.3683 12.4469 50.1546C12.2441 49.9408 12.0906 49.6886 11.9865 49.3981C11.8823 49.1076 11.8303 48.7897 11.8303 48.4444V44.8677H13.1129V48.395C13.1129 48.5759 13.1403 48.7431 13.1951 48.8966C13.2554 49.0501 13.3377 49.1843 13.4418 49.2995C13.546 49.4091 13.6693 49.4968 13.8118 49.5626C13.9598 49.6229 14.1188 49.653 14.2887 49.653C14.4586 49.653 14.6148 49.6229 14.7574 49.5626C14.8999 49.4968 15.0232 49.4091 15.1273 49.2995C15.2315 49.1843 15.311 49.0501 15.3658 48.8966C15.4261 48.7431 15.4562 48.5759 15.4562 48.395V44.8677H16.7389V48.4444Z" fill="#D9D9D9"/>
<path d="M19.4622 46.0024H17.8013V44.8677H22.4057V46.0024H20.7448V50.689H19.4622V46.0024Z" fill="#D9D9D9"/>
<path d="M23.1557 47.7784C23.1557 47.3124 23.2324 46.8904 23.3859 46.5122C23.5449 46.1339 23.7641 45.8133 24.0437 45.5502C24.3232 45.2816 24.6549 45.076 25.0386 44.9335C25.4223 44.791 25.8416 44.7197 26.2965 44.7197C26.7515 44.7197 27.1708 44.791 27.5545 44.9335C27.9382 45.076 28.2699 45.2816 28.5494 45.5502C28.829 45.8133 29.0455 46.1339 29.199 46.5122C29.3579 46.8904 29.4374 47.3124 29.4374 47.7784C29.4374 48.2443 29.3579 48.6664 29.199 49.0446C29.0455 49.4228 28.829 49.7462 28.5494 50.0148C28.2699 50.2779 27.9382 50.4807 27.5545 50.6232C27.1708 50.7657 26.7515 50.837 26.2965 50.837C25.8416 50.837 25.4223 50.7657 25.0386 50.6232C24.6549 50.4807 24.3232 50.2779 24.0437 50.0148C23.7641 49.7462 23.5449 49.4228 23.3859 49.0446C23.2324 48.6664 23.1557 48.2443 23.1557 47.7784ZM24.4877 47.7784C24.4877 48.0524 24.5288 48.3046 24.611 48.5348C24.6987 48.7595 24.822 48.9569 24.981 49.1268C25.14 49.2912 25.3291 49.42 25.5483 49.5132C25.7731 49.6064 26.0225 49.653 26.2965 49.653C26.5706 49.653 26.8173 49.6064 27.0365 49.5132C27.2613 49.42 27.4531 49.2912 27.6121 49.1268C27.771 48.9569 27.8916 48.7595 27.9739 48.5348C28.0616 48.3046 28.1054 48.0524 28.1054 47.7784C28.1054 47.5098 28.0616 47.2604 27.9739 47.0301C27.8916 46.7999 27.771 46.6026 27.6121 46.4382C27.4531 46.2682 27.2613 46.1367 27.0365 46.0435C26.8173 45.9503 26.5706 45.9037 26.2965 45.9037C26.0225 45.9037 25.7731 45.9503 25.5483 46.0435C25.3291 46.1367 25.14 46.2682 24.981 46.4382C24.822 46.6026 24.6987 46.7999 24.611 47.0301C24.5288 47.2604 24.4877 47.5098 24.4877 47.7784Z" fill="#D9D9D9"/>
<path d="M41.6953 44.8677H42.978V49.505H45.3542V50.689H41.6953V44.8677Z" fill="#D9D9D9"/>
<path d="M46.1608 47.7784C46.1608 47.3124 46.2376 46.8904 46.391 46.5122C46.55 46.1339 46.7693 45.8133 47.0488 45.5502C47.3284 45.2816 47.66 45.076 48.0437 44.9335C48.4274 44.791 48.8467 44.7197 49.3017 44.7197C49.7566 44.7197 50.176 44.791 50.5597 44.9335C50.9434 45.076 51.275 45.2816 51.5546 45.5502C51.8341 45.8133 52.0506 46.1339 52.2041 46.5122C52.3631 46.8904 52.4425 47.3124 52.4425 47.7784C52.4425 48.2443 52.3631 48.6664 52.2041 49.0446C52.0506 49.4228 51.8341 49.7462 51.5546 50.0148C51.275 50.2779 50.9434 50.4807 50.5597 50.6232C50.176 50.7657 49.7566 50.837 49.3017 50.837C48.8467 50.837 48.4274 50.7657 48.0437 50.6232C47.66 50.4807 47.3284 50.2779 47.0488 50.0148C46.7693 49.7462 46.55 49.4228 46.391 49.0446C46.2376 48.6664 46.1608 48.2443 46.1608 47.7784ZM47.4928 47.7784C47.4928 48.0524 47.5339 48.3046 47.6161 48.5348C47.7039 48.7595 47.8272 48.9569 47.9861 49.1268C48.1451 49.2912 48.3342 49.42 48.5535 49.5132C48.7782 49.6064 49.0276 49.653 49.3017 49.653C49.5758 49.653 49.8224 49.6064 50.0417 49.5132C50.2664 49.42 50.4583 49.2912 50.6172 49.1268C50.7762 48.9569 50.8968 48.7595 50.979 48.5348C51.0667 48.3046 51.1106 48.0524 51.1106 47.7784C51.1106 47.5098 51.0667 47.2604 50.979 47.0301C50.8968 46.7999 50.7762 46.6026 50.6172 46.4382C50.4583 46.2682 50.2664 46.1367 50.0417 46.0435C49.8224 45.9503 49.5758 45.9037 49.3017 45.9037C49.0276 45.9037 48.7782 45.9503 48.5535 46.0435C48.3342 46.1367 48.1451 46.2682 47.9861 46.4382C47.8272 46.6026 47.7039 46.7999 47.6161 47.0301C47.5339 47.2604 47.4928 47.5098 47.4928 47.7784Z" fill="#D9D9D9"/>
<path d="M58.6341 48.4444C58.6341 48.7897 58.582 49.1076 58.4779 49.3981C58.3737 49.6886 58.2175 49.9408 58.0092 50.1546C57.8064 50.3683 57.5515 50.5355 57.2445 50.6561C56.9376 50.7767 56.584 50.837 56.1839 50.837C55.7783 50.837 55.422 50.7767 55.115 50.6561C54.808 50.5355 54.5504 50.3683 54.3421 50.1546C54.1393 49.9408 53.9858 49.6886 53.8817 49.3981C53.7775 49.1076 53.7255 48.7897 53.7255 48.4444V44.8677H55.0081V48.395C55.0081 48.5759 55.0355 48.7431 55.0903 48.8966C55.1506 49.0501 55.2329 49.1843 55.337 49.2995C55.4411 49.4091 55.5645 49.4968 55.707 49.5626C55.855 49.6229 56.014 49.653 56.1839 49.653C56.3538 49.653 56.51 49.6229 56.6525 49.5626C56.7951 49.4968 56.9184 49.4091 57.0225 49.2995C57.1267 49.1843 57.2062 49.0501 57.261 48.8966C57.3213 48.7431 57.3514 48.5759 57.3514 48.395V44.8677H58.6341V48.4444Z" fill="#D9D9D9"/>
<path d="M60.2309 44.8677H62.1549C62.6208 44.8677 63.0621 44.9198 63.4786 45.0239C63.9007 45.1281 64.268 45.298 64.5804 45.5337C64.8929 45.7639 65.1395 46.0654 65.3204 46.4382C65.5068 46.8109 65.6 47.2631 65.6 47.7948C65.6 48.2662 65.5095 48.6828 65.3286 49.0446C65.1532 49.4009 64.9148 49.7023 64.6133 49.949C64.3118 50.1902 63.9638 50.3738 63.5691 50.4999C63.1744 50.626 62.7606 50.689 62.3275 50.689H60.2309V44.8677ZM61.5136 49.505H62.1796C62.4755 49.505 62.7496 49.4749 63.0018 49.4146C63.2594 49.3543 63.4814 49.2556 63.6678 49.1186C63.8541 48.9761 63.9994 48.7924 64.1035 48.5677C64.2132 48.3375 64.268 48.0579 64.268 47.729C64.268 47.444 64.2132 47.1973 64.1035 46.989C63.9994 46.7753 63.8569 46.5999 63.676 46.4628C63.4951 46.3258 63.2813 46.2244 63.0347 46.1586C62.7935 46.0873 62.5386 46.0517 62.27 46.0517H61.5136V49.505Z" fill="#D9D9D9"/>
<path d="M38.2094 45.3305C38.0075 45.0881 37.7573 44.9019 37.4587 44.772C37.169 44.6422 36.831 44.5772 36.4447 44.5772C36.0583 44.5772 35.6984 44.6508 35.3647 44.798C35.0399 44.9452 34.7545 45.153 34.5087 45.4214C34.2716 45.6812 34.0829 45.9929 33.9424 46.3565C33.8107 46.7202 33.7448 47.1141 33.7448 47.5384C33.7448 47.9713 33.8107 48.3696 33.9424 48.7332C34.0829 49.0882 34.2716 49.3999 34.5087 49.6683C34.7458 49.9281 35.0223 50.1316 35.3384 50.2788C35.6633 50.426 36.0101 50.4995 36.3788 50.4995C36.8003 50.4995 37.1734 50.413 37.4983 50.2398C37.8231 50.0666 38.0909 49.8242 38.3016 49.5125L40.0137 50.7723C39.6186 51.3178 39.1181 51.7204 38.5123 51.9801C37.9065 52.2399 37.2831 52.3698 36.6422 52.3698C35.9135 52.3698 35.2418 52.2572 34.6272 52.0321C34.0126 51.807 33.4814 51.4866 33.0337 51.071C32.5859 50.6467 32.2347 50.1359 31.9801 49.5385C31.7342 48.941 31.6113 48.2744 31.6113 47.5384C31.6113 46.8024 31.7342 46.1357 31.9801 45.5383C32.2347 44.9409 32.5859 44.4344 33.0337 44.0188C33.4814 43.5945 34.0126 43.2698 34.6272 43.0447C35.2418 42.8196 35.9135 42.707 36.6422 42.707C36.9056 42.707 37.1778 42.733 37.4587 42.785C37.7485 42.8282 38.0294 42.9018 38.3016 43.0057C38.5826 43.1096 38.8504 43.2482 39.105 43.4213C39.3596 43.5945 39.5879 43.8066 39.7898 44.0577L38.2094 45.3305Z" fill="#D9D9D9"/>
<path d="M36.43 49.9257C36.1575 49.9257 35.9355 49.7089 35.9355 49.4448V47.687C35.9355 47.4219 36.1585 47.2061 36.43 47.2061C36.7025 47.2061 36.9245 47.4229 36.9245 47.687V49.4448C36.9245 49.7098 36.7016 49.9257 36.43 49.9257Z" fill="#D9D9D9"/>
<path d="M37.6701 46.9482C37.8045 46.2677 37.3641 45.6067 36.6865 45.4718C36.0088 45.3368 35.3505 45.779 35.2161 46.4594C35.0816 47.1398 35.522 47.8008 36.1997 47.9358C36.8773 48.0708 37.5357 47.6286 37.6701 46.9482Z" fill="#D9D9D9"/>
<path d="M36.9245 46.7113C36.9245 46.9844 36.7032 47.2058 36.43 47.2058C36.1569 47.2058 35.9355 46.9844 35.9355 46.7113C35.9355 46.4381 36.1569 46.2168 36.43 46.2168C36.7032 46.2168 36.9245 46.4381 36.9245 46.7113Z" fill="#E3E3E3"/>
<path d="M23.793 59.8227C24.8149 59.8227 25.6816 60.5035 25.9691 61.4379H28.5556C28.8048 61.4379 29.0076 61.2339 29.0076 60.9831V57.2658C29.0076 56.8921 29.3085 56.5892 29.6799 56.5892C30.0513 56.5892 30.3523 56.8921 30.3523 57.2658V60.9831C30.3523 61.98 29.5462 62.7911 28.5556 62.7911H25.9691C25.6816 63.7255 24.8149 64.4062 23.793 64.4062C22.5372 64.4062 21.5156 63.3782 21.5156 62.1145C21.5156 60.8508 22.5372 59.8227 23.793 59.8227ZM23.793 63.0531C24.3073 63.0531 24.7258 62.6321 24.7258 62.1145C24.7258 61.5969 24.3073 61.1759 23.793 61.1759C23.2787 61.1759 22.8603 61.5969 22.8603 62.1145C22.8603 62.6321 23.2786 63.0531 23.793 63.0531Z" fill="#D9D9D9"/>
<path d="M36.4144 56.5894C36.8489 56.5894 37.201 56.9416 37.201 57.376V61.148C38.2875 61.4843 39.079 62.4983 39.079 63.6939C39.079 65.1632 37.8837 66.3584 36.4144 66.3584C34.9452 66.3584 33.75 65.1632 33.75 63.6939C33.75 62.4984 34.5414 61.4843 35.6278 61.148V57.376C35.6278 56.9416 35.9799 56.5894 36.4144 56.5894ZM35.3232 63.6939C35.3232 64.2956 35.8127 64.7852 36.4144 64.7852C37.0161 64.7852 37.5057 64.2957 37.5057 63.6939C37.5057 63.0921 37.0161 62.6026 36.4144 62.6026C35.8127 62.6026 35.3232 63.0922 35.3232 63.6939Z" fill="#D9D9D9"/>
<path d="M48.8072 64.4062C47.7854 64.4062 46.9187 63.7255 46.6312 62.7911H44.0447C43.054 62.7911 42.248 61.98 42.248 60.9831V57.2658C42.248 56.8921 42.549 56.5892 42.9204 56.5892C43.2918 56.5892 43.5928 56.8921 43.5928 57.2658V60.9831C43.5928 61.2339 43.7955 61.4379 44.0447 61.4379H46.6312C46.9187 60.5035 47.7854 59.8227 48.8072 59.8227C50.0631 59.8227 51.0847 60.8508 51.0847 62.1145C51.0847 63.3782 50.0631 64.4062 48.8072 64.4062ZM48.8072 61.1759C48.2929 61.1759 47.8745 61.5969 47.8745 62.1145C47.8745 62.6321 48.2929 63.0531 48.8072 63.0531C49.3215 63.0531 49.74 62.6321 49.74 62.1145C49.74 61.5969 49.3216 61.1759 48.8072 61.1759Z" fill="#D9D9D9"/>
<path d="M164.51 24C166.556 27.5833 168.602 31.1666 170.647 34.7224C166.556 34.75 162.436 34.75 158.344 34.7775C157.736 34.7775 157.156 34.75 156.547 34.75C153.036 34.7224 149.497 34.7224 145.986 34.7224C147.341 32.407 148.696 30.1192 150.023 27.8038C150.741 26.5635 151.405 25.2679 152.068 24C156.216 24 160.363 24 164.51 24Z" fill="#D9D9D9"/>
<path d="M152.069 24C151.377 25.2679 150.741 26.5359 150.023 27.8038C148.696 30.1192 147.341 32.407 145.986 34.7224C145.931 34.7775 145.848 34.8051 145.765 34.8051C141.701 34.7775 137.637 34.75 133.573 34.75C134.374 33.2615 135.176 31.7731 136.005 30.3122C137.194 28.1897 138.411 26.0949 139.627 24C143.774 24 147.921 24 152.069 24Z" fill="#ADADAD"/>
<path d="M121.104 55.6984C121.38 55.3401 121.684 55.0093 121.905 54.651C123.592 51.7568 125.278 48.8626 126.965 45.9408C126.992 45.8581 127.103 45.8305 127.158 45.7754C127.379 45.9132 127.656 45.9959 127.767 46.1889C128.375 47.1536 128.955 48.1183 129.536 49.0831C130.697 51.0952 131.831 53.1074 132.992 55.092C133.158 55.3401 133.517 55.4779 133.794 55.6709C133.572 56.1395 133.351 56.6356 133.102 57.1042C131.554 59.833 130.006 62.5619 128.458 65.2631C128.209 65.7317 127.905 66.1452 127.518 66.724C126.439 64.9048 125.416 63.1683 124.421 61.4593C123.481 59.8606 122.541 58.2343 121.601 56.6356C121.491 56.4427 121.269 56.3324 121.104 56.1946C121.104 56.0568 121.104 55.8914 121.104 55.6984Z" fill="#EFEFEF"/>
<path d="M317.15 37.5337C316.957 37.7818 316.763 38.0298 316.515 38.3606C316.293 38.1125 316.1 37.892 315.851 37.6164C315.768 38.0574 315.685 38.4433 315.547 39.0497C314.828 38.2228 315.353 37.3959 314.994 36.6241C314.773 36.6516 314.469 36.6516 314.137 36.7068C314.109 37.451 314.054 38.1401 314.026 38.8568C313.28 38.3055 313.612 37.5888 313.446 36.8997C313.252 36.7619 312.976 36.5965 312.699 36.4311C312.727 36.376 312.755 36.2933 312.755 36.2382C313.722 36.2382 314.662 36.2382 315.74 36.2382C315.934 36.5138 316.183 36.8721 316.432 37.2305C317.04 37.0927 316.846 36.0177 317.703 36.2106C317.786 36.9273 317.869 37.6715 317.952 38.3882C317.952 38.5811 317.952 38.7465 317.952 38.9394C317.759 38.8843 317.537 38.8568 317.261 38.8016C317.289 38.4157 317.289 38.0298 317.316 37.6715C317.316 37.5888 317.316 37.5061 317.289 37.4234C317.261 37.3959 317.206 37.4786 317.15 37.5337Z" fill="#D9D9D9"/>
<path d="M152.068 66.9997C152.068 66.917 152.068 66.8343 152.068 66.7516C152.151 66.7241 152.262 66.6965 152.345 66.6689C156.409 66.6965 160.445 66.6965 164.51 66.7241C164.51 66.8068 164.51 66.8895 164.51 66.9997C160.363 66.9997 156.215 66.9997 152.068 66.9997Z" fill="#EFEFEF"/>
<path d="M317.952 38.3333C317.869 37.6166 317.786 36.8724 317.703 36.1557C317.786 36.0455 317.869 35.9628 317.952 35.8525C317.952 36.6795 317.952 37.5064 317.952 38.3333Z" fill="#909090"/>
<path d="M188.508 53.5762C188.508 57.1595 188.508 60.4397 188.508 63.83C186.987 63.83 185.522 63.83 183.973 63.83C183.946 63.582 183.863 63.2788 183.863 62.9755C183.863 57.1871 183.78 51.3987 183.891 45.6378C183.973 41.0897 186.296 36.7346 191.521 35.4391C196.111 34.309 200.258 35.1083 203.382 38.9122C207.722 44.2045 206.091 54.1551 197.797 56.0845C194.756 56.8012 191.853 56.3602 189.365 54.2929C189.171 54.1275 188.95 53.9621 188.508 53.5762ZM200.838 45.7205C200.811 45.307 200.783 44.8936 200.728 44.4801C200.368 41.641 198.295 39.6288 195.171 39.2705C192.931 39.0224 190.111 40.1525 188.978 42.9089C188.452 44.1769 188.397 45.5 188.535 46.823C189.033 51.0128 193.484 53.4384 197.299 51.6192C199.788 50.4339 200.755 48.3115 200.838 45.7205Z" fill="#D9D9D9"/>
<path d="M262.658 55.8092C261.441 55.947 260.363 56.14 259.257 56.1675C256.465 56.2227 253.645 56.3329 250.853 56.1951C249.498 56.14 248.143 55.7265 246.871 55.2028C244.134 54.1002 243.277 52.0881 243.443 49.249C243.692 45.1695 246.153 43.7362 250.106 43.3227C252.373 43.0746 254.696 43.2676 256.99 43.2676C257.294 43.2676 257.626 43.2676 257.93 43.2676C258.041 41.09 257.073 39.6291 255.055 39.1605C252.511 38.5817 249.94 38.5541 247.48 39.6567C247.148 39.7945 246.816 39.9599 246.484 40.0977C244.715 38.7471 244.853 36.7625 246.844 35.8529C247.756 35.4394 248.779 35.1913 249.747 35.1086C252.097 34.8881 254.419 34.9432 256.741 35.5772C260.557 36.5971 262.658 39.2432 262.686 43.1298C262.713 47.0714 262.686 51.0131 262.686 54.9823C262.713 55.2028 262.686 55.4233 262.658 55.8092ZM258.096 46.8233C257.211 46.7131 256.41 46.5477 255.58 46.4926C253.756 46.3823 251.903 46.2721 250.134 46.8785C248.779 47.3471 248.088 48.4221 248.115 49.8278C248.143 51.1785 248.807 52.1708 250.189 52.5567C252.788 53.2458 255.414 53.0804 258.068 52.6118C258.096 50.6823 258.096 48.8631 258.096 46.8233Z" fill="#D9D9D9"/>
<path d="M230.919 45.7203C231.112 51.2331 226.633 56.36 219.86 56.4152C213.529 56.4703 208.663 51.7293 208.718 45.6376C208.746 39.5184 213.501 35.0255 219.86 35.0255C226.385 34.9979 231.14 40.0422 230.919 45.7203ZM219.805 39.1325C216.21 39.1325 213.556 41.9441 213.556 45.7479C213.556 49.4139 216.266 52.2806 219.749 52.2806C223.426 52.2806 226.081 49.5793 226.053 45.7203C226.053 41.1447 222.873 39.105 219.805 39.1325Z" fill="#D9D9D9"/>
<path d="M309.686 40.5662C307.087 38.9123 304.184 38.4162 301.143 38.6367C300.451 38.6918 299.76 38.8296 299.124 39.0777C298.101 39.436 297.631 40.1251 297.659 41.0348C297.687 41.9995 298.267 42.6059 299.124 42.7989C300.59 43.1296 302.083 43.3501 303.575 43.5982C304.985 43.8463 306.368 44.0944 307.778 44.37C308.137 44.4527 308.469 44.5905 308.828 44.7283C312.616 46.4097 313.446 51.1507 310.487 54.045C309.326 55.1751 307.916 55.7815 306.34 56.0571C301.806 56.8841 297.465 56.2501 293.318 54.293C293.125 54.2104 292.931 54.045 292.655 53.852C293.208 52.8322 293.761 51.8398 294.258 50.9302C296.166 51.454 297.963 52.0879 299.843 52.4738C301.695 52.8597 303.603 52.8873 305.455 52.3636C306.064 52.1706 306.755 51.7847 307.114 51.2886C307.888 50.1584 307.197 48.7251 305.677 48.3392C304.405 48.0085 303.05 47.8706 301.723 47.7052C299.954 47.4572 298.157 47.3469 296.47 46.6027C294.59 45.7758 293.291 44.4251 293.042 42.3027C292.793 39.9322 293.484 37.9751 295.558 36.5969C296.885 35.7149 298.405 35.3014 299.954 35.1361C302.525 34.888 305.096 34.9431 307.64 35.6046C308.303 35.77 308.967 36.0181 309.547 36.3489C311.593 37.479 311.648 39.1053 309.686 40.5662Z" fill="#D9D9D9"/>
<path d="M239.545 55.8091C237.969 55.8091 236.559 55.8091 235.038 55.8091C235.01 55.3957 234.955 54.9822 234.955 54.5963C234.955 45.9963 234.955 37.4239 234.955 28.824C234.955 26.7015 235.674 26.0124 237.803 26.1778C238.383 26.2054 238.964 26.3983 239.545 26.5086C239.545 36.3214 239.545 45.9963 239.545 55.8091Z" fill="#D9D9D9"/>
<path d="M176.702 45.5C176.371 46.134 176.067 46.7955 175.707 47.4295C173.91 50.4891 172.113 53.5211 170.316 56.5807C169.901 56.4705 169.487 56.3051 169.072 56.2775C165.505 56.25 161.966 56.25 158.4 56.25C158.4 56.1397 158.4 56.0295 158.372 55.9192C158.538 55.5884 158.676 55.2577 158.842 54.9545C160.667 51.8122 162.464 48.6699 164.289 45.5C168.464 45.5 172.583 45.5 176.702 45.5Z" fill="#909090"/>
<path d="M176.702 45.5C172.583 45.5 168.463 45.5 164.316 45.5C164.067 44.9763 163.818 44.425 163.542 43.9288C161.828 40.8692 160.086 37.8372 158.344 34.8051C162.436 34.7776 166.555 34.7776 170.647 34.75C172.638 38.1679 174.656 41.5859 176.647 45.0038C176.73 45.1141 176.674 45.3346 176.702 45.5Z" fill="#B7B7B7"/>
<path d="M272.058 55.8085C270.482 55.8085 269.017 55.8085 267.469 55.8085C267.441 55.4778 267.386 55.1194 267.358 54.7887C267.358 50.9848 267.358 47.1534 267.358 43.3496C267.358 42.6605 267.358 41.9714 267.496 41.2823C268.132 37.699 270.344 35.6317 274.242 35.1079C276.067 34.8599 277.919 34.915 279.689 35.549C281.983 36.3483 282.426 38.14 280.767 39.9592C279.827 39.7387 278.914 39.3804 277.974 39.2977C276.952 39.215 275.846 39.215 274.85 39.4631C272.943 39.9868 272.279 41.5304 272.086 43.3496C272.003 44.1214 272.058 44.9207 272.058 45.6925C272.058 48.5868 272.058 51.481 272.058 54.3752C272.058 54.8438 272.058 55.2848 272.058 55.8085Z" fill="#D9D9D9"/>
<path d="M158.427 56.25C161.994 56.25 165.56 56.25 169.099 56.2776C169.514 56.2776 169.929 56.4705 170.343 56.5808C168.629 59.5852 166.915 62.5897 165.229 65.5942C165.007 65.9801 164.759 66.366 164.537 66.7794C160.473 66.7519 156.437 66.7519 152.373 66.7243C152.456 66.4762 152.511 66.2006 152.649 65.9525C153.672 64.1884 154.667 62.3968 155.718 60.6327C156.575 59.1442 157.515 57.7109 158.427 56.25Z" fill="#D9D9D9"/>
<path d="M288.923 35.9906C288.923 42.6335 288.923 49.1662 288.923 55.8091C287.43 55.8091 285.964 55.8091 284.388 55.8091C284.361 55.3129 284.333 54.8719 284.333 54.4309C284.333 49.1386 284.416 43.8739 284.305 38.5816C284.25 35.5771 285.992 35.3566 288.01 35.7149C288.259 35.7425 288.536 35.8527 288.923 35.9906Z" fill="#D9D9D9"/>
<path d="M289.476 29.3198C289.476 30.9736 288.259 32.214 286.656 32.1865C285.08 32.1589 283.919 30.9736 283.891 29.3749C283.891 27.7211 285.107 26.4807 286.711 26.5083C288.287 26.5358 289.476 27.7486 289.476 29.3198Z" fill="#D9D9D9"/>
<path d="M317.15 37.5335C317.206 37.4784 317.233 37.4233 317.289 37.3682C317.289 37.4509 317.289 37.5336 317.316 37.6162C317.261 37.5887 317.206 37.5611 317.15 37.5335Z" fill="#909090"/>
<path d="M158.428 56.2495C157.515 57.7104 156.575 59.1437 155.69 60.6322C154.64 62.3963 153.645 64.1604 152.622 65.952C152.483 66.1725 152.428 66.4482 152.345 66.7238C152.262 66.7514 152.152 66.7789 152.069 66.8065C149.967 63.2232 147.894 59.6123 145.793 56.029C145.931 56.029 146.097 56.0014 146.235 56.0014C150.216 56.0014 154.225 56.0014 158.206 56.0014C158.262 55.9739 158.317 55.9739 158.4 55.9463C158.4 56.029 158.4 56.1392 158.428 56.2495Z" fill="#949494"/>
<path d="M133.821 55.6987C133.545 55.5058 133.158 55.3955 133.019 55.1199C131.831 53.1353 130.725 51.1231 129.563 49.1109C129.011 48.1186 128.402 47.1539 127.794 46.2167C127.683 46.0237 127.379 45.9411 127.186 45.8032C127.296 45.6103 127.379 45.4449 127.49 45.252C131.554 45.252 135.591 45.252 139.655 45.252C139.765 45.2795 139.876 45.2795 139.986 45.3071H139.959C139.931 45.4725 139.904 45.6378 139.876 45.8032C139.489 46.2718 139.019 46.6853 138.715 47.209C137.028 49.993 135.425 52.8596 133.821 55.6987Z" fill="#D9D9D9"/>
<path d="M139.848 45.7754C139.876 45.6101 139.904 45.4447 139.931 45.2793C140.429 45.3069 140.927 45.362 141.424 45.362C144.88 45.3896 148.364 45.3896 151.82 45.4171C151.681 45.803 151.598 46.2165 151.405 46.5472C150.244 48.5594 149.055 50.5165 147.921 52.5562C147.313 53.6588 146.373 54.5959 146.263 55.9466C146.124 55.9466 145.958 55.9741 145.82 55.9741C143.802 52.5838 141.811 49.1658 139.848 45.7754Z" fill="#D9D9D9"/>
<path d="M139.627 45.2245C135.563 45.2245 131.526 45.2245 127.462 45.2245C128.54 43.2675 129.619 41.338 130.725 39.3809C131.305 38.3611 131.886 37.3136 132.494 36.2938C132.77 35.8252 133.13 35.4117 133.462 34.9707C133.71 35.2188 133.987 35.4393 134.18 35.7425C134.761 36.6797 135.314 37.6169 135.867 38.554C137.111 40.7867 138.355 43.0194 139.627 45.2245Z" fill="#C8C8C8"/>
<path d="M139.627 45.2243C138.383 43.0192 137.111 40.7865 135.84 38.5814C135.287 37.6442 134.734 36.6795 134.153 35.7699C133.96 35.4942 133.683 35.2737 133.434 34.9981C133.462 34.9154 133.517 34.8327 133.545 34.75C137.609 34.7776 141.673 34.7776 145.765 34.8051C144.825 36.5141 143.857 38.2231 142.917 39.9045C141.922 41.6961 140.954 43.4878 139.959 45.2519C139.848 45.2519 139.738 45.2519 139.627 45.2243Z" fill="#D5D9DA"/>
<path d="M151.82 45.4453C152.041 45.6383 152.345 45.7761 152.483 45.9966C154.418 49.3043 156.326 52.6395 158.234 55.9472C154.253 55.9472 150.244 55.9472 146.262 55.9472C146.373 54.5966 147.313 53.6594 147.921 52.5568C149.055 50.5447 150.244 48.56 151.405 46.5479C151.571 46.2171 151.681 45.8036 151.82 45.4453Z" fill="#D9D9D9"/>
<g clip-path="url(#clip1_43_18715)">
<path d="M387.968 25.5C376.916 25.5 367.952 34.4573 367.952 45.5007V65.5H372.134V45.5007C372.134 36.6988 379.159 29.6783 387.968 29.6783H398.42V25.5H387.968Z" fill="#B9B9B9"/>
<path d="M403.801 25.5V45.5007C403.801 50.2826 401.726 54.5386 398.42 57.4276V34.2009H394.239V60.053C392.929 60.6112 391.526 60.9979 390.057 61.1884V41.362H385.876V61.3217H381.694V48.5231H377.513V65.4985H387.966C399.018 65.4985 407.981 56.5427 407.981 45.4993V25.5H403.801Z" fill="#D9D9D9"/>
<path d="M416.201 42.4391C415.518 42.1592 414.973 41.7446 414.564 41.1967C414.155 40.6488 413.939 39.9881 413.917 39.216H416.974C417.018 39.6526 417.169 39.9851 417.427 40.2151C417.685 40.4451 418.021 40.5594 418.434 40.5594C418.848 40.5594 419.195 40.4613 419.443 40.2649C419.689 40.0701 419.812 39.7976 419.812 39.4504C419.812 39.1588 419.714 38.9186 419.519 38.7281C419.323 38.5377 419.082 38.3809 418.796 38.2578C418.51 38.1348 418.104 37.9956 417.578 37.8388C416.816 37.6044 416.195 37.3686 415.713 37.1342C415.232 36.8997 414.817 36.5525 414.47 36.094C414.122 35.6354 413.949 35.0362 413.949 34.2978C413.949 33.202 414.347 32.342 415.141 31.7208C415.936 31.0997 416.972 30.7891 418.249 30.7891C419.526 30.7891 420.595 31.0997 421.391 31.7208C422.186 32.342 422.611 33.2064 422.668 34.314H419.56C419.538 33.933 419.397 33.6342 419.141 33.4159C418.883 33.1976 418.553 33.0892 418.15 33.0892C417.802 33.0892 417.522 33.1815 417.31 33.3661C417.097 33.5507 416.99 33.8173 416.99 34.1631C416.99 34.544 417.169 34.8399 417.528 35.0523C417.886 35.2648 418.446 35.4948 419.208 35.7409C419.969 35.9987 420.588 36.2449 421.064 36.4793C421.541 36.7137 421.952 37.055 422.299 37.5033C422.646 37.9516 422.819 38.5274 422.819 39.2321C422.819 39.9368 422.648 40.514 422.308 41.0619C421.966 41.6099 421.471 42.0464 420.821 42.3717C420.172 42.6969 419.405 42.8581 418.519 42.8581C417.634 42.8581 416.884 42.7189 416.201 42.4391Z" fill="#D9D9D9"/>
<path d="M424.851 33.7191C425.355 32.8064 426.058 32.0959 426.959 31.5875C427.861 31.0791 428.883 30.8242 430.025 30.8242C431.425 30.8242 432.623 31.1934 433.62 31.9318C434.617 32.6702 435.283 33.6781 435.618 34.9527H432.46C432.226 34.4604 431.891 34.0854 431.46 33.8276C431.029 33.5697 430.54 33.4422 429.99 33.4422C429.104 33.4422 428.389 33.7499 427.839 34.3652C427.291 34.9805 427.017 35.8039 427.017 36.8323C427.017 37.8608 427.291 38.6842 427.839 39.2995C428.387 39.9148 429.104 40.2225 429.99 40.2225C430.538 40.2225 431.028 40.0935 431.46 39.8371C431.891 39.5793 432.224 39.2057 432.46 38.712H435.618C435.283 39.988 434.616 40.9916 433.62 41.7256C432.623 42.4581 431.425 42.8244 430.025 42.8244C428.883 42.8244 427.861 42.5694 426.959 42.0611C426.058 41.5527 425.355 40.8436 424.851 39.9382C424.347 39.0314 424.094 37.9971 424.094 36.8323C424.094 35.6676 424.347 34.6304 424.851 33.7191Z" fill="#D9D9D9"/>
<path d="M439.911 42.0879C438.988 41.5737 438.253 40.8544 437.711 39.9314C437.167 39.0084 436.896 37.9697 436.896 36.8182C436.896 35.6667 437.167 34.6309 437.711 33.7123C438.253 32.7952 438.988 32.0788 439.911 31.5631C440.835 31.0489 441.851 30.791 442.96 30.791C444.068 30.791 445.084 31.0489 446.009 31.5631C446.933 32.0773 447.661 32.7937 448.192 33.7123C448.724 34.6294 448.99 35.6652 448.99 36.8182C448.99 37.9712 448.721 39.0084 448.183 39.9314C447.645 40.8544 446.918 41.5737 446 42.0879C445.083 42.6022 444.068 42.86 442.96 42.86C441.851 42.86 440.835 42.6022 439.911 42.0879ZM445.22 39.3014C445.786 38.6744 446.069 37.8467 446.069 36.8167C446.069 35.7868 445.786 34.9444 445.22 34.3247C444.654 33.7035 443.901 33.3929 442.961 33.3929C442.021 33.3929 441.25 33.7006 440.686 34.3159C440.12 34.9312 439.837 35.7648 439.837 36.8167C439.837 37.8686 440.12 38.689 440.686 39.3088C441.251 39.9299 442.009 40.2405 442.961 40.2405C443.913 40.2405 444.654 39.927 445.22 39.3V39.3014Z" fill="#D9D9D9"/>
<path d="M453.409 30.959V38.0088C453.409 38.7134 453.582 39.257 453.929 39.6364C454.277 40.0173 454.786 40.2078 455.458 40.2078C456.131 40.2078 456.645 40.0173 457.004 39.6364C457.362 39.2555 457.542 38.7134 457.542 38.0088V30.959H460.414V37.9926C460.414 39.0445 460.19 39.9338 459.743 40.6619C459.294 41.3901 458.693 41.938 457.936 42.3072C457.18 42.6764 456.338 42.861 455.409 42.861C454.479 42.861 453.648 42.6793 452.915 42.316C452.182 41.9526 451.601 41.4047 451.176 40.6707C450.751 39.9382 450.538 39.046 450.538 37.9941V30.9604H453.41L453.409 30.959Z" fill="#D9D9D9"/>
<path d="M470.913 30.9595V33.2596H467.789V42.7443H464.916V33.2581H461.792V30.958H470.913V30.9595Z" fill="#D9D9D9"/>
<path d="M421.206 53.364C420.926 53.8899 420.477 54.3177 419.862 54.6473C419.246 54.977 418.456 55.1425 417.494 55.1425H415.377V59.8761H413.462V48.21H417.494C418.39 48.21 419.149 48.3638 419.769 48.6715C420.391 48.9791 420.856 49.3966 421.164 49.9226C421.472 50.4485 421.625 51.036 421.625 51.685C421.625 52.2784 421.485 52.838 421.205 53.364H421.206ZM419.123 53.0871C419.48 52.7574 419.661 52.2901 419.661 51.685C419.661 50.409 418.938 49.7717 417.494 49.7717H415.377V53.5823H417.494C418.221 53.5823 418.765 53.4167 419.123 53.0871Z" fill="#B9B9B9"/>
<path d="M429.522 59.8761L426.835 55.2099H425.373V59.8761H423.458V48.21H427.49C428.386 48.21 429.145 48.3667 429.766 48.6802C430.387 48.9938 430.852 49.4128 431.16 49.9387C431.468 50.4647 431.622 51.0521 431.622 51.7012C431.622 52.463 431.4 53.153 430.958 53.7742C430.515 54.3954 429.835 54.8173 428.917 55.0414L431.807 59.8761H429.522ZM425.373 53.6819H427.49C428.207 53.6819 428.747 53.5032 429.112 53.1442C429.475 52.7867 429.657 52.3047 429.657 51.7012C429.657 51.0976 429.478 50.6243 429.119 50.283C428.76 49.9416 428.217 49.7717 427.49 49.7717H425.373V53.6834V53.6819Z" fill="#B9B9B9"/>
<path d="M436.399 59.2295C435.486 58.7212 434.764 58.0106 434.232 57.0979C433.7 56.1866 433.435 55.1596 433.435 54.0169C433.435 52.8742 433.7 51.8516 434.232 50.9447C434.764 50.0379 435.486 49.3303 436.399 48.8219C437.311 48.3135 438.311 48.0586 439.397 48.0586C440.484 48.0586 441.5 48.3135 442.413 48.8219C443.325 49.3317 444.045 50.0393 444.571 50.9447C445.098 51.8516 445.36 52.8756 445.36 54.0169C445.36 55.1582 445.096 56.1852 444.571 57.0979C444.045 58.0106 443.325 58.7212 442.413 59.2295C441.5 59.7394 440.496 59.9928 439.397 59.9928C438.299 59.9928 437.311 59.7379 436.399 59.2295ZM441.463 57.8026C442.067 57.4495 442.541 56.947 442.882 56.2921C443.224 55.6372 443.394 54.8798 443.394 54.0169C443.394 53.154 443.223 52.3995 442.882 51.7505C442.541 51.1015 442.067 50.6034 441.463 50.2562C440.859 49.9089 440.17 49.7361 439.397 49.7361C438.625 49.7361 437.936 49.9104 437.332 50.2562C436.728 50.6034 436.254 51.1015 435.912 51.7505C435.571 52.3995 435.399 53.1555 435.399 54.0169C435.399 54.8784 435.569 55.6372 435.912 56.2921C436.254 56.947 436.728 57.451 437.332 57.8026C437.936 58.1557 438.625 58.3315 439.397 58.3315C440.17 58.3315 440.859 58.1557 441.463 57.8026Z" fill="#B9B9B9"/>
<path d="M448.974 59.5831C448.346 59.3091 447.854 58.9194 447.496 58.4169C447.137 57.9129 446.958 57.3255 446.958 56.6545H449.008C449.052 57.1584 449.251 57.5716 449.604 57.8968C449.958 58.2221 450.453 58.3832 451.091 58.3832C451.729 58.3832 452.267 58.2235 452.636 57.9042C453.006 57.5848 453.191 57.1746 453.191 56.6706C453.191 56.2794 453.076 55.96 452.846 55.7139C452.616 55.4678 452.331 55.2773 451.99 55.1426C451.648 55.0078 451.175 54.8627 450.571 54.706C449.808 54.5038 449.189 54.3002 448.714 54.0936C448.238 53.887 447.833 53.5647 447.496 53.1281C447.16 52.6915 446.992 52.1099 446.992 51.3818C446.992 50.7108 447.16 50.1233 447.496 49.6194C447.832 49.1154 448.302 48.7301 448.907 48.4605C449.511 48.1924 450.211 48.0576 451.006 48.0576C452.136 48.0576 453.065 48.3404 453.786 48.9059C454.509 49.4714 454.909 50.2464 454.987 51.2309H452.87C452.836 50.806 452.635 50.4427 452.265 50.1394C451.896 49.8362 451.409 49.6867 450.804 49.6867C450.255 49.6867 449.807 49.8274 449.459 50.1072C449.112 50.387 448.939 50.7899 448.939 51.3159C448.939 51.6748 449.049 51.9678 449.266 52.1978C449.484 52.4278 449.761 52.6095 450.097 52.7428C450.433 52.8776 450.892 53.0226 451.474 53.1794C452.246 53.3918 452.877 53.6043 453.364 53.8167C453.85 54.0291 454.265 54.3573 454.607 54.7983C454.949 55.2407 455.119 55.8311 455.119 56.5695C455.119 57.1628 454.959 57.7225 454.639 58.2484C454.32 58.7744 453.855 59.1963 453.245 59.5157C452.635 59.8351 451.915 59.9933 451.087 59.9933C450.302 59.9933 449.597 59.8571 448.97 59.5816L448.974 59.5831Z" fill="#B9B9B9"/>
<path d="M465.134 53.364C464.854 53.8899 464.405 54.3177 463.789 54.6473C463.174 54.977 462.383 55.1425 461.422 55.1425H459.304V59.8761H457.39V48.21H461.422C462.317 48.21 463.077 48.3638 463.697 48.6715C464.319 48.9791 464.783 49.3966 465.091 49.9226C465.399 50.4485 465.553 51.036 465.553 51.685C465.553 52.2784 465.412 52.838 465.132 53.364H465.134ZM463.05 53.0871C463.408 52.7574 463.589 52.2901 463.589 51.685C463.589 50.409 462.866 49.7717 461.422 49.7717H459.304V53.5823H461.422C462.149 53.5823 462.693 53.4167 463.05 53.0871Z" fill="#B9B9B9"/>
<path d="M469.3 49.7536V53.1774H473.332V54.7392H469.3V58.3153H473.835V59.8771H467.384V48.1934H473.835V49.7551H469.3V49.7536Z" fill="#B9B9B9"/>
<path d="M476.347 50.9467C476.88 50.0398 477.601 49.3322 478.514 48.8238C479.426 48.3155 480.426 48.0605 481.513 48.0605C482.756 48.0605 483.861 48.3653 484.831 48.9747C485.8 49.5842 486.502 50.4486 486.939 51.5679H484.637C484.335 50.9525 483.914 50.494 483.378 50.1907C482.84 49.8889 482.218 49.738 481.513 49.738C480.74 49.738 480.051 49.9124 479.447 50.2581C478.843 50.6053 478.369 51.1034 478.028 51.7524C477.686 52.4015 477.514 53.1574 477.514 54.0189C477.514 54.8803 477.685 55.6363 478.028 56.2853C478.369 56.9343 478.843 57.4353 479.447 57.787C480.051 58.14 480.74 58.3158 481.513 58.3158C482.218 58.3158 482.84 58.1649 483.378 57.8631C483.916 57.5613 484.335 57.1028 484.637 56.486H486.939C486.502 57.6053 485.8 58.4667 484.831 59.0703C483.861 59.6739 482.756 59.9772 481.513 59.9772C480.414 59.9772 479.413 59.7223 478.506 59.2139C477.598 58.7041 476.878 57.9965 476.347 57.0911C475.815 56.1842 475.55 55.1601 475.55 54.0189C475.55 52.8776 475.815 51.8535 476.347 50.9467Z" fill="#B9B9B9"/>
<path d="M496.715 48.21V49.7717H493.606V59.8761H491.692V49.7717H488.567V48.21H496.715Z" fill="#B9B9B9"/>
</g>
<g clip-path="url(#clip2_43_18715)">
<path d="M593.043 36.5859H589.72L589.53 34.8086H585.477L584.641 36.5859H581.208L587.367 24.2646H591.159L593.043 36.5859ZM588.782 27.8385L586.764 32.0974H589.244L588.782 27.8385Z" fill="#C8C8C8"/>
<path d="M600.578 24.2646L598.961 33.5408H603.157L602.634 36.5859H595.327L597.467 24.2646H600.578Z" fill="#C8C8C8"/>
<path d="M605.152 36.5859L607.292 24.2646H610.406L608.266 36.5859H605.152Z" fill="#C8C8C8"/>
<path d="M618.756 29.527H624.897L624.688 30.7775C624.398 32.6442 623.615 34.1236 622.34 35.2159C621.065 36.3081 619.511 36.8542 617.678 36.8542C615.771 36.8542 614.309 36.2206 613.292 34.9534C612.275 33.6862 611.909 32.1193 612.195 30.2526C612.461 28.5035 613.342 26.9101 614.674 25.7641C615.98 24.6012 617.667 23.9735 619.406 24.0042C620.482 23.9825 621.544 24.2488 622.485 24.776C623.351 25.2714 624.054 26.0154 624.503 26.9142L621.642 28.458C621.133 27.5433 620.281 27.0859 619.084 27.0859C618.173 27.0785 617.29 27.4102 616.605 28.018C615.906 28.6442 615.445 29.4971 615.3 30.4301C615.127 31.4143 615.284 32.2351 615.769 32.8925C616.255 33.5499 616.985 33.8715 617.961 33.8573C619.446 33.8573 620.495 33.3176 621.11 32.2383H618.293L618.756 29.527Z" fill="#C8C8C8"/>
<path d="M629.629 36.5859H626.515L628.655 24.2646H631.073L634.239 30.706L635.37 24.2646H638.466L636.326 36.5859H633.927L630.76 30.1445L629.629 36.5859Z" fill="#C8C8C8"/>
<path d="M650.904 24.2646H654.21L652.07 36.5859H648.978L650.122 29.9322L646.308 34.8955H645.995L643.924 29.8454L642.758 36.5859H639.644L641.784 24.2646H644.898L646.882 29.581L650.904 24.2646Z" fill="#C8C8C8"/>
<path d="M665.274 24.2646L664.751 27.2036H660.141L659.829 28.9288H664.046L663.523 31.8234H659.348L659.035 33.6373H663.733L663.227 36.5936H655.407L657.547 24.2724L665.274 24.2646Z" fill="#C8C8C8"/>
<path d="M669.206 36.5859H666.091L668.231 24.2646H670.649L673.816 30.706L674.947 24.2646H678.042L675.904 36.5859H673.503L670.34 30.1387L669.206 36.5859Z" fill="#C8C8C8"/>
<path d="M680.583 24.2646H689.717L689.177 27.3097H686.184L684.567 36.5859H681.452L683.07 27.3097H680.068L680.583 24.2646Z" fill="#C8C8C8"/>
<path d="M585.605 66.9963C581.935 66.9963 579.084 65.7503 577.053 63.2584C575.047 60.7909 574.34 57.7105 574.932 54.017C575.437 50.5831 577.15 47.4488 579.756 45.1904C582.402 42.8825 585.504 41.7285 589.061 41.7285C591.363 41.7285 593.347 42.2303 595.014 43.2337C596.681 44.2425 598.015 45.7295 598.846 47.5061L593.235 50.5184C592.323 48.6968 590.738 47.7852 588.48 47.784C586.681 47.7653 584.939 48.4188 583.588 49.6191C582.214 50.8504 581.308 52.5267 581.022 54.3605C580.702 56.2979 580.998 57.8784 581.911 59.1018C582.846 60.3253 584.214 60.937 586.017 60.937C588.32 60.937 590.19 59.9676 591.627 58.0289L596.656 61.3094C595.413 63.0789 593.764 64.5161 591.85 65.4969C589.917 66.4943 587.775 67.0085 585.605 66.9963Z" fill="#D9D9D9"/>
<path d="M616.154 51.2184L617.728 42.2529H623.817L619.606 66.4806H613.518L615.126 57.1716H608.386L606.778 66.4806H600.656L604.863 42.2529H610.987L609.414 51.2184H616.154Z" fill="#D9D9D9"/>
<path d="M647.352 66.4806H640.82L640.438 62.9859H632.468L630.826 66.4806H624.087L636.2 42.2529H643.658L647.352 66.4806ZM638.972 49.279L635.003 57.656H639.86L638.972 49.279Z" fill="#D9D9D9"/>
<path d="M651.839 66.4806L656.035 42.2529H662.157L657.95 66.4806H651.839Z" fill="#D9D9D9"/>
<path d="M670.579 66.4806H664.456L668.664 42.2529H673.419L679.644 54.9215L681.868 42.2529H687.958L683.75 66.4806H679.03L672.803 53.8139L670.579 66.4806Z" fill="#D9D9D9"/>
<path d="M561.116 28.8845L556.132 37.8442C557.058 37.41 558.039 37.1055 559.046 36.9392C559.866 36.8026 560.697 36.7592 561.526 36.8099L564.732 31.0439C566.067 28.6433 569.119 27.7421 571.474 29.1335C572.574 29.7872 573.376 30.8509 573.709 32.0963C574.042 33.3416 573.879 34.6695 573.256 35.7949L570.013 41.6362L568.836 43.7589L568.203 44.8954C567.632 45.9257 566.711 46.7119 565.611 47.1088C564.94 47.3543 564.224 47.4473 563.513 47.3809C562.83 47.3195 562.167 47.1116 561.57 46.7711C561.467 46.7132 561.368 46.6515 561.27 46.5781C560.84 46.2841 560.316 46.1667 559.804 46.2498C559.291 46.333 558.83 46.6105 558.512 47.0259L558.423 47.1436C558.256 47.3654 558.136 47.619 558.07 47.8892C558.003 48.1594 557.991 48.4404 558.036 48.7153C558.08 48.9901 558.178 49.253 558.326 49.488C558.473 49.7231 558.667 49.9254 558.894 50.0826C559.085 50.2176 559.298 50.3469 559.51 50.4685C560.328 50.935 561.213 51.2696 562.132 51.4604C562.893 51.6191 563.671 51.6768 564.446 51.6321C566.412 51.5234 568.29 50.7725 569.798 49.492C570.627 48.7842 571.324 47.9312 571.856 46.9738L571.932 46.8387L576.916 37.8771C577.499 36.8273 577.873 35.6715 578.015 34.4756C578.158 33.2797 578.066 32.0672 577.745 30.9073C577.424 29.7474 576.88 28.6628 576.145 27.7154C575.41 26.7681 574.497 25.9765 573.46 25.3859C571.364 24.194 568.887 23.8929 566.572 24.549C564.257 25.2051 562.294 26.7646 561.116 28.8845Z" fill="#D9D9D9"/>
<path d="M562.664 39.0985C561.903 38.9398 561.126 38.8821 560.35 38.9267C559.425 38.9792 558.513 39.1745 557.646 39.5057C556.682 39.8724 555.787 40.4023 554.999 41.0726C554.169 41.7775 553.472 42.6271 552.939 43.5812L552.864 43.7163L547.881 52.6779C547.297 53.7277 546.923 54.8835 546.781 56.0794C546.639 57.2753 546.731 58.4877 547.052 59.6476C547.373 60.8076 547.916 61.8922 548.651 62.8395C549.387 63.7869 550.299 64.5785 551.337 65.169C552.374 65.7596 553.517 66.1377 554.698 66.2816C555.88 66.4255 557.079 66.3324 558.225 66.0077C559.372 65.683 560.444 65.133 561.38 64.3892C562.316 63.6453 563.099 62.7221 563.682 61.6723L568.666 52.7127C566.98 53.503 565.126 53.8584 563.27 53.747L560.064 59.513C558.729 61.9136 555.678 62.8148 553.322 61.4235C552.222 60.77 551.42 59.7064 551.087 58.4608C550.754 57.2153 550.917 55.8873 551.541 54.762L554.783 48.9188L555.962 46.7961L556.593 45.6595C556.797 45.294 557.047 44.9562 557.335 44.6541C557.852 44.1129 558.486 43.6996 559.187 43.4461C559.858 43.2008 560.574 43.1073 561.285 43.1721C561.968 43.2352 562.63 43.4436 563.228 43.7838C563.33 43.8417 563.431 43.9035 563.528 43.9768C563.958 44.2709 564.482 44.3883 564.994 44.3051C565.507 44.222 565.969 43.9445 566.286 43.5291L566.375 43.4114C566.542 43.1896 566.662 42.9359 566.729 42.6656C566.795 42.3953 566.807 42.1141 566.763 41.8392C566.718 41.5642 566.619 41.3013 566.471 41.0663C566.324 40.8314 566.13 40.6293 565.902 40.4724C565.712 40.3374 565.5 40.2081 565.286 40.0865C564.468 39.6209 563.584 39.2875 562.664 39.0985Z" fill="#D9D9D9"/>
</g>
<g clip-path="url(#clip3_43_18715)">
<path d="M770.695 38.9403L772.633 37.8062C772.193 36.6869 771.296 34.6709 770.695 33.6621V38.9403Z" fill="#D9D9D9"/>
<path d="M770.695 38.9408L772.588 40.0486C772.775 39.5391 773.007 38.9108 772.862 38.4361C772.82 38.2977 772.74 38.0782 772.633 37.8057L770.695 38.9408Z" fill="#D9D9D9"/>
<path d="M770.695 44.3215L773.398 42.7398C773.312 42.6504 773.222 42.5605 773.125 42.4688C772.623 41.992 772.392 41.2117 772.392 40.7546C772.392 40.5896 772.483 40.3382 772.588 40.0491L770.695 38.9414V44.3215Z" fill="#D9D9D9"/>
<path d="M770.695 44.321L774.524 46.5612C774.757 46.4376 774.943 46.2384 775.052 45.9952C775.246 45.5751 775.281 45.308 775.108 44.931C774.914 44.5111 774.704 44.3527 774.366 43.8958C774.089 43.5215 773.789 43.1408 773.399 42.7383L770.695 44.32L770.695 44.321Z" fill="#D9D9D9"/>
<path d="M770.695 49.7006L773.725 47.9276C773.625 47.6502 773.542 47.4127 773.52 47.3243C773.464 47.0958 773.708 47.0196 773.877 46.8481C773.975 46.7482 774.249 46.7121 774.524 46.5614L770.695 44.3213L770.695 49.7006Z" fill="#D9D9D9"/>
<path d="M770.691 49.7L773.925 51.5921C774.014 51.4324 774.08 51.294 774.08 51.2449C774.08 51.1306 773.967 50.7305 773.798 50.559C773.677 50.4326 773.564 50.299 773.46 50.1589L773.89 49.8101C773.89 49.8101 774.265 49.4619 774.152 49.1189C774.083 48.9087 773.882 48.3665 773.722 47.9258L770.691 49.699L770.691 49.7Z" fill="#D9D9D9"/>
<path d="M770.695 55.0811L773.506 53.4367C773.392 53.1768 773.274 52.9499 773.238 52.8096C773.182 52.5809 773.389 52.4116 773.558 52.1825C773.692 51.9931 773.816 51.7964 773.929 51.5933L770.695 49.7012V55.0811Z" fill="#D9D9D9"/>
<path d="M770.695 55.0816L773.018 56.4407C773.036 56.4299 773.053 56.4191 773.069 56.4086C773.407 56.1801 773.689 55.7227 773.802 55.323C773.915 54.9232 773.802 54.4087 773.689 53.9513C773.643 53.7745 773.581 53.6019 773.506 53.4355L770.695 55.08V55.0816Z" fill="#D9D9D9"/>
<path d="M771.434 56.9254C771.864 56.9254 772.652 56.6659 773.017 56.4437L770.695 55.085V56.9017C771.01 56.9124 771.281 56.9254 771.434 56.9254Z" fill="#D9D9D9"/>
<path d="M770.595 33.502L770.584 33.4843C769.851 32.3423 768.105 31.2681 767.09 30.4118C767.06 30.3865 767.03 30.3645 767 30.3398L766.095 30.8689L770.595 33.502Z" fill="#D9D9D9"/>
<path d="M770.648 33.5859C770.63 33.5571 770.613 33.5292 770.596 33.5022L766.095 30.8691V36.2495L770.648 33.5859Z" fill="#8A8A8A"/>
<path d="M770.693 38.9408V33.6626C770.678 33.6371 770.662 33.6112 770.647 33.5869L766.095 36.2505L770.693 38.9408Z" fill="#D9D9D9"/>
<path d="M770.693 38.9412L766.095 36.251H766.095V36.2512V41.6313H766.095L770.693 38.9412Z" fill="#8A8A8A"/>
<path d="M770.693 38.9414L766.095 41.6315L770.693 44.3217V38.9424V38.9416V38.9414H770.693Z" fill="#D9D9D9"/>
<path d="M770.693 44.3205L770.693 44.3201H770.693L766.095 41.6299H766.095V41.6301V47.0104L770.692 44.3207L770.693 44.3205Z" fill="#8A8A8A"/>
<path d="M770.693 44.3211V44.3203L770.693 44.3207L770.692 44.3209L766.095 47.0106L770.693 49.7006H770.693V49.7004V44.3211Z" fill="#D9D9D9"/>
<path d="M770.693 49.7008L766.095 47.0107H766.095V52.3911L770.693 49.7008Z" fill="#8A8A8A"/>
<path d="M766.095 52.3914H766.095L770.692 55.0811L770.693 55.0817H770.693V49.7022V49.7014V49.7012H770.693L766.095 52.3914Z" fill="#D9D9D9"/>
<path d="M770.693 55.0828L770.693 55.0824L770.692 55.0822L766.095 52.3926V57.7729H766.095L770.693 55.0828Z" fill="#8A8A8A"/>
<path d="M770.693 55.083L766.095 57.7731L767.576 58.6396C767.714 58.4001 767.832 58.2477 767.863 58.1889C768.054 57.835 768.269 57.147 768.838 56.9826C769.282 56.8544 770.077 56.8809 770.693 56.9017V55.0842V55.083Z" fill="#D9D9D9"/>
<path d="M766.095 57.7734V61.4096C766.596 60.4433 767.211 59.2748 767.576 58.6398L766.095 57.7734Z" fill="#8A8A8A"/>
<path d="M766.095 30.8685L767 30.3394C766.713 30.1036 766.411 29.888 766.095 29.6943V30.8685Z" fill="#8A8A8A"/>
<path d="M766.093 29.6951C765.396 29.2675 764.675 28.9681 763.875 28.698C763.327 28.5131 762.454 28.3771 761.673 28.2842L766.093 30.8708V29.6951Z" fill="#A8A8A8"/>
<path d="M761.495 33.5615L766.093 30.8718L761.672 28.2852C761.612 28.2782 761.553 28.2713 761.495 28.2656V33.5615Z" fill="#999999"/>
<path d="M761.496 33.559H761.495L761.496 33.5592V33.5598L766.093 36.2497V30.8691L761.496 33.5588V33.559Z" fill="#A8A8A8"/>
<path d="M761.495 38.9399L766.093 36.2502L761.495 33.5605V38.9399Z" fill="#999999"/>
<path d="M761.495 38.9408V38.9416L766.093 41.6313H766.093V36.251H766.093L761.495 38.9406V38.9408Z" fill="#A8A8A8"/>
<path d="M766.093 41.6311L761.495 38.9414V44.3207L766.093 41.6311Z" fill="#999999"/>
<path d="M761.496 44.3215L761.495 44.3219L761.496 44.3221L761.496 44.3217V44.3225L766.094 47.0122V41.632V41.6318H766.094L761.496 44.3215Z" fill="#A8A8A8"/>
<path d="M761.495 49.7006L766.093 47.011H766.093L761.495 44.3213V49.7006Z" fill="#999999"/>
<path d="M761.495 49.7006V49.7014L766.093 52.3911H766.093V47.0107L761.495 49.7006Z" fill="#A8A8A8"/>
<path d="M766.093 52.3918L761.495 49.7021V55.0817L766.093 52.3918Z" fill="#999999"/>
<path d="M761.496 55.0824H761.496L761.496 55.0828L761.496 55.0832V55.0834L766.094 57.7731V52.3928V52.3926H766.094L761.496 55.0824Z" fill="#A8A8A8"/>
<path d="M766.093 57.7746L761.495 55.085V60.4643L766.093 57.7746Z" fill="#999999"/>
<path d="M761.495 60.4631L765.403 62.7493C765.544 62.4736 765.799 61.9774 766.094 61.409V57.7734L761.495 60.4631Z" fill="#A8A8A8"/>
<path d="M761.498 33.561V28.2633C761.458 28.2586 761.418 28.2543 761.378 28.25L756.9 30.8699L761.497 33.5596L761.498 33.561Z" fill="#B8B8B8"/>
<path d="M761.498 33.5594L761.498 33.5592L761.497 33.559L756.9 30.8691V36.2497L761.498 33.5594Z" fill="#CFCFCF"/>
<path d="M761.498 38.9399V33.5605V33.5602V33.5596L756.9 36.2498L761.497 38.9395L761.498 38.9399H761.498Z" fill="#B8B8B8"/>
<path d="M761.498 44.3217V38.9424V38.9416V38.9414H761.498L761.497 38.9418L756.9 41.6315L761.498 44.3217Z" fill="#B8B8B8"/>
<path d="M761.497 44.3205L761.498 44.3201L756.9 41.6299V47.0104L761.497 44.3207L761.497 44.3205Z" fill="#E5E5E5"/>
<path d="M761.498 49.7006V49.7004V44.3211V44.3203L761.497 44.3207L761.497 44.3209L756.9 47.0106L761.498 49.7006Z" fill="#B8B8B8"/>
<path d="M761.498 49.7008L756.9 47.0107V52.3911L761.498 49.7008Z" fill="#CFCFCF"/>
<path d="M761.498 55.0817V49.7022V49.7014V49.7012L756.9 52.3914L761.497 55.0811L761.498 55.0817H761.498Z" fill="#B8B8B8"/>
<path d="M761.498 55.0828L761.497 55.0824L761.497 55.0822L756.9 52.3926V57.7731L761.498 55.0828Z" fill="#E5E5E5"/>
<path d="M761.498 60.4633V55.084V55.0832V55.083L756.9 57.7733L761.497 60.4629L761.498 60.4633H761.498Z" fill="#B8B8B8"/>
<path d="M756.859 36.3996L752.261 33.71V39.0893L756.859 36.3996Z" fill="#D6D6D6"/>
<path d="M756.859 36.4004L752.262 39.0901V39.0903V39.0901L752.261 39.0906L756.859 41.7807H756.859V36.4004Z" fill="#B4B4B4"/>
<path d="M752.262 44.469L756.859 47.1588V41.7785V41.7783H756.859L752.261 44.4686H752.261L752.262 44.4684V44.469Z" fill="#B4B4B4"/>
<path d="M752.262 49.8508L752.261 49.8512L756.859 52.5415V47.1611L752.262 49.8508V49.851V49.8508Z" fill="#B4B4B4"/>
<path d="M752.261 49.8506V55.2311L756.859 52.5408L752.261 49.8506Z" fill="#D6D6D6"/>
<path d="M752.26 33.7086V28.3281L747.661 31.0184L752.26 33.7086Z" fill="#E5E5E5"/>
<path d="M752.26 39.0885V39.0883V33.709V33.708L752.259 33.7086L747.662 36.3983L752.259 39.0879L752.26 39.0883V39.0885Z" fill="#E5E5E5"/>
<path d="M752.26 44.4697L752.259 44.4699L747.661 47.1598L752.26 49.85V49.8502V49.85V44.4703V44.4697Z" fill="#E5E5E5"/>
<path d="M743.062 39.0889V44.4694L747.66 41.7791L743.062 39.0889Z" fill="#D6D6D6"/>
</g>
<path d="M780.288 42.1895C780.266 42.1895 780.25 42.2112 780.256 42.2327L783.925 54.2353C783.929 54.2494 783.942 54.259 783.957 54.259H786.095C786.11 54.259 786.123 54.2495 786.127 54.2355L789.223 44.3065L792.327 54.259L796.041 42.1895L793.315 51.0476L792.327 54.259L789.223 44.3065L788.041 42.2557C788.026 42.2304 787.988 42.2346 787.98 42.2625L785.085 51.5476C785.075 51.5794 785.03 51.5788 785.021 51.5468L782.387 42.2139C782.383 42.1994 782.37 42.1895 782.355 42.1895H780.288Z" fill="#D9D9D9"/>
<path d="M786.956 42.1898C786.934 42.1898 786.918 42.2116 786.924 42.2331L790.593 54.2357C790.597 54.2498 790.61 54.2594 790.625 54.2594H792.763C792.778 54.2594 792.791 54.2499 792.795 54.2359L795.891 44.3069L796.529 42.2328C796.536 42.2113 796.52 42.1895 796.497 42.1895L794.695 42.1898C794.68 42.1898 794.667 42.1994 794.663 42.2134L791.753 51.548C791.743 51.5798 791.698 51.5792 791.689 51.5471L789.055 42.2142C789.051 42.1998 789.038 42.1898 789.023 42.1898H786.956Z" fill="#D9D9D9"/>
<path d="M798.566 39.124C798.842 39.3835 799.183 39.5133 799.588 39.5133C799.978 39.5133 800.31 39.3835 800.586 39.124C800.862 38.8482 801 38.5075 801 38.102C801 37.7126 800.862 37.3882 800.586 37.1286C800.31 36.869 799.978 36.7393 799.588 36.7393C799.183 36.7393 798.842 36.869 798.566 37.1286C798.307 37.3882 798.177 37.7126 798.177 38.102C798.177 38.5075 798.307 38.8482 798.566 39.124Z" fill="#D9D9D9"/>
<path d="M798.566 42.2235V54.2261C798.566 54.2446 798.581 54.2596 798.6 54.2596H800.577C800.595 54.2596 800.61 54.2446 800.61 54.2261V42.2235C800.61 42.205 800.595 42.19 800.577 42.19H798.6C798.581 42.19 798.566 42.205 798.566 42.2235Z" fill="#D9D9D9"/>
<path d="M802.633 42.2239V54.2265C802.633 54.245 802.648 54.26 802.667 54.26H804.644C804.662 54.26 804.677 54.245 804.677 54.2265V48.0063C804.677 46.6111 805.018 45.5404 805.699 44.7942C806.397 44.0317 807.265 43.6505 808.303 43.6505C810.379 43.6505 811.418 44.9077 811.418 47.4222V54.2265C811.418 54.245 811.433 54.26 811.451 54.26H813.428C813.447 54.26 813.462 54.245 813.462 54.2265V47.2032C813.462 45.4025 813.032 44.0723 812.172 43.2125C811.328 42.3364 810.193 41.8984 808.765 41.8984C807.841 41.8984 807.013 42.1174 806.283 42.5554C805.588 42.9722 805.048 43.5359 804.662 44.2465C804.646 44.2766 804.599 44.2666 804.597 44.2325L804.484 42.2221C804.483 42.2043 804.469 42.1904 804.451 42.1904H802.667C802.648 42.1904 802.633 42.2054 802.633 42.2239Z" fill="#D9D9D9"/>
<path d="M815.095 42.2239V54.2265C815.095 54.245 815.11 54.26 815.128 54.26H817.105C817.124 54.26 817.139 54.245 817.139 54.2265V48.0063C817.139 46.6111 817.479 45.5404 818.161 44.7942C818.858 44.0317 819.726 43.6505 820.764 43.6505C822.841 43.6505 823.879 44.9077 823.879 47.4222V54.2265C823.879 54.245 823.894 54.26 823.913 54.26H825.89C825.908 54.26 825.923 54.245 825.923 54.2265V47.2032C825.923 45.4025 825.493 44.0723 824.634 43.2125C823.79 42.3364 822.654 41.8984 821.227 41.8984C820.302 41.8984 819.475 42.1174 818.745 42.5554C818.05 42.9722 817.51 43.5359 817.124 44.2465C817.107 44.2766 817.061 44.2666 817.059 44.2325L816.946 42.2221C816.945 42.2043 816.93 42.1904 816.912 42.1904H815.128C815.11 42.1904 815.095 42.2054 815.095 42.2239Z" fill="#D9D9D9"/>
<path d="M833.568 54.2601C832.433 54.2601 831.41 54.0005 830.502 53.4813C829.594 52.9623 828.872 52.2322 828.336 51.2913C827.817 50.3342 827.558 49.2148 827.558 47.9332C827.558 46.6517 827.825 45.5404 828.361 44.5995C828.896 43.6424 829.618 42.9042 830.526 42.3851C831.451 41.866 832.481 41.6064 833.617 41.6064C834.752 41.6064 835.774 41.866 836.683 42.3851C837.591 42.9042 838.305 43.6424 838.824 44.5995C839.36 45.5404 839.627 46.6517 839.627 47.9332C839.627 49.2148 839.36 50.3342 838.824 51.2913C838.289 52.2322 837.559 52.9623 836.634 53.4813C835.726 54.0005 834.704 54.2601 833.568 54.2601ZM833.568 52.508C834.266 52.508 834.915 52.3377 835.515 51.997C836.115 51.6564 836.602 51.1453 836.975 50.464C837.348 49.7826 837.535 48.939 837.535 47.9332C837.535 46.9275 837.348 46.0839 836.975 45.4025C836.618 44.7211 836.139 44.2101 835.539 43.8695C834.939 43.5288 834.298 43.3585 833.617 43.3585C832.919 43.3585 832.27 43.5288 831.67 43.8695C831.07 44.2101 830.583 44.7211 830.21 45.4025C829.837 46.0839 829.65 46.9275 829.65 47.9332C829.65 48.939 829.837 49.7826 830.21 50.464C830.583 51.1453 831.062 51.6564 831.646 51.997C832.246 52.3377 832.887 52.508 833.568 52.508Z" fill="#D9D9D9"/>
<path d="M841.306 42.1895C841.283 42.1895 841.267 42.2112 841.274 42.2327L844.942 54.2353C844.947 54.2494 844.96 54.259 844.974 54.259H847.113C847.127 54.259 847.14 54.2495 847.145 54.2355L850.241 44.3065L853.345 54.259L857.059 42.1895L854.333 51.0476L853.345 54.259L850.241 44.3065L849.058 42.2557C849.044 42.2304 849.006 42.2346 848.997 42.2625L846.102 51.5476C846.093 51.5794 846.047 51.5788 846.038 51.5468L843.405 42.2139C843.401 42.1994 843.387 42.1895 843.372 42.1895H841.306Z" fill="#D9D9D9"/>
<path d="M847.974 42.1898C847.951 42.1898 847.935 42.2116 847.942 42.2331L851.61 54.2357C851.615 54.2498 851.628 54.2594 851.642 54.2594H853.781C853.795 54.2594 853.808 54.2499 853.813 54.2359L856.909 44.3069L857.547 42.2328C857.553 42.2113 857.537 42.1895 857.515 42.1895L855.713 42.1898C855.698 42.1898 855.685 42.1994 855.681 42.2134L852.77 51.548C852.761 51.5798 852.715 51.5792 852.706 51.5471L850.073 42.2142C850.068 42.1998 850.055 42.1898 850.04 42.1898H847.974Z" fill="#D9D9D9"/>
<path d="M859.909 54.2597C859.891 54.2597 859.876 54.2447 859.876 54.2262V51.4365C859.876 51.418 859.861 51.403 859.842 51.403H858.933C858.915 51.403 858.9 51.388 858.9 51.3695V50.9437C858.9 50.9252 858.915 50.9102 858.933 50.9102H861.436C861.454 50.9102 861.469 50.9252 861.469 50.9437V51.3695C861.469 51.388 861.454 51.403 861.436 51.403H860.522C860.503 51.403 860.488 51.418 860.488 51.4365V54.2262C860.488 54.2447 860.473 54.2597 860.455 54.2597H859.909ZM861.956 54.2597C861.938 54.2597 861.923 54.2447 861.923 54.2262V50.9437C861.923 50.9252 861.938 50.9102 861.956 50.9102H862.63C862.642 50.9102 862.654 50.9173 862.66 50.9286L863.687 52.9747C863.7 52.9994 863.735 52.9993 863.747 52.9745L864.761 50.9288C864.766 50.9174 864.778 50.9102 864.791 50.9102H865.464C865.482 50.9102 865.497 50.9252 865.497 50.9437V54.2262C865.497 54.2447 865.482 54.2597 865.464 54.2597H864.918C864.9 54.2597 864.885 54.2447 864.885 54.2262V52.0881C864.885 52.0529 864.837 52.0415 864.822 52.0729L863.961 53.7629C863.955 53.7741 863.944 53.7812 863.931 53.7812H863.489C863.476 53.7812 863.465 53.7741 863.459 53.7629L862.599 52.0729C862.583 52.0415 862.535 52.0529 862.535 52.0881V54.2262C862.535 54.2447 862.52 54.2597 862.502 54.2597H861.956Z" fill="#D9D9D9"/>
<path d="M932.386 59.7113L963.935 25.9316L969.407 31.3413L938.472 65.492L932.386 59.7113Z" fill="#EEEEEE" stroke="#CFCFCF" stroke-width="0.211553" stroke-miterlimit="10"/>
<path d="M964.081 28.0484L967.714 31.416L938.219 63.2342L934.368 59.9941L964.081 28.0484ZM963.971 25.085L931.329 60.179L938.397 66.1262L970.677 31.3025L963.971 25.085Z" fill="#D9D9D9"/>
<path d="M964.25 27.5687L968.251 31.3902L957.029 43.576L955.315 45.438L957.217 47.1096L969.3 57.7353L965.966 61.546L953.4 50.6587L951.563 49.0676L949.934 50.8708L938.548 63.4652L934.487 59.7583L945.774 47.8743L947.499 46.0571L945.66 44.3546L933.155 32.7693L936.579 29.1382L948.745 40.7637L950.579 42.5173L952.292 40.646L964.252 27.5703M964.131 24.0273L950.46 38.9744L936.488 25.6216L929.636 32.8854L943.974 46.1686L930.949 59.8821L938.717 66.9725L951.776 52.5285L966.208 65.0347L972.793 57.5078L958.855 45.2507L971.723 31.2772L964.131 24.0273Z" fill="#D9D9D9"/>
<path d="M950.47 27.5983C950.496 27.5983 950.524 27.5983 950.55 27.5999C950.997 27.6203 951.409 27.8198 951.711 28.1575C952.012 28.4953 952.167 28.9351 952.146 29.3938C952.104 30.3127 951.371 31.0322 950.476 31.0322C950.45 31.0322 950.423 31.0322 950.397 31.0306C949.475 30.9866 948.758 30.1823 948.801 29.2367C948.843 28.3177 949.576 27.5983 950.47 27.5983ZM950.47 25.085C948.279 25.085 946.455 26.8537 946.353 29.122C946.248 31.4563 948.008 33.4355 950.284 33.5424C950.348 33.5455 950.412 33.5471 950.476 33.5471C952.668 33.5471 954.492 31.7783 954.594 29.51C954.698 27.1757 952.939 25.1965 950.663 25.0897C950.599 25.0865 950.535 25.085 950.47 25.085Z" fill="#D9D9D9"/>
<path d="M952.163 60.8108C952.183 60.8108 952.203 60.8108 952.224 60.8108C952.919 60.8437 953.457 61.4513 953.425 62.1641C953.395 62.858 952.842 63.4012 952.169 63.4012C952.149 63.4012 952.129 63.4012 952.108 63.4012C951.414 63.3682 950.875 62.7607 950.907 62.0479C950.937 61.354 951.49 60.8108 952.163 60.8108ZM952.163 58.2988C950.197 58.2988 948.559 59.8908 948.468 61.9317C948.375 64.0323 949.953 65.8142 951.997 65.91C952.055 65.9132 952.113 65.9147 952.169 65.9147C954.135 65.9147 955.773 64.3228 955.864 62.2818C955.957 60.1812 954.379 58.3993 952.335 58.3035C952.277 58.3004 952.219 58.2988 952.163 58.2988Z" fill="#D9D9D9"/>
<path d="M926.463 40.3172C927.281 40.3172 927.944 39.6542 927.944 38.8363C927.944 38.0185 927.281 37.3555 926.463 37.3555C925.645 37.3555 924.982 38.0185 924.982 38.8363C924.982 39.6542 925.645 40.3172 926.463 40.3172Z" fill="#D9D9D9"/>
<path d="M975.331 37.3553C976.149 37.3553 976.812 36.6923 976.812 35.8744C976.812 35.0566 976.149 34.3936 975.331 34.3936C974.513 34.3936 973.85 35.0566 973.85 35.8744C973.85 36.6923 974.513 37.3553 975.331 37.3553Z" fill="#ABABAB"/>
<path d="M976.601 53.6453C977.419 53.6453 978.082 52.9823 978.082 52.1645C978.082 51.3466 977.419 50.6836 976.601 50.6836C975.783 50.6836 975.12 51.3466 975.12 52.1645C975.12 52.9823 975.783 53.6453 976.601 53.6453Z" fill="#ABABAB"/>
<path d="M971.101 51.9525C971.568 51.9525 971.947 51.621 971.947 51.2121C971.947 50.8032 971.568 50.4717 971.101 50.4717C970.633 50.4717 970.254 50.8032 970.254 51.2121C970.254 51.621 970.633 51.9525 971.101 51.9525Z" fill="#D9D9D9"/>
<path d="M981.255 51.9528C981.839 51.9528 982.313 51.5266 982.313 51.0008C982.313 50.475 981.839 50.0488 981.255 50.0488C980.671 50.0488 980.197 50.475 980.197 51.0008C980.197 51.5266 980.671 51.9528 981.255 51.9528Z" fill="#D9D9D9"/>
<path d="M977.659 61.8948C978.243 61.8948 978.717 61.4212 978.717 60.8371C978.717 60.2529 978.243 59.7793 977.659 59.7793C977.075 59.7793 976.601 60.2529 976.601 60.8371C976.601 61.4212 977.075 61.8948 977.659 61.8948Z" fill="#D9D9D9"/>
<path d="M980.62 36.9322C981.321 36.9322 981.889 36.3639 981.889 35.6629C981.889 34.9618 981.321 34.3936 980.62 34.3936C979.919 34.3936 979.351 34.9618 979.351 35.6629C979.351 36.3639 979.919 36.9322 980.62 36.9322Z" fill="#D9D9D9"/>
<path d="M927.203 56.6063C928.08 56.6063 928.79 55.9433 928.79 55.1254C928.79 54.3075 928.08 53.6445 927.203 53.6445C926.327 53.6445 925.617 54.3075 925.617 55.1254C925.617 55.9433 926.327 56.6063 927.203 56.6063Z" fill="#D9D9D9"/>
<path d="M922.126 55.5485C922.652 55.5485 923.078 55.1223 923.078 54.5965C923.078 54.0707 922.652 53.6445 922.126 53.6445C921.6 53.6445 921.174 54.0707 921.174 54.5965C921.174 55.1223 921.6 55.5485 922.126 55.5485Z" fill="#D9D9D9"/>
<path d="M926.992 64.6452C927.517 64.6452 927.944 64.219 927.944 63.6932C927.944 63.1674 927.517 62.7412 926.992 62.7412C926.466 62.7412 926.04 63.1674 926.04 63.6932C926.04 64.219 926.466 64.6452 926.992 64.6452Z" fill="#D9D9D9"/>
<path d="M919.904 42.2795L919.829 43.9185C919.825 44.0056 919.892 44.0794 919.979 44.0834L934.737 44.7613C934.824 44.7653 934.898 44.6979 934.902 44.6108L934.977 42.9719C934.981 42.8848 934.914 42.8109 934.827 42.8069L920.069 42.1291C919.982 42.1251 919.908 42.1924 919.904 42.2795Z" fill="#D9D9D9"/>
<path d="M927.718 45.7848L927.642 47.4439C927.638 47.531 927.705 47.6048 927.792 47.6088L938.809 48.1148C938.896 48.1188 938.97 48.0515 938.974 47.9644L939.05 46.3053C939.054 46.2182 938.987 46.1444 938.9 46.1404L927.883 45.6344C927.796 45.6304 927.722 45.6977 927.718 45.7848Z" fill="#D9D9D9"/>
<path d="M919.715 46.4163L919.636 48.1465C919.631 48.2387 919.703 48.3169 919.795 48.3211L925.878 48.6005C925.97 48.6048 926.048 48.5335 926.053 48.4412L926.132 46.7111C926.136 46.6188 926.065 46.5407 925.973 46.5364L919.89 46.257C919.798 46.2528 919.719 46.3241 919.715 46.4163Z" fill="#D9D9D9"/>
<path d="M918.928 49.8301L918.852 51.4922C918.849 51.5537 918.897 51.6058 918.958 51.6086L935.155 52.3526C935.217 52.3554 935.269 52.3079 935.272 52.2464L935.348 50.5842C935.351 50.5228 935.303 50.4706 935.242 50.4678L919.045 49.7239C918.983 49.721 918.931 49.7686 918.928 49.8301Z" fill="#D9D9D9"/>
<path d="M966.8 39.2064L966.713 41.0958C966.71 41.1615 966.761 41.2173 966.827 41.2203L984.443 42.0295C984.509 42.0325 984.565 41.9816 984.568 41.9159L984.655 40.0265C984.658 39.9607 984.607 39.905 984.541 39.9019L966.924 39.0928C966.859 39.0898 966.803 39.1406 966.8 39.2064Z" fill="#ABABAB"/>
<path d="M963.552 43.3714L963.479 44.9578C963.475 45.0372 963.537 45.1045 963.616 45.1082L975.801 45.6678C975.88 45.6715 975.947 45.6101 975.951 45.5306L976.024 43.9443C976.028 43.8649 975.966 43.7975 975.887 43.7939L963.702 43.2342C963.623 43.2306 963.555 43.292 963.552 43.3714Z" fill="#D9D9D9"/>
<path d="M978.412 42.8579L978.327 44.6947C978.323 44.7776 978.387 44.8478 978.47 44.8516L986.245 45.2087C986.328 45.2125 986.398 45.1485 986.402 45.0656L986.486 43.2288C986.49 43.1459 986.426 43.0757 986.343 43.0719L978.568 42.7148C978.486 42.711 978.415 42.7751 978.412 42.8579Z" fill="#ABABAB"/>
<path d="M967.512 47.207L967.436 48.8691C967.433 48.9306 967.481 48.9828 967.542 48.9856L974.138 49.2886C974.2 49.2914 974.252 49.2438 974.255 49.1824L974.331 47.5202C974.334 47.4587 974.286 47.4066 974.225 47.4038L967.629 47.1008C967.567 47.098 967.515 47.1455 967.512 47.207Z" fill="#ABABAB"/>
<path d="M975.916 46.28L975.824 48.2715C975.82 48.3535 975.884 48.423 975.966 48.4267L985.09 48.8458C985.172 48.8496 985.242 48.7862 985.246 48.7042L985.337 46.7128C985.341 46.6308 985.277 46.5613 985.196 46.5575L976.071 46.1384C975.989 46.1346 975.919 46.1981 975.916 46.28Z" fill="#ABABAB"/>
<path d="M1005.33 32.6108C1005 32.2076 1004.59 31.9006 1004.11 31.6847C1003.63 31.4687 1003.07 31.3621 1002.44 31.3621C1001.81 31.3621 1001.22 31.4843 1000.69 31.7289C1000.15 31.9734 999.68 32.3142 999.284 32.7539C998.889 33.1935 998.579 33.7138 998.358 34.3174C998.134 34.9209 998.025 35.5739 998.025 36.2789C998.025 36.9839 998.137 37.6551 998.358 38.2509C998.582 38.8466 998.886 39.3643 999.274 39.8014C999.661 40.241 1000.12 40.5818 1000.64 40.8264C1001.17 41.0709 1001.73 41.1932 1002.33 41.1932C1003.02 41.1932 1003.63 41.0501 1004.16 40.7613C1004.7 40.4752 1005.14 40.0719 1005.48 39.5542L1008.28 41.6459C1007.63 42.5512 1006.82 43.2198 1005.82 43.6516C1004.83 44.0835 1003.81 44.2994 1002.77 44.2994C1001.57 44.2994 1000.47 44.1121 999.466 43.7401C998.459 43.3654 997.59 42.8321 996.859 42.1349C996.126 41.4377 995.556 40.5948 995.145 39.6011C994.736 38.6099 994.531 37.5042 994.531 36.2815C994.531 35.0588 994.736 33.9532 995.145 32.962C995.553 31.9708 996.126 31.1253 996.859 30.4281C997.593 29.7309 998.462 29.195 999.466 28.823C1000.47 28.4484 1001.57 28.2637 1002.77 28.2637C1003.2 28.2637 1003.64 28.3027 1004.11 28.3833C1004.58 28.4614 1005.04 28.5889 1005.49 28.7606C1005.94 28.9323 1006.38 29.1638 1006.8 29.45C1007.21 29.7387 1007.59 30.0899 1007.92 30.5062L1005.33 32.6186V32.6108Z" fill="#D9D9D9"/>
<path d="M995.444 50.6411H998.194C998.587 50.6411 998.964 50.6796 999.326 50.7566C999.696 50.8337 1000.02 50.9646 1000.3 51.1495C1000.57 51.3267 1000.79 51.5693 1000.96 51.8775C1001.13 52.1779 1001.21 52.5554 1001.21 53.0099C1001.21 53.5261 1001.12 53.9421 1000.94 54.2579C1000.77 54.5737 1000.53 54.8203 1000.23 54.9974C999.927 55.1669 999.577 55.2825 999.176 55.3441C998.783 55.4057 998.371 55.4365 997.94 55.4365H996.9V58.8223H995.444V50.6411ZM997.778 54.1886C997.986 54.1886 998.202 54.1809 998.425 54.1655C998.648 54.15 998.852 54.1038 999.037 54.0268C999.23 53.9498 999.384 53.8342 999.5 53.6801C999.623 53.5261 999.684 53.3104 999.684 53.033C999.684 52.7788 999.631 52.5785 999.523 52.4321C999.415 52.2781 999.276 52.1625 999.107 52.0855C998.937 52.0007 998.748 51.9468 998.54 51.9237C998.332 51.9006 998.132 51.889 997.94 51.889H996.9V54.1886H997.778ZM1004.82 50.6411H1007.66C1008.05 50.6411 1008.43 50.6796 1008.79 50.7566C1009.16 50.826 1009.49 50.9492 1009.78 51.1264C1010.06 51.3036 1010.29 51.5424 1010.46 51.8428C1010.63 52.1433 1010.71 52.5246 1010.71 52.9868C1010.71 53.58 1010.55 54.0769 1010.22 54.4774C1009.89 54.878 1009.43 55.1207 1008.82 55.2054L1010.99 58.8223H1009.23L1007.34 55.3557H1006.27V58.8223H1004.82V50.6411ZM1007.41 54.1077C1007.62 54.1077 1007.82 54.1 1008.03 54.0846C1008.24 54.0615 1008.43 54.0152 1008.6 53.9459C1008.77 53.8689 1008.92 53.7572 1009.02 53.6108C1009.13 53.4567 1009.19 53.2449 1009.19 52.9753C1009.19 52.7364 1009.14 52.5439 1009.04 52.3975C1008.94 52.2511 1008.81 52.1433 1008.64 52.0739C1008.48 51.9969 1008.3 51.9468 1008.1 51.9237C1007.91 51.9006 1007.72 51.889 1007.53 51.889H1006.27V54.1077H1007.41ZM1013.97 54.7663C1013.97 54.1115 1014.08 53.5184 1014.29 52.9868C1014.51 52.4476 1014.81 51.9892 1015.18 51.6117C1015.57 51.2342 1016.02 50.9454 1016.55 50.7451C1017.08 50.5371 1017.66 50.4331 1018.29 50.4331C1018.93 50.4254 1019.52 50.5217 1020.05 50.722C1020.58 50.9145 1021.04 51.1996 1021.42 51.5771C1021.81 51.9545 1022.11 52.409 1022.32 52.9406C1022.54 53.4721 1022.65 54.0653 1022.65 54.7201C1022.65 55.3595 1022.54 55.9411 1022.32 56.465C1022.11 56.9888 1021.81 57.4395 1021.42 57.8169C1021.04 58.1944 1020.58 58.491 1020.05 58.7067C1019.52 58.9147 1018.93 59.0226 1018.29 59.0303C1017.66 59.0303 1017.08 58.9301 1016.55 58.7298C1016.02 58.5218 1015.57 58.2329 1015.18 57.8632C1014.81 57.4857 1014.51 57.035 1014.29 56.5112C1014.08 55.9873 1013.97 55.4057 1013.97 54.7663ZM1015.49 54.6739C1015.49 55.113 1015.56 55.5174 1015.69 55.8872C1015.83 56.257 1016.02 56.5767 1016.27 56.8463C1016.52 57.1159 1016.81 57.3278 1017.15 57.4818C1017.49 57.6359 1017.88 57.713 1018.3 57.713C1018.73 57.713 1019.11 57.6359 1019.46 57.4818C1019.8 57.3278 1020.1 57.1159 1020.35 56.8463C1020.59 56.5767 1020.78 56.257 1020.91 55.8872C1021.05 55.5174 1021.12 55.113 1021.12 54.6739C1021.12 54.2656 1021.05 53.8843 1020.91 53.5299C1020.78 53.1755 1020.59 52.8674 1020.35 52.6055C1020.1 52.3359 1019.8 52.1279 1019.46 51.9815C1019.11 51.8274 1018.73 51.7504 1018.3 51.7504C1017.88 51.7504 1017.49 51.8274 1017.15 51.9815C1016.81 52.1279 1016.52 52.3359 1016.27 52.6055C1016.02 52.8674 1015.83 53.1755 1015.69 53.5299C1015.56 53.8843 1015.49 54.2656 1015.49 54.6739ZM1026.31 50.6411H1027.77V58.8223H1026.31V50.6411ZM1031.87 50.6411H1033.8L1037.77 56.7192H1037.79V50.6411H1039.24V58.8223H1037.4L1033.35 52.5477H1033.33V58.8223H1031.87V50.6411ZM1047.39 52.3975C1047.24 52.1741 1047.03 52.0123 1046.77 51.9122C1046.51 51.8043 1046.24 51.7504 1045.96 51.7504C1045.79 51.7504 1045.62 51.7696 1045.46 51.8082C1045.31 51.8467 1045.16 51.9083 1045.03 51.993C1044.91 52.0778 1044.81 52.1895 1044.73 52.3282C1044.66 52.4591 1044.62 52.617 1044.62 52.8019C1044.62 53.0793 1044.71 53.2911 1044.91 53.4375C1045.1 53.5838 1045.34 53.7109 1045.62 53.8188C1045.91 53.9266 1046.22 54.0306 1046.56 54.1308C1046.9 54.2309 1047.21 54.3696 1047.49 54.5468C1047.78 54.724 1048.02 54.9589 1048.21 55.2517C1048.4 55.5444 1048.5 55.9334 1048.5 56.4188C1048.5 56.8579 1048.42 57.243 1048.26 57.5743C1048.09 57.8978 1047.88 58.1675 1047.6 58.3832C1047.33 58.5989 1047.01 58.7606 1046.65 58.8685C1046.29 58.9763 1045.91 59.0303 1045.51 59.0303C1045 59.0303 1044.51 58.9455 1044.04 58.776C1043.57 58.6066 1043.16 58.3215 1042.83 57.9209L1043.92 56.8579C1044.1 57.1275 1044.33 57.3393 1044.62 57.4934C1044.91 57.6398 1045.22 57.713 1045.54 57.713C1045.71 57.713 1045.88 57.6898 1046.05 57.6436C1046.22 57.5974 1046.37 57.5281 1046.51 57.4356C1046.65 57.3432 1046.76 57.2276 1046.85 57.089C1046.93 56.9426 1046.97 56.777 1046.97 56.5921C1046.97 56.2916 1046.88 56.0605 1046.69 55.8988C1046.49 55.737 1046.25 55.6022 1045.97 55.4943C1045.68 55.3788 1045.37 55.2709 1045.03 55.1708C1044.69 55.0706 1044.38 54.9358 1044.1 54.7663C1043.81 54.5892 1043.57 54.358 1043.38 54.073C1043.19 53.7803 1043.09 53.3912 1043.09 52.9059C1043.09 52.4822 1043.18 52.1163 1043.35 51.8082C1043.52 51.5 1043.75 51.2458 1044.03 51.0455C1044.31 50.8375 1044.64 50.6834 1045 50.5833C1045.36 50.4831 1045.73 50.4331 1046.11 50.4331C1046.54 50.4331 1046.95 50.4986 1047.36 50.6295C1047.76 50.7605 1048.13 50.9762 1048.45 51.2766L1047.39 52.3975ZM1052.33 50.6411H1055.08C1055.47 50.6411 1055.85 50.6796 1056.21 50.7566C1056.58 50.8337 1056.9 50.9646 1057.18 51.1495C1057.46 51.3267 1057.68 51.5693 1057.84 51.8775C1058.01 52.1779 1058.09 52.5554 1058.09 53.0099C1058.09 53.5261 1058 53.9421 1057.83 54.2579C1057.65 54.5737 1057.41 54.8203 1057.11 54.9974C1056.81 55.1669 1056.46 55.2825 1056.06 55.3441C1055.67 55.4057 1055.25 55.4365 1054.82 55.4365H1053.78V58.8223H1052.33V50.6411ZM1054.66 54.1886C1054.87 54.1886 1055.08 54.1809 1055.31 54.1655C1055.53 54.15 1055.74 54.1038 1055.92 54.0268C1056.11 53.9498 1056.27 53.8342 1056.38 53.6801C1056.51 53.5261 1056.57 53.3104 1056.57 53.033C1056.57 52.7788 1056.51 52.5785 1056.41 52.4321C1056.3 52.2781 1056.16 52.1625 1055.99 52.0855C1055.82 52.0007 1055.63 51.9468 1055.42 51.9237C1055.22 51.9006 1055.02 51.889 1054.82 51.889H1053.78V54.1886H1054.66ZM1061.7 50.6411H1067.12V51.9584H1063.16V53.969H1066.91V55.2863H1063.16V57.505H1067.33V58.8223H1061.7V50.6411ZM1076.69 52.5593C1076.39 52.2357 1076.1 52.02 1075.81 51.9122C1075.54 51.8043 1075.26 51.7504 1074.97 51.7504C1074.55 51.7504 1074.16 51.8274 1073.82 51.9815C1073.48 52.1279 1073.18 52.3359 1072.94 52.6055C1072.69 52.8674 1072.5 53.1755 1072.36 53.5299C1072.23 53.8843 1072.16 54.2656 1072.16 54.6739C1072.16 55.113 1072.23 55.5174 1072.36 55.8872C1072.5 56.257 1072.69 56.5767 1072.94 56.8463C1073.18 57.1159 1073.48 57.3278 1073.82 57.4818C1074.16 57.6359 1074.55 57.713 1074.97 57.713C1075.3 57.713 1075.62 57.6359 1075.93 57.4818C1076.25 57.3201 1076.54 57.0659 1076.81 56.7192L1078.01 57.5743C1077.64 58.0827 1077.19 58.4525 1076.66 58.6836C1076.13 58.9147 1075.56 59.0303 1074.96 59.0303C1074.33 59.0303 1073.75 58.9301 1073.21 58.7298C1072.69 58.5218 1072.24 58.2329 1071.85 57.8632C1071.47 57.4857 1071.18 57.035 1070.96 56.5112C1070.75 55.9873 1070.64 55.4057 1070.64 54.7663C1070.64 54.1115 1070.75 53.5184 1070.96 52.9868C1071.18 52.4476 1071.47 51.9892 1071.85 51.6117C1072.24 51.2342 1072.69 50.9454 1073.21 50.7451C1073.75 50.5371 1074.33 50.4331 1074.96 50.4331C1075.51 50.4331 1076.03 50.5332 1076.5 50.7335C1076.97 50.9261 1077.42 51.2574 1077.83 51.7273L1076.69 52.5593ZM1082.97 51.9584H1080.47V50.6411H1086.94V51.9584H1084.43V58.8223H1082.97V51.9584Z" fill="#D9D9D9"/>
<rect y="-1" width="46" height="92" fill="url(#paint0_linear_43_18715)"/>
<rect width="46" height="92" transform="matrix(-1 0 0 1 1009 -1)" fill="url(#paint1_linear_43_18715)"/>
</g>
<defs>
<linearGradient id="paint0_linear_43_18715" x1="46" y1="45" x2="-1.37091e-06" y2="45" gradientUnits="userSpaceOnUse">
<stop stop-color="#191414" stop-opacity="0"/>
<stop offset="1" stop-color="#191414"/>
</linearGradient>
<linearGradient id="paint1_linear_43_18715" x1="46" y1="46" x2="-1.37091e-06" y2="46" gradientUnits="userSpaceOnUse">
<stop stop-color="#191414" stop-opacity="0"/>
<stop offset="1" stop-color="#191414"/>
</linearGradient>
<clipPath id="clip0_43_18715">
<rect width="1009" height="91" fill="white"/>
</clipPath>
<clipPath id="clip1_43_18715">
<rect width="128.762" height="40" fill="white" transform="translate(367.952 25.5)"/>
</clipPath>
<clipPath id="clip2_43_18715">
<rect width="143" height="43" fill="white" transform="translate(546.714 24)"/>
</clipPath>
<clipPath id="clip3_43_18715">
<rect width="32.1553" height="34.4999" fill="white" transform="translate(743.064 28.25)"/>
</clipPath>
</defs>
</svg>
