<svg width="1009" height="91" viewBox="0 0 1009 91" fill="none" xmlns="http://www.w3.org/2000/svg">
<g clip-path="url(#clip0_43_20335)">
<rect width="1009" height="91" fill="#191414"/>
<path d="M-10 0H1019" stroke="#191414" stroke-width="3"/>
<path d="M-10 91H1019" stroke="#191414" stroke-width="3"/>
<path d="M-9.71157 42.1895C-9.73408 42.1895 -9.75019 42.2112 -9.74361 42.2327L-6.07529 54.2353C-6.07099 54.2494 -6.05799 54.259 -6.04326 54.259H-3.90485C-3.89019 54.259 -3.87723 54.2495 -3.87287 54.2355L-0.776534 44.3065L2.32716 54.259L6.0414 42.1895L3.31544 51.0476L2.32716 54.259L-0.776534 44.3065L-1.9594 42.2557C-1.97399 42.2304 -2.0117 42.2346 -2.02039 42.2625L-4.91511 51.5476C-4.92503 51.5794 -4.97027 51.5788 -4.97932 51.5468L-7.61299 42.2139C-7.61706 42.1994 -7.63023 42.1895 -7.64523 42.1895H-9.71157Z" fill="#D9D9D9"/>
<path d="M-3.04361 42.1898C-3.06611 42.1898 -3.08222 42.2116 -3.07564 42.2331L0.592678 54.2357C0.596982 54.2498 0.609982 54.2594 0.62471 54.2594H2.76312C2.77778 54.2594 2.79073 54.2499 2.7951 54.2359L5.89143 44.3069L6.52901 42.2328C6.53563 42.2113 6.51952 42.1895 6.49699 42.1895L4.69498 42.1898C4.68033 42.1898 4.66737 42.1994 4.66301 42.2134L1.75286 51.548C1.74294 51.5798 1.6977 51.5792 1.68865 51.5471L-0.945024 42.2142C-0.949096 42.1998 -0.962264 42.1898 -0.97726 42.1898H-3.04361Z" fill="#D9D9D9"/>
<path d="M8.56633 39.124C8.84214 39.3835 9.18279 39.5133 9.58835 39.5133C9.97768 39.5133 10.3103 39.3835 10.5861 39.124C10.8619 38.8482 10.9997 38.5075 10.9997 38.102C10.9997 37.7126 10.8619 37.3882 10.5861 37.1286C10.3103 36.869 9.97768 36.7393 9.58835 36.7393C9.18279 36.7393 8.84214 36.869 8.56633 37.1286C8.30676 37.3882 8.177 37.7126 8.177 38.102C8.177 38.5075 8.30676 38.8482 8.56633 39.124Z" fill="#D9D9D9"/>
<path d="M8.56633 42.2235V54.2261C8.56633 54.2446 8.58133 54.2596 8.59983 54.2596H10.5769C10.5954 54.2596 10.6104 54.2446 10.6104 54.2261V42.2235C10.6104 42.205 10.5954 42.19 10.5769 42.19H8.59983C8.58133 42.19 8.56633 42.205 8.56633 42.2235Z" fill="#D9D9D9"/>
<path d="M12.6331 42.2239V54.2265C12.6331 54.245 12.6481 54.26 12.6666 54.26H14.6436C14.6621 54.26 14.6771 54.245 14.6771 54.2265V48.0063C14.6771 46.6111 15.0177 45.5404 15.6991 44.7942C16.3967 44.0317 17.2646 43.6505 18.3028 43.6505C20.3793 43.6505 21.4176 44.9077 21.4176 47.4222V54.2265C21.4176 54.245 21.4326 54.26 21.4511 54.26H23.4281C23.4466 54.26 23.4616 54.245 23.4616 54.2265V47.2032C23.4616 45.4025 23.0317 44.0723 22.1719 43.2125C21.3283 42.3364 20.1927 41.8984 18.7652 41.8984C17.8405 41.8984 17.0132 42.1174 16.2831 42.5554C15.5885 42.9722 15.048 43.5359 14.6618 44.2465C14.6455 44.2766 14.5991 44.2666 14.5971 44.2325L14.4842 42.2221C14.4832 42.2043 14.4685 42.1904 14.4508 42.1904H12.6666C12.6481 42.1904 12.6331 42.2054 12.6331 42.2239Z" fill="#D9D9D9"/>
<path d="M25.0947 42.2239V54.2265C25.0947 54.245 25.1097 54.26 25.1282 54.26H27.1053C27.1238 54.26 27.1388 54.245 27.1388 54.2265V48.0063C27.1388 46.6111 27.4795 45.5404 28.1608 44.7942C28.8584 44.0317 29.7263 43.6505 30.7645 43.6505C32.841 43.6505 33.8792 44.9077 33.8792 47.4222V54.2265C33.8792 54.245 33.8942 54.26 33.9127 54.26H35.8898C35.9083 54.26 35.9233 54.245 35.9233 54.2265V47.2032C35.9233 45.4025 35.4934 44.0723 34.6336 43.2125C33.79 42.3364 32.6545 41.8984 31.2269 41.8984C30.3022 41.8984 29.4748 42.1174 28.7448 42.5554C28.0501 42.9722 27.5097 43.5359 27.1235 44.2465C27.1072 44.2766 27.0607 44.2666 27.0588 44.2325L26.9459 42.2221C26.9449 42.2043 26.9302 42.1904 26.9124 42.1904H25.1282C25.1097 42.1904 25.0947 42.2054 25.0947 42.2239Z" fill="#D9D9D9"/>
<path d="M43.5681 54.2601C42.4326 54.2601 41.4105 54.0005 40.5021 53.4813C39.5936 52.9623 38.8717 52.2322 38.3364 51.2913C37.8172 50.3342 37.5576 49.2148 37.5576 47.9332C37.5576 46.6517 37.8254 45.5404 38.3607 44.5995C38.8961 43.6424 39.6179 42.9042 40.5264 42.3851C41.4511 41.866 42.4812 41.6064 43.6168 41.6064C44.7523 41.6064 45.7744 41.866 46.6828 42.3851C47.5913 42.9042 48.3051 43.6424 48.8243 44.5995C49.3596 45.5404 49.6272 46.6517 49.6272 47.9332C49.6272 49.2148 49.3596 50.3342 48.8243 51.2913C48.2889 52.2322 47.5589 52.9623 46.6342 53.4813C45.7257 54.0005 44.7037 54.2601 43.5681 54.2601ZM43.5681 52.508C44.2657 52.508 44.9146 52.3377 45.5148 51.997C46.1151 51.6564 46.6017 51.1453 46.9749 50.464C47.348 49.7826 47.5346 48.939 47.5346 47.9332C47.5346 46.9275 47.348 46.0839 46.9749 45.4025C46.6179 44.7211 46.1394 44.2101 45.5391 43.8695C44.9389 43.5288 44.2982 43.3585 43.6168 43.3585C42.9192 43.3585 42.2703 43.5288 41.6701 43.8695C41.0698 44.2101 40.5831 44.7211 40.21 45.4025C39.8369 46.0839 39.6503 46.9275 39.6503 47.9332C39.6503 48.939 39.8369 49.7826 40.21 50.464C40.5831 51.1453 41.0618 51.6564 41.6458 51.997C42.246 52.3377 42.8868 52.508 43.5681 52.508Z" fill="#D9D9D9"/>
<path d="M51.306 42.1895C51.2835 42.1895 51.2674 42.2112 51.274 42.2327L54.9423 54.2353C54.9466 54.2494 54.9596 54.259 54.9743 54.259H57.1127C57.1274 54.259 57.1403 54.2495 57.1447 54.2355L60.241 44.3065L63.3447 54.259L67.059 42.1895L64.333 51.0476L63.3447 54.259L60.241 44.3065L59.0582 42.2557C59.0436 42.2304 59.0059 42.2346 58.9972 42.2625L56.1025 51.5476C56.0926 51.5794 56.0473 51.5788 56.0383 51.5468L53.4046 42.2139C53.4005 42.1994 53.3873 42.1895 53.3724 42.1895H51.306Z" fill="#D9D9D9"/>
<path d="M57.974 42.1898C57.9515 42.1898 57.9354 42.2116 57.9419 42.2331L61.6103 54.2357C61.6146 54.2498 61.6276 54.2594 61.6423 54.2594H63.7807C63.7954 54.2594 63.8083 54.2499 63.8127 54.2359L66.909 44.3069L67.5466 42.2328C67.5532 42.2113 67.5371 42.1895 67.5146 42.1895L65.7126 42.1898C65.6979 42.1898 65.685 42.1994 65.6806 42.2134L62.7704 51.548C62.7605 51.5798 62.7153 51.5792 62.7062 51.5471L60.0726 42.2142C60.0685 42.1998 60.0553 42.1898 60.0403 42.1898H57.974Z" fill="#D9D9D9"/>
<path d="M69.9093 54.2597C69.8908 54.2597 69.8758 54.2447 69.8758 54.2262V51.4365C69.8758 51.418 69.8608 51.403 69.8423 51.403H68.9332C68.9147 51.403 68.8997 51.388 68.8997 51.3695V50.9437C68.8997 50.9252 68.9147 50.9102 68.9332 50.9102H71.4357C71.4542 50.9102 71.4692 50.9252 71.4692 50.9437V51.3695C71.4692 51.388 71.4542 51.403 71.4357 51.403H70.5218C70.5033 51.403 70.4883 51.418 70.4883 51.4365V54.2262C70.4883 54.2447 70.4733 54.2597 70.4548 54.2597H69.9093ZM71.9564 54.2597C71.9379 54.2597 71.9229 54.2447 71.9229 54.2262V50.9437C71.9229 50.9252 71.9379 50.9102 71.9564 50.9102H72.6296C72.6423 50.9102 72.6538 50.9173 72.6595 50.9286L73.6872 52.9747C73.6996 52.9994 73.7348 52.9993 73.7471 52.9745L74.7608 50.9288C74.7664 50.9174 74.7781 50.9102 74.7908 50.9102H75.4638C75.4823 50.9102 75.4973 50.9252 75.4973 50.9437V54.2262C75.4973 54.2447 75.4823 54.2597 75.4638 54.2597H74.9183C74.8998 54.2597 74.8848 54.2447 74.8848 54.2262V52.0881C74.8848 52.0529 74.8375 52.0415 74.8215 52.0729L73.9611 53.7629C73.9554 53.7741 73.9438 53.7812 73.9312 53.7812H73.489C73.4764 53.7812 73.4649 53.7741 73.4592 53.7629L72.5988 52.0729C72.5828 52.0415 72.5354 52.0529 72.5354 52.0881V54.2262C72.5354 54.2447 72.5204 54.2597 72.5019 54.2597H71.9564Z" fill="#D9D9D9"/>
<path d="M142.385 59.7113L173.935 25.9316L179.407 31.3413L148.472 65.492L142.385 59.7113Z" fill="#EEEEEE" stroke="#CFCFCF" stroke-width="0.211553" stroke-miterlimit="10"/>
<path d="M174.081 28.0484L177.714 31.416L148.219 63.2342L144.368 59.9941L174.081 28.0484ZM173.971 25.085L141.329 60.179L148.398 66.1262L180.678 31.3025L173.971 25.085Z" fill="#D9D9D9"/>
<path d="M174.25 27.5687L178.251 31.3902L167.029 43.576L165.315 45.438L167.217 47.1096L179.3 57.7353L175.966 61.546L163.4 50.6587L161.563 49.0676L159.934 50.8708L148.548 63.4652L144.487 59.7583L155.774 47.8743L157.499 46.0571L155.66 44.3546L143.155 32.7693L146.579 29.1382L158.745 40.7637L160.579 42.5173L162.292 40.646L174.252 27.5703M174.131 24.0273L160.46 38.9744L146.488 25.6216L139.636 32.8854L153.974 46.1686L140.949 59.8821L148.717 66.9725L161.776 52.5285L176.208 65.0347L182.793 57.5078L168.855 45.2507L181.723 31.2772L174.131 24.0273Z" fill="#D9D9D9"/>
<path d="M160.47 27.5983C160.496 27.5983 160.524 27.5983 160.55 27.5999C160.997 27.6203 161.409 27.8198 161.711 28.1575C162.012 28.4953 162.167 28.9351 162.146 29.3938C162.104 30.3127 161.371 31.0322 160.476 31.0322C160.45 31.0322 160.423 31.0322 160.397 31.0306C159.475 30.9866 158.758 30.1823 158.801 29.2367C158.843 28.3177 159.576 27.5983 160.47 27.5983ZM160.47 25.085C158.279 25.085 156.455 26.8537 156.353 29.122C156.248 31.4563 158.008 33.4355 160.284 33.5424C160.348 33.5455 160.412 33.5471 160.476 33.5471C162.668 33.5471 164.492 31.7783 164.594 29.51C164.698 27.1757 162.939 25.1965 160.663 25.0897C160.599 25.0865 160.535 25.085 160.47 25.085Z" fill="#D9D9D9"/>
<path d="M162.163 60.8108C162.183 60.8108 162.202 60.8108 162.224 60.8108C162.918 60.8437 163.457 61.4513 163.425 62.1641C163.394 62.858 162.842 63.4012 162.169 63.4012C162.149 63.4012 162.129 63.4012 162.108 63.4012C161.413 63.3682 160.875 62.7607 160.907 62.0479C160.937 61.354 161.49 60.8108 162.163 60.8108ZM162.163 58.2988C160.197 58.2988 158.559 59.8908 158.468 61.9317C158.374 64.0323 159.953 65.8142 161.996 65.91C162.054 65.9132 162.112 65.9147 162.169 65.9147C164.135 65.9147 165.772 64.3228 165.864 62.2818C165.957 60.1812 164.379 58.3993 162.335 58.3035C162.277 58.3004 162.219 58.2988 162.163 58.2988Z" fill="#D9D9D9"/>
<path d="M136.463 40.3172C137.281 40.3172 137.944 39.6542 137.944 38.8363C137.944 38.0185 137.281 37.3555 136.463 37.3555C135.645 37.3555 134.982 38.0185 134.982 38.8363C134.982 39.6542 135.645 40.3172 136.463 40.3172Z" fill="#D9D9D9"/>
<path d="M185.331 37.3553C186.149 37.3553 186.812 36.6923 186.812 35.8744C186.812 35.0566 186.149 34.3936 185.331 34.3936C184.513 34.3936 183.85 35.0566 183.85 35.8744C183.85 36.6923 184.513 37.3553 185.331 37.3553Z" fill="#ABABAB"/>
<path d="M186.601 53.6453C187.419 53.6453 188.082 52.9823 188.082 52.1645C188.082 51.3466 187.419 50.6836 186.601 50.6836C185.783 50.6836 185.12 51.3466 185.12 52.1645C185.12 52.9823 185.783 53.6453 186.601 53.6453Z" fill="#ABABAB"/>
<path d="M181.1 51.9525C181.568 51.9525 181.947 51.621 181.947 51.2121C181.947 50.8032 181.568 50.4717 181.1 50.4717C180.633 50.4717 180.254 50.8032 180.254 51.2121C180.254 51.621 180.633 51.9525 181.1 51.9525Z" fill="#D9D9D9"/>
<path d="M191.255 51.9528C191.839 51.9528 192.313 51.5266 192.313 51.0008C192.313 50.475 191.839 50.0488 191.255 50.0488C190.671 50.0488 190.197 50.475 190.197 51.0008C190.197 51.5266 190.671 51.9528 191.255 51.9528Z" fill="#D9D9D9"/>
<path d="M187.659 61.8948C188.243 61.8948 188.717 61.4212 188.717 60.8371C188.717 60.2529 188.243 59.7793 187.659 59.7793C187.075 59.7793 186.601 60.2529 186.601 60.8371C186.601 61.4212 187.075 61.8948 187.659 61.8948Z" fill="#D9D9D9"/>
<path d="M190.62 36.9322C191.321 36.9322 191.889 36.3639 191.889 35.6629C191.889 34.9618 191.321 34.3936 190.62 34.3936C189.919 34.3936 189.35 34.9618 189.35 35.6629C189.35 36.3639 189.919 36.9322 190.62 36.9322Z" fill="#D9D9D9"/>
<path d="M137.203 56.6063C138.079 56.6063 138.79 55.9433 138.79 55.1254C138.79 54.3075 138.079 53.6445 137.203 53.6445C136.327 53.6445 135.616 54.3075 135.616 55.1254C135.616 55.9433 136.327 56.6063 137.203 56.6063Z" fill="#D9D9D9"/>
<path d="M132.126 55.5485C132.652 55.5485 133.078 55.1223 133.078 54.5965C133.078 54.0707 132.652 53.6445 132.126 53.6445C131.6 53.6445 131.174 54.0707 131.174 54.5965C131.174 55.1223 131.6 55.5485 132.126 55.5485Z" fill="#D9D9D9"/>
<path d="M136.992 64.6452C137.517 64.6452 137.944 64.219 137.944 63.6932C137.944 63.1674 137.517 62.7412 136.992 62.7412C136.466 62.7412 136.04 63.1674 136.04 63.6932C136.04 64.219 136.466 64.6452 136.992 64.6452Z" fill="#D9D9D9"/>
<path d="M129.904 42.2795L129.829 43.9185C129.825 44.0056 129.892 44.0794 129.979 44.0834L144.737 44.7613C144.824 44.7653 144.898 44.6979 144.902 44.6108L144.977 42.9719C144.981 42.8848 144.914 42.8109 144.827 42.8069L130.069 42.1291C129.982 42.1251 129.908 42.1924 129.904 42.2795Z" fill="#D9D9D9"/>
<path d="M137.718 45.7848L137.642 47.4439C137.638 47.531 137.705 47.6048 137.792 47.6088L148.809 48.1148C148.897 48.1188 148.97 48.0515 148.974 47.9644L149.051 46.3053C149.055 46.2182 148.987 46.1444 148.9 46.1404L137.883 45.6344C137.796 45.6304 137.722 45.6977 137.718 45.7848Z" fill="#D9D9D9"/>
<path d="M129.715 46.4163L129.636 48.1465C129.631 48.2387 129.703 48.3169 129.795 48.3211L135.878 48.6005C135.97 48.6048 136.048 48.5335 136.053 48.4412L136.132 46.7111C136.136 46.6188 136.065 46.5407 135.973 46.5364L129.89 46.257C129.798 46.2528 129.719 46.3241 129.715 46.4163Z" fill="#D9D9D9"/>
<path d="M128.928 49.8301L128.852 51.4922C128.849 51.5537 128.897 51.6058 128.958 51.6086L145.155 52.3526C145.217 52.3554 145.269 52.3079 145.272 52.2464L145.348 50.5842C145.351 50.5228 145.303 50.4706 145.242 50.4678L129.045 49.7239C128.983 49.721 128.931 49.7686 128.928 49.8301Z" fill="#D9D9D9"/>
<path d="M176.8 39.2064L176.713 41.0958C176.71 41.1615 176.761 41.2173 176.826 41.2203L194.443 42.0295C194.509 42.0325 194.565 41.9816 194.568 41.9159L194.654 40.0265C194.657 39.9607 194.607 39.905 194.541 39.9019L176.924 39.0928C176.858 39.0898 176.803 39.1406 176.8 39.2064Z" fill="#ABABAB"/>
<path d="M173.552 43.3714L173.479 44.9578C173.475 45.0372 173.537 45.1045 173.616 45.1082L185.801 45.6678C185.88 45.6715 185.947 45.6101 185.951 45.5306L186.024 43.9443C186.028 43.8649 185.966 43.7975 185.887 43.7939L173.702 43.2342C173.623 43.2306 173.555 43.292 173.552 43.3714Z" fill="#D9D9D9"/>
<path d="M188.412 42.8579L188.327 44.6947C188.323 44.7776 188.387 44.8478 188.47 44.8516L196.245 45.2087C196.328 45.2125 196.398 45.1485 196.402 45.0656L196.486 43.2288C196.49 43.1459 196.426 43.0757 196.343 43.0719L188.568 42.7148C188.486 42.711 188.415 42.7751 188.412 42.8579Z" fill="#ABABAB"/>
<path d="M177.512 47.207L177.436 48.8691C177.433 48.9306 177.48 48.9828 177.542 48.9856L184.138 49.2886C184.2 49.2914 184.252 49.2438 184.255 49.1824L184.331 47.5202C184.334 47.4587 184.286 47.4066 184.225 47.4038L177.628 47.1008C177.567 47.098 177.515 47.1455 177.512 47.207Z" fill="#ABABAB"/>
<path d="M185.915 46.28L185.824 48.2715C185.82 48.3535 185.884 48.423 185.966 48.4267L195.09 48.8458C195.172 48.8496 195.242 48.7862 195.245 48.7042L195.337 46.7128C195.341 46.6308 195.277 46.5613 195.195 46.5575L186.071 46.1384C185.989 46.1346 185.919 46.1981 185.915 46.28Z" fill="#ABABAB"/>
<path d="M215.331 32.6108C215 32.2076 214.594 31.9006 214.113 31.6847C213.632 31.4687 213.075 31.3621 212.443 31.3621C211.811 31.3621 211.225 31.4843 210.687 31.7289C210.148 31.9734 209.68 32.3142 209.284 32.7539C208.889 33.1935 208.579 33.7138 208.358 34.3174C208.134 34.9209 208.025 35.5739 208.025 36.2789C208.025 36.9839 208.137 37.6551 208.358 38.2509C208.582 38.8466 208.886 39.3643 209.274 39.8014C209.662 40.241 210.117 40.5818 210.642 40.8264C211.168 41.0709 211.73 41.1932 212.333 41.1932C213.023 41.1932 213.634 41.0501 214.165 40.7613C214.696 40.4752 215.136 40.0719 215.479 39.5542L218.281 41.6459C217.633 42.5512 216.816 43.2198 215.825 43.6516C214.834 44.0835 213.814 44.2994 212.765 44.2994C211.571 44.2994 210.473 44.1121 209.466 43.7401C208.46 43.3654 207.591 42.8321 206.86 42.1349C206.126 41.4377 205.556 40.5948 205.145 39.6011C204.737 38.6099 204.531 37.5042 204.531 36.2815C204.531 35.0588 204.737 33.9532 205.145 32.962C205.553 31.9708 206.126 31.1253 206.86 30.4281C207.593 29.7309 208.462 29.195 209.466 28.823C210.473 28.4484 211.571 28.2637 212.765 28.2637C213.197 28.2637 213.645 28.3027 214.113 28.3833C214.579 28.4614 215.039 28.5889 215.492 28.7606C215.945 28.9323 216.379 29.1638 216.795 29.45C217.212 29.7387 217.586 30.0899 217.917 30.5062L215.331 32.6186V32.6108Z" fill="#D9D9D9"/>
<path d="M220.331 28.6465H226.237C227.012 28.6465 227.748 28.7219 228.445 28.8728C229.143 29.0237 229.754 29.276 230.277 29.6273C230.803 29.9785 231.219 30.4545 231.528 31.0503C231.838 31.646 231.992 32.3901 231.992 33.2824C231.992 34.3594 231.711 35.2751 231.151 36.0296C230.592 36.784 229.772 37.2627 228.695 37.463L232.574 43.907H228.544L225.355 37.8064H223.695V43.907H220.333V28.6465H220.331ZM223.692 34.9604H225.675C225.976 34.9604 226.296 34.9499 226.635 34.9291C226.973 34.9083 227.277 34.8433 227.551 34.734C227.824 34.6274 228.05 34.4583 228.23 34.2267C228.409 33.9978 228.5 33.6752 228.5 33.2564C228.5 32.8687 228.422 32.5592 228.263 32.3302C228.105 32.1013 227.904 31.9244 227.66 31.8021C227.415 31.6798 227.134 31.5966 226.819 31.555C226.502 31.5107 226.195 31.4899 225.893 31.4899H223.695V34.9604H223.692Z" fill="#D9D9D9"/>
<path d="M233.696 36.2767C233.696 35.0565 233.901 33.9483 234.31 32.9571C234.718 31.9659 235.291 31.1205 236.024 30.4232C236.758 29.726 237.627 29.1901 238.631 28.8181C239.638 28.4435 240.736 28.2588 241.93 28.2588C243.124 28.2588 244.222 28.4461 245.229 28.8181C246.236 29.1927 247.105 29.726 247.836 30.4232C248.57 31.1205 249.139 31.9633 249.551 32.9571C249.962 33.9509 250.165 35.0539 250.165 36.2767C250.165 37.4994 249.959 38.605 249.551 39.5962C249.142 40.5874 248.57 41.4328 247.836 42.1301C247.102 42.8273 246.233 43.3632 245.229 43.7352C244.222 44.1098 243.124 44.2945 241.93 44.2945C240.736 44.2945 239.638 44.1072 238.631 43.7352C237.624 43.3606 236.755 42.8273 236.024 42.1301C235.291 41.4328 234.721 40.59 234.31 39.5962C233.901 38.605 233.696 37.4994 233.696 36.2767ZM237.187 36.2767C237.187 36.9947 237.299 37.6529 237.52 38.2486C237.744 38.8443 238.061 39.362 238.48 39.7991C238.897 40.2388 239.396 40.5796 239.979 40.8241C240.562 41.0686 241.212 41.1909 241.93 41.1909C242.648 41.1909 243.299 41.0686 243.881 40.8241C244.464 40.5796 244.964 40.2388 245.38 39.7991C245.796 39.362 246.116 38.8443 246.34 38.2486C246.564 37.6529 246.673 36.9947 246.673 36.2767C246.673 35.5586 246.561 34.9187 246.34 34.3151C246.116 33.7116 245.796 33.1913 245.38 32.7516C244.964 32.3146 244.464 31.9712 243.881 31.7266C243.299 31.4821 242.648 31.3598 241.93 31.3598C241.212 31.3598 240.562 31.4821 239.979 31.7266C239.396 31.9712 238.897 32.3119 238.48 32.7516C238.064 33.1913 237.744 33.7116 237.52 34.3151C237.297 34.9187 237.187 35.5716 237.187 36.2767Z" fill="#D9D9D9"/>
<path d="M260.207 32.3741C259.934 32.0281 259.565 31.7731 259.096 31.6092C258.628 31.4453 258.188 31.3621 257.769 31.3621C257.525 31.3621 257.273 31.3907 257.015 31.4479C256.757 31.5052 256.513 31.5962 256.281 31.7185C256.052 31.8408 255.865 32.002 255.722 32.2024C255.579 32.4027 255.506 32.6472 255.506 32.936C255.506 33.3965 255.678 33.7477 256.024 33.9922C256.37 34.2367 256.804 34.4449 257.327 34.6166C257.853 34.7883 258.415 34.9626 259.018 35.1343C259.622 35.306 260.186 35.5505 260.709 35.8679C261.235 36.1853 261.669 36.6093 262.013 37.14C262.359 37.6707 262.531 38.3836 262.531 39.2733C262.531 40.163 262.372 40.8602 262.057 41.4924C261.74 42.1245 261.313 42.65 260.774 43.0663C260.236 43.4825 259.611 43.7921 258.899 43.9924C258.188 44.1927 257.436 44.2942 256.646 44.2942C255.654 44.2942 254.733 44.1433 253.888 43.8415C253.04 43.5398 252.249 43.0507 251.518 42.3769L253.911 39.7467C254.257 40.2072 254.692 40.5636 255.215 40.8134C255.74 41.0657 256.281 41.1906 256.841 41.1906C257.114 41.1906 257.39 41.1594 257.671 41.0943C257.952 41.0293 258.201 40.933 258.425 40.803C258.649 40.6729 258.828 40.509 258.964 40.3061C259.099 40.1057 259.169 39.869 259.169 39.5959C259.169 39.1354 258.992 38.7738 258.641 38.5084C258.29 38.2431 257.847 38.0167 257.314 37.8294C256.783 37.6421 256.208 37.4548 255.589 37.2701C254.97 37.0828 254.395 36.8331 253.864 36.5157C253.334 36.2009 252.891 35.782 252.537 35.2669C252.186 34.7492 252.009 34.0676 252.009 33.2195C252.009 32.3715 252.171 31.6821 252.493 31.0629C252.816 30.4463 253.248 29.9286 253.786 29.5124C254.325 29.0962 254.947 28.784 255.652 28.5758C256.357 28.3677 257.083 28.2637 257.829 28.2637C258.69 28.2637 259.526 28.3859 260.33 28.6305C261.133 28.875 261.859 29.2835 262.507 29.8584L260.199 32.3793L260.207 32.3741Z" fill="#D9D9D9"/>
<path d="M272.794 32.3741C272.521 32.0281 272.152 31.7731 271.683 31.6092C271.215 31.4453 270.775 31.3621 270.357 31.3621C270.112 31.3621 269.86 31.3907 269.602 31.4479C269.344 31.5052 269.1 31.5962 268.868 31.7185C268.639 31.8408 268.452 32.002 268.309 32.2024C268.166 32.4027 268.093 32.6472 268.093 32.936C268.093 33.3965 268.265 33.7477 268.611 33.9922C268.957 34.2367 269.391 34.4449 269.914 34.6166C270.44 34.7883 271.002 34.9626 271.605 35.1343C272.209 35.306 272.773 35.5505 273.296 35.8679C273.822 36.1853 274.256 36.6093 274.6 37.14C274.946 37.6707 275.118 38.3836 275.118 39.2733C275.118 40.163 274.959 40.8602 274.644 41.4924C274.327 42.1245 273.9 42.65 273.361 43.0663C272.823 43.4825 272.199 43.7921 271.486 43.9924C270.775 44.1927 270.024 44.2942 269.233 44.2942C268.241 44.2942 267.32 44.1433 266.472 43.8415C265.624 43.5398 264.833 43.0507 264.102 42.3769L266.496 39.7467C266.842 40.2072 267.276 40.5636 267.799 40.8134C268.325 41.0657 268.866 41.1906 269.425 41.1906C269.698 41.1906 269.974 41.1594 270.255 41.0943C270.536 41.0293 270.786 40.933 271.01 40.803C271.233 40.6729 271.413 40.509 271.548 40.3061C271.683 40.1057 271.754 39.869 271.754 39.5959C271.754 39.1354 271.577 38.7738 271.225 38.5084C270.874 38.2431 270.432 38.0167 269.901 37.8294C269.37 37.6421 268.796 37.4548 268.176 37.2701C267.557 37.0854 266.985 36.8331 266.451 36.5157C265.921 36.2009 265.478 35.782 265.127 35.2669C264.776 34.7492 264.599 34.0676 264.599 33.2195C264.599 32.3715 264.76 31.6821 265.083 31.0629C265.406 30.4463 265.837 29.9286 266.376 29.5124C266.914 29.0962 267.536 28.784 268.241 28.5758C268.946 28.3677 269.672 28.2637 270.419 28.2637C271.28 28.2637 272.115 28.3859 272.919 28.6305C273.723 28.875 274.449 29.2835 275.097 29.8584L272.789 32.3793L272.794 32.3741Z" fill="#D9D9D9"/>
<path d="M277.02 36.2767C277.02 35.0565 277.225 33.9483 277.634 32.9571C278.042 31.9659 278.614 31.1205 279.348 30.4232C280.082 29.726 280.951 29.1901 281.958 28.8181C282.964 28.4435 284.062 28.2588 285.256 28.2588C286.451 28.2588 287.549 28.4461 288.555 28.8181C289.562 29.1927 290.431 29.726 291.165 30.4232C291.899 31.1205 292.468 31.9633 292.879 32.9571C293.291 33.9509 293.493 35.0539 293.493 36.2767C293.493 37.4994 293.288 38.605 292.879 39.5962C292.471 40.5874 291.899 41.4328 291.165 42.1301C290.431 42.8273 289.562 43.3632 288.555 43.7352C287.549 44.1098 286.451 44.2945 285.256 44.2945C284.062 44.2945 282.964 44.1072 281.958 43.7352C280.951 43.3606 280.082 42.8273 279.348 42.1301C278.614 41.4328 278.045 40.59 277.634 39.5962C277.225 38.605 277.02 37.4994 277.02 36.2767ZM280.511 36.2767C280.511 36.9947 280.623 37.6529 280.844 38.2486C281.068 38.8443 281.385 39.362 281.804 39.7991C282.22 40.2388 282.72 40.5796 283.303 40.8241C283.885 41.0686 284.536 41.1909 285.254 41.1909C285.972 41.1909 286.622 41.0686 287.205 40.8241C287.788 40.5796 288.287 40.2388 288.704 39.7991C289.12 39.362 289.44 38.8443 289.664 38.2486C289.888 37.6529 289.997 36.9947 289.997 36.2767C289.997 35.5586 289.885 34.9187 289.664 34.3151C289.44 33.7116 289.123 33.1913 288.704 32.7516C288.287 32.3146 287.788 31.9712 287.205 31.7266C286.622 31.4821 285.972 31.3598 285.254 31.3598C284.536 31.3598 283.885 31.4821 283.303 31.7266C282.72 31.9712 282.22 32.3119 281.804 32.7516C281.388 33.1913 281.068 33.7116 280.844 34.3151C280.62 34.9187 280.511 35.5716 280.511 36.2767Z" fill="#D9D9D9"/>
<path d="M294.479 28.6465H298.317L302.089 38.6467H302.133L305.971 28.6465H309.572L303.278 43.907H300.583L294.482 28.6465H294.479Z" fill="#D9D9D9"/>
<path d="M311.508 28.6465H321.876V31.7501H314.869V34.5961H321.488V37.6997H314.869V40.8033H322.263V43.907H311.508V28.6465Z" fill="#D9D9D9"/>
<path d="M325.174 28.6465H331.08C331.855 28.6465 332.592 28.7219 333.289 28.8728C333.986 29.0237 334.598 29.276 335.121 29.6273C335.646 29.9785 336.062 30.4545 336.372 31.0503C336.682 31.646 336.835 32.3901 336.835 33.2824C336.835 34.3594 336.554 35.2751 335.995 36.0296C335.435 36.784 334.616 37.2627 333.539 37.463L337.418 43.907H333.388L330.198 37.8064H328.538V43.907H325.177V28.6465H325.174ZM328.536 34.9604H330.518C330.82 34.9604 331.14 34.9499 331.478 34.9291C331.816 34.9083 332.121 34.8433 332.394 34.734C332.667 34.6274 332.894 34.4583 333.073 34.2267C333.253 33.9978 333.344 33.6752 333.344 33.2564C333.344 32.8687 333.266 32.5592 333.107 32.3302C332.948 32.1013 332.748 31.9244 332.503 31.8021C332.259 31.6798 331.978 31.5966 331.663 31.555C331.346 31.5107 331.039 31.4899 330.737 31.4899H328.538V34.9604H328.536Z" fill="#D9D9D9"/>
<path d="M205.444 50.6411H208.194C208.587 50.6411 208.964 50.6796 209.326 50.7566C209.696 50.8337 210.02 50.9646 210.297 51.1495C210.574 51.3267 210.794 51.5693 210.956 51.8775C211.125 52.1779 211.21 52.5554 211.21 53.0099C211.21 53.5261 211.121 53.9421 210.944 54.2579C210.767 54.5737 210.528 54.8203 210.228 54.9974C209.927 55.1669 209.577 55.2825 209.176 55.3441C208.783 55.4057 208.371 55.4365 207.94 55.4365H206.9V58.8223H205.444V50.6411ZM207.778 54.1886C207.986 54.1886 208.202 54.1809 208.425 54.1655C208.648 54.15 208.852 54.1038 209.037 54.0268C209.23 53.9498 209.384 53.8342 209.5 53.6801C209.623 53.5261 209.684 53.3104 209.684 53.033C209.684 52.7788 209.631 52.5785 209.523 52.4321C209.415 52.2781 209.276 52.1625 209.107 52.0855C208.937 52.0007 208.748 51.9468 208.54 51.9237C208.332 51.9006 208.132 51.889 207.94 51.889H206.9V54.1886H207.778ZM214.819 50.6411H217.661C218.054 50.6411 218.432 50.6796 218.794 50.7566C219.164 50.826 219.491 50.9492 219.776 51.1264C220.061 51.3036 220.288 51.5424 220.458 51.8428C220.627 52.1433 220.712 52.5246 220.712 52.9868C220.712 53.58 220.546 54.0769 220.215 54.4774C219.892 54.878 219.426 55.1207 218.817 55.2054L220.989 58.8223H219.233L217.338 55.3557H216.275V58.8223H214.819V50.6411ZM217.407 54.1077C217.615 54.1077 217.823 54.1 218.031 54.0846C218.239 54.0615 218.428 54.0152 218.597 53.9459C218.775 53.8689 218.917 53.7572 219.025 53.6108C219.133 53.4567 219.187 53.2449 219.187 52.9753C219.187 52.7364 219.137 52.5439 219.037 52.3975C218.936 52.2511 218.805 52.1433 218.644 52.0739C218.482 51.9969 218.301 51.9468 218.101 51.9237C217.908 51.9006 217.719 51.889 217.534 51.889H216.275V54.1077H217.407ZM223.969 54.7663C223.969 54.1115 224.077 53.5184 224.293 52.9868C224.509 52.4476 224.805 51.9892 225.183 51.6117C225.568 51.2342 226.022 50.9454 226.546 50.7451C227.078 50.5371 227.659 50.4331 228.291 50.4331C228.93 50.4254 229.516 50.5217 230.047 50.722C230.579 50.9145 231.037 51.1996 231.423 51.5771C231.808 51.9545 232.108 52.409 232.324 52.9406C232.54 53.4721 232.647 54.0653 232.647 54.7201C232.647 55.3595 232.54 55.9411 232.324 56.465C232.108 56.9888 231.808 57.4395 231.423 57.8169C231.037 58.1944 230.579 58.491 230.047 58.7067C229.516 58.9147 228.93 59.0226 228.291 59.0303C227.659 59.0303 227.078 58.9301 226.546 58.7298C226.022 58.5218 225.568 58.2329 225.183 57.8632C224.805 57.4857 224.509 57.035 224.293 56.5112C224.077 55.9873 223.969 55.4057 223.969 54.7663ZM225.495 54.6739C225.495 55.113 225.56 55.5174 225.691 55.8872C225.83 56.257 226.022 56.5767 226.269 56.8463C226.515 57.1159 226.808 57.3278 227.147 57.4818C227.494 57.6359 227.879 57.713 228.303 57.713C228.726 57.713 229.111 57.6359 229.458 57.4818C229.805 57.3278 230.101 57.1159 230.348 56.8463C230.594 56.5767 230.783 56.257 230.914 55.8872C231.053 55.5174 231.122 55.113 231.122 54.6739C231.122 54.2656 231.053 53.8843 230.914 53.5299C230.783 53.1755 230.594 52.8674 230.348 52.6055C230.101 52.3359 229.805 52.1279 229.458 51.9815C229.111 51.8274 228.726 51.7504 228.303 51.7504C227.879 51.7504 227.494 51.8274 227.147 51.9815C226.808 52.1279 226.515 52.3359 226.269 52.6055C226.022 52.8674 225.83 53.1755 225.691 53.5299C225.56 53.8843 225.495 54.2656 225.495 54.6739ZM236.311 50.6411H237.767V58.8223H236.311V50.6411ZM241.872 50.6411H243.802L247.766 56.7192H247.789V50.6411H249.245V58.8223H247.396L243.351 52.5477H243.328V58.8223H241.872V50.6411ZM257.39 52.3975C257.236 52.1741 257.028 52.0123 256.766 51.9122C256.512 51.8043 256.242 51.7504 255.957 51.7504C255.788 51.7504 255.622 51.7696 255.46 51.8082C255.306 51.8467 255.164 51.9083 255.033 51.993C254.909 52.0778 254.809 52.1895 254.732 52.3282C254.655 52.4591 254.617 52.617 254.617 52.8019C254.617 53.0793 254.713 53.2911 254.906 53.4375C255.098 53.5838 255.337 53.7109 255.622 53.8188C255.907 53.9266 256.219 54.0306 256.558 54.1308C256.897 54.2309 257.209 54.3696 257.494 54.5468C257.779 54.724 258.018 54.9589 258.21 55.2517C258.403 55.5444 258.499 55.9334 258.499 56.4188C258.499 56.8579 258.418 57.243 258.257 57.5743C258.095 57.8978 257.875 58.1675 257.598 58.3832C257.328 58.5989 257.013 58.7606 256.651 58.8685C256.288 58.9763 255.907 59.0303 255.507 59.0303C254.998 59.0303 254.509 58.9455 254.039 58.776C253.569 58.6066 253.165 58.3215 252.826 57.9209L253.923 56.8579C254.101 57.1275 254.332 57.3393 254.617 57.4934C254.909 57.6398 255.218 57.713 255.541 57.713C255.711 57.713 255.88 57.6898 256.05 57.6436C256.219 57.5974 256.373 57.5281 256.512 57.4356C256.651 57.3432 256.762 57.2276 256.847 57.089C256.932 56.9426 256.974 56.777 256.974 56.5921C256.974 56.2916 256.878 56.0605 256.685 55.8988C256.493 55.737 256.254 55.6022 255.969 55.4943C255.684 55.3788 255.372 55.2709 255.033 55.1708C254.694 55.0706 254.382 54.9358 254.097 54.7663C253.812 54.5892 253.573 54.358 253.38 54.073C253.188 53.7803 253.091 53.3912 253.091 52.9059C253.091 52.4822 253.176 52.1163 253.346 51.8082C253.523 51.5 253.75 51.2458 254.027 51.0455C254.312 50.8375 254.636 50.6834 254.998 50.5833C255.36 50.4831 255.73 50.4331 256.107 50.4331C256.539 50.4331 256.955 50.4986 257.355 50.6295C257.764 50.7605 258.13 50.9762 258.453 51.2766L257.39 52.3975ZM262.327 50.6411H265.077C265.47 50.6411 265.847 50.6796 266.209 50.7566C266.579 50.8337 266.903 50.9646 267.18 51.1495C267.457 51.3267 267.677 51.5693 267.839 51.8775C268.008 52.1779 268.093 52.5554 268.093 53.0099C268.093 53.5261 268.004 53.9421 267.827 54.2579C267.65 54.5737 267.411 54.8203 267.111 54.9974C266.81 55.1669 266.46 55.2825 266.059 55.3441C265.666 55.4057 265.254 55.4365 264.823 55.4365H263.783V58.8223H262.327V50.6411ZM264.661 54.1886C264.869 54.1886 265.085 54.1809 265.308 54.1655C265.531 54.15 265.736 54.1038 265.92 54.0268C266.113 53.9498 266.267 53.8342 266.383 53.6801C266.506 53.5261 266.568 53.3104 266.568 53.033C266.568 52.7788 266.514 52.5785 266.406 52.4321C266.298 52.2781 266.159 52.1625 265.99 52.0855C265.82 52.0007 265.632 51.9468 265.424 51.9237C265.216 51.9006 265.015 51.889 264.823 51.889H263.783V54.1886H264.661ZM271.702 50.6411H277.121V51.9584H273.158V53.969H276.913V55.2863H273.158V57.505H277.329V58.8223H271.702V50.6411ZM286.693 52.5593C286.393 52.2357 286.1 52.02 285.815 51.9122C285.537 51.8043 285.256 51.7504 284.971 51.7504C284.548 51.7504 284.162 51.8274 283.816 51.9815C283.477 52.1279 283.184 52.3359 282.938 52.6055C282.691 52.8674 282.498 53.1755 282.36 53.5299C282.229 53.8843 282.163 54.2656 282.163 54.6739C282.163 55.113 282.229 55.5174 282.36 55.8872C282.498 56.257 282.691 56.5767 282.938 56.8463C283.184 57.1159 283.477 57.3278 283.816 57.4818C284.162 57.6359 284.548 57.713 284.971 57.713C285.303 57.713 285.622 57.6359 285.93 57.4818C286.246 57.3201 286.539 57.0659 286.809 56.7192L288.01 57.5743C287.641 58.0827 287.19 58.4525 286.658 58.6836C286.127 58.9147 285.561 59.0303 284.96 59.0303C284.328 59.0303 283.746 58.9301 283.215 58.7298C282.691 58.5218 282.236 58.2329 281.851 57.8632C281.474 57.4857 281.177 57.035 280.962 56.5112C280.746 55.9873 280.638 55.4057 280.638 54.7663C280.638 54.1115 280.746 53.5184 280.962 52.9868C281.177 52.4476 281.474 51.9892 281.851 51.6117C282.236 51.2342 282.691 50.9454 283.215 50.7451C283.746 50.5371 284.328 50.4331 284.96 50.4331C285.514 50.4331 286.027 50.5332 286.497 50.7335C286.974 50.9261 287.417 51.2574 287.825 51.7273L286.693 52.5593ZM292.974 51.9584H290.467V50.6411H296.938V51.9584H294.43V58.8223H292.974V51.9584Z" fill="#D9D9D9"/>
<path d="M403.864 44.5016L409.737 37.8251L405.338 32.8237C404.906 32.3335 404.209 32.3335 403.778 32.8237L393.506 44.5016C393.075 44.9918 393.075 45.7841 393.506 46.2743L403.778 57.9522C404.209 58.4424 404.906 58.4424 405.338 57.9522L409.737 52.9508L403.864 46.2743C403.433 45.7841 403.433 44.9918 403.864 44.5016Z" fill="#D9D9D9"/>
<path d="M425.967 44.5016L415.695 32.8237C415.264 32.3335 414.567 32.3335 414.136 32.8237L409.737 37.8251L415.609 44.5016C416.041 44.9918 416.041 45.7841 415.609 46.2743L409.737 52.9508L414.136 57.9522C414.567 58.4424 415.264 58.4424 415.695 57.9522L425.967 46.2743C426.398 45.7841 426.398 44.9918 425.967 44.5016Z" fill="#D9D9D9"/>
<path d="M410.953 34.8705C410.286 35.6295 409.193 35.6295 408.523 34.8705C407.856 34.1114 406.763 32.867 406.093 32.108C405.426 31.349 405.87 30.7256 407.083 30.7256H412.393C413.605 30.7256 414.051 31.3466 413.383 32.108C412.715 32.8694 411.623 34.1114 410.953 34.8705Z" fill="#AAAAAA"/>
<path d="M408.523 56.1298C409.191 55.3708 410.285 55.3708 410.953 56.1298C411.62 56.8888 412.713 58.1332 413.383 58.8923C414.052 59.6513 413.604 60.2747 412.393 60.2747H407.083C405.871 60.2747 405.425 59.6537 406.093 58.8923C406.761 58.1332 407.853 56.8888 408.523 56.1298Z" fill="#AAAAAA"/>
<path d="M438.754 48.5705C437.678 49.6567 436.361 50.1998 434.804 50.1998C433.246 50.1998 431.929 49.6567 430.853 48.5705C429.777 47.4842 429.239 46.1674 429.239 44.62C429.239 43.0624 429.777 41.7456 430.853 40.6696C431.929 39.5834 433.246 39.0403 434.804 39.0403C436.361 39.0403 437.678 39.5834 438.754 40.6696C439.84 41.7456 440.384 43.0624 440.384 44.62C440.384 46.1674 439.84 47.4842 438.754 48.5705ZM431.837 47.6021C432.636 48.4014 433.625 48.801 434.804 48.801C435.982 48.801 436.966 48.4014 437.755 47.6021C438.554 46.7925 438.954 45.7985 438.954 44.62C438.954 43.4313 438.554 42.4373 437.755 41.638C436.966 40.8285 435.982 40.4237 434.804 40.4237C433.625 40.4237 432.636 40.8285 431.837 41.638C431.048 42.4373 430.654 43.4313 430.654 44.62C430.654 45.7985 431.048 46.7925 431.837 47.6021ZM448.481 50L446.068 45.8805H443.532V50H442.102V39.2401H446.406C447.328 39.2401 448.117 39.568 448.773 40.2239C449.429 40.8694 449.757 41.6534 449.757 42.5757C449.757 43.2725 449.547 43.9078 449.127 44.4817C448.717 45.0556 448.184 45.4603 447.528 45.696L450.064 50H448.481ZM443.532 40.5774V44.5893H446.406C446.939 44.5893 447.39 44.3946 447.759 44.0052C448.138 43.6055 448.328 43.129 448.328 42.5757C448.328 42.0223 448.138 41.5509 447.759 41.1615C447.39 40.7721 446.939 40.5774 446.406 40.5774H443.532ZM451.499 39.2401H452.929V50H451.499V39.2401ZM456.666 48.6473H461.662V50H455.237V39.2401H461.585V40.5928H456.666V43.8976H461.201V45.2349H456.666V48.6473ZM470.074 39.2401H471.504V50H470.351L464.817 41.9608V50H463.388V39.2401H464.541L470.074 47.2639V39.2401ZM480.692 39.2401V40.5928H477.51V50H476.096V40.5928H472.929V39.2401H480.692ZM488.412 50L487.536 47.5867H482.694L481.818 50H480.296L484.308 39.2401H485.922L489.934 50H488.412ZM483.186 46.2494H487.044L485.107 40.9463L483.186 46.2494ZM492.633 48.6473H497.275V50H491.203V39.2401H492.633V48.6473ZM508.7 44.4202C509.192 44.6559 509.581 44.9941 509.868 45.4347C510.166 45.8754 510.314 46.3826 510.314 46.9565C510.314 47.8173 510.012 48.5397 509.407 49.1238C508.803 49.7079 508.065 50 507.194 50H502.552V39.2401H506.856C507.696 39.2401 508.408 39.5219 508.992 40.0855C509.576 40.6491 509.868 41.346 509.868 42.176C509.868 43.129 509.479 43.8771 508.7 44.4202ZM506.856 40.5774H503.981V43.8669H506.856C507.306 43.8669 507.686 43.708 507.993 43.3903C508.3 43.0727 508.454 42.6833 508.454 42.2221C508.454 41.7712 508.295 41.3869 507.978 41.0693C507.67 40.7414 507.296 40.5774 506.856 40.5774ZM507.194 48.6627C507.675 48.6627 508.08 48.4936 508.408 48.1554C508.736 47.8173 508.9 47.4022 508.9 46.9104C508.9 46.4287 508.731 46.0188 508.393 45.6807C508.065 45.3425 507.665 45.1734 507.194 45.1734H503.981V48.6627H507.194ZM518.743 49.1699C517.995 49.8565 517.027 50.1998 515.838 50.1998C514.649 50.1998 513.676 49.8565 512.917 49.1699C512.169 48.4731 511.795 47.5457 511.795 46.3877V39.2401H513.225V46.3263C513.225 47.0846 513.45 47.6892 513.901 48.1401C514.352 48.5807 514.998 48.801 515.838 48.801C516.678 48.801 517.324 48.5807 517.775 48.1401C518.225 47.6892 518.451 47.0846 518.451 46.3263V39.2401H519.865V46.3877C519.865 47.5457 519.491 48.4731 518.743 49.1699ZM522.051 39.2401H523.48V50H522.051V39.2401ZM527.218 48.6473H531.86V50H525.789V39.2401H527.218V48.6473ZM537.491 39.2401C538.956 39.2401 540.17 39.7627 541.134 40.808C542.107 41.843 542.594 43.1137 542.594 44.62C542.594 46.1264 542.107 47.4022 541.134 48.4475C540.17 49.4825 538.956 50 537.491 50H533.294V39.2401H537.491ZM537.491 48.6473C538.587 48.6473 539.484 48.263 540.181 47.4945C540.877 46.7259 541.226 45.7678 541.226 44.62C541.226 43.4723 540.877 42.5142 540.181 41.7456C539.484 40.977 538.587 40.5928 537.491 40.5928H534.724V48.6473H537.491ZM544.327 39.2401H545.757V50H544.327V39.2401ZM554.752 39.2401H556.181V50H555.028L549.495 41.9608V50H548.065V39.2401H549.218L554.752 47.2639V39.2401ZM568.858 44.6662V45.3118C568.858 46.7157 568.377 47.8839 567.413 48.8164C566.45 49.7387 565.174 50.1998 563.586 50.1998C561.946 50.1998 560.589 49.6618 559.513 48.5858C558.447 47.4996 557.914 46.1777 557.914 44.62C557.914 43.0624 558.447 41.7456 559.513 40.6696C560.589 39.5834 561.936 39.0403 563.555 39.0403C564.549 39.0403 565.461 39.2811 566.291 39.7627C567.121 40.2341 567.762 40.8592 568.213 41.638L566.983 42.3605C566.676 41.7764 566.209 41.3101 565.584 40.9617C564.969 40.603 564.288 40.4237 563.54 40.4237C562.31 40.4237 561.301 40.8285 560.512 41.638C559.723 42.4373 559.328 43.4313 559.328 44.62C559.328 45.8088 559.723 46.8028 560.512 47.6021C561.311 48.4014 562.341 48.801 563.601 48.801C564.677 48.801 565.548 48.5397 566.214 48.0171C566.881 47.4842 567.285 46.7976 567.429 45.9573H563.478V44.6662H568.858Z" fill="#D9D9D9"/>
<path fill-rule="evenodd" clip-rule="evenodd" d="M639.303 47.2809C639.303 47.2805 639.303 47.2801 639.304 47.2799L655.541 29.064C655.71 28.8745 655.845 28.6638 655.948 28.4401C657.982 28.6286 659.574 30.3398 659.574 32.4229V58.5765C659.574 60.7856 657.783 62.5765 655.574 62.5765H635.746L645.955 52.5447L654.662 58.6598C655.558 59.2895 656.762 59.0434 657.377 58.1037C657.931 57.2583 657.835 56.1089 657.149 55.3824L645.955 43.5137V43.5143L629.717 61.7305C629.494 61.9803 629.329 62.2671 629.222 62.5716C627.105 62.4683 625.42 60.7191 625.42 58.5765V32.4229C625.42 30.2137 627.211 28.4229 629.42 28.4229H649.303L639.303 38.2498L630.596 32.1347C629.699 31.5051 628.496 31.7512 627.881 32.6909C627.327 33.5363 627.423 34.6857 628.109 35.4121L639.303 47.2809Z" fill="#D9D9D9"/>
<path d="M773.725 51.4747C772.518 51.4747 771.241 51.3484 769.894 51.0958C768.547 50.8432 767.34 50.4082 766.273 49.7907C765.824 49.51 765.501 49.1873 765.305 48.8224C765.136 48.4295 765.066 48.0506 765.094 47.6857C765.151 47.2928 765.291 46.956 765.515 46.6753C765.768 46.3946 766.077 46.2122 766.442 46.128C766.835 46.0438 767.256 46.114 767.705 46.3385C768.827 46.8718 769.88 47.2507 770.862 47.4752C771.844 47.6717 772.813 47.7699 773.767 47.7699C775.114 47.7699 776.111 47.5454 776.756 47.0963C777.43 46.6192 777.766 46.0017 777.766 45.2439C777.766 44.5984 777.542 44.1072 777.093 43.7704C776.672 43.4056 776.026 43.1389 775.156 42.9705L770.946 42.1706C769.206 41.8338 767.873 41.2023 766.947 40.2761C766.049 39.3219 765.6 38.101 765.6 36.6135C765.6 35.2663 765.964 34.1015 766.694 33.1192C767.452 32.1369 768.49 31.3791 769.81 30.8458C771.129 30.3125 772.644 30.0459 774.356 30.0459C775.591 30.0459 776.742 30.1862 777.809 30.4669C778.903 30.7195 779.956 31.1265 780.966 31.6878C781.387 31.9123 781.668 32.207 781.808 32.5719C781.976 32.9367 782.019 33.3156 781.934 33.7086C781.85 34.0734 781.682 34.4102 781.429 34.719C781.177 34.9996 780.854 35.1821 780.461 35.2663C780.096 35.3224 779.675 35.2382 779.198 35.0137C778.328 34.5646 777.486 34.2418 776.672 34.0454C775.886 33.8489 775.128 33.7507 774.398 33.7507C773.023 33.7507 771.999 33.9892 771.325 34.4664C770.68 34.9435 770.357 35.575 770.357 36.3609C770.357 36.9503 770.553 37.4414 770.946 37.8344C771.339 38.2273 771.943 38.4939 772.757 38.6343L776.967 39.4341C778.791 39.7709 780.166 40.3884 781.092 41.2865C782.047 42.1847 782.524 43.3915 782.524 44.9071C782.524 46.956 781.724 48.5698 780.124 49.7486C778.524 50.8993 776.391 51.4747 773.725 51.4747Z" fill="#D9D9D9"/>
<path d="M748.84 51.4745C747.128 51.4745 745.711 51.1657 744.588 50.5483C743.465 49.9027 742.623 48.9485 742.062 47.6855C741.529 46.4225 741.262 44.8508 741.262 42.9703V32.7822C741.262 31.884 741.487 31.2245 741.936 30.8035C742.385 30.3544 743.03 30.1299 743.872 30.1299C744.714 30.1299 745.36 30.3544 745.809 30.8035C746.286 31.2245 746.525 31.884 746.525 32.7822V43.0545C746.525 44.514 746.819 45.5945 747.409 46.2962C747.998 46.9979 748.938 47.3487 750.229 47.3487C751.633 47.3487 752.784 46.8716 753.682 45.9173C754.58 44.935 755.029 43.6439 755.029 42.0441V32.7822C755.029 31.884 755.253 31.2245 755.702 30.8035C756.151 30.3544 756.797 30.1299 757.639 30.1299C758.481 30.1299 759.127 30.3544 759.576 30.8035C760.053 31.2245 760.291 31.884 760.291 32.7822V48.6959C760.291 50.4921 759.435 51.3903 757.723 51.3903C756.909 51.3903 756.278 51.1657 755.829 50.7167C755.38 50.2395 755.155 49.566 755.155 48.6959V45.4963L755.745 46.7593C755.155 48.2749 754.257 49.4397 753.05 50.2536C751.871 51.0675 750.468 51.4745 748.84 51.4745Z" fill="#D9D9D9"/>
<path d="M719.416 51.264C718.799 51.264 718.28 51.0956 717.859 50.7588C717.466 50.3939 717.255 49.9308 717.227 49.3695C717.227 48.8082 717.466 48.2188 717.943 47.6013L724.763 39.1813V41.6652L718.364 33.7926C717.859 33.1751 717.62 32.5857 717.648 32.0244C717.676 31.463 717.887 31.014 718.28 30.6772C718.701 30.3123 719.22 30.1299 719.837 30.1299C720.483 30.1299 721.016 30.2421 721.437 30.4667C721.886 30.6912 722.293 31.042 722.658 31.5192L727.71 38.0025H725.858L730.952 31.5192C731.345 31.042 731.751 30.6912 732.172 30.4667C732.593 30.2421 733.113 30.1299 733.73 30.1299C734.376 30.1299 734.895 30.3123 735.288 30.6772C735.681 31.042 735.877 31.5051 735.877 32.0665C735.905 32.6278 735.667 33.2172 735.162 33.8347L728.804 41.6231V39.2655L735.625 47.6013C736.13 48.1907 736.368 48.7661 736.34 49.3274C736.312 49.8887 736.088 50.3518 735.667 50.7167C735.274 51.0815 734.755 51.264 734.109 51.264C733.492 51.264 732.972 51.1517 732.551 50.9272C732.13 50.7026 731.723 50.3518 731.33 49.8747L725.858 42.9703H727.626L722.195 49.8747C721.83 50.3237 721.437 50.6746 721.016 50.9272C720.595 51.1517 720.062 51.264 719.416 51.264Z" fill="#D9D9D9"/>
<path d="M705.016 51.4747C702.686 51.4747 700.679 51.0397 698.995 50.1696C697.311 49.2995 696.006 48.0646 695.08 46.4648C694.182 44.865 693.733 42.9705 693.733 40.7813C693.733 38.6483 694.168 36.7819 695.038 35.1821C695.936 33.5823 697.157 32.3333 698.701 31.4352C700.272 30.509 702.055 30.0459 704.047 30.0459C705.507 30.0459 706.812 30.2845 707.963 30.7616C709.141 31.2387 710.138 31.9264 710.952 32.8245C711.794 33.7226 712.425 34.8172 712.846 36.1083C713.295 37.3713 713.52 38.8027 713.52 40.4024C713.52 40.9076 713.337 41.3006 712.973 41.5812C712.636 41.8338 712.145 41.9601 711.499 41.9601H697.985V38.929H709.815L709.141 39.5604C709.141 38.2694 708.945 37.1888 708.552 36.3188C708.187 35.4487 707.64 34.7891 706.91 34.3401C706.208 33.8629 705.324 33.6244 704.258 33.6244C703.079 33.6244 702.069 33.905 701.227 34.4664C700.413 34.9996 699.781 35.7715 699.332 36.7819C698.911 37.7642 698.701 38.943 698.701 40.3182V40.6129C698.701 42.9144 699.234 44.6405 700.3 45.7912C701.395 46.9139 702.995 47.4752 705.1 47.4752C705.83 47.4752 706.644 47.391 707.542 47.2226C708.468 47.0261 709.338 46.7034 710.152 46.2543C710.741 45.9175 711.26 45.7772 711.71 45.8333C712.159 45.8614 712.509 46.0157 712.762 46.2964C713.043 46.5771 713.211 46.9279 713.267 47.3489C713.323 47.7418 713.239 48.1488 713.015 48.5698C712.818 48.9908 712.467 49.3557 711.962 49.6644C710.98 50.2819 709.843 50.745 708.552 51.0537C707.289 51.3344 706.11 51.4747 705.016 51.4747Z" fill="#D9D9D9"/>
<path d="M672.433 51.3905C671.591 51.3905 670.945 51.166 670.496 50.7169C670.047 50.2398 669.823 49.5662 669.823 48.6961V32.7824C669.823 31.9123 670.047 31.2528 670.496 30.8037C670.945 30.3546 671.577 30.1301 672.391 30.1301C673.205 30.1301 673.836 30.3546 674.285 30.8037C674.734 31.2528 674.959 31.9123 674.959 32.7824V35.6452L674.496 34.5927C675.113 33.1051 676.068 31.9825 677.359 31.2247C678.678 30.4388 680.165 30.0459 681.821 30.0459C683.477 30.0459 684.838 30.3546 685.905 30.9721C686.971 31.5896 687.771 32.5298 688.305 33.7928C688.838 35.0277 689.104 36.5994 689.104 38.508V48.6961C689.104 49.5662 688.88 50.2398 688.431 50.7169C687.982 51.166 687.336 51.3905 686.494 51.3905C685.652 51.3905 684.993 51.166 684.516 50.7169C684.067 50.2398 683.842 49.5662 683.842 48.6961V38.7606C683.842 37.1608 683.533 35.996 682.916 35.2663C682.326 34.5365 681.4 34.1717 680.137 34.1717C678.594 34.1717 677.359 34.6628 676.432 35.6452C675.534 36.5994 675.085 37.8765 675.085 39.4763V48.6961C675.085 50.4924 674.201 51.3905 672.433 51.3905Z" fill="#D9D9D9"/>
<path d="M774.794 61.171C774.713 61.171 774.65 61.1485 774.605 61.1035C774.56 61.054 774.538 60.9866 774.538 60.9011V56.5902C774.538 56.5002 774.56 56.4328 774.605 56.3878C774.65 56.3428 774.713 56.3203 774.794 56.3203C774.866 56.3203 774.922 56.3361 774.963 56.3675C775.008 56.3945 775.048 56.4417 775.084 56.5092L776.933 59.9904H776.73L778.572 56.5092C778.608 56.4417 778.646 56.3945 778.687 56.3675C778.727 56.3361 778.786 56.3203 778.862 56.3203C778.939 56.3203 778.999 56.3428 779.044 56.3878C779.089 56.4328 779.112 56.5002 779.112 56.5902V60.9011C779.112 60.9866 779.089 61.054 779.044 61.1035C779.004 61.1485 778.941 61.171 778.855 61.171C778.774 61.171 778.711 61.1485 778.666 61.1035C778.621 61.054 778.599 60.9866 778.599 60.9011V57.1096H778.761L777.074 60.2737C777.043 60.3322 777.009 60.3749 776.973 60.4019C776.942 60.4244 776.894 60.4356 776.831 60.4356C776.768 60.4356 776.719 60.4221 776.683 60.3951C776.647 60.3681 776.615 60.3277 776.589 60.2737L774.882 57.1029H775.044V60.9011C775.044 60.9866 775.021 61.054 774.976 61.1035C774.936 61.1485 774.875 61.171 774.794 61.171Z" fill="#D9D9D9"/>
<path d="M770.142 61.1845C769.827 61.1845 769.551 61.144 769.312 61.063C769.078 60.9776 768.881 60.8539 768.719 60.692C768.557 60.5256 768.435 60.3209 768.354 60.0781C768.273 59.8352 768.233 59.5563 768.233 59.2415V56.6037C768.233 56.5092 768.255 56.4395 768.3 56.3945C768.35 56.345 768.42 56.3203 768.51 56.3203C768.599 56.3203 768.667 56.345 768.712 56.3945C768.761 56.4395 768.786 56.5092 768.786 56.6037V59.2145C768.786 59.7093 768.901 60.0803 769.13 60.3277C769.36 60.5705 769.697 60.692 770.142 60.692C770.587 60.692 770.922 60.5705 771.147 60.3277C771.372 60.0803 771.485 59.7093 771.485 59.2145V56.6037C771.485 56.5092 771.509 56.4395 771.559 56.3945C771.608 56.345 771.678 56.3203 771.768 56.3203C771.853 56.3203 771.919 56.345 771.964 56.3945C772.013 56.4395 772.038 56.5092 772.038 56.6037V59.2415C772.038 59.6598 771.966 60.0151 771.822 60.3074C771.683 60.5998 771.471 60.8202 771.188 60.9686C770.904 61.1125 770.556 61.1845 770.142 61.1845Z" fill="#D9D9D9"/>
<path d="M763.715 61.1239C763.626 61.1239 763.556 61.0992 763.506 61.0497C763.457 60.9957 763.432 60.9238 763.432 60.8338V56.6241C763.432 56.5296 763.455 56.4577 763.5 56.4082C763.549 56.3587 763.619 56.334 763.709 56.334C763.799 56.334 763.866 56.3587 763.911 56.4082C763.961 56.4577 763.985 56.5296 763.985 56.6241V60.6382H766.198C766.279 60.6382 766.342 60.6607 766.387 60.7056C766.432 60.7461 766.455 60.8046 766.455 60.8811C766.455 60.9575 766.432 61.0182 766.387 61.0632C766.342 61.1037 766.279 61.1239 766.198 61.1239H763.715Z" fill="#D9D9D9"/>
<path d="M758.092 61.1706C758.002 61.1706 757.932 61.1459 757.882 61.0964C757.837 61.0424 757.815 60.9705 757.815 60.8805V56.6505C757.815 56.5561 757.84 56.4864 757.889 56.4414C757.939 56.3919 758.008 56.3672 758.098 56.3672H759.697C760.205 56.3672 760.597 56.4931 760.871 56.745C761.145 56.9924 761.283 57.3432 761.283 57.7974C761.283 58.2472 761.145 58.598 760.871 58.8499C760.597 59.1017 760.205 59.2277 759.697 59.2277H758.368V60.8805C758.368 60.9705 758.346 61.0424 758.301 61.0964C758.256 61.1459 758.186 61.1706 758.092 61.1706ZM758.368 58.7622H759.63C759.994 58.7622 760.268 58.6812 760.453 58.5193C760.642 58.3529 760.736 58.1123 760.736 57.7974C760.736 57.4781 760.642 57.2375 760.453 57.0756C760.268 56.9091 759.994 56.8259 759.63 56.8259H758.368V58.7622Z" fill="#D9D9D9"/>
<path d="M753.983 61.1843C753.516 61.1843 753.115 61.0853 752.782 60.8874C752.45 60.6895 752.193 60.4084 752.013 60.0441C751.838 59.6798 751.75 59.2458 751.75 58.7421C751.75 58.3643 751.8 58.027 751.899 57.7301C752.002 57.4288 752.148 57.1747 752.337 56.9678C752.531 56.7564 752.767 56.5945 753.046 56.482C753.324 56.3651 753.637 56.3066 753.983 56.3066C754.262 56.3066 754.528 56.3471 754.779 56.4281C755.031 56.5045 755.249 56.6192 755.434 56.7721C755.492 56.8171 755.53 56.8688 755.548 56.9273C755.571 56.9813 755.573 57.0353 755.555 57.0892C755.542 57.1387 755.515 57.1814 755.474 57.2174C755.438 57.2489 755.393 57.2646 755.339 57.2646C755.285 57.2646 755.225 57.2421 755.157 57.1972C754.995 57.0667 754.818 56.97 754.624 56.9071C754.431 56.8441 754.222 56.8126 753.997 56.8126C753.641 56.8126 753.34 56.8891 753.093 57.042C752.845 57.1904 752.659 57.4086 752.533 57.6964C752.407 57.9842 752.344 58.3328 752.344 58.7421C752.344 59.1514 752.407 59.5022 752.533 59.7945C752.659 60.0824 752.845 60.3028 753.093 60.4557C753.34 60.6041 753.641 60.6783 753.997 60.6783C754.217 60.6783 754.426 60.6468 754.624 60.5839C754.822 60.5164 755.004 60.4174 755.171 60.287C755.238 60.242 755.299 60.2218 755.353 60.2263C755.407 60.2263 755.452 60.242 755.488 60.2735C755.524 60.305 755.548 60.3455 755.562 60.395C755.58 60.4444 755.58 60.4962 755.562 60.5501C755.548 60.6041 755.515 60.6513 755.461 60.6918C755.272 60.8537 755.049 60.9774 754.793 61.0628C754.541 61.1438 754.271 61.1843 753.983 61.1843Z" fill="#D9D9D9"/>
<path d="M749.121 61.171C749.031 61.171 748.961 61.1462 748.912 61.0968C748.867 61.0428 748.844 60.9708 748.844 60.8809V56.6104C748.844 56.516 748.867 56.444 748.912 56.3945C748.961 56.345 749.031 56.3203 749.121 56.3203C749.211 56.3203 749.278 56.345 749.323 56.3945C749.373 56.444 749.397 56.516 749.397 56.6104V60.8809C749.397 60.9708 749.375 61.0428 749.33 61.0968C749.285 61.1462 749.215 61.171 749.121 61.171Z" fill="#D9D9D9"/>
<path d="M744.772 61.1843C744.264 61.1843 743.834 61.0876 743.484 60.8942C743.137 60.7008 742.874 60.4219 742.694 60.0576C742.514 59.6933 742.424 59.2571 742.424 58.7488C742.424 58.371 742.474 58.0315 742.573 57.7301C742.676 57.4288 742.825 57.1747 743.018 56.9678C743.216 56.7564 743.454 56.5945 743.733 56.482C744.016 56.3651 744.336 56.3066 744.691 56.3066C744.974 56.3066 745.249 56.3471 745.514 56.4281C745.78 56.5045 746.016 56.6282 746.223 56.7991C746.277 56.8396 746.31 56.8846 746.324 56.9341C746.337 56.9835 746.335 57.033 746.317 57.0825C746.303 57.1319 746.279 57.1747 746.243 57.2107C746.211 57.2421 746.169 57.2601 746.115 57.2646C746.065 57.2691 746.013 57.2534 745.959 57.2174C745.775 57.0735 745.579 56.97 745.372 56.9071C745.166 56.8396 744.936 56.8059 744.684 56.8059C744.325 56.8059 744.019 56.8823 743.767 57.0353C743.519 57.1882 743.331 57.4086 743.2 57.6964C743.074 57.9842 743.011 58.3351 743.011 58.7488C743.011 59.3785 743.157 59.8597 743.45 60.1926C743.747 60.5254 744.192 60.6918 744.786 60.6918C745.001 60.6918 745.213 60.6716 745.42 60.6311C745.627 60.5861 745.822 60.5254 746.007 60.4489L745.885 60.766V59.0862H744.92C744.84 59.0862 744.779 59.0659 744.738 59.0254C744.698 58.985 744.678 58.931 744.678 58.8635C744.678 58.7916 744.698 58.7376 744.738 58.7016C744.779 58.6656 744.84 58.6476 744.92 58.6476H746.128C746.205 58.6476 746.263 58.6679 746.303 58.7084C746.344 58.7488 746.364 58.8073 746.364 58.8838V60.6446C746.364 60.712 746.353 60.7683 746.33 60.8132C746.308 60.8582 746.27 60.8919 746.216 60.9144C746.027 60.9909 745.8 61.0561 745.534 61.1101C745.274 61.1595 745.019 61.1843 744.772 61.1843Z" fill="#D9D9D9"/>
<path d="M738.075 61.1843C737.634 61.1843 737.25 61.0853 736.921 60.8874C736.597 60.6851 736.346 60.4017 736.166 60.0374C735.99 59.6731 735.903 59.2413 735.903 58.7421C735.903 58.3643 735.952 58.027 736.051 57.7301C736.154 57.4288 736.301 57.1747 736.49 56.9678C736.678 56.7564 736.906 56.5945 737.171 56.482C737.441 56.3651 737.742 56.3066 738.075 56.3066C738.525 56.3066 738.911 56.4056 739.235 56.6035C739.564 56.8014 739.815 57.0825 739.991 57.4468C740.171 57.8066 740.261 58.2361 740.261 58.7353C740.261 59.1131 740.209 59.4527 740.106 59.754C740.002 60.0554 739.856 60.3118 739.667 60.5231C739.478 60.7345 739.249 60.8987 738.979 61.0156C738.714 61.1281 738.412 61.1843 738.075 61.1843ZM738.075 60.6918C738.417 60.6918 738.705 60.6153 738.938 60.4624C739.177 60.3095 739.359 60.0869 739.485 59.7945C739.611 59.5022 739.674 59.1514 739.674 58.7421C739.674 58.1259 739.534 57.6492 739.256 57.3119C738.981 56.97 738.588 56.7991 738.075 56.7991C737.742 56.7991 737.457 56.8756 737.218 57.0285C736.984 57.1814 736.804 57.4041 736.678 57.6964C736.552 57.9842 736.49 58.3328 736.49 58.7421C736.49 59.3538 736.629 59.8328 736.908 60.1791C737.187 60.5209 737.576 60.6918 738.075 60.6918Z" fill="#D9D9D9"/>
<path d="M731.592 61.1239C731.502 61.1239 731.433 61.0992 731.383 61.0497C731.334 60.9957 731.309 60.9238 731.309 60.8338V56.6241C731.309 56.5296 731.332 56.4577 731.377 56.4082C731.426 56.3587 731.496 56.334 731.586 56.334C731.676 56.334 731.743 56.3587 731.788 56.4082C731.838 56.4577 731.862 56.5296 731.862 56.6241V60.6382H734.075C734.156 60.6382 734.219 60.6607 734.264 60.7056C734.309 60.7461 734.331 60.8046 734.331 60.8811C734.331 60.9575 734.309 61.0182 734.264 61.0632C734.219 61.1037 734.156 61.1239 734.075 61.1239H731.592Z" fill="#D9D9D9"/>
<path d="M724.277 61.171C724.187 61.171 724.117 61.1462 724.068 61.0968C724.023 61.0428 724 60.9686 724 60.8741V58.6613L724.122 59.0459L722.428 56.7116C722.388 56.6531 722.368 56.5947 722.368 56.5362C722.372 56.4732 722.397 56.4215 722.442 56.381C722.487 56.3406 722.545 56.3203 722.617 56.3203C722.68 56.3203 722.736 56.3361 722.786 56.3675C722.835 56.3945 722.88 56.4395 722.921 56.5025L724.358 58.4859H724.216L725.653 56.5025C725.703 56.435 725.75 56.3878 725.795 56.3608C725.84 56.3338 725.894 56.3203 725.957 56.3203C726.029 56.3203 726.085 56.3406 726.125 56.381C726.166 56.417 726.186 56.4665 726.186 56.5295C726.191 56.5879 726.17 56.6509 726.125 56.7183L724.439 59.0459L724.554 58.6613V60.8741C724.554 61.072 724.461 61.171 724.277 61.171Z" fill="#D9D9D9"/>
<path d="M717.341 61.1234C717.242 61.1234 717.166 61.0987 717.112 61.0492C717.062 60.9952 717.038 60.9188 717.038 60.8198V56.6708C717.038 56.5718 717.062 56.4976 717.112 56.4481C717.166 56.3942 717.242 56.3672 717.341 56.3672H718.94C719.268 56.3672 719.545 56.4167 719.77 56.5156C719.999 56.6101 720.175 56.7495 720.296 56.9339C720.418 57.1183 720.478 57.3432 720.478 57.6085C720.478 57.9054 720.391 58.1527 720.215 58.3506C720.044 58.5485 719.81 58.679 719.514 58.7419V58.6475C719.851 58.6879 720.114 58.8094 720.303 59.0118C720.496 59.2142 720.593 59.4818 720.593 59.8146C720.593 60.2374 720.456 60.5612 720.181 60.7861C719.907 61.011 719.52 61.1234 719.021 61.1234H717.341ZM717.577 60.6781H718.967C719.327 60.6781 719.597 60.6062 719.777 60.4622C719.957 60.3183 720.046 60.1002 720.046 59.8078C720.046 59.511 719.957 59.2929 719.777 59.1534C719.597 59.0095 719.327 58.9376 718.967 58.9376H717.577V60.6781ZM717.577 58.4923H718.859C719.21 58.4923 719.475 58.4203 719.655 58.2764C719.84 58.1325 719.932 57.9256 719.932 57.6557C719.932 57.3769 719.84 57.1678 719.655 57.0283C719.475 56.8844 719.21 56.8124 718.859 56.8124H717.577V58.4923Z" fill="#D9D9D9"/>
<path d="M707.896 61.1234C707.797 61.1234 707.72 61.0987 707.666 61.0492C707.617 60.9952 707.592 60.9188 707.592 60.8198V56.6708C707.592 56.5718 707.617 56.4976 707.666 56.4481C707.72 56.3942 707.797 56.3672 707.896 56.3672H709.198C709.967 56.3672 710.561 56.5696 710.979 56.9744C711.397 57.3791 711.606 57.9683 711.606 58.7419C711.606 59.1287 711.552 59.4705 711.444 59.7674C711.341 60.0597 711.186 60.3071 710.979 60.5095C710.772 60.7119 710.52 60.8648 710.223 60.9682C709.927 61.0717 709.585 61.1234 709.198 61.1234H707.896ZM708.145 60.6511H709.157C709.472 60.6511 709.744 60.6107 709.974 60.5297C710.208 60.4488 710.401 60.3296 710.554 60.1722C710.711 60.0147 710.828 59.8168 710.905 59.5785C710.981 59.3356 711.019 59.0568 711.019 58.7419C711.019 58.1078 710.864 57.6333 710.554 57.3184C710.244 56.9991 709.778 56.8394 709.157 56.8394H708.145V60.6511Z" fill="#D9D9D9"/>
<path d="M702.613 61.1234C702.514 61.1234 702.437 61.0987 702.383 61.0492C702.334 60.9952 702.309 60.9188 702.309 60.8198V56.6708C702.309 56.5718 702.334 56.4976 702.383 56.4481C702.437 56.3942 702.514 56.3672 702.613 56.3672H705.122C705.199 56.3672 705.257 56.3874 705.298 56.4279C705.338 56.4684 705.358 56.5246 705.358 56.5966C705.358 56.673 705.338 56.7315 705.298 56.772C705.257 56.8124 705.199 56.8327 705.122 56.8327H702.849V58.4788H704.981C705.057 58.4788 705.116 58.499 705.156 58.5395C705.197 58.5755 705.217 58.6317 705.217 58.7082C705.217 58.7846 705.197 58.8431 705.156 58.8836C705.116 58.9241 705.057 58.9443 704.981 58.9443H702.849V60.6579H705.122C705.199 60.6579 705.257 60.6781 705.298 60.7186C705.338 60.7591 705.358 60.8153 705.358 60.8873C705.358 60.9637 705.338 61.0222 705.298 61.0627C705.257 61.1032 705.199 61.1234 705.122 61.1234H702.613Z" fill="#D9D9D9"/>
<path d="M696.724 61.1706C696.634 61.1706 696.565 61.1459 696.515 61.0964C696.47 61.0424 696.448 60.9705 696.448 60.8805V56.6505C696.448 56.5561 696.472 56.4864 696.522 56.4414C696.571 56.3919 696.641 56.3672 696.731 56.3672H698.33C698.838 56.3672 699.23 56.4864 699.504 56.7247C699.778 56.9631 699.915 57.3027 699.915 57.7435C699.915 58.0223 699.852 58.2652 699.727 58.4721C699.605 58.6745 699.425 58.8296 699.187 58.9376C698.948 59.041 698.663 59.0927 698.33 59.0927L698.397 59.005H698.532C698.708 59.005 698.861 59.05 698.991 59.14C699.122 59.2299 699.241 59.3738 699.349 59.5717L699.996 60.7793C700.032 60.8423 700.048 60.9053 700.044 60.9682C700.044 61.0267 700.023 61.0762 699.983 61.1166C699.942 61.1526 699.884 61.1706 699.807 61.1706C699.731 61.1706 699.668 61.1526 699.619 61.1166C699.569 61.0807 699.526 61.0289 699.49 60.9615L698.755 59.5987C698.652 59.4053 698.532 59.2771 698.397 59.2142C698.263 59.1467 698.085 59.113 697.864 59.113H697.001V60.8805C697.001 60.9705 696.978 61.0424 696.933 61.0964C696.889 61.1459 696.819 61.1706 696.724 61.1706ZM697.001 58.6745H698.249C698.618 58.6745 698.897 58.598 699.086 58.4451C699.274 58.2877 699.369 58.0538 699.369 57.7435C699.369 57.4421 699.274 57.215 699.086 57.0621C698.897 56.9047 698.618 56.8259 698.249 56.8259H697.001V58.6745Z" fill="#D9D9D9"/>
<path d="M691.468 61.1234C691.369 61.1234 691.293 61.0987 691.239 61.0492C691.189 60.9952 691.165 60.9188 691.165 60.8198V56.6708C691.165 56.5718 691.189 56.4976 691.239 56.4481C691.293 56.3942 691.369 56.3672 691.468 56.3672H693.978C694.054 56.3672 694.113 56.3874 694.153 56.4279C694.194 56.4684 694.214 56.5246 694.214 56.5966C694.214 56.673 694.194 56.7315 694.153 56.772C694.113 56.8124 694.054 56.8327 693.978 56.8327H691.704V58.4788H693.836C693.913 58.4788 693.971 58.499 694.012 58.5395C694.052 58.5755 694.072 58.6317 694.072 58.7082C694.072 58.7846 694.052 58.8431 694.012 58.8836C693.971 58.9241 693.913 58.9443 693.836 58.9443H691.704V60.6579H693.978C694.054 60.6579 694.113 60.6781 694.153 60.7186C694.194 60.7591 694.214 60.8153 694.214 60.8873C694.214 60.9637 694.194 61.0222 694.153 61.0627C694.113 61.1032 694.054 61.1234 693.978 61.1234H691.468Z" fill="#D9D9D9"/>
<path d="M683.914 61.171C683.833 61.171 683.768 61.1507 683.718 61.1103C683.669 61.0653 683.628 61.0001 683.597 60.9146L682.106 56.6576C682.074 56.5632 682.081 56.4845 682.126 56.4215C682.176 56.354 682.252 56.3203 682.355 56.3203C682.432 56.3203 682.493 56.3406 682.538 56.381C682.583 56.417 682.621 56.4755 682.652 56.5564L684.049 60.6515H683.813L685.236 56.5767C685.268 56.4912 685.306 56.4283 685.351 56.3878C685.396 56.3428 685.457 56.3203 685.533 56.3203C685.605 56.3203 685.661 56.3428 685.702 56.3878C685.747 56.4283 685.785 56.4912 685.816 56.5767L687.22 60.6515H687.01L688.42 56.5564C688.443 56.48 688.477 56.4215 688.522 56.381C688.571 56.3406 688.634 56.3203 688.711 56.3203C688.805 56.3203 688.875 56.3518 688.92 56.4148C688.965 56.4777 688.969 56.5587 688.933 56.6576L687.436 60.9146C687.404 61.0001 687.364 61.0653 687.314 61.1103C687.269 61.1507 687.204 61.171 687.118 61.171C687.037 61.171 686.972 61.1507 686.923 61.1103C686.878 61.0653 686.837 61.0001 686.801 60.9146L685.445 57.0084H685.594L684.224 60.9146C684.193 61.0001 684.155 61.0653 684.11 61.1103C684.065 61.1507 683.999 61.171 683.914 61.171Z" fill="#D9D9D9"/>
<path d="M677.972 61.1843C677.531 61.1843 677.146 61.0853 676.818 60.8874C676.494 60.6851 676.242 60.4017 676.062 60.0374C675.887 59.6731 675.799 59.2413 675.799 58.7421C675.799 58.3643 675.849 58.027 675.948 57.7301C676.051 57.4288 676.197 57.1747 676.386 56.9678C676.575 56.7564 676.802 56.5945 677.068 56.482C677.337 56.3651 677.639 56.3066 677.972 56.3066C678.421 56.3066 678.808 56.4056 679.132 56.6035C679.46 56.8014 679.712 57.0825 679.888 57.4468C680.068 57.8066 680.157 58.2361 680.157 58.7353C680.157 59.1131 680.106 59.4527 680.002 59.754C679.899 60.0554 679.753 60.3118 679.564 60.5231C679.375 60.7345 679.146 60.8987 678.876 61.0156C678.61 61.1281 678.309 61.1843 677.972 61.1843ZM677.972 60.6918C678.313 60.6918 678.601 60.6153 678.835 60.4624C679.074 60.3095 679.256 60.0869 679.382 59.7945C679.508 59.5022 679.571 59.1514 679.571 58.7421C679.571 58.1259 679.431 57.6492 679.152 57.3119C678.878 56.97 678.484 56.7991 677.972 56.7991C677.639 56.7991 677.353 56.8756 677.115 57.0285C676.881 57.1814 676.701 57.4041 676.575 57.6964C676.449 57.9842 676.386 58.3328 676.386 58.7421C676.386 59.3538 676.526 59.8328 676.805 60.1791C677.083 60.5209 677.472 60.6918 677.972 60.6918Z" fill="#D9D9D9"/>
<path d="M670.685 61.1706C670.595 61.1706 670.526 61.1459 670.476 61.0964C670.431 61.0424 670.409 60.9705 670.409 60.8805V56.6505C670.409 56.5561 670.433 56.4864 670.483 56.4414C670.532 56.3919 670.602 56.3672 670.692 56.3672H672.291C672.799 56.3672 673.19 56.4931 673.465 56.745C673.739 56.9924 673.876 57.3432 673.876 57.7974C673.876 58.2472 673.739 58.598 673.465 58.8499C673.19 59.1017 672.799 59.2277 672.291 59.2277H670.962V60.8805C670.962 60.9705 670.939 61.0424 670.894 61.0964C670.849 61.1459 670.78 61.1706 670.685 61.1706ZM670.962 58.7622H672.223C672.588 58.7622 672.862 58.6812 673.047 58.5193C673.235 58.3529 673.33 58.1123 673.33 57.7974C673.33 57.4781 673.235 57.2375 673.047 57.0756C672.862 56.9091 672.588 56.8259 672.223 56.8259H670.962V58.7622Z" fill="#D9D9D9"/>
<path opacity="0.9" d="M855.552 44.4669C858.013 42.049 858.013 38.1287 855.552 35.7108C853.091 33.2929 849.102 33.2929 846.641 35.7108C844.181 38.1287 844.181 42.049 846.641 44.4669C849.102 46.8849 853.091 46.8849 855.552 44.4669Z" fill="#D9D9D9"/>
<path opacity="0.9" d="M851.009 35.5649C851.009 31.6204 854.206 28.4229 858.151 28.4229C862.095 28.4229 865.293 31.6204 865.293 35.5649V44.3873C865.293 48.3318 862.095 51.5294 858.151 51.5294C854.206 51.5294 851.009 48.3318 851.009 44.3873V35.5649Z" fill="#E3E3E3"/>
<path opacity="0.9" d="M861.09 31.7836C861.09 27.8392 864.288 24.6416 868.232 24.6416C872.177 24.6416 875.374 27.8392 875.374 31.7836V47.7481C875.374 51.6925 872.177 54.8901 868.232 54.8901C864.288 54.8901 861.09 51.6925 861.09 47.7481V31.7836Z" fill="#D9D9D9"/>
<path opacity="0.9" d="M870.754 35.5649C870.754 31.6204 873.952 28.4229 877.896 28.4229C881.841 28.4229 885.038 31.6204 885.038 35.5649V44.3873C885.038 48.3318 881.841 51.5294 877.896 51.5294C873.952 51.5294 870.754 48.3318 870.754 44.3873V35.5649Z" fill="#E3E3E3"/>
<path opacity="0.9" d="M889.581 44.4669C892.042 42.049 892.042 38.1287 889.581 35.7108C887.121 33.2929 883.131 33.2929 880.671 35.7108C878.21 38.1287 878.21 42.049 880.671 44.4669C883.131 46.8849 887.121 46.8849 889.581 44.4669Z" fill="#D9D9D9"/>
<rect x="832.864" y="40.5254" width="70.3203" height="14.0244" rx="7.0122" fill="white" stroke="#D9D9D9" stroke-width="0.679742"/>
<path d="M839.661 44.8677H840.722L843.254 50.689H841.807L841.305 49.4557H839.044L838.559 50.689H837.145L839.661 44.8677ZM840.154 46.5615L839.447 48.3704H840.87L840.154 46.5615Z" fill="#D9D9D9"/>
<path d="M849.159 48.4444C849.159 48.7897 849.107 49.1076 849.003 49.3981C848.899 49.6886 848.743 49.9408 848.534 50.1546C848.332 50.3683 848.077 50.5355 847.77 50.6561C847.463 50.7767 847.109 50.837 846.709 50.837C846.303 50.837 845.947 50.7767 845.64 50.6561C845.333 50.5355 845.076 50.3683 844.867 50.1546C844.665 49.9408 844.511 49.6886 844.407 49.3981C844.303 49.1076 844.251 48.7897 844.251 48.4444V44.8677H845.533V48.395C845.533 48.5759 845.561 48.7431 845.616 48.8966C845.676 49.0501 845.758 49.1843 845.862 49.2995C845.966 49.4091 846.09 49.4968 846.232 49.5626C846.38 49.6229 846.539 49.653 846.709 49.653C846.879 49.653 847.035 49.6229 847.178 49.5626C847.32 49.4968 847.444 49.4091 847.548 49.2995C847.652 49.1843 847.731 49.0501 847.786 48.8966C847.846 48.7431 847.877 48.5759 847.877 48.395V44.8677H849.159V48.4444Z" fill="#D9D9D9"/>
<path d="M851.883 46.0024H850.222V44.8677H854.826V46.0024H853.165V50.689H851.883V46.0024Z" fill="#D9D9D9"/>
<path d="M855.576 47.7784C855.576 47.3124 855.653 46.8904 855.806 46.5122C855.965 46.1339 856.185 45.8133 856.464 45.5502C856.744 45.2816 857.075 45.076 857.459 44.9335C857.843 44.791 858.262 44.7197 858.717 44.7197C859.172 44.7197 859.591 44.791 859.975 44.9335C860.359 45.076 860.69 45.2816 860.97 45.5502C861.249 45.8133 861.466 46.1339 861.619 46.5122C861.778 46.8904 861.858 47.3124 861.858 47.7784C861.858 48.2443 861.778 48.6664 861.619 49.0446C861.466 49.4228 861.249 49.7462 860.97 50.0148C860.69 50.2779 860.359 50.4807 859.975 50.6232C859.591 50.7657 859.172 50.837 858.717 50.837C858.262 50.837 857.843 50.7657 857.459 50.6232C857.075 50.4807 856.744 50.2779 856.464 50.0148C856.185 49.7462 855.965 49.4228 855.806 49.0446C855.653 48.6664 855.576 48.2443 855.576 47.7784ZM856.908 47.7784C856.908 48.0524 856.949 48.3046 857.031 48.5348C857.119 48.7595 857.242 48.9569 857.401 49.1268C857.56 49.2912 857.749 49.42 857.969 49.5132C858.193 49.6064 858.443 49.653 858.717 49.653C858.991 49.653 859.238 49.6064 859.457 49.5132C859.682 49.42 859.874 49.2912 860.032 49.1268C860.191 48.9569 860.312 48.7595 860.394 48.5348C860.482 48.3046 860.526 48.0524 860.526 47.7784C860.526 47.5098 860.482 47.2604 860.394 47.0301C860.312 46.7999 860.191 46.6026 860.032 46.4382C859.874 46.2682 859.682 46.1367 859.457 46.0435C859.238 45.9503 858.991 45.9037 858.717 45.9037C858.443 45.9037 858.193 45.9503 857.969 46.0435C857.749 46.1367 857.56 46.2682 857.401 46.4382C857.242 46.6026 857.119 46.7999 857.031 47.0301C856.949 47.2604 856.908 47.5098 856.908 47.7784Z" fill="#D9D9D9"/>
<path d="M874.116 44.8677H875.398V49.505H877.775V50.689H874.116V44.8677Z" fill="#D9D9D9"/>
<path d="M878.581 47.7784C878.581 47.3124 878.658 46.8904 878.811 46.5122C878.97 46.1339 879.19 45.8133 879.469 45.5502C879.749 45.2816 880.08 45.076 880.464 44.9335C880.848 44.791 881.267 44.7197 881.722 44.7197C882.177 44.7197 882.596 44.791 882.98 44.9335C883.364 45.076 883.695 45.2816 883.975 45.5502C884.255 45.8133 884.471 46.1339 884.625 46.5122C884.783 46.8904 884.863 47.3124 884.863 47.7784C884.863 48.2443 884.783 48.6664 884.625 49.0446C884.471 49.4228 884.255 49.7462 883.975 50.0148C883.695 50.2779 883.364 50.4807 882.98 50.6232C882.596 50.7657 882.177 50.837 881.722 50.837C881.267 50.837 880.848 50.7657 880.464 50.6232C880.08 50.4807 879.749 50.2779 879.469 50.0148C879.19 49.7462 878.97 49.4228 878.811 49.0446C878.658 48.6664 878.581 48.2443 878.581 47.7784ZM879.913 47.7784C879.913 48.0524 879.954 48.3046 880.037 48.5348C880.124 48.7595 880.248 48.9569 880.407 49.1268C880.566 49.2912 880.755 49.42 880.974 49.5132C881.199 49.6064 881.448 49.653 881.722 49.653C881.996 49.653 882.243 49.6064 882.462 49.5132C882.687 49.42 882.879 49.2912 883.038 49.1268C883.197 48.9569 883.317 48.7595 883.399 48.5348C883.487 48.3046 883.531 48.0524 883.531 47.7784C883.531 47.5098 883.487 47.2604 883.399 47.0301C883.317 46.7999 883.197 46.6026 883.038 46.4382C882.879 46.2682 882.687 46.1367 882.462 46.0435C882.243 45.9503 881.996 45.9037 881.722 45.9037C881.448 45.9037 881.199 45.9503 880.974 46.0435C880.755 46.1367 880.566 46.2682 880.407 46.4382C880.248 46.6026 880.124 46.7999 880.037 47.0301C879.954 47.2604 879.913 47.5098 879.913 47.7784Z" fill="#D9D9D9"/>
<path d="M891.054 48.4444C891.054 48.7897 891.002 49.1076 890.898 49.3981C890.794 49.6886 890.638 49.9408 890.43 50.1546C890.227 50.3683 889.972 50.5355 889.665 50.6561C889.358 50.7767 889.004 50.837 888.604 50.837C888.199 50.837 887.842 50.7767 887.535 50.6561C887.228 50.5355 886.971 50.3683 886.763 50.1546C886.56 49.9408 886.406 49.6886 886.302 49.3981C886.198 49.1076 886.146 48.7897 886.146 48.4444V44.8677H887.429V48.395C887.429 48.5759 887.456 48.7431 887.511 48.8966C887.571 49.0501 887.653 49.1843 887.757 49.2995C887.862 49.4091 887.985 49.4968 888.127 49.5626C888.275 49.6229 888.434 49.653 888.604 49.653C888.774 49.653 888.93 49.6229 889.073 49.5626C889.215 49.4968 889.339 49.4091 889.443 49.2995C889.547 49.1843 889.627 49.0501 889.681 48.8966C889.742 48.7431 889.772 48.5759 889.772 48.395V44.8677H891.054V48.4444Z" fill="#D9D9D9"/>
<path d="M892.651 44.8677H894.575C895.041 44.8677 895.482 44.9198 895.899 45.0239C896.321 45.1281 896.688 45.298 897.001 45.5337C897.313 45.7639 897.56 46.0654 897.741 46.4382C897.927 46.8109 898.02 47.2631 898.02 47.7948C898.02 48.2662 897.93 48.6828 897.749 49.0446C897.574 49.4009 897.335 49.7023 897.034 49.949C896.732 50.1902 896.384 50.3738 895.99 50.4999C895.595 50.626 895.181 50.689 894.748 50.689H892.651V44.8677ZM893.934 49.505H894.6C894.896 49.505 895.17 49.4749 895.422 49.4146C895.68 49.3543 895.902 49.2556 896.088 49.1186C896.275 48.9761 896.42 48.7924 896.524 48.5677C896.634 48.3375 896.688 48.0579 896.688 47.729C896.688 47.444 896.634 47.1973 896.524 46.989C896.42 46.7753 896.277 46.5999 896.096 46.4628C895.916 46.3258 895.702 46.2244 895.455 46.1586C895.214 46.0873 894.959 46.0517 894.69 46.0517H893.934V49.505Z" fill="#D9D9D9"/>
<path d="M870.63 45.3305C870.428 45.0881 870.178 44.9019 869.879 44.772C869.589 44.6422 869.251 44.5772 868.865 44.5772C868.479 44.5772 868.119 44.6508 867.785 44.798C867.46 44.9452 867.175 45.153 866.929 45.4214C866.692 45.6812 866.503 45.9929 866.363 46.3565C866.231 46.7202 866.165 47.1141 866.165 47.5384C866.165 47.9713 866.231 48.3696 866.363 48.7332C866.503 49.0882 866.692 49.3999 866.929 49.6683C867.166 49.9281 867.443 50.1316 867.759 50.2788C868.084 50.426 868.43 50.4995 868.799 50.4995C869.221 50.4995 869.594 50.413 869.919 50.2398C870.244 50.0666 870.511 49.8242 870.722 49.5125L872.434 50.7723C872.039 51.3178 871.539 51.7204 870.933 51.9801C870.327 52.2399 869.704 52.3698 869.063 52.3698C868.334 52.3698 867.662 52.2572 867.048 52.0321C866.433 51.807 865.902 51.4866 865.454 51.071C865.006 50.6467 864.655 50.1359 864.4 49.5385C864.155 48.941 864.032 48.2744 864.032 47.5384C864.032 46.8024 864.155 46.1357 864.4 45.5383C864.655 44.9409 865.006 44.4344 865.454 44.0188C865.902 43.5945 866.433 43.2698 867.048 43.0447C867.662 42.8196 868.334 42.707 869.063 42.707C869.326 42.707 869.598 42.733 869.879 42.785C870.169 42.8282 870.45 42.9018 870.722 43.0057C871.003 43.1096 871.271 43.2482 871.525 43.4213C871.78 43.5945 872.008 43.8066 872.21 44.0577L870.63 45.3305Z" fill="#D9D9D9"/>
<path d="M868.85 49.9257C868.578 49.9257 868.356 49.7089 868.356 49.4448V47.687C868.356 47.4219 868.579 47.2061 868.85 47.2061C869.123 47.2061 869.345 47.4229 869.345 47.687V49.4448C869.345 49.7098 869.122 49.9257 868.85 49.9257Z" fill="#D9D9D9"/>
<path d="M870.09 46.9482C870.225 46.2677 869.785 45.6067 869.107 45.4718C868.429 45.3368 867.771 45.779 867.636 46.4594C867.502 47.1398 867.942 47.8008 868.62 47.9358C869.298 48.0708 869.956 47.6286 870.09 46.9482Z" fill="#D9D9D9"/>
<path d="M869.345 46.7113C869.345 46.9844 869.124 47.2058 868.85 47.2058C868.577 47.2058 868.356 46.9844 868.356 46.7113C868.356 46.4381 868.577 46.2168 868.85 46.2168C869.124 46.2168 869.345 46.4381 869.345 46.7113Z" fill="#E3E3E3"/>
<path d="M856.213 59.8227C857.235 59.8227 858.102 60.5035 858.39 61.4379H860.976C861.225 61.4379 861.428 61.2339 861.428 60.9831V57.2658C861.428 56.8921 861.729 56.5892 862.1 56.5892C862.472 56.5892 862.773 56.8921 862.773 57.2658V60.9831C862.773 61.98 861.967 62.7911 860.976 62.7911H858.39C858.102 63.7255 857.235 64.4062 856.213 64.4062C854.958 64.4062 853.936 63.3782 853.936 62.1145C853.936 60.8508 854.958 59.8227 856.213 59.8227ZM856.213 63.0531C856.728 63.0531 857.146 62.6321 857.146 62.1145C857.146 61.5969 856.728 61.1759 856.213 61.1759C855.699 61.1759 855.281 61.5969 855.281 62.1145C855.281 62.6321 855.699 63.0531 856.213 63.0531Z" fill="#D9D9D9"/>
<path d="M868.835 56.5894C869.269 56.5894 869.621 56.9416 869.621 57.376V61.148C870.708 61.4843 871.499 62.4983 871.499 63.6939C871.499 65.1632 870.304 66.3584 868.835 66.3584C867.366 66.3584 866.17 65.1632 866.17 63.6939C866.17 62.4984 866.962 61.4843 868.048 61.148V57.376C868.048 56.9416 868.4 56.5894 868.835 56.5894ZM867.744 63.6939C867.744 64.2956 868.233 64.7852 868.835 64.7852C869.437 64.7852 869.926 64.2957 869.926 63.6939C869.926 63.0921 869.437 62.6026 868.835 62.6026C868.233 62.6026 867.744 63.0922 867.744 63.6939Z" fill="#D9D9D9"/>
<path d="M881.228 64.4062C880.206 64.4062 879.339 63.7255 879.052 62.7911H876.465C875.474 62.7911 874.668 61.98 874.668 60.9831V57.2658C874.668 56.8921 874.969 56.5892 875.341 56.5892C875.712 56.5892 876.013 56.8921 876.013 57.2658V60.9831C876.013 61.2339 876.216 61.4379 876.465 61.4379H879.052C879.339 60.5035 880.206 59.8227 881.228 59.8227C882.483 59.8227 883.505 60.8508 883.505 62.1145C883.505 63.3782 882.483 64.4062 881.228 64.4062ZM881.228 61.1759C880.713 61.1759 880.295 61.5969 880.295 62.1145C880.295 62.6321 880.713 63.0531 881.228 63.0531C881.742 63.0531 882.16 62.6321 882.16 62.1145C882.16 61.5969 881.742 61.1759 881.228 61.1759Z" fill="#D9D9D9"/>
<path d="M996.93 24C998.976 27.5833 1001.02 31.1666 1003.07 34.7224C998.976 34.75 994.856 34.75 990.765 34.7775C990.156 34.7775 989.576 34.75 988.968 34.75C985.456 34.7224 981.917 34.7224 978.406 34.7224C979.761 32.407 981.116 30.1192 982.443 27.8038C983.162 26.5635 983.825 25.2679 984.489 24C988.636 24 992.783 24 996.93 24Z" fill="#D9D9D9"/>
<path d="M984.489 24C983.798 25.2679 983.162 26.5359 982.443 27.8038C981.116 30.1192 979.761 32.407 978.406 34.7224C978.351 34.7775 978.268 34.8051 978.185 34.8051C974.121 34.7775 970.057 34.75 965.993 34.75C966.794 33.2615 967.596 31.7731 968.426 30.3122C969.614 28.1897 970.831 26.0949 972.047 24C976.195 24 980.342 24 984.489 24Z" fill="#ADADAD"/>
<path d="M953.524 55.6984C953.8 55.3401 954.105 55.0093 954.326 54.651C956.012 51.7568 957.699 48.8626 959.385 45.9408C959.413 45.8581 959.523 45.8305 959.579 45.7754C959.8 45.9132 960.076 45.9959 960.187 46.1889C960.795 47.1536 961.376 48.1183 961.956 49.0831C963.118 51.0952 964.251 53.1074 965.412 55.092C965.578 55.3401 965.938 55.4779 966.214 55.6709C965.993 56.1395 965.772 56.6356 965.523 57.1042C963.975 59.833 962.426 62.5619 960.878 65.2631C960.629 65.7317 960.325 66.1452 959.938 66.724C958.86 64.9048 957.837 63.1683 956.842 61.4593C955.902 59.8606 954.962 58.2343 954.022 56.6356C953.911 56.4427 953.69 56.3324 953.524 56.1946C953.524 56.0568 953.524 55.8914 953.524 55.6984Z" fill="#EFEFEF"/>
<path d="M984.489 66.9997C984.489 66.917 984.489 66.8343 984.489 66.7516C984.572 66.7241 984.682 66.6965 984.765 66.6689C988.829 66.6965 992.866 66.6965 996.93 66.7241C996.93 66.8068 996.93 66.8895 996.93 66.9997C992.783 66.9997 988.636 66.9997 984.489 66.9997Z" fill="#EFEFEF"/>
<path d="M1009.12 45.5C1008.79 46.134 1008.49 46.7955 1008.13 47.4295C1006.33 50.4891 1004.53 53.5211 1002.74 56.5807C1002.32 56.4705 1001.91 56.3051 1001.49 56.2775C997.925 56.25 994.387 56.25 990.82 56.25C990.82 56.1397 990.82 56.0295 990.792 55.9192C990.958 55.5884 991.097 55.2577 991.262 54.9545C993.087 51.8122 994.884 48.6699 996.709 45.5C1000.88 45.5 1005 45.5 1009.12 45.5Z" fill="#909090"/>
<path d="M1009.12 45.5C1005 45.5 1000.88 45.5 996.736 45.5C996.488 44.9763 996.239 44.425 995.962 43.9288C994.248 40.8692 992.506 37.8372 990.765 34.8051C994.856 34.7776 998.976 34.7776 1003.07 34.75C1005.06 38.1679 1007.08 41.5859 1009.07 45.0038C1009.15 45.1141 1009.09 45.3346 1009.12 45.5Z" fill="#B7B7B7"/>
<path d="M990.848 56.25C994.414 56.25 997.981 56.25 1001.52 56.2776C1001.93 56.2776 1002.35 56.4705 1002.76 56.5808C1001.05 59.5852 999.335 62.5897 997.649 65.5942C997.428 65.9801 997.179 66.366 996.958 66.7794C992.894 66.7519 988.857 66.7519 984.793 66.7243C984.876 66.4762 984.931 66.2006 985.069 65.9525C986.092 64.1884 987.088 62.3968 988.138 60.6327C988.995 59.1442 989.935 57.7109 990.848 56.25Z" fill="#D9D9D9"/>
<path d="M990.848 56.2495C989.936 57.7104 988.996 59.1437 988.111 60.6322C987.061 62.3963 986.065 64.1604 985.042 65.952C984.904 66.1725 984.849 66.4482 984.766 66.7238C984.683 66.7514 984.572 66.7789 984.489 66.8065C982.388 63.2232 980.315 59.6123 978.213 56.029C978.352 56.029 978.517 56.0014 978.656 56.0014C982.637 56.0014 986.646 56.0014 990.627 56.0014C990.682 55.9739 990.738 55.9739 990.821 55.9463C990.821 56.029 990.821 56.1392 990.848 56.2495Z" fill="#949494"/>
<path d="M966.242 55.6987C965.965 55.5058 965.578 55.3955 965.44 55.1199C964.251 53.1353 963.145 51.1231 961.984 49.1109C961.431 48.1186 960.823 47.1539 960.215 46.2167C960.104 46.0237 959.8 45.9411 959.606 45.8032C959.717 45.6103 959.8 45.4449 959.911 45.252C963.975 45.252 968.011 45.252 972.075 45.252C972.186 45.2795 972.297 45.2795 972.407 45.3071H972.379C972.352 45.4725 972.324 45.6378 972.297 45.8032C971.909 46.2718 971.439 46.6853 971.135 47.209C969.449 49.993 967.845 52.8596 966.242 55.6987Z" fill="#D9D9D9"/>
<path d="M972.269 45.7754C972.297 45.6101 972.324 45.4447 972.352 45.2793C972.85 45.3069 973.347 45.362 973.845 45.362C977.301 45.3896 980.784 45.3896 984.24 45.4171C984.102 45.803 984.019 46.2165 983.826 46.5472C982.664 48.5594 981.476 50.5165 980.342 52.5562C979.734 53.6588 978.794 54.5959 978.683 55.9466C978.545 55.9466 978.379 55.9741 978.241 55.9741C976.223 52.5838 974.232 49.1658 972.269 45.7754Z" fill="#D9D9D9"/>
<path d="M972.048 45.2245C967.983 45.2245 963.947 45.2245 959.883 45.2245C960.961 43.2675 962.039 41.338 963.145 39.3809C963.726 38.3611 964.306 37.3136 964.915 36.2938C965.191 35.8252 965.551 35.4117 965.882 34.9707C966.131 35.2188 966.408 35.4393 966.601 35.7425C967.182 36.6797 967.735 37.6169 968.288 38.554C969.532 40.7867 970.776 43.0194 972.048 45.2245Z" fill="#C8C8C8"/>
<path d="M972.048 45.2243C970.804 43.0192 969.532 40.7865 968.26 38.5814C967.707 37.6442 967.154 36.6795 966.574 35.7699C966.38 35.4942 966.104 35.2737 965.855 34.9981C965.883 34.9154 965.938 34.8327 965.966 34.75C970.03 34.7776 974.094 34.7776 978.186 34.8051C977.246 36.5141 976.278 38.2231 975.338 39.9045C974.343 41.6961 973.375 43.4878 972.38 45.2519C972.269 45.2519 972.159 45.2519 972.048 45.2243Z" fill="#D5D9DA"/>
<path d="M984.24 45.4453C984.461 45.6383 984.766 45.7761 984.904 45.9966C986.839 49.3043 988.747 52.6395 990.654 55.9472C986.673 55.9472 982.664 55.9472 978.683 55.9472C978.794 54.5966 979.734 53.6594 980.342 52.5568C981.475 50.5447 982.664 48.56 983.826 46.5479C983.991 46.2171 984.102 45.8036 984.24 45.4453Z" fill="#D9D9D9"/>
<rect y="-1" width="46" height="92" fill="url(#paint0_linear_43_20335)"/>
<rect width="46" height="92" transform="matrix(-1 0 0 1 1009 -1)" fill="url(#paint1_linear_43_20335)"/>
</g>
<defs>
<linearGradient id="paint0_linear_43_20335" x1="46" y1="45" x2="-1.37091e-06" y2="45" gradientUnits="userSpaceOnUse">
<stop stop-color="#191414" stop-opacity="0"/>
<stop offset="1" stop-color="#191414"/>
</linearGradient>
<linearGradient id="paint1_linear_43_20335" x1="46" y1="46" x2="-1.37091e-06" y2="46" gradientUnits="userSpaceOnUse">
<stop stop-color="#191414" stop-opacity="0"/>
<stop offset="1" stop-color="#191414"/>
</linearGradient>
<clipPath id="clip0_43_20335">
<rect width="1009" height="91" fill="white"/>
</clipPath>
</defs>
</svg>
