<svg width="1009" height="91" viewBox="0 0 1009 91" fill="none" xmlns="http://www.w3.org/2000/svg">
<g clip-path="url(#clip0_43_19525)">
<rect width="1009" height="91" fill="#191414"/>
<path d="M-10 0H1019" stroke="#191414" stroke-width="3"/>
<path d="M-10 91H1019" stroke="#191414" stroke-width="3"/>
<g clip-path="url(#clip1_43_19525)">
<path d="M-9.14899 33.7191C-8.64463 32.8064 -7.94234 32.0959 -7.04066 31.5875C-6.13898 31.0791 -5.11707 30.8242 -3.97493 30.8242C-2.57476 30.8242 -1.37691 31.1934 -0.379926 31.9318C0.617058 32.6702 1.28269 33.6781 1.61844 34.9527H-1.53965C-1.77424 34.4604 -2.10852 34.0854 -2.53957 33.8276C-2.97062 33.5697 -3.46031 33.4422 -4.01012 33.4422C-4.89568 33.4422 -5.61116 33.7499 -6.16097 34.3652C-6.70931 34.9805 -6.98348 35.8039 -6.98348 36.8323C-6.98348 37.8608 -6.70931 38.6842 -6.16097 39.2995C-5.61263 39.9148 -4.89568 40.2225 -4.01012 40.2225C-3.46178 40.2225 -2.97208 40.0935 -2.53957 39.8371C-2.10852 39.5793 -1.7757 39.2057 -1.53965 38.712H1.61844C1.28269 39.988 0.615592 40.9916 -0.379926 41.7256C-1.37691 42.4581 -2.57476 42.8244 -3.97493 42.8244C-5.11707 42.8244 -6.13898 42.5694 -7.04066 42.0611C-7.94234 41.5527 -8.64463 40.8436 -9.14899 39.9382C-9.65334 39.0314 -9.90552 37.9971 -9.90552 36.8323C-9.90552 35.6676 -9.65334 34.6304 -9.14899 33.7191Z" fill="#D9D9D9"/>
<path d="M5.91138 42.0879C4.9877 41.5737 4.25316 40.8544 3.71069 39.9314C3.16675 39.0084 2.89551 37.9697 2.89551 36.8182C2.89551 35.6667 3.16675 34.6309 3.71069 33.7123C4.25316 32.7952 4.9877 32.0788 5.91138 31.5631C6.83506 31.0489 7.8511 30.791 8.95951 30.791C10.0679 30.791 11.084 31.0489 12.0091 31.5631C12.9328 32.0773 13.6615 32.7937 14.1922 33.7123C14.7244 34.6294 14.9898 35.6652 14.9898 36.8182C14.9898 37.9712 14.7215 39.0084 14.1834 39.9314C13.6453 40.8544 12.9181 41.5737 12.0003 42.0879C11.0825 42.6022 10.0679 42.86 8.95951 42.86C7.8511 42.86 6.83506 42.6022 5.91138 42.0879ZM11.2203 39.3014C11.7863 38.6744 12.0692 37.8467 12.0692 36.8167C12.0692 35.7868 11.7863 34.9444 11.2203 34.3247C10.6544 33.7035 9.90078 33.3929 8.96098 33.3929C8.02118 33.3929 7.24998 33.7006 6.68551 34.3159C6.11957 34.9312 5.83661 35.7648 5.83661 36.8167C5.83661 37.8686 6.11957 38.689 6.68551 39.3088C7.25144 39.9299 8.00945 40.2405 8.96098 40.2405C9.91251 40.2405 10.6544 39.927 11.2203 39.3V39.3014Z" fill="#D9D9D9"/>
<path d="M19.4088 30.959V38.0088C19.4088 38.7134 19.5818 39.257 19.9293 39.6364C20.2768 40.0173 20.7855 40.2078 21.4585 40.2078C22.1315 40.2078 22.6446 40.0173 23.0038 39.6364C23.3616 39.2555 23.5419 38.7134 23.5419 38.0088V30.959H26.4141V37.9926C26.4141 39.0445 26.1898 39.9338 25.7426 40.6619C25.2939 41.3901 24.6928 41.938 23.9363 42.3072C23.1798 42.6764 22.3382 42.861 21.4086 42.861C20.4791 42.861 19.6478 42.6793 18.9147 42.316C18.1816 41.9526 17.601 41.4047 17.1759 40.6707C16.7507 39.9382 16.5381 39.046 16.5381 37.9941V30.9604H19.4103L19.4088 30.959Z" fill="#D9D9D9"/>
<path d="M36.9129 30.9595V33.2596H33.7886V42.7443H30.9164V33.2581H27.792V30.958H36.9129V30.9595Z" fill="#D9D9D9"/>
<path d="M2.39913 59.2295C1.48572 58.7212 0.764371 58.0106 0.232158 57.0979C-0.300056 56.1866 -0.56543 55.1596 -0.56543 54.0169C-0.56543 52.8742 -0.300056 51.8516 0.232158 50.9447C0.764371 50.0379 1.48572 49.3303 2.39913 48.8219C3.31108 48.3135 4.31099 48.0586 5.39741 48.0586C6.48383 48.0586 7.49987 48.3135 8.41329 48.8219C9.32523 49.3317 10.0451 50.0393 10.5715 50.9447C11.0978 51.8516 11.3602 52.8756 11.3602 54.0169C11.3602 55.1582 11.0963 56.1852 10.5715 57.0979C10.0451 58.0106 9.32523 58.7212 8.41329 59.2295C7.49987 59.7394 6.49556 59.9928 5.39741 59.9928C4.29926 59.9928 3.31108 59.7379 2.39913 59.2295ZM7.46322 57.8026C8.06728 57.4495 8.54084 56.947 8.88246 56.2921C9.22407 55.6372 9.39414 54.8798 9.39414 54.0169C9.39414 53.154 9.2226 52.3995 8.88246 51.7505C8.54084 51.1015 8.06728 50.6034 7.46322 50.2562C6.85917 49.9089 6.17007 49.7361 5.39741 49.7361C4.62475 49.7361 3.93566 49.9104 3.3316 50.2562C2.72755 50.6034 2.25398 51.1015 1.91237 51.7505C1.57075 52.3995 1.39921 53.1555 1.39921 54.0169C1.39921 54.8784 1.56929 55.6372 1.91237 56.2921C2.25398 56.947 2.72755 57.451 3.3316 57.8026C3.93566 58.1557 4.62475 58.3315 5.39741 58.3315C6.17007 58.3315 6.85917 58.1557 7.46322 57.8026Z" fill="#B9B9B9"/>
<path d="M14.974 59.5831C14.3465 59.3091 13.8538 58.9194 13.4961 58.4169C13.1369 57.9129 12.958 57.3255 12.958 56.6545H15.0077C15.0517 57.1584 15.2511 57.5716 15.6044 57.8968C15.9578 58.2221 16.4533 58.3832 17.0911 58.3832C17.7289 58.3832 18.267 58.2235 18.6364 57.9042C19.0059 57.5848 19.1906 57.1746 19.1906 56.6706C19.1906 56.2794 19.0763 55.96 18.8461 55.7139C18.6159 55.4678 18.3315 55.2773 17.9898 55.1426C17.6482 55.0078 17.1747 54.8627 16.5706 54.706C15.8082 54.5038 15.1895 54.3002 14.7145 54.0936C14.238 53.887 13.8333 53.5647 13.4961 53.1281C13.1603 52.6915 12.9917 52.1099 12.9917 51.3818C12.9917 50.7108 13.1603 50.1233 13.4961 49.6194C13.8318 49.1154 14.3025 48.7301 14.9065 48.4605C15.5106 48.1924 16.2114 48.0576 17.0061 48.0576C18.1365 48.0576 19.0645 48.3404 19.7859 48.9059C20.5087 49.4714 20.909 50.2464 20.9867 51.2309H18.8695C18.8358 50.806 18.635 50.4427 18.2655 50.1394C17.896 49.8362 17.4093 49.6867 16.8037 49.6867C16.2554 49.6867 15.8067 49.8274 15.4593 50.1072C15.1118 50.387 14.9388 50.7899 14.9388 51.3159C14.9388 51.6748 15.0487 51.9678 15.2657 52.1978C15.4842 52.4278 15.7613 52.6095 16.097 52.7428C16.4328 52.8776 16.8917 53.0226 17.4738 53.1794C18.2464 53.3918 18.8769 53.6043 19.3636 53.8167C19.8504 54.0291 20.2653 54.3573 20.6069 54.7983C20.9485 55.2407 21.1186 55.8311 21.1186 56.5695C21.1186 57.1628 20.9588 57.7225 20.6392 58.2484C20.3196 58.7744 19.8548 59.1963 19.2449 59.5157C18.635 59.8351 17.9151 59.9933 17.0867 59.9933C16.3023 59.9933 15.5971 59.8571 14.9696 59.5816L14.974 59.5831Z" fill="#B9B9B9"/>
<path d="M31.1339 53.364C30.8538 53.8899 30.4052 54.3177 29.7894 54.6473C29.1736 54.977 28.3834 55.1425 27.4216 55.1425H25.3044V59.8761H23.3896V48.21H27.4216C28.3174 48.21 29.0769 48.3638 29.697 48.6715C30.3187 48.9791 30.7835 49.3966 31.0913 49.9226C31.3992 50.4485 31.5532 51.036 31.5532 51.685C31.5532 52.2784 31.4124 52.838 31.1324 53.364H31.1339ZM29.0505 53.0871C29.4082 52.7574 29.5885 52.2901 29.5885 51.685C29.5885 50.409 28.8657 49.7717 27.4216 49.7717H25.3044V53.5823H27.4216C28.1488 53.5823 28.6927 53.4167 29.0505 53.0871Z" fill="#B9B9B9"/>
<path d="M35.3001 49.7536V53.1774H39.332V54.7392H35.3001V58.3153H39.8349V59.8771H33.3838V48.1934H39.8349V49.7551H35.3001V49.7536Z" fill="#B9B9B9"/>
<path d="M42.3474 50.9467C42.8796 50.0398 43.601 49.3322 44.5144 48.8238C45.4263 48.3155 46.4262 48.0605 47.5126 48.0605C48.7559 48.0605 49.8614 48.3653 50.8305 48.9747C51.7997 49.5842 52.502 50.4486 52.9389 51.5679H50.637C50.335 50.9525 49.9142 50.494 49.3776 50.1907C48.8395 49.8889 48.2179 49.738 47.5126 49.738C46.74 49.738 46.0509 49.9124 45.4468 50.2581C44.8428 50.6053 44.3692 51.1034 44.0276 51.7524C43.686 52.4015 43.5145 53.1574 43.5145 54.0189C43.5145 54.8803 43.6845 55.6363 44.0276 56.2853C44.3692 56.9343 44.8428 57.4353 45.4468 57.787C46.0509 58.14 46.74 58.3158 47.5126 58.3158C48.2179 58.3158 48.8395 58.1649 49.3776 57.8631C49.9157 57.5613 50.335 57.1028 50.637 56.486H52.9389C52.502 57.6053 51.7997 58.4667 50.8305 59.0703C49.8614 59.6739 48.7559 59.9772 47.5126 59.9772C46.4145 59.9772 45.4131 59.7223 44.5056 59.2139C43.598 58.7041 42.8781 57.9965 42.3474 57.0911C41.8152 56.1842 41.5498 55.1601 41.5498 54.0189C41.5498 52.8776 41.8152 51.8535 42.3474 50.9467Z" fill="#B9B9B9"/>
<path d="M62.7145 48.21V49.7717H59.6063V59.8761H57.6915V49.7717H54.5671V48.21H62.7145Z" fill="#B9B9B9"/>
</g>
<g clip-path="url(#clip2_43_19525)">
<path d="M159.043 36.5859H155.72L155.53 34.8086H151.477L150.641 36.5859H147.208L153.367 24.2646H157.159L159.043 36.5859ZM154.782 27.8385L152.764 32.0974H155.244L154.782 27.8385Z" fill="#C8C8C8"/>
<path d="M166.578 24.2646L164.961 33.5408H169.157L168.634 36.5859H161.327L163.467 24.2646H166.578Z" fill="#C8C8C8"/>
<path d="M171.152 36.5859L173.292 24.2646H176.406L174.266 36.5859H171.152Z" fill="#C8C8C8"/>
<path d="M184.756 29.527H190.897L190.688 30.7775C190.398 32.6442 189.615 34.1236 188.34 35.2159C187.065 36.3081 185.511 36.8542 183.678 36.8542C181.771 36.8542 180.309 36.2206 179.292 34.9534C178.275 33.6862 177.909 32.1193 178.195 30.2526C178.461 28.5035 179.342 26.9101 180.674 25.7641C181.98 24.6012 183.667 23.9735 185.406 24.0042C186.482 23.9825 187.544 24.2488 188.485 24.776C189.351 25.2714 190.054 26.0154 190.503 26.9142L187.642 28.458C187.133 27.5433 186.281 27.0859 185.084 27.0859C184.173 27.0785 183.29 27.4102 182.605 28.018C181.906 28.6442 181.445 29.4971 181.3 30.4301C181.127 31.4143 181.284 32.2351 181.769 32.8925C182.255 33.5499 182.985 33.8715 183.961 33.8573C185.446 33.8573 186.495 33.3176 187.11 32.2383H184.293L184.756 29.527Z" fill="#C8C8C8"/>
<path d="M195.629 36.5859H192.515L194.655 24.2646H197.073L200.239 30.706L201.37 24.2646H204.466L202.326 36.5859H199.927L196.76 30.1445L195.629 36.5859Z" fill="#C8C8C8"/>
<path d="M216.904 24.2646H220.21L218.07 36.5859H214.978L216.122 29.9322L212.308 34.8955H211.995L209.924 29.8454L208.758 36.5859H205.644L207.784 24.2646H210.898L212.882 29.581L216.904 24.2646Z" fill="#C8C8C8"/>
<path d="M231.274 24.2646L230.751 27.2036H226.141L225.829 28.9288H230.046L229.523 31.8234H225.348L225.035 33.6373H229.733L229.227 36.5936H221.407L223.547 24.2724L231.274 24.2646Z" fill="#C8C8C8"/>
<path d="M235.206 36.5859H232.091L234.231 24.2646H236.649L239.816 30.706L240.947 24.2646H244.042L241.904 36.5859H239.503L236.34 30.1387L235.206 36.5859Z" fill="#C8C8C8"/>
<path d="M246.583 24.2646H255.717L255.177 27.3097H252.184L250.567 36.5859H247.452L249.07 27.3097H246.068L246.583 24.2646Z" fill="#C8C8C8"/>
<path d="M151.605 66.9963C147.935 66.9963 145.084 65.7503 143.053 63.2584C141.047 60.7909 140.34 57.7105 140.932 54.017C141.437 50.5831 143.15 47.4488 145.756 45.1904C148.402 42.8825 151.504 41.7285 155.061 41.7285C157.363 41.7285 159.347 42.2303 161.014 43.2337C162.681 44.2425 164.015 45.7295 164.846 47.5061L159.235 50.5184C158.323 48.6968 156.738 47.7852 154.48 47.784C152.681 47.7653 150.939 48.4188 149.588 49.6191C148.214 50.8504 147.308 52.5267 147.022 54.3605C146.702 56.2979 146.998 57.8784 147.911 59.1018C148.846 60.3253 150.214 60.937 152.017 60.937C154.32 60.937 156.19 59.9676 157.627 58.0289L162.656 61.3094C161.413 63.0789 159.764 64.5161 157.85 65.4969C155.917 66.4943 153.775 67.0085 151.605 66.9963Z" fill="#D9D9D9"/>
<path d="M182.154 51.2184L183.728 42.2529H189.817L185.606 66.4806H179.518L181.126 57.1716H174.386L172.778 66.4806H166.656L170.863 42.2529H176.987L175.414 51.2184H182.154Z" fill="#D9D9D9"/>
<path d="M213.352 66.4806H206.82L206.438 62.9859H198.468L196.826 66.4806H190.087L202.2 42.2529H209.658L213.352 66.4806ZM204.972 49.279L201.003 57.656H205.86L204.972 49.279Z" fill="#D9D9D9"/>
<path d="M217.839 66.4806L222.035 42.2529H228.157L223.95 66.4806H217.839Z" fill="#D9D9D9"/>
<path d="M236.579 66.4806H230.456L234.664 42.2529H239.419L245.644 54.9215L247.868 42.2529H253.958L249.75 66.4806H245.03L238.803 53.8139L236.579 66.4806Z" fill="#D9D9D9"/>
<path d="M127.116 28.8845L122.132 37.8442C123.058 37.41 124.039 37.1055 125.046 36.9392C125.866 36.8026 126.697 36.7592 127.526 36.8099L130.732 31.0439C132.067 28.6433 135.119 27.7421 137.474 29.1335C138.574 29.7872 139.376 30.8509 139.709 32.0963C140.042 33.3416 139.879 34.6695 139.256 35.7949L136.013 41.6362L134.836 43.7589L134.203 44.8954C133.632 45.9257 132.711 46.7119 131.611 47.1088C130.94 47.3543 130.224 47.4473 129.513 47.3809C128.83 47.3195 128.167 47.1116 127.57 46.7711C127.467 46.7132 127.368 46.6515 127.27 46.5781C126.84 46.2841 126.316 46.1667 125.804 46.2498C125.291 46.333 124.83 46.6105 124.512 47.0259L124.423 47.1436C124.256 47.3654 124.136 47.619 124.07 47.8892C124.003 48.1594 123.991 48.4404 124.036 48.7153C124.08 48.9901 124.178 49.253 124.326 49.488C124.473 49.7231 124.667 49.9254 124.894 50.0826C125.085 50.2176 125.298 50.3469 125.51 50.4685C126.328 50.935 127.213 51.2696 128.132 51.4604C128.893 51.6191 129.671 51.6768 130.446 51.6321C132.412 51.5234 134.29 50.7725 135.798 49.492C136.627 48.7842 137.324 47.9312 137.856 46.9738L137.932 46.8387L142.916 37.8771C143.499 36.8273 143.873 35.6715 144.015 34.4756C144.158 33.2797 144.066 32.0672 143.745 30.9073C143.424 29.7474 142.88 28.6628 142.145 27.7154C141.41 26.7681 140.497 25.9765 139.46 25.3859C137.364 24.194 134.887 23.8929 132.572 24.549C130.257 25.2051 128.294 26.7646 127.116 28.8845Z" fill="#D9D9D9"/>
<path d="M128.664 39.0985C127.903 38.9398 127.126 38.8821 126.35 38.9267C125.425 38.9792 124.513 39.1745 123.646 39.5057C122.682 39.8724 121.787 40.4023 120.999 41.0726C120.169 41.7775 119.472 42.6271 118.939 43.5812L118.864 43.7163L113.881 52.6779C113.297 53.7277 112.923 54.8835 112.781 56.0794C112.639 57.2753 112.731 58.4877 113.052 59.6476C113.373 60.8076 113.916 61.8922 114.651 62.8395C115.387 63.7869 116.299 64.5785 117.337 65.169C118.374 65.7596 119.517 66.1377 120.698 66.2816C121.88 66.4255 123.079 66.3324 124.225 66.0077C125.372 65.683 126.444 65.133 127.38 64.3892C128.316 63.6453 129.099 62.7221 129.682 61.6723L134.666 52.7127C132.98 53.503 131.126 53.8584 129.27 53.747L126.064 59.513C124.729 61.9136 121.678 62.8148 119.322 61.4235C118.222 60.77 117.42 59.7064 117.087 58.4608C116.754 57.2153 116.917 55.8873 117.541 54.762L120.783 48.9188L121.962 46.7961L122.593 45.6595C122.797 45.294 123.047 44.9562 123.335 44.6541C123.852 44.1129 124.486 43.6996 125.187 43.4461C125.858 43.2008 126.574 43.1073 127.285 43.1721C127.968 43.2352 128.63 43.4436 129.228 43.7838C129.33 43.8417 129.431 43.9035 129.528 43.9768C129.958 44.2709 130.482 44.3883 130.994 44.3051C131.507 44.222 131.969 43.9445 132.286 43.5291L132.375 43.4114C132.542 43.1896 132.662 42.9359 132.729 42.6656C132.795 42.3953 132.807 42.1141 132.763 41.8392C132.718 41.5642 132.619 41.3013 132.471 41.0663C132.324 40.8314 132.13 40.6293 131.902 40.4724C131.712 40.3374 131.5 40.2081 131.286 40.0865C130.468 39.6209 129.584 39.2875 128.664 39.0985Z" fill="#D9D9D9"/>
</g>
<g clip-path="url(#clip3_43_19525)">
<path d="M336.695 38.9403L338.633 37.8062C338.193 36.6869 337.296 34.6709 336.695 33.6621V38.9403Z" fill="#D9D9D9"/>
<path d="M336.695 38.9408L338.588 40.0486C338.775 39.5391 339.007 38.9108 338.862 38.4361C338.82 38.2977 338.74 38.0782 338.633 37.8057L336.695 38.9408Z" fill="#D9D9D9"/>
<path d="M336.695 44.3215L339.398 42.7398C339.312 42.6504 339.222 42.5605 339.125 42.4688C338.623 41.992 338.392 41.2117 338.392 40.7546C338.392 40.5896 338.483 40.3382 338.588 40.0491L336.695 38.9414V44.3215Z" fill="#D9D9D9"/>
<path d="M336.695 44.321L340.524 46.5612C340.757 46.4376 340.943 46.2384 341.052 45.9952C341.246 45.5751 341.281 45.308 341.108 44.931C340.914 44.5111 340.704 44.3527 340.366 43.8958C340.089 43.5215 339.789 43.1408 339.399 42.7383L336.695 44.32L336.695 44.321Z" fill="#D9D9D9"/>
<path d="M336.695 49.7006L339.725 47.9276C339.625 47.6502 339.542 47.4127 339.52 47.3243C339.464 47.0958 339.708 47.0196 339.877 46.8481C339.975 46.7482 340.249 46.7121 340.524 46.5614L336.695 44.3213L336.695 49.7006Z" fill="#D9D9D9"/>
<path d="M336.691 49.7L339.925 51.5921C340.014 51.4324 340.08 51.294 340.08 51.2449C340.08 51.1306 339.967 50.7305 339.798 50.559C339.677 50.4326 339.564 50.299 339.46 50.1589L339.89 49.8101C339.89 49.8101 340.265 49.4619 340.152 49.1189C340.083 48.9087 339.882 48.3665 339.722 47.9258L336.691 49.699L336.691 49.7Z" fill="#D9D9D9"/>
<path d="M336.695 55.0811L339.506 53.4367C339.392 53.1768 339.274 52.9499 339.238 52.8096C339.182 52.5809 339.389 52.4116 339.558 52.1825C339.692 51.9931 339.816 51.7964 339.929 51.5933L336.695 49.7012V55.0811Z" fill="#D9D9D9"/>
<path d="M336.695 55.0816L339.018 56.4407C339.036 56.4299 339.053 56.4191 339.069 56.4086C339.407 56.1801 339.689 55.7227 339.802 55.323C339.915 54.9232 339.802 54.4087 339.689 53.9513C339.643 53.7745 339.581 53.6019 339.506 53.4355L336.695 55.08V55.0816Z" fill="#D9D9D9"/>
<path d="M337.434 56.9254C337.864 56.9254 338.652 56.6659 339.017 56.4437L336.695 55.085V56.9017C337.01 56.9124 337.281 56.9254 337.434 56.9254Z" fill="#D9D9D9"/>
<path d="M336.595 33.502L336.584 33.4843C335.851 32.3423 334.105 31.2681 333.09 30.4118C333.06 30.3865 333.03 30.3645 333 30.3398L332.095 30.8689L336.595 33.502Z" fill="#D9D9D9"/>
<path d="M336.648 33.5859C336.63 33.5571 336.613 33.5292 336.596 33.5022L332.095 30.8691V36.2495L336.648 33.5859Z" fill="#8A8A8A"/>
<path d="M336.693 38.9408V33.6626C336.678 33.6371 336.662 33.6112 336.647 33.5869L332.095 36.2505L336.693 38.9408Z" fill="#D9D9D9"/>
<path d="M336.693 38.9412L332.095 36.251H332.095V36.2512V41.6313H332.095L336.693 38.9412Z" fill="#8A8A8A"/>
<path d="M336.693 38.9414L332.095 41.6315L336.693 44.3217V38.9424V38.9416V38.9414H336.693Z" fill="#D9D9D9"/>
<path d="M336.693 44.3205L336.693 44.3201H336.693L332.095 41.6299H332.095V41.6301V47.0104L336.692 44.3207L336.693 44.3205Z" fill="#8A8A8A"/>
<path d="M336.693 44.3211V44.3203L336.693 44.3207L336.692 44.3209L332.095 47.0106L336.693 49.7006H336.693V49.7004V44.3211Z" fill="#D9D9D9"/>
<path d="M336.693 49.7008L332.095 47.0107H332.095V52.3911L336.693 49.7008Z" fill="#8A8A8A"/>
<path d="M332.095 52.3914H332.095L336.692 55.0811L336.693 55.0817H336.693V49.7022V49.7014V49.7012H336.693L332.095 52.3914Z" fill="#D9D9D9"/>
<path d="M336.693 55.0828L336.693 55.0824L336.692 55.0822L332.095 52.3926V57.7729H332.095L336.693 55.0828Z" fill="#8A8A8A"/>
<path d="M336.693 55.083L332.095 57.7731L333.576 58.6396C333.714 58.4001 333.832 58.2477 333.863 58.1889C334.054 57.835 334.269 57.147 334.838 56.9826C335.282 56.8544 336.077 56.8809 336.693 56.9017V55.0842V55.083Z" fill="#D9D9D9"/>
<path d="M332.095 57.7734V61.4096C332.596 60.4433 333.211 59.2748 333.576 58.6398L332.095 57.7734Z" fill="#8A8A8A"/>
<path d="M332.095 30.8685L333 30.3394C332.713 30.1036 332.411 29.888 332.095 29.6943V30.8685Z" fill="#8A8A8A"/>
<path d="M332.093 29.6951C331.396 29.2675 330.675 28.9681 329.875 28.698C329.327 28.5131 328.454 28.3771 327.673 28.2842L332.093 30.8708V29.6951Z" fill="#A8A8A8"/>
<path d="M327.495 33.5615L332.093 30.8718L327.672 28.2852C327.612 28.2782 327.553 28.2713 327.495 28.2656V33.5615Z" fill="#999999"/>
<path d="M327.496 33.559H327.495L327.496 33.5592V33.5598L332.093 36.2497V30.8691L327.496 33.5588V33.559Z" fill="#A8A8A8"/>
<path d="M327.495 38.9399L332.093 36.2502L327.495 33.5605V38.9399Z" fill="#999999"/>
<path d="M327.495 38.9408V38.9416L332.093 41.6313H332.093V36.251H332.093L327.495 38.9406V38.9408Z" fill="#A8A8A8"/>
<path d="M332.093 41.6311L327.495 38.9414V44.3207L332.093 41.6311Z" fill="#999999"/>
<path d="M327.496 44.3215L327.495 44.3219L327.496 44.3221L327.496 44.3217V44.3225L332.094 47.0122V41.632V41.6318H332.094L327.496 44.3215Z" fill="#A8A8A8"/>
<path d="M327.495 49.7006L332.093 47.011H332.093L327.495 44.3213V49.7006Z" fill="#999999"/>
<path d="M327.495 49.7006V49.7014L332.093 52.3911H332.093V47.0107L327.495 49.7006Z" fill="#A8A8A8"/>
<path d="M332.093 52.3918L327.495 49.7021V55.0817L332.093 52.3918Z" fill="#999999"/>
<path d="M327.496 55.0824H327.496L327.496 55.0828L327.496 55.0832V55.0834L332.094 57.7731V52.3928V52.3926H332.094L327.496 55.0824Z" fill="#A8A8A8"/>
<path d="M332.093 57.7746L327.495 55.085V60.4643L332.093 57.7746Z" fill="#999999"/>
<path d="M327.495 60.4631L331.403 62.7493C331.544 62.4736 331.799 61.9774 332.094 61.409V57.7734L327.495 60.4631Z" fill="#A8A8A8"/>
<path d="M327.498 33.561V28.2633C327.458 28.2586 327.418 28.2543 327.378 28.25L322.9 30.8699L327.497 33.5596L327.498 33.561Z" fill="#B8B8B8"/>
<path d="M327.498 33.5594L327.498 33.5592L327.497 33.559L322.9 30.8691V36.2497L327.498 33.5594Z" fill="#CFCFCF"/>
<path d="M327.498 38.9399V33.5605V33.5602V33.5596L322.9 36.2498L327.497 38.9395L327.498 38.9399H327.498Z" fill="#B8B8B8"/>
<path d="M327.498 44.3217V38.9424V38.9416V38.9414H327.498L327.497 38.9418L322.9 41.6315L327.498 44.3217Z" fill="#B8B8B8"/>
<path d="M327.497 44.3205L327.498 44.3201L322.9 41.6299V47.0104L327.497 44.3207L327.497 44.3205Z" fill="#E5E5E5"/>
<path d="M327.498 49.7006V49.7004V44.3211V44.3203L327.497 44.3207L327.497 44.3209L322.9 47.0106L327.498 49.7006Z" fill="#B8B8B8"/>
<path d="M327.498 49.7008L322.9 47.0107V52.3911L327.498 49.7008Z" fill="#CFCFCF"/>
<path d="M327.498 55.0817V49.7022V49.7014V49.7012L322.9 52.3914L327.497 55.0811L327.498 55.0817H327.498Z" fill="#B8B8B8"/>
<path d="M327.498 55.0828L327.497 55.0824L327.497 55.0822L322.9 52.3926V57.7731L327.498 55.0828Z" fill="#E5E5E5"/>
<path d="M327.498 60.4633V55.084V55.0832V55.083L322.9 57.7733L327.497 60.4629L327.498 60.4633H327.498Z" fill="#B8B8B8"/>
<path d="M322.859 36.3996L318.261 33.71V39.0893L322.859 36.3996Z" fill="#D6D6D6"/>
<path d="M322.859 36.4004L318.262 39.0901V39.0903V39.0901L318.261 39.0906L322.859 41.7807H322.859V36.4004Z" fill="#B4B4B4"/>
<path d="M318.262 44.469L322.859 47.1588V41.7785V41.7783H322.859L318.261 44.4686H318.261L318.262 44.4684V44.469Z" fill="#B4B4B4"/>
<path d="M318.262 49.8508L318.261 49.8512L322.859 52.5415V47.1611L318.262 49.8508V49.851V49.8508Z" fill="#B4B4B4"/>
<path d="M318.261 49.8506V55.2311L322.859 52.5408L318.261 49.8506Z" fill="#D6D6D6"/>
<path d="M318.26 33.7086V28.3281L313.661 31.0184L318.26 33.7086Z" fill="#E5E5E5"/>
<path d="M318.26 39.0885V39.0883V33.709V33.708L318.259 33.7086L313.662 36.3983L318.259 39.0879L318.26 39.0883V39.0885Z" fill="#E5E5E5"/>
<path d="M318.26 44.4697L318.259 44.4699L313.661 47.1598L318.26 49.85V49.8502V49.85V44.4703V44.4697Z" fill="#E5E5E5"/>
<path d="M309.062 39.0889V44.4694L313.66 41.7791L309.062 39.0889Z" fill="#D6D6D6"/>
</g>
<path d="M346.288 42.1895C346.266 42.1895 346.25 42.2112 346.256 42.2327L349.925 54.2353C349.929 54.2494 349.942 54.259 349.957 54.259H352.095C352.11 54.259 352.123 54.2495 352.127 54.2355L355.223 44.3065L358.327 54.259L362.041 42.1895L359.315 51.0476L358.327 54.259L355.223 44.3065L354.041 42.2557C354.026 42.2304 353.988 42.2346 353.98 42.2625L351.085 51.5476C351.075 51.5794 351.03 51.5788 351.021 51.5468L348.387 42.2139C348.383 42.1994 348.37 42.1895 348.355 42.1895H346.288Z" fill="#D9D9D9"/>
<path d="M352.956 42.1898C352.934 42.1898 352.918 42.2116 352.924 42.2331L356.593 54.2357C356.597 54.2498 356.61 54.2594 356.625 54.2594H358.763C358.778 54.2594 358.791 54.2499 358.795 54.2359L361.891 44.3069L362.529 42.2328C362.536 42.2113 362.52 42.1895 362.497 42.1895L360.695 42.1898C360.68 42.1898 360.667 42.1994 360.663 42.2134L357.753 51.548C357.743 51.5798 357.698 51.5792 357.689 51.5471L355.055 42.2142C355.051 42.1998 355.038 42.1898 355.023 42.1898H352.956Z" fill="#D9D9D9"/>
<path d="M364.566 39.124C364.842 39.3835 365.183 39.5133 365.588 39.5133C365.978 39.5133 366.31 39.3835 366.586 39.124C366.862 38.8482 367 38.5075 367 38.102C367 37.7126 366.862 37.3882 366.586 37.1286C366.31 36.869 365.978 36.7393 365.588 36.7393C365.183 36.7393 364.842 36.869 364.566 37.1286C364.307 37.3882 364.177 37.7126 364.177 38.102C364.177 38.5075 364.307 38.8482 364.566 39.124Z" fill="#D9D9D9"/>
<path d="M364.566 42.2235V54.2261C364.566 54.2446 364.581 54.2596 364.6 54.2596H366.577C366.595 54.2596 366.61 54.2446 366.61 54.2261V42.2235C366.61 42.205 366.595 42.19 366.577 42.19H364.6C364.581 42.19 364.566 42.205 364.566 42.2235Z" fill="#D9D9D9"/>
<path d="M368.633 42.2239V54.2265C368.633 54.245 368.648 54.26 368.667 54.26H370.644C370.662 54.26 370.677 54.245 370.677 54.2265V48.0063C370.677 46.6111 371.018 45.5404 371.699 44.7942C372.397 44.0317 373.265 43.6505 374.303 43.6505C376.379 43.6505 377.418 44.9077 377.418 47.4222V54.2265C377.418 54.245 377.433 54.26 377.451 54.26H379.428C379.447 54.26 379.462 54.245 379.462 54.2265V47.2032C379.462 45.4025 379.032 44.0723 378.172 43.2125C377.328 42.3364 376.193 41.8984 374.765 41.8984C373.841 41.8984 373.013 42.1174 372.283 42.5554C371.588 42.9722 371.048 43.5359 370.662 44.2465C370.646 44.2766 370.599 44.2666 370.597 44.2325L370.484 42.2221C370.483 42.2043 370.469 42.1904 370.451 42.1904H368.667C368.648 42.1904 368.633 42.2054 368.633 42.2239Z" fill="#D9D9D9"/>
<path d="M381.095 42.2239V54.2265C381.095 54.245 381.11 54.26 381.128 54.26H383.105C383.124 54.26 383.139 54.245 383.139 54.2265V48.0063C383.139 46.6111 383.479 45.5404 384.161 44.7942C384.858 44.0317 385.726 43.6505 386.764 43.6505C388.841 43.6505 389.879 44.9077 389.879 47.4222V54.2265C389.879 54.245 389.894 54.26 389.913 54.26H391.89C391.908 54.26 391.923 54.245 391.923 54.2265V47.2032C391.923 45.4025 391.493 44.0723 390.634 43.2125C389.79 42.3364 388.654 41.8984 387.227 41.8984C386.302 41.8984 385.475 42.1174 384.745 42.5554C384.05 42.9722 383.51 43.5359 383.124 44.2465C383.107 44.2766 383.061 44.2666 383.059 44.2325L382.946 42.2221C382.945 42.2043 382.93 42.1904 382.912 42.1904H381.128C381.11 42.1904 381.095 42.2054 381.095 42.2239Z" fill="#D9D9D9"/>
<path d="M399.568 54.2601C398.433 54.2601 397.41 54.0005 396.502 53.4813C395.594 52.9623 394.872 52.2322 394.336 51.2913C393.817 50.3342 393.558 49.2148 393.558 47.9332C393.558 46.6517 393.825 45.5404 394.361 44.5995C394.896 43.6424 395.618 42.9042 396.526 42.3851C397.451 41.866 398.481 41.6064 399.617 41.6064C400.752 41.6064 401.774 41.866 402.683 42.3851C403.591 42.9042 404.305 43.6424 404.824 44.5995C405.36 45.5404 405.627 46.6517 405.627 47.9332C405.627 49.2148 405.36 50.3342 404.824 51.2913C404.289 52.2322 403.559 52.9623 402.634 53.4813C401.726 54.0005 400.704 54.2601 399.568 54.2601ZM399.568 52.508C400.266 52.508 400.915 52.3377 401.515 51.997C402.115 51.6564 402.602 51.1453 402.975 50.464C403.348 49.7826 403.535 48.939 403.535 47.9332C403.535 46.9275 403.348 46.0839 402.975 45.4025C402.618 44.7211 402.139 44.2101 401.539 43.8695C400.939 43.5288 400.298 43.3585 399.617 43.3585C398.919 43.3585 398.27 43.5288 397.67 43.8695C397.07 44.2101 396.583 44.7211 396.21 45.4025C395.837 46.0839 395.65 46.9275 395.65 47.9332C395.65 48.939 395.837 49.7826 396.21 50.464C396.583 51.1453 397.062 51.6564 397.646 51.997C398.246 52.3377 398.887 52.508 399.568 52.508Z" fill="#D9D9D9"/>
<path d="M407.306 42.1895C407.283 42.1895 407.267 42.2112 407.274 42.2327L410.942 54.2353C410.947 54.2494 410.96 54.259 410.974 54.259H413.113C413.127 54.259 413.14 54.2495 413.145 54.2355L416.241 44.3065L419.345 54.259L423.059 42.1895L420.333 51.0476L419.345 54.259L416.241 44.3065L415.058 42.2557C415.044 42.2304 415.006 42.2346 414.997 42.2625L412.102 51.5476C412.093 51.5794 412.047 51.5788 412.038 51.5468L409.405 42.2139C409.401 42.1994 409.387 42.1895 409.372 42.1895H407.306Z" fill="#D9D9D9"/>
<path d="M413.974 42.1898C413.951 42.1898 413.935 42.2116 413.942 42.2331L417.61 54.2357C417.615 54.2498 417.628 54.2594 417.642 54.2594H419.781C419.795 54.2594 419.808 54.2499 419.813 54.2359L422.909 44.3069L423.547 42.2328C423.553 42.2113 423.537 42.1895 423.515 42.1895L421.713 42.1898C421.698 42.1898 421.685 42.1994 421.681 42.2134L418.77 51.548C418.761 51.5798 418.715 51.5792 418.706 51.5471L416.073 42.2142C416.068 42.1998 416.055 42.1898 416.04 42.1898H413.974Z" fill="#D9D9D9"/>
<path d="M425.909 54.2597C425.891 54.2597 425.876 54.2447 425.876 54.2262V51.4365C425.876 51.418 425.861 51.403 425.842 51.403H424.933C424.915 51.403 424.9 51.388 424.9 51.3695V50.9437C424.9 50.9252 424.915 50.9102 424.933 50.9102H427.436C427.454 50.9102 427.469 50.9252 427.469 50.9437V51.3695C427.469 51.388 427.454 51.403 427.436 51.403H426.522C426.503 51.403 426.488 51.418 426.488 51.4365V54.2262C426.488 54.2447 426.473 54.2597 426.455 54.2597H425.909ZM427.956 54.2597C427.938 54.2597 427.923 54.2447 427.923 54.2262V50.9437C427.923 50.9252 427.938 50.9102 427.956 50.9102H428.63C428.642 50.9102 428.654 50.9173 428.66 50.9286L429.687 52.9747C429.7 52.9994 429.735 52.9993 429.747 52.9745L430.761 50.9288C430.766 50.9174 430.778 50.9102 430.791 50.9102H431.464C431.482 50.9102 431.497 50.9252 431.497 50.9437V54.2262C431.497 54.2447 431.482 54.2597 431.464 54.2597H430.918C430.9 54.2597 430.885 54.2447 430.885 54.2262V52.0881C430.885 52.0529 430.837 52.0415 430.822 52.0729L429.961 53.7629C429.955 53.7741 429.944 53.7812 429.931 53.7812H429.489C429.476 53.7812 429.465 53.7741 429.459 53.7629L428.599 52.0729C428.583 52.0415 428.535 52.0529 428.535 52.0881V54.2262C428.535 54.2447 428.52 54.2597 428.502 54.2597H427.956Z" fill="#D9D9D9"/>
<path d="M498.385 59.7113L529.935 25.9316L535.407 31.3413L504.472 65.492L498.385 59.7113Z" fill="#EEEEEE" stroke="#CFCFCF" stroke-width="0.211553" stroke-miterlimit="10"/>
<path d="M530.081 28.0484L533.714 31.416L504.219 63.2342L500.368 59.9941L530.081 28.0484ZM529.971 25.085L497.329 60.179L504.398 66.1262L536.678 31.3025L529.971 25.085Z" fill="#D9D9D9"/>
<path d="M530.25 27.5687L534.251 31.3902L523.029 43.576L521.315 45.438L523.217 47.1096L535.3 57.7353L531.966 61.546L519.4 50.6587L517.563 49.0676L515.934 50.8708L504.548 63.4652L500.487 59.7583L511.774 47.8743L513.499 46.0571L511.66 44.3546L499.155 32.7693L502.579 29.1382L514.745 40.7637L516.579 42.5173L518.292 40.646L530.252 27.5703M530.131 24.0273L516.46 38.9744L502.488 25.6216L495.636 32.8854L509.974 46.1686L496.949 59.8821L504.717 66.9725L517.776 52.5285L532.208 65.0347L538.793 57.5078L524.855 45.2507L537.723 31.2772L530.131 24.0273Z" fill="#D9D9D9"/>
<path d="M516.47 27.5983C516.496 27.5983 516.524 27.5983 516.55 27.5999C516.997 27.6203 517.409 27.8198 517.711 28.1575C518.012 28.4953 518.167 28.9351 518.146 29.3938C518.104 30.3127 517.371 31.0322 516.476 31.0322C516.45 31.0322 516.423 31.0322 516.397 31.0306C515.475 30.9866 514.758 30.1823 514.801 29.2367C514.843 28.3177 515.576 27.5983 516.47 27.5983ZM516.47 25.085C514.279 25.085 512.455 26.8537 512.353 29.122C512.248 31.4563 514.008 33.4355 516.284 33.5424C516.348 33.5455 516.412 33.5471 516.476 33.5471C518.668 33.5471 520.492 31.7783 520.594 29.51C520.698 27.1757 518.939 25.1965 516.663 25.0897C516.599 25.0865 516.535 25.085 516.47 25.085Z" fill="#D9D9D9"/>
<path d="M518.163 60.8108C518.183 60.8108 518.202 60.8108 518.224 60.8108C518.918 60.8437 519.457 61.4513 519.425 62.1641C519.394 62.858 518.842 63.4012 518.169 63.4012C518.149 63.4012 518.129 63.4012 518.108 63.4012C517.413 63.3682 516.875 62.7607 516.907 62.0479C516.937 61.354 517.49 60.8108 518.163 60.8108ZM518.163 58.2988C516.197 58.2988 514.559 59.8908 514.468 61.9317C514.374 64.0323 515.953 65.8142 517.996 65.91C518.054 65.9132 518.112 65.9147 518.169 65.9147C520.135 65.9147 521.772 64.3228 521.864 62.2818C521.957 60.1812 520.379 58.3993 518.335 58.3035C518.277 58.3004 518.219 58.2988 518.163 58.2988Z" fill="#D9D9D9"/>
<path d="M492.463 40.3172C493.281 40.3172 493.944 39.6542 493.944 38.8363C493.944 38.0185 493.281 37.3555 492.463 37.3555C491.645 37.3555 490.982 38.0185 490.982 38.8363C490.982 39.6542 491.645 40.3172 492.463 40.3172Z" fill="#D9D9D9"/>
<path d="M541.331 37.3553C542.149 37.3553 542.812 36.6923 542.812 35.8744C542.812 35.0566 542.149 34.3936 541.331 34.3936C540.513 34.3936 539.85 35.0566 539.85 35.8744C539.85 36.6923 540.513 37.3553 541.331 37.3553Z" fill="#ABABAB"/>
<path d="M542.601 53.6453C543.419 53.6453 544.082 52.9823 544.082 52.1645C544.082 51.3466 543.419 50.6836 542.601 50.6836C541.783 50.6836 541.12 51.3466 541.12 52.1645C541.12 52.9823 541.783 53.6453 542.601 53.6453Z" fill="#ABABAB"/>
<path d="M537.1 51.9525C537.568 51.9525 537.947 51.621 537.947 51.2121C537.947 50.8032 537.568 50.4717 537.1 50.4717C536.633 50.4717 536.254 50.8032 536.254 51.2121C536.254 51.621 536.633 51.9525 537.1 51.9525Z" fill="#D9D9D9"/>
<path d="M547.255 51.9528C547.839 51.9528 548.313 51.5266 548.313 51.0008C548.313 50.475 547.839 50.0488 547.255 50.0488C546.671 50.0488 546.197 50.475 546.197 51.0008C546.197 51.5266 546.671 51.9528 547.255 51.9528Z" fill="#D9D9D9"/>
<path d="M543.659 61.8948C544.243 61.8948 544.717 61.4212 544.717 60.8371C544.717 60.2529 544.243 59.7793 543.659 59.7793C543.075 59.7793 542.601 60.2529 542.601 60.8371C542.601 61.4212 543.075 61.8948 543.659 61.8948Z" fill="#D9D9D9"/>
<path d="M546.62 36.9322C547.321 36.9322 547.889 36.3639 547.889 35.6629C547.889 34.9618 547.321 34.3936 546.62 34.3936C545.919 34.3936 545.35 34.9618 545.35 35.6629C545.35 36.3639 545.919 36.9322 546.62 36.9322Z" fill="#D9D9D9"/>
<path d="M493.203 56.6063C494.079 56.6063 494.79 55.9433 494.79 55.1254C494.79 54.3075 494.079 53.6445 493.203 53.6445C492.327 53.6445 491.616 54.3075 491.616 55.1254C491.616 55.9433 492.327 56.6063 493.203 56.6063Z" fill="#D9D9D9"/>
<path d="M488.126 55.5485C488.652 55.5485 489.078 55.1223 489.078 54.5965C489.078 54.0707 488.652 53.6445 488.126 53.6445C487.6 53.6445 487.174 54.0707 487.174 54.5965C487.174 55.1223 487.6 55.5485 488.126 55.5485Z" fill="#D9D9D9"/>
<path d="M492.992 64.6452C493.517 64.6452 493.944 64.219 493.944 63.6932C493.944 63.1674 493.517 62.7412 492.992 62.7412C492.466 62.7412 492.04 63.1674 492.04 63.6932C492.04 64.219 492.466 64.6452 492.992 64.6452Z" fill="#D9D9D9"/>
<path d="M485.904 42.2795L485.829 43.9185C485.825 44.0056 485.892 44.0794 485.979 44.0834L500.737 44.7613C500.824 44.7653 500.898 44.6979 500.902 44.6108L500.977 42.9719C500.981 42.8848 500.914 42.8109 500.827 42.8069L486.069 42.1291C485.982 42.1251 485.908 42.1924 485.904 42.2795Z" fill="#D9D9D9"/>
<path d="M493.718 45.7848L493.642 47.4439C493.638 47.531 493.705 47.6048 493.792 47.6088L504.809 48.1148C504.897 48.1188 504.97 48.0515 504.974 47.9644L505.051 46.3053C505.055 46.2182 504.987 46.1444 504.9 46.1404L493.883 45.6344C493.796 45.6304 493.722 45.6977 493.718 45.7848Z" fill="#D9D9D9"/>
<path d="M485.715 46.4163L485.636 48.1465C485.631 48.2387 485.703 48.3169 485.795 48.3211L491.878 48.6005C491.97 48.6048 492.048 48.5335 492.053 48.4412L492.132 46.7111C492.136 46.6188 492.065 46.5407 491.973 46.5364L485.89 46.257C485.798 46.2528 485.719 46.3241 485.715 46.4163Z" fill="#D9D9D9"/>
<path d="M484.928 49.8301L484.852 51.4922C484.849 51.5537 484.897 51.6058 484.958 51.6086L501.155 52.3526C501.217 52.3554 501.269 52.3079 501.272 52.2464L501.348 50.5842C501.351 50.5228 501.303 50.4706 501.242 50.4678L485.045 49.7239C484.983 49.721 484.931 49.7686 484.928 49.8301Z" fill="#D9D9D9"/>
<path d="M532.8 39.2064L532.713 41.0958C532.71 41.1615 532.761 41.2173 532.826 41.2203L550.443 42.0295C550.509 42.0325 550.565 41.9816 550.568 41.9159L550.654 40.0265C550.657 39.9607 550.607 39.905 550.541 39.9019L532.924 39.0928C532.858 39.0898 532.803 39.1406 532.8 39.2064Z" fill="#ABABAB"/>
<path d="M529.552 43.3714L529.479 44.9578C529.475 45.0372 529.537 45.1045 529.616 45.1082L541.801 45.6678C541.88 45.6715 541.947 45.6101 541.951 45.5306L542.024 43.9443C542.028 43.8649 541.966 43.7975 541.887 43.7939L529.702 43.2342C529.623 43.2306 529.555 43.292 529.552 43.3714Z" fill="#D9D9D9"/>
<path d="M544.412 42.8579L544.327 44.6947C544.323 44.7776 544.387 44.8478 544.47 44.8516L552.245 45.2087C552.328 45.2125 552.398 45.1485 552.402 45.0656L552.486 43.2288C552.49 43.1459 552.426 43.0757 552.343 43.0719L544.568 42.7148C544.486 42.711 544.415 42.7751 544.412 42.8579Z" fill="#ABABAB"/>
<path d="M533.512 47.207L533.436 48.8691C533.433 48.9306 533.48 48.9828 533.542 48.9856L540.138 49.2886C540.2 49.2914 540.252 49.2438 540.255 49.1824L540.331 47.5202C540.334 47.4587 540.286 47.4066 540.225 47.4038L533.628 47.1008C533.567 47.098 533.515 47.1455 533.512 47.207Z" fill="#ABABAB"/>
<path d="M541.915 46.28L541.824 48.2715C541.82 48.3535 541.884 48.423 541.966 48.4267L551.09 48.8458C551.172 48.8496 551.242 48.7862 551.245 48.7042L551.337 46.7128C551.341 46.6308 551.277 46.5613 551.195 46.5575L542.071 46.1384C541.989 46.1346 541.919 46.1981 541.915 46.28Z" fill="#ABABAB"/>
<path d="M571.331 32.6108C571 32.2076 570.594 31.9006 570.113 31.6847C569.632 31.4687 569.075 31.3621 568.443 31.3621C567.811 31.3621 567.225 31.4843 566.687 31.7289C566.148 31.9734 565.68 32.3142 565.284 32.7539C564.889 33.1935 564.579 33.7138 564.358 34.3174C564.134 34.9209 564.025 35.5739 564.025 36.2789C564.025 36.9839 564.137 37.6551 564.358 38.2509C564.582 38.8466 564.886 39.3643 565.274 39.8014C565.662 40.241 566.117 40.5818 566.642 40.8264C567.168 41.0709 567.73 41.1932 568.333 41.1932C569.023 41.1932 569.634 41.0501 570.165 40.7613C570.696 40.4752 571.136 40.0719 571.479 39.5542L574.281 41.6459C573.633 42.5512 572.816 43.2198 571.825 43.6516C570.834 44.0835 569.814 44.2994 568.765 44.2994C567.571 44.2994 566.473 44.1121 565.466 43.7401C564.46 43.3654 563.591 42.8321 562.86 42.1349C562.126 41.4377 561.556 40.5948 561.145 39.6011C560.737 38.6099 560.531 37.5042 560.531 36.2815C560.531 35.0588 560.737 33.9532 561.145 32.962C561.553 31.9708 562.126 31.1253 562.86 30.4281C563.593 29.7309 564.462 29.195 565.466 28.823C566.473 28.4484 567.571 28.2637 568.765 28.2637C569.197 28.2637 569.645 28.3027 570.113 28.3833C570.579 28.4614 571.039 28.5889 571.492 28.7606C571.945 28.9323 572.379 29.1638 572.795 29.45C573.212 29.7387 573.586 30.0899 573.917 30.5062L571.331 32.6186V32.6108Z" fill="#D9D9D9"/>
<path d="M576.331 28.6465H582.237C583.012 28.6465 583.748 28.7219 584.445 28.8728C585.143 29.0237 585.754 29.276 586.277 29.6273C586.803 29.9785 587.219 30.4545 587.528 31.0503C587.838 31.646 587.992 32.3901 587.992 33.2824C587.992 34.3594 587.711 35.2751 587.151 36.0296C586.592 36.784 585.772 37.2627 584.695 37.463L588.574 43.907H584.544L581.355 37.8064H579.695V43.907H576.333V28.6465H576.331ZM579.692 34.9604H581.675C581.976 34.9604 582.296 34.9499 582.635 34.9291C582.973 34.9083 583.277 34.8433 583.551 34.734C583.824 34.6274 584.05 34.4583 584.23 34.2267C584.409 33.9978 584.5 33.6752 584.5 33.2564C584.5 32.8687 584.422 32.5592 584.263 32.3302C584.105 32.1013 583.904 31.9244 583.66 31.8021C583.415 31.6798 583.134 31.5966 582.819 31.555C582.502 31.5107 582.195 31.4899 581.893 31.4899H579.695V34.9604H579.692Z" fill="#D9D9D9"/>
<path d="M589.696 36.2767C589.696 35.0565 589.901 33.9483 590.31 32.9571C590.718 31.9659 591.291 31.1205 592.024 30.4232C592.758 29.726 593.627 29.1901 594.631 28.8181C595.638 28.4435 596.736 28.2588 597.93 28.2588C599.124 28.2588 600.222 28.4461 601.229 28.8181C602.236 29.1927 603.105 29.726 603.836 30.4232C604.57 31.1205 605.139 31.9633 605.551 32.9571C605.962 33.9509 606.165 35.0539 606.165 36.2767C606.165 37.4994 605.959 38.605 605.551 39.5962C605.142 40.5874 604.57 41.4328 603.836 42.1301C603.102 42.8273 602.233 43.3632 601.229 43.7352C600.222 44.1098 599.124 44.2945 597.93 44.2945C596.736 44.2945 595.638 44.1072 594.631 43.7352C593.624 43.3606 592.755 42.8273 592.024 42.1301C591.291 41.4328 590.721 40.59 590.31 39.5962C589.901 38.605 589.696 37.4994 589.696 36.2767ZM593.187 36.2767C593.187 36.9947 593.299 37.6529 593.52 38.2486C593.744 38.8443 594.061 39.362 594.48 39.7991C594.897 40.2388 595.396 40.5796 595.979 40.8241C596.562 41.0686 597.212 41.1909 597.93 41.1909C598.648 41.1909 599.299 41.0686 599.881 40.8241C600.464 40.5796 600.964 40.2388 601.38 39.7991C601.796 39.362 602.116 38.8443 602.34 38.2486C602.564 37.6529 602.673 36.9947 602.673 36.2767C602.673 35.5586 602.561 34.9187 602.34 34.3151C602.116 33.7116 601.796 33.1913 601.38 32.7516C600.964 32.3146 600.464 31.9712 599.881 31.7266C599.299 31.4821 598.648 31.3598 597.93 31.3598C597.212 31.3598 596.562 31.4821 595.979 31.7266C595.396 31.9712 594.897 32.3119 594.48 32.7516C594.064 33.1913 593.744 33.7116 593.52 34.3151C593.297 34.9187 593.187 35.5716 593.187 36.2767Z" fill="#D9D9D9"/>
<path d="M616.207 32.3741C615.934 32.0281 615.565 31.7731 615.096 31.6092C614.628 31.4453 614.188 31.3621 613.769 31.3621C613.525 31.3621 613.273 31.3907 613.015 31.4479C612.757 31.5052 612.513 31.5962 612.281 31.7185C612.052 31.8408 611.865 32.002 611.722 32.2024C611.579 32.4027 611.506 32.6472 611.506 32.936C611.506 33.3965 611.678 33.7477 612.024 33.9922C612.37 34.2367 612.804 34.4449 613.327 34.6166C613.853 34.7883 614.415 34.9626 615.018 35.1343C615.622 35.306 616.186 35.5505 616.709 35.8679C617.235 36.1853 617.669 36.6093 618.013 37.14C618.359 37.6707 618.531 38.3836 618.531 39.2733C618.531 40.163 618.372 40.8602 618.057 41.4924C617.74 42.1245 617.313 42.65 616.774 43.0663C616.236 43.4825 615.611 43.7921 614.899 43.9924C614.188 44.1927 613.436 44.2942 612.646 44.2942C611.654 44.2942 610.733 44.1433 609.888 43.8415C609.04 43.5398 608.249 43.0507 607.518 42.3769L609.911 39.7467C610.257 40.2072 610.692 40.5636 611.215 40.8134C611.74 41.0657 612.281 41.1906 612.841 41.1906C613.114 41.1906 613.39 41.1594 613.671 41.0943C613.952 41.0293 614.201 40.933 614.425 40.803C614.649 40.6729 614.828 40.509 614.964 40.3061C615.099 40.1057 615.169 39.869 615.169 39.5959C615.169 39.1354 614.992 38.7738 614.641 38.5084C614.29 38.2431 613.847 38.0167 613.314 37.8294C612.783 37.6421 612.208 37.4548 611.589 37.2701C610.97 37.0828 610.395 36.8331 609.864 36.5157C609.334 36.2009 608.891 35.782 608.537 35.2669C608.186 34.7492 608.009 34.0676 608.009 33.2195C608.009 32.3715 608.171 31.6821 608.493 31.0629C608.816 30.4463 609.248 29.9286 609.786 29.5124C610.325 29.0962 610.947 28.784 611.652 28.5758C612.357 28.3677 613.083 28.2637 613.829 28.2637C614.69 28.2637 615.526 28.3859 616.33 28.6305C617.133 28.875 617.859 29.2835 618.507 29.8584L616.199 32.3793L616.207 32.3741Z" fill="#D9D9D9"/>
<path d="M628.794 32.3741C628.521 32.0281 628.152 31.7731 627.683 31.6092C627.215 31.4453 626.775 31.3621 626.357 31.3621C626.112 31.3621 625.86 31.3907 625.602 31.4479C625.344 31.5052 625.1 31.5962 624.868 31.7185C624.639 31.8408 624.452 32.002 624.309 32.2024C624.166 32.4027 624.093 32.6472 624.093 32.936C624.093 33.3965 624.265 33.7477 624.611 33.9922C624.957 34.2367 625.391 34.4449 625.914 34.6166C626.44 34.7883 627.002 34.9626 627.605 35.1343C628.209 35.306 628.773 35.5505 629.296 35.8679C629.822 36.1853 630.256 36.6093 630.6 37.14C630.946 37.6707 631.118 38.3836 631.118 39.2733C631.118 40.163 630.959 40.8602 630.644 41.4924C630.327 42.1245 629.9 42.65 629.361 43.0663C628.823 43.4825 628.199 43.7921 627.486 43.9924C626.775 44.1927 626.024 44.2942 625.233 44.2942C624.241 44.2942 623.32 44.1433 622.472 43.8415C621.624 43.5398 620.833 43.0507 620.102 42.3769L622.496 39.7467C622.842 40.2072 623.276 40.5636 623.799 40.8134C624.325 41.0657 624.866 41.1906 625.425 41.1906C625.698 41.1906 625.974 41.1594 626.255 41.0943C626.536 41.0293 626.786 40.933 627.01 40.803C627.233 40.6729 627.413 40.509 627.548 40.3061C627.683 40.1057 627.754 39.869 627.754 39.5959C627.754 39.1354 627.577 38.7738 627.225 38.5084C626.874 38.2431 626.432 38.0167 625.901 37.8294C625.37 37.6421 624.796 37.4548 624.176 37.2701C623.557 37.0854 622.985 36.8331 622.451 36.5157C621.921 36.2009 621.478 35.782 621.127 35.2669C620.776 34.7492 620.599 34.0676 620.599 33.2195C620.599 32.3715 620.76 31.6821 621.083 31.0629C621.406 30.4463 621.837 29.9286 622.376 29.5124C622.914 29.0962 623.536 28.784 624.241 28.5758C624.946 28.3677 625.672 28.2637 626.419 28.2637C627.28 28.2637 628.115 28.3859 628.919 28.6305C629.723 28.875 630.449 29.2835 631.097 29.8584L628.789 32.3793L628.794 32.3741Z" fill="#D9D9D9"/>
<path d="M633.02 36.2767C633.02 35.0565 633.225 33.9483 633.634 32.9571C634.042 31.9659 634.614 31.1205 635.348 30.4232C636.082 29.726 636.951 29.1901 637.958 28.8181C638.964 28.4435 640.062 28.2588 641.256 28.2588C642.451 28.2588 643.549 28.4461 644.555 28.8181C645.562 29.1927 646.431 29.726 647.165 30.4232C647.899 31.1205 648.468 31.9633 648.879 32.9571C649.291 33.9509 649.493 35.0539 649.493 36.2767C649.493 37.4994 649.288 38.605 648.879 39.5962C648.471 40.5874 647.899 41.4328 647.165 42.1301C646.431 42.8273 645.562 43.3632 644.555 43.7352C643.549 44.1098 642.451 44.2945 641.256 44.2945C640.062 44.2945 638.964 44.1072 637.958 43.7352C636.951 43.3606 636.082 42.8273 635.348 42.1301C634.614 41.4328 634.045 40.59 633.634 39.5962C633.225 38.605 633.02 37.4994 633.02 36.2767ZM636.511 36.2767C636.511 36.9947 636.623 37.6529 636.844 38.2486C637.068 38.8443 637.385 39.362 637.804 39.7991C638.22 40.2388 638.72 40.5796 639.303 40.8241C639.885 41.0686 640.536 41.1909 641.254 41.1909C641.972 41.1909 642.622 41.0686 643.205 40.8241C643.788 40.5796 644.287 40.2388 644.704 39.7991C645.12 39.362 645.44 38.8443 645.664 38.2486C645.888 37.6529 645.997 36.9947 645.997 36.2767C645.997 35.5586 645.885 34.9187 645.664 34.3151C645.44 33.7116 645.123 33.1913 644.704 32.7516C644.287 32.3146 643.788 31.9712 643.205 31.7266C642.622 31.4821 641.972 31.3598 641.254 31.3598C640.536 31.3598 639.885 31.4821 639.303 31.7266C638.72 31.9712 638.22 32.3119 637.804 32.7516C637.388 33.1913 637.068 33.7116 636.844 34.3151C636.62 34.9187 636.511 35.5716 636.511 36.2767Z" fill="#D9D9D9"/>
<path d="M650.479 28.6465H654.317L658.089 38.6467H658.133L661.971 28.6465H665.572L659.278 43.907H656.583L650.482 28.6465H650.479Z" fill="#D9D9D9"/>
<path d="M667.508 28.6465H677.876V31.7501H670.869V34.5961H677.488V37.6997H670.869V40.8033H678.263V43.907H667.508V28.6465Z" fill="#D9D9D9"/>
<path d="M681.174 28.6465H687.08C687.855 28.6465 688.592 28.7219 689.289 28.8728C689.986 29.0237 690.598 29.276 691.121 29.6273C691.646 29.9785 692.062 30.4545 692.372 31.0503C692.682 31.646 692.835 32.3901 692.835 33.2824C692.835 34.3594 692.554 35.2751 691.995 36.0296C691.435 36.784 690.616 37.2627 689.539 37.463L693.418 43.907H689.388L686.198 37.8064H684.538V43.907H681.177V28.6465H681.174ZM684.536 34.9604H686.518C686.82 34.9604 687.14 34.9499 687.478 34.9291C687.816 34.9083 688.121 34.8433 688.394 34.734C688.667 34.6274 688.894 34.4583 689.073 34.2267C689.253 33.9978 689.344 33.6752 689.344 33.2564C689.344 32.8687 689.266 32.5592 689.107 32.3302C688.948 32.1013 688.748 31.9244 688.503 31.8021C688.259 31.6798 687.978 31.5966 687.663 31.555C687.346 31.5107 687.039 31.4899 686.737 31.4899H684.538V34.9604H684.536Z" fill="#D9D9D9"/>
<path d="M561.444 50.6411H564.194C564.587 50.6411 564.964 50.6796 565.326 50.7566C565.696 50.8337 566.02 50.9646 566.297 51.1495C566.574 51.3267 566.794 51.5693 566.956 51.8775C567.125 52.1779 567.21 52.5554 567.21 53.0099C567.21 53.5261 567.121 53.9421 566.944 54.2579C566.767 54.5737 566.528 54.8203 566.228 54.9974C565.927 55.1669 565.577 55.2825 565.176 55.3441C564.783 55.4057 564.371 55.4365 563.94 55.4365H562.9V58.8223H561.444V50.6411ZM563.778 54.1886C563.986 54.1886 564.202 54.1809 564.425 54.1655C564.648 54.15 564.852 54.1038 565.037 54.0268C565.23 53.9498 565.384 53.8342 565.5 53.6801C565.623 53.5261 565.684 53.3104 565.684 53.033C565.684 52.7788 565.631 52.5785 565.523 52.4321C565.415 52.2781 565.276 52.1625 565.107 52.0855C564.937 52.0007 564.748 51.9468 564.54 51.9237C564.332 51.9006 564.132 51.889 563.94 51.889H562.9V54.1886H563.778ZM570.819 50.6411H573.661C574.054 50.6411 574.432 50.6796 574.794 50.7566C575.164 50.826 575.491 50.9492 575.776 51.1264C576.061 51.3036 576.288 51.5424 576.458 51.8428C576.627 52.1433 576.712 52.5246 576.712 52.9868C576.712 53.58 576.546 54.0769 576.215 54.4774C575.892 54.878 575.426 55.1207 574.817 55.2054L576.989 58.8223H575.233L573.338 55.3557H572.275V58.8223H570.819V50.6411ZM573.407 54.1077C573.615 54.1077 573.823 54.1 574.031 54.0846C574.239 54.0615 574.428 54.0152 574.597 53.9459C574.775 53.8689 574.917 53.7572 575.025 53.6108C575.133 53.4567 575.187 53.2449 575.187 52.9753C575.187 52.7364 575.137 52.5439 575.037 52.3975C574.936 52.2511 574.805 52.1433 574.644 52.0739C574.482 51.9969 574.301 51.9468 574.101 51.9237C573.908 51.9006 573.719 51.889 573.534 51.889H572.275V54.1077H573.407ZM579.969 54.7663C579.969 54.1115 580.077 53.5184 580.293 52.9868C580.509 52.4476 580.805 51.9892 581.183 51.6117C581.568 51.2342 582.022 50.9454 582.546 50.7451C583.078 50.5371 583.659 50.4331 584.291 50.4331C584.93 50.4254 585.516 50.5217 586.047 50.722C586.579 50.9145 587.037 51.1996 587.423 51.5771C587.808 51.9545 588.108 52.409 588.324 52.9406C588.54 53.4721 588.647 54.0653 588.647 54.7201C588.647 55.3595 588.54 55.9411 588.324 56.465C588.108 56.9888 587.808 57.4395 587.423 57.8169C587.037 58.1944 586.579 58.491 586.047 58.7067C585.516 58.9147 584.93 59.0226 584.291 59.0303C583.659 59.0303 583.078 58.9301 582.546 58.7298C582.022 58.5218 581.568 58.2329 581.183 57.8632C580.805 57.4857 580.509 57.035 580.293 56.5112C580.077 55.9873 579.969 55.4057 579.969 54.7663ZM581.495 54.6739C581.495 55.113 581.56 55.5174 581.691 55.8872C581.83 56.257 582.022 56.5767 582.269 56.8463C582.515 57.1159 582.808 57.3278 583.147 57.4818C583.494 57.6359 583.879 57.713 584.303 57.713C584.726 57.713 585.111 57.6359 585.458 57.4818C585.805 57.3278 586.101 57.1159 586.348 56.8463C586.594 56.5767 586.783 56.257 586.914 55.8872C587.053 55.5174 587.122 55.113 587.122 54.6739C587.122 54.2656 587.053 53.8843 586.914 53.5299C586.783 53.1755 586.594 52.8674 586.348 52.6055C586.101 52.3359 585.805 52.1279 585.458 51.9815C585.111 51.8274 584.726 51.7504 584.303 51.7504C583.879 51.7504 583.494 51.8274 583.147 51.9815C582.808 52.1279 582.515 52.3359 582.269 52.6055C582.022 52.8674 581.83 53.1755 581.691 53.5299C581.56 53.8843 581.495 54.2656 581.495 54.6739ZM592.311 50.6411H593.767V58.8223H592.311V50.6411ZM597.872 50.6411H599.802L603.766 56.7192H603.789V50.6411H605.245V58.8223H603.396L599.351 52.5477H599.328V58.8223H597.872V50.6411ZM613.39 52.3975C613.236 52.1741 613.028 52.0123 612.766 51.9122C612.512 51.8043 612.242 51.7504 611.957 51.7504C611.788 51.7504 611.622 51.7696 611.46 51.8082C611.306 51.8467 611.164 51.9083 611.033 51.993C610.909 52.0778 610.809 52.1895 610.732 52.3282C610.655 52.4591 610.617 52.617 610.617 52.8019C610.617 53.0793 610.713 53.2911 610.906 53.4375C611.098 53.5838 611.337 53.7109 611.622 53.8188C611.907 53.9266 612.219 54.0306 612.558 54.1308C612.897 54.2309 613.209 54.3696 613.494 54.5468C613.779 54.724 614.018 54.9589 614.21 55.2517C614.403 55.5444 614.499 55.9334 614.499 56.4188C614.499 56.8579 614.418 57.243 614.257 57.5743C614.095 57.8978 613.875 58.1675 613.598 58.3832C613.328 58.5989 613.013 58.7606 612.651 58.8685C612.288 58.9763 611.907 59.0303 611.507 59.0303C610.998 59.0303 610.509 58.9455 610.039 58.776C609.569 58.6066 609.165 58.3215 608.826 57.9209L609.923 56.8579C610.101 57.1275 610.332 57.3393 610.617 57.4934C610.909 57.6398 611.218 57.713 611.541 57.713C611.711 57.713 611.88 57.6898 612.05 57.6436C612.219 57.5974 612.373 57.5281 612.512 57.4356C612.651 57.3432 612.762 57.2276 612.847 57.089C612.932 56.9426 612.974 56.777 612.974 56.5921C612.974 56.2916 612.878 56.0605 612.685 55.8988C612.493 55.737 612.254 55.6022 611.969 55.4943C611.684 55.3788 611.372 55.2709 611.033 55.1708C610.694 55.0706 610.382 54.9358 610.097 54.7663C609.812 54.5892 609.573 54.358 609.38 54.073C609.188 53.7803 609.091 53.3912 609.091 52.9059C609.091 52.4822 609.176 52.1163 609.346 51.8082C609.523 51.5 609.75 51.2458 610.027 51.0455C610.312 50.8375 610.636 50.6834 610.998 50.5833C611.36 50.4831 611.73 50.4331 612.107 50.4331C612.539 50.4331 612.955 50.4986 613.355 50.6295C613.764 50.7605 614.13 50.9762 614.453 51.2766L613.39 52.3975ZM618.327 50.6411H621.077C621.47 50.6411 621.847 50.6796 622.209 50.7566C622.579 50.8337 622.903 50.9646 623.18 51.1495C623.457 51.3267 623.677 51.5693 623.839 51.8775C624.008 52.1779 624.093 52.5554 624.093 53.0099C624.093 53.5261 624.004 53.9421 623.827 54.2579C623.65 54.5737 623.411 54.8203 623.111 54.9974C622.81 55.1669 622.46 55.2825 622.059 55.3441C621.666 55.4057 621.254 55.4365 620.823 55.4365H619.783V58.8223H618.327V50.6411ZM620.661 54.1886C620.869 54.1886 621.085 54.1809 621.308 54.1655C621.531 54.15 621.736 54.1038 621.92 54.0268C622.113 53.9498 622.267 53.8342 622.383 53.6801C622.506 53.5261 622.568 53.3104 622.568 53.033C622.568 52.7788 622.514 52.5785 622.406 52.4321C622.298 52.2781 622.159 52.1625 621.99 52.0855C621.82 52.0007 621.632 51.9468 621.424 51.9237C621.216 51.9006 621.015 51.889 620.823 51.889H619.783V54.1886H620.661ZM627.702 50.6411H633.121V51.9584H629.158V53.969H632.913V55.2863H629.158V57.505H633.329V58.8223H627.702V50.6411ZM642.693 52.5593C642.393 52.2357 642.1 52.02 641.815 51.9122C641.537 51.8043 641.256 51.7504 640.971 51.7504C640.548 51.7504 640.162 51.8274 639.816 51.9815C639.477 52.1279 639.184 52.3359 638.938 52.6055C638.691 52.8674 638.498 53.1755 638.36 53.5299C638.229 53.8843 638.163 54.2656 638.163 54.6739C638.163 55.113 638.229 55.5174 638.36 55.8872C638.498 56.257 638.691 56.5767 638.938 56.8463C639.184 57.1159 639.477 57.3278 639.816 57.4818C640.162 57.6359 640.548 57.713 640.971 57.713C641.303 57.713 641.622 57.6359 641.93 57.4818C642.246 57.3201 642.539 57.0659 642.809 56.7192L644.01 57.5743C643.641 58.0827 643.19 58.4525 642.658 58.6836C642.127 58.9147 641.561 59.0303 640.96 59.0303C640.328 59.0303 639.746 58.9301 639.215 58.7298C638.691 58.5218 638.236 58.2329 637.851 57.8632C637.474 57.4857 637.177 57.035 636.962 56.5112C636.746 55.9873 636.638 55.4057 636.638 54.7663C636.638 54.1115 636.746 53.5184 636.962 52.9868C637.177 52.4476 637.474 51.9892 637.851 51.6117C638.236 51.2342 638.691 50.9454 639.215 50.7451C639.746 50.5371 640.328 50.4331 640.96 50.4331C641.514 50.4331 642.027 50.5332 642.497 50.7335C642.974 50.9261 643.417 51.2574 643.825 51.7273L642.693 52.5593ZM648.974 51.9584H646.467V50.6411H652.938V51.9584H650.43V58.8223H648.974V51.9584Z" fill="#D9D9D9"/>
<path d="M759.864 44.5016L765.737 37.8251L761.338 32.8237C760.906 32.3335 760.209 32.3335 759.778 32.8237L749.506 44.5016C749.075 44.9918 749.075 45.7841 749.506 46.2743L759.778 57.9522C760.209 58.4424 760.906 58.4424 761.338 57.9522L765.737 52.9508L759.864 46.2743C759.433 45.7841 759.433 44.9918 759.864 44.5016Z" fill="#D9D9D9"/>
<path d="M781.967 44.5016L771.695 32.8237C771.264 32.3335 770.567 32.3335 770.136 32.8237L765.737 37.8251L771.609 44.5016C772.041 44.9918 772.041 45.7841 771.609 46.2743L765.737 52.9508L770.136 57.9522C770.567 58.4424 771.264 58.4424 771.695 57.9522L781.967 46.2743C782.398 45.7841 782.398 44.9918 781.967 44.5016Z" fill="#D9D9D9"/>
<path d="M766.953 34.8705C766.286 35.6295 765.193 35.6295 764.523 34.8705C763.856 34.1114 762.763 32.867 762.093 32.108C761.426 31.349 761.87 30.7256 763.083 30.7256H768.393C769.605 30.7256 770.051 31.3466 769.383 32.108C768.715 32.8694 767.623 34.1114 766.953 34.8705Z" fill="#AAAAAA"/>
<path d="M764.523 56.1298C765.191 55.3708 766.285 55.3708 766.953 56.1298C767.62 56.8888 768.713 58.1332 769.383 58.8923C770.052 59.6513 769.604 60.2747 768.393 60.2747H763.083C761.871 60.2747 761.425 59.6537 762.093 58.8923C762.761 58.1332 763.853 56.8888 764.523 56.1298Z" fill="#AAAAAA"/>
<path d="M794.754 48.5705C793.678 49.6567 792.361 50.1998 790.804 50.1998C789.246 50.1998 787.929 49.6567 786.853 48.5705C785.777 47.4842 785.239 46.1674 785.239 44.62C785.239 43.0624 785.777 41.7456 786.853 40.6696C787.929 39.5834 789.246 39.0403 790.804 39.0403C792.361 39.0403 793.678 39.5834 794.754 40.6696C795.84 41.7456 796.384 43.0624 796.384 44.62C796.384 46.1674 795.84 47.4842 794.754 48.5705ZM787.837 47.6021C788.636 48.4014 789.625 48.801 790.804 48.801C791.982 48.801 792.966 48.4014 793.755 47.6021C794.554 46.7925 794.954 45.7985 794.954 44.62C794.954 43.4313 794.554 42.4373 793.755 41.638C792.966 40.8285 791.982 40.4237 790.804 40.4237C789.625 40.4237 788.636 40.8285 787.837 41.638C787.048 42.4373 786.654 43.4313 786.654 44.62C786.654 45.7985 787.048 46.7925 787.837 47.6021ZM804.481 50L802.068 45.8805H799.532V50H798.102V39.2401H802.406C803.328 39.2401 804.117 39.568 804.773 40.2239C805.429 40.8694 805.757 41.6534 805.757 42.5757C805.757 43.2725 805.547 43.9078 805.127 44.4817C804.717 45.0556 804.184 45.4603 803.528 45.696L806.064 50H804.481ZM799.532 40.5774V44.5893H802.406C802.939 44.5893 803.39 44.3946 803.759 44.0052C804.138 43.6055 804.328 43.129 804.328 42.5757C804.328 42.0223 804.138 41.5509 803.759 41.1615C803.39 40.7721 802.939 40.5774 802.406 40.5774H799.532ZM807.499 39.2401H808.929V50H807.499V39.2401ZM812.666 48.6473H817.662V50H811.237V39.2401H817.585V40.5928H812.666V43.8976H817.201V45.2349H812.666V48.6473ZM826.074 39.2401H827.504V50H826.351L820.817 41.9608V50H819.388V39.2401H820.541L826.074 47.2639V39.2401ZM836.692 39.2401V40.5928H833.51V50H832.096V40.5928H828.929V39.2401H836.692ZM844.412 50L843.536 47.5867H838.694L837.818 50H836.296L840.308 39.2401H841.922L845.934 50H844.412ZM839.186 46.2494H843.044L841.107 40.9463L839.186 46.2494ZM848.633 48.6473H853.275V50H847.203V39.2401H848.633V48.6473ZM864.7 44.4202C865.192 44.6559 865.581 44.9941 865.868 45.4347C866.166 45.8754 866.314 46.3826 866.314 46.9565C866.314 47.8173 866.012 48.5397 865.407 49.1238C864.803 49.7079 864.065 50 863.194 50H858.552V39.2401H862.856C863.696 39.2401 864.408 39.5219 864.992 40.0855C865.576 40.6491 865.868 41.346 865.868 42.176C865.868 43.129 865.479 43.8771 864.7 44.4202ZM862.856 40.5774H859.981V43.8669H862.856C863.306 43.8669 863.686 43.708 863.993 43.3903C864.3 43.0727 864.454 42.6833 864.454 42.2221C864.454 41.7712 864.295 41.3869 863.978 41.0693C863.67 40.7414 863.296 40.5774 862.856 40.5774ZM863.194 48.6627C863.675 48.6627 864.08 48.4936 864.408 48.1554C864.736 47.8173 864.9 47.4022 864.9 46.9104C864.9 46.4287 864.731 46.0188 864.393 45.6807C864.065 45.3425 863.665 45.1734 863.194 45.1734H859.981V48.6627H863.194ZM874.743 49.1699C873.995 49.8565 873.027 50.1998 871.838 50.1998C870.649 50.1998 869.676 49.8565 868.917 49.1699C868.169 48.4731 867.795 47.5457 867.795 46.3877V39.2401H869.225V46.3263C869.225 47.0846 869.45 47.6892 869.901 48.1401C870.352 48.5807 870.998 48.801 871.838 48.801C872.678 48.801 873.324 48.5807 873.775 48.1401C874.225 47.6892 874.451 47.0846 874.451 46.3263V39.2401H875.865V46.3877C875.865 47.5457 875.491 48.4731 874.743 49.1699ZM878.051 39.2401H879.48V50H878.051V39.2401ZM883.218 48.6473H887.86V50H881.789V39.2401H883.218V48.6473ZM893.491 39.2401C894.956 39.2401 896.17 39.7627 897.134 40.808C898.107 41.843 898.594 43.1137 898.594 44.62C898.594 46.1264 898.107 47.4022 897.134 48.4475C896.17 49.4825 894.956 50 893.491 50H889.294V39.2401H893.491ZM893.491 48.6473C894.587 48.6473 895.484 48.263 896.181 47.4945C896.877 46.7259 897.226 45.7678 897.226 44.62C897.226 43.4723 896.877 42.5142 896.181 41.7456C895.484 40.977 894.587 40.5928 893.491 40.5928H890.724V48.6473H893.491ZM900.327 39.2401H901.757V50H900.327V39.2401ZM910.752 39.2401H912.181V50H911.028L905.495 41.9608V50H904.065V39.2401H905.218L910.752 47.2639V39.2401ZM924.858 44.6662V45.3118C924.858 46.7157 924.377 47.8839 923.413 48.8164C922.45 49.7387 921.174 50.1998 919.586 50.1998C917.946 50.1998 916.589 49.6618 915.513 48.5858C914.447 47.4996 913.914 46.1777 913.914 44.62C913.914 43.0624 914.447 41.7456 915.513 40.6696C916.589 39.5834 917.936 39.0403 919.555 39.0403C920.549 39.0403 921.461 39.2811 922.291 39.7627C923.121 40.2341 923.762 40.8592 924.213 41.638L922.983 42.3605C922.676 41.7764 922.209 41.3101 921.584 40.9617C920.969 40.603 920.288 40.4237 919.54 40.4237C918.31 40.4237 917.301 40.8285 916.512 41.638C915.723 42.4373 915.328 43.4313 915.328 44.62C915.328 45.8088 915.723 46.8028 916.512 47.6021C917.311 48.4014 918.341 48.801 919.601 48.801C920.677 48.801 921.548 48.5397 922.214 48.0171C922.881 47.4842 923.285 46.7976 923.429 45.9573H919.478V44.6662H924.858Z" fill="#D9D9D9"/>
<path fill-rule="evenodd" clip-rule="evenodd" d="M995.303 47.2809C995.303 47.2805 995.303 47.2801 995.304 47.2799L1011.54 29.064C1011.71 28.8745 1011.85 28.6638 1011.95 28.4401C1013.98 28.6286 1015.57 30.3398 1015.57 32.4229V58.5765C1015.57 60.7856 1013.78 62.5765 1011.57 62.5765H991.746L1001.95 52.5447L1010.66 58.6598C1011.56 59.2895 1012.76 59.0434 1013.38 58.1037C1013.93 57.2583 1013.83 56.1089 1013.15 55.3824L1001.95 43.5137V43.5143L985.717 61.7305C985.494 61.9803 985.329 62.2671 985.222 62.5716C983.105 62.4683 981.42 60.7191 981.42 58.5765V32.4229C981.42 30.2137 983.211 28.4229 985.42 28.4229H1005.3L995.303 38.2498L986.596 32.1347C985.699 31.5051 984.496 31.7512 983.881 32.6909C983.327 33.5363 983.423 34.6857 984.109 35.4121L995.303 47.2809Z" fill="#D9D9D9"/>
<rect y="-1" width="46" height="92" fill="url(#paint0_linear_43_19525)"/>
<rect width="46" height="92" transform="matrix(-1 0 0 1 1009 -1)" fill="url(#paint1_linear_43_19525)"/>
</g>
<defs>
<linearGradient id="paint0_linear_43_19525" x1="46" y1="45" x2="-1.37091e-06" y2="45" gradientUnits="userSpaceOnUse">
<stop stop-color="#191414" stop-opacity="0"/>
<stop offset="1" stop-color="#191414"/>
</linearGradient>
<linearGradient id="paint1_linear_43_19525" x1="46" y1="46" x2="-1.37091e-06" y2="46" gradientUnits="userSpaceOnUse">
<stop stop-color="#191414" stop-opacity="0"/>
<stop offset="1" stop-color="#191414"/>
</linearGradient>
<clipPath id="clip0_43_19525">
<rect width="1009" height="91" fill="white"/>
</clipPath>
<clipPath id="clip1_43_19525">
<rect width="128.762" height="40" fill="white" transform="translate(-66.0479 25.5)"/>
</clipPath>
<clipPath id="clip2_43_19525">
<rect width="143" height="43" fill="white" transform="translate(112.714 24)"/>
</clipPath>
<clipPath id="clip3_43_19525">
<rect width="32.1553" height="34.4999" fill="white" transform="translate(309.064 28.25)"/>
</clipPath>
</defs>
</svg>
