<svg width="1009" height="91" viewBox="0 0 1009 91" fill="none" xmlns="http://www.w3.org/2000/svg">
<g clip-path="url(#clip0_43_20740)">
<rect width="1009" height="91" fill="#191414"/>
<path d="M-10 0H1019" stroke="#191414" stroke-width="3"/>
<path d="M-10 91H1019" stroke="#191414" stroke-width="3"/>
<path d="M-25.6145 59.7113L5.93497 25.9316L11.4072 31.3413L-19.5281 65.492L-25.6145 59.7113Z" fill="#EEEEEE" stroke="#CFCFCF" stroke-width="0.211553" stroke-miterlimit="10"/>
<path d="M6.0812 28.0484L9.71429 31.416L-19.781 63.2342L-23.6316 59.9941L6.0812 28.0484ZM5.97086 25.085L-26.6711 60.179L-19.6023 66.1262L12.6777 31.3025L5.97086 25.085Z" fill="#D9D9D9"/>
<path d="M6.24998 27.5687L10.251 31.3902L-0.970711 43.576L-2.6852 45.438L-0.783142 47.1096L11.3004 57.7353L7.96602 61.546L-4.59966 50.6587L-6.43661 49.0676L-8.06584 50.8708L-19.4518 63.4652L-23.5133 59.7583L-12.2265 47.8743L-10.5012 46.0571L-12.3397 44.3546L-24.8449 32.7693L-21.4206 29.1382L-9.25482 40.7637L-7.42097 42.5173L-5.70803 40.646L6.25153 27.5703M6.13062 24.0273L-7.54033 38.9744L-21.512 25.6216L-28.3638 32.8854L-14.0262 46.1686L-27.0508 59.8821L-19.2829 66.9725L-6.22424 52.5285L8.20785 65.0347L14.793 57.5078L0.855389 45.2507L13.7234 31.2772L6.13062 24.0273Z" fill="#D9D9D9"/>
<path d="M17.3312 37.3553C18.1491 37.3553 18.8121 36.6923 18.8121 35.8744C18.8121 35.0566 18.1491 34.3936 17.3312 34.3936C16.5133 34.3936 15.8503 35.0566 15.8503 35.8744C15.8503 36.6923 16.5133 37.3553 17.3312 37.3553Z" fill="#ABABAB"/>
<path d="M18.6007 53.6453C19.4186 53.6453 20.0816 52.9823 20.0816 52.1645C20.0816 51.3466 19.4186 50.6836 18.6007 50.6836C17.7829 50.6836 17.1199 51.3466 17.1199 52.1645C17.1199 52.9823 17.7829 53.6453 18.6007 53.6453Z" fill="#ABABAB"/>
<path d="M13.1004 51.9525C13.5677 51.9525 13.9466 51.621 13.9466 51.2121C13.9466 50.8032 13.5677 50.4717 13.1004 50.4717C12.633 50.4717 12.2542 50.8032 12.2542 51.2121C12.2542 51.621 12.633 51.9525 13.1004 51.9525Z" fill="#D9D9D9"/>
<path d="M23.2548 51.9528C23.839 51.9528 24.3125 51.5266 24.3125 51.0008C24.3125 50.475 23.839 50.0488 23.2548 50.0488C22.6706 50.0488 22.197 50.475 22.197 51.0008C22.197 51.5266 22.6706 51.9528 23.2548 51.9528Z" fill="#D9D9D9"/>
<path d="M19.6588 61.8948C20.243 61.8948 20.7166 61.4212 20.7166 60.8371C20.7166 60.2529 20.243 59.7793 19.6588 59.7793C19.0747 59.7793 18.6011 60.2529 18.6011 60.8371C18.6011 61.4212 19.0747 61.8948 19.6588 61.8948Z" fill="#D9D9D9"/>
<path d="M22.6197 36.9322C23.3207 36.9322 23.889 36.3639 23.889 35.6629C23.889 34.9618 23.3207 34.3936 22.6197 34.3936C21.9186 34.3936 21.3503 34.9618 21.3503 35.6629C21.3503 36.3639 21.9186 36.9322 22.6197 36.9322Z" fill="#D9D9D9"/>
<path d="M8.79954 39.2064L8.71274 41.0958C8.70972 41.1615 8.76058 41.2173 8.82634 41.2203L26.443 42.0295C26.5088 42.0325 26.5646 41.9816 26.5676 41.9159L26.6544 40.0265C26.6574 39.9607 26.6065 39.905 26.5408 39.9019L8.92407 39.0928C8.85831 39.0898 8.80256 39.1406 8.79954 39.2064Z" fill="#ABABAB"/>
<path d="M5.55165 43.3714L5.47877 44.9578C5.47513 45.0372 5.53655 45.1045 5.61597 45.1082L17.8006 45.6678C17.88 45.6715 17.9474 45.6101 17.951 45.5306L18.0239 43.9443C18.0275 43.8649 17.9661 43.7975 17.8867 43.7939L5.70206 43.2342C5.62264 43.2306 5.5553 43.292 5.55165 43.3714Z" fill="#D9D9D9"/>
<path d="M20.4116 42.8579L20.3272 44.6947C20.3234 44.7776 20.3875 44.8478 20.4703 44.8516L28.245 45.2087C28.3278 45.2125 28.398 45.1485 28.4018 45.0656L28.4862 43.2288C28.49 43.1459 28.426 43.0757 28.3431 43.0719L20.5685 42.7148C20.4856 42.711 20.4154 42.7751 20.4116 42.8579Z" fill="#ABABAB"/>
<path d="M9.51189 47.207L9.43553 48.8691C9.43271 48.9306 9.48027 48.9828 9.54175 48.9856L16.1382 49.2886C16.1996 49.2914 16.2518 49.2438 16.2546 49.1824L16.331 47.5202C16.3338 47.4587 16.2862 47.4066 16.2247 47.4038L9.62833 47.1008C9.56685 47.098 9.51471 47.1455 9.51189 47.207Z" fill="#ABABAB"/>
<path d="M17.9154 46.28L17.824 48.2715C17.8202 48.3535 17.8836 48.423 17.9656 48.4267L27.0901 48.8458C27.1721 48.8496 27.2416 48.7862 27.2454 48.7042L27.3369 46.7128C27.3407 46.6308 27.2773 46.5613 27.1953 46.5575L18.0707 46.1384C17.9887 46.1346 17.9192 46.1981 17.9154 46.28Z" fill="#ABABAB"/>
<path d="M47.3306 32.6108C47.0002 32.2076 46.5944 31.9006 46.113 31.6847C45.6317 31.4687 45.075 31.3621 44.4428 31.3621C43.8105 31.3621 43.2252 31.4843 42.6866 31.7289C42.1481 31.9734 41.6798 32.3142 41.2843 32.7539C40.8888 33.1935 40.5792 33.7138 40.3581 34.3174C40.1344 34.9209 40.0251 35.5739 40.0251 36.2789C40.0251 36.9839 40.137 37.6551 40.3581 38.2509C40.5818 38.8466 40.8862 39.3643 41.2739 39.8014C41.6615 40.241 42.1168 40.5818 42.6424 40.8264C43.1679 41.0709 43.7299 41.1932 44.3335 41.1932C45.0229 41.1932 45.6343 41.0501 46.1651 40.7613C46.6958 40.4752 47.1355 40.0719 47.4789 39.5542L50.281 41.6459C49.6331 42.5512 48.8162 43.2198 47.825 43.6516C46.8337 44.0835 45.8138 44.2994 44.7654 44.2994C43.5712 44.2994 42.4733 44.1121 41.4664 43.7401C40.4596 43.3654 39.5906 42.8321 38.8595 42.1349C38.1258 41.4377 37.5561 40.5948 37.145 39.6011C36.7365 38.6099 36.531 37.5042 36.531 36.2815C36.531 35.0588 36.7365 33.9532 37.145 32.962C37.5535 31.9708 38.1258 31.1253 38.8595 30.4281C39.5932 29.7309 40.4622 29.195 41.4664 28.823C42.4733 28.4484 43.5712 28.2637 44.7654 28.2637C45.1972 28.2637 45.6447 28.3027 46.113 28.3833C46.5787 28.4614 47.0392 28.5889 47.4919 28.7606C47.9446 28.9323 48.3791 29.1638 48.7954 29.45C49.2117 29.7387 49.5863 30.0899 49.9167 30.5062L47.3306 32.6186V32.6108Z" fill="#D9D9D9"/>
<path d="M52.3308 28.6465H58.2367C59.012 28.6465 59.7482 28.7219 60.4455 28.8728C61.1427 29.0237 61.7541 29.276 62.2771 29.6273C62.8026 29.9785 63.2189 30.4545 63.5285 31.0503C63.8381 31.646 63.9916 32.3901 63.9916 33.2824C63.9916 34.3594 63.7106 35.2751 63.1513 36.0296C62.5919 36.784 61.7724 37.2627 60.6953 37.463L64.5744 43.907H60.5444L57.3547 37.8064H55.6948V43.907H52.3334V28.6465H52.3308ZM55.6922 34.9604H57.6747C57.9765 34.9604 58.2965 34.9499 58.6347 34.9291C58.9729 34.9083 59.2773 34.8433 59.5505 34.734C59.8237 34.6274 60.05 34.4583 60.2296 34.2267C60.4091 33.9978 60.5001 33.6752 60.5001 33.2564C60.5001 32.8687 60.4221 32.5592 60.2634 32.3302C60.1047 32.1013 59.9043 31.9244 59.6598 31.8021C59.4152 31.6798 59.1342 31.5966 58.8194 31.555C58.502 31.5107 58.195 31.4899 57.8932 31.4899H55.6948V34.9604H55.6922Z" fill="#D9D9D9"/>
<path d="M65.6958 36.2767C65.6958 35.0565 65.9013 33.9483 66.3098 32.9571C66.7183 31.9659 67.2906 31.1205 68.0243 30.4232C68.758 29.726 69.627 29.1901 70.6312 28.8181C71.6381 28.4435 72.736 28.2588 73.9302 28.2588C75.1243 28.2588 76.2222 28.4461 77.2291 28.8181C78.236 29.1927 79.1049 29.726 79.836 30.4232C80.5697 31.1205 81.1394 31.9633 81.5505 32.9571C81.9616 33.9509 82.1645 35.0539 82.1645 36.2767C82.1645 37.4994 81.959 38.605 81.5505 39.5962C81.1421 40.5874 80.5697 41.4328 79.836 42.1301C79.1023 42.8273 78.2334 43.3632 77.2291 43.7352C76.2222 44.1098 75.1243 44.2945 73.9302 44.2945C72.736 44.2945 71.6381 44.1072 70.6312 43.7352C69.6244 43.3606 68.7554 42.8273 68.0243 42.1301C67.2906 41.4328 66.7209 40.59 66.3098 39.5962C65.9013 38.605 65.6958 37.4994 65.6958 36.2767ZM69.1873 36.2767C69.1873 36.9947 69.2991 37.6529 69.5203 38.2486C69.744 38.8443 70.0614 39.362 70.4803 39.7991C70.8966 40.2388 71.3961 40.5796 71.9789 40.8241C72.5617 41.0686 73.2121 41.1909 73.9302 41.1909C74.6482 41.1909 75.2986 41.0686 75.8814 40.8241C76.4642 40.5796 76.9637 40.2388 77.38 39.7991C77.7963 39.362 78.1163 38.8443 78.34 38.2486C78.5638 37.6529 78.673 36.9947 78.673 36.2767C78.673 35.5586 78.5612 34.9187 78.34 34.3151C78.1163 33.7116 77.7963 33.1913 77.38 32.7516C76.9637 32.3146 76.4642 31.9712 75.8814 31.7266C75.2986 31.4821 74.6482 31.3598 73.9302 31.3598C73.2121 31.3598 72.5617 31.4821 71.9789 31.7266C71.3961 31.9712 70.8966 32.3119 70.4803 32.7516C70.064 33.1913 69.744 33.7116 69.5203 34.3151C69.2965 34.9187 69.1873 35.5716 69.1873 36.2767Z" fill="#D9D9D9"/>
<path d="M92.2072 32.3741C91.9341 32.0281 91.5646 31.7731 91.0963 31.6092C90.628 31.4453 90.1883 31.3621 89.7694 31.3621C89.5249 31.3621 89.2725 31.3907 89.015 31.4479C88.7574 31.5052 88.5128 31.5962 88.2813 31.7185C88.0523 31.8408 87.865 32.002 87.7219 32.2024C87.5788 32.4027 87.506 32.6472 87.506 32.936C87.506 33.3965 87.6777 33.7477 88.0237 33.9922C88.3697 34.2367 88.8042 34.4449 89.3272 34.6166C89.8527 34.7883 90.4147 34.9626 91.0183 35.1343C91.6218 35.306 92.1864 35.5505 92.7094 35.8679C93.2349 36.1853 93.6694 36.6093 94.0128 37.14C94.3588 37.6707 94.5305 38.3836 94.5305 39.2733C94.5305 40.163 94.3718 40.8602 94.057 41.4924C93.7396 42.1245 93.313 42.65 92.7744 43.0663C92.2358 43.4825 91.6114 43.7921 90.8986 43.9924C90.1883 44.1927 89.4364 44.2942 88.6455 44.2942C87.6543 44.2942 86.7333 44.1433 85.8877 43.8415C85.0396 43.5398 84.2487 43.0507 83.5176 42.3769L85.9111 39.7467C86.2572 40.2072 86.6916 40.5636 87.2146 40.8134C87.7401 41.0657 88.2813 41.1906 88.8406 41.1906C89.1138 41.1906 89.3896 41.1594 89.6706 41.0943C89.9516 41.0293 90.2013 40.933 90.4251 40.803C90.6488 40.6729 90.8283 40.509 90.9636 40.3061C91.0989 40.1057 91.1692 39.869 91.1692 39.5959C91.1692 39.1354 90.9922 38.7738 90.641 38.5084C90.2898 38.2431 89.8475 38.0167 89.3142 37.8294C88.7834 37.6421 88.2084 37.4548 87.5892 37.2701C86.97 37.0828 86.395 36.8331 85.8643 36.5157C85.3336 36.2009 84.8913 35.782 84.5374 35.2669C84.1862 34.7492 84.0093 34.0676 84.0093 33.2195C84.0093 32.3715 84.1706 31.6821 84.4932 31.0629C84.8158 30.4463 85.2477 29.9286 85.7863 29.5124C86.3248 29.0962 86.9466 28.784 87.6517 28.5758C88.3567 28.3677 89.0826 28.2637 89.8293 28.2637C90.6904 28.2637 91.5256 28.3859 92.3295 28.6305C93.1334 28.875 93.8593 29.2835 94.5071 29.8584L92.1994 32.3793L92.2072 32.3741Z" fill="#D9D9D9"/>
<path d="M104.794 32.3741C104.521 32.0281 104.152 31.7731 103.683 31.6092C103.215 31.4453 102.775 31.3621 102.357 31.3621C102.112 31.3621 101.86 31.3907 101.602 31.4479C101.344 31.5052 101.1 31.5962 100.868 31.7185C100.639 31.8408 100.452 32.002 100.309 32.2024C100.166 32.4027 100.093 32.6472 100.093 32.936C100.093 33.3965 100.265 33.7477 100.611 33.9922C100.957 34.2367 101.391 34.4449 101.914 34.6166C102.44 34.7883 103.002 34.9626 103.605 35.1343C104.209 35.306 104.773 35.5505 105.296 35.8679C105.822 36.1853 106.256 36.6093 106.6 37.14C106.946 37.6707 107.118 38.3836 107.118 39.2733C107.118 40.163 106.959 40.8602 106.644 41.4924C106.327 42.1245 105.9 42.65 105.361 43.0663C104.823 43.4825 104.199 43.7921 103.486 43.9924C102.775 44.1927 102.024 44.2942 101.233 44.2942C100.241 44.2942 99.3203 44.1433 98.4722 43.8415C97.624 43.5398 96.8331 43.0507 96.1021 42.3769L98.4956 39.7467C98.8416 40.2072 99.2761 40.5636 99.7991 40.8134C100.325 41.0657 100.866 41.1906 101.425 41.1906C101.698 41.1906 101.974 41.1594 102.255 41.0943C102.536 41.0293 102.786 40.933 103.01 40.803C103.233 40.6729 103.413 40.509 103.548 40.3061C103.683 40.1057 103.754 39.869 103.754 39.5959C103.754 39.1354 103.577 38.7738 103.225 38.5084C102.874 38.2431 102.432 38.0167 101.901 37.8294C101.37 37.6421 100.796 37.4548 100.176 37.2701C99.5571 37.0854 98.9847 36.8331 98.4514 36.5157C97.9206 36.2009 97.4783 35.782 97.1271 35.2669C96.7759 34.7492 96.599 34.0676 96.599 33.2195C96.599 32.3715 96.7603 31.6821 97.0829 31.0629C97.4055 30.4463 97.8374 29.9286 98.3759 29.5124C98.9145 29.0962 99.5363 28.784 100.241 28.5758C100.946 28.3677 101.672 28.2637 102.419 28.2637C103.28 28.2637 104.115 28.3859 104.919 28.6305C105.723 28.875 106.449 29.2835 107.097 29.8584L104.789 32.3793L104.794 32.3741Z" fill="#D9D9D9"/>
<path d="M109.02 36.2767C109.02 35.0565 109.225 33.9483 109.634 32.9571C110.042 31.9659 110.614 31.1205 111.348 30.4232C112.082 29.726 112.951 29.1901 113.958 28.8181C114.964 28.4435 116.062 28.2588 117.256 28.2588C118.451 28.2588 119.549 28.4461 120.555 28.8181C121.562 29.1927 122.431 29.726 123.165 30.4232C123.899 31.1205 124.468 31.9633 124.879 32.9571C125.291 33.9509 125.493 35.0539 125.493 36.2767C125.493 37.4994 125.288 38.605 124.879 39.5962C124.471 40.5874 123.899 41.4328 123.165 42.1301C122.431 42.8273 121.562 43.3632 120.555 43.7352C119.549 44.1098 118.451 44.2945 117.256 44.2945C116.062 44.2945 114.964 44.1072 113.958 43.7352C112.951 43.3606 112.082 42.8273 111.348 42.1301C110.614 41.4328 110.045 40.59 109.634 39.5962C109.225 38.605 109.02 37.4994 109.02 36.2767ZM112.511 36.2767C112.511 36.9947 112.623 37.6529 112.844 38.2486C113.068 38.8443 113.385 39.362 113.804 39.7991C114.22 40.2388 114.72 40.5796 115.303 40.8241C115.885 41.0686 116.536 41.1909 117.254 41.1909C117.972 41.1909 118.622 41.0686 119.205 40.8241C119.788 40.5796 120.287 40.2388 120.704 39.7991C121.12 39.362 121.44 38.8443 121.664 38.2486C121.888 37.6529 121.997 36.9947 121.997 36.2767C121.997 35.5586 121.885 34.9187 121.664 34.3151C121.44 33.7116 121.123 33.1913 120.704 32.7516C120.287 32.3146 119.788 31.9712 119.205 31.7266C118.622 31.4821 117.972 31.3598 117.254 31.3598C116.536 31.3598 115.885 31.4821 115.303 31.7266C114.72 31.9712 114.22 32.3119 113.804 32.7516C113.388 33.1913 113.068 33.7116 112.844 34.3151C112.62 34.9187 112.511 35.5716 112.511 36.2767Z" fill="#D9D9D9"/>
<path d="M126.479 28.6465H130.317L134.089 38.6467H134.133L137.971 28.6465H141.572L135.278 43.907H132.583L126.482 28.6465H126.479Z" fill="#D9D9D9"/>
<path d="M143.508 28.6465H153.876V31.7501H146.869V34.5961H153.488V37.6997H146.869V40.8033H154.263V43.907H143.508V28.6465Z" fill="#D9D9D9"/>
<path d="M157.174 28.6465H163.08C163.855 28.6465 164.592 28.7219 165.289 28.8728C165.986 29.0237 166.598 29.276 167.121 29.6273C167.646 29.9785 168.062 30.4545 168.372 31.0503C168.682 31.646 168.835 32.3901 168.835 33.2824C168.835 34.3594 168.554 35.2751 167.995 36.0296C167.435 36.784 166.616 37.2627 165.539 37.463L169.418 43.907H165.388L162.198 37.8064H160.538V43.907H157.177V28.6465H157.174ZM160.536 34.9604H162.518C162.82 34.9604 163.14 34.9499 163.478 34.9291C163.816 34.9083 164.121 34.8433 164.394 34.734C164.667 34.6274 164.894 34.4583 165.073 34.2267C165.253 33.9978 165.344 33.6752 165.344 33.2564C165.344 32.8687 165.266 32.5592 165.107 32.3302C164.948 32.1013 164.748 31.9244 164.503 31.8021C164.259 31.6798 163.978 31.5966 163.663 31.555C163.346 31.5107 163.039 31.4899 162.737 31.4899H160.538V34.9604H160.536Z" fill="#D9D9D9"/>
<path d="M37.4436 50.6411H40.1938C40.5867 50.6411 40.9642 50.6796 41.3262 50.7566C41.696 50.8337 42.0196 50.9646 42.2969 51.1495C42.5742 51.3267 42.7938 51.5693 42.9555 51.8775C43.125 52.1779 43.2098 52.5554 43.2098 53.0099C43.2098 53.5261 43.1212 53.9421 42.944 54.2579C42.7668 54.5737 42.528 54.8203 42.2276 54.9974C41.9271 55.1669 41.5766 55.2825 41.176 55.3441C40.7831 55.4057 40.371 55.4365 39.9396 55.4365H38.8996V58.8223H37.4436V50.6411ZM39.7778 54.1886C39.9858 54.1886 40.2015 54.1809 40.4249 54.1655C40.6483 54.15 40.8525 54.1038 41.0374 54.0268C41.2299 53.9498 41.384 53.8342 41.4996 53.6801C41.6228 53.5261 41.6845 53.3104 41.6845 53.033C41.6845 52.7788 41.6305 52.5785 41.5227 52.4321C41.4148 52.2781 41.2762 52.1625 41.1067 52.0855C40.9372 52.0007 40.7485 51.9468 40.5405 51.9237C40.3325 51.9006 40.1322 51.889 39.9396 51.889H38.8996V54.1886H39.7778ZM46.8188 50.6411H49.6614C50.0543 50.6411 50.4318 50.6796 50.7939 50.7566C51.1636 50.826 51.491 50.9492 51.7761 51.1264C52.0611 51.3036 52.2884 51.5424 52.4578 51.8428C52.6273 52.1433 52.7121 52.5246 52.7121 52.9868C52.7121 53.58 52.5464 54.0769 52.2152 54.4774C51.8916 54.878 51.4256 55.1207 50.817 55.2054L52.9894 58.8223H51.233L49.3379 55.3557H48.2748V58.8223H46.8188V50.6411ZM49.4072 54.1077C49.6152 54.1077 49.8232 54.1 50.0312 54.0846C50.2392 54.0615 50.428 54.0152 50.5974 53.9459C50.7746 53.8689 50.9171 53.7572 51.025 53.6108C51.1328 53.4567 51.1868 53.2449 51.1868 52.9753C51.1868 52.7364 51.1367 52.5439 51.0365 52.3975C50.9364 52.2511 50.8054 52.1433 50.6437 52.0739C50.4819 51.9969 50.3008 51.9468 50.1005 51.9237C49.908 51.9006 49.7192 51.889 49.5343 51.889H48.2748V54.1077H49.4072ZM55.9693 54.7663C55.9693 54.1115 56.0772 53.5184 56.2929 52.9868C56.5086 52.4476 56.8052 51.9892 57.1826 51.6117C57.5678 51.2342 58.0223 50.9454 58.5462 50.7451C59.0777 50.5371 59.6593 50.4331 60.291 50.4331C60.9304 50.4254 61.5159 50.5217 62.0474 50.722C62.579 50.9145 63.0374 51.1996 63.4225 51.5771C63.8077 51.9545 64.1081 52.409 64.3238 52.9406C64.5395 53.4721 64.6474 54.0653 64.6474 54.7201C64.6474 55.3595 64.5395 55.9411 64.3238 56.465C64.1081 56.9888 63.8077 57.4395 63.4225 57.8169C63.0374 58.1944 62.579 58.491 62.0474 58.7067C61.5159 58.9147 60.9304 59.0226 60.291 59.0303C59.6593 59.0303 59.0777 58.9301 58.5462 58.7298C58.0223 58.5218 57.5678 58.2329 57.1826 57.8632C56.8052 57.4857 56.5086 57.035 56.2929 56.5112C56.0772 55.9873 55.9693 55.4057 55.9693 54.7663ZM57.4946 54.6739C57.4946 55.113 57.5601 55.5174 57.6911 55.8872C57.8297 56.257 58.0223 56.5767 58.2688 56.8463C58.5154 57.1159 58.8081 57.3278 59.147 57.4818C59.4937 57.6359 59.8789 57.713 60.3026 57.713C60.7263 57.713 61.1115 57.6359 61.4581 57.4818C61.8048 57.3278 62.1014 57.1159 62.3479 56.8463C62.5944 56.5767 62.7831 56.257 62.9141 55.8872C63.0528 55.5174 63.1221 55.113 63.1221 54.6739C63.1221 54.2656 63.0528 53.8843 62.9141 53.5299C62.7831 53.1755 62.5944 52.8674 62.3479 52.6055C62.1014 52.3359 61.8048 52.1279 61.4581 51.9815C61.1115 51.8274 60.7263 51.7504 60.3026 51.7504C59.8789 51.7504 59.4937 51.8274 59.147 51.9815C58.8081 52.1279 58.5154 52.3359 58.2688 52.6055C58.0223 52.8674 57.8297 53.1755 57.6911 53.5299C57.5601 53.8843 57.4946 54.2656 57.4946 54.6739ZM68.3105 50.6411H69.7665V58.8223H68.3105V50.6411ZM73.8724 50.6411H75.8021L79.7656 56.7192H79.7887V50.6411H81.2447V58.8223H79.3958L75.3515 52.5477H75.3283V58.8223H73.8724V50.6411ZM89.39 52.3975C89.236 52.1741 89.028 52.0123 88.7661 51.9122C88.5118 51.8043 88.2422 51.7504 87.9572 51.7504C87.7877 51.7504 87.6221 51.7696 87.4603 51.8082C87.3062 51.8467 87.1637 51.9083 87.0328 51.993C86.9095 52.0778 86.8093 52.1895 86.7323 52.3282C86.6553 52.4591 86.6168 52.617 86.6168 52.8019C86.6168 53.0793 86.7131 53.2911 86.9056 53.4375C87.0982 53.5838 87.337 53.7109 87.6221 53.8188C87.9071 53.9266 88.2191 54.0306 88.5581 54.1308C88.897 54.2309 89.209 54.3696 89.494 54.5468C89.7791 54.724 90.0179 54.9589 90.2105 55.2517C90.4031 55.5444 90.4994 55.9334 90.4994 56.4188C90.4994 56.8579 90.4185 57.243 90.2567 57.5743C90.0949 57.8978 89.8754 58.1675 89.598 58.3832C89.3284 58.5989 89.0126 58.7606 88.6505 58.8685C88.2884 58.9763 87.9071 59.0303 87.5065 59.0303C86.9981 59.0303 86.5089 58.9455 86.039 58.776C85.5691 58.6066 85.1646 58.3215 84.8257 57.9209L85.9234 56.8579C86.1006 57.1275 86.3317 57.3393 86.6168 57.4934C86.9095 57.6398 87.2176 57.713 87.5412 57.713C87.7107 57.713 87.8801 57.6898 88.0496 57.6436C88.2191 57.5974 88.3732 57.5281 88.5118 57.4356C88.6505 57.3432 88.7622 57.2276 88.8469 57.089C88.9317 56.9426 88.9741 56.777 88.9741 56.5921C88.9741 56.2916 88.8778 56.0605 88.6852 55.8988C88.4926 55.737 88.2538 55.6022 87.9687 55.4943C87.6837 55.3788 87.3717 55.2709 87.0328 55.1708C86.6938 55.0706 86.3818 54.9358 86.0968 54.7663C85.8117 54.5892 85.5729 54.358 85.3803 54.073C85.1877 53.7803 85.0915 53.3912 85.0915 52.9059C85.0915 52.4822 85.1762 52.1163 85.3457 51.8082C85.5229 51.5 85.7501 51.2458 86.0274 51.0455C86.3125 50.8375 86.636 50.6834 86.9981 50.5833C87.3602 50.4831 87.7299 50.4331 88.1074 50.4331C88.5388 50.4331 88.9548 50.4986 89.3554 50.6295C89.7637 50.7605 90.1296 50.9762 90.4531 51.2766L89.39 52.3975ZM94.3267 50.6411H97.0769C97.4698 50.6411 97.8472 50.6796 98.2093 50.7566C98.5791 50.8337 98.9026 50.9646 99.18 51.1495C99.4573 51.3267 99.6768 51.5693 99.8386 51.8775C100.008 52.1779 100.093 52.5554 100.093 53.0099C100.093 53.5261 100.004 53.9421 99.8271 54.2579C99.6499 54.5737 99.4111 54.8203 99.1106 54.9974C98.8102 55.1669 98.4597 55.2825 98.0591 55.3441C97.6662 55.4057 97.2541 55.4365 96.8227 55.4365H95.7827V58.8223H94.3267V50.6411ZM96.6609 54.1886C96.8689 54.1886 97.0846 54.1809 97.308 54.1655C97.5314 54.15 97.7355 54.1038 97.9204 54.0268C98.113 53.9498 98.2671 53.8342 98.3826 53.6801C98.5059 53.5261 98.5675 53.3104 98.5675 53.033C98.5675 52.7788 98.5136 52.5785 98.4058 52.4321C98.2979 52.2781 98.1592 52.1625 97.9898 52.0855C97.8203 52.0007 97.6315 51.9468 97.4236 51.9237C97.2156 51.9006 97.0153 51.889 96.8227 51.889H95.7827V54.1886H96.6609ZM103.702 50.6411H109.121V51.9584H105.158V53.969H108.913V55.2863H105.158V57.505H109.329V58.8223H103.702V50.6411ZM118.693 52.5593C118.393 52.2357 118.1 52.02 117.815 51.9122C117.537 51.8043 117.256 51.7504 116.971 51.7504C116.548 51.7504 116.162 51.8274 115.816 51.9815C115.477 52.1279 115.184 52.3359 114.938 52.6055C114.691 52.8674 114.498 53.1755 114.36 53.5299C114.229 53.8843 114.163 54.2656 114.163 54.6739C114.163 55.113 114.229 55.5174 114.36 55.8872C114.498 56.257 114.691 56.5767 114.938 56.8463C115.184 57.1159 115.477 57.3278 115.816 57.4818C116.162 57.6359 116.548 57.713 116.971 57.713C117.303 57.713 117.622 57.6359 117.93 57.4818C118.246 57.3201 118.539 57.0659 118.809 56.7192L120.01 57.5743C119.641 58.0827 119.19 58.4525 118.658 58.6836C118.127 58.9147 117.561 59.0303 116.96 59.0303C116.328 59.0303 115.746 58.9301 115.215 58.7298C114.691 58.5218 114.236 58.2329 113.851 57.8632C113.474 57.4857 113.177 57.035 112.962 56.5112C112.746 55.9873 112.638 55.4057 112.638 54.7663C112.638 54.1115 112.746 53.5184 112.962 52.9868C113.177 52.4476 113.474 51.9892 113.851 51.6117C114.236 51.2342 114.691 50.9454 115.215 50.7451C115.746 50.5371 116.328 50.4331 116.96 50.4331C117.514 50.4331 118.027 50.5332 118.497 50.7335C118.974 50.9261 119.417 51.2574 119.825 51.7273L118.693 52.5593ZM124.974 51.9584H122.467V50.6411H128.938V51.9584H126.43V58.8223H124.974V51.9584Z" fill="#D9D9D9"/>
<path d="M235.864 44.5016L241.737 37.8251L237.338 32.8237C236.906 32.3335 236.209 32.3335 235.778 32.8237L225.506 44.5016C225.075 44.9918 225.075 45.7841 225.506 46.2743L235.778 57.9522C236.209 58.4424 236.906 58.4424 237.338 57.9522L241.737 52.9508L235.864 46.2743C235.433 45.7841 235.433 44.9918 235.864 44.5016Z" fill="#D9D9D9"/>
<path d="M257.967 44.5016L247.695 32.8237C247.264 32.3335 246.567 32.3335 246.136 32.8237L241.737 37.8251L247.609 44.5016C248.041 44.9918 248.041 45.7841 247.609 46.2743L241.737 52.9508L246.136 57.9522C246.567 58.4424 247.264 58.4424 247.695 57.9522L257.967 46.2743C258.398 45.7841 258.398 44.9918 257.967 44.5016Z" fill="#D9D9D9"/>
<path d="M242.953 34.8705C242.286 35.6295 241.193 35.6295 240.523 34.8705C239.856 34.1114 238.763 32.867 238.093 32.108C237.426 31.349 237.87 30.7256 239.083 30.7256H244.393C245.605 30.7256 246.051 31.3466 245.383 32.108C244.715 32.8694 243.623 34.1114 242.953 34.8705Z" fill="#AAAAAA"/>
<path d="M240.523 56.1298C241.191 55.3708 242.285 55.3708 242.953 56.1298C243.62 56.8888 244.713 58.1332 245.383 58.8923C246.052 59.6513 245.604 60.2747 244.393 60.2747H239.083C237.871 60.2747 237.425 59.6537 238.093 58.8923C238.761 58.1332 239.853 56.8888 240.523 56.1298Z" fill="#AAAAAA"/>
<path d="M270.754 48.5705C269.678 49.6567 268.361 50.1998 266.804 50.1998C265.246 50.1998 263.929 49.6567 262.853 48.5705C261.777 47.4842 261.239 46.1674 261.239 44.62C261.239 43.0624 261.777 41.7456 262.853 40.6696C263.929 39.5834 265.246 39.0403 266.804 39.0403C268.361 39.0403 269.678 39.5834 270.754 40.6696C271.84 41.7456 272.384 43.0624 272.384 44.62C272.384 46.1674 271.84 47.4842 270.754 48.5705ZM263.837 47.6021C264.636 48.4014 265.625 48.801 266.804 48.801C267.982 48.801 268.966 48.4014 269.755 47.6021C270.554 46.7925 270.954 45.7985 270.954 44.62C270.954 43.4313 270.554 42.4373 269.755 41.638C268.966 40.8285 267.982 40.4237 266.804 40.4237C265.625 40.4237 264.636 40.8285 263.837 41.638C263.048 42.4373 262.654 43.4313 262.654 44.62C262.654 45.7985 263.048 46.7925 263.837 47.6021ZM280.481 50L278.068 45.8805H275.532V50H274.102V39.2401H278.406C279.328 39.2401 280.117 39.568 280.773 40.2239C281.429 40.8694 281.757 41.6534 281.757 42.5757C281.757 43.2725 281.547 43.9078 281.127 44.4817C280.717 45.0556 280.184 45.4603 279.528 45.696L282.064 50H280.481ZM275.532 40.5774V44.5893H278.406C278.939 44.5893 279.39 44.3946 279.759 44.0052C280.138 43.6055 280.328 43.129 280.328 42.5757C280.328 42.0223 280.138 41.5509 279.759 41.1615C279.39 40.7721 278.939 40.5774 278.406 40.5774H275.532ZM283.499 39.2401H284.929V50H283.499V39.2401ZM288.666 48.6473H293.662V50H287.237V39.2401H293.585V40.5928H288.666V43.8976H293.201V45.2349H288.666V48.6473ZM302.074 39.2401H303.504V50H302.351L296.817 41.9608V50H295.388V39.2401H296.541L302.074 47.2639V39.2401ZM312.692 39.2401V40.5928H309.51V50H308.096V40.5928H304.929V39.2401H312.692ZM320.412 50L319.536 47.5867H314.694L313.818 50H312.296L316.308 39.2401H317.922L321.934 50H320.412ZM315.186 46.2494H319.044L317.107 40.9463L315.186 46.2494ZM324.633 48.6473H329.275V50H323.203V39.2401H324.633V48.6473ZM340.7 44.4202C341.192 44.6559 341.581 44.9941 341.868 45.4347C342.166 45.8754 342.314 46.3826 342.314 46.9565C342.314 47.8173 342.012 48.5397 341.407 49.1238C340.803 49.7079 340.065 50 339.194 50H334.552V39.2401H338.856C339.696 39.2401 340.408 39.5219 340.992 40.0855C341.576 40.6491 341.868 41.346 341.868 42.176C341.868 43.129 341.479 43.8771 340.7 44.4202ZM338.856 40.5774H335.981V43.8669H338.856C339.306 43.8669 339.686 43.708 339.993 43.3903C340.3 43.0727 340.454 42.6833 340.454 42.2221C340.454 41.7712 340.295 41.3869 339.978 41.0693C339.67 40.7414 339.296 40.5774 338.856 40.5774ZM339.194 48.6627C339.675 48.6627 340.08 48.4936 340.408 48.1554C340.736 47.8173 340.9 47.4022 340.9 46.9104C340.9 46.4287 340.731 46.0188 340.393 45.6807C340.065 45.3425 339.665 45.1734 339.194 45.1734H335.981V48.6627H339.194ZM350.743 49.1699C349.995 49.8565 349.027 50.1998 347.838 50.1998C346.649 50.1998 345.676 49.8565 344.917 49.1699C344.169 48.4731 343.795 47.5457 343.795 46.3877V39.2401H345.225V46.3263C345.225 47.0846 345.45 47.6892 345.901 48.1401C346.352 48.5807 346.998 48.801 347.838 48.801C348.678 48.801 349.324 48.5807 349.775 48.1401C350.225 47.6892 350.451 47.0846 350.451 46.3263V39.2401H351.865V46.3877C351.865 47.5457 351.491 48.4731 350.743 49.1699ZM354.051 39.2401H355.48V50H354.051V39.2401ZM359.218 48.6473H363.86V50H357.789V39.2401H359.218V48.6473ZM369.491 39.2401C370.956 39.2401 372.17 39.7627 373.134 40.808C374.107 41.843 374.594 43.1137 374.594 44.62C374.594 46.1264 374.107 47.4022 373.134 48.4475C372.17 49.4825 370.956 50 369.491 50H365.294V39.2401H369.491ZM369.491 48.6473C370.587 48.6473 371.484 48.263 372.181 47.4945C372.877 46.7259 373.226 45.7678 373.226 44.62C373.226 43.4723 372.877 42.5142 372.181 41.7456C371.484 40.977 370.587 40.5928 369.491 40.5928H366.724V48.6473H369.491ZM376.327 39.2401H377.757V50H376.327V39.2401ZM386.752 39.2401H388.181V50H387.028L381.495 41.9608V50H380.065V39.2401H381.218L386.752 47.2639V39.2401ZM400.858 44.6662V45.3118C400.858 46.7157 400.377 47.8839 399.413 48.8164C398.45 49.7387 397.174 50.1998 395.586 50.1998C393.946 50.1998 392.589 49.6618 391.513 48.5858C390.447 47.4996 389.914 46.1777 389.914 44.62C389.914 43.0624 390.447 41.7456 391.513 40.6696C392.589 39.5834 393.936 39.0403 395.555 39.0403C396.549 39.0403 397.461 39.2811 398.291 39.7627C399.121 40.2341 399.762 40.8592 400.213 41.638L398.983 42.3605C398.676 41.7764 398.209 41.3101 397.584 40.9617C396.969 40.603 396.288 40.4237 395.54 40.4237C394.31 40.4237 393.301 40.8285 392.512 41.638C391.723 42.4373 391.328 43.4313 391.328 44.62C391.328 45.8088 391.723 46.8028 392.512 47.6021C393.311 48.4014 394.341 48.801 395.601 48.801C396.677 48.801 397.548 48.5397 398.214 48.0171C398.881 47.4842 399.285 46.7976 399.429 45.9573H395.478V44.6662H400.858Z" fill="#D9D9D9"/>
<path fill-rule="evenodd" clip-rule="evenodd" d="M471.303 47.2809C471.303 47.2805 471.303 47.2801 471.304 47.2799L487.541 29.064C487.71 28.8745 487.845 28.6638 487.948 28.4401C489.982 28.6286 491.574 30.3398 491.574 32.4229V58.5765C491.574 60.7856 489.783 62.5765 487.574 62.5765H467.746L477.955 52.5447L486.662 58.6598C487.558 59.2895 488.762 59.0434 489.377 58.1037C489.931 57.2583 489.835 56.1089 489.149 55.3824L477.955 43.5137V43.5143L461.717 61.7305C461.494 61.9803 461.329 62.2671 461.222 62.5716C459.105 62.4683 457.42 60.7191 457.42 58.5765V32.4229C457.42 30.2137 459.211 28.4229 461.42 28.4229H481.303L471.303 38.2498L462.596 32.1347C461.699 31.5051 460.496 31.7512 459.881 32.6909C459.327 33.5363 459.423 34.6857 460.109 35.4121L471.303 47.2809Z" fill="#D9D9D9"/>
<path d="M605.725 51.4747C604.518 51.4747 603.241 51.3484 601.894 51.0958C600.547 50.8432 599.34 50.4082 598.273 49.7907C597.824 49.51 597.501 49.1873 597.305 48.8224C597.136 48.4295 597.066 48.0506 597.094 47.6857C597.151 47.2928 597.291 46.956 597.515 46.6753C597.768 46.3946 598.077 46.2122 598.442 46.128C598.835 46.0438 599.256 46.114 599.705 46.3385C600.827 46.8718 601.88 47.2507 602.862 47.4752C603.844 47.6717 604.813 47.7699 605.767 47.7699C607.114 47.7699 608.111 47.5454 608.756 47.0963C609.43 46.6192 609.766 46.0017 609.766 45.2439C609.766 44.5984 609.542 44.1072 609.093 43.7704C608.672 43.4056 608.026 43.1389 607.156 42.9705L602.946 42.1706C601.206 41.8338 599.873 41.2023 598.947 40.2761C598.049 39.3219 597.6 38.101 597.6 36.6135C597.6 35.2663 597.964 34.1015 598.694 33.1192C599.452 32.1369 600.49 31.3791 601.81 30.8458C603.129 30.3125 604.644 30.0459 606.356 30.0459C607.591 30.0459 608.742 30.1862 609.809 30.4669C610.903 30.7195 611.956 31.1265 612.966 31.6878C613.387 31.9123 613.668 32.207 613.808 32.5719C613.976 32.9367 614.019 33.3156 613.934 33.7086C613.85 34.0734 613.682 34.4102 613.429 34.719C613.177 34.9996 612.854 35.1821 612.461 35.2663C612.096 35.3224 611.675 35.2382 611.198 35.0137C610.328 34.5646 609.486 34.2418 608.672 34.0454C607.886 33.8489 607.128 33.7507 606.398 33.7507C605.023 33.7507 603.999 33.9892 603.325 34.4664C602.68 34.9435 602.357 35.575 602.357 36.3609C602.357 36.9503 602.553 37.4414 602.946 37.8344C603.339 38.2273 603.943 38.4939 604.757 38.6343L608.967 39.4341C610.791 39.7709 612.166 40.3884 613.092 41.2865C614.047 42.1847 614.524 43.3915 614.524 44.9071C614.524 46.956 613.724 48.5698 612.124 49.7486C610.524 50.8993 608.391 51.4747 605.725 51.4747Z" fill="#D9D9D9"/>
<path d="M580.84 51.4745C579.128 51.4745 577.711 51.1657 576.588 50.5483C575.465 49.9027 574.623 48.9485 574.062 47.6855C573.529 46.4225 573.262 44.8508 573.262 42.9703V32.7822C573.262 31.884 573.487 31.2245 573.936 30.8035C574.385 30.3544 575.03 30.1299 575.872 30.1299C576.714 30.1299 577.36 30.3544 577.809 30.8035C578.286 31.2245 578.525 31.884 578.525 32.7822V43.0545C578.525 44.514 578.819 45.5945 579.409 46.2962C579.998 46.9979 580.938 47.3487 582.229 47.3487C583.633 47.3487 584.784 46.8716 585.682 45.9173C586.58 44.935 587.029 43.6439 587.029 42.0441V32.7822C587.029 31.884 587.253 31.2245 587.702 30.8035C588.151 30.3544 588.797 30.1299 589.639 30.1299C590.481 30.1299 591.127 30.3544 591.576 30.8035C592.053 31.2245 592.291 31.884 592.291 32.7822V48.6959C592.291 50.4921 591.435 51.3903 589.723 51.3903C588.909 51.3903 588.278 51.1657 587.829 50.7167C587.38 50.2395 587.155 49.566 587.155 48.6959V45.4963L587.745 46.7593C587.155 48.2749 586.257 49.4397 585.05 50.2536C583.871 51.0675 582.468 51.4745 580.84 51.4745Z" fill="#D9D9D9"/>
<path d="M551.416 51.264C550.799 51.264 550.28 51.0956 549.859 50.7588C549.466 50.3939 549.255 49.9308 549.227 49.3695C549.227 48.8082 549.466 48.2188 549.943 47.6013L556.763 39.1813V41.6652L550.364 33.7926C549.859 33.1751 549.62 32.5857 549.648 32.0244C549.676 31.463 549.887 31.014 550.28 30.6772C550.701 30.3123 551.22 30.1299 551.837 30.1299C552.483 30.1299 553.016 30.2421 553.437 30.4667C553.886 30.6912 554.293 31.042 554.658 31.5192L559.71 38.0025H557.858L562.952 31.5192C563.345 31.042 563.751 30.6912 564.172 30.4667C564.593 30.2421 565.113 30.1299 565.73 30.1299C566.376 30.1299 566.895 30.3123 567.288 30.6772C567.681 31.042 567.877 31.5051 567.877 32.0665C567.905 32.6278 567.667 33.2172 567.162 33.8347L560.804 41.6231V39.2655L567.625 47.6013C568.13 48.1907 568.368 48.7661 568.34 49.3274C568.312 49.8887 568.088 50.3518 567.667 50.7167C567.274 51.0815 566.755 51.264 566.109 51.264C565.492 51.264 564.972 51.1517 564.551 50.9272C564.13 50.7026 563.723 50.3518 563.33 49.8747L557.858 42.9703H559.626L554.195 49.8747C553.83 50.3237 553.437 50.6746 553.016 50.9272C552.595 51.1517 552.062 51.264 551.416 51.264Z" fill="#D9D9D9"/>
<path d="M537.016 51.4747C534.686 51.4747 532.679 51.0397 530.995 50.1696C529.311 49.2995 528.006 48.0646 527.08 46.4648C526.182 44.865 525.733 42.9705 525.733 40.7813C525.733 38.6483 526.168 36.7819 527.038 35.1821C527.936 33.5823 529.157 32.3333 530.701 31.4352C532.272 30.509 534.055 30.0459 536.047 30.0459C537.507 30.0459 538.812 30.2845 539.963 30.7616C541.141 31.2387 542.138 31.9264 542.952 32.8245C543.794 33.7226 544.425 34.8172 544.846 36.1083C545.295 37.3713 545.52 38.8027 545.52 40.4024C545.52 40.9076 545.337 41.3006 544.973 41.5812C544.636 41.8338 544.145 41.9601 543.499 41.9601H529.985V38.929H541.815L541.141 39.5604C541.141 38.2694 540.945 37.1888 540.552 36.3188C540.187 35.4487 539.64 34.7891 538.91 34.3401C538.208 33.8629 537.324 33.6244 536.258 33.6244C535.079 33.6244 534.069 33.905 533.227 34.4664C532.413 34.9996 531.781 35.7715 531.332 36.7819C530.911 37.7642 530.701 38.943 530.701 40.3182V40.6129C530.701 42.9144 531.234 44.6405 532.3 45.7912C533.395 46.9139 534.995 47.4752 537.1 47.4752C537.83 47.4752 538.644 47.391 539.542 47.2226C540.468 47.0261 541.338 46.7034 542.152 46.2543C542.741 45.9175 543.26 45.7772 543.71 45.8333C544.159 45.8614 544.509 46.0157 544.762 46.2964C545.043 46.5771 545.211 46.9279 545.267 47.3489C545.323 47.7418 545.239 48.1488 545.015 48.5698C544.818 48.9908 544.467 49.3557 543.962 49.6644C542.98 50.2819 541.843 50.745 540.552 51.0537C539.289 51.3344 538.11 51.4747 537.016 51.4747Z" fill="#D9D9D9"/>
<path d="M504.433 51.3905C503.591 51.3905 502.945 51.166 502.496 50.7169C502.047 50.2398 501.823 49.5662 501.823 48.6961V32.7824C501.823 31.9123 502.047 31.2528 502.496 30.8037C502.945 30.3546 503.577 30.1301 504.391 30.1301C505.205 30.1301 505.836 30.3546 506.285 30.8037C506.734 31.2528 506.959 31.9123 506.959 32.7824V35.6452L506.496 34.5927C507.113 33.1051 508.068 31.9825 509.359 31.2247C510.678 30.4388 512.165 30.0459 513.821 30.0459C515.477 30.0459 516.838 30.3546 517.905 30.9721C518.971 31.5896 519.771 32.5298 520.305 33.7928C520.838 35.0277 521.104 36.5994 521.104 38.508V48.6961C521.104 49.5662 520.88 50.2398 520.431 50.7169C519.982 51.166 519.336 51.3905 518.494 51.3905C517.652 51.3905 516.993 51.166 516.516 50.7169C516.067 50.2398 515.842 49.5662 515.842 48.6961V38.7606C515.842 37.1608 515.533 35.996 514.916 35.2663C514.326 34.5365 513.4 34.1717 512.137 34.1717C510.594 34.1717 509.359 34.6628 508.432 35.6452C507.534 36.5994 507.085 37.8765 507.085 39.4763V48.6961C507.085 50.4924 506.201 51.3905 504.433 51.3905Z" fill="#D9D9D9"/>
<path d="M606.794 61.171C606.713 61.171 606.65 61.1485 606.605 61.1035C606.56 61.054 606.538 60.9866 606.538 60.9011V56.5902C606.538 56.5002 606.56 56.4328 606.605 56.3878C606.65 56.3428 606.713 56.3203 606.794 56.3203C606.866 56.3203 606.922 56.3361 606.963 56.3675C607.008 56.3945 607.048 56.4417 607.084 56.5092L608.933 59.9904H608.73L610.572 56.5092C610.608 56.4417 610.646 56.3945 610.687 56.3675C610.727 56.3361 610.786 56.3203 610.862 56.3203C610.939 56.3203 610.999 56.3428 611.044 56.3878C611.089 56.4328 611.112 56.5002 611.112 56.5902V60.9011C611.112 60.9866 611.089 61.054 611.044 61.1035C611.004 61.1485 610.941 61.171 610.855 61.171C610.774 61.171 610.711 61.1485 610.666 61.1035C610.621 61.054 610.599 60.9866 610.599 60.9011V57.1096H610.761L609.074 60.2737C609.043 60.3322 609.009 60.3749 608.973 60.4019C608.942 60.4244 608.894 60.4356 608.831 60.4356C608.768 60.4356 608.719 60.4221 608.683 60.3951C608.647 60.3681 608.615 60.3277 608.589 60.2737L606.882 57.1029H607.044V60.9011C607.044 60.9866 607.021 61.054 606.976 61.1035C606.936 61.1485 606.875 61.171 606.794 61.171Z" fill="#D9D9D9"/>
<path d="M602.142 61.1845C601.827 61.1845 601.551 61.144 601.312 61.063C601.078 60.9776 600.881 60.8539 600.719 60.692C600.557 60.5256 600.435 60.3209 600.354 60.0781C600.273 59.8352 600.233 59.5563 600.233 59.2415V56.6037C600.233 56.5092 600.255 56.4395 600.3 56.3945C600.35 56.345 600.42 56.3203 600.51 56.3203C600.599 56.3203 600.667 56.345 600.712 56.3945C600.761 56.4395 600.786 56.5092 600.786 56.6037V59.2145C600.786 59.7093 600.901 60.0803 601.13 60.3277C601.36 60.5705 601.697 60.692 602.142 60.692C602.587 60.692 602.922 60.5705 603.147 60.3277C603.372 60.0803 603.485 59.7093 603.485 59.2145V56.6037C603.485 56.5092 603.509 56.4395 603.559 56.3945C603.608 56.345 603.678 56.3203 603.768 56.3203C603.853 56.3203 603.919 56.345 603.964 56.3945C604.013 56.4395 604.038 56.5092 604.038 56.6037V59.2415C604.038 59.6598 603.966 60.0151 603.822 60.3074C603.683 60.5998 603.471 60.8202 603.188 60.9686C602.904 61.1125 602.556 61.1845 602.142 61.1845Z" fill="#D9D9D9"/>
<path d="M595.715 61.1239C595.626 61.1239 595.556 61.0992 595.506 61.0497C595.457 60.9957 595.432 60.9238 595.432 60.8338V56.6241C595.432 56.5296 595.455 56.4577 595.5 56.4082C595.549 56.3587 595.619 56.334 595.709 56.334C595.799 56.334 595.866 56.3587 595.911 56.4082C595.961 56.4577 595.985 56.5296 595.985 56.6241V60.6382H598.198C598.279 60.6382 598.342 60.6607 598.387 60.7056C598.432 60.7461 598.455 60.8046 598.455 60.8811C598.455 60.9575 598.432 61.0182 598.387 61.0632C598.342 61.1037 598.279 61.1239 598.198 61.1239H595.715Z" fill="#D9D9D9"/>
<path d="M590.092 61.1706C590.002 61.1706 589.932 61.1459 589.882 61.0964C589.837 61.0424 589.815 60.9705 589.815 60.8805V56.6505C589.815 56.5561 589.84 56.4864 589.889 56.4414C589.939 56.3919 590.008 56.3672 590.098 56.3672H591.697C592.205 56.3672 592.597 56.4931 592.871 56.745C593.145 56.9924 593.283 57.3432 593.283 57.7974C593.283 58.2472 593.145 58.598 592.871 58.8499C592.597 59.1017 592.205 59.2277 591.697 59.2277H590.368V60.8805C590.368 60.9705 590.346 61.0424 590.301 61.0964C590.256 61.1459 590.186 61.1706 590.092 61.1706ZM590.368 58.7622H591.63C591.994 58.7622 592.268 58.6812 592.453 58.5193C592.642 58.3529 592.736 58.1123 592.736 57.7974C592.736 57.4781 592.642 57.2375 592.453 57.0756C592.268 56.9091 591.994 56.8259 591.63 56.8259H590.368V58.7622Z" fill="#D9D9D9"/>
<path d="M585.983 61.1843C585.516 61.1843 585.115 61.0853 584.782 60.8874C584.45 60.6895 584.193 60.4084 584.013 60.0441C583.838 59.6798 583.75 59.2458 583.75 58.7421C583.75 58.3643 583.8 58.027 583.899 57.7301C584.002 57.4288 584.148 57.1747 584.337 56.9678C584.531 56.7564 584.767 56.5945 585.046 56.482C585.324 56.3651 585.637 56.3066 585.983 56.3066C586.262 56.3066 586.528 56.3471 586.779 56.4281C587.031 56.5045 587.249 56.6192 587.434 56.7721C587.492 56.8171 587.53 56.8688 587.548 56.9273C587.571 56.9813 587.573 57.0353 587.555 57.0892C587.542 57.1387 587.515 57.1814 587.474 57.2174C587.438 57.2489 587.393 57.2646 587.339 57.2646C587.285 57.2646 587.225 57.2421 587.157 57.1972C586.995 57.0667 586.818 56.97 586.624 56.9071C586.431 56.8441 586.222 56.8126 585.997 56.8126C585.641 56.8126 585.34 56.8891 585.093 57.042C584.845 57.1904 584.659 57.4086 584.533 57.6964C584.407 57.9842 584.344 58.3328 584.344 58.7421C584.344 59.1514 584.407 59.5022 584.533 59.7945C584.659 60.0824 584.845 60.3028 585.093 60.4557C585.34 60.6041 585.641 60.6783 585.997 60.6783C586.217 60.6783 586.426 60.6468 586.624 60.5839C586.822 60.5164 587.004 60.4174 587.171 60.287C587.238 60.242 587.299 60.2218 587.353 60.2263C587.407 60.2263 587.452 60.242 587.488 60.2735C587.524 60.305 587.548 60.3455 587.562 60.395C587.58 60.4444 587.58 60.4962 587.562 60.5501C587.548 60.6041 587.515 60.6513 587.461 60.6918C587.272 60.8537 587.049 60.9774 586.793 61.0628C586.541 61.1438 586.271 61.1843 585.983 61.1843Z" fill="#D9D9D9"/>
<path d="M581.121 61.171C581.031 61.171 580.961 61.1462 580.912 61.0968C580.867 61.0428 580.844 60.9708 580.844 60.8809V56.6104C580.844 56.516 580.867 56.444 580.912 56.3945C580.961 56.345 581.031 56.3203 581.121 56.3203C581.211 56.3203 581.278 56.345 581.323 56.3945C581.373 56.444 581.397 56.516 581.397 56.6104V60.8809C581.397 60.9708 581.375 61.0428 581.33 61.0968C581.285 61.1462 581.215 61.171 581.121 61.171Z" fill="#D9D9D9"/>
<path d="M576.772 61.1843C576.264 61.1843 575.834 61.0876 575.484 60.8942C575.137 60.7008 574.874 60.4219 574.694 60.0576C574.514 59.6933 574.424 59.2571 574.424 58.7488C574.424 58.371 574.474 58.0315 574.573 57.7301C574.676 57.4288 574.825 57.1747 575.018 56.9678C575.216 56.7564 575.454 56.5945 575.733 56.482C576.016 56.3651 576.336 56.3066 576.691 56.3066C576.974 56.3066 577.249 56.3471 577.514 56.4281C577.78 56.5045 578.016 56.6282 578.223 56.7991C578.277 56.8396 578.31 56.8846 578.324 56.9341C578.337 56.9835 578.335 57.033 578.317 57.0825C578.303 57.1319 578.279 57.1747 578.243 57.2107C578.211 57.2421 578.169 57.2601 578.115 57.2646C578.065 57.2691 578.013 57.2534 577.959 57.2174C577.775 57.0735 577.579 56.97 577.372 56.9071C577.166 56.8396 576.936 56.8059 576.684 56.8059C576.325 56.8059 576.019 56.8823 575.767 57.0353C575.519 57.1882 575.331 57.4086 575.2 57.6964C575.074 57.9842 575.011 58.3351 575.011 58.7488C575.011 59.3785 575.157 59.8597 575.45 60.1926C575.747 60.5254 576.192 60.6918 576.786 60.6918C577.001 60.6918 577.213 60.6716 577.42 60.6311C577.627 60.5861 577.822 60.5254 578.007 60.4489L577.885 60.766V59.0862H576.92C576.84 59.0862 576.779 59.0659 576.738 59.0254C576.698 58.985 576.678 58.931 576.678 58.8635C576.678 58.7916 576.698 58.7376 576.738 58.7016C576.779 58.6656 576.84 58.6476 576.92 58.6476H578.128C578.205 58.6476 578.263 58.6679 578.303 58.7084C578.344 58.7488 578.364 58.8073 578.364 58.8838V60.6446C578.364 60.712 578.353 60.7683 578.33 60.8132C578.308 60.8582 578.27 60.8919 578.216 60.9144C578.027 60.9909 577.8 61.0561 577.534 61.1101C577.274 61.1595 577.019 61.1843 576.772 61.1843Z" fill="#D9D9D9"/>
<path d="M570.075 61.1843C569.634 61.1843 569.25 61.0853 568.921 60.8874C568.597 60.6851 568.346 60.4017 568.166 60.0374C567.99 59.6731 567.903 59.2413 567.903 58.7421C567.903 58.3643 567.952 58.027 568.051 57.7301C568.154 57.4288 568.301 57.1747 568.49 56.9678C568.678 56.7564 568.906 56.5945 569.171 56.482C569.441 56.3651 569.742 56.3066 570.075 56.3066C570.525 56.3066 570.911 56.4056 571.235 56.6035C571.564 56.8014 571.815 57.0825 571.991 57.4468C572.171 57.8066 572.261 58.2361 572.261 58.7353C572.261 59.1131 572.209 59.4527 572.106 59.754C572.002 60.0554 571.856 60.3118 571.667 60.5231C571.478 60.7345 571.249 60.8987 570.979 61.0156C570.714 61.1281 570.412 61.1843 570.075 61.1843ZM570.075 60.6918C570.417 60.6918 570.705 60.6153 570.938 60.4624C571.177 60.3095 571.359 60.0869 571.485 59.7945C571.611 59.5022 571.674 59.1514 571.674 58.7421C571.674 58.1259 571.534 57.6492 571.256 57.3119C570.981 56.97 570.588 56.7991 570.075 56.7991C569.742 56.7991 569.457 56.8756 569.218 57.0285C568.984 57.1814 568.804 57.4041 568.678 57.6964C568.552 57.9842 568.49 58.3328 568.49 58.7421C568.49 59.3538 568.629 59.8328 568.908 60.1791C569.187 60.5209 569.576 60.6918 570.075 60.6918Z" fill="#D9D9D9"/>
<path d="M563.592 61.1239C563.502 61.1239 563.433 61.0992 563.383 61.0497C563.334 60.9957 563.309 60.9238 563.309 60.8338V56.6241C563.309 56.5296 563.332 56.4577 563.377 56.4082C563.426 56.3587 563.496 56.334 563.586 56.334C563.676 56.334 563.743 56.3587 563.788 56.4082C563.838 56.4577 563.862 56.5296 563.862 56.6241V60.6382H566.075C566.156 60.6382 566.219 60.6607 566.264 60.7056C566.309 60.7461 566.331 60.8046 566.331 60.8811C566.331 60.9575 566.309 61.0182 566.264 61.0632C566.219 61.1037 566.156 61.1239 566.075 61.1239H563.592Z" fill="#D9D9D9"/>
<path d="M556.277 61.171C556.187 61.171 556.117 61.1462 556.068 61.0968C556.023 61.0428 556 60.9686 556 60.8741V58.6613L556.122 59.0459L554.428 56.7116C554.388 56.6531 554.368 56.5947 554.368 56.5362C554.372 56.4732 554.397 56.4215 554.442 56.381C554.487 56.3406 554.545 56.3203 554.617 56.3203C554.68 56.3203 554.736 56.3361 554.786 56.3675C554.835 56.3945 554.88 56.4395 554.921 56.5025L556.358 58.4859H556.216L557.653 56.5025C557.703 56.435 557.75 56.3878 557.795 56.3608C557.84 56.3338 557.894 56.3203 557.957 56.3203C558.029 56.3203 558.085 56.3406 558.125 56.381C558.166 56.417 558.186 56.4665 558.186 56.5295C558.191 56.5879 558.17 56.6509 558.125 56.7183L556.439 59.0459L556.554 58.6613V60.8741C556.554 61.072 556.461 61.171 556.277 61.171Z" fill="#D9D9D9"/>
<path d="M549.341 61.1234C549.242 61.1234 549.166 61.0987 549.112 61.0492C549.062 60.9952 549.038 60.9188 549.038 60.8198V56.6708C549.038 56.5718 549.062 56.4976 549.112 56.4481C549.166 56.3942 549.242 56.3672 549.341 56.3672H550.94C551.268 56.3672 551.545 56.4167 551.77 56.5156C551.999 56.6101 552.175 56.7495 552.296 56.9339C552.418 57.1183 552.478 57.3432 552.478 57.6085C552.478 57.9054 552.391 58.1527 552.215 58.3506C552.044 58.5485 551.81 58.679 551.514 58.7419V58.6475C551.851 58.6879 552.114 58.8094 552.303 59.0118C552.496 59.2142 552.593 59.4818 552.593 59.8146C552.593 60.2374 552.456 60.5612 552.181 60.7861C551.907 61.011 551.52 61.1234 551.021 61.1234H549.341ZM549.577 60.6781H550.967C551.327 60.6781 551.597 60.6062 551.777 60.4622C551.957 60.3183 552.046 60.1002 552.046 59.8078C552.046 59.511 551.957 59.2929 551.777 59.1534C551.597 59.0095 551.327 58.9376 550.967 58.9376H549.577V60.6781ZM549.577 58.4923H550.859C551.21 58.4923 551.475 58.4203 551.655 58.2764C551.84 58.1325 551.932 57.9256 551.932 57.6557C551.932 57.3769 551.84 57.1678 551.655 57.0283C551.475 56.8844 551.21 56.8124 550.859 56.8124H549.577V58.4923Z" fill="#D9D9D9"/>
<path d="M539.896 61.1234C539.797 61.1234 539.72 61.0987 539.666 61.0492C539.617 60.9952 539.592 60.9188 539.592 60.8198V56.6708C539.592 56.5718 539.617 56.4976 539.666 56.4481C539.72 56.3942 539.797 56.3672 539.896 56.3672H541.198C541.967 56.3672 542.561 56.5696 542.979 56.9744C543.397 57.3791 543.606 57.9683 543.606 58.7419C543.606 59.1287 543.552 59.4705 543.444 59.7674C543.341 60.0597 543.186 60.3071 542.979 60.5095C542.772 60.7119 542.52 60.8648 542.223 60.9682C541.927 61.0717 541.585 61.1234 541.198 61.1234H539.896ZM540.145 60.6511H541.157C541.472 60.6511 541.744 60.6107 541.974 60.5297C542.208 60.4488 542.401 60.3296 542.554 60.1722C542.711 60.0147 542.828 59.8168 542.905 59.5785C542.981 59.3356 543.019 59.0568 543.019 58.7419C543.019 58.1078 542.864 57.6333 542.554 57.3184C542.244 56.9991 541.778 56.8394 541.157 56.8394H540.145V60.6511Z" fill="#D9D9D9"/>
<path d="M534.613 61.1234C534.514 61.1234 534.437 61.0987 534.383 61.0492C534.334 60.9952 534.309 60.9188 534.309 60.8198V56.6708C534.309 56.5718 534.334 56.4976 534.383 56.4481C534.437 56.3942 534.514 56.3672 534.613 56.3672H537.122C537.199 56.3672 537.257 56.3874 537.298 56.4279C537.338 56.4684 537.358 56.5246 537.358 56.5966C537.358 56.673 537.338 56.7315 537.298 56.772C537.257 56.8124 537.199 56.8327 537.122 56.8327H534.849V58.4788H536.981C537.057 58.4788 537.116 58.499 537.156 58.5395C537.197 58.5755 537.217 58.6317 537.217 58.7082C537.217 58.7846 537.197 58.8431 537.156 58.8836C537.116 58.9241 537.057 58.9443 536.981 58.9443H534.849V60.6579H537.122C537.199 60.6579 537.257 60.6781 537.298 60.7186C537.338 60.7591 537.358 60.8153 537.358 60.8873C537.358 60.9637 537.338 61.0222 537.298 61.0627C537.257 61.1032 537.199 61.1234 537.122 61.1234H534.613Z" fill="#D9D9D9"/>
<path d="M528.724 61.1706C528.634 61.1706 528.565 61.1459 528.515 61.0964C528.47 61.0424 528.448 60.9705 528.448 60.8805V56.6505C528.448 56.5561 528.472 56.4864 528.522 56.4414C528.571 56.3919 528.641 56.3672 528.731 56.3672H530.33C530.838 56.3672 531.23 56.4864 531.504 56.7247C531.778 56.9631 531.915 57.3027 531.915 57.7435C531.915 58.0223 531.852 58.2652 531.727 58.4721C531.605 58.6745 531.425 58.8296 531.187 58.9376C530.948 59.041 530.663 59.0927 530.33 59.0927L530.397 59.005H530.532C530.708 59.005 530.861 59.05 530.991 59.14C531.122 59.2299 531.241 59.3738 531.349 59.5717L531.996 60.7793C532.032 60.8423 532.048 60.9053 532.044 60.9682C532.044 61.0267 532.023 61.0762 531.983 61.1166C531.942 61.1526 531.884 61.1706 531.807 61.1706C531.731 61.1706 531.668 61.1526 531.619 61.1166C531.569 61.0807 531.526 61.0289 531.49 60.9615L530.755 59.5987C530.652 59.4053 530.532 59.2771 530.397 59.2142C530.263 59.1467 530.085 59.113 529.864 59.113H529.001V60.8805C529.001 60.9705 528.978 61.0424 528.933 61.0964C528.889 61.1459 528.819 61.1706 528.724 61.1706ZM529.001 58.6745H530.249C530.618 58.6745 530.897 58.598 531.086 58.4451C531.274 58.2877 531.369 58.0538 531.369 57.7435C531.369 57.4421 531.274 57.215 531.086 57.0621C530.897 56.9047 530.618 56.8259 530.249 56.8259H529.001V58.6745Z" fill="#D9D9D9"/>
<path d="M523.468 61.1234C523.369 61.1234 523.293 61.0987 523.239 61.0492C523.189 60.9952 523.165 60.9188 523.165 60.8198V56.6708C523.165 56.5718 523.189 56.4976 523.239 56.4481C523.293 56.3942 523.369 56.3672 523.468 56.3672H525.978C526.054 56.3672 526.113 56.3874 526.153 56.4279C526.194 56.4684 526.214 56.5246 526.214 56.5966C526.214 56.673 526.194 56.7315 526.153 56.772C526.113 56.8124 526.054 56.8327 525.978 56.8327H523.704V58.4788H525.836C525.913 58.4788 525.971 58.499 526.012 58.5395C526.052 58.5755 526.072 58.6317 526.072 58.7082C526.072 58.7846 526.052 58.8431 526.012 58.8836C525.971 58.9241 525.913 58.9443 525.836 58.9443H523.704V60.6579H525.978C526.054 60.6579 526.113 60.6781 526.153 60.7186C526.194 60.7591 526.214 60.8153 526.214 60.8873C526.214 60.9637 526.194 61.0222 526.153 61.0627C526.113 61.1032 526.054 61.1234 525.978 61.1234H523.468Z" fill="#D9D9D9"/>
<path d="M515.914 61.171C515.833 61.171 515.768 61.1507 515.718 61.1103C515.669 61.0653 515.628 61.0001 515.597 60.9146L514.106 56.6576C514.074 56.5632 514.081 56.4845 514.126 56.4215C514.176 56.354 514.252 56.3203 514.355 56.3203C514.432 56.3203 514.493 56.3406 514.538 56.381C514.583 56.417 514.621 56.4755 514.652 56.5564L516.049 60.6515H515.813L517.236 56.5767C517.268 56.4912 517.306 56.4283 517.351 56.3878C517.396 56.3428 517.457 56.3203 517.533 56.3203C517.605 56.3203 517.661 56.3428 517.702 56.3878C517.747 56.4283 517.785 56.4912 517.816 56.5767L519.22 60.6515H519.01L520.42 56.5564C520.443 56.48 520.477 56.4215 520.522 56.381C520.571 56.3406 520.634 56.3203 520.711 56.3203C520.805 56.3203 520.875 56.3518 520.92 56.4148C520.965 56.4777 520.969 56.5587 520.933 56.6576L519.436 60.9146C519.404 61.0001 519.364 61.0653 519.314 61.1103C519.269 61.1507 519.204 61.171 519.118 61.171C519.037 61.171 518.972 61.1507 518.923 61.1103C518.878 61.0653 518.837 61.0001 518.801 60.9146L517.445 57.0084H517.594L516.224 60.9146C516.193 61.0001 516.155 61.0653 516.11 61.1103C516.065 61.1507 515.999 61.171 515.914 61.171Z" fill="#D9D9D9"/>
<path d="M509.972 61.1843C509.531 61.1843 509.146 61.0853 508.818 60.8874C508.494 60.6851 508.242 60.4017 508.062 60.0374C507.887 59.6731 507.799 59.2413 507.799 58.7421C507.799 58.3643 507.849 58.027 507.948 57.7301C508.051 57.4288 508.197 57.1747 508.386 56.9678C508.575 56.7564 508.802 56.5945 509.068 56.482C509.337 56.3651 509.639 56.3066 509.972 56.3066C510.421 56.3066 510.808 56.4056 511.132 56.6035C511.46 56.8014 511.712 57.0825 511.888 57.4468C512.068 57.8066 512.157 58.2361 512.157 58.7353C512.157 59.1131 512.106 59.4527 512.002 59.754C511.899 60.0554 511.753 60.3118 511.564 60.5231C511.375 60.7345 511.146 60.8987 510.876 61.0156C510.61 61.1281 510.309 61.1843 509.972 61.1843ZM509.972 60.6918C510.313 60.6918 510.601 60.6153 510.835 60.4624C511.074 60.3095 511.256 60.0869 511.382 59.7945C511.508 59.5022 511.571 59.1514 511.571 58.7421C511.571 58.1259 511.431 57.6492 511.152 57.3119C510.878 56.97 510.484 56.7991 509.972 56.7991C509.639 56.7991 509.353 56.8756 509.115 57.0285C508.881 57.1814 508.701 57.4041 508.575 57.6964C508.449 57.9842 508.386 58.3328 508.386 58.7421C508.386 59.3538 508.526 59.8328 508.805 60.1791C509.083 60.5209 509.472 60.6918 509.972 60.6918Z" fill="#D9D9D9"/>
<path d="M502.685 61.1706C502.595 61.1706 502.526 61.1459 502.476 61.0964C502.431 61.0424 502.409 60.9705 502.409 60.8805V56.6505C502.409 56.5561 502.433 56.4864 502.483 56.4414C502.532 56.3919 502.602 56.3672 502.692 56.3672H504.291C504.799 56.3672 505.19 56.4931 505.465 56.745C505.739 56.9924 505.876 57.3432 505.876 57.7974C505.876 58.2472 505.739 58.598 505.465 58.8499C505.19 59.1017 504.799 59.2277 504.291 59.2277H502.962V60.8805C502.962 60.9705 502.939 61.0424 502.894 61.0964C502.849 61.1459 502.78 61.1706 502.685 61.1706ZM502.962 58.7622H504.223C504.588 58.7622 504.862 58.6812 505.047 58.5193C505.235 58.3529 505.33 58.1123 505.33 57.7974C505.33 57.4781 505.235 57.2375 505.047 57.0756C504.862 56.9091 504.588 56.8259 504.223 56.8259H502.962V58.7622Z" fill="#D9D9D9"/>
<path opacity="0.9" d="M687.552 44.4669C690.013 42.049 690.013 38.1287 687.552 35.7108C685.091 33.2929 681.102 33.2929 678.641 35.7108C676.181 38.1287 676.181 42.049 678.641 44.4669C681.102 46.8849 685.091 46.8849 687.552 44.4669Z" fill="#D9D9D9"/>
<path opacity="0.9" d="M683.009 35.5649C683.009 31.6204 686.206 28.4229 690.151 28.4229C694.095 28.4229 697.293 31.6204 697.293 35.5649V44.3873C697.293 48.3318 694.095 51.5294 690.151 51.5294C686.206 51.5294 683.009 48.3318 683.009 44.3873V35.5649Z" fill="#E3E3E3"/>
<path opacity="0.9" d="M693.09 31.7836C693.09 27.8392 696.288 24.6416 700.232 24.6416C704.177 24.6416 707.374 27.8392 707.374 31.7836V47.7481C707.374 51.6925 704.177 54.8901 700.232 54.8901C696.288 54.8901 693.09 51.6925 693.09 47.7481V31.7836Z" fill="#D9D9D9"/>
<path opacity="0.9" d="M702.754 35.5649C702.754 31.6204 705.952 28.4229 709.896 28.4229C713.841 28.4229 717.038 31.6204 717.038 35.5649V44.3873C717.038 48.3318 713.841 51.5294 709.896 51.5294C705.952 51.5294 702.754 48.3318 702.754 44.3873V35.5649Z" fill="#E3E3E3"/>
<path opacity="0.9" d="M721.581 44.4669C724.042 42.049 724.042 38.1287 721.581 35.7108C719.121 33.2929 715.131 33.2929 712.671 35.7108C710.21 38.1287 710.21 42.049 712.671 44.4669C715.131 46.8849 719.121 46.8849 721.581 44.4669Z" fill="#D9D9D9"/>
<rect x="664.864" y="40.5254" width="70.3203" height="14.0244" rx="7.0122" fill="white" stroke="#D9D9D9" stroke-width="0.679742"/>
<path d="M671.661 44.8677H672.722L675.254 50.689H673.807L673.305 49.4557H671.044L670.559 50.689H669.145L671.661 44.8677ZM672.154 46.5615L671.447 48.3704H672.87L672.154 46.5615Z" fill="#D9D9D9"/>
<path d="M681.159 48.4444C681.159 48.7897 681.107 49.1076 681.003 49.3981C680.899 49.6886 680.743 49.9408 680.534 50.1546C680.332 50.3683 680.077 50.5355 679.77 50.6561C679.463 50.7767 679.109 50.837 678.709 50.837C678.303 50.837 677.947 50.7767 677.64 50.6561C677.333 50.5355 677.076 50.3683 676.867 50.1546C676.665 49.9408 676.511 49.6886 676.407 49.3981C676.303 49.1076 676.251 48.7897 676.251 48.4444V44.8677H677.533V48.395C677.533 48.5759 677.561 48.7431 677.616 48.8966C677.676 49.0501 677.758 49.1843 677.862 49.2995C677.966 49.4091 678.09 49.4968 678.232 49.5626C678.38 49.6229 678.539 49.653 678.709 49.653C678.879 49.653 679.035 49.6229 679.178 49.5626C679.32 49.4968 679.444 49.4091 679.548 49.2995C679.652 49.1843 679.731 49.0501 679.786 48.8966C679.846 48.7431 679.877 48.5759 679.877 48.395V44.8677H681.159V48.4444Z" fill="#D9D9D9"/>
<path d="M683.883 46.0024H682.222V44.8677H686.826V46.0024H685.165V50.689H683.883V46.0024Z" fill="#D9D9D9"/>
<path d="M687.576 47.7784C687.576 47.3124 687.653 46.8904 687.806 46.5122C687.965 46.1339 688.185 45.8133 688.464 45.5502C688.744 45.2816 689.075 45.076 689.459 44.9335C689.843 44.791 690.262 44.7197 690.717 44.7197C691.172 44.7197 691.591 44.791 691.975 44.9335C692.359 45.076 692.69 45.2816 692.97 45.5502C693.249 45.8133 693.466 46.1339 693.619 46.5122C693.778 46.8904 693.858 47.3124 693.858 47.7784C693.858 48.2443 693.778 48.6664 693.619 49.0446C693.466 49.4228 693.249 49.7462 692.97 50.0148C692.69 50.2779 692.359 50.4807 691.975 50.6232C691.591 50.7657 691.172 50.837 690.717 50.837C690.262 50.837 689.843 50.7657 689.459 50.6232C689.075 50.4807 688.744 50.2779 688.464 50.0148C688.185 49.7462 687.965 49.4228 687.806 49.0446C687.653 48.6664 687.576 48.2443 687.576 47.7784ZM688.908 47.7784C688.908 48.0524 688.949 48.3046 689.031 48.5348C689.119 48.7595 689.242 48.9569 689.401 49.1268C689.56 49.2912 689.749 49.42 689.969 49.5132C690.193 49.6064 690.443 49.653 690.717 49.653C690.991 49.653 691.238 49.6064 691.457 49.5132C691.682 49.42 691.874 49.2912 692.032 49.1268C692.191 48.9569 692.312 48.7595 692.394 48.5348C692.482 48.3046 692.526 48.0524 692.526 47.7784C692.526 47.5098 692.482 47.2604 692.394 47.0301C692.312 46.7999 692.191 46.6026 692.032 46.4382C691.874 46.2682 691.682 46.1367 691.457 46.0435C691.238 45.9503 690.991 45.9037 690.717 45.9037C690.443 45.9037 690.193 45.9503 689.969 46.0435C689.749 46.1367 689.56 46.2682 689.401 46.4382C689.242 46.6026 689.119 46.7999 689.031 47.0301C688.949 47.2604 688.908 47.5098 688.908 47.7784Z" fill="#D9D9D9"/>
<path d="M706.116 44.8677H707.398V49.505H709.775V50.689H706.116V44.8677Z" fill="#D9D9D9"/>
<path d="M710.581 47.7784C710.581 47.3124 710.658 46.8904 710.811 46.5122C710.97 46.1339 711.19 45.8133 711.469 45.5502C711.749 45.2816 712.08 45.076 712.464 44.9335C712.848 44.791 713.267 44.7197 713.722 44.7197C714.177 44.7197 714.596 44.791 714.98 44.9335C715.364 45.076 715.695 45.2816 715.975 45.5502C716.255 45.8133 716.471 46.1339 716.625 46.5122C716.783 46.8904 716.863 47.3124 716.863 47.7784C716.863 48.2443 716.783 48.6664 716.625 49.0446C716.471 49.4228 716.255 49.7462 715.975 50.0148C715.695 50.2779 715.364 50.4807 714.98 50.6232C714.596 50.7657 714.177 50.837 713.722 50.837C713.267 50.837 712.848 50.7657 712.464 50.6232C712.08 50.4807 711.749 50.2779 711.469 50.0148C711.19 49.7462 710.97 49.4228 710.811 49.0446C710.658 48.6664 710.581 48.2443 710.581 47.7784ZM711.913 47.7784C711.913 48.0524 711.954 48.3046 712.037 48.5348C712.124 48.7595 712.248 48.9569 712.407 49.1268C712.566 49.2912 712.755 49.42 712.974 49.5132C713.199 49.6064 713.448 49.653 713.722 49.653C713.996 49.653 714.243 49.6064 714.462 49.5132C714.687 49.42 714.879 49.2912 715.038 49.1268C715.197 48.9569 715.317 48.7595 715.399 48.5348C715.487 48.3046 715.531 48.0524 715.531 47.7784C715.531 47.5098 715.487 47.2604 715.399 47.0301C715.317 46.7999 715.197 46.6026 715.038 46.4382C714.879 46.2682 714.687 46.1367 714.462 46.0435C714.243 45.9503 713.996 45.9037 713.722 45.9037C713.448 45.9037 713.199 45.9503 712.974 46.0435C712.755 46.1367 712.566 46.2682 712.407 46.4382C712.248 46.6026 712.124 46.7999 712.037 47.0301C711.954 47.2604 711.913 47.5098 711.913 47.7784Z" fill="#D9D9D9"/>
<path d="M723.054 48.4444C723.054 48.7897 723.002 49.1076 722.898 49.3981C722.794 49.6886 722.638 49.9408 722.43 50.1546C722.227 50.3683 721.972 50.5355 721.665 50.6561C721.358 50.7767 721.004 50.837 720.604 50.837C720.199 50.837 719.842 50.7767 719.535 50.6561C719.228 50.5355 718.971 50.3683 718.763 50.1546C718.56 49.9408 718.406 49.6886 718.302 49.3981C718.198 49.1076 718.146 48.7897 718.146 48.4444V44.8677H719.429V48.395C719.429 48.5759 719.456 48.7431 719.511 48.8966C719.571 49.0501 719.653 49.1843 719.757 49.2995C719.862 49.4091 719.985 49.4968 720.127 49.5626C720.275 49.6229 720.434 49.653 720.604 49.653C720.774 49.653 720.93 49.6229 721.073 49.5626C721.215 49.4968 721.339 49.4091 721.443 49.2995C721.547 49.1843 721.627 49.0501 721.681 48.8966C721.742 48.7431 721.772 48.5759 721.772 48.395V44.8677H723.054V48.4444Z" fill="#D9D9D9"/>
<path d="M724.651 44.8677H726.575C727.041 44.8677 727.482 44.9198 727.899 45.0239C728.321 45.1281 728.688 45.298 729.001 45.5337C729.313 45.7639 729.56 46.0654 729.741 46.4382C729.927 46.8109 730.02 47.2631 730.02 47.7948C730.02 48.2662 729.93 48.6828 729.749 49.0446C729.574 49.4009 729.335 49.7023 729.034 49.949C728.732 50.1902 728.384 50.3738 727.99 50.4999C727.595 50.626 727.181 50.689 726.748 50.689H724.651V44.8677ZM725.934 49.505H726.6C726.896 49.505 727.17 49.4749 727.422 49.4146C727.68 49.3543 727.902 49.2556 728.088 49.1186C728.275 48.9761 728.42 48.7924 728.524 48.5677C728.634 48.3375 728.688 48.0579 728.688 47.729C728.688 47.444 728.634 47.1973 728.524 46.989C728.42 46.7753 728.277 46.5999 728.096 46.4628C727.916 46.3258 727.702 46.2244 727.455 46.1586C727.214 46.0873 726.959 46.0517 726.69 46.0517H725.934V49.505Z" fill="#D9D9D9"/>
<path d="M702.63 45.3305C702.428 45.0881 702.178 44.9019 701.879 44.772C701.589 44.6422 701.251 44.5772 700.865 44.5772C700.479 44.5772 700.119 44.6508 699.785 44.798C699.46 44.9452 699.175 45.153 698.929 45.4214C698.692 45.6812 698.503 45.9929 698.363 46.3565C698.231 46.7202 698.165 47.1141 698.165 47.5384C698.165 47.9713 698.231 48.3696 698.363 48.7332C698.503 49.0882 698.692 49.3999 698.929 49.6683C699.166 49.9281 699.443 50.1316 699.759 50.2788C700.084 50.426 700.43 50.4995 700.799 50.4995C701.221 50.4995 701.594 50.413 701.919 50.2398C702.244 50.0666 702.511 49.8242 702.722 49.5125L704.434 50.7723C704.039 51.3178 703.539 51.7204 702.933 51.9801C702.327 52.2399 701.704 52.3698 701.063 52.3698C700.334 52.3698 699.662 52.2572 699.048 52.0321C698.433 51.807 697.902 51.4866 697.454 51.071C697.006 50.6467 696.655 50.1359 696.4 49.5385C696.155 48.941 696.032 48.2744 696.032 47.5384C696.032 46.8024 696.155 46.1357 696.4 45.5383C696.655 44.9409 697.006 44.4344 697.454 44.0188C697.902 43.5945 698.433 43.2698 699.048 43.0447C699.662 42.8196 700.334 42.707 701.063 42.707C701.326 42.707 701.598 42.733 701.879 42.785C702.169 42.8282 702.45 42.9018 702.722 43.0057C703.003 43.1096 703.271 43.2482 703.525 43.4213C703.78 43.5945 704.008 43.8066 704.21 44.0577L702.63 45.3305Z" fill="#D9D9D9"/>
<path d="M700.85 49.9257C700.578 49.9257 700.356 49.7089 700.356 49.4448V47.687C700.356 47.4219 700.579 47.2061 700.85 47.2061C701.123 47.2061 701.345 47.4229 701.345 47.687V49.4448C701.345 49.7098 701.122 49.9257 700.85 49.9257Z" fill="#D9D9D9"/>
<path d="M702.09 46.9482C702.225 46.2677 701.785 45.6067 701.107 45.4718C700.429 45.3368 699.771 45.779 699.636 46.4594C699.502 47.1398 699.942 47.8008 700.62 47.9358C701.298 48.0708 701.956 47.6286 702.09 46.9482Z" fill="#D9D9D9"/>
<path d="M701.345 46.7113C701.345 46.9844 701.124 47.2058 700.85 47.2058C700.577 47.2058 700.356 46.9844 700.356 46.7113C700.356 46.4381 700.577 46.2168 700.85 46.2168C701.124 46.2168 701.345 46.4381 701.345 46.7113Z" fill="#E3E3E3"/>
<path d="M688.213 59.8227C689.235 59.8227 690.102 60.5035 690.39 61.4379H692.976C693.225 61.4379 693.428 61.2339 693.428 60.9831V57.2658C693.428 56.8921 693.729 56.5892 694.1 56.5892C694.472 56.5892 694.773 56.8921 694.773 57.2658V60.9831C694.773 61.98 693.967 62.7911 692.976 62.7911H690.39C690.102 63.7255 689.235 64.4062 688.213 64.4062C686.958 64.4062 685.936 63.3782 685.936 62.1145C685.936 60.8508 686.958 59.8227 688.213 59.8227ZM688.213 63.0531C688.728 63.0531 689.146 62.6321 689.146 62.1145C689.146 61.5969 688.728 61.1759 688.213 61.1759C687.699 61.1759 687.281 61.5969 687.281 62.1145C687.281 62.6321 687.699 63.0531 688.213 63.0531Z" fill="#D9D9D9"/>
<path d="M700.835 56.5894C701.269 56.5894 701.621 56.9416 701.621 57.376V61.148C702.708 61.4843 703.499 62.4983 703.499 63.6939C703.499 65.1632 702.304 66.3584 700.835 66.3584C699.366 66.3584 698.17 65.1632 698.17 63.6939C698.17 62.4984 698.962 61.4843 700.048 61.148V57.376C700.048 56.9416 700.4 56.5894 700.835 56.5894ZM699.744 63.6939C699.744 64.2956 700.233 64.7852 700.835 64.7852C701.437 64.7852 701.926 64.2957 701.926 63.6939C701.926 63.0921 701.437 62.6026 700.835 62.6026C700.233 62.6026 699.744 63.0922 699.744 63.6939Z" fill="#D9D9D9"/>
<path d="M713.228 64.4062C712.206 64.4062 711.339 63.7255 711.052 62.7911H708.465C707.474 62.7911 706.668 61.98 706.668 60.9831V57.2658C706.668 56.8921 706.969 56.5892 707.341 56.5892C707.712 56.5892 708.013 56.8921 708.013 57.2658V60.9831C708.013 61.2339 708.216 61.4379 708.465 61.4379H711.052C711.339 60.5035 712.206 59.8227 713.228 59.8227C714.483 59.8227 715.505 60.8508 715.505 62.1145C715.505 63.3782 714.483 64.4062 713.228 64.4062ZM713.228 61.1759C712.713 61.1759 712.295 61.5969 712.295 62.1145C712.295 62.6321 712.713 63.0531 713.228 63.0531C713.742 63.0531 714.16 62.6321 714.16 62.1145C714.16 61.5969 713.742 61.1759 713.228 61.1759Z" fill="#D9D9D9"/>
<path d="M828.93 24C830.976 27.5833 833.022 31.1666 835.068 34.7224C830.976 34.75 826.857 34.75 822.765 34.7775C822.157 34.7775 821.576 34.75 820.968 34.75C817.457 34.7224 813.918 34.7224 810.406 34.7224C811.761 32.407 813.116 30.1192 814.443 27.8038C815.162 26.5635 815.825 25.2679 816.489 24C820.636 24 824.783 24 828.93 24Z" fill="#D9D9D9"/>
<path d="M816.489 24C815.798 25.2679 815.162 26.5359 814.443 27.8038C813.116 30.1192 811.761 32.407 810.407 34.7224C810.351 34.7775 810.268 34.8051 810.185 34.8051C806.121 34.7775 802.057 34.75 797.993 34.75C798.795 33.2615 799.596 31.7731 800.426 30.3122C801.615 28.1897 802.831 26.0949 804.048 24C808.195 24 812.342 24 816.489 24Z" fill="#ADADAD"/>
<path d="M785.524 55.6984C785.8 55.3401 786.105 55.0093 786.326 54.651C788.012 51.7568 789.699 48.8626 791.385 45.9408C791.413 45.8581 791.523 45.8305 791.579 45.7754C791.8 45.9132 792.076 45.9959 792.187 46.1889C792.795 47.1536 793.376 48.1183 793.956 49.0831C795.118 51.0952 796.251 53.1074 797.412 55.092C797.578 55.3401 797.938 55.4779 798.214 55.6709C797.993 56.1395 797.772 56.6356 797.523 57.1042C795.975 59.833 794.426 62.5619 792.878 65.2631C792.629 65.7317 792.325 66.1452 791.938 66.724C790.86 64.9048 789.837 63.1683 788.842 61.4593C787.902 59.8606 786.962 58.2343 786.022 56.6356C785.911 56.4427 785.69 56.3324 785.524 56.1946C785.524 56.0568 785.524 55.8914 785.524 55.6984Z" fill="#EFEFEF"/>
<path d="M981.571 37.5337C981.377 37.7818 981.184 38.0298 980.935 38.3606C980.714 38.1125 980.52 37.892 980.271 37.6164C980.188 38.0574 980.106 38.4433 979.967 39.0497C979.248 38.2228 979.774 37.3959 979.414 36.6241C979.193 36.6516 978.889 36.6516 978.557 36.7068C978.53 37.451 978.474 38.1401 978.447 38.8568C977.7 38.3055 978.032 37.5888 977.866 36.8997C977.673 36.7619 977.396 36.5965 977.12 36.4311C977.147 36.376 977.175 36.2933 977.175 36.2382C978.143 36.2382 979.083 36.2382 980.161 36.2382C980.354 36.5138 980.603 36.8721 980.852 37.2305C981.46 37.0927 981.267 36.0177 982.124 36.2106C982.207 36.9273 982.29 37.6715 982.373 38.3882C982.373 38.5811 982.373 38.7465 982.373 38.9394C982.179 38.8843 981.958 38.8568 981.681 38.8016C981.709 38.4157 981.709 38.0298 981.737 37.6715C981.737 37.5888 981.737 37.5061 981.709 37.4234C981.681 37.3959 981.626 37.4786 981.571 37.5337Z" fill="#D9D9D9"/>
<path d="M816.489 66.9997C816.489 66.917 816.489 66.8343 816.489 66.7516C816.572 66.7241 816.682 66.6965 816.765 66.6689C820.829 66.6965 824.866 66.6965 828.93 66.7241C828.93 66.8068 828.93 66.8895 828.93 66.9997C824.783 66.9997 820.636 66.9997 816.489 66.9997Z" fill="#EFEFEF"/>
<path d="M982.372 38.3333C982.289 37.6166 982.206 36.8724 982.124 36.1557C982.206 36.0455 982.289 35.9628 982.372 35.8525C982.372 36.6795 982.372 37.5064 982.372 38.3333Z" fill="#909090"/>
<path d="M852.928 53.5762C852.928 57.1595 852.928 60.4397 852.928 63.83C851.407 63.83 849.942 63.83 848.394 63.83C848.366 63.582 848.283 63.2788 848.283 62.9755C848.283 57.1871 848.2 51.3987 848.311 45.6378C848.394 41.0897 850.716 36.7346 855.942 35.4391C860.531 34.309 864.678 35.1083 867.802 38.9122C872.143 44.2045 870.512 54.1551 862.218 56.0845C859.176 56.8012 856.273 56.3602 853.785 54.2929C853.592 54.1275 853.37 53.9621 852.928 53.5762ZM865.259 45.7205C865.231 45.307 865.203 44.8936 865.148 44.4801C864.789 41.641 862.715 39.6288 859.591 39.2705C857.352 39.0224 854.532 40.1525 853.398 42.9089C852.873 44.1769 852.817 45.5 852.956 46.823C853.453 51.0128 857.905 53.4384 861.72 51.6192C864.208 50.4339 865.176 48.3115 865.259 45.7205Z" fill="#D9D9D9"/>
<path d="M927.078 55.8092C925.862 55.947 924.784 56.14 923.678 56.1675C920.885 56.2227 918.065 56.3329 915.273 56.1951C913.918 56.14 912.564 55.7265 911.292 55.2028C908.555 54.1002 907.698 52.0881 907.863 49.249C908.112 45.1695 910.573 43.7362 914.526 43.3227C916.794 43.0746 919.116 43.2676 921.411 43.2676C921.715 43.2676 922.047 43.2676 922.351 43.2676C922.461 41.09 921.494 39.6291 919.475 39.1605C916.932 38.5817 914.361 38.5541 911.9 39.6567C911.568 39.7945 911.236 39.9599 910.905 40.0977C909.135 38.7471 909.273 36.7625 911.264 35.8529C912.176 35.4394 913.199 35.1913 914.167 35.1086C916.517 34.8881 918.839 34.9432 921.162 35.5772C924.977 36.5971 927.078 39.2432 927.106 43.1298C927.134 47.0714 927.106 51.0131 927.106 54.9823C927.134 55.2028 927.106 55.4233 927.078 55.8092ZM922.517 46.8233C921.632 46.7131 920.83 46.5477 920.001 46.4926C918.176 46.3823 916.324 46.2721 914.554 46.8785C913.199 47.3471 912.508 48.4221 912.536 49.8278C912.564 51.1785 913.227 52.1708 914.609 52.5567C917.208 53.2458 919.835 53.0804 922.489 52.6118C922.517 50.6823 922.517 48.8631 922.517 46.8233Z" fill="#D9D9D9"/>
<path d="M895.339 45.7203C895.533 51.2331 891.054 56.36 884.28 56.4152C877.949 56.4703 873.083 51.7293 873.138 45.6376C873.166 39.5184 877.921 35.0255 884.28 35.0255C890.805 34.9979 895.56 40.0422 895.339 45.7203ZM884.225 39.1325C880.631 39.1325 877.977 41.9441 877.977 45.7479C877.977 49.4139 880.686 52.2806 884.17 52.2806C887.847 52.2806 890.501 49.5793 890.473 45.7203C890.473 41.1447 887.294 39.105 884.225 39.1325Z" fill="#D9D9D9"/>
<path d="M974.106 40.5662C971.507 38.9123 968.604 38.4162 965.563 38.6367C964.872 38.6918 964.181 38.8296 963.545 39.0777C962.522 39.436 962.052 40.1251 962.079 41.0348C962.107 41.9995 962.688 42.6059 963.545 42.7989C965.01 43.1296 966.503 43.3501 967.996 43.5982C969.406 43.8463 970.788 44.0944 972.198 44.37C972.558 44.4527 972.889 44.5905 973.249 44.7283C977.037 46.4097 977.866 51.1507 974.908 54.045C973.747 55.1751 972.336 55.7815 970.761 56.0571C966.226 56.8841 961.886 56.2501 957.739 54.293C957.545 54.2104 957.352 54.045 957.075 53.852C957.628 52.8322 958.181 51.8398 958.679 50.9302C960.586 51.454 962.383 52.0879 964.263 52.4738C966.116 52.8597 968.024 52.8873 969.876 52.3636C970.484 52.1706 971.175 51.7847 971.535 51.2886C972.309 50.1584 971.618 48.7251 970.097 48.3392C968.825 48.0085 967.471 47.8706 966.143 47.7052C964.374 47.4572 962.577 47.3469 960.891 46.6027C959.011 45.7758 957.711 44.4251 957.462 42.3027C957.213 39.9322 957.905 37.9751 959.978 36.5969C961.305 35.7149 962.826 35.3014 964.374 35.1361C966.945 34.888 969.516 34.9431 972.06 35.6046C972.724 35.77 973.387 36.0181 973.968 36.3489C976.014 37.479 976.069 39.1053 974.106 40.5662Z" fill="#D9D9D9"/>
<path d="M903.965 55.8091C902.389 55.8091 900.979 55.8091 899.458 55.8091C899.431 55.3957 899.375 54.9822 899.375 54.5963C899.375 45.9963 899.375 37.4239 899.375 28.824C899.375 26.7015 900.094 26.0124 902.223 26.1778C902.804 26.2054 903.384 26.3983 903.965 26.5086C903.965 36.3214 903.965 45.9963 903.965 55.8091Z" fill="#D9D9D9"/>
<path d="M841.123 45.5C840.791 46.134 840.487 46.7955 840.128 47.4295C838.33 50.4891 836.533 53.5211 834.736 56.5807C834.322 56.4705 833.907 56.3051 833.492 56.2775C829.926 56.25 826.387 56.25 822.82 56.25C822.82 56.1397 822.82 56.0295 822.793 55.9192C822.959 55.5884 823.097 55.2577 823.263 54.9545C825.087 51.8122 826.885 48.6699 828.709 45.5C832.884 45.5 837.003 45.5 841.123 45.5Z" fill="#909090"/>
<path d="M841.122 45.5C837.003 45.5 832.884 45.5 828.736 45.5C828.488 44.9763 828.239 44.425 827.962 43.9288C826.248 40.8692 824.506 37.8372 822.765 34.8051C826.856 34.7776 830.976 34.7776 835.068 34.75C837.058 38.1679 839.077 41.5859 841.067 45.0038C841.15 45.1141 841.095 45.3346 841.122 45.5Z" fill="#B7B7B7"/>
<path d="M936.478 55.8085C934.902 55.8085 933.437 55.8085 931.889 55.8085C931.861 55.4778 931.806 55.1194 931.778 54.7887C931.778 50.9848 931.778 47.1534 931.778 43.3496C931.778 42.6605 931.778 41.9714 931.917 41.2823C932.552 37.699 934.764 35.6317 938.663 35.1079C940.487 34.8599 942.34 34.915 944.109 35.549C946.404 36.3483 946.846 38.14 945.187 39.9592C944.247 39.7387 943.335 39.3804 942.395 39.2977C941.372 39.215 940.266 39.215 939.271 39.4631C937.363 39.9868 936.7 41.5304 936.506 43.3496C936.423 44.1214 936.478 44.9207 936.478 45.6925C936.478 48.5868 936.478 51.481 936.478 54.3752C936.478 54.8438 936.478 55.2848 936.478 55.8085Z" fill="#D9D9D9"/>
<path d="M822.848 56.25C826.414 56.25 829.981 56.25 833.52 56.2776C833.934 56.2776 834.349 56.4705 834.764 56.5808C833.05 59.5852 831.335 62.5897 829.649 65.5942C829.428 65.9801 829.179 66.366 828.958 66.7794C824.894 66.7519 820.857 66.7519 816.793 66.7243C816.876 66.4762 816.931 66.2006 817.069 65.9525C818.092 64.1884 819.088 62.3968 820.138 60.6327C820.995 59.1442 821.935 57.7109 822.848 56.25Z" fill="#D9D9D9"/>
<path d="M953.343 35.9906C953.343 42.6335 953.343 49.1662 953.343 55.8091C951.85 55.8091 950.385 55.8091 948.809 55.8091C948.781 55.3129 948.754 54.8719 948.754 54.4309C948.754 49.1386 948.836 43.8739 948.726 38.5816C948.671 35.5771 950.412 35.3566 952.431 35.7149C952.679 35.7425 952.956 35.8527 953.343 35.9906Z" fill="#D9D9D9"/>
<path d="M953.896 29.3198C953.896 30.9736 952.68 32.214 951.076 32.1865C949.5 32.1589 948.339 30.9736 948.312 29.3749C948.312 27.7211 949.528 26.4807 951.132 26.5083C952.707 26.5358 953.896 27.7486 953.896 29.3198Z" fill="#D9D9D9"/>
<path d="M981.571 37.5335C981.626 37.4784 981.654 37.4233 981.709 37.3682C981.709 37.4509 981.709 37.5336 981.737 37.6162C981.681 37.5887 981.626 37.5611 981.571 37.5335Z" fill="#909090"/>
<path d="M822.848 56.2495C821.936 57.7104 820.996 59.1437 820.111 60.6322C819.06 62.3963 818.065 64.1604 817.042 65.952C816.904 66.1725 816.848 66.4482 816.766 66.7238C816.683 66.7514 816.572 66.7789 816.489 66.8065C814.388 63.2232 812.314 59.6123 810.213 56.029C810.351 56.029 810.517 56.0014 810.655 56.0014C814.637 56.0014 818.646 56.0014 822.627 56.0014C822.682 55.9739 822.737 55.9739 822.82 55.9463C822.82 56.029 822.82 56.1392 822.848 56.2495Z" fill="#949494"/>
<path d="M798.242 55.6987C797.965 55.5058 797.578 55.3955 797.44 55.1199C796.251 53.1353 795.145 51.1231 793.984 49.1109C793.431 48.1186 792.823 47.1539 792.214 46.2167C792.104 46.0237 791.8 45.9411 791.606 45.8032C791.717 45.6103 791.8 45.4449 791.91 45.252C795.974 45.252 800.011 45.252 804.075 45.252C804.186 45.2795 804.296 45.2795 804.407 45.3071H804.379C804.352 45.4725 804.324 45.6378 804.296 45.8032C803.909 46.2718 803.439 46.6853 803.135 47.209C801.449 49.993 799.845 52.8596 798.242 55.6987Z" fill="#D9D9D9"/>
<path d="M804.269 45.7754C804.296 45.6101 804.324 45.4447 804.352 45.2793C804.849 45.3069 805.347 45.362 805.845 45.362C809.301 45.3896 812.784 45.3896 816.24 45.4171C816.102 45.803 816.019 46.2165 815.825 46.5472C814.664 48.5594 813.475 50.5165 812.342 52.5562C811.734 53.6588 810.794 54.5959 810.683 55.9466C810.545 55.9466 810.379 55.9741 810.241 55.9741C808.222 52.5838 806.232 49.1658 804.269 45.7754Z" fill="#D9D9D9"/>
<path d="M804.047 45.2245C799.983 45.2245 795.947 45.2245 791.883 45.2245C792.961 43.2675 794.039 41.338 795.145 39.3809C795.726 38.3611 796.306 37.3136 796.914 36.2938C797.191 35.8252 797.55 35.4117 797.882 34.9707C798.131 35.2188 798.407 35.4393 798.601 35.7425C799.181 36.6797 799.734 37.6169 800.287 38.554C801.531 40.7867 802.776 43.0194 804.047 45.2245Z" fill="#C8C8C8"/>
<path d="M804.048 45.2243C802.804 43.0192 801.532 40.7865 800.26 38.5814C799.707 37.6442 799.154 36.6795 798.574 35.7699C798.38 35.4942 798.104 35.2737 797.855 34.9981C797.882 34.9154 797.938 34.8327 797.965 34.75C802.029 34.7776 806.094 34.7776 810.185 34.8051C809.245 36.5141 808.278 38.2231 807.338 39.9045C806.342 41.6961 805.375 43.4878 804.379 45.2519C804.269 45.2519 804.158 45.2519 804.048 45.2243Z" fill="#D5D9DA"/>
<path d="M816.24 45.4453C816.461 45.6383 816.765 45.7761 816.904 45.9966C818.839 49.3043 820.746 52.6395 822.654 55.9472C818.673 55.9472 814.664 55.9472 810.683 55.9472C810.793 54.5966 811.733 53.6594 812.342 52.5568C813.475 50.5447 814.664 48.56 815.825 46.5479C815.991 46.2171 816.102 45.8036 816.24 45.4453Z" fill="#D9D9D9"/>
<rect y="-1" width="46" height="92" fill="url(#paint0_linear_43_20740)"/>
<rect width="46" height="92" transform="matrix(-1 0 0 1 1009 -1)" fill="url(#paint1_linear_43_20740)"/>
</g>
<defs>
<linearGradient id="paint0_linear_43_20740" x1="46" y1="45" x2="-1.37091e-06" y2="45" gradientUnits="userSpaceOnUse">
<stop stop-color="#191414" stop-opacity="0"/>
<stop offset="1" stop-color="#191414"/>
</linearGradient>
<linearGradient id="paint1_linear_43_20740" x1="46" y1="46" x2="-1.37091e-06" y2="46" gradientUnits="userSpaceOnUse">
<stop stop-color="#191414" stop-opacity="0"/>
<stop offset="1" stop-color="#191414"/>
</linearGradient>
<clipPath id="clip0_43_20740">
<rect width="1009" height="91" fill="white"/>
</clipPath>
</defs>
</svg>
