<svg width="1009" height="91" viewBox="0 0 1009 91" fill="none" xmlns="http://www.w3.org/2000/svg">
<g clip-path="url(#clip0_43_21145)">
<rect width="1009" height="91" fill="#191414"/>
<path d="M-10 0H1019" stroke="#191414" stroke-width="3"/>
<path d="M-10 91H1019" stroke="#191414" stroke-width="3"/>
<path d="M-3.52075 28.6465H0.316746L4.0892 38.6467H4.13343L7.97092 28.6465H11.5717L5.27817 43.907H2.58282L-3.51816 28.6465H-3.52075Z" fill="#D9D9D9"/>
<path d="M13.5078 28.6465H23.8756V31.7501H16.8692V34.5961H23.4879V37.6997H16.8692V40.8033H24.2632V43.907H13.5078V28.6465Z" fill="#D9D9D9"/>
<path d="M27.1743 28.6465H33.0802C33.8555 28.6465 34.5917 28.7219 35.289 28.8728C35.9863 29.0237 36.5977 29.276 37.1206 29.6273C37.6461 29.9785 38.0624 30.4545 38.372 31.0503C38.6816 31.646 38.8351 32.3901 38.8351 33.2824C38.8351 34.3594 38.5541 35.2751 37.9948 36.0296C37.4354 36.784 36.6159 37.2627 35.5388 37.463L39.4179 43.907H35.3879L32.1982 37.8064H30.5383V43.907H27.1769V28.6465H27.1743ZM30.5357 34.9604H32.5182C32.82 34.9604 33.14 34.9499 33.4782 34.9291C33.8164 34.9083 34.1208 34.8433 34.394 34.734C34.6672 34.6274 34.8935 34.4583 35.0731 34.2267C35.2526 33.9978 35.3436 33.6752 35.3436 33.2564C35.3436 32.8687 35.2656 32.5592 35.1069 32.3302C34.9482 32.1013 34.7478 31.9244 34.5033 31.8021C34.2587 31.6798 33.9777 31.5966 33.6629 31.555C33.3455 31.5107 33.0385 31.4899 32.7367 31.4899H30.5383V34.9604H30.5357Z" fill="#D9D9D9"/>
<path d="M105.864 44.5016L111.737 37.8251L107.338 32.8237C106.906 32.3335 106.209 32.3335 105.778 32.8237L95.5065 44.5016C95.0753 44.9918 95.0753 45.7841 95.5065 46.2743L105.778 57.9522C106.209 58.4424 106.906 58.4424 107.338 57.9522L111.737 52.9508L105.864 46.2743C105.433 45.7841 105.433 44.9918 105.864 44.5016Z" fill="#D9D9D9"/>
<path d="M127.967 44.5016L117.695 32.8237C117.264 32.3335 116.567 32.3335 116.136 32.8237L111.737 37.8251L117.609 44.5016C118.041 44.9918 118.041 45.7841 117.609 46.2743L111.737 52.9508L116.136 57.9522C116.567 58.4424 117.264 58.4424 117.695 57.9522L127.967 46.2743C128.398 45.7841 128.398 44.9918 127.967 44.5016Z" fill="#D9D9D9"/>
<path d="M112.953 34.8705C112.286 35.6295 111.193 35.6295 110.523 34.8705C109.856 34.1114 108.763 32.867 108.093 32.108C107.426 31.349 107.87 30.7256 109.083 30.7256H114.393C115.605 30.7256 116.051 31.3466 115.383 32.108C114.715 32.8694 113.623 34.1114 112.953 34.8705Z" fill="#AAAAAA"/>
<path d="M110.523 56.1298C111.191 55.3708 112.285 55.3708 112.953 56.1298C113.62 56.8888 114.713 58.1332 115.383 58.8923C116.052 59.6513 115.604 60.2747 114.393 60.2747H109.083C107.871 60.2747 107.425 59.6537 108.093 58.8923C108.761 58.1332 109.853 56.8888 110.523 56.1298Z" fill="#AAAAAA"/>
<path d="M140.754 48.5705C139.678 49.6567 138.361 50.1998 136.804 50.1998C135.246 50.1998 133.929 49.6567 132.853 48.5705C131.777 47.4842 131.239 46.1674 131.239 44.62C131.239 43.0624 131.777 41.7456 132.853 40.6696C133.929 39.5834 135.246 39.0403 136.804 39.0403C138.361 39.0403 139.678 39.5834 140.754 40.6696C141.84 41.7456 142.384 43.0624 142.384 44.62C142.384 46.1674 141.84 47.4842 140.754 48.5705ZM133.837 47.6021C134.636 48.4014 135.625 48.801 136.804 48.801C137.982 48.801 138.966 48.4014 139.755 47.6021C140.554 46.7925 140.954 45.7985 140.954 44.62C140.954 43.4313 140.554 42.4373 139.755 41.638C138.966 40.8285 137.982 40.4237 136.804 40.4237C135.625 40.4237 134.636 40.8285 133.837 41.638C133.048 42.4373 132.654 43.4313 132.654 44.62C132.654 45.7985 133.048 46.7925 133.837 47.6021ZM150.481 50L148.068 45.8805H145.532V50H144.102V39.2401H148.406C149.328 39.2401 150.117 39.568 150.773 40.2239C151.429 40.8694 151.757 41.6534 151.757 42.5757C151.757 43.2725 151.547 43.9078 151.127 44.4817C150.717 45.0556 150.184 45.4603 149.528 45.696L152.064 50H150.481ZM145.532 40.5774V44.5893H148.406C148.939 44.5893 149.39 44.3946 149.759 44.0052C150.138 43.6055 150.328 43.129 150.328 42.5757C150.328 42.0223 150.138 41.5509 149.759 41.1615C149.39 40.7721 148.939 40.5774 148.406 40.5774H145.532ZM153.499 39.2401H154.929V50H153.499V39.2401ZM158.666 48.6473H163.662V50H157.237V39.2401H163.585V40.5928H158.666V43.8976H163.201V45.2349H158.666V48.6473ZM172.074 39.2401H173.504V50H172.351L166.817 41.9608V50H165.388V39.2401H166.541L172.074 47.2639V39.2401ZM182.692 39.2401V40.5928H179.51V50H178.096V40.5928H174.929V39.2401H182.692ZM190.412 50L189.536 47.5867H184.694L183.818 50H182.296L186.308 39.2401H187.922L191.934 50H190.412ZM185.186 46.2494H189.044L187.107 40.9463L185.186 46.2494ZM194.633 48.6473H199.275V50H193.203V39.2401H194.633V48.6473ZM210.7 44.4202C211.192 44.6559 211.581 44.9941 211.868 45.4347C212.166 45.8754 212.314 46.3826 212.314 46.9565C212.314 47.8173 212.012 48.5397 211.407 49.1238C210.803 49.7079 210.065 50 209.194 50H204.552V39.2401H208.856C209.696 39.2401 210.408 39.5219 210.992 40.0855C211.576 40.6491 211.868 41.346 211.868 42.176C211.868 43.129 211.479 43.8771 210.7 44.4202ZM208.856 40.5774H205.981V43.8669H208.856C209.306 43.8669 209.686 43.708 209.993 43.3903C210.3 43.0727 210.454 42.6833 210.454 42.2221C210.454 41.7712 210.295 41.3869 209.978 41.0693C209.67 40.7414 209.296 40.5774 208.856 40.5774ZM209.194 48.6627C209.675 48.6627 210.08 48.4936 210.408 48.1554C210.736 47.8173 210.9 47.4022 210.9 46.9104C210.9 46.4287 210.731 46.0188 210.393 45.6807C210.065 45.3425 209.665 45.1734 209.194 45.1734H205.981V48.6627H209.194ZM220.743 49.1699C219.995 49.8565 219.027 50.1998 217.838 50.1998C216.649 50.1998 215.676 49.8565 214.917 49.1699C214.169 48.4731 213.795 47.5457 213.795 46.3877V39.2401H215.225V46.3263C215.225 47.0846 215.45 47.6892 215.901 48.1401C216.352 48.5807 216.998 48.801 217.838 48.801C218.678 48.801 219.324 48.5807 219.775 48.1401C220.225 47.6892 220.451 47.0846 220.451 46.3263V39.2401H221.865V46.3877C221.865 47.5457 221.491 48.4731 220.743 49.1699ZM224.051 39.2401H225.48V50H224.051V39.2401ZM229.218 48.6473H233.86V50H227.789V39.2401H229.218V48.6473ZM239.491 39.2401C240.956 39.2401 242.17 39.7627 243.134 40.808C244.107 41.843 244.594 43.1137 244.594 44.62C244.594 46.1264 244.107 47.4022 243.134 48.4475C242.17 49.4825 240.956 50 239.491 50H235.294V39.2401H239.491ZM239.491 48.6473C240.587 48.6473 241.484 48.263 242.181 47.4945C242.877 46.7259 243.226 45.7678 243.226 44.62C243.226 43.4723 242.877 42.5142 242.181 41.7456C241.484 40.977 240.587 40.5928 239.491 40.5928H236.724V48.6473H239.491ZM246.327 39.2401H247.757V50H246.327V39.2401ZM256.752 39.2401H258.181V50H257.028L251.495 41.9608V50H250.065V39.2401H251.218L256.752 47.2639V39.2401ZM270.858 44.6662V45.3118C270.858 46.7157 270.377 47.8839 269.413 48.8164C268.45 49.7387 267.174 50.1998 265.586 50.1998C263.946 50.1998 262.589 49.6618 261.513 48.5858C260.447 47.4996 259.914 46.1777 259.914 44.62C259.914 43.0624 260.447 41.7456 261.513 40.6696C262.589 39.5834 263.936 39.0403 265.555 39.0403C266.549 39.0403 267.461 39.2811 268.291 39.7627C269.121 40.2341 269.762 40.8592 270.213 41.638L268.983 42.3605C268.676 41.7764 268.209 41.3101 267.584 40.9617C266.969 40.603 266.288 40.4237 265.54 40.4237C264.31 40.4237 263.301 40.8285 262.512 41.638C261.723 42.4373 261.328 43.4313 261.328 44.62C261.328 45.8088 261.723 46.8028 262.512 47.6021C263.311 48.4014 264.341 48.801 265.601 48.801C266.677 48.801 267.548 48.5397 268.214 48.0171C268.881 47.4842 269.285 46.7976 269.429 45.9573H265.478V44.6662H270.858Z" fill="#D9D9D9"/>
<path fill-rule="evenodd" clip-rule="evenodd" d="M341.303 47.2809C341.303 47.2805 341.303 47.2801 341.304 47.2799L357.541 29.064C357.71 28.8745 357.845 28.6638 357.948 28.4401C359.982 28.6286 361.574 30.3398 361.574 32.4229V58.5765C361.574 60.7856 359.783 62.5765 357.574 62.5765H337.746L347.955 52.5447L356.662 58.6598C357.558 59.2895 358.762 59.0434 359.377 58.1037C359.931 57.2583 359.835 56.1089 359.149 55.3824L347.955 43.5137V43.5143L331.717 61.7305C331.494 61.9803 331.329 62.2671 331.222 62.5716C329.105 62.4683 327.42 60.7191 327.42 58.5765V32.4229C327.42 30.2137 329.211 28.4229 331.42 28.4229H351.303L341.303 38.2498L332.596 32.1347C331.699 31.5051 330.496 31.7512 329.881 32.6909C329.327 33.5363 329.423 34.6857 330.109 35.4121L341.303 47.2809Z" fill="#D9D9D9"/>
<path d="M475.725 51.4747C474.518 51.4747 473.241 51.3484 471.894 51.0958C470.547 50.8432 469.34 50.4082 468.273 49.7907C467.824 49.51 467.501 49.1873 467.305 48.8224C467.136 48.4295 467.066 48.0506 467.094 47.6857C467.151 47.2928 467.291 46.956 467.515 46.6753C467.768 46.3946 468.077 46.2122 468.442 46.128C468.835 46.0438 469.256 46.114 469.705 46.3385C470.827 46.8718 471.88 47.2507 472.862 47.4752C473.844 47.6717 474.813 47.7699 475.767 47.7699C477.114 47.7699 478.111 47.5454 478.756 47.0963C479.43 46.6192 479.766 46.0017 479.766 45.2439C479.766 44.5984 479.542 44.1072 479.093 43.7704C478.672 43.4056 478.026 43.1389 477.156 42.9705L472.946 42.1706C471.206 41.8338 469.873 41.2023 468.947 40.2761C468.049 39.3219 467.6 38.101 467.6 36.6135C467.6 35.2663 467.964 34.1015 468.694 33.1192C469.452 32.1369 470.49 31.3791 471.81 30.8458C473.129 30.3125 474.644 30.0459 476.356 30.0459C477.591 30.0459 478.742 30.1862 479.809 30.4669C480.903 30.7195 481.956 31.1265 482.966 31.6878C483.387 31.9123 483.668 32.207 483.808 32.5719C483.976 32.9367 484.019 33.3156 483.934 33.7086C483.85 34.0734 483.682 34.4102 483.429 34.719C483.177 34.9996 482.854 35.1821 482.461 35.2663C482.096 35.3224 481.675 35.2382 481.198 35.0137C480.328 34.5646 479.486 34.2418 478.672 34.0454C477.886 33.8489 477.128 33.7507 476.398 33.7507C475.023 33.7507 473.999 33.9892 473.325 34.4664C472.68 34.9435 472.357 35.575 472.357 36.3609C472.357 36.9503 472.553 37.4414 472.946 37.8344C473.339 38.2273 473.943 38.4939 474.757 38.6343L478.967 39.4341C480.791 39.7709 482.166 40.3884 483.092 41.2865C484.047 42.1847 484.524 43.3915 484.524 44.9071C484.524 46.956 483.724 48.5698 482.124 49.7486C480.524 50.8993 478.391 51.4747 475.725 51.4747Z" fill="#D9D9D9"/>
<path d="M450.84 51.4745C449.128 51.4745 447.711 51.1657 446.588 50.5483C445.465 49.9027 444.623 48.9485 444.062 47.6855C443.529 46.4225 443.262 44.8508 443.262 42.9703V32.7822C443.262 31.884 443.487 31.2245 443.936 30.8035C444.385 30.3544 445.03 30.1299 445.872 30.1299C446.714 30.1299 447.36 30.3544 447.809 30.8035C448.286 31.2245 448.525 31.884 448.525 32.7822V43.0545C448.525 44.514 448.819 45.5945 449.409 46.2962C449.998 46.9979 450.938 47.3487 452.229 47.3487C453.633 47.3487 454.784 46.8716 455.682 45.9173C456.58 44.935 457.029 43.6439 457.029 42.0441V32.7822C457.029 31.884 457.253 31.2245 457.702 30.8035C458.151 30.3544 458.797 30.1299 459.639 30.1299C460.481 30.1299 461.127 30.3544 461.576 30.8035C462.053 31.2245 462.291 31.884 462.291 32.7822V48.6959C462.291 50.4921 461.435 51.3903 459.723 51.3903C458.909 51.3903 458.278 51.1657 457.829 50.7167C457.38 50.2395 457.155 49.566 457.155 48.6959V45.4963L457.745 46.7593C457.155 48.2749 456.257 49.4397 455.05 50.2536C453.871 51.0675 452.468 51.4745 450.84 51.4745Z" fill="#D9D9D9"/>
<path d="M421.416 51.264C420.799 51.264 420.28 51.0956 419.859 50.7588C419.466 50.3939 419.255 49.9308 419.227 49.3695C419.227 48.8082 419.466 48.2188 419.943 47.6013L426.763 39.1813V41.6652L420.364 33.7926C419.859 33.1751 419.62 32.5857 419.648 32.0244C419.676 31.463 419.887 31.014 420.28 30.6772C420.701 30.3123 421.22 30.1299 421.837 30.1299C422.483 30.1299 423.016 30.2421 423.437 30.4667C423.886 30.6912 424.293 31.042 424.658 31.5192L429.71 38.0025H427.858L432.952 31.5192C433.345 31.042 433.751 30.6912 434.172 30.4667C434.593 30.2421 435.113 30.1299 435.73 30.1299C436.376 30.1299 436.895 30.3123 437.288 30.6772C437.681 31.042 437.877 31.5051 437.877 32.0665C437.905 32.6278 437.667 33.2172 437.162 33.8347L430.804 41.6231V39.2655L437.625 47.6013C438.13 48.1907 438.368 48.7661 438.34 49.3274C438.312 49.8887 438.088 50.3518 437.667 50.7167C437.274 51.0815 436.755 51.264 436.109 51.264C435.492 51.264 434.972 51.1517 434.551 50.9272C434.13 50.7026 433.723 50.3518 433.33 49.8747L427.858 42.9703H429.626L424.195 49.8747C423.83 50.3237 423.437 50.6746 423.016 50.9272C422.595 51.1517 422.062 51.264 421.416 51.264Z" fill="#D9D9D9"/>
<path d="M407.016 51.4747C404.686 51.4747 402.679 51.0397 400.995 50.1696C399.311 49.2995 398.006 48.0646 397.08 46.4648C396.182 44.865 395.733 42.9705 395.733 40.7813C395.733 38.6483 396.168 36.7819 397.038 35.1821C397.936 33.5823 399.157 32.3333 400.701 31.4352C402.272 30.509 404.055 30.0459 406.047 30.0459C407.507 30.0459 408.812 30.2845 409.963 30.7616C411.141 31.2387 412.138 31.9264 412.952 32.8245C413.794 33.7226 414.425 34.8172 414.846 36.1083C415.295 37.3713 415.52 38.8027 415.52 40.4024C415.52 40.9076 415.337 41.3006 414.973 41.5812C414.636 41.8338 414.145 41.9601 413.499 41.9601H399.985V38.929H411.815L411.141 39.5604C411.141 38.2694 410.945 37.1888 410.552 36.3188C410.187 35.4487 409.64 34.7891 408.91 34.3401C408.208 33.8629 407.324 33.6244 406.258 33.6244C405.079 33.6244 404.069 33.905 403.227 34.4664C402.413 34.9996 401.781 35.7715 401.332 36.7819C400.911 37.7642 400.701 38.943 400.701 40.3182V40.6129C400.701 42.9144 401.234 44.6405 402.3 45.7912C403.395 46.9139 404.995 47.4752 407.1 47.4752C407.83 47.4752 408.644 47.391 409.542 47.2226C410.468 47.0261 411.338 46.7034 412.152 46.2543C412.741 45.9175 413.26 45.7772 413.71 45.8333C414.159 45.8614 414.509 46.0157 414.762 46.2964C415.043 46.5771 415.211 46.9279 415.267 47.3489C415.323 47.7418 415.239 48.1488 415.015 48.5698C414.818 48.9908 414.467 49.3557 413.962 49.6644C412.98 50.2819 411.843 50.745 410.552 51.0537C409.289 51.3344 408.11 51.4747 407.016 51.4747Z" fill="#D9D9D9"/>
<path d="M374.433 51.3905C373.591 51.3905 372.945 51.166 372.496 50.7169C372.047 50.2398 371.823 49.5662 371.823 48.6961V32.7824C371.823 31.9123 372.047 31.2528 372.496 30.8037C372.945 30.3546 373.577 30.1301 374.391 30.1301C375.205 30.1301 375.836 30.3546 376.285 30.8037C376.734 31.2528 376.959 31.9123 376.959 32.7824V35.6452L376.496 34.5927C377.113 33.1051 378.068 31.9825 379.359 31.2247C380.678 30.4388 382.165 30.0459 383.821 30.0459C385.477 30.0459 386.838 30.3546 387.905 30.9721C388.971 31.5896 389.771 32.5298 390.305 33.7928C390.838 35.0277 391.104 36.5994 391.104 38.508V48.6961C391.104 49.5662 390.88 50.2398 390.431 50.7169C389.982 51.166 389.336 51.3905 388.494 51.3905C387.652 51.3905 386.993 51.166 386.516 50.7169C386.067 50.2398 385.842 49.5662 385.842 48.6961V38.7606C385.842 37.1608 385.533 35.996 384.916 35.2663C384.326 34.5365 383.4 34.1717 382.137 34.1717C380.594 34.1717 379.359 34.6628 378.432 35.6452C377.534 36.5994 377.085 37.8765 377.085 39.4763V48.6961C377.085 50.4924 376.201 51.3905 374.433 51.3905Z" fill="#D9D9D9"/>
<path d="M476.794 61.171C476.713 61.171 476.65 61.1485 476.605 61.1035C476.56 61.054 476.538 60.9866 476.538 60.9011V56.5902C476.538 56.5002 476.56 56.4328 476.605 56.3878C476.65 56.3428 476.713 56.3203 476.794 56.3203C476.866 56.3203 476.922 56.3361 476.963 56.3675C477.008 56.3945 477.048 56.4417 477.084 56.5092L478.933 59.9904H478.73L480.572 56.5092C480.608 56.4417 480.646 56.3945 480.687 56.3675C480.727 56.3361 480.786 56.3203 480.862 56.3203C480.939 56.3203 480.999 56.3428 481.044 56.3878C481.089 56.4328 481.112 56.5002 481.112 56.5902V60.9011C481.112 60.9866 481.089 61.054 481.044 61.1035C481.004 61.1485 480.941 61.171 480.855 61.171C480.774 61.171 480.711 61.1485 480.666 61.1035C480.621 61.054 480.599 60.9866 480.599 60.9011V57.1096H480.761L479.074 60.2737C479.043 60.3322 479.009 60.3749 478.973 60.4019C478.942 60.4244 478.894 60.4356 478.831 60.4356C478.768 60.4356 478.719 60.4221 478.683 60.3951C478.647 60.3681 478.615 60.3277 478.589 60.2737L476.882 57.1029H477.044V60.9011C477.044 60.9866 477.021 61.054 476.976 61.1035C476.936 61.1485 476.875 61.171 476.794 61.171Z" fill="#D9D9D9"/>
<path d="M472.142 61.1845C471.827 61.1845 471.551 61.144 471.312 61.063C471.078 60.9776 470.881 60.8539 470.719 60.692C470.557 60.5256 470.435 60.3209 470.354 60.0781C470.273 59.8352 470.233 59.5563 470.233 59.2415V56.6037C470.233 56.5092 470.255 56.4395 470.3 56.3945C470.35 56.345 470.42 56.3203 470.51 56.3203C470.599 56.3203 470.667 56.345 470.712 56.3945C470.761 56.4395 470.786 56.5092 470.786 56.6037V59.2145C470.786 59.7093 470.901 60.0803 471.13 60.3277C471.36 60.5705 471.697 60.692 472.142 60.692C472.587 60.692 472.922 60.5705 473.147 60.3277C473.372 60.0803 473.485 59.7093 473.485 59.2145V56.6037C473.485 56.5092 473.509 56.4395 473.559 56.3945C473.608 56.345 473.678 56.3203 473.768 56.3203C473.853 56.3203 473.919 56.345 473.964 56.3945C474.013 56.4395 474.038 56.5092 474.038 56.6037V59.2415C474.038 59.6598 473.966 60.0151 473.822 60.3074C473.683 60.5998 473.471 60.8202 473.188 60.9686C472.904 61.1125 472.556 61.1845 472.142 61.1845Z" fill="#D9D9D9"/>
<path d="M465.715 61.1239C465.626 61.1239 465.556 61.0992 465.506 61.0497C465.457 60.9957 465.432 60.9238 465.432 60.8338V56.6241C465.432 56.5296 465.455 56.4577 465.5 56.4082C465.549 56.3587 465.619 56.334 465.709 56.334C465.799 56.334 465.866 56.3587 465.911 56.4082C465.961 56.4577 465.985 56.5296 465.985 56.6241V60.6382H468.198C468.279 60.6382 468.342 60.6607 468.387 60.7056C468.432 60.7461 468.455 60.8046 468.455 60.8811C468.455 60.9575 468.432 61.0182 468.387 61.0632C468.342 61.1037 468.279 61.1239 468.198 61.1239H465.715Z" fill="#D9D9D9"/>
<path d="M460.092 61.1706C460.002 61.1706 459.932 61.1459 459.882 61.0964C459.837 61.0424 459.815 60.9705 459.815 60.8805V56.6505C459.815 56.5561 459.84 56.4864 459.889 56.4414C459.939 56.3919 460.008 56.3672 460.098 56.3672H461.697C462.205 56.3672 462.597 56.4931 462.871 56.745C463.145 56.9924 463.283 57.3432 463.283 57.7974C463.283 58.2472 463.145 58.598 462.871 58.8499C462.597 59.1017 462.205 59.2277 461.697 59.2277H460.368V60.8805C460.368 60.9705 460.346 61.0424 460.301 61.0964C460.256 61.1459 460.186 61.1706 460.092 61.1706ZM460.368 58.7622H461.63C461.994 58.7622 462.268 58.6812 462.453 58.5193C462.642 58.3529 462.736 58.1123 462.736 57.7974C462.736 57.4781 462.642 57.2375 462.453 57.0756C462.268 56.9091 461.994 56.8259 461.63 56.8259H460.368V58.7622Z" fill="#D9D9D9"/>
<path d="M455.983 61.1843C455.516 61.1843 455.115 61.0853 454.782 60.8874C454.45 60.6895 454.193 60.4084 454.013 60.0441C453.838 59.6798 453.75 59.2458 453.75 58.7421C453.75 58.3643 453.8 58.027 453.899 57.7301C454.002 57.4288 454.148 57.1747 454.337 56.9678C454.531 56.7564 454.767 56.5945 455.046 56.482C455.324 56.3651 455.637 56.3066 455.983 56.3066C456.262 56.3066 456.528 56.3471 456.779 56.4281C457.031 56.5045 457.249 56.6192 457.434 56.7721C457.492 56.8171 457.53 56.8688 457.548 56.9273C457.571 56.9813 457.573 57.0353 457.555 57.0892C457.542 57.1387 457.515 57.1814 457.474 57.2174C457.438 57.2489 457.393 57.2646 457.339 57.2646C457.285 57.2646 457.225 57.2421 457.157 57.1972C456.995 57.0667 456.818 56.97 456.624 56.9071C456.431 56.8441 456.222 56.8126 455.997 56.8126C455.641 56.8126 455.34 56.8891 455.093 57.042C454.845 57.1904 454.659 57.4086 454.533 57.6964C454.407 57.9842 454.344 58.3328 454.344 58.7421C454.344 59.1514 454.407 59.5022 454.533 59.7945C454.659 60.0824 454.845 60.3028 455.093 60.4557C455.34 60.6041 455.641 60.6783 455.997 60.6783C456.217 60.6783 456.426 60.6468 456.624 60.5839C456.822 60.5164 457.004 60.4174 457.171 60.287C457.238 60.242 457.299 60.2218 457.353 60.2263C457.407 60.2263 457.452 60.242 457.488 60.2735C457.524 60.305 457.548 60.3455 457.562 60.395C457.58 60.4444 457.58 60.4962 457.562 60.5501C457.548 60.6041 457.515 60.6513 457.461 60.6918C457.272 60.8537 457.049 60.9774 456.793 61.0628C456.541 61.1438 456.271 61.1843 455.983 61.1843Z" fill="#D9D9D9"/>
<path d="M451.121 61.171C451.031 61.171 450.961 61.1462 450.912 61.0968C450.867 61.0428 450.844 60.9708 450.844 60.8809V56.6104C450.844 56.516 450.867 56.444 450.912 56.3945C450.961 56.345 451.031 56.3203 451.121 56.3203C451.211 56.3203 451.278 56.345 451.323 56.3945C451.373 56.444 451.397 56.516 451.397 56.6104V60.8809C451.397 60.9708 451.375 61.0428 451.33 61.0968C451.285 61.1462 451.215 61.171 451.121 61.171Z" fill="#D9D9D9"/>
<path d="M446.772 61.1843C446.264 61.1843 445.834 61.0876 445.484 60.8942C445.137 60.7008 444.874 60.4219 444.694 60.0576C444.514 59.6933 444.424 59.2571 444.424 58.7488C444.424 58.371 444.474 58.0315 444.573 57.7301C444.676 57.4288 444.825 57.1747 445.018 56.9678C445.216 56.7564 445.454 56.5945 445.733 56.482C446.016 56.3651 446.336 56.3066 446.691 56.3066C446.974 56.3066 447.249 56.3471 447.514 56.4281C447.78 56.5045 448.016 56.6282 448.223 56.7991C448.277 56.8396 448.31 56.8846 448.324 56.9341C448.337 56.9835 448.335 57.033 448.317 57.0825C448.303 57.1319 448.279 57.1747 448.243 57.2107C448.211 57.2421 448.169 57.2601 448.115 57.2646C448.065 57.2691 448.013 57.2534 447.959 57.2174C447.775 57.0735 447.579 56.97 447.372 56.9071C447.166 56.8396 446.936 56.8059 446.684 56.8059C446.325 56.8059 446.019 56.8823 445.767 57.0353C445.519 57.1882 445.331 57.4086 445.2 57.6964C445.074 57.9842 445.011 58.3351 445.011 58.7488C445.011 59.3785 445.157 59.8597 445.45 60.1926C445.747 60.5254 446.192 60.6918 446.786 60.6918C447.001 60.6918 447.213 60.6716 447.42 60.6311C447.627 60.5861 447.822 60.5254 448.007 60.4489L447.885 60.766V59.0862H446.92C446.84 59.0862 446.779 59.0659 446.738 59.0254C446.698 58.985 446.678 58.931 446.678 58.8635C446.678 58.7916 446.698 58.7376 446.738 58.7016C446.779 58.6656 446.84 58.6476 446.92 58.6476H448.128C448.205 58.6476 448.263 58.6679 448.303 58.7084C448.344 58.7488 448.364 58.8073 448.364 58.8838V60.6446C448.364 60.712 448.353 60.7683 448.33 60.8132C448.308 60.8582 448.27 60.8919 448.216 60.9144C448.027 60.9909 447.8 61.0561 447.534 61.1101C447.274 61.1595 447.019 61.1843 446.772 61.1843Z" fill="#D9D9D9"/>
<path d="M440.075 61.1843C439.634 61.1843 439.25 61.0853 438.921 60.8874C438.597 60.6851 438.346 60.4017 438.166 60.0374C437.99 59.6731 437.903 59.2413 437.903 58.7421C437.903 58.3643 437.952 58.027 438.051 57.7301C438.154 57.4288 438.301 57.1747 438.49 56.9678C438.678 56.7564 438.906 56.5945 439.171 56.482C439.441 56.3651 439.742 56.3066 440.075 56.3066C440.525 56.3066 440.911 56.4056 441.235 56.6035C441.564 56.8014 441.815 57.0825 441.991 57.4468C442.171 57.8066 442.261 58.2361 442.261 58.7353C442.261 59.1131 442.209 59.4527 442.106 59.754C442.002 60.0554 441.856 60.3118 441.667 60.5231C441.478 60.7345 441.249 60.8987 440.979 61.0156C440.714 61.1281 440.412 61.1843 440.075 61.1843ZM440.075 60.6918C440.417 60.6918 440.705 60.6153 440.938 60.4624C441.177 60.3095 441.359 60.0869 441.485 59.7945C441.611 59.5022 441.674 59.1514 441.674 58.7421C441.674 58.1259 441.534 57.6492 441.256 57.3119C440.981 56.97 440.588 56.7991 440.075 56.7991C439.742 56.7991 439.457 56.8756 439.218 57.0285C438.984 57.1814 438.804 57.4041 438.678 57.6964C438.552 57.9842 438.49 58.3328 438.49 58.7421C438.49 59.3538 438.629 59.8328 438.908 60.1791C439.187 60.5209 439.576 60.6918 440.075 60.6918Z" fill="#D9D9D9"/>
<path d="M433.592 61.1239C433.502 61.1239 433.433 61.0992 433.383 61.0497C433.334 60.9957 433.309 60.9238 433.309 60.8338V56.6241C433.309 56.5296 433.332 56.4577 433.377 56.4082C433.426 56.3587 433.496 56.334 433.586 56.334C433.676 56.334 433.743 56.3587 433.788 56.4082C433.838 56.4577 433.862 56.5296 433.862 56.6241V60.6382H436.075C436.156 60.6382 436.219 60.6607 436.264 60.7056C436.309 60.7461 436.331 60.8046 436.331 60.8811C436.331 60.9575 436.309 61.0182 436.264 61.0632C436.219 61.1037 436.156 61.1239 436.075 61.1239H433.592Z" fill="#D9D9D9"/>
<path d="M426.277 61.171C426.187 61.171 426.117 61.1462 426.068 61.0968C426.023 61.0428 426 60.9686 426 60.8741V58.6613L426.122 59.0459L424.428 56.7116C424.388 56.6531 424.368 56.5947 424.368 56.5362C424.372 56.4732 424.397 56.4215 424.442 56.381C424.487 56.3406 424.545 56.3203 424.617 56.3203C424.68 56.3203 424.736 56.3361 424.786 56.3675C424.835 56.3945 424.88 56.4395 424.921 56.5025L426.358 58.4859H426.216L427.653 56.5025C427.703 56.435 427.75 56.3878 427.795 56.3608C427.84 56.3338 427.894 56.3203 427.957 56.3203C428.029 56.3203 428.085 56.3406 428.125 56.381C428.166 56.417 428.186 56.4665 428.186 56.5295C428.191 56.5879 428.17 56.6509 428.125 56.7183L426.439 59.0459L426.554 58.6613V60.8741C426.554 61.072 426.461 61.171 426.277 61.171Z" fill="#D9D9D9"/>
<path d="M419.341 61.1234C419.242 61.1234 419.166 61.0987 419.112 61.0492C419.062 60.9952 419.038 60.9188 419.038 60.8198V56.6708C419.038 56.5718 419.062 56.4976 419.112 56.4481C419.166 56.3942 419.242 56.3672 419.341 56.3672H420.94C421.268 56.3672 421.545 56.4167 421.77 56.5156C421.999 56.6101 422.175 56.7495 422.296 56.9339C422.418 57.1183 422.478 57.3432 422.478 57.6085C422.478 57.9054 422.391 58.1527 422.215 58.3506C422.044 58.5485 421.81 58.679 421.514 58.7419V58.6475C421.851 58.6879 422.114 58.8094 422.303 59.0118C422.496 59.2142 422.593 59.4818 422.593 59.8146C422.593 60.2374 422.456 60.5612 422.181 60.7861C421.907 61.011 421.52 61.1234 421.021 61.1234H419.341ZM419.577 60.6781H420.967C421.327 60.6781 421.597 60.6062 421.777 60.4622C421.957 60.3183 422.046 60.1002 422.046 59.8078C422.046 59.511 421.957 59.2929 421.777 59.1534C421.597 59.0095 421.327 58.9376 420.967 58.9376H419.577V60.6781ZM419.577 58.4923H420.859C421.21 58.4923 421.475 58.4203 421.655 58.2764C421.84 58.1325 421.932 57.9256 421.932 57.6557C421.932 57.3769 421.84 57.1678 421.655 57.0283C421.475 56.8844 421.21 56.8124 420.859 56.8124H419.577V58.4923Z" fill="#D9D9D9"/>
<path d="M409.896 61.1234C409.797 61.1234 409.72 61.0987 409.666 61.0492C409.617 60.9952 409.592 60.9188 409.592 60.8198V56.6708C409.592 56.5718 409.617 56.4976 409.666 56.4481C409.72 56.3942 409.797 56.3672 409.896 56.3672H411.198C411.967 56.3672 412.561 56.5696 412.979 56.9744C413.397 57.3791 413.606 57.9683 413.606 58.7419C413.606 59.1287 413.552 59.4705 413.444 59.7674C413.341 60.0597 413.186 60.3071 412.979 60.5095C412.772 60.7119 412.52 60.8648 412.223 60.9682C411.927 61.0717 411.585 61.1234 411.198 61.1234H409.896ZM410.145 60.6511H411.157C411.472 60.6511 411.744 60.6107 411.974 60.5297C412.208 60.4488 412.401 60.3296 412.554 60.1722C412.711 60.0147 412.828 59.8168 412.905 59.5785C412.981 59.3356 413.019 59.0568 413.019 58.7419C413.019 58.1078 412.864 57.6333 412.554 57.3184C412.244 56.9991 411.778 56.8394 411.157 56.8394H410.145V60.6511Z" fill="#D9D9D9"/>
<path d="M404.613 61.1234C404.514 61.1234 404.437 61.0987 404.383 61.0492C404.334 60.9952 404.309 60.9188 404.309 60.8198V56.6708C404.309 56.5718 404.334 56.4976 404.383 56.4481C404.437 56.3942 404.514 56.3672 404.613 56.3672H407.122C407.199 56.3672 407.257 56.3874 407.298 56.4279C407.338 56.4684 407.358 56.5246 407.358 56.5966C407.358 56.673 407.338 56.7315 407.298 56.772C407.257 56.8124 407.199 56.8327 407.122 56.8327H404.849V58.4788H406.981C407.057 58.4788 407.116 58.499 407.156 58.5395C407.197 58.5755 407.217 58.6317 407.217 58.7082C407.217 58.7846 407.197 58.8431 407.156 58.8836C407.116 58.9241 407.057 58.9443 406.981 58.9443H404.849V60.6579H407.122C407.199 60.6579 407.257 60.6781 407.298 60.7186C407.338 60.7591 407.358 60.8153 407.358 60.8873C407.358 60.9637 407.338 61.0222 407.298 61.0627C407.257 61.1032 407.199 61.1234 407.122 61.1234H404.613Z" fill="#D9D9D9"/>
<path d="M398.724 61.1706C398.634 61.1706 398.565 61.1459 398.515 61.0964C398.47 61.0424 398.448 60.9705 398.448 60.8805V56.6505C398.448 56.5561 398.472 56.4864 398.522 56.4414C398.571 56.3919 398.641 56.3672 398.731 56.3672H400.33C400.838 56.3672 401.23 56.4864 401.504 56.7247C401.778 56.9631 401.915 57.3027 401.915 57.7435C401.915 58.0223 401.852 58.2652 401.727 58.4721C401.605 58.6745 401.425 58.8296 401.187 58.9376C400.948 59.041 400.663 59.0927 400.33 59.0927L400.397 59.005H400.532C400.708 59.005 400.861 59.05 400.991 59.14C401.122 59.2299 401.241 59.3738 401.349 59.5717L401.996 60.7793C402.032 60.8423 402.048 60.9053 402.044 60.9682C402.044 61.0267 402.023 61.0762 401.983 61.1166C401.942 61.1526 401.884 61.1706 401.807 61.1706C401.731 61.1706 401.668 61.1526 401.619 61.1166C401.569 61.0807 401.526 61.0289 401.49 60.9615L400.755 59.5987C400.652 59.4053 400.532 59.2771 400.397 59.2142C400.263 59.1467 400.085 59.113 399.864 59.113H399.001V60.8805C399.001 60.9705 398.978 61.0424 398.933 61.0964C398.889 61.1459 398.819 61.1706 398.724 61.1706ZM399.001 58.6745H400.249C400.618 58.6745 400.897 58.598 401.086 58.4451C401.274 58.2877 401.369 58.0538 401.369 57.7435C401.369 57.4421 401.274 57.215 401.086 57.0621C400.897 56.9047 400.618 56.8259 400.249 56.8259H399.001V58.6745Z" fill="#D9D9D9"/>
<path d="M393.468 61.1234C393.369 61.1234 393.293 61.0987 393.239 61.0492C393.189 60.9952 393.165 60.9188 393.165 60.8198V56.6708C393.165 56.5718 393.189 56.4976 393.239 56.4481C393.293 56.3942 393.369 56.3672 393.468 56.3672H395.978C396.054 56.3672 396.113 56.3874 396.153 56.4279C396.194 56.4684 396.214 56.5246 396.214 56.5966C396.214 56.673 396.194 56.7315 396.153 56.772C396.113 56.8124 396.054 56.8327 395.978 56.8327H393.704V58.4788H395.836C395.913 58.4788 395.971 58.499 396.012 58.5395C396.052 58.5755 396.072 58.6317 396.072 58.7082C396.072 58.7846 396.052 58.8431 396.012 58.8836C395.971 58.9241 395.913 58.9443 395.836 58.9443H393.704V60.6579H395.978C396.054 60.6579 396.113 60.6781 396.153 60.7186C396.194 60.7591 396.214 60.8153 396.214 60.8873C396.214 60.9637 396.194 61.0222 396.153 61.0627C396.113 61.1032 396.054 61.1234 395.978 61.1234H393.468Z" fill="#D9D9D9"/>
<path d="M385.914 61.171C385.833 61.171 385.768 61.1507 385.718 61.1103C385.669 61.0653 385.628 61.0001 385.597 60.9146L384.106 56.6576C384.074 56.5632 384.081 56.4845 384.126 56.4215C384.176 56.354 384.252 56.3203 384.355 56.3203C384.432 56.3203 384.493 56.3406 384.538 56.381C384.583 56.417 384.621 56.4755 384.652 56.5564L386.049 60.6515H385.813L387.236 56.5767C387.268 56.4912 387.306 56.4283 387.351 56.3878C387.396 56.3428 387.457 56.3203 387.533 56.3203C387.605 56.3203 387.661 56.3428 387.702 56.3878C387.747 56.4283 387.785 56.4912 387.816 56.5767L389.22 60.6515H389.01L390.42 56.5564C390.443 56.48 390.477 56.4215 390.522 56.381C390.571 56.3406 390.634 56.3203 390.711 56.3203C390.805 56.3203 390.875 56.3518 390.92 56.4148C390.965 56.4777 390.969 56.5587 390.933 56.6576L389.436 60.9146C389.404 61.0001 389.364 61.0653 389.314 61.1103C389.269 61.1507 389.204 61.171 389.118 61.171C389.037 61.171 388.972 61.1507 388.923 61.1103C388.878 61.0653 388.837 61.0001 388.801 60.9146L387.445 57.0084H387.594L386.224 60.9146C386.193 61.0001 386.155 61.0653 386.11 61.1103C386.065 61.1507 385.999 61.171 385.914 61.171Z" fill="#D9D9D9"/>
<path d="M379.972 61.1843C379.531 61.1843 379.146 61.0853 378.818 60.8874C378.494 60.6851 378.242 60.4017 378.062 60.0374C377.887 59.6731 377.799 59.2413 377.799 58.7421C377.799 58.3643 377.849 58.027 377.948 57.7301C378.051 57.4288 378.197 57.1747 378.386 56.9678C378.575 56.7564 378.802 56.5945 379.068 56.482C379.337 56.3651 379.639 56.3066 379.972 56.3066C380.421 56.3066 380.808 56.4056 381.132 56.6035C381.46 56.8014 381.712 57.0825 381.888 57.4468C382.068 57.8066 382.157 58.2361 382.157 58.7353C382.157 59.1131 382.106 59.4527 382.002 59.754C381.899 60.0554 381.753 60.3118 381.564 60.5231C381.375 60.7345 381.146 60.8987 380.876 61.0156C380.61 61.1281 380.309 61.1843 379.972 61.1843ZM379.972 60.6918C380.313 60.6918 380.601 60.6153 380.835 60.4624C381.074 60.3095 381.256 60.0869 381.382 59.7945C381.508 59.5022 381.571 59.1514 381.571 58.7421C381.571 58.1259 381.431 57.6492 381.152 57.3119C380.878 56.97 380.484 56.7991 379.972 56.7991C379.639 56.7991 379.353 56.8756 379.115 57.0285C378.881 57.1814 378.701 57.4041 378.575 57.6964C378.449 57.9842 378.386 58.3328 378.386 58.7421C378.386 59.3538 378.526 59.8328 378.805 60.1791C379.083 60.5209 379.472 60.6918 379.972 60.6918Z" fill="#D9D9D9"/>
<path d="M372.685 61.1706C372.595 61.1706 372.526 61.1459 372.476 61.0964C372.431 61.0424 372.409 60.9705 372.409 60.8805V56.6505C372.409 56.5561 372.433 56.4864 372.483 56.4414C372.532 56.3919 372.602 56.3672 372.692 56.3672H374.291C374.799 56.3672 375.19 56.4931 375.465 56.745C375.739 56.9924 375.876 57.3432 375.876 57.7974C375.876 58.2472 375.739 58.598 375.465 58.8499C375.19 59.1017 374.799 59.2277 374.291 59.2277H372.962V60.8805C372.962 60.9705 372.939 61.0424 372.894 61.0964C372.849 61.1459 372.78 61.1706 372.685 61.1706ZM372.962 58.7622H374.223C374.588 58.7622 374.862 58.6812 375.047 58.5193C375.235 58.3529 375.33 58.1123 375.33 57.7974C375.33 57.4781 375.235 57.2375 375.047 57.0756C374.862 56.9091 374.588 56.8259 374.223 56.8259H372.962V58.7622Z" fill="#D9D9D9"/>
<path opacity="0.9" d="M557.552 44.4669C560.013 42.049 560.013 38.1287 557.552 35.7108C555.091 33.2929 551.102 33.2929 548.641 35.7108C546.181 38.1287 546.181 42.049 548.641 44.4669C551.102 46.8849 555.091 46.8849 557.552 44.4669Z" fill="#D9D9D9"/>
<path opacity="0.9" d="M553.009 35.5649C553.009 31.6204 556.206 28.4229 560.151 28.4229C564.095 28.4229 567.293 31.6204 567.293 35.5649V44.3873C567.293 48.3318 564.095 51.5294 560.151 51.5294C556.206 51.5294 553.009 48.3318 553.009 44.3873V35.5649Z" fill="#E3E3E3"/>
<path opacity="0.9" d="M563.09 31.7836C563.09 27.8392 566.288 24.6416 570.232 24.6416C574.177 24.6416 577.374 27.8392 577.374 31.7836V47.7481C577.374 51.6925 574.177 54.8901 570.232 54.8901C566.288 54.8901 563.09 51.6925 563.09 47.7481V31.7836Z" fill="#D9D9D9"/>
<path opacity="0.9" d="M572.754 35.5649C572.754 31.6204 575.952 28.4229 579.896 28.4229C583.841 28.4229 587.038 31.6204 587.038 35.5649V44.3873C587.038 48.3318 583.841 51.5294 579.896 51.5294C575.952 51.5294 572.754 48.3318 572.754 44.3873V35.5649Z" fill="#E3E3E3"/>
<path opacity="0.9" d="M591.581 44.4669C594.042 42.049 594.042 38.1287 591.581 35.7108C589.121 33.2929 585.131 33.2929 582.671 35.7108C580.21 38.1287 580.21 42.049 582.671 44.4669C585.131 46.8849 589.121 46.8849 591.581 44.4669Z" fill="#D9D9D9"/>
<rect x="534.864" y="40.5254" width="70.3203" height="14.0244" rx="7.0122" fill="white" stroke="#D9D9D9" stroke-width="0.679742"/>
<path d="M541.661 44.8677H542.722L545.254 50.689H543.807L543.305 49.4557H541.044L540.559 50.689H539.145L541.661 44.8677ZM542.154 46.5615L541.447 48.3704H542.87L542.154 46.5615Z" fill="#D9D9D9"/>
<path d="M551.159 48.4444C551.159 48.7897 551.107 49.1076 551.003 49.3981C550.899 49.6886 550.743 49.9408 550.534 50.1546C550.332 50.3683 550.077 50.5355 549.77 50.6561C549.463 50.7767 549.109 50.837 548.709 50.837C548.303 50.837 547.947 50.7767 547.64 50.6561C547.333 50.5355 547.076 50.3683 546.867 50.1546C546.665 49.9408 546.511 49.6886 546.407 49.3981C546.303 49.1076 546.251 48.7897 546.251 48.4444V44.8677H547.533V48.395C547.533 48.5759 547.561 48.7431 547.616 48.8966C547.676 49.0501 547.758 49.1843 547.862 49.2995C547.966 49.4091 548.09 49.4968 548.232 49.5626C548.38 49.6229 548.539 49.653 548.709 49.653C548.879 49.653 549.035 49.6229 549.178 49.5626C549.32 49.4968 549.444 49.4091 549.548 49.2995C549.652 49.1843 549.731 49.0501 549.786 48.8966C549.846 48.7431 549.877 48.5759 549.877 48.395V44.8677H551.159V48.4444Z" fill="#D9D9D9"/>
<path d="M553.883 46.0024H552.222V44.8677H556.826V46.0024H555.165V50.689H553.883V46.0024Z" fill="#D9D9D9"/>
<path d="M557.576 47.7784C557.576 47.3124 557.653 46.8904 557.806 46.5122C557.965 46.1339 558.185 45.8133 558.464 45.5502C558.744 45.2816 559.075 45.076 559.459 44.9335C559.843 44.791 560.262 44.7197 560.717 44.7197C561.172 44.7197 561.591 44.791 561.975 44.9335C562.359 45.076 562.69 45.2816 562.97 45.5502C563.249 45.8133 563.466 46.1339 563.619 46.5122C563.778 46.8904 563.858 47.3124 563.858 47.7784C563.858 48.2443 563.778 48.6664 563.619 49.0446C563.466 49.4228 563.249 49.7462 562.97 50.0148C562.69 50.2779 562.359 50.4807 561.975 50.6232C561.591 50.7657 561.172 50.837 560.717 50.837C560.262 50.837 559.843 50.7657 559.459 50.6232C559.075 50.4807 558.744 50.2779 558.464 50.0148C558.185 49.7462 557.965 49.4228 557.806 49.0446C557.653 48.6664 557.576 48.2443 557.576 47.7784ZM558.908 47.7784C558.908 48.0524 558.949 48.3046 559.031 48.5348C559.119 48.7595 559.242 48.9569 559.401 49.1268C559.56 49.2912 559.749 49.42 559.969 49.5132C560.193 49.6064 560.443 49.653 560.717 49.653C560.991 49.653 561.238 49.6064 561.457 49.5132C561.682 49.42 561.874 49.2912 562.032 49.1268C562.191 48.9569 562.312 48.7595 562.394 48.5348C562.482 48.3046 562.526 48.0524 562.526 47.7784C562.526 47.5098 562.482 47.2604 562.394 47.0301C562.312 46.7999 562.191 46.6026 562.032 46.4382C561.874 46.2682 561.682 46.1367 561.457 46.0435C561.238 45.9503 560.991 45.9037 560.717 45.9037C560.443 45.9037 560.193 45.9503 559.969 46.0435C559.749 46.1367 559.56 46.2682 559.401 46.4382C559.242 46.6026 559.119 46.7999 559.031 47.0301C558.949 47.2604 558.908 47.5098 558.908 47.7784Z" fill="#D9D9D9"/>
<path d="M576.116 44.8677H577.398V49.505H579.775V50.689H576.116V44.8677Z" fill="#D9D9D9"/>
<path d="M580.581 47.7784C580.581 47.3124 580.658 46.8904 580.811 46.5122C580.97 46.1339 581.19 45.8133 581.469 45.5502C581.749 45.2816 582.08 45.076 582.464 44.9335C582.848 44.791 583.267 44.7197 583.722 44.7197C584.177 44.7197 584.596 44.791 584.98 44.9335C585.364 45.076 585.695 45.2816 585.975 45.5502C586.255 45.8133 586.471 46.1339 586.625 46.5122C586.783 46.8904 586.863 47.3124 586.863 47.7784C586.863 48.2443 586.783 48.6664 586.625 49.0446C586.471 49.4228 586.255 49.7462 585.975 50.0148C585.695 50.2779 585.364 50.4807 584.98 50.6232C584.596 50.7657 584.177 50.837 583.722 50.837C583.267 50.837 582.848 50.7657 582.464 50.6232C582.08 50.4807 581.749 50.2779 581.469 50.0148C581.19 49.7462 580.97 49.4228 580.811 49.0446C580.658 48.6664 580.581 48.2443 580.581 47.7784ZM581.913 47.7784C581.913 48.0524 581.954 48.3046 582.037 48.5348C582.124 48.7595 582.248 48.9569 582.407 49.1268C582.566 49.2912 582.755 49.42 582.974 49.5132C583.199 49.6064 583.448 49.653 583.722 49.653C583.996 49.653 584.243 49.6064 584.462 49.5132C584.687 49.42 584.879 49.2912 585.038 49.1268C585.197 48.9569 585.317 48.7595 585.399 48.5348C585.487 48.3046 585.531 48.0524 585.531 47.7784C585.531 47.5098 585.487 47.2604 585.399 47.0301C585.317 46.7999 585.197 46.6026 585.038 46.4382C584.879 46.2682 584.687 46.1367 584.462 46.0435C584.243 45.9503 583.996 45.9037 583.722 45.9037C583.448 45.9037 583.199 45.9503 582.974 46.0435C582.755 46.1367 582.566 46.2682 582.407 46.4382C582.248 46.6026 582.124 46.7999 582.037 47.0301C581.954 47.2604 581.913 47.5098 581.913 47.7784Z" fill="#D9D9D9"/>
<path d="M593.054 48.4444C593.054 48.7897 593.002 49.1076 592.898 49.3981C592.794 49.6886 592.638 49.9408 592.43 50.1546C592.227 50.3683 591.972 50.5355 591.665 50.6561C591.358 50.7767 591.004 50.837 590.604 50.837C590.199 50.837 589.842 50.7767 589.535 50.6561C589.228 50.5355 588.971 50.3683 588.763 50.1546C588.56 49.9408 588.406 49.6886 588.302 49.3981C588.198 49.1076 588.146 48.7897 588.146 48.4444V44.8677H589.429V48.395C589.429 48.5759 589.456 48.7431 589.511 48.8966C589.571 49.0501 589.653 49.1843 589.757 49.2995C589.862 49.4091 589.985 49.4968 590.127 49.5626C590.275 49.6229 590.434 49.653 590.604 49.653C590.774 49.653 590.93 49.6229 591.073 49.5626C591.215 49.4968 591.339 49.4091 591.443 49.2995C591.547 49.1843 591.627 49.0501 591.681 48.8966C591.742 48.7431 591.772 48.5759 591.772 48.395V44.8677H593.054V48.4444Z" fill="#D9D9D9"/>
<path d="M594.651 44.8677H596.575C597.041 44.8677 597.482 44.9198 597.899 45.0239C598.321 45.1281 598.688 45.298 599.001 45.5337C599.313 45.7639 599.56 46.0654 599.741 46.4382C599.927 46.8109 600.02 47.2631 600.02 47.7948C600.02 48.2662 599.93 48.6828 599.749 49.0446C599.574 49.4009 599.335 49.7023 599.034 49.949C598.732 50.1902 598.384 50.3738 597.99 50.4999C597.595 50.626 597.181 50.689 596.748 50.689H594.651V44.8677ZM595.934 49.505H596.6C596.896 49.505 597.17 49.4749 597.422 49.4146C597.68 49.3543 597.902 49.2556 598.088 49.1186C598.275 48.9761 598.42 48.7924 598.524 48.5677C598.634 48.3375 598.688 48.0579 598.688 47.729C598.688 47.444 598.634 47.1973 598.524 46.989C598.42 46.7753 598.277 46.5999 598.096 46.4628C597.916 46.3258 597.702 46.2244 597.455 46.1586C597.214 46.0873 596.959 46.0517 596.69 46.0517H595.934V49.505Z" fill="#D9D9D9"/>
<path d="M572.63 45.3305C572.428 45.0881 572.178 44.9019 571.879 44.772C571.589 44.6422 571.251 44.5772 570.865 44.5772C570.479 44.5772 570.119 44.6508 569.785 44.798C569.46 44.9452 569.175 45.153 568.929 45.4214C568.692 45.6812 568.503 45.9929 568.363 46.3565C568.231 46.7202 568.165 47.1141 568.165 47.5384C568.165 47.9713 568.231 48.3696 568.363 48.7332C568.503 49.0882 568.692 49.3999 568.929 49.6683C569.166 49.9281 569.443 50.1316 569.759 50.2788C570.084 50.426 570.43 50.4995 570.799 50.4995C571.221 50.4995 571.594 50.413 571.919 50.2398C572.244 50.0666 572.511 49.8242 572.722 49.5125L574.434 50.7723C574.039 51.3178 573.539 51.7204 572.933 51.9801C572.327 52.2399 571.704 52.3698 571.063 52.3698C570.334 52.3698 569.662 52.2572 569.048 52.0321C568.433 51.807 567.902 51.4866 567.454 51.071C567.006 50.6467 566.655 50.1359 566.4 49.5385C566.155 48.941 566.032 48.2744 566.032 47.5384C566.032 46.8024 566.155 46.1357 566.4 45.5383C566.655 44.9409 567.006 44.4344 567.454 44.0188C567.902 43.5945 568.433 43.2698 569.048 43.0447C569.662 42.8196 570.334 42.707 571.063 42.707C571.326 42.707 571.598 42.733 571.879 42.785C572.169 42.8282 572.45 42.9018 572.722 43.0057C573.003 43.1096 573.271 43.2482 573.525 43.4213C573.78 43.5945 574.008 43.8066 574.21 44.0577L572.63 45.3305Z" fill="#D9D9D9"/>
<path d="M570.85 49.9257C570.578 49.9257 570.356 49.7089 570.356 49.4448V47.687C570.356 47.4219 570.579 47.2061 570.85 47.2061C571.123 47.2061 571.345 47.4229 571.345 47.687V49.4448C571.345 49.7098 571.122 49.9257 570.85 49.9257Z" fill="#D9D9D9"/>
<path d="M572.09 46.9482C572.225 46.2677 571.785 45.6067 571.107 45.4718C570.429 45.3368 569.771 45.779 569.636 46.4594C569.502 47.1398 569.942 47.8008 570.62 47.9358C571.298 48.0708 571.956 47.6286 572.09 46.9482Z" fill="#D9D9D9"/>
<path d="M571.345 46.7113C571.345 46.9844 571.124 47.2058 570.85 47.2058C570.577 47.2058 570.356 46.9844 570.356 46.7113C570.356 46.4381 570.577 46.2168 570.85 46.2168C571.124 46.2168 571.345 46.4381 571.345 46.7113Z" fill="#E3E3E3"/>
<path d="M558.213 59.8227C559.235 59.8227 560.102 60.5035 560.39 61.4379H562.976C563.225 61.4379 563.428 61.2339 563.428 60.9831V57.2658C563.428 56.8921 563.729 56.5892 564.1 56.5892C564.472 56.5892 564.773 56.8921 564.773 57.2658V60.9831C564.773 61.98 563.967 62.7911 562.976 62.7911H560.39C560.102 63.7255 559.235 64.4062 558.213 64.4062C556.958 64.4062 555.936 63.3782 555.936 62.1145C555.936 60.8508 556.958 59.8227 558.213 59.8227ZM558.213 63.0531C558.728 63.0531 559.146 62.6321 559.146 62.1145C559.146 61.5969 558.728 61.1759 558.213 61.1759C557.699 61.1759 557.281 61.5969 557.281 62.1145C557.281 62.6321 557.699 63.0531 558.213 63.0531Z" fill="#D9D9D9"/>
<path d="M570.835 56.5894C571.269 56.5894 571.621 56.9416 571.621 57.376V61.148C572.708 61.4843 573.499 62.4983 573.499 63.6939C573.499 65.1632 572.304 66.3584 570.835 66.3584C569.366 66.3584 568.17 65.1632 568.17 63.6939C568.17 62.4984 568.962 61.4843 570.048 61.148V57.376C570.048 56.9416 570.4 56.5894 570.835 56.5894ZM569.744 63.6939C569.744 64.2956 570.233 64.7852 570.835 64.7852C571.437 64.7852 571.926 64.2957 571.926 63.6939C571.926 63.0921 571.437 62.6026 570.835 62.6026C570.233 62.6026 569.744 63.0922 569.744 63.6939Z" fill="#D9D9D9"/>
<path d="M583.228 64.4062C582.206 64.4062 581.339 63.7255 581.052 62.7911H578.465C577.474 62.7911 576.668 61.98 576.668 60.9831V57.2658C576.668 56.8921 576.969 56.5892 577.341 56.5892C577.712 56.5892 578.013 56.8921 578.013 57.2658V60.9831C578.013 61.2339 578.216 61.4379 578.465 61.4379H581.052C581.339 60.5035 582.206 59.8227 583.228 59.8227C584.483 59.8227 585.505 60.8508 585.505 62.1145C585.505 63.3782 584.483 64.4062 583.228 64.4062ZM583.228 61.1759C582.713 61.1759 582.295 61.5969 582.295 62.1145C582.295 62.6321 582.713 63.0531 583.228 63.0531C583.742 63.0531 584.16 62.6321 584.16 62.1145C584.16 61.5969 583.742 61.1759 583.228 61.1759Z" fill="#D9D9D9"/>
<path d="M698.93 24C700.976 27.5833 703.022 31.1666 705.068 34.7224C700.976 34.75 696.857 34.75 692.765 34.7775C692.157 34.7775 691.576 34.75 690.968 34.75C687.457 34.7224 683.918 34.7224 680.406 34.7224C681.761 32.407 683.116 30.1192 684.443 27.8038C685.162 26.5635 685.825 25.2679 686.489 24C690.636 24 694.783 24 698.93 24Z" fill="#D9D9D9"/>
<path d="M686.489 24C685.798 25.2679 685.162 26.5359 684.443 27.8038C683.116 30.1192 681.761 32.407 680.407 34.7224C680.351 34.7775 680.268 34.8051 680.185 34.8051C676.121 34.7775 672.057 34.75 667.993 34.75C668.795 33.2615 669.596 31.7731 670.426 30.3122C671.615 28.1897 672.831 26.0949 674.048 24C678.195 24 682.342 24 686.489 24Z" fill="#ADADAD"/>
<path d="M655.524 55.6984C655.8 55.3401 656.105 55.0093 656.326 54.651C658.012 51.7568 659.699 48.8626 661.385 45.9408C661.413 45.8581 661.523 45.8305 661.579 45.7754C661.8 45.9132 662.076 45.9959 662.187 46.1889C662.795 47.1536 663.376 48.1183 663.956 49.0831C665.118 51.0952 666.251 53.1074 667.412 55.092C667.578 55.3401 667.938 55.4779 668.214 55.6709C667.993 56.1395 667.772 56.6356 667.523 57.1042C665.975 59.833 664.426 62.5619 662.878 65.2631C662.629 65.7317 662.325 66.1452 661.938 66.724C660.86 64.9048 659.837 63.1683 658.842 61.4593C657.902 59.8606 656.962 58.2343 656.022 56.6356C655.911 56.4427 655.69 56.3324 655.524 56.1946C655.524 56.0568 655.524 55.8914 655.524 55.6984Z" fill="#EFEFEF"/>
<path d="M851.571 37.5337C851.377 37.7818 851.184 38.0298 850.935 38.3606C850.714 38.1125 850.52 37.892 850.271 37.6164C850.188 38.0574 850.106 38.4433 849.967 39.0497C849.248 38.2228 849.774 37.3959 849.414 36.6241C849.193 36.6516 848.889 36.6516 848.557 36.7068C848.53 37.451 848.474 38.1401 848.447 38.8568C847.7 38.3055 848.032 37.5888 847.866 36.8997C847.673 36.7619 847.396 36.5965 847.12 36.4311C847.147 36.376 847.175 36.2933 847.175 36.2382C848.143 36.2382 849.083 36.2382 850.161 36.2382C850.354 36.5138 850.603 36.8721 850.852 37.2305C851.46 37.0927 851.267 36.0177 852.124 36.2106C852.207 36.9273 852.29 37.6715 852.373 38.3882C852.373 38.5811 852.373 38.7465 852.373 38.9394C852.179 38.8843 851.958 38.8568 851.681 38.8016C851.709 38.4157 851.709 38.0298 851.737 37.6715C851.737 37.5888 851.737 37.5061 851.709 37.4234C851.681 37.3959 851.626 37.4786 851.571 37.5337Z" fill="#D9D9D9"/>
<path d="M686.489 66.9997C686.489 66.917 686.489 66.8343 686.489 66.7516C686.572 66.7241 686.682 66.6965 686.765 66.6689C690.829 66.6965 694.866 66.6965 698.93 66.7241C698.93 66.8068 698.93 66.8895 698.93 66.9997C694.783 66.9997 690.636 66.9997 686.489 66.9997Z" fill="#EFEFEF"/>
<path d="M852.372 38.3333C852.289 37.6166 852.206 36.8724 852.124 36.1557C852.206 36.0455 852.289 35.9628 852.372 35.8525C852.372 36.6795 852.372 37.5064 852.372 38.3333Z" fill="#909090"/>
<path d="M722.928 53.5762C722.928 57.1595 722.928 60.4397 722.928 63.83C721.407 63.83 719.942 63.83 718.394 63.83C718.366 63.582 718.283 63.2788 718.283 62.9755C718.283 57.1871 718.2 51.3987 718.311 45.6378C718.394 41.0897 720.716 36.7346 725.942 35.4391C730.531 34.309 734.678 35.1083 737.802 38.9122C742.143 44.2045 740.512 54.1551 732.218 56.0845C729.176 56.8012 726.273 56.3602 723.785 54.2929C723.592 54.1275 723.37 53.9621 722.928 53.5762ZM735.259 45.7205C735.231 45.307 735.203 44.8936 735.148 44.4801C734.789 41.641 732.715 39.6288 729.591 39.2705C727.352 39.0224 724.532 40.1525 723.398 42.9089C722.873 44.1769 722.817 45.5 722.956 46.823C723.453 51.0128 727.905 53.4384 731.72 51.6192C734.208 50.4339 735.176 48.3115 735.259 45.7205Z" fill="#D9D9D9"/>
<path d="M797.078 55.8092C795.862 55.947 794.784 56.14 793.678 56.1675C790.885 56.2227 788.065 56.3329 785.273 56.1951C783.918 56.14 782.564 55.7265 781.292 55.2028C778.555 54.1002 777.698 52.0881 777.863 49.249C778.112 45.1695 780.573 43.7362 784.526 43.3227C786.794 43.0746 789.116 43.2676 791.411 43.2676C791.715 43.2676 792.047 43.2676 792.351 43.2676C792.461 41.09 791.494 39.6291 789.475 39.1605C786.932 38.5817 784.361 38.5541 781.9 39.6567C781.568 39.7945 781.236 39.9599 780.905 40.0977C779.135 38.7471 779.273 36.7625 781.264 35.8529C782.176 35.4394 783.199 35.1913 784.167 35.1086C786.517 34.8881 788.839 34.9432 791.162 35.5772C794.977 36.5971 797.078 39.2432 797.106 43.1298C797.134 47.0714 797.106 51.0131 797.106 54.9823C797.134 55.2028 797.106 55.4233 797.078 55.8092ZM792.517 46.8233C791.632 46.7131 790.83 46.5477 790.001 46.4926C788.176 46.3823 786.324 46.2721 784.554 46.8785C783.199 47.3471 782.508 48.4221 782.536 49.8278C782.564 51.1785 783.227 52.1708 784.609 52.5567C787.208 53.2458 789.835 53.0804 792.489 52.6118C792.517 50.6823 792.517 48.8631 792.517 46.8233Z" fill="#D9D9D9"/>
<path d="M765.339 45.7203C765.533 51.2331 761.054 56.36 754.28 56.4152C747.949 56.4703 743.083 51.7293 743.138 45.6376C743.166 39.5184 747.921 35.0255 754.28 35.0255C760.805 34.9979 765.56 40.0422 765.339 45.7203ZM754.225 39.1325C750.631 39.1325 747.977 41.9441 747.977 45.7479C747.977 49.4139 750.686 52.2806 754.17 52.2806C757.847 52.2806 760.501 49.5793 760.473 45.7203C760.473 41.1447 757.294 39.105 754.225 39.1325Z" fill="#D9D9D9"/>
<path d="M844.106 40.5662C841.507 38.9123 838.604 38.4162 835.563 38.6367C834.872 38.6918 834.181 38.8296 833.545 39.0777C832.522 39.436 832.052 40.1251 832.079 41.0348C832.107 41.9995 832.688 42.6059 833.545 42.7989C835.01 43.1296 836.503 43.3501 837.996 43.5982C839.406 43.8463 840.788 44.0944 842.198 44.37C842.558 44.4527 842.889 44.5905 843.249 44.7283C847.037 46.4097 847.866 51.1507 844.908 54.045C843.747 55.1751 842.336 55.7815 840.761 56.0571C836.226 56.8841 831.886 56.2501 827.739 54.293C827.545 54.2104 827.352 54.045 827.075 53.852C827.628 52.8322 828.181 51.8398 828.679 50.9302C830.586 51.454 832.383 52.0879 834.263 52.4738C836.116 52.8597 838.024 52.8873 839.876 52.3636C840.484 52.1706 841.175 51.7847 841.535 51.2886C842.309 50.1584 841.618 48.7251 840.097 48.3392C838.825 48.0085 837.471 47.8706 836.143 47.7052C834.374 47.4572 832.577 47.3469 830.891 46.6027C829.011 45.7758 827.711 44.4251 827.462 42.3027C827.213 39.9322 827.905 37.9751 829.978 36.5969C831.305 35.7149 832.826 35.3014 834.374 35.1361C836.945 34.888 839.516 34.9431 842.06 35.6046C842.724 35.77 843.387 36.0181 843.968 36.3489C846.014 37.479 846.069 39.1053 844.106 40.5662Z" fill="#D9D9D9"/>
<path d="M773.965 55.8091C772.389 55.8091 770.979 55.8091 769.458 55.8091C769.431 55.3957 769.375 54.9822 769.375 54.5963C769.375 45.9963 769.375 37.4239 769.375 28.824C769.375 26.7015 770.094 26.0124 772.223 26.1778C772.804 26.2054 773.384 26.3983 773.965 26.5086C773.965 36.3214 773.965 45.9963 773.965 55.8091Z" fill="#D9D9D9"/>
<path d="M711.123 45.5C710.791 46.134 710.487 46.7955 710.128 47.4295C708.33 50.4891 706.533 53.5211 704.736 56.5807C704.322 56.4705 703.907 56.3051 703.492 56.2775C699.926 56.25 696.387 56.25 692.82 56.25C692.82 56.1397 692.82 56.0295 692.793 55.9192C692.959 55.5884 693.097 55.2577 693.263 54.9545C695.087 51.8122 696.885 48.6699 698.709 45.5C702.884 45.5 707.003 45.5 711.123 45.5Z" fill="#909090"/>
<path d="M711.122 45.5C707.003 45.5 702.884 45.5 698.736 45.5C698.488 44.9763 698.239 44.425 697.962 43.9288C696.248 40.8692 694.506 37.8372 692.765 34.8051C696.856 34.7776 700.976 34.7776 705.068 34.75C707.058 38.1679 709.077 41.5859 711.067 45.0038C711.15 45.1141 711.095 45.3346 711.122 45.5Z" fill="#B7B7B7"/>
<path d="M806.478 55.8085C804.902 55.8085 803.437 55.8085 801.889 55.8085C801.861 55.4778 801.806 55.1194 801.778 54.7887C801.778 50.9848 801.778 47.1534 801.778 43.3496C801.778 42.6605 801.778 41.9714 801.917 41.2823C802.552 37.699 804.764 35.6317 808.663 35.1079C810.487 34.8599 812.34 34.915 814.109 35.549C816.404 36.3483 816.846 38.14 815.187 39.9592C814.247 39.7387 813.335 39.3804 812.395 39.2977C811.372 39.215 810.266 39.215 809.271 39.4631C807.363 39.9868 806.7 41.5304 806.506 43.3496C806.423 44.1214 806.478 44.9207 806.478 45.6925C806.478 48.5868 806.478 51.481 806.478 54.3752C806.478 54.8438 806.478 55.2848 806.478 55.8085Z" fill="#D9D9D9"/>
<path d="M692.848 56.25C696.414 56.25 699.981 56.25 703.52 56.2776C703.934 56.2776 704.349 56.4705 704.764 56.5808C703.05 59.5852 701.335 62.5897 699.649 65.5942C699.428 65.9801 699.179 66.366 698.958 66.7794C694.894 66.7519 690.857 66.7519 686.793 66.7243C686.876 66.4762 686.931 66.2006 687.069 65.9525C688.092 64.1884 689.088 62.3968 690.138 60.6327C690.995 59.1442 691.935 57.7109 692.848 56.25Z" fill="#D9D9D9"/>
<path d="M823.343 35.9906C823.343 42.6335 823.343 49.1662 823.343 55.8091C821.85 55.8091 820.385 55.8091 818.809 55.8091C818.781 55.3129 818.754 54.8719 818.754 54.4309C818.754 49.1386 818.836 43.8739 818.726 38.5816C818.671 35.5771 820.412 35.3566 822.431 35.7149C822.679 35.7425 822.956 35.8527 823.343 35.9906Z" fill="#D9D9D9"/>
<path d="M823.896 29.3198C823.896 30.9736 822.68 32.214 821.076 32.1865C819.5 32.1589 818.339 30.9736 818.311 29.3749C818.311 27.7211 819.528 26.4807 821.131 26.5083C822.707 26.5358 823.896 27.7486 823.896 29.3198Z" fill="#D9D9D9"/>
<path d="M851.571 37.5335C851.626 37.4784 851.654 37.4233 851.709 37.3682C851.709 37.4509 851.709 37.5336 851.737 37.6162C851.681 37.5887 851.626 37.5611 851.571 37.5335Z" fill="#909090"/>
<path d="M692.848 56.2495C691.936 57.7104 690.996 59.1437 690.111 60.6322C689.06 62.3963 688.065 64.1604 687.042 65.952C686.904 66.1725 686.848 66.4482 686.766 66.7238C686.683 66.7514 686.572 66.7789 686.489 66.8065C684.388 63.2232 682.314 59.6123 680.213 56.029C680.351 56.029 680.517 56.0014 680.655 56.0014C684.637 56.0014 688.646 56.0014 692.627 56.0014C692.682 55.9739 692.737 55.9739 692.82 55.9463C692.82 56.029 692.82 56.1392 692.848 56.2495Z" fill="#949494"/>
<path d="M668.242 55.6987C667.965 55.5058 667.578 55.3955 667.44 55.1199C666.251 53.1353 665.145 51.1231 663.984 49.1109C663.431 48.1186 662.823 47.1539 662.214 46.2167C662.104 46.0237 661.8 45.9411 661.606 45.8032C661.717 45.6103 661.8 45.4449 661.91 45.252C665.974 45.252 670.011 45.252 674.075 45.252C674.186 45.2795 674.296 45.2795 674.407 45.3071H674.379C674.352 45.4725 674.324 45.6378 674.296 45.8032C673.909 46.2718 673.439 46.6853 673.135 47.209C671.449 49.993 669.845 52.8596 668.242 55.6987Z" fill="#D9D9D9"/>
<path d="M674.269 45.7754C674.296 45.6101 674.324 45.4447 674.352 45.2793C674.849 45.3069 675.347 45.362 675.845 45.362C679.301 45.3896 682.784 45.3896 686.24 45.4171C686.102 45.803 686.019 46.2165 685.825 46.5472C684.664 48.5594 683.475 50.5165 682.342 52.5562C681.734 53.6588 680.794 54.5959 680.683 55.9466C680.545 55.9466 680.379 55.9741 680.241 55.9741C678.222 52.5838 676.232 49.1658 674.269 45.7754Z" fill="#D9D9D9"/>
<path d="M674.047 45.2245C669.983 45.2245 665.947 45.2245 661.883 45.2245C662.961 43.2675 664.039 41.338 665.145 39.3809C665.726 38.3611 666.306 37.3136 666.914 36.2938C667.191 35.8252 667.55 35.4117 667.882 34.9707C668.131 35.2188 668.407 35.4393 668.601 35.7425C669.181 36.6797 669.734 37.6169 670.287 38.554C671.531 40.7867 672.776 43.0194 674.047 45.2245Z" fill="#C8C8C8"/>
<path d="M674.048 45.2243C672.804 43.0192 671.532 40.7865 670.26 38.5814C669.707 37.6442 669.154 36.6795 668.574 35.7699C668.38 35.4942 668.104 35.2737 667.855 34.9981C667.882 34.9154 667.938 34.8327 667.965 34.75C672.029 34.7776 676.094 34.7776 680.185 34.8051C679.245 36.5141 678.278 38.2231 677.338 39.9045C676.342 41.6961 675.375 43.4878 674.379 45.2519C674.269 45.2519 674.158 45.2519 674.048 45.2243Z" fill="#D5D9DA"/>
<path d="M686.24 45.4453C686.461 45.6383 686.765 45.7761 686.904 45.9966C688.839 49.3043 690.746 52.6395 692.654 55.9472C688.673 55.9472 684.664 55.9472 680.683 55.9472C680.793 54.5966 681.733 53.6594 682.342 52.5568C683.475 50.5447 684.664 48.56 685.825 46.5479C685.991 46.2171 686.102 45.8036 686.24 45.4453Z" fill="#D9D9D9"/>
<g clip-path="url(#clip1_43_21145)">
<path d="M922.389 25.5C911.337 25.5 902.373 34.4573 902.373 45.5007V65.5H906.555V45.5007C906.555 36.6988 913.58 29.6783 922.389 29.6783H932.841V25.5H922.389Z" fill="#B9B9B9"/>
<path d="M938.222 25.5V45.5007C938.222 50.2826 936.147 54.5386 932.841 57.4276V34.2009H928.659V60.053C927.35 60.6112 925.947 60.9979 924.478 61.1884V41.362H920.297V61.3217H916.115V48.5231H911.934V65.4985H922.387C933.439 65.4985 942.402 56.5427 942.402 45.4993V25.5H938.222Z" fill="#D9D9D9"/>
<path d="M950.622 42.4391C949.939 42.1592 949.394 41.7446 948.984 41.1967C948.575 40.6488 948.36 39.9881 948.338 39.216H951.395C951.439 39.6526 951.59 39.9851 951.848 40.2151C952.106 40.4451 952.442 40.5594 952.855 40.5594C953.269 40.5594 953.616 40.4613 953.864 40.2649C954.11 40.0701 954.233 39.7976 954.233 39.4504C954.233 39.1588 954.135 38.9186 953.94 38.7281C953.744 38.5377 953.503 38.3809 953.217 38.2578C952.931 38.1348 952.525 37.9956 951.999 37.8388C951.236 37.6044 950.616 37.3686 950.134 37.1342C949.653 36.8997 949.238 36.5525 948.891 36.094C948.543 35.6354 948.37 35.0362 948.37 34.2978C948.37 33.202 948.767 32.342 949.562 31.7208C950.357 31.0997 951.393 30.7891 952.67 30.7891C953.947 30.7891 955.016 31.0997 955.812 31.7208C956.607 32.342 957.032 33.2064 957.089 34.314H953.981C953.959 33.933 953.818 33.6342 953.562 33.4159C953.304 33.1976 952.974 33.0892 952.571 33.0892C952.223 33.0892 951.943 33.1815 951.731 33.3661C951.518 33.5507 951.411 33.8173 951.411 34.1631C951.411 34.544 951.59 34.8399 951.949 35.0523C952.307 35.2648 952.867 35.4948 953.629 35.7409C954.39 35.9987 955.009 36.2449 955.485 36.4793C955.962 36.7137 956.372 37.055 956.72 37.5033C957.067 37.9516 957.24 38.5274 957.24 39.2321C957.24 39.9368 957.069 40.514 956.729 41.0619C956.387 41.6099 955.892 42.0464 955.242 42.3717C954.592 42.6969 953.826 42.8581 952.94 42.8581C952.055 42.8581 951.305 42.7189 950.622 42.4391Z" fill="#D9D9D9"/>
<path d="M959.272 33.7191C959.777 32.8064 960.479 32.0959 961.38 31.5875C962.282 31.0791 963.304 30.8242 964.446 30.8242C965.846 30.8242 967.044 31.1934 968.041 31.9318C969.038 32.6702 969.704 33.6781 970.04 34.9527H966.881C966.647 34.4604 966.313 34.0854 965.882 33.8276C965.451 33.5697 964.961 33.4422 964.411 33.4422C963.525 33.4422 962.81 33.7499 962.26 34.3652C961.712 34.9805 961.438 35.8039 961.438 36.8323C961.438 37.8608 961.712 38.6842 962.26 39.2995C962.809 39.9148 963.525 40.2225 964.411 40.2225C964.959 40.2225 965.449 40.0935 965.882 39.8371C966.313 39.5793 966.645 39.2057 966.881 38.712H970.04C969.704 39.988 969.037 40.9916 968.041 41.7256C967.044 42.4581 965.846 42.8244 964.446 42.8244C963.304 42.8244 962.282 42.5694 961.38 42.0611C960.479 41.5527 959.777 40.8436 959.272 39.9382C958.768 39.0314 958.516 37.9971 958.516 36.8323C958.516 35.6676 958.768 34.6304 959.272 33.7191Z" fill="#D9D9D9"/>
<path d="M974.332 42.0879C973.409 41.5737 972.674 40.8544 972.132 39.9314C971.588 39.0084 971.316 37.9697 971.316 36.8182C971.316 35.6667 971.588 34.6309 972.132 33.7123C972.674 32.7952 973.409 32.0788 974.332 31.5631C975.256 31.0489 976.272 30.791 977.38 30.791C978.489 30.791 979.505 31.0489 980.43 31.5631C981.354 32.0773 982.082 32.7937 982.613 33.7123C983.145 34.6294 983.411 35.6652 983.411 36.8182C983.411 37.9712 983.142 39.0084 982.604 39.9314C982.066 40.8544 981.339 41.5737 980.421 42.0879C979.503 42.6022 978.489 42.86 977.38 42.86C976.272 42.86 975.256 42.6022 974.332 42.0879ZM979.641 39.3014C980.207 38.6744 980.49 37.8467 980.49 36.8167C980.49 35.7868 980.207 34.9444 979.641 34.3247C979.075 33.7035 978.322 33.3929 977.382 33.3929C976.442 33.3929 975.671 33.7006 975.106 34.3159C974.54 34.9312 974.258 35.7648 974.258 36.8167C974.258 37.8686 974.54 38.689 975.106 39.3088C975.672 39.9299 976.43 40.2405 977.382 40.2405C978.333 40.2405 979.075 39.927 979.641 39.3V39.3014Z" fill="#D9D9D9"/>
<path d="M987.83 30.959V38.0088C987.83 38.7134 988.003 39.257 988.35 39.6364C988.698 40.0173 989.206 40.2078 989.879 40.2078C990.552 40.2078 991.066 40.0173 991.425 39.6364C991.782 39.2555 991.963 38.7134 991.963 38.0088V30.959H994.835V37.9926C994.835 39.0445 994.611 39.9338 994.163 40.6619C993.715 41.3901 993.114 41.938 992.357 42.3072C991.601 42.6764 990.759 42.861 989.83 42.861C988.9 42.861 988.069 42.6793 987.336 42.316C986.603 41.9526 986.022 41.4047 985.597 40.6707C985.172 39.9382 984.959 39.046 984.959 37.9941V30.9604H987.831L987.83 30.959Z" fill="#D9D9D9"/>
<path d="M1005.33 30.9595V33.2596H1002.21V42.7443H999.337V33.2581H996.213V30.958H1005.33V30.9595Z" fill="#D9D9D9"/>
<path d="M955.627 53.364C955.347 53.8899 954.898 54.3177 954.283 54.6473C953.667 54.977 952.877 55.1425 951.915 55.1425H949.798V59.8761H947.883V48.21H951.915C952.811 48.21 953.57 48.3638 954.19 48.6715C954.812 48.9791 955.277 49.3966 955.585 49.9226C955.892 50.4485 956.046 51.036 956.046 51.685C956.046 52.2784 955.906 52.838 955.626 53.364H955.627ZM953.544 53.0871C953.901 52.7574 954.082 52.2901 954.082 51.685C954.082 50.409 953.359 49.7717 951.915 49.7717H949.798V53.5823H951.915C952.642 53.5823 953.186 53.4167 953.544 53.0871Z" fill="#B9B9B9"/>
<path d="M963.943 59.8761L961.255 55.2099H959.794V59.8761H957.879V48.21H961.911C962.807 48.21 963.566 48.3667 964.186 48.6802C964.808 48.9938 965.273 49.4128 965.581 49.9387C965.888 50.4647 966.042 51.0521 966.042 51.7012C966.042 52.463 965.821 53.153 965.378 53.7742C964.936 54.3954 964.255 54.8173 963.337 55.0414L966.227 59.8761H963.943ZM959.794 53.6819H961.911C962.628 53.6819 963.167 53.5032 963.532 53.1442C963.896 52.7867 964.078 52.3047 964.078 51.7012C964.078 51.0976 963.899 50.6243 963.54 50.283C963.181 49.9416 962.638 49.7717 961.911 49.7717H959.794V53.6834V53.6819Z" fill="#B9B9B9"/>
<path d="M970.82 59.2295C969.907 58.7212 969.185 58.0106 968.653 57.0979C968.121 56.1866 967.855 55.1596 967.855 54.0169C967.855 52.8742 968.121 51.8516 968.653 50.9447C969.185 50.0379 969.907 49.3303 970.82 48.8219C971.732 48.3135 972.732 48.0586 973.818 48.0586C974.905 48.0586 975.921 48.3135 976.834 48.8219C977.746 49.3317 978.466 50.0393 978.992 50.9447C979.519 51.8516 979.781 52.8756 979.781 54.0169C979.781 55.1582 979.517 56.1852 978.992 57.0979C978.466 58.0106 977.746 58.7212 976.834 59.2295C975.921 59.7394 974.916 59.9928 973.818 59.9928C972.72 59.9928 971.732 59.7379 970.82 59.2295ZM975.884 57.8026C976.488 57.4495 976.962 56.947 977.303 56.2921C977.645 55.6372 977.815 54.8798 977.815 54.0169C977.815 53.154 977.644 52.3995 977.303 51.7505C976.962 51.1015 976.488 50.6034 975.884 50.2562C975.28 49.9089 974.591 49.7361 973.818 49.7361C973.046 49.7361 972.357 49.9104 971.752 50.2562C971.148 50.6034 970.675 51.1015 970.333 51.7505C969.992 52.3995 969.82 53.1555 969.82 54.0169C969.82 54.8784 969.99 55.6372 970.333 56.2921C970.675 56.947 971.148 57.451 971.752 57.8026C972.357 58.1557 973.046 58.3315 973.818 58.3315C974.591 58.3315 975.28 58.1557 975.884 57.8026Z" fill="#B9B9B9"/>
<path d="M983.395 59.5831C982.767 59.3091 982.275 58.9194 981.917 58.4169C981.558 57.9129 981.379 57.3255 981.379 56.6545H983.429C983.473 57.1584 983.672 57.5716 984.025 57.8968C984.379 58.2221 984.874 58.3832 985.512 58.3832C986.15 58.3832 986.688 58.2235 987.057 57.9042C987.427 57.5848 987.612 57.1746 987.612 56.6706C987.612 56.2794 987.497 55.96 987.267 55.7139C987.037 55.4678 986.752 55.2773 986.411 55.1426C986.069 55.0078 985.596 54.8627 984.992 54.706C984.229 54.5038 983.61 54.3002 983.135 54.0936C982.659 53.887 982.254 53.5647 981.917 53.1281C981.581 52.6915 981.413 52.1099 981.413 51.3818C981.413 50.7108 981.581 50.1233 981.917 49.6194C982.253 49.1154 982.723 48.7301 983.327 48.4605C983.931 48.1924 984.632 48.0576 985.427 48.0576C986.557 48.0576 987.485 48.3404 988.207 48.9059C988.93 49.4714 989.33 50.2464 989.408 51.2309H987.29C987.257 50.806 987.056 50.4427 986.686 50.1394C986.317 49.8362 985.83 49.6867 985.225 49.6867C984.676 49.6867 984.228 49.8274 983.88 50.1072C983.533 50.387 983.36 50.7899 983.36 51.3159C983.36 51.6748 983.47 51.9678 983.687 52.1978C983.905 52.4278 984.182 52.6095 984.518 52.7428C984.854 52.8776 985.313 53.0226 985.895 53.1794C986.667 53.3918 987.298 53.6043 987.785 53.8167C988.271 54.0291 988.686 54.3573 989.028 54.7983C989.369 55.2407 989.54 55.8311 989.54 56.5695C989.54 57.1628 989.38 57.7225 989.06 58.2484C988.74 58.7744 988.276 59.1963 987.666 59.5157C987.056 59.8351 986.336 59.9933 985.508 59.9933C984.723 59.9933 984.018 59.8571 983.39 59.5816L983.395 59.5831Z" fill="#B9B9B9"/>
<path d="M999.555 53.364C999.275 53.8899 998.826 54.3177 998.21 54.6473C997.595 54.977 996.804 55.1425 995.842 55.1425H993.725V59.8761H991.811V48.21H995.842C996.738 48.21 997.498 48.3638 998.118 48.6715C998.74 48.9791 999.204 49.3966 999.512 49.9226C999.82 50.4485 999.974 51.036 999.974 51.685C999.974 52.2784 999.833 52.838 999.553 53.364H999.555ZM997.471 53.0871C997.829 52.7574 998.009 52.2901 998.009 51.685C998.009 50.409 997.287 49.7717 995.842 49.7717H993.725V53.5823H995.842C996.57 53.5823 997.114 53.4167 997.471 53.0871Z" fill="#B9B9B9"/>
<path d="M1003.72 49.7536V53.1774H1007.75V54.7392H1003.72V58.3153H1008.26V59.8771H1001.8V48.1934H1008.26V49.7551H1003.72V49.7536Z" fill="#B9B9B9"/>
</g>
<rect y="-1" width="46" height="92" fill="url(#paint0_linear_43_21145)"/>
<rect width="46" height="92" transform="matrix(-1 0 0 1 1009 -1)" fill="url(#paint1_linear_43_21145)"/>
</g>
<defs>
<linearGradient id="paint0_linear_43_21145" x1="46" y1="45" x2="-1.37091e-06" y2="45" gradientUnits="userSpaceOnUse">
<stop stop-color="#191414" stop-opacity="0"/>
<stop offset="1" stop-color="#191414"/>
</linearGradient>
<linearGradient id="paint1_linear_43_21145" x1="46" y1="46" x2="-1.37091e-06" y2="46" gradientUnits="userSpaceOnUse">
<stop stop-color="#191414" stop-opacity="0"/>
<stop offset="1" stop-color="#191414"/>
</linearGradient>
<clipPath id="clip0_43_21145">
<rect width="1009" height="91" fill="white"/>
</clipPath>
<clipPath id="clip1_43_21145">
<rect width="128.762" height="40" fill="white" transform="translate(902.373 25.5)"/>
</clipPath>
</defs>
</svg>
