<svg width="176" height="33" viewBox="0 0 176 33" fill="none" xmlns="http://www.w3.org/2000/svg">
<mask id="path-1-outside-1_16_51663" maskUnits="userSpaceOnUse" x="0" y="0" width="176" height="34" fill="black">
<rect fill="white" width="176" height="34"/>
<path d="M26.37 2.85V24H20.49V12.33L16.5 24H11.58L7.56 12.24V24H1.68V2.85H8.79L14.1 16.59L19.29 2.85H26.37ZM50.8371 7.17L40.1571 32.01H33.7671L37.7871 23.28L30.8871 7.17H37.4271L40.9671 16.71L44.3871 7.17H50.8371ZM93.9075 2.85L88.7175 24H81.4875L78.5775 11.04L75.6075 24H68.3775L63.2475 2.85H69.6075L72.0675 17.31L75.3975 2.85H81.8475L85.0875 17.19L87.5475 2.85H93.9075ZM107.233 24.21C105.553 24.21 104.043 23.86 102.703 23.16C101.383 22.46 100.343 21.46 99.5827 20.16C98.8227 18.86 98.4427 17.33 98.4427 15.57C98.4427 13.83 98.8227 12.31 99.5827 11.01C100.363 9.71 101.413 8.71 102.733 8.01C104.073 7.31 105.583 6.96 107.263 6.96C108.943 6.96 110.443 7.31 111.763 8.01C113.103 8.71 114.153 9.71 114.913 11.01C115.693 12.31 116.083 13.83 116.083 15.57C116.083 17.31 115.693 18.84 114.913 20.16C114.153 21.46 113.103 22.46 111.763 23.16C110.423 23.86 108.913 24.21 107.233 24.21ZM107.233 19.11C108.053 19.11 108.733 18.81 109.273 18.21C109.833 17.59 110.113 16.71 110.113 15.57C110.113 14.43 109.833 13.56 109.273 12.96C108.733 12.36 108.063 12.06 107.263 12.06C106.463 12.06 105.793 12.36 105.253 12.96C104.713 13.56 104.443 14.43 104.443 15.57C104.443 16.73 104.703 17.61 105.223 18.21C105.743 18.81 106.413 19.11 107.233 19.11ZM127.355 10.14C128.015 9.18 128.815 8.42 129.755 7.86C130.695 7.3 131.705 7.02 132.785 7.02V13.29H131.135C129.855 13.29 128.905 13.54 128.285 14.04C127.665 14.54 127.355 15.41 127.355 16.65V24H121.475V7.17H127.355V10.14ZM148.423 24L143.773 17.1V24H137.893V1.8H143.773V13.77L148.423 7.17H155.473L148.843 15.63L155.593 24H148.423ZM167.487 24.21C165.967 24.21 164.607 23.96 163.407 23.46C162.227 22.94 161.287 22.24 160.587 21.36C159.907 20.46 159.527 19.45 159.447 18.33H165.147C165.227 18.87 165.477 19.29 165.897 19.59C166.317 19.89 166.837 20.04 167.457 20.04C167.937 20.04 168.317 19.94 168.597 19.74C168.877 19.54 169.017 19.28 169.017 18.96C169.017 18.54 168.787 18.23 168.327 18.03C167.867 17.83 167.107 17.61 166.047 17.37C164.847 17.13 163.847 16.86 163.047 16.56C162.247 16.26 161.547 15.77 160.947 15.09C160.367 14.41 160.077 13.49 160.077 12.33C160.077 11.33 160.347 10.43 160.887 9.63C161.427 8.81 162.217 8.16 163.257 7.68C164.317 7.2 165.587 6.96 167.067 6.96C169.267 6.96 170.997 7.5 172.257 8.58C173.517 9.66 174.247 11.08 174.447 12.84H169.137C169.037 12.3 168.797 11.89 168.417 11.61C168.057 11.31 167.567 11.16 166.947 11.16C166.467 11.16 166.097 11.25 165.837 11.43C165.597 11.61 165.477 11.86 165.477 12.18C165.477 12.58 165.707 12.89 166.167 13.11C166.627 13.31 167.367 13.52 168.387 13.74C169.607 14 170.617 14.29 171.417 14.61C172.237 14.93 172.947 15.45 173.547 16.17C174.167 16.87 174.477 17.83 174.477 19.05C174.477 20.03 174.187 20.91 173.607 21.69C173.047 22.47 172.237 23.09 171.177 23.55C170.137 23.99 168.907 24.21 167.487 24.21Z"/>
</mask>
<path d="M26.37 2.85H27.37V1.85H26.37V2.85ZM26.37 24V25H27.37V24H26.37ZM20.49 24H19.49V25H20.49V24ZM20.49 12.33H21.49L19.5438 12.0065L20.49 12.33ZM16.5 24V25H17.2149L17.4462 24.3235L16.5 24ZM11.58 24L10.6338 24.3235L10.865 25H11.58V24ZM7.56 12.24L8.50624 11.9165L6.56 12.24H7.56ZM7.56 24V25H8.56V24H7.56ZM1.68 24H0.68V25H1.68V24ZM1.68 2.85V1.85H0.68V2.85H1.68ZM8.79 2.85L9.72277 2.48952L9.47562 1.85H8.79V2.85ZM14.1 16.59L13.1672 16.9505L14.1107 19.3917L15.0355 16.9434L14.1 16.59ZM19.29 2.85V1.85H18.5988L18.3545 2.49664L19.29 2.85ZM25.37 2.85V24H27.37V2.85H25.37ZM26.37 23H20.49V25H26.37V23ZM21.49 24V12.33H19.49V24H21.49ZM19.5438 12.0065L15.5538 23.6765L17.4462 24.3235L21.4362 12.6535L19.5438 12.0065ZM16.5 23H11.58V25H16.5V23ZM12.5262 23.6765L8.50624 11.9165L6.61376 12.5635L10.6338 24.3235L12.5262 23.6765ZM6.56 12.24V24H8.56V12.24H6.56ZM7.56 23H1.68V25H7.56V23ZM2.68 24V2.85H0.68V24H2.68ZM1.68 3.85H8.79V1.85H1.68V3.85ZM7.85723 3.21048L13.1672 16.9505L15.0328 16.2295L9.72277 2.48952L7.85723 3.21048ZM15.0355 16.9434L20.2255 3.20336L18.3545 2.49664L13.1645 16.2366L15.0355 16.9434ZM19.29 3.85H26.37V1.85H19.29V3.85ZM50.8371 7.17L51.7558 7.56499L52.3556 6.17H50.8371V7.17ZM40.1571 32.01V33.01H40.8157L41.0758 32.405L40.1571 32.01ZM33.7671 32.01L32.8588 31.5917L32.2057 33.01H33.7671V32.01ZM37.7871 23.28L38.6954 23.6983L38.8813 23.2947L38.7063 22.8863L37.7871 23.28ZM30.8871 7.17V6.17H29.3709L29.9679 7.56371L30.8871 7.17ZM37.4271 7.17L38.3646 6.82211L38.1227 6.17H37.4271V7.17ZM40.9671 16.71L40.0296 17.0579L40.9833 19.6281L41.9084 17.0475L40.9671 16.71ZM44.3871 7.17V6.17H43.6833L43.4458 6.83254L44.3871 7.17ZM49.9184 6.77501L39.2384 31.615L41.0758 32.405L51.7558 7.56499L49.9184 6.77501ZM40.1571 31.01H33.7671V33.01H40.1571V31.01ZM34.6754 32.4283L38.6954 23.6983L36.8788 22.8617L32.8588 31.5917L34.6754 32.4283ZM38.7063 22.8863L31.8063 6.77629L29.9679 7.56371L36.8679 23.6737L38.7063 22.8863ZM30.8871 8.17H37.4271V6.17H30.8871V8.17ZM36.4896 7.51789L40.0296 17.0579L41.9046 16.3621L38.3646 6.82211L36.4896 7.51789ZM41.9084 17.0475L45.3284 7.50746L43.4458 6.83254L40.0258 16.3725L41.9084 17.0475ZM44.3871 8.17H50.8371V6.17H44.3871V8.17ZM93.9075 2.85L94.8787 3.08832L95.1826 1.85H93.9075V2.85ZM88.7175 24V25H89.5018L89.6887 24.2383L88.7175 24ZM81.4875 24L80.5118 24.2191L80.6871 25H81.4875V24ZM78.5775 11.04L79.5532 10.8209L77.6028 10.8166L78.5775 11.04ZM75.6075 24V25H76.4043L76.5822 24.2234L75.6075 24ZM68.3775 24L67.4057 24.2357L67.5911 25H68.3775V24ZM63.2475 2.85V1.85H61.976L62.2757 3.08572L63.2475 2.85ZM69.6075 2.85L70.5933 2.68228L70.4517 1.85H69.6075V2.85ZM72.0675 17.31L71.0817 17.4777L73.042 17.5344L72.0675 17.31ZM75.3975 2.85V1.85H74.6016L74.423 2.62558L75.3975 2.85ZM81.8475 2.85L82.8229 2.62961L82.6468 1.85H81.8475V2.85ZM85.0875 17.19L84.1121 17.4104L86.0731 17.3591L85.0875 17.19ZM87.5475 2.85V1.85H86.7044L86.5619 2.68092L87.5475 2.85ZM92.9363 2.61168L87.7463 23.7617L89.6887 24.2383L94.8787 3.08832L92.9363 2.61168ZM88.7175 23H81.4875V25H88.7175V23ZM82.4632 23.7809L79.5532 10.8209L77.6018 11.2591L80.5118 24.2191L82.4632 23.7809ZM77.6028 10.8166L74.6328 23.7766L76.5822 24.2234L79.5522 11.2634L77.6028 10.8166ZM75.6075 23H68.3775V25H75.6075V23ZM69.3493 23.7643L64.2193 2.61428L62.2757 3.08572L67.4057 24.2357L69.3493 23.7643ZM63.2475 3.85H69.6075V1.85H63.2475V3.85ZM68.6217 3.01771L71.0817 17.4777L73.0533 17.1423L70.5933 2.68228L68.6217 3.01771ZM73.042 17.5344L76.372 3.07442L74.423 2.62558L71.093 17.0856L73.042 17.5344ZM75.3975 3.85H81.8475V1.85H75.3975V3.85ZM80.8721 3.07038L84.1121 17.4104L86.0629 16.9696L82.8229 2.62961L80.8721 3.07038ZM86.0731 17.3591L88.5331 3.01908L86.5619 2.68092L84.1019 17.0209L86.0731 17.3591ZM87.5475 3.85H93.9075V1.85H87.5475V3.85ZM102.703 23.16L102.234 24.0435L102.24 24.0463L102.703 23.16ZM99.5827 20.16L100.446 19.6553L100.446 19.6553L99.5827 20.16ZM99.5827 11.01L98.7251 10.4955L98.7194 10.5053L99.5827 11.01ZM102.733 8.01L102.27 7.12363L102.264 7.12654L102.733 8.01ZM111.763 8.01L111.294 8.89348L111.3 8.89635L111.763 8.01ZM114.913 11.01L114.049 11.5147L114.055 11.5245L114.913 11.01ZM114.913 20.16L114.052 19.6513L114.049 19.6553L114.913 20.16ZM111.763 23.16L111.3 22.2737L111.763 23.16ZM109.273 18.21L108.531 17.5397L108.529 17.541L109.273 18.21ZM109.273 12.96L108.529 13.629L108.535 13.6357L108.542 13.6423L109.273 12.96ZM105.223 18.21L104.467 18.8649L104.467 18.8649L105.223 18.21ZM107.233 23.21C105.696 23.21 104.347 22.891 103.166 22.2737L102.24 24.0463C103.738 24.829 105.41 25.21 107.233 25.21V23.21ZM103.171 22.2765C102.017 21.6644 101.113 20.7961 100.446 19.6553L98.7194 20.6647C99.5724 22.1239 100.749 23.2556 102.234 24.0435L103.171 22.2765ZM100.446 19.6553C99.7896 18.5326 99.4427 17.1829 99.4427 15.57H97.4427C97.4427 17.4771 97.8557 19.1874 98.7194 20.6647L100.446 19.6553ZM99.4427 15.57C99.4427 13.9794 99.7886 12.6391 100.446 11.5147L98.7194 10.5053C97.8567 11.9809 97.4427 13.6806 97.4427 15.57H99.4427ZM100.44 11.5245C101.128 10.3782 102.044 9.50686 103.201 8.89346L102.264 7.12654C100.781 7.91314 99.5974 9.04181 98.7252 10.4955L100.44 11.5245ZM103.196 8.89635C104.377 8.27901 105.726 7.96 107.263 7.96V5.96C105.44 5.96 103.768 6.34099 102.27 7.12365L103.196 8.89635ZM107.263 7.96C108.8 7.96 110.136 8.27909 111.294 8.89346L112.231 7.12654C110.75 6.34091 109.085 5.96 107.263 5.96V7.96ZM111.3 8.89635C112.474 9.50966 113.385 10.3777 114.049 11.5147L115.776 10.5053C114.921 9.0423 113.732 7.91034 112.226 7.12365L111.3 8.89635ZM114.055 11.5245C114.729 12.6473 115.083 13.984 115.083 15.57H117.083C117.083 13.676 116.656 11.9727 115.77 10.4955L114.055 11.5245ZM115.083 15.57C115.083 17.1557 114.729 18.5052 114.052 19.6513L115.774 20.6687C116.656 19.1748 117.083 17.4643 117.083 15.57H115.083ZM114.049 19.6553C113.385 20.7923 112.474 21.6603 111.3 22.2737L112.226 24.0463C113.732 23.2597 114.921 22.1277 115.776 20.6647L114.049 19.6553ZM111.3 22.2737C110.118 22.891 108.77 23.21 107.233 23.21V25.21C109.056 25.21 110.727 24.829 112.226 24.0463L111.3 22.2737ZM107.233 20.11C108.331 20.11 109.283 19.6935 110.016 18.879L108.529 17.541C108.182 17.9265 107.774 18.11 107.233 18.11V20.11ZM110.015 18.8803C110.793 18.0186 111.113 16.8666 111.113 15.57H109.113C109.113 16.5534 108.872 17.1614 108.531 17.5397L110.015 18.8803ZM111.113 15.57C111.113 14.276 110.794 13.1245 110.004 12.2777L108.542 13.6423C108.871 13.9955 109.113 14.584 109.113 15.57H111.113ZM110.016 12.291C109.288 11.4825 108.349 11.06 107.263 11.06V13.06C107.776 13.06 108.177 13.2375 108.529 13.629L110.016 12.291ZM107.263 11.06C106.176 11.06 105.237 11.4825 104.509 12.291L105.996 13.629C106.348 13.2375 106.749 13.06 107.263 13.06V11.06ZM104.509 12.291C103.747 13.1382 103.443 14.2844 103.443 15.57H105.443C105.443 14.5756 105.678 13.9818 105.996 13.629L104.509 12.291ZM103.443 15.57C103.443 16.8621 103.731 18.0152 104.467 18.8649L105.978 17.5551C105.675 17.2048 105.443 16.5979 105.443 15.57H103.443ZM104.467 18.8649C105.184 19.6922 106.134 20.11 107.233 20.11V18.11C106.692 18.11 106.301 17.9278 105.978 17.5551L104.467 18.8649ZM127.355 10.14H126.355V13.3597L128.179 10.7065L127.355 10.14ZM129.755 7.86L130.267 8.7191L129.755 7.86ZM132.785 7.02H133.785V6.02H132.785V7.02ZM132.785 13.29V14.29H133.785V13.29H132.785ZM128.285 14.04L128.913 14.8184L128.913 14.8184L128.285 14.04ZM127.355 24V25H128.355V24H127.355ZM121.475 24H120.475V25H121.475V24ZM121.475 7.17V6.17H120.475V7.17H121.475ZM127.355 7.17H128.355V6.17H127.355V7.17ZM128.179 10.7065C128.763 9.85759 129.459 9.20052 130.267 8.7191L129.243 7.0009C128.171 7.63947 127.267 8.5024 126.531 9.57347L128.179 10.7065ZM130.267 8.7191C131.054 8.25004 131.888 8.02 132.785 8.02V6.02C131.522 6.02 130.336 6.34995 129.243 7.0009L130.267 8.7191ZM131.785 7.02V13.29H133.785V7.02H131.785ZM132.785 12.29H131.135V14.29H132.785V12.29ZM131.135 12.29C129.756 12.29 128.535 12.5539 127.657 13.2616L128.913 14.8184C129.275 14.5261 129.954 14.29 131.135 14.29V12.29ZM127.657 13.2616C126.696 14.0371 126.355 15.2773 126.355 16.65H128.355C128.355 15.5427 128.634 15.0429 128.913 14.8184L127.657 13.2616ZM126.355 16.65V24H128.355V16.65H126.355ZM127.355 23H121.475V25H127.355V23ZM122.475 24V7.17H120.475V24H122.475ZM121.475 8.17H127.355V6.17H121.475V8.17ZM126.355 7.17V10.14H128.355V7.17H126.355ZM148.423 24L147.594 24.5589L147.891 25H148.423V24ZM143.773 17.1L144.602 16.5411L142.773 13.8268V17.1H143.773ZM143.773 24V25H144.773V24H143.773ZM137.893 24H136.893V25H137.893V24ZM137.893 1.8V0.8H136.893V1.8H137.893ZM143.773 1.8H144.773V0.8H143.773V1.8ZM143.773 13.77H142.773V16.9256L144.59 14.346L143.773 13.77ZM148.423 7.17V6.17H147.904L147.605 6.59405L148.423 7.17ZM155.473 7.17L156.26 7.78683L157.527 6.17H155.473V7.17ZM148.843 15.63L148.056 15.0132L147.565 15.6389L148.064 16.2578L148.843 15.63ZM155.593 24V25H157.684L156.371 23.3722L155.593 24ZM149.252 23.4411L144.602 16.5411L142.944 17.6589L147.594 24.5589L149.252 23.4411ZM142.773 17.1V24H144.773V17.1H142.773ZM143.773 23H137.893V25H143.773V23ZM138.893 24V1.8H136.893V24H138.893ZM137.893 2.8H143.773V0.8H137.893V2.8ZM142.773 1.8V13.77H144.773V1.8H142.773ZM144.59 14.346L149.24 7.74595L147.605 6.59405L142.955 13.194L144.59 14.346ZM148.423 8.17H155.473V6.17H148.423V8.17ZM154.686 6.55316L148.056 15.0132L149.63 16.2468L156.26 7.78683L154.686 6.55316ZM148.064 16.2578L154.814 24.6278L156.371 23.3722L149.621 15.0022L148.064 16.2578ZM155.593 23H148.423V25H155.593V23ZM163.407 23.46L163.003 24.3751L163.013 24.3792L163.022 24.3831L163.407 23.46ZM160.587 21.36L159.789 21.9628L159.796 21.9728L159.804 21.9825L160.587 21.36ZM159.447 18.33V17.33H158.373L158.449 18.4012L159.447 18.33ZM165.147 18.33L166.136 18.1835L166.009 17.33H165.147V18.33ZM168.327 18.03L168.725 17.1129L168.725 17.1129L168.327 18.03ZM166.047 17.37L166.268 16.3947L166.255 16.3919L166.243 16.3894L166.047 17.37ZM163.047 16.56L162.696 17.4963L162.696 17.4963L163.047 16.56ZM160.947 15.09L160.186 15.7389L160.191 15.7453L160.197 15.7516L160.947 15.09ZM160.887 9.63L161.716 10.1895L161.722 10.18L160.887 9.63ZM163.257 7.68L162.844 6.76902L162.838 6.77204L163.257 7.68ZM172.257 8.58L171.606 9.33926L171.606 9.33926L172.257 8.58ZM174.447 12.84V13.84H175.567L175.44 12.7271L174.447 12.84ZM169.137 12.84L168.153 13.0221L168.305 13.84H169.137V12.84ZM168.417 11.61L167.777 12.3782L167.799 12.3973L167.824 12.4151L168.417 11.61ZM165.837 11.43L165.268 10.6078L165.252 10.6186L165.237 10.63L165.837 11.43ZM166.167 13.11L165.735 14.0121L165.751 14.0199L165.768 14.0271L166.167 13.11ZM168.387 13.74L168.176 14.7175L168.178 14.718L168.387 13.74ZM171.417 14.61L171.045 15.5385L171.053 15.5416L171.417 14.61ZM173.547 16.17L172.778 16.8102L172.788 16.8218L172.798 16.833L173.547 16.17ZM173.607 21.69L172.804 21.0933L172.799 21.1L172.794 21.1068L173.607 21.69ZM171.177 23.55L171.566 24.471L171.575 24.4673L171.177 23.55ZM167.487 23.21C166.077 23.21 164.851 22.9783 163.791 22.5369L163.022 24.3831C164.363 24.9417 165.857 25.21 167.487 25.21V23.21ZM163.81 22.5449C162.756 22.0806 161.955 21.4732 161.369 20.7375L159.804 21.9825C160.619 23.0068 161.697 23.7994 163.003 24.3751L163.81 22.5449ZM161.385 20.7572C160.821 20.0106 160.51 19.1851 160.444 18.2588L158.449 18.4012C158.543 19.7149 158.993 20.9094 159.789 21.9628L161.385 20.7572ZM159.447 19.33H165.147V17.33H159.447V19.33ZM164.158 18.4765C164.275 19.2678 164.661 19.9361 165.315 20.4037L166.478 18.7763C166.293 18.6439 166.179 18.4722 166.136 18.1835L164.158 18.4765ZM165.315 20.4037C165.937 20.8476 166.671 21.04 167.457 21.04V19.04C167.002 19.04 166.697 18.9324 166.478 18.7763L165.315 20.4037ZM167.457 21.04C168.065 21.04 168.673 20.9143 169.178 20.5537L168.015 18.9263C167.96 18.9657 167.808 19.04 167.457 19.04V21.04ZM169.178 20.5537C169.698 20.1826 170.017 19.6304 170.017 18.96H168.017C168.017 18.9667 168.016 18.9638 168.018 18.9541C168.021 18.9441 168.025 18.9322 168.031 18.9209C168.037 18.9098 168.042 18.9043 168.042 18.9045C168.041 18.905 168.034 18.9129 168.015 18.9263L169.178 20.5537ZM170.017 18.96C170.017 18.5554 169.902 18.1594 169.647 17.8167C169.401 17.485 169.069 17.2624 168.725 17.1129L167.928 18.9471C168.044 18.9976 168.057 19.03 168.041 19.0083C168.033 18.9973 168.025 18.982 168.02 18.9661C168.015 18.9512 168.017 18.9471 168.017 18.96H170.017ZM168.725 17.1129C168.173 16.8729 167.335 16.6364 166.268 16.3947L165.826 18.3453C166.878 18.5836 167.56 18.7871 167.928 18.9471L168.725 17.1129ZM166.243 16.3894C165.075 16.1559 164.131 15.8986 163.398 15.6237L162.696 17.4963C163.562 17.8214 164.618 18.1041 165.851 18.3506L166.243 16.3894ZM163.398 15.6237C162.761 15.3847 162.195 14.9933 161.697 14.4284L160.197 15.7516C160.898 16.5467 161.733 17.1353 162.696 17.4963L163.398 15.6237ZM161.708 14.4411C161.323 13.9903 161.077 13.3243 161.077 12.33H159.077C159.077 13.6557 159.41 14.8297 160.186 15.7389L161.708 14.4411ZM161.077 12.33C161.077 11.5218 161.291 10.818 161.716 10.1895L160.058 9.07053C159.402 10.042 159.077 11.1382 159.077 12.33H161.077ZM161.722 10.18C162.143 9.54022 162.776 9.00302 163.676 8.58796L162.838 6.77204C161.657 7.31697 160.71 8.07977 160.052 9.08001L161.722 10.18ZM163.669 8.59095C164.569 8.1833 165.692 7.96 167.067 7.96V5.96C165.482 5.96 164.064 6.21669 162.844 6.76904L163.669 8.59095ZM167.067 7.96C169.107 7.96 170.579 8.45912 171.606 9.33926L172.908 7.82074C171.414 6.54088 169.427 5.96 167.067 5.96V7.96ZM171.606 9.33926C172.66 10.2431 173.28 11.4254 173.453 12.9529L175.44 12.7271C175.214 10.7346 174.373 9.0769 172.908 7.82074L171.606 9.33926ZM174.447 11.84H169.137V13.84H174.447V11.84ZM170.12 12.6579C169.982 11.9119 169.627 11.26 169.01 10.8049L167.824 12.4151C167.966 12.52 168.092 12.6881 168.153 13.0221L170.12 12.6579ZM169.057 10.8418C168.466 10.3495 167.724 10.16 166.947 10.16V12.16C167.409 12.16 167.647 12.2705 167.777 12.3782L169.057 10.8418ZM166.947 10.16C166.362 10.16 165.761 10.2663 165.268 10.6078L166.406 12.2522C166.433 12.2337 166.571 12.16 166.947 12.16V10.16ZM165.237 10.63C164.726 11.013 164.477 11.5697 164.477 12.18H166.477C166.477 12.1625 166.478 12.1564 166.478 12.1591C166.477 12.1623 166.475 12.172 166.468 12.1852C166.462 12.1986 166.454 12.2107 166.446 12.2201C166.438 12.2292 166.434 12.2321 166.437 12.23L165.237 10.63ZM164.477 12.18C164.477 13.0775 165.042 13.6807 165.735 14.0121L166.598 12.2079C166.47 12.1464 166.444 12.1056 166.452 12.1167C166.457 12.1233 166.465 12.1369 166.471 12.1549C166.477 12.1727 166.477 12.1829 166.477 12.18H164.477ZM165.768 14.0271C166.324 14.2687 167.145 14.4952 168.176 14.7175L168.598 12.7625C167.589 12.5448 166.93 12.3513 166.565 12.1929L165.768 14.0271ZM168.178 14.718C169.365 14.9709 170.316 15.2467 171.045 15.5385L171.788 13.6815C170.918 13.3333 169.848 13.0291 168.595 12.762L168.178 14.718ZM171.053 15.5416C171.706 15.7962 172.279 16.2113 172.778 16.8102L174.315 15.5298C173.614 14.6887 172.768 14.0638 171.78 13.6784L171.053 15.5416ZM172.798 16.833C173.212 17.3002 173.477 17.9982 173.477 19.05H175.477C175.477 17.6618 175.121 16.4398 174.295 15.507L172.798 16.833ZM173.477 19.05C173.477 19.8169 173.255 20.4873 172.804 21.0933L174.409 22.2867C175.119 21.3327 175.477 20.2431 175.477 19.05H173.477ZM172.794 21.1068C172.359 21.7127 171.707 22.2299 170.779 22.6327L171.575 24.4673C172.767 23.9501 173.734 23.2273 174.419 22.2732L172.794 21.1068ZM170.787 22.629C169.898 23.0053 168.806 23.21 167.487 23.21V25.21C169.007 25.21 170.376 24.9747 171.566 24.471L170.787 22.629Z" fill="white" mask="url(#path-1-outside-1_16_51663)"/>
</svg>
