<svg width="157" height="263" viewBox="0 0 157 263" fill="none" xmlns="http://www.w3.org/2000/svg">
<rect width="157" height="263" rx="9" fill="url(#paint0_linear_151_3222)" fill-opacity="0.6"/>
<rect x="1.5" y="1.5" width="154" height="260" rx="7.5" stroke="url(#paint1_linear_151_3222)" stroke-opacity="0.59" stroke-width="3"/>
<g clip-path="url(#clip0_151_3222)">
<path d="M88.384 135.77C86.9637 134.484 85.0076 133.867 82.4617 133.867H67.6562V148.82H82.4617C85.0074 148.82 86.9905 148.164 88.384 146.837C89.7908 145.524 90.5009 143.648 90.5009 141.236C90.5009 138.865 89.8043 137.056 88.384 135.77Z" fill="#AD43FF"/>
<path d="M86.3473 126.136C87.6872 124.984 88.3571 123.349 88.3571 121.205C88.3571 118.794 87.7541 117.092 86.5483 116.114C85.3425 115.136 83.6006 114.64 81.3227 114.64H67.6561V127.851H81.3227C83.3327 127.851 85.0075 127.288 86.3473 126.136Z" fill="#AD43FF"/>
<path d="M105.333 90H50.6666C43.15 90 37 96.15 37 103.667V158.333C37 165.85 43.15 172 50.6666 172H105.333C112.85 172 119 165.85 119 158.333V103.667C119 96.15 112.85 90 105.333 90ZM97.8703 147.574C97.2003 149.209 96.1553 150.616 94.7216 151.795C93.288 152.974 91.4658 153.912 89.2282 154.609C86.9907 155.305 84.3377 155.654 81.256 155.654H59.2821V107.82H82.5287C86.8163 107.82 90.2598 108.798 92.8457 110.768C95.4316 112.738 96.7312 115.699 96.7312 119.678C96.7312 122.09 96.1417 124.153 94.9626 125.868C93.7836 127.583 92.0954 128.923 89.8978 129.861V129.995C92.8455 130.625 95.0832 132.018 96.5972 134.176C98.1111 136.346 98.8749 139.053 98.8749 142.322C98.8751 144.198 98.5402 145.953 97.8703 147.574Z" fill="#AD43FF"/>
</g>
<defs>
<linearGradient id="paint0_linear_151_3222" x1="78.5" y1="0" x2="78.5" y2="263" gradientUnits="userSpaceOnUse">
<stop stop-color="#5B6295" stop-opacity="0.55"/>
<stop offset="1" stop-color="#660A9B"/>
</linearGradient>
<linearGradient id="paint1_linear_151_3222" x1="4" y1="5" x2="157" y2="269" gradientUnits="userSpaceOnUse">
<stop stop-color="#F0F0F0" stop-opacity="0.17"/>
<stop offset="0.335" stop-color="#999999" stop-opacity="0.6929"/>
<stop offset="0.58" stop-color="#A0A0A0" stop-opacity="0.6514"/>
<stop offset="1" stop-color="#666666"/>
</linearGradient>
<clipPath id="clip0_151_3222">
<rect width="82" height="82" fill="white" transform="translate(37 90)"/>
</clipPath>
</defs>
</svg>
