<svg width="157" height="263" viewBox="0 0 157 263" fill="none" xmlns="http://www.w3.org/2000/svg">
<path d="M0 9C0 4.02943 4.02944 0 9 0H148C152.971 0 157 4.02944 157 9V254C157 258.971 152.971 263 148 263H9C4.02944 263 0 258.971 0 254V9Z" fill="url(#paint0_linear_151_3242)" fill-opacity="0.6"/>
<path d="M1.5 9C1.5 4.85786 4.85786 1.5 9 1.5H148C152.142 1.5 155.5 4.85786 155.5 9V254C155.5 258.142 152.142 261.5 148 261.5H9C4.85786 261.5 1.5 258.142 1.5 254V9Z" stroke="url(#paint1_linear_151_3242)" stroke-opacity="0.59" stroke-width="3"/>
<g clip-path="url(#clip0_151_3242)">
<path d="M78.9846 171.969C101.62 171.969 119.969 153.62 119.969 130.985C119.969 108.349 101.62 90 78.9846 90C56.3494 90 38 108.349 38 130.985C38 153.62 56.3494 171.969 78.9846 171.969Z" fill="#F44C71"/>
<path fill-rule="evenodd" clip-rule="evenodd" d="M93.0048 137.011C92.7588 137.011 92.5128 136.919 92.3591 136.673L90.5143 134.09L88.5773 136.703C87.9624 137.534 86.7018 136.58 87.3167 135.75L89.5612 132.737L87.3782 129.693C86.7633 128.863 88.0546 127.91 88.6696 128.771L90.5451 131.415L92.4513 128.863C93.0663 128.033 94.3269 128.986 93.7119 129.816L91.529 132.768L93.6504 135.75C94.0194 136.273 93.6197 137.011 93.0048 137.011ZM94.2039 118.348H63.7652C62.7506 118.348 62.7506 116.78 63.7652 116.78H94.2039C95.2492 116.78 95.2492 118.348 94.2039 118.348ZM94.2039 122.806H63.7652C62.7506 122.806 62.7506 121.207 63.7652 121.207H94.2039C95.2492 121.207 95.2492 122.806 94.2039 122.806ZM99.9534 144.851V116.872C99.9534 112.568 97.463 109.093 94.4191 109.093H63.5807C60.5061 109.093 58.0464 112.568 58.0464 116.872V144.851H74.3419H74.3726H74.4034H74.4341H74.4648H74.4956L74.5263 144.882H74.5571H74.5878L74.6186 144.913H74.6493H74.6801V144.943H74.7108L74.7416 144.974H74.7723L74.8031 145.005L74.8338 145.036H74.8645V145.066H74.8953C74.8953 145.097 75.1105 145.405 75.1105 145.651V148.018H82.8585V145.651C82.8585 145.066 83.166 145.036 83.5042 144.851H83.6272H83.6579H83.6887H99.9534ZM56.4476 144.851V116.872C56.4476 111.707 59.6452 107.495 63.5807 107.495H94.4191C98.3546 107.495 101.552 111.707 101.552 116.872V144.851H104.442C104.873 144.851 105.242 145.189 105.242 145.651C105.242 150.508 101.275 154.475 96.3869 154.475H61.6129C56.7243 154.475 52.7581 150.508 52.7581 145.651C52.7581 145.189 53.127 144.851 53.5575 144.851H56.4476ZM73.5425 146.419H54.3876C54.7873 150.047 57.8619 152.907 61.6129 152.907H96.3869C100.107 152.907 103.212 150.047 103.612 146.419H84.4573V148.817C84.4573 149.248 84.0884 149.617 83.6579 149.617H74.3111C73.8807 149.617 73.5425 149.279 73.5425 148.817V146.419ZM74.926 138.733C74.4034 138.733 74.0037 138.241 74.1574 137.718L77.0783 126.772C77.355 125.789 78.8923 126.219 78.6156 127.203L75.6947 138.149C75.6025 138.487 75.2642 138.733 74.926 138.733ZM82.7356 137.042C80.983 137.042 79.6609 135.904 79.7532 134.09V129.201C79.7532 128.187 81.3212 128.187 81.3212 129.201C81.3212 130.185 81.3827 133.506 81.3212 134.213C81.1675 135.873 84.2729 135.873 84.1191 134.213C84.0576 133.537 84.1191 130.155 84.1191 129.201C84.1191 128.187 85.7179 128.187 85.7179 129.201V134.09C85.7794 135.904 84.4573 137.042 82.7356 137.042ZM67.1165 136.519C65.364 136.519 64.0419 135.381 64.1341 133.567V128.679C64.1341 127.664 65.7022 127.664 65.7022 128.679C65.7022 129.693 65.7637 132.922 65.7022 133.69C65.5792 135.351 68.6538 135.351 68.5001 133.69C68.4386 132.922 68.5001 129.693 68.5001 128.679C68.5001 127.664 70.0989 127.664 70.0989 128.679V133.567C70.1604 135.381 68.8383 136.519 67.1165 136.519ZM72.4356 136.488C72.0051 136.488 71.6362 136.15 71.6362 135.689V128.709C71.6362 127.664 73.235 127.664 73.235 128.709V135.689C73.235 136.15 72.866 136.488 72.4356 136.488Z" fill="white"/>
</g>
<defs>
<linearGradient id="paint0_linear_151_3242" x1="78.5" y1="0" x2="78.5" y2="263" gradientUnits="userSpaceOnUse">
<stop stop-color="#5B6295" stop-opacity="0.55"/>
<stop offset="1" stop-color="#660A9B"/>
</linearGradient>
<linearGradient id="paint1_linear_151_3242" x1="4" y1="5" x2="157" y2="269" gradientUnits="userSpaceOnUse">
<stop stop-color="#F0F0F0" stop-opacity="0.17"/>
<stop offset="0.335" stop-color="#999999" stop-opacity="0.6929"/>
<stop offset="0.58" stop-color="#A0A0A0" stop-opacity="0.6514"/>
<stop offset="1" stop-color="#666666"/>
</linearGradient>
<clipPath id="clip0_151_3242">
<rect width="82" height="82" fill="white" transform="translate(38 90)"/>
</clipPath>
</defs>
</svg>
