<svg width="157" height="263" viewBox="0 0 157 263" fill="none" xmlns="http://www.w3.org/2000/svg">
<path d="M0 9C0 4.02943 4.02944 0 9 0H148C152.971 0 157 4.02944 157 9V254C157 258.971 152.971 263 148 263H9C4.02944 263 0 258.971 0 254V9Z" fill="url(#paint0_linear_151_3218)" fill-opacity="0.6"/>
<path d="M1.5 9C1.5 4.85786 4.85786 1.5 9 1.5H148C152.142 1.5 155.5 4.85786 155.5 9V254C155.5 258.142 152.142 261.5 148 261.5H9C4.85786 261.5 1.5 258.142 1.5 254V9Z" stroke="url(#paint1_linear_151_3218)" stroke-opacity="0.59" stroke-width="3"/>
<g clip-path="url(#clip0_151_3218)">
<path d="M45.0078 90H110.992C115.415 90 119 93.5853 119 98.0078V163.992C119 168.415 115.415 172 110.992 172H45.0078C40.5853 172 37 168.415 37 163.992V98.0078C37 93.5853 40.5853 90 45.0078 90Z" fill="#3178C6"/>
<path d="M45.0078 90H110.992C115.415 90 119 93.5853 119 98.0078V163.992C119 168.415 115.415 172 110.992 172H45.0078C40.5853 172 37 168.415 37 163.992V98.0078C37 93.5853 40.5853 90 45.0078 90Z" fill="#3178C6"/>
<path fill-rule="evenodd" clip-rule="evenodd" d="M87.7598 155.252V163.269C89.0631 163.937 90.6046 164.438 92.3843 164.772C94.1639 165.106 96.0395 165.273 98.0114 165.273C101.41 165.273 105.13 164.787 108.037 162.906C110.931 161.033 112.273 157.918 112.273 154.55C112.273 152.046 111.497 149.636 109.742 147.81C107.111 145.073 103.413 143.963 100.092 142.336C98.4278 141.521 96.1315 140.255 96.1315 138.114C96.1315 137.563 96.2735 137.066 96.5576 136.623C97.6999 134.844 100.237 134.481 102.172 134.481C104.369 134.481 106.687 134.973 108.727 135.884C109.437 136.202 110.093 136.569 110.694 136.987V129.495C109.475 129.028 108.142 128.681 106.696 128.455C105.251 128.23 103.592 128.117 101.721 128.117C99.816 128.117 98.0114 128.322 96.307 128.731C94.6026 129.14 93.1029 129.779 91.8077 130.648C90.5127 131.516 89.4893 132.623 88.7374 133.968C87.9854 135.312 87.6094 136.92 87.6094 138.79C87.6094 141.179 88.2987 143.217 89.6773 144.904C91.0558 146.591 93.1487 148.019 95.9561 149.188C97.8446 149.961 99.8083 150.723 101.508 151.869C102.686 152.664 103.751 153.771 103.751 155.276C103.751 156.369 103.134 157.295 102.235 157.87C100.905 158.72 99.2021 158.909 97.6603 158.909C95.9224 158.909 94.2014 158.605 92.4969 157.995C90.7926 157.385 89.2135 156.471 87.7598 155.252ZM74.2812 135.498H84.5664V128.918H55.8984V135.498H66.1334V164.793H74.2812V135.498Z" fill="white"/>
</g>
<defs>
<linearGradient id="paint0_linear_151_3218" x1="78.5" y1="0" x2="78.5" y2="263" gradientUnits="userSpaceOnUse">
<stop stop-color="#5B6295" stop-opacity="0.55"/>
<stop offset="1" stop-color="#660A9B"/>
</linearGradient>
<linearGradient id="paint1_linear_151_3218" x1="4" y1="5" x2="157" y2="269" gradientUnits="userSpaceOnUse">
<stop stop-color="#F0F0F0" stop-opacity="0.17"/>
<stop offset="0.335" stop-color="#999999" stop-opacity="0.6929"/>
<stop offset="0.58" stop-color="#A0A0A0" stop-opacity="0.6514"/>
<stop offset="1" stop-color="#666666"/>
</linearGradient>
<clipPath id="clip0_151_3218">
<rect width="82" height="82" fill="white" transform="translate(37 90)"/>
</clipPath>
</defs>
</svg>
