<svg width="157" height="263" viewBox="0 0 157 263" fill="none" xmlns="http://www.w3.org/2000/svg">
<path d="M0 9C0 4.02943 4.02944 0 9 0H148C152.971 0 157 4.02944 157 9V254C157 258.971 152.971 263 148 263H9C4.02944 263 0 258.971 0 254V9Z" fill="url(#paint0_linear_151_3217)" fill-opacity="0.6"/>
<path d="M1.5 9C1.5 4.85786 4.85786 1.5 9 1.5H148C152.142 1.5 155.5 4.85786 155.5 9V254C155.5 258.142 152.142 261.5 148 261.5H9C4.85786 261.5 1.5 258.142 1.5 254V9Z" stroke="url(#paint1_linear_151_3217)" stroke-opacity="0.59" stroke-width="3"/>
<path d="M112.049 106.482L79.5906 94.5236C79.2093 94.3834 78.7907 94.3834 78.4095 94.5236L45.9511 106.482C45.5917 106.614 45.2871 106.863 45.0865 107.189C44.8859 107.516 44.8008 107.9 44.845 108.28L49.97 152.697C50.0005 152.965 50.0943 153.222 50.2437 153.446C50.3931 153.671 50.5938 153.857 50.8292 153.988L78.1625 169.363C78.418 169.508 78.7065 169.583 79 169.583C79.2935 169.583 79.582 169.508 79.8375 169.363L107.171 153.988C107.406 153.857 107.607 153.671 107.756 153.446C107.906 153.222 108 152.965 108.03 152.697L113.155 108.28C113.199 107.9 113.114 107.516 112.914 107.189C112.713 106.863 112.408 106.614 112.049 106.482Z" fill="black"/>
<path d="M104.738 151.438L79.0001 165.917L53.2623 151.438L48.3936 109.221L79.0001 97.9463L109.607 109.221L104.738 151.438Z" fill="#FF1744"/>
<path opacity="0.1" d="M78.4021 98.1684V165.583L79 165.917L104.738 151.438L109.607 109.221L79 97.9463L78.4021 98.1684Z" fill="black"/>
<path d="M77.4268 105.711L58.6351 150.128C58.459 150.545 58.4559 151.015 58.6264 151.434C58.7969 151.854 59.1271 152.189 59.5443 152.365C59.9616 152.541 60.4317 152.544 60.8512 152.373C61.2708 152.203 61.6054 151.873 61.7815 151.456L67.1219 138.833H90.878L96.2183 151.456C96.3485 151.765 96.5672 152.03 96.8472 152.215C97.1271 152.401 97.4557 152.5 97.7917 152.5C98.0201 152.5 98.2463 152.454 98.4573 152.366C98.8742 152.19 99.204 151.854 99.3741 151.435C99.5443 151.015 99.541 150.545 99.3649 150.128L80.5732 105.711C80.4226 105.424 80.1965 105.184 79.9192 105.016C79.6419 104.848 79.324 104.76 79 104.76C78.676 104.76 78.3581 104.848 78.0808 105.016C77.8035 105.184 77.5774 105.424 77.4268 105.711ZM89.4325 135.417H68.5675L79 110.759L89.4325 135.417Z" fill="white"/>
<path d="M112.049 106.482L79.5906 94.5236C79.2093 94.3834 78.7907 94.3834 78.4095 94.5236L45.9511 106.482C45.5917 106.614 45.2871 106.863 45.0865 107.189C44.8859 107.516 44.8008 107.9 44.845 108.28L49.97 152.697C50.0005 152.965 50.0943 153.222 50.2437 153.446C50.3931 153.671 50.5938 153.857 50.8292 153.988L78.1625 169.363C78.418 169.508 78.7065 169.583 79 169.583C79.2935 169.583 79.582 169.508 79.8375 169.363L107.171 153.988C107.406 153.857 107.607 153.671 107.756 153.446C107.906 153.222 108 152.965 108.03 152.697L113.155 108.28C113.199 107.9 113.114 107.516 112.914 107.189C112.713 106.863 112.408 106.614 112.049 106.482Z" fill="url(#paint2_linear_151_3217)"/>
<defs>
<linearGradient id="paint0_linear_151_3217" x1="78.5" y1="0" x2="78.5" y2="263" gradientUnits="userSpaceOnUse">
<stop stop-color="#5B6295" stop-opacity="0.55"/>
<stop offset="1" stop-color="#660A9B"/>
</linearGradient>
<linearGradient id="paint1_linear_151_3217" x1="4" y1="5" x2="157" y2="269" gradientUnits="userSpaceOnUse">
<stop stop-color="#F0F0F0" stop-opacity="0.17"/>
<stop offset="0.335" stop-color="#999999" stop-opacity="0.6929"/>
<stop offset="0.58" stop-color="#A0A0A0" stop-opacity="0.6514"/>
<stop offset="1" stop-color="#666666"/>
</linearGradient>
<linearGradient id="paint2_linear_151_3217" x1="42.2401" y1="113.27" x2="111.462" y2="145.547" gradientUnits="userSpaceOnUse">
<stop stop-color="white" stop-opacity="0.2"/>
<stop offset="1" stop-color="white" stop-opacity="0"/>
</linearGradient>
</defs>
</svg>
