<svg width="157" height="263" viewBox="0 0 157 263" fill="none" xmlns="http://www.w3.org/2000/svg">
<path d="M0 9C0 4.02943 4.02944 0 9 0H148C152.971 0 157 4.02944 157 9V254C157 258.971 152.971 263 148 263H9C4.02944 263 0 258.971 0 254V9Z" fill="url(#paint0_linear_151_3226)" fill-opacity="0.6"/>
<path d="M1.5 9C1.5 4.85786 4.85786 1.5 9 1.5H148C152.142 1.5 155.5 4.85786 155.5 9V254C155.5 258.142 152.142 261.5 148 261.5H9C4.85786 261.5 1.5 258.142 1.5 254V9Z" stroke="url(#paint1_linear_151_3226)" stroke-opacity="0.59" stroke-width="3"/>
<g clip-path="url(#clip0_151_3226)">
<path d="M116.089 91.5605C115.764 91.2052 115.306 91 114.821 91H43.0711C42.5856 91 42.1277 91.2052 41.803 91.5605C41.4789 91.9228 41.3213 92.3976 41.3726 92.8793L48.2061 161.212C48.2743 161.882 48.7254 162.449 49.3641 162.664L80.1141 172.914C80.2918 172.969 80.4695 173 80.654 173C80.8592 173 81.0607 172.962 81.2552 172.891L108.589 162.641C109.197 162.415 109.624 161.859 109.685 161.212L116.519 92.8793C116.57 92.3976 116.413 91.9228 116.089 91.5605Z" fill="#FFC107"/>
<path d="M80.654 173C80.4695 173 80.2918 172.969 80.1141 172.914L49.3641 162.664C48.7254 162.453 48.2743 161.882 48.2061 161.212L41.3726 92.8793C41.3213 92.3976 41.4789 91.9228 41.803 91.5605C42.1277 91.2052 42.5856 91 43.0711 91H114.821C115.306 91 115.764 91.2052 116.089 91.5605C116.413 91.919 116.57 92.3976 116.519 92.8793L109.685 161.212C109.62 161.859 109.194 162.415 108.589 162.641L81.2552 172.891C81.0607 172.962 80.8592 173 80.654 173ZM51.4931 159.771L80.6202 169.481L106.392 159.815L112.931 94.4165H44.9604L51.4931 159.771Z" fill="black"/>
<path d="M84.0712 154.208C83.3568 154.208 82.6905 153.754 82.4477 153.04C82.1506 152.145 82.6361 151.177 83.5276 150.877L92.8179 147.782L95.6913 132H84.0712C83.1278 132 82.3627 131.235 82.3627 130.291V109.791C82.3627 108.849 83.1278 108.083 84.0712 108.083H101.154C101.68 108.083 102.179 108.326 102.504 108.739C102.828 109.153 102.941 109.693 102.814 110.205L101.107 117.038C100.878 117.954 99.9617 118.501 99.0358 118.282C98.1168 118.053 97.5631 117.124 97.7921 116.211L98.9639 111.5H85.7791V128.583H97.7377C98.2432 128.583 98.7249 128.806 99.0496 129.198C99.3743 129.584 99.5106 130.1 99.4187 130.599L96.0016 149.391C95.889 150.006 95.4517 150.508 94.8605 150.706L84.6105 154.123C84.4297 154.181 84.252 154.208 84.0712 154.208Z" fill="black"/>
<path d="M77.2376 154.208C77.0806 154.208 76.9229 154.188 76.7659 154.14L64.808 150.723C64.1924 150.549 63.7313 150.043 63.6018 149.414L61.8932 140.873C61.7056 139.947 62.3068 139.049 63.2358 138.864C64.1142 138.67 65.057 139.274 65.2453 140.207L66.7486 147.723L75.5291 150.235V111.5H56.7376C55.7948 111.5 55.0291 110.735 55.0291 109.791C55.0291 108.849 55.7948 108.083 56.7376 108.083H77.2376C78.1804 108.083 78.9461 108.849 78.9461 109.791V152.5C78.9461 153.036 78.6965 153.542 78.2661 153.863C77.9652 154.092 77.603 154.208 77.2376 154.208Z" fill="black"/>
</g>
<defs>
<linearGradient id="paint0_linear_151_3226" x1="78.5" y1="0" x2="78.5" y2="263" gradientUnits="userSpaceOnUse">
<stop stop-color="#5B6295" stop-opacity="0.55"/>
<stop offset="1" stop-color="#660A9B"/>
</linearGradient>
<linearGradient id="paint1_linear_151_3226" x1="4" y1="5" x2="157" y2="269" gradientUnits="userSpaceOnUse">
<stop stop-color="#F0F0F0" stop-opacity="0.17"/>
<stop offset="0.335" stop-color="#999999" stop-opacity="0.6929"/>
<stop offset="0.58" stop-color="#A0A0A0" stop-opacity="0.6514"/>
<stop offset="1" stop-color="#666666"/>
</linearGradient>
<clipPath id="clip0_151_3226">
<rect width="82" height="82" fill="white" transform="translate(38 91)"/>
</clipPath>
</defs>
</svg>
