<svg width="157" height="263" viewBox="0 0 157 263" fill="none" xmlns="http://www.w3.org/2000/svg">
<path d="M0 9C0 4.02943 4.02944 0 9 0H148C152.971 0 157 4.02944 157 9V254C157 258.971 152.971 263 148 263H9C4.02944 263 0 258.971 0 254V9Z" fill="url(#paint0_linear_151_3230)" fill-opacity="0.6"/>
<path d="M1.5 9C1.5 4.85786 4.85786 1.5 9 1.5H148C152.142 1.5 155.5 4.85786 155.5 9V254C155.5 258.142 152.142 261.5 148 261.5H9C4.85786 261.5 1.5 258.142 1.5 254V9Z" stroke="url(#paint1_linear_151_3230)" stroke-opacity="0.59" stroke-width="3"/>
<g clip-path="url(#clip0_151_3230)">
<path d="M120 131C120 144.508 113.467 156.49 103.389 163.961C99.1702 167.087 94.3306 169.423 89.0892 170.748C85.8613 171.567 82.4824 172 79 172C75.5176 172 72.1371 171.567 68.909 170.748C63.6678 169.423 58.828 167.087 54.6092 163.959C44.5315 156.489 38 144.507 38 131C38 108.356 56.3563 90 79 90C101.644 90 120 108.356 120 131Z" fill="#5ADAFD"/>
<path d="M103.431 154.085C103.239 152.795 102.984 151.466 102.67 150.108C102.392 148.915 102.069 147.698 101.703 146.463C100.739 143.22 99.4685 139.849 97.9289 136.442C97.2545 134.953 96.5282 133.457 95.7534 131.962C95.0706 130.645 94.3511 129.327 93.5929 128.016C92.8365 126.704 92.0567 125.422 91.2551 124.172C90.3497 122.755 89.4176 121.379 88.4637 120.051C86.2848 117.013 84.0006 114.227 81.6728 111.77C80.7876 110.835 79.8955 109.948 79.0002 109.113C77.9812 108.159 76.957 107.274 75.9344 106.462C69.2589 101.162 63.283 99.5705 59.1043 101.982C54.9257 104.395 53.3158 110.366 54.5676 118.799C54.7583 120.089 55.0144 121.418 55.3307 122.777C55.6053 123.97 55.9281 125.186 56.2963 126.421C57.2603 129.665 58.5303 133.037 60.0717 136.442C60.7445 137.931 61.4707 139.426 62.2455 140.92C62.9282 142.239 63.6496 143.556 64.406 144.868C65.1624 146.18 65.9422 147.462 66.7438 148.712C67.6508 150.131 68.5829 151.506 69.5352 152.835C71.7141 155.873 73.9982 158.657 76.3261 161.114C77.2115 162.049 78.105 162.938 79.0002 163.773C80.0193 164.727 81.0435 165.61 82.0643 166.422C84.5194 168.372 86.879 169.819 89.0896 170.748C94.3309 169.423 99.1706 167.086 103.389 163.96C103.978 161.246 104 157.921 103.431 154.085ZM99.6724 163.351C99.1854 165.457 98.2901 166.899 97.01 167.637C95.7314 168.377 94.0346 168.431 91.9678 167.801C89.7286 167.117 87.1147 165.621 84.4071 163.47C83.4968 162.747 82.5847 161.961 81.6726 161.116C80.7789 160.286 79.8853 159.399 78.9985 158.46C77.4756 156.848 75.9694 155.084 74.5002 153.192C73.5195 151.928 72.5539 150.608 71.6117 149.237C70.2445 147.251 68.9242 145.159 67.669 142.984C66.4123 140.808 65.2609 138.619 64.225 136.442C63.5088 134.941 62.8477 133.445 62.2453 131.964C61.34 129.745 60.5651 127.558 59.9309 125.434C59.5627 124.196 59.2398 122.981 58.9703 121.791C58.6924 120.579 58.4666 119.395 58.2959 118.245C57.7872 114.826 57.7989 111.814 58.326 109.533C58.813 107.428 59.7099 105.985 60.9884 105.247C61.6795 104.849 62.4912 104.648 63.4166 104.648C64.2064 104.648 65.0799 104.794 66.0305 105.085C68.2696 105.767 70.8835 107.265 73.5911 109.414C74.5014 110.137 75.4151 110.924 76.3256 111.772C77.2209 112.6 78.113 113.487 78.9982 114.425C80.5227 116.036 82.0288 117.8 83.4998 119.694C84.4805 120.958 85.446 122.278 86.3882 123.649C87.7537 125.635 89.0742 127.727 90.3292 129.901C91.586 132.076 92.7373 134.265 93.7732 136.442C94.4894 137.945 95.1506 139.441 95.7529 140.922C96.6583 143.141 97.4331 145.327 98.0673 147.45C98.4355 148.689 98.7584 149.904 99.0295 151.093C99.3057 152.305 99.5316 153.49 99.7024 154.639C100.211 158.058 100.2 161.071 99.6724 163.351Z" fill="#F2F2F2"/>
<path d="M106.495 124.107C105.282 123.629 104.003 123.185 102.668 122.777C101.497 122.42 100.282 122.091 99.0281 121.791C95.738 121.005 92.1836 120.419 88.4635 120.051C86.8386 119.888 85.1801 119.77 83.4999 119.694C82.0172 119.626 80.5145 119.59 79 119.59C77.4856 119.59 75.9827 119.625 74.4984 119.694C72.8166 119.769 71.1581 119.89 69.5332 120.051C65.8131 120.419 62.2603 121.005 58.9703 121.791C57.7169 122.091 56.5019 122.42 55.3304 122.777C53.995 123.183 52.7165 123.629 51.5031 124.107C43.576 127.236 39.2083 131.618 39.2083 136.442C39.2083 141.267 43.576 145.648 51.5033 148.779C52.7166 149.258 53.9934 149.701 55.3288 150.109C56.5002 150.466 57.7151 150.795 58.9686 151.093C62.2587 151.882 65.8131 152.466 69.535 152.835C71.1599 152.996 72.8183 153.115 74.5001 153.192C75.9828 153.26 77.4856 153.294 79 153.294C80.5145 153.294 82.0156 153.26 83.4983 153.192C85.1801 153.115 86.837 152.996 88.4635 152.835C92.1836 152.467 95.7397 151.882 99.0298 151.093C100.283 150.794 101.498 150.466 102.67 150.108C104.003 149.701 105.282 149.258 106.495 148.779C114.424 145.648 118.79 141.267 118.79 136.442C118.79 131.618 114.424 127.236 106.495 124.107ZM112.64 140.89C110.93 142.488 108.326 144.003 105.111 145.273C104.028 145.7 102.89 146.098 101.702 146.463C100.536 146.823 99.3226 147.152 98.0674 147.45C95.9103 147.964 93.6293 148.386 91.2547 148.712C89.6716 148.931 88.0466 149.107 86.3882 149.236C83.9835 149.428 81.5118 149.525 78.9999 149.525C76.488 149.525 74.0163 149.428 71.6115 149.238C69.9531 149.107 68.3266 148.931 66.7434 148.712C64.3688 148.386 62.0879 147.964 59.9307 147.45C58.6756 147.152 57.4624 146.823 56.296 146.463C55.1078 146.098 53.9699 145.7 52.887 145.273C49.6724 144.003 47.0684 142.489 45.3581 140.89C43.7783 139.416 42.9767 137.92 42.9767 136.442C42.9767 134.965 43.7783 133.469 45.3581 131.994C47.0684 130.396 49.6722 128.882 52.887 127.611C53.9697 127.185 55.1078 126.786 56.296 126.422C57.4624 126.062 58.6756 125.732 59.9307 125.434C62.0879 124.92 64.3688 124.499 66.7434 124.172C68.3266 123.953 69.9531 123.777 71.6115 123.647C74.0163 123.456 76.488 123.359 78.9999 123.359C81.5118 123.359 83.9835 123.456 86.3882 123.649C88.0466 123.778 89.6716 123.953 91.2547 124.173C93.6293 124.499 95.9103 124.921 98.0674 125.434C99.3226 125.732 100.536 126.062 101.702 126.422C102.89 126.787 104.028 127.185 105.111 127.612C108.326 128.882 110.93 130.396 112.64 131.994C114.22 133.469 115.021 134.965 115.021 136.442C115.021 137.92 114.22 139.416 112.64 140.89Z" fill="#F2F2F2"/>
<path d="M98.8941 101.982C94.7155 99.5705 88.7396 101.162 82.0641 106.462C81.0433 107.274 80.0191 108.159 79 109.113C78.1047 109.948 77.211 110.836 76.3259 111.772C73.998 114.228 71.7138 117.013 69.5333 120.05C68.5812 121.379 67.6489 122.755 66.7437 124.172C65.9421 125.422 65.1623 126.704 64.4059 128.016C63.6495 129.328 62.9283 130.645 62.2454 131.964C61.4706 133.458 60.7443 134.954 60.0716 136.442C58.5303 139.849 57.2602 143.219 56.2962 146.463C55.928 147.699 55.6052 148.916 55.3289 150.109C55.0144 151.468 54.7583 152.795 54.5675 154.085C53.9985 157.919 54.0203 161.244 54.6093 163.959C58.8282 167.086 63.6678 169.423 68.9092 170.748C71.1198 169.819 73.4794 168.372 75.9344 166.422C76.9569 165.61 77.9811 164.725 79.0003 163.773C79.8956 162.938 80.7877 162.051 81.6728 161.115C83.999 158.659 86.2849 155.872 88.4638 152.835C89.4159 151.506 90.3482 150.131 91.2551 148.712C92.0567 147.462 92.8365 146.18 93.593 144.868C94.351 143.557 95.0706 142.24 95.7535 140.922C96.5283 139.427 97.2546 137.931 97.929 136.442C99.4686 133.036 100.739 129.664 101.703 126.421C102.069 125.186 102.392 123.969 102.668 122.776C102.985 121.417 103.239 120.089 103.431 118.798C104.683 110.366 103.073 104.395 98.8941 101.982ZM98.0676 125.434C97.4333 127.558 96.6585 129.743 95.7531 131.962C95.1506 133.443 94.4897 134.939 93.7734 136.442C92.7376 138.619 91.5862 140.808 90.3294 142.984C89.0743 145.157 87.754 147.249 86.3885 149.236C85.4447 150.608 84.4791 151.928 83.4985 153.192C82.0292 155.084 80.5231 156.848 78.9986 158.46C78.1134 159.397 77.2213 160.284 76.326 161.114C75.4157 161.961 74.502 162.747 73.5915 163.47C70.8839 165.62 68.2698 167.116 66.0309 167.801C63.9642 168.43 62.2672 168.377 60.9887 167.637C59.7101 166.899 58.8131 165.456 58.3262 163.351C57.7992 161.07 57.7873 158.058 58.2961 154.639C58.4668 153.49 58.6927 152.305 58.9688 151.093C59.2399 149.903 59.5628 148.688 59.931 147.45C60.5652 145.326 61.34 143.139 62.2454 140.92C62.8479 139.439 63.5089 137.943 64.2251 136.442C65.261 134.265 66.4124 132.076 67.6691 129.9C68.9242 127.725 70.2446 125.633 71.6118 123.647C72.554 122.276 73.5178 120.956 74.4985 119.694C75.9695 117.8 77.4756 116.036 78.9984 114.424C79.8853 113.485 80.779 112.598 81.6725 111.77C82.5846 110.923 83.4965 110.137 84.407 109.414C87.1146 107.265 89.7287 105.767 91.9677 105.085C92.9182 104.793 93.7917 104.648 94.5816 104.648C95.507 104.648 96.3203 104.849 97.0097 105.247C98.2899 105.985 99.1853 107.427 99.6722 109.533C100.199 111.814 100.211 114.826 99.7023 118.245C99.5315 119.394 99.3057 120.579 99.0279 121.791C98.7586 122.981 98.4356 124.196 98.0676 125.434Z" fill="#F2F2F2"/>
<path d="M79.0001 143.921C83.1305 143.921 86.4788 140.572 86.4788 136.442C86.4788 132.312 83.1305 128.963 79.0001 128.963C74.8698 128.963 71.5215 132.312 71.5215 136.442C71.5215 140.572 74.8698 143.921 79.0001 143.921Z" fill="#F2F2F2"/>
</g>
<defs>
<linearGradient id="paint0_linear_151_3230" x1="78.5" y1="0" x2="78.5" y2="263" gradientUnits="userSpaceOnUse">
<stop stop-color="#5B6295" stop-opacity="0.55"/>
<stop offset="1" stop-color="#660A9B"/>
</linearGradient>
<linearGradient id="paint1_linear_151_3230" x1="4" y1="5" x2="157" y2="269" gradientUnits="userSpaceOnUse">
<stop stop-color="#F0F0F0" stop-opacity="0.17"/>
<stop offset="0.335" stop-color="#999999" stop-opacity="0.6929"/>
<stop offset="0.58" stop-color="#A0A0A0" stop-opacity="0.6514"/>
<stop offset="1" stop-color="#666666"/>
</linearGradient>
<clipPath id="clip0_151_3230">
<rect width="82" height="82" fill="white" transform="translate(38 90)"/>
</clipPath>
</defs>
</svg>
