<svg width="157" height="263" viewBox="0 0 157 263" fill="none" xmlns="http://www.w3.org/2000/svg">
<path d="M0 9C0 4.02943 4.02944 0 9 0H148C152.971 0 157 4.02944 157 9V254C157 258.971 152.971 263 148 263H9C4.02944 263 0 258.971 0 254V9Z" fill="url(#paint0_linear_151_3234)" fill-opacity="0.6"/>
<path d="M1.5 9C1.5 4.85786 4.85786 1.5 9 1.5H148C152.142 1.5 155.5 4.85786 155.5 9V254C155.5 258.142 152.142 261.5 148 261.5H9C4.85786 261.5 1.5 258.142 1.5 254V9Z" stroke="url(#paint1_linear_151_3234)" stroke-opacity="0.59" stroke-width="3"/>
<g clip-path="url(#clip0_151_3234)">
<path fill-rule="evenodd" clip-rule="evenodd" d="M99.5 172H58.5C53.0631 172 47.849 169.84 44.0046 165.995C40.1601 162.151 38.0002 156.937 38 151.5V110.5C38.0002 105.063 40.1601 99.849 44.0046 96.0046C47.849 92.1601 53.0631 90.0002 58.5 90H99.5C104.937 90 110.151 92.1598 113.996 96.0043C117.84 99.8488 120 105.063 120 110.5V151.5C120 156.937 117.84 162.151 113.996 165.996C110.151 169.84 104.937 172 99.5 172Z" fill="#2D2D2D"/>
<path fill-rule="evenodd" clip-rule="evenodd" d="M76.4375 113.062H99.5C102.456 113.062 105.299 111.927 107.443 109.891C109.586 107.854 110.865 105.073 111.016 102.121C111.167 99.1683 110.179 96.2706 108.255 94.026C106.332 91.7814 103.619 90.3613 100.679 90.0589C100.287 90.0372 99.8985 90 99.5 90H58.5C53.0631 90.0002 47.849 92.1601 44.0046 96.0046C40.1601 99.849 38.0002 105.063 38 110.5V151.5C38.0002 141.306 42.05 131.529 49.2583 124.321C56.4667 117.112 66.2433 113.063 76.4375 113.062Z" fill="#464646"/>
<path fill-rule="evenodd" clip-rule="evenodd" d="M99.5 131C95.4455 131 91.482 132.202 88.1108 134.455C84.7396 136.707 82.1121 139.909 80.5605 143.655C79.0089 147.401 78.6029 151.523 79.3939 155.499C80.1849 159.476 82.1373 163.129 85.0043 165.996C87.8713 168.863 91.524 170.815 95.5007 171.606C99.4773 172.397 103.599 171.991 107.345 170.44C111.091 168.888 114.293 166.26 116.545 162.889C118.798 159.518 120 155.555 120 151.5V110.5C120 115.937 117.84 121.151 113.996 124.996C110.151 128.84 104.937 131 99.5 131Z" fill="#141414"/>
<path fill-rule="evenodd" clip-rule="evenodd" d="M71.3125 154.513C71.3126 154.936 71.2077 155.353 71.0072 155.726C70.8067 156.099 70.5168 156.417 70.1635 156.651C69.8102 156.884 69.4045 157.027 68.9827 157.065C68.5609 157.104 68.1361 157.037 67.7464 156.871C61.7966 154.29 56.9176 149.739 53.9304 143.982C50.9433 138.226 50.0304 131.616 51.3455 125.266C52.6605 118.915 56.1232 113.212 61.1507 109.115C66.1783 105.018 72.4636 102.779 78.9489 102.773C85.4342 102.767 91.7234 104.996 96.758 109.084C101.793 113.172 105.265 118.87 106.591 125.218C107.917 131.566 107.016 138.178 104.039 143.939C101.062 149.701 96.1904 154.261 90.2451 156.852C89.8585 157.016 89.4372 157.082 89.0188 157.044C88.6005 157.006 88.1981 156.865 87.8476 156.633C87.4972 156.401 87.2096 156.086 87.0107 155.716C86.8117 155.346 86.7076 154.933 86.7076 154.513C86.6875 151.486 86.6875 147.656 86.6875 147.656C86.6874 145.618 85.8775 143.662 84.4358 142.221C84.2757 142.06 84.1095 141.908 83.9371 141.764C83.8913 141.726 83.8584 141.674 83.8428 141.617C83.8272 141.559 83.8298 141.498 83.8501 141.442C83.8704 141.386 83.9075 141.338 83.9563 141.303C84.0052 141.269 84.0634 141.251 84.123 141.251L84.125 141.25C87.5231 141.25 90.782 139.9 93.1848 137.497C95.5876 135.095 96.9375 131.836 96.9375 128.438C96.9418 125.656 96.037 122.95 94.3607 120.73C94.797 118.781 94.7549 116.755 94.2379 114.826L94.0201 114.012C93.9321 113.684 93.7174 113.404 93.4231 113.234C93.1288 113.064 92.7791 113.018 92.4509 113.106L91.6376 113.324C89.8418 113.805 88.1777 114.685 86.7688 115.898C85.8993 115.716 85.0133 115.625 84.125 115.625H73.875C72.9868 115.625 72.101 115.716 71.2317 115.898C69.8229 114.685 68.1587 113.805 66.363 113.324L65.5497 113.107C65.2214 113.019 64.8717 113.065 64.5775 113.235C64.2832 113.404 64.0685 113.684 63.9805 114.012L63.7627 114.826C63.2457 116.755 63.2035 118.781 63.6398 120.73C61.9634 122.95 61.0583 125.656 61.0625 128.438C61.0625 131.836 62.4123 135.095 64.8152 137.497C67.218 139.9 70.4769 141.25 73.875 141.25H73.8769C73.9364 141.25 73.9945 141.269 74.0431 141.303C74.0918 141.338 74.1287 141.386 74.149 141.442C74.1692 141.498 74.1718 141.559 74.1563 141.617C74.1409 141.674 74.1081 141.725 74.0625 141.764C73.8906 141.908 73.7245 142.061 73.5641 142.221C72.4354 143.349 71.686 144.801 71.42 146.375H70.0312C68.8378 146.375 67.6607 146.097 66.5933 145.564C65.5258 145.03 64.5973 144.255 63.8812 143.3C63.4041 142.664 62.7846 142.147 62.0733 141.791C61.362 141.435 60.5777 141.25 59.7825 141.25C59.4427 141.25 59.1155 141.385 58.8752 141.625C58.635 141.866 58.5 142.192 58.5 142.531C58.5 142.871 58.635 143.197 58.8752 143.437C59.1155 143.678 59.4414 143.813 59.7812 143.813C60.1719 143.813 60.556 143.914 60.896 144.106C61.236 144.299 61.5204 144.576 61.7214 144.911L61.9203 145.243C62.831 146.76 64.1193 148.017 65.6597 148.889C67.2001 149.761 68.9401 150.219 70.7103 150.219H71.3125V154.513Z" fill="white"/>
</g>
<defs>
<linearGradient id="paint0_linear_151_3234" x1="78.5" y1="0" x2="78.5" y2="263" gradientUnits="userSpaceOnUse">
<stop stop-color="#5B6295" stop-opacity="0.55"/>
<stop offset="1" stop-color="#660A9B"/>
</linearGradient>
<linearGradient id="paint1_linear_151_3234" x1="4" y1="5" x2="157" y2="269" gradientUnits="userSpaceOnUse">
<stop stop-color="#F0F0F0" stop-opacity="0.17"/>
<stop offset="0.335" stop-color="#999999" stop-opacity="0.6929"/>
<stop offset="0.58" stop-color="#A0A0A0" stop-opacity="0.6514"/>
<stop offset="1" stop-color="#666666"/>
</linearGradient>
<clipPath id="clip0_151_3234">
<rect width="82" height="82" fill="white" transform="translate(38 90)"/>
</clipPath>
</defs>
</svg>
