<svg width="157" height="263" viewBox="0 0 157 263" fill="none" xmlns="http://www.w3.org/2000/svg">
<path d="M0 9C0 4.02943 4.02944 0 9 0H148C152.971 0 157 4.02944 157 9V254C157 258.971 152.971 263 148 263H9C4.02944 263 0 258.971 0 254V9Z" fill="url(#paint0_linear_151_3238)" fill-opacity="0.6"/>
<path d="M1.5 9C1.5 4.85786 4.85786 1.5 9 1.5H148C152.142 1.5 155.5 4.85786 155.5 9V254C155.5 258.142 152.142 261.5 148 261.5H9C4.85786 261.5 1.5 258.142 1.5 254V9Z" stroke="url(#paint1_linear_151_3238)" stroke-opacity="0.59" stroke-width="3"/>
<g clip-path="url(#clip0_151_3238)">
<path d="M114.211 100.583C114.211 94.9223 98.4778 90.3335 79.0688 90.3335C59.6599 90.3335 43.9258 94.9223 43.9258 100.583C43.9258 106.245 59.6599 110.833 79.0688 110.833C98.4778 110.833 114.211 106.245 114.211 100.583Z" fill="#BDDBFF"/>
<path d="M79.0688 131.333C98.4702 131.333 114.211 126.75 114.211 121.083V100.583C114.211 106.25 98.4702 110.833 79.0688 110.833C59.6668 110.833 43.9258 106.25 43.9258 100.583V121.083C43.9258 126.75 59.6668 131.333 79.0688 131.333Z" fill="#9BC9FF"/>
<path d="M79.0688 151.833C98.4702 151.833 114.211 147.25 114.211 141.583V121.083C114.211 126.75 98.4702 131.333 79.0688 131.333C59.6668 131.333 43.9258 126.75 43.9258 121.083V141.583C43.9258 147.25 59.6668 151.833 79.0688 151.833Z" fill="#57A4FF"/>
<path d="M114.211 141.583C114.211 147.25 98.4702 151.833 79.0688 151.833C59.6668 151.833 43.9258 147.25 43.9258 141.583V162.083C43.9258 167.75 59.6668 172.333 79.0688 172.333C98.4702 172.333 114.211 167.75 114.211 162.083V141.583Z" fill="#2488FF"/>
</g>
<defs>
<linearGradient id="paint0_linear_151_3238" x1="78.5" y1="0" x2="78.5" y2="263" gradientUnits="userSpaceOnUse">
<stop stop-color="#5B6295" stop-opacity="0.55"/>
<stop offset="1" stop-color="#660A9B"/>
</linearGradient>
<linearGradient id="paint1_linear_151_3238" x1="4" y1="5" x2="157" y2="269" gradientUnits="userSpaceOnUse">
<stop stop-color="#F0F0F0" stop-opacity="0.17"/>
<stop offset="0.335" stop-color="#999999" stop-opacity="0.6929"/>
<stop offset="0.58" stop-color="#A0A0A0" stop-opacity="0.6514"/>
<stop offset="1" stop-color="#666666"/>
</linearGradient>
<clipPath id="clip0_151_3238">
<rect width="82" height="82" fill="white" transform="translate(38 90.3335)"/>
</clipPath>
</defs>
</svg>
