<svg width="441" height="447" viewBox="0 0 441 447" fill="none" xmlns="http://www.w3.org/2000/svg">
<path d="M5.67 12.15V33H2.25V12.15H5.67ZM11.4165 12.15H15.1365L11.9865 19.29H9.58654L11.4165 12.15ZM38.8686 16.2C40.1686 16.2 41.3286 16.47 42.3486 17.01C43.3886 17.55 44.1986 18.35 44.7786 19.41C45.3786 20.47 45.6786 21.75 45.6786 23.25V33H42.2886V23.76C42.2886 22.28 41.9186 21.15 41.1786 20.37C40.4386 19.57 39.4286 19.17 38.1486 19.17C36.8686 19.17 35.8486 19.57 35.0886 20.37C34.3486 21.15 33.9786 22.28 33.9786 23.76V33H30.5886V23.76C30.5886 22.28 30.2186 21.15 29.4786 20.37C28.7386 19.57 27.7286 19.17 26.4486 19.17C25.1686 19.17 24.1486 19.57 23.3886 20.37C22.6486 21.15 22.2786 22.28 22.2786 23.76V33H18.8586V16.47H22.2786V18.36C22.8386 17.68 23.5486 17.15 24.4086 16.77C25.2686 16.39 26.1886 16.2 27.1686 16.2C28.4886 16.2 29.6686 16.48 30.7086 17.04C31.7486 17.6 32.5486 18.41 33.1086 19.47C33.6086 18.47 34.3886 17.68 35.4486 17.1C36.5086 16.5 37.6486 16.2 38.8686 16.2Z" fill="#E5DCDC" fill-opacity="0.28"/>
<path d="M40.0136 184.886C33.5135 184.886 27.6887 183.831 22.5393 181.721C17.3899 179.61 13.2534 176.487 10.13 172.35C7.09101 168.214 5.48709 163.233 5.31826 157.409H28.3641C28.7017 160.701 29.8414 163.233 31.7829 165.006C33.7245 166.695 36.257 167.539 39.3805 167.539C42.5883 167.539 45.1208 166.821 46.978 165.386C48.8351 163.867 49.7637 161.798 49.7637 159.181C49.7637 156.987 49.004 155.172 47.4845 153.737C46.0494 152.301 44.2344 151.12 42.0396 150.191C39.9292 149.262 36.8902 148.207 32.9226 147.025C27.1822 145.253 22.4971 143.48 18.8672 141.707C15.2372 139.934 12.1138 137.317 9.49689 133.856C6.87997 130.395 5.57151 125.879 5.57151 120.307C5.57151 112.035 8.56831 105.577 14.5619 100.934C20.5555 96.2065 28.3641 93.8428 37.9876 93.8428C47.7799 93.8428 55.6729 96.2065 61.6665 100.934C67.6601 105.577 70.8679 112.077 71.29 120.434H47.8643C47.6955 117.564 46.6403 115.327 44.6987 113.723C42.7571 112.035 40.2668 111.19 37.2278 111.19C34.6109 111.19 32.5005 111.908 30.8966 113.343C29.2926 114.694 28.4907 116.678 28.4907 119.294C28.4907 122.165 29.8414 124.402 32.5427 126.006C35.244 127.61 39.4649 129.34 45.2052 131.197C50.9456 133.139 55.5885 134.996 59.134 136.769C62.7639 138.542 65.8873 141.116 68.5043 144.493C71.1212 147.87 72.4296 152.217 72.4296 157.535C72.4296 162.6 71.1212 167.201 68.5043 171.337C65.9718 175.474 62.2574 178.766 57.3612 181.214C52.4651 183.662 46.6825 184.886 40.0136 184.886ZM165.011 95.1091V184H143.358V147.405H109.676V184H88.0228V95.1091H109.676V129.931H143.358V95.1091H165.011ZM238.245 168.298H205.069L199.751 184H177.085L209.248 95.1091H234.32L266.483 184H243.564L238.245 168.298ZM232.674 151.584L221.657 119.041L210.768 151.584H232.674ZM334.254 95.1091V155.636C334.254 165.006 331.595 172.224 326.277 177.289C321.043 182.354 313.952 184.886 305.004 184.886C295.634 184.886 288.121 182.227 282.465 176.909C276.809 171.591 273.981 164.035 273.981 154.243H295.507C295.507 157.957 296.267 160.785 297.786 162.727C299.306 164.584 301.501 165.513 304.371 165.513C306.988 165.513 309.014 164.669 310.449 162.98C311.884 161.292 312.601 158.844 312.601 155.636V95.1091H334.254ZM430.241 95.1091L399.471 154.623V184H377.818V154.623L347.048 95.1091H371.613L388.834 132.337L405.929 95.1091H430.241Z" fill="url(#paint0_linear_16_2000)"/>
<mask id="path-3-outside-1_16_2000" maskUnits="userSpaceOnUse" x="6" y="258.77" width="435" height="94" fill="black">
<rect fill="white" x="6" y="258.77" width="435" height="94"/>
<path d="M29.5037 334.056H57.8677V350.77H7.85077V261.879H29.5037V334.056ZM125.799 335.069H92.6228L87.3046 350.77H64.6387L96.8015 261.879H121.873L154.036 350.77H131.117L125.799 335.069ZM120.227 318.354L109.211 285.811L98.321 318.354H120.227ZM245.613 350.77H223.96L187.746 295.941V350.77H166.093V261.879H187.746L223.96 316.961V261.879H245.613V350.77ZM259.905 306.198C259.905 297.419 261.804 289.61 265.603 282.772C269.401 275.85 274.678 270.49 281.431 266.691C288.269 262.808 295.993 260.866 304.603 260.866C315.155 260.866 324.188 263.652 331.701 269.224C339.214 274.795 344.237 282.393 346.769 292.016H322.964C321.191 288.302 318.659 285.474 315.366 283.532C312.159 281.591 308.486 280.62 304.35 280.62C297.681 280.62 292.278 282.941 288.142 287.584C284.006 292.227 281.937 298.432 281.937 306.198C281.937 313.964 284.006 320.169 288.142 324.812C292.278 329.455 297.681 331.776 304.35 331.776C308.486 331.776 312.159 330.806 315.366 328.864C318.659 326.922 321.191 324.094 322.964 320.38H346.769C344.237 330.004 339.214 337.601 331.701 343.173C324.188 348.66 315.155 351.403 304.603 351.403C295.993 351.403 288.269 349.504 281.431 345.705C274.678 341.822 269.401 336.462 265.603 329.624C261.804 322.786 259.905 314.977 259.905 306.198ZM438.526 261.879L407.756 321.393V350.77H386.103V321.393L355.333 261.879H379.898L397.119 299.107L414.214 261.879H438.526Z"/>
</mask>
<path d="M29.5037 334.056H28.1372V335.422H29.5037V334.056ZM57.8677 334.056H59.2342V332.689H57.8677V334.056ZM57.8677 350.77V352.137H59.2342V350.77H57.8677ZM7.85077 350.77H6.48431V352.137H7.85077V350.77ZM7.85077 261.879V260.513H6.48431V261.879H7.85077ZM29.5037 261.879H30.8701V260.513H29.5037V261.879ZM29.5037 335.422H57.8677V332.689H29.5037V335.422ZM56.5013 334.056V350.77H59.2342V334.056H56.5013ZM57.8677 349.404H7.85077V352.137H57.8677V349.404ZM9.21723 350.77V261.879H6.48431V350.77H9.21723ZM7.85077 263.246H29.5037V260.513H7.85077V263.246ZM28.1372 261.879V334.056H30.8701V261.879H28.1372ZM125.799 335.069L127.093 334.63L126.779 333.702H125.799V335.069ZM92.6228 335.069V333.702H91.643L91.3286 334.63L92.6228 335.069ZM87.3046 350.77V352.137H88.2845L88.5988 351.209L87.3046 350.77ZM64.6387 350.77L63.3537 350.305L62.6911 352.137H64.6387V350.77ZM96.8015 261.879V260.513H95.8427L95.5165 261.414L96.8015 261.879ZM121.873 261.879L123.158 261.414L122.832 260.513H121.873V261.879ZM154.036 350.77V352.137H155.984L155.321 350.305L154.036 350.77ZM131.117 350.77L129.823 351.209L130.137 352.137H131.117V350.77ZM120.227 318.354V319.721H122.132L121.521 317.916L120.227 318.354ZM109.211 285.811L110.505 285.373L109.203 281.528L107.915 285.378L109.211 285.811ZM98.321 318.354L97.0251 317.921L96.4228 319.721H98.321V318.354ZM125.799 333.702H92.6228V336.435H125.799V333.702ZM91.3286 334.63L86.0103 350.332L88.5988 351.209L93.9171 335.507L91.3286 334.63ZM87.3046 349.404H64.6387V352.137H87.3046V349.404ZM65.9236 351.235L98.0864 262.344L95.5165 261.414L63.3537 350.305L65.9236 351.235ZM96.8015 263.246H121.873V260.513H96.8015V263.246ZM120.588 262.344L152.751 351.235L155.321 350.305L123.158 261.414L120.588 262.344ZM154.036 349.404H131.117V352.137H154.036V349.404ZM132.411 350.332L127.093 334.63L124.504 335.507L129.823 351.209L132.411 350.332ZM121.521 317.916L110.505 285.373L107.916 286.25L118.933 318.792L121.521 317.916ZM107.915 285.378L97.0251 317.921L99.6168 318.788L110.507 286.245L107.915 285.378ZM98.321 319.721H120.227V316.988H98.321V319.721ZM245.613 350.77V352.137H246.98V350.77H245.613ZM223.96 350.77L222.82 351.523L223.225 352.137H223.96V350.77ZM187.746 295.941L188.886 295.188L186.379 291.393V295.941H187.746ZM187.746 350.77V352.137H189.112V350.77H187.746ZM166.093 350.77H164.726V352.137H166.093V350.77ZM166.093 261.879V260.513H164.726V261.879H166.093ZM187.746 261.879L188.887 261.129L188.482 260.513H187.746V261.879ZM223.96 316.961L222.819 317.712L225.327 321.527V316.961H223.96ZM223.96 261.879V260.513H222.594V261.879H223.96ZM245.613 261.879H246.98V260.513H245.613V261.879ZM245.613 349.404H223.96V352.137H245.613V349.404ZM225.101 350.017L188.886 295.188L186.605 296.695L222.82 351.523L225.101 350.017ZM186.379 295.941V350.77H189.112V295.941H186.379ZM187.746 349.404H166.093V352.137H187.746V349.404ZM167.459 350.77V261.879H164.726V350.77H167.459ZM166.093 263.246H187.746V260.513H166.093V263.246ZM186.604 262.63L222.819 317.712L225.102 316.211L188.887 261.129L186.604 262.63ZM225.327 316.961V261.879H222.594V316.961H225.327ZM223.96 263.246H245.613V260.513H223.96V263.246ZM244.247 261.879V350.77H246.98V261.879H244.247ZM265.603 282.772L266.797 283.436L266.801 283.43L265.603 282.772ZM281.431 266.691L282.101 267.882L282.106 267.879L281.431 266.691ZM331.701 269.224L332.515 268.126L331.701 269.224ZM346.769 292.016V293.383H348.542L348.091 291.668L346.769 292.016ZM322.964 292.016L321.731 292.605L322.102 293.383H322.964V292.016ZM315.366 283.532L314.659 284.701L314.666 284.705L314.672 284.709L315.366 283.532ZM288.142 287.584L289.162 288.493L288.142 287.584ZM288.142 324.812L287.122 325.721L288.142 324.812ZM315.366 328.864L314.672 327.687L314.666 327.691L314.659 327.695L315.366 328.864ZM322.964 320.38V319.014H322.102L321.731 319.792L322.964 320.38ZM346.769 320.38L348.091 320.728L348.542 319.014H346.769V320.38ZM331.701 343.173L332.507 344.276L332.515 344.27L331.701 343.173ZM281.431 345.705L280.75 346.89L280.758 346.895L280.767 346.9L281.431 345.705ZM265.603 329.624L266.797 328.96L265.603 329.624ZM261.271 306.198C261.271 297.622 263.124 290.047 266.797 283.436L264.408 282.109C260.483 289.173 258.538 297.215 258.538 306.198H261.271ZM266.801 283.43C270.479 276.727 275.574 271.553 282.101 267.882L280.761 265.5C273.781 269.426 268.324 274.974 264.405 282.115L266.801 283.43ZM282.106 267.879C288.719 264.124 296.206 262.233 304.603 262.233V259.5C295.779 259.5 287.819 261.492 280.756 265.503L282.106 267.879ZM304.603 262.233C314.902 262.233 323.639 264.946 330.887 270.321L332.515 268.126C324.737 262.358 315.409 259.5 304.603 259.5V262.233ZM330.887 270.321C338.134 275.695 342.989 283.02 345.448 292.364L348.091 291.668C345.485 281.765 340.294 273.895 332.515 268.126L330.887 270.321ZM346.769 290.65H322.964V293.383H346.769V290.65ZM324.197 291.428C322.317 287.488 319.605 284.446 316.061 282.355L314.672 284.709C317.712 286.502 320.066 289.116 321.731 292.605L324.197 291.428ZM316.074 282.363C312.631 280.279 308.709 279.253 304.35 279.253V281.986C308.264 281.986 311.686 282.902 314.659 284.701L316.074 282.363ZM304.35 279.253C297.323 279.253 291.538 281.718 287.122 286.675L289.162 288.493C293.019 284.164 298.039 281.986 304.35 281.986V279.253ZM287.122 286.675C282.711 291.626 280.571 298.183 280.571 306.198H283.304C283.304 298.68 285.3 292.828 289.162 288.493L287.122 286.675ZM280.571 306.198C280.571 314.213 282.711 320.77 287.122 325.721L289.162 323.903C285.3 319.568 283.304 313.716 283.304 306.198H280.571ZM287.122 325.721C291.538 330.678 297.323 333.143 304.35 333.143V330.41C298.039 330.41 293.019 328.232 289.162 323.903L287.122 325.721ZM304.35 333.143C308.709 333.143 312.631 332.117 316.074 330.033L314.659 327.695C311.686 329.494 308.264 330.41 304.35 330.41V333.143ZM316.061 330.041C319.605 327.951 322.317 324.909 324.197 320.969L321.731 319.792C320.066 323.28 317.712 325.894 314.672 327.687L316.061 330.041ZM322.964 321.747H346.769V319.014H322.964V321.747ZM345.448 320.032C342.989 329.376 338.134 336.701 330.887 342.075L332.515 344.27C340.294 338.501 345.485 330.631 348.091 320.728L345.448 320.032ZM330.895 342.069C323.647 347.363 314.906 350.037 304.603 350.037V352.77C315.405 352.77 324.729 349.957 332.507 344.276L330.895 342.069ZM304.603 350.037C296.201 350.037 288.709 348.186 282.094 344.511L280.767 346.9C287.828 350.822 295.784 352.77 304.603 352.77V350.037ZM282.112 344.521C275.575 340.762 270.476 335.582 266.797 328.96L264.408 330.287C268.327 337.341 273.78 342.882 280.75 346.89L282.112 344.521ZM266.797 328.96C263.124 322.349 261.271 314.774 261.271 306.198H258.538C258.538 315.181 260.483 323.223 264.408 330.287L266.797 328.96ZM438.526 261.879L439.74 262.507L440.771 260.513H438.526V261.879ZM407.756 321.393L406.542 320.766L406.389 321.061V321.393H407.756ZM407.756 350.77V352.137H409.122V350.77H407.756ZM386.103 350.77H384.736V352.137H386.103V350.77ZM386.103 321.393H387.469V321.061L387.317 320.766L386.103 321.393ZM355.333 261.879V260.513H353.088L354.119 262.507L355.333 261.879ZM379.898 261.879L381.138 261.306L380.772 260.513H379.898V261.879ZM397.119 299.107L395.879 299.681L397.124 302.372L398.361 299.677L397.119 299.107ZM414.214 261.879V260.513H413.338L412.972 261.309L414.214 261.879ZM437.312 261.252L406.542 320.766L408.97 322.021L439.74 262.507L437.312 261.252ZM406.389 321.393V350.77H409.122V321.393H406.389ZM407.756 349.404H386.103V352.137H407.756V349.404ZM387.469 350.77V321.393H384.736V350.77H387.469ZM387.317 320.766L356.547 261.252L354.119 262.507L384.889 322.021L387.317 320.766ZM355.333 263.246H379.898V260.513H355.333V263.246ZM378.658 262.453L395.879 299.681L398.359 298.533L381.138 261.306L378.658 262.453ZM398.361 299.677L415.455 262.449L412.972 261.309L395.877 298.537L398.361 299.677ZM414.214 263.246H438.526V260.513H414.214V263.246Z" fill="white" mask="url(#path-3-outside-1_16_2000)"/>
<path d="M9.12 434.98C7.72 434.98 6.46 434.74 5.34 434.26C4.22 433.76 3.34 433.06 2.7 432.16C2.06 431.26 1.74 430.21 1.74 429.01H5.4C5.48 429.91 5.83 430.65 6.45 431.23C7.09 431.81 7.98 432.1 9.12 432.1C10.3 432.1 11.22 431.82 11.88 431.26C12.54 430.68 12.87 429.94 12.87 429.04C12.87 428.34 12.66 427.77 12.24 427.33C11.84 426.89 11.33 426.55 10.71 426.31C10.11 426.07 9.27 425.81 8.19 425.53C6.83 425.17 5.72 424.81 4.86 424.45C4.02 424.07 3.3 423.49 2.7 422.71C2.1 421.93 1.8 420.89 1.8 419.59C1.8 418.39 2.1 417.34 2.7 416.44C3.3 415.54 4.14 414.85 5.22 414.37C6.3 413.89 7.55 413.65 8.97 413.65C10.99 413.65 12.64 414.16 13.92 415.18C15.22 416.18 15.94 417.56 16.08 419.32H12.3C12.24 418.56 11.88 417.91 11.22 417.37C10.56 416.83 9.69 416.56 8.61 416.56C7.63 416.56 6.83 416.81 6.21 417.31C5.59 417.81 5.28 418.53 5.28 419.47C5.28 420.11 5.47 420.64 5.85 421.06C6.25 421.46 6.75 421.78 7.35 422.02C7.95 422.26 8.77 422.52 9.81 422.8C11.19 423.18 12.31 423.56 13.17 423.94C14.05 424.32 14.79 424.91 15.39 425.71C16.01 426.49 16.32 427.54 16.32 428.86C16.32 429.92 16.03 430.92 15.45 431.86C14.89 432.8 14.06 433.56 12.96 434.14C11.88 434.7 10.6 434.98 9.12 434.98ZM30.5819 434.98C28.6419 434.98 26.8519 434.53 25.2119 433.63C23.5919 432.71 22.3019 431.44 21.3419 429.82C20.4019 428.18 19.9319 426.34 19.9319 424.3C19.9319 422.26 20.4019 420.43 21.3419 418.81C22.3019 417.19 23.5919 415.93 25.2119 415.03C26.8519 414.11 28.6419 413.65 30.5819 413.65C32.5419 413.65 34.3319 414.11 35.9519 415.03C37.5919 415.93 38.8819 417.19 39.8219 418.81C40.7619 420.43 41.2319 422.26 41.2319 424.3C41.2319 426.34 40.7619 428.18 39.8219 429.82C38.8819 431.44 37.5919 432.71 35.9519 433.63C34.3319 434.53 32.5419 434.98 30.5819 434.98ZM30.5819 432.01C31.9619 432.01 33.1919 431.7 34.2719 431.08C35.3519 430.44 36.1919 429.54 36.7919 428.38C37.4119 427.2 37.7219 425.84 37.7219 424.3C37.7219 422.76 37.4119 421.41 36.7919 420.25C36.1919 419.09 35.3519 418.2 34.2719 417.58C33.1919 416.96 31.9619 416.65 30.5819 416.65C29.2019 416.65 27.9719 416.96 26.8919 417.58C25.8119 418.2 24.9619 419.09 24.3419 420.25C23.7419 421.41 23.4419 422.76 23.4419 424.3C23.4419 425.84 23.7419 427.2 24.3419 428.38C24.9619 429.54 25.8119 430.44 26.8919 431.08C27.9719 431.7 29.2019 432.01 30.5819 432.01ZM57.5836 413.92V416.71H48.7336V422.86H55.6336V425.65H48.7336V434.77H45.3136V413.92H57.5836ZM74.9395 413.92V416.71H69.3895V434.77H65.9695V416.71H60.3895V413.92H74.9395ZM106.269 413.92L100.089 434.77H96.2194L91.8394 418.99L87.1894 434.77L83.3494 434.8L77.4394 413.92H81.0694L85.3894 430.9L90.0694 413.92H93.9094L98.2594 430.81L102.609 413.92H106.269ZM122.377 430.51H113.647L112.147 434.77H108.577L116.047 413.89H120.007L127.477 434.77H123.877L122.377 430.51ZM121.417 427.72L118.027 418.03L114.607 427.72H121.417ZM142.271 434.77L137.471 426.43H134.861V434.77H131.441V413.92H138.641C140.241 413.92 141.591 414.2 142.691 414.76C143.811 415.32 144.641 416.07 145.181 417.01C145.741 417.95 146.021 419 146.021 420.16C146.021 421.52 145.621 422.76 144.821 423.88C144.041 424.98 142.831 425.73 141.191 426.13L146.351 434.77H142.271ZM134.861 423.7H138.641C139.921 423.7 140.881 423.38 141.521 422.74C142.181 422.1 142.511 421.24 142.511 420.16C142.511 419.08 142.191 418.24 141.551 417.64C140.911 417.02 139.941 416.71 138.641 416.71H134.861V423.7ZM154.532 416.68V422.8H161.732V425.59H154.532V431.98H162.632V434.77H151.112V413.89H162.632V416.68H154.532ZM179.491 416.68V422.8H186.691V425.59H179.491V431.98H187.591V434.77H176.071V413.89H187.591V416.68H179.491ZM209.649 434.77H206.229L195.939 419.2V434.77H192.519V413.89H195.939L206.229 429.43V413.89H209.649V434.77ZM229.947 419.92C229.407 418.88 228.657 418.1 227.697 417.58C226.737 417.04 225.627 416.77 224.367 416.77C222.987 416.77 221.757 417.08 220.677 417.7C219.597 418.32 218.747 419.2 218.127 420.34C217.527 421.48 217.227 422.8 217.227 424.3C217.227 425.8 217.527 427.13 218.127 428.29C218.747 429.43 219.597 430.31 220.677 430.93C221.757 431.55 222.987 431.86 224.367 431.86C226.227 431.86 227.737 431.34 228.897 430.3C230.057 429.26 230.767 427.85 231.027 426.07H223.197V423.34H234.687V426.01C234.467 427.63 233.887 429.12 232.947 430.48C232.027 431.84 230.817 432.93 229.317 433.75C227.837 434.55 226.187 434.95 224.367 434.95C222.407 434.95 220.617 434.5 218.997 433.6C217.377 432.68 216.087 431.41 215.127 429.79C214.187 428.17 213.717 426.34 213.717 424.3C213.717 422.26 214.187 420.43 215.127 418.81C216.087 417.19 217.377 415.93 218.997 415.03C220.637 414.11 222.427 413.65 224.367 413.65C226.587 413.65 228.557 414.2 230.277 415.3C232.017 416.38 233.277 417.92 234.057 419.92H229.947ZM242.196 413.92V434.77H238.776V413.92H242.196ZM264.533 434.77H261.113L250.823 419.2V434.77H247.403V413.89H250.823L261.113 429.43V413.89H264.533V434.77ZM273.16 416.68V422.8H280.36V425.59H273.16V431.98H281.26V434.77H269.74V413.89H281.26V416.68H273.16ZM289.609 416.68V422.8H296.809V425.59H289.609V431.98H297.709V434.77H286.189V413.89H297.709V416.68H289.609ZM313.468 434.77L308.668 426.43H306.058V434.77H302.638V413.92H309.838C311.438 413.92 312.788 414.2 313.888 414.76C315.008 415.32 315.838 416.07 316.378 417.01C316.938 417.95 317.218 419 317.218 420.16C317.218 421.52 316.818 422.76 316.018 423.88C315.238 424.98 314.028 425.73 312.388 426.13L317.548 434.77H313.468ZM306.058 423.7H309.838C311.118 423.7 312.078 423.38 312.718 422.74C313.378 422.1 313.708 421.24 313.708 420.16C313.708 419.08 313.388 418.24 312.748 417.64C312.108 417.02 311.138 416.71 309.838 416.71H306.058V423.7Z" fill="#E5DCDC" fill-opacity="0.28"/>
<defs>
<linearGradient id="paint0_linear_16_2000" x1="410" y1="170.5" x2="-20" y2="83.5" gradientUnits="userSpaceOnUse">
<stop stop-color="white"/>
<stop offset="1" stop-color="#999999"/>
</linearGradient>
</defs>
</svg>
