<svg width="441" height="357" viewBox="0 0 441 357" fill="none" xmlns="http://www.w3.org/2000/svg">
<path d="M40.0136 139.886C33.5135 139.886 27.6887 138.831 22.5393 136.721C17.3899 134.61 13.2534 131.487 10.13 127.35C7.09101 123.214 5.48709 118.233 5.31826 112.409H28.3641C28.7017 115.701 29.8414 118.233 31.7829 120.006C33.7245 121.695 36.257 122.539 39.3805 122.539C42.5883 122.539 45.1208 121.821 46.978 120.386C48.8351 118.867 49.7637 116.798 49.7637 114.181C49.7637 111.987 49.004 110.172 47.4845 108.737C46.0494 107.301 44.2344 106.12 42.0396 105.191C39.9292 104.262 36.8902 103.207 32.9226 102.025C27.1822 100.253 22.4971 98.4799 18.8672 96.7072C15.2372 94.9344 12.1138 92.3175 9.49689 88.8564C6.87997 85.3953 5.57151 80.879 5.57151 75.3075C5.57151 67.0346 8.56831 60.5768 14.5619 55.9338C20.5555 51.2065 28.3641 48.8428 37.9876 48.8428C47.7799 48.8428 55.6729 51.2065 61.6665 55.9338C67.6601 60.5768 70.8679 67.0769 71.29 75.4341H47.8643C47.6955 72.5639 46.6403 70.3269 44.6987 68.723C42.7571 67.0346 40.2668 66.1905 37.2278 66.1905C34.6109 66.1905 32.5005 66.908 30.8966 68.3431C29.2926 69.6938 28.4907 71.6776 28.4907 74.2945C28.4907 77.1647 29.8414 79.4017 32.5427 81.0056C35.244 82.6096 39.4649 84.3401 45.2052 86.1973C50.9456 88.1389 55.5885 89.996 59.134 91.7688C62.7639 93.5415 65.8873 96.1162 68.5043 99.4929C71.1212 102.87 72.4296 107.217 72.4296 112.535C72.4296 117.6 71.1212 122.201 68.5043 126.337C65.9718 130.474 62.2574 133.766 57.3612 136.214C52.4651 138.662 46.6825 139.886 40.0136 139.886ZM165.011 50.1091V139H143.358V102.405H109.676V139H88.0228V50.1091H109.676V84.931H143.358V50.1091H165.011ZM238.245 123.298H205.069L199.751 139H177.085L209.248 50.1091H234.32L266.483 139H243.564L238.245 123.298ZM232.674 106.584L221.657 74.0412L210.768 106.584H232.674ZM334.254 50.1091V110.636C334.254 120.006 331.595 127.224 326.277 132.289C321.043 137.354 313.952 139.886 305.004 139.886C295.634 139.886 288.121 137.227 282.465 131.909C276.809 126.591 273.981 119.035 273.981 109.243H295.507C295.507 112.957 296.267 115.785 297.786 117.727C299.306 119.584 301.501 120.513 304.371 120.513C306.988 120.513 309.014 119.669 310.449 117.98C311.884 116.292 312.601 113.844 312.601 110.636V50.1091H334.254ZM430.241 50.1091L399.471 109.623V139H377.818V109.623L347.048 50.1091H371.613L388.834 87.3369L405.929 50.1091H430.241Z" fill="url(#paint0_linear_20_78522)"/>
<mask id="path-2-outside-1_20_78522" maskUnits="userSpaceOnUse" x="6" y="213.77" width="435" height="94" fill="black">
<rect fill="white" x="6" y="213.77" width="435" height="94"/>
<path d="M29.5037 289.056H57.8677V305.77H7.85077V216.879H29.5037V289.056ZM125.799 290.069H92.6228L87.3046 305.77H64.6387L96.8015 216.879H121.873L154.036 305.77H131.117L125.799 290.069ZM120.227 273.354L109.211 240.811L98.321 273.354H120.227ZM245.613 305.77H223.96L187.746 250.941V305.77H166.093V216.879H187.746L223.96 271.961V216.879H245.613V305.77ZM259.905 261.198C259.905 252.419 261.804 244.61 265.603 237.772C269.401 230.85 274.678 225.49 281.431 221.691C288.269 217.808 295.993 215.866 304.603 215.866C315.155 215.866 324.188 218.652 331.701 224.224C339.214 229.795 344.237 237.393 346.769 247.016H322.964C321.191 243.302 318.659 240.474 315.366 238.532C312.159 236.591 308.486 235.62 304.35 235.62C297.681 235.62 292.278 237.941 288.142 242.584C284.006 247.227 281.937 253.432 281.937 261.198C281.937 268.964 284.006 275.169 288.142 279.812C292.278 284.455 297.681 286.776 304.35 286.776C308.486 286.776 312.159 285.806 315.366 283.864C318.659 281.922 321.191 279.094 322.964 275.38H346.769C344.237 285.004 339.214 292.601 331.701 298.173C324.188 303.66 315.155 306.403 304.603 306.403C295.993 306.403 288.269 304.504 281.431 300.705C274.678 296.822 269.401 291.462 265.603 284.624C261.804 277.786 259.905 269.977 259.905 261.198ZM438.526 216.879L407.756 276.393V305.77H386.103V276.393L355.333 216.879H379.898L397.119 254.107L414.214 216.879H438.526Z"/>
</mask>
<path d="M29.5037 289.056H28.1372V290.422H29.5037V289.056ZM57.8677 289.056H59.2342V287.689H57.8677V289.056ZM57.8677 305.77V307.137H59.2342V305.77H57.8677ZM7.85077 305.77H6.48431V307.137H7.85077V305.77ZM7.85077 216.879V215.513H6.48431V216.879H7.85077ZM29.5037 216.879H30.8701V215.513H29.5037V216.879ZM29.5037 290.422H57.8677V287.689H29.5037V290.422ZM56.5013 289.056V305.77H59.2342V289.056H56.5013ZM57.8677 304.404H7.85077V307.137H57.8677V304.404ZM9.21723 305.77V216.879H6.48431V305.77H9.21723ZM7.85077 218.246H29.5037V215.513H7.85077V218.246ZM28.1372 216.879V289.056H30.8701V216.879H28.1372ZM125.799 290.069L127.093 289.63L126.779 288.702H125.799V290.069ZM92.6228 290.069V288.702H91.643L91.3286 289.63L92.6228 290.069ZM87.3046 305.77V307.137H88.2845L88.5988 306.209L87.3046 305.77ZM64.6387 305.77L63.3537 305.305L62.6911 307.137H64.6387V305.77ZM96.8015 216.879V215.513H95.8427L95.5165 216.414L96.8015 216.879ZM121.873 216.879L123.158 216.414L122.832 215.513H121.873V216.879ZM154.036 305.77V307.137H155.984L155.321 305.305L154.036 305.77ZM131.117 305.77L129.823 306.209L130.137 307.137H131.117V305.77ZM120.227 273.354V274.721H122.132L121.521 272.916L120.227 273.354ZM109.211 240.811L110.505 240.373L109.203 236.528L107.915 240.378L109.211 240.811ZM98.321 273.354L97.0251 272.921L96.4228 274.721H98.321V273.354ZM125.799 288.702H92.6228V291.435H125.799V288.702ZM91.3286 289.63L86.0103 305.332L88.5988 306.209L93.9171 290.507L91.3286 289.63ZM87.3046 304.404H64.6387V307.137H87.3046V304.404ZM65.9236 306.235L98.0864 217.344L95.5165 216.414L63.3537 305.305L65.9236 306.235ZM96.8015 218.246H121.873V215.513H96.8015V218.246ZM120.588 217.344L152.751 306.235L155.321 305.305L123.158 216.414L120.588 217.344ZM154.036 304.404H131.117V307.137H154.036V304.404ZM132.411 305.332L127.093 289.63L124.504 290.507L129.823 306.209L132.411 305.332ZM121.521 272.916L110.505 240.373L107.916 241.25L118.933 273.792L121.521 272.916ZM107.915 240.378L97.0251 272.921L99.6168 273.788L110.507 241.245L107.915 240.378ZM98.321 274.721H120.227V271.988H98.321V274.721ZM245.613 305.77V307.137H246.98V305.77H245.613ZM223.96 305.77L222.82 306.523L223.225 307.137H223.96V305.77ZM187.746 250.941L188.886 250.188L186.379 246.393V250.941H187.746ZM187.746 305.77V307.137H189.112V305.77H187.746ZM166.093 305.77H164.726V307.137H166.093V305.77ZM166.093 216.879V215.513H164.726V216.879H166.093ZM187.746 216.879L188.887 216.129L188.482 215.513H187.746V216.879ZM223.96 271.961L222.819 272.712L225.327 276.527V271.961H223.96ZM223.96 216.879V215.513H222.594V216.879H223.96ZM245.613 216.879H246.98V215.513H245.613V216.879ZM245.613 304.404H223.96V307.137H245.613V304.404ZM225.101 305.017L188.886 250.188L186.605 251.695L222.82 306.523L225.101 305.017ZM186.379 250.941V305.77H189.112V250.941H186.379ZM187.746 304.404H166.093V307.137H187.746V304.404ZM167.459 305.77V216.879H164.726V305.77H167.459ZM166.093 218.246H187.746V215.513H166.093V218.246ZM186.604 217.63L222.819 272.712L225.102 271.211L188.887 216.129L186.604 217.63ZM225.327 271.961V216.879H222.594V271.961H225.327ZM223.96 218.246H245.613V215.513H223.96V218.246ZM244.247 216.879V305.77H246.98V216.879H244.247ZM265.603 237.772L266.797 238.436L266.801 238.43L265.603 237.772ZM281.431 221.691L282.101 222.882L282.106 222.879L281.431 221.691ZM331.701 224.224L332.515 223.126L331.701 224.224ZM346.769 247.016V248.383H348.542L348.091 246.668L346.769 247.016ZM322.964 247.016L321.731 247.605L322.102 248.383H322.964V247.016ZM315.366 238.532L314.659 239.701L314.666 239.705L314.672 239.709L315.366 238.532ZM288.142 242.584L289.162 243.493L288.142 242.584ZM288.142 279.812L287.122 280.721L288.142 279.812ZM315.366 283.864L314.672 282.687L314.666 282.691L314.659 282.695L315.366 283.864ZM322.964 275.38V274.014H322.102L321.731 274.792L322.964 275.38ZM346.769 275.38L348.091 275.728L348.542 274.014H346.769V275.38ZM331.701 298.173L332.507 299.276L332.515 299.27L331.701 298.173ZM281.431 300.705L280.75 301.89L280.758 301.895L280.767 301.9L281.431 300.705ZM265.603 284.624L266.797 283.96L265.603 284.624ZM261.271 261.198C261.271 252.622 263.124 245.047 266.797 238.436L264.408 237.109C260.483 244.173 258.538 252.215 258.538 261.198H261.271ZM266.801 238.43C270.479 231.727 275.574 226.553 282.101 222.882L280.761 220.5C273.781 224.426 268.324 229.974 264.405 237.115L266.801 238.43ZM282.106 222.879C288.719 219.124 296.206 217.233 304.603 217.233V214.5C295.779 214.5 287.819 216.492 280.756 220.503L282.106 222.879ZM304.603 217.233C314.902 217.233 323.639 219.946 330.887 225.321L332.515 223.126C324.737 217.358 315.409 214.5 304.603 214.5V217.233ZM330.887 225.321C338.134 230.695 342.989 238.02 345.448 247.364L348.091 246.668C345.485 236.765 340.294 228.895 332.515 223.126L330.887 225.321ZM346.769 245.65H322.964V248.383H346.769V245.65ZM324.197 246.428C322.317 242.488 319.605 239.446 316.061 237.355L314.672 239.709C317.712 241.502 320.066 244.116 321.731 247.605L324.197 246.428ZM316.074 237.363C312.631 235.279 308.709 234.253 304.35 234.253V236.986C308.264 236.986 311.686 237.902 314.659 239.701L316.074 237.363ZM304.35 234.253C297.323 234.253 291.538 236.718 287.122 241.675L289.162 243.493C293.019 239.164 298.039 236.986 304.35 236.986V234.253ZM287.122 241.675C282.711 246.626 280.571 253.183 280.571 261.198H283.304C283.304 253.68 285.3 247.828 289.162 243.493L287.122 241.675ZM280.571 261.198C280.571 269.213 282.711 275.77 287.122 280.721L289.162 278.903C285.3 274.568 283.304 268.716 283.304 261.198H280.571ZM287.122 280.721C291.538 285.678 297.323 288.143 304.35 288.143V285.41C298.039 285.41 293.019 283.232 289.162 278.903L287.122 280.721ZM304.35 288.143C308.709 288.143 312.631 287.117 316.074 285.033L314.659 282.695C311.686 284.494 308.264 285.41 304.35 285.41V288.143ZM316.061 285.041C319.605 282.951 322.317 279.909 324.197 275.969L321.731 274.792C320.066 278.28 317.712 280.894 314.672 282.687L316.061 285.041ZM322.964 276.747H346.769V274.014H322.964V276.747ZM345.448 275.032C342.989 284.376 338.134 291.701 330.887 297.075L332.515 299.27C340.294 293.501 345.485 285.631 348.091 275.728L345.448 275.032ZM330.895 297.069C323.647 302.363 314.906 305.037 304.603 305.037V307.77C315.405 307.77 324.729 304.957 332.507 299.276L330.895 297.069ZM304.603 305.037C296.201 305.037 288.709 303.186 282.094 299.511L280.767 301.9C287.828 305.822 295.784 307.77 304.603 307.77V305.037ZM282.112 299.521C275.575 295.762 270.476 290.582 266.797 283.96L264.408 285.287C268.327 292.341 273.78 297.882 280.75 301.89L282.112 299.521ZM266.797 283.96C263.124 277.349 261.271 269.774 261.271 261.198H258.538C258.538 270.181 260.483 278.223 264.408 285.287L266.797 283.96ZM438.526 216.879L439.74 217.507L440.771 215.513H438.526V216.879ZM407.756 276.393L406.542 275.766L406.389 276.061V276.393H407.756ZM407.756 305.77V307.137H409.122V305.77H407.756ZM386.103 305.77H384.736V307.137H386.103V305.77ZM386.103 276.393H387.469V276.061L387.317 275.766L386.103 276.393ZM355.333 216.879V215.513H353.088L354.119 217.507L355.333 216.879ZM379.898 216.879L381.138 216.306L380.772 215.513H379.898V216.879ZM397.119 254.107L395.879 254.681L397.124 257.372L398.361 254.677L397.119 254.107ZM414.214 216.879V215.513H413.338L412.972 216.309L414.214 216.879ZM437.312 216.252L406.542 275.766L408.97 277.021L439.74 217.507L437.312 216.252ZM406.389 276.393V305.77H409.122V276.393H406.389ZM407.756 304.404H386.103V307.137H407.756V304.404ZM387.469 305.77V276.393H384.736V305.77H387.469ZM387.317 275.766L356.547 216.252L354.119 217.507L384.889 277.021L387.317 275.766ZM355.333 218.246H379.898V215.513H355.333V218.246ZM378.658 217.453L395.879 254.681L398.359 253.533L381.138 216.306L378.658 217.453ZM398.361 254.677L415.455 217.449L412.972 216.309L395.877 253.537L398.361 254.677ZM414.214 218.246H438.526V215.513H414.214V218.246Z" fill="white" mask="url(#path-2-outside-1_20_78522)"/>
<defs>
<linearGradient id="paint0_linear_20_78522" x1="410" y1="125.5" x2="-20" y2="38.5" gradientUnits="userSpaceOnUse">
<stop stop-color="white"/>
<stop offset="1" stop-color="#999999"/>
</linearGradient>
</defs>
</svg>
