<svg width="104" height="252" viewBox="0 0 104 252" fill="none" xmlns="http://www.w3.org/2000/svg">
<g clip-path="url(#clip0_25_3077)">
<path style="mix-blend-mode:screen" d="M39.6252 204.273C39.6252 217.228 45.0739 251.129 51.7908 251.129C58.5077 251.129 63.9564 217.228 63.9564 204.273C63.9564 192.875 58.5077 190.125 51.7908 190.125C45.0739 190.125 39.6252 192.875 39.6252 204.273Z" fill="url(#paint0_linear_25_3077)"/>
<path style="mix-blend-mode:screen" d="M40.2739 204.119C40.2739 216.764 45.4277 250.341 51.7907 250.341C58.1536 250.341 63.3074 216.764 63.3074 204.119C63.3074 192.993 58.1536 190.309 51.7907 190.309C45.4277 190.309 40.2739 192.993 40.2739 204.119Z" fill="url(#paint1_linear_25_3077)"/>
<path style="mix-blend-mode:screen" d="M40.9229 203.964C40.9229 216.299 45.7891 249.551 51.7908 249.551C57.7924 249.551 62.6587 216.299 62.6587 203.964C62.6587 193.103 57.7924 190.486 51.7908 190.486C45.7891 190.486 40.9229 193.103 40.9229 203.964Z" fill="url(#paint2_linear_25_3077)"/>
<path style="mix-blend-mode:screen" d="M41.5715 203.802C41.5715 215.827 46.1428 248.763 51.7906 248.763C57.4384 248.763 62.0097 215.834 62.0097 203.802C62.0097 193.214 57.4384 190.663 51.7906 190.663C46.1428 190.663 41.5715 193.214 41.5715 203.802Z" fill="url(#paint3_linear_25_3077)"/>
<path style="mix-blend-mode:screen" d="M42.2205 203.647C42.2205 215.37 46.5042 247.974 51.7833 247.974C57.0624 247.974 61.3462 215.37 61.3462 203.647C61.3462 193.332 57.0624 190.847 51.7833 190.847C46.5042 190.847 42.2205 193.332 42.2205 203.647Z" fill="url(#paint4_linear_25_3077)"/>
<path style="mix-blend-mode:screen" d="M42.8767 203.492C42.8767 214.906 46.8655 247.185 51.7907 247.185C56.716 247.185 60.7048 214.906 60.7048 203.492C60.7048 193.45 56.716 191.024 51.7907 191.024C46.8655 191.024 42.8767 193.443 42.8767 203.492Z" fill="url(#paint5_linear_25_3077)"/>
<path style="mix-blend-mode:screen" d="M43.5256 203.33C43.5256 214.434 47.2269 246.389 51.7908 246.389C56.3548 246.389 60.0561 214.434 60.0561 203.33C60.0561 193.553 56.3548 191.201 51.7908 191.201C47.2269 191.201 43.5256 193.553 43.5256 203.33Z" fill="url(#paint6_linear_25_3077)"/>
<path style="mix-blend-mode:screen" d="M44.1743 203.175C44.1743 213.969 47.5807 245.607 51.7907 245.607C56.0007 245.607 59.4071 213.976 59.4071 203.175C59.4071 193.671 55.9933 191.378 51.7907 191.378C47.588 191.378 44.1743 193.671 44.1743 203.175Z" fill="url(#paint7_linear_25_3077)"/>
<path style="mix-blend-mode:screen" d="M44.8232 203.02C44.8232 213.512 47.9421 244.818 51.7908 244.818C55.6395 244.818 58.7583 213.512 58.7583 203.02C58.7583 193.789 55.6395 191.562 51.7908 191.562C47.9421 191.562 44.8232 193.789 44.8232 203.02Z" fill="url(#paint8_linear_25_3077)"/>
<path style="mix-blend-mode:screen" d="M45.4719 202.858C45.4719 213.04 48.3032 244.022 51.7906 244.022C55.2781 244.022 58.1094 213.04 58.1094 202.858C58.1094 193.9 55.2781 191.739 51.7906 191.739C48.3032 191.739 45.4719 193.9 45.4719 202.858Z" fill="url(#paint9_linear_25_3077)"/>
<path style="mix-blend-mode:screen" d="M46.1208 202.703C46.1208 212.576 48.6572 243.24 51.7907 243.24C54.9243 243.24 57.4606 212.576 57.4606 202.703C57.4606 194.01 54.9243 191.916 51.7907 191.916C48.6572 191.916 46.1208 194.01 46.1208 202.703Z" fill="url(#paint10_linear_25_3077)"/>
<path style="mix-blend-mode:screen" d="M46.7698 202.548C46.7698 212.111 49.0186 242.451 51.7908 242.451C54.5631 242.451 56.8119 212.111 56.8119 202.548C56.8119 194.128 54.5631 192.101 51.7908 192.101C49.0186 192.101 46.7698 194.128 46.7698 202.548Z" fill="url(#paint11_linear_25_3077)"/>
<path d="M41.9995 186.615H61.4644V189.365C61.4644 189.365 61.4644 189.417 61.4644 189.446C61.4644 192.58 57.1069 195.116 51.732 195.116C46.357 195.116 41.9995 192.58 41.9995 189.446C41.9995 189.417 41.9995 189.395 41.9995 189.365V186.615Z" fill="url(#paint12_linear_25_3077)"/>
<path d="M76.9846 122.248C78.5182 129.142 86.4221 152.743 91.7307 151.564C97.0393 150.384 98.0937 124.939 96.2135 117.979C94.5841 111.978 89.8211 108.888 84.5125 110.068C79.2039 111.248 75.6427 116.18 76.9919 122.248H76.9846Z" fill="url(#paint13_linear_25_3077)"/>
<path d="M41.9995 186.652C41.9995 189.786 46.357 192.322 51.732 192.322C57.1069 192.322 61.4644 189.786 61.4644 186.652C61.4644 183.519 57.1069 180.982 51.732 180.982C46.357 180.982 41.9995 183.519 41.9995 186.652Z" fill="url(#paint14_linear_25_3077)"/>
<path d="M8.40771 115.539C8.40771 139.494 27.8284 189.667 51.7835 189.667C75.7386 189.667 95.1666 139.501 95.1666 115.539C95.1666 94.4517 75.7459 89.3643 51.7835 89.3643C27.821 89.3643 8.40771 94.4443 8.40771 115.539Z" fill="url(#paint15_linear_25_3077)"/>
<path style="mix-blend-mode:multiply" d="M8.40771 115.539C8.40771 139.494 27.8284 189.667 51.7835 189.667C75.7386 189.667 95.1666 139.501 95.1666 115.539C95.1666 94.4517 75.7459 89.3643 51.7835 89.3643C27.821 89.3643 8.40771 94.4443 8.40771 115.539Z" fill="url(#paint16_radial_25_3077)"/>
<path opacity="0.07" d="M9.64648 111.941C9.64648 125.463 28.4773 136.427 51.7025 136.427C74.9276 136.427 93.7584 125.463 93.7584 111.941C93.7584 98.4184 74.9276 87.4473 51.7025 87.4473C28.4773 87.4473 9.64648 98.411 9.64648 111.941Z" fill="url(#paint17_linear_25_3077)"/>
<path opacity="0.15" d="M10.1772 111.771C10.1772 125.131 28.7795 135.962 51.7171 135.962C74.6547 135.962 93.2644 125.131 93.2644 111.771C93.2644 98.4111 74.6621 87.5801 51.7171 87.5801C28.7721 87.5801 10.1772 98.4111 10.1772 111.771Z" fill="url(#paint18_linear_25_3077)"/>
<path opacity="0.22" d="M10.7007 111.609C10.7007 124.807 29.067 135.505 51.7318 135.505C74.3966 135.505 92.7629 124.807 92.7629 111.609C92.7629 98.4112 74.3892 87.7129 51.7318 87.7129C29.0744 87.7129 10.7007 98.4112 10.7007 111.609Z" fill="url(#paint19_linear_25_3077)"/>
<path opacity="0.29" d="M11.2317 111.439C11.2317 124.467 29.3694 135.033 51.7541 135.033C74.1387 135.033 92.2765 124.467 92.2765 111.439C92.2765 98.4111 74.1313 87.8455 51.7541 87.8455C29.3768 87.8455 11.2317 98.4111 11.2317 111.439Z" fill="url(#paint20_linear_25_3077)"/>
<path opacity="0.36" d="M11.7625 111.27C11.7625 124.136 29.6716 134.568 51.7687 134.568C73.8658 134.568 91.775 124.136 91.775 111.27C91.775 98.4036 73.8658 87.9707 51.7687 87.9707C29.6716 87.9707 11.7625 98.4036 11.7625 111.27Z" fill="url(#paint21_linear_25_3077)"/>
<path opacity="0.44" d="M12.2859 111.1C12.2859 123.804 29.9665 134.097 51.7834 134.097C73.6003 134.097 91.2809 123.797 91.2809 111.1C91.2809 98.4037 73.6003 88.1035 51.7834 88.1035C29.9665 88.1035 12.2859 98.4037 12.2859 111.1Z" fill="url(#paint22_linear_25_3077)"/>
<path opacity="0.51" d="M12.8169 110.93C12.8169 123.465 30.2689 133.632 51.7983 133.632C73.3277 133.632 90.7797 123.465 90.7797 110.93C90.7797 98.3962 73.3277 88.2288 51.7983 88.2288C30.2689 88.2288 12.8169 98.3888 12.8169 110.93Z" fill="url(#paint23_linear_25_3077)"/>
<path opacity="0.58" d="M51.813 133.168C73.0609 133.168 90.2857 123.139 90.2857 110.768C90.2857 98.3974 73.0609 88.3689 51.813 88.3689C30.5651 88.3689 13.3403 98.3974 13.3403 110.768C13.3403 123.139 30.5651 133.168 51.813 133.168Z" fill="url(#paint24_linear_25_3077)"/>
<path opacity="0.65" d="M13.8711 110.599C13.8711 122.809 30.866 132.703 51.8276 132.703C72.7893 132.703 89.7842 122.809 89.7842 110.599C89.7842 98.389 72.7893 88.4944 51.8276 88.4944C30.866 88.4944 13.8711 98.389 13.8711 110.599Z" fill="url(#paint25_linear_25_3077)"/>
<path opacity="0.73" d="M14.4019 110.429C14.4019 122.469 31.1682 132.239 51.8497 132.239C72.5311 132.239 89.2975 122.477 89.2975 110.429C89.2975 98.3815 72.5311 88.627 51.8497 88.627C31.1682 88.627 14.4019 98.3889 14.4019 110.429Z" fill="url(#paint26_linear_25_3077)"/>
<path opacity="0.8" d="M51.8646 131.767C72.2614 131.767 88.7963 122.138 88.7963 110.26C88.7963 98.3816 72.2614 88.7524 51.8646 88.7524C31.4677 88.7524 14.9329 98.3816 14.9329 110.26C14.9329 122.138 31.4677 131.767 51.8646 131.767Z" fill="url(#paint27_linear_25_3077)"/>
<path style="mix-blend-mode:multiply" opacity="0.05" d="M10.9807 105.578C10.9807 117.146 27.0835 126.525 46.9539 126.525C66.8243 126.525 82.9197 117.146 82.9197 105.578C82.9197 94.0094 66.817 84.6309 46.9539 84.6309C27.0909 84.6309 10.9807 94.0094 10.9807 105.578Z" fill="url(#paint28_linear_25_3077)"/>
<path style="mix-blend-mode:multiply" opacity="0.09" d="M12.0132 105.637C12.0132 116.903 27.6883 126.03 47.0353 126.03C66.3822 126.03 82.0573 116.903 82.0573 105.637C82.0573 94.3705 66.3822 85.2427 47.0353 85.2427C27.6883 85.2427 12.0132 94.3705 12.0132 105.637Z" fill="url(#paint29_linear_25_3077)"/>
<path style="mix-blend-mode:multiply" opacity="0.14" d="M13.0452 105.703C13.0452 116.659 28.3 125.544 47.1161 125.544C65.9322 125.544 81.1871 116.659 81.1871 105.703C81.1871 94.7466 65.9322 85.8621 47.1161 85.8621C28.3 85.8621 13.0452 94.7466 13.0452 105.703Z" fill="url(#paint30_linear_25_3077)"/>
<path style="mix-blend-mode:multiply" opacity="0.18" d="M14.0776 105.762C14.0776 116.416 28.9049 125.05 47.1975 125.05C65.49 125.05 80.3173 116.416 80.3173 105.762C80.3173 95.108 65.49 86.4741 47.1975 86.4741C28.9049 86.4741 14.0776 95.108 14.0776 105.762Z" fill="url(#paint31_linear_25_3077)"/>
<path style="mix-blend-mode:multiply" opacity="0.23" d="M15.1099 105.828C15.1099 116.173 29.5095 124.563 47.2786 124.563C65.0476 124.563 79.4473 116.18 79.4473 105.828C79.4473 95.4767 65.0476 87.0935 47.2786 87.0935C29.5095 87.0935 15.1099 95.4841 15.1099 105.828Z" fill="url(#paint32_linear_25_3077)"/>
<path style="mix-blend-mode:multiply" opacity="0.27" d="M16.1418 105.887C16.1418 115.929 30.1212 124.069 47.3594 124.069C64.5976 124.069 78.577 115.929 78.577 105.887C78.577 95.8452 64.5976 87.7053 47.3594 87.7053C30.1212 87.7053 16.1418 95.8452 16.1418 105.887Z" fill="url(#paint33_linear_25_3077)"/>
<path style="mix-blend-mode:multiply" opacity="0.32" d="M17.1743 105.954C17.1743 115.686 30.726 123.583 47.4408 123.583C64.1555 123.583 77.7072 115.694 77.7072 105.954C77.7072 96.2139 64.1555 88.3247 47.4408 88.3247C30.726 88.3247 17.1743 96.2139 17.1743 105.954Z" fill="url(#paint34_linear_25_3077)"/>
<path style="mix-blend-mode:multiply" opacity="0.36" d="M18.2063 106.02C18.2063 115.45 31.3304 123.096 47.529 123.096C63.7276 123.096 76.8517 115.45 76.8517 106.02C76.8517 96.59 63.7276 88.9441 47.529 88.9441C31.3304 88.9441 18.2063 96.59 18.2063 106.02Z" fill="url(#paint35_linear_25_3077)"/>
<path style="mix-blend-mode:multiply" opacity="0.41" d="M19.2388 106.079C19.2388 115.207 31.9426 122.602 47.6103 122.602C63.2781 122.602 75.9819 115.207 75.9819 106.079C75.9819 96.9513 63.2781 89.5562 47.6103 89.5562C31.9426 89.5562 19.2388 96.9513 19.2388 106.079Z" fill="url(#paint36_linear_25_3077)"/>
<path style="mix-blend-mode:multiply" opacity="0.45" d="M20.271 106.145C20.271 114.964 32.5472 122.115 47.6914 122.115C62.8357 122.115 75.1119 114.964 75.1119 106.145C75.1119 97.3271 62.8357 90.1826 47.6914 90.1826C32.5472 90.1826 20.271 97.3345 20.271 106.145Z" fill="url(#paint37_linear_25_3077)"/>
<path style="mix-blend-mode:multiply" opacity="0.5" d="M21.303 106.204C21.303 114.72 33.1515 121.621 47.7723 121.621C62.3931 121.621 74.2416 114.72 74.2416 106.204C74.2416 97.6885 62.3931 90.7947 47.7723 90.7947C33.1515 90.7947 21.303 97.6959 21.303 106.204Z" fill="url(#paint38_linear_25_3077)"/>
<path d="M0.62915 71.3741C0.62915 99.5023 23.434 122.307 51.5623 122.307C79.6906 122.307 102.488 99.5023 102.488 71.3741C102.488 43.2458 79.6832 20.4409 51.5623 20.4409C23.4414 20.4409 0.62915 43.2458 0.62915 71.3741Z" fill="url(#paint39_radial_25_3077)"/>
<path d="M98.3739 75.8717C87.7124 88.7893 72.7156 97.3937 56.1852 100.085C51.7318 100.807 47.6914 97.3715 47.6914 92.8592V79.573C47.6914 73.645 51.5696 68.4101 57.2469 66.6848C69.206 63.0573 80.0665 56.4879 88.8331 47.5812C90.905 45.4725 94.4661 45.9444 95.8449 48.5618C98.6762 53.9147 100.564 59.8426 101.294 66.1319C101.699 69.6341 100.623 73.151 98.3812 75.8717H98.3739Z" fill="url(#paint40_linear_25_3077)"/>
<path d="M85.176 69.6781C85.176 72.0891 86.8792 73.055 88.9732 71.8458C91.0745 70.6293 92.7703 67.6948 92.7703 65.2912C92.7703 62.8875 91.0671 61.9143 88.9732 63.1235C86.8718 64.3327 85.176 67.2671 85.176 69.6781Z" fill="#2AF6FF"/>
<path d="M63.3149 82.3157C63.3149 84.7267 65.0181 85.6926 67.1121 84.4834C69.2134 83.2742 70.9092 80.3397 70.9092 77.9287C70.9092 75.5177 69.2134 74.5519 67.1121 75.761C65.0107 76.9702 63.3149 79.9047 63.3149 82.3157Z" fill="#2AF6FF"/>
<path d="M9.66846 142.952C9.66846 149.499 14.9771 154.8 21.5244 154.8C28.0716 154.8 33.3729 149.492 33.3729 142.952C33.3729 136.412 28.0716 131.103 21.5244 131.103C14.9771 131.103 9.66846 136.412 9.66846 142.952Z" fill="url(#paint41_radial_25_3077)"/>
<path d="M10.9294 148.201C12.4335 157.115 24.953 176.698 30.2616 175.519C35.5702 174.339 30.8367 150.214 29.3031 143.32C27.9538 137.252 22.9033 134.229 17.5947 135.409C12.2861 136.589 9.8972 142.067 10.9294 148.194V148.201Z" fill="url(#paint42_linear_25_3077)"/>
<path style="mix-blend-mode:multiply" d="M10.9294 148.201C12.4335 157.115 24.953 176.698 30.2616 175.519C35.5702 174.339 30.8367 150.214 29.3031 143.32C27.9538 137.252 22.9033 134.229 17.5947 135.409C12.2861 136.589 9.8972 142.067 10.9294 148.194V148.201Z" fill="url(#paint43_radial_25_3077)"/>
<path style="mix-blend-mode:color-dodge" d="M19.7254 146.004C20.2415 153.045 28.4404 172.872 30.1436 172.739C31.8394 172.614 29.0302 154.734 28.057 147.162C27.2681 140.998 25.3806 137.864 23.7659 137.333C19.1429 135.815 19.2683 139.803 19.7254 146.004Z" fill="url(#paint44_radial_25_3077)"/>
<path style="mix-blend-mode:color-dodge" d="M12.0279 149.13C14.2029 159.556 24.9381 173.41 26.6118 173.093C28.2855 172.768 18.7447 158.797 16.8867 151.394C15.3752 145.363 16.8204 139.228 15.1541 138.897C10.3837 137.931 10.7597 143.055 12.0279 149.138V149.13Z" fill="url(#paint45_radial_25_3077)"/>
<path d="M36.5063 27.6296H66.9866V29.8489C66.9866 29.8932 66.9866 29.93 66.9866 29.9743C66.9866 34.87 60.1665 38.8441 51.7465 38.8441C43.3264 38.8441 36.5063 34.87 36.5063 29.9743C36.5063 29.93 36.5063 29.8932 36.5063 29.8489V27.6296Z" fill="url(#paint46_linear_25_3077)"/>
<path d="M36.5063 27.6958C36.5063 32.5989 43.3264 36.573 51.7465 36.573C60.1665 36.573 66.9866 32.5989 66.9866 27.6958C66.9866 22.7927 60.1665 18.8186 51.7465 18.8186C43.3264 18.8186 36.5063 22.7927 36.5063 27.6958Z" fill="url(#paint47_linear_25_3077)"/>
<path d="M49.4683 6.66797H54.0248V26.7375V26.7596C54.0248 27.4895 53.0073 28.0867 51.7465 28.0867C50.4857 28.0867 49.4683 27.4969 49.4683 26.7596V26.7375V6.66797Z" fill="url(#paint48_linear_25_3077)"/>
<path d="M44.978 7.24309C44.978 10.9812 48.0084 14.0116 51.7465 14.0116C55.4846 14.0116 58.5223 10.9812 58.5223 7.24309C58.5223 3.50494 55.4846 0.474609 51.7465 0.474609C48.0084 0.474609 44.978 3.50494 44.978 7.24309Z" fill="url(#paint49_radial_25_3077)"/>
<path style="mix-blend-mode:color-dodge" d="M29.7971 56.8712C29.7971 74.6919 44.241 89.1358 62.0617 89.1358C79.8824 89.1358 94.3262 74.6919 94.3262 56.8712C94.3262 39.0505 79.8824 24.6067 62.0617 24.6067C44.241 24.6067 29.7971 39.0505 29.7971 56.8712Z" fill="url(#paint50_radial_25_3077)"/>
<path style="mix-blend-mode:color-dodge" d="M74.8833 67.1493C74.8833 75.0311 81.2758 81.4235 89.1576 81.4235C97.0394 81.4235 103.432 75.0311 103.432 67.1493C103.432 59.2675 97.0394 52.875 89.1576 52.875C81.2758 52.875 74.8833 59.2675 74.8833 67.1493Z" fill="url(#paint51_radial_25_3077)"/>
<path style="mix-blend-mode:color-dodge" d="M52.6313 80.2735C52.6313 88.1553 59.0238 94.5478 66.9056 94.5478C74.7874 94.5478 81.1799 88.1553 81.1799 80.2735C81.1799 72.3917 74.7874 65.9993 66.9056 65.9993C59.0238 65.9993 52.6313 72.3917 52.6313 80.2735Z" fill="url(#paint52_radial_25_3077)"/>
<path style="mix-blend-mode:color-dodge" d="M74.3598 133.927C68.5719 157.174 56.5833 183.953 59.4293 185.244C64.443 187.515 84.1733 161.23 89.9612 137.982C95.056 117.515 92.645 93.4491 87.3511 92.1293C82.0572 90.8095 79.4545 113.46 74.3598 133.927Z" fill="url(#paint53_radial_25_3077)"/>
<path d="M86.9015 100.837L90.5585 94.5255C91.2811 93.2794 90.5216 92.3357 89.5558 93.2868L84.5494 98.212C83.1854 99.5539 81.6961 100.409 80.3394 100.645L75.3331 101.5C74.3672 101.663 73.6078 103.484 74.3304 103.897L77.9874 105.983C80.45 107.384 84.4388 105.084 86.8941 100.837H86.9015Z" fill="url(#paint54_linear_25_3077)"/>
</g>
<defs>
<linearGradient id="paint0_linear_25_3077" x1="51.7834" y1="198.058" x2="51.7834" y2="240.239" gradientUnits="userSpaceOnUse">
<stop stop-color="#113A39"/>
<stop offset="0.22" stop-color="#0A2221"/>
<stop offset="0.47" stop-color="#040F0F"/>
<stop offset="0.73" stop-color="#010303"/>
<stop offset="1"/>
</linearGradient>
<linearGradient id="paint1_linear_25_3077" x1="51.7833" y1="198.11" x2="51.7833" y2="239.62" gradientUnits="userSpaceOnUse">
<stop stop-color="#164A48"/>
<stop offset="0.06" stop-color="#13413F"/>
<stop offset="0.3" stop-color="#0A2423"/>
<stop offset="0.54" stop-color="#04100F"/>
<stop offset="0.77" stop-color="#010403"/>
<stop offset="1"/>
</linearGradient>
<linearGradient id="paint2_linear_25_3077" x1="51.7834" y1="198.169" x2="51.7834" y2="239.008" gradientUnits="userSpaceOnUse">
<stop stop-color="#1A5A58"/>
<stop offset="0.13" stop-color="#144644"/>
<stop offset="0.36" stop-color="#0B2726"/>
<stop offset="0.58" stop-color="#051111"/>
<stop offset="0.8" stop-color="#010404"/>
<stop offset="1"/>
</linearGradient>
<linearGradient id="paint3_linear_25_3077" x1="51.7832" y1="198.22" x2="51.7832" y2="238.389" gradientUnits="userSpaceOnUse">
<stop stop-color="#1F6967"/>
<stop offset="0.17" stop-color="#164B4A"/>
<stop offset="0.4" stop-color="#0C2A2A"/>
<stop offset="0.62" stop-color="#051312"/>
<stop offset="0.83" stop-color="#010404"/>
<stop offset="1"/>
</linearGradient>
<linearGradient id="paint4_linear_25_3077" x1="51.7833" y1="198.272" x2="51.7833" y2="237.777" gradientUnits="userSpaceOnUse">
<stop stop-color="#237976"/>
<stop offset="0.21" stop-color="#175250"/>
<stop offset="0.44" stop-color="#0D2E2D"/>
<stop offset="0.65" stop-color="#061514"/>
<stop offset="0.85" stop-color="#010505"/>
<stop offset="1"/>
</linearGradient>
<linearGradient id="paint5_linear_25_3077" x1="51.7834" y1="198.324" x2="51.7834" y2="237.157" gradientUnits="userSpaceOnUse">
<stop stop-color="#288985"/>
<stop offset="0.23" stop-color="#1A5A57"/>
<stop offset="0.46" stop-color="#0E3331"/>
<stop offset="0.68" stop-color="#061716"/>
<stop offset="0.86" stop-color="#010605"/>
<stop offset="1"/>
</linearGradient>
<linearGradient id="paint6_linear_25_3077" x1="51.7835" y1="198.375" x2="51.7835" y2="236.538" gradientUnits="userSpaceOnUse">
<stop stop-color="#2C9995"/>
<stop offset="0.25" stop-color="#1C6461"/>
<stop offset="0.48" stop-color="#103937"/>
<stop offset="0.7" stop-color="#071919"/>
<stop offset="0.88" stop-color="#010606"/>
<stop offset="1"/>
</linearGradient>
<linearGradient id="paint7_linear_25_3077" x1="51.7833" y1="198.434" x2="51.7833" y2="235.926" gradientUnits="userSpaceOnUse">
<stop stop-color="#31A9A4"/>
<stop offset="0.25" stop-color="#20706D"/>
<stop offset="0.49" stop-color="#12403E"/>
<stop offset="0.71" stop-color="#081D1C"/>
<stop offset="0.89" stop-color="#020707"/>
<stop offset="1"/>
</linearGradient>
<linearGradient id="paint8_linear_25_3077" x1="51.7834" y1="198.486" x2="51.7834" y2="235.307" gradientUnits="userSpaceOnUse">
<stop stop-color="#35B9B3"/>
<stop offset="0.24" stop-color="#24807B"/>
<stop offset="0.49" stop-color="#154946"/>
<stop offset="0.72" stop-color="#092120"/>
<stop offset="0.89" stop-color="#020908"/>
<stop offset="1"/>
</linearGradient>
<linearGradient id="paint9_linear_25_3077" x1="51.7833" y1="198.537" x2="51.7833" y2="234.695" gradientUnits="userSpaceOnUse">
<stop stop-color="#3AC8C2"/>
<stop offset="0.2" stop-color="#2B9590"/>
<stop offset="0.48" stop-color="#185553"/>
<stop offset="0.72" stop-color="#0B2726"/>
<stop offset="0.9" stop-color="#030A0A"/>
<stop offset="1"/>
</linearGradient>
<linearGradient id="paint10_linear_25_3077" x1="51.7907" y1="198.589" x2="51.7907" y2="234.075" gradientUnits="userSpaceOnUse">
<stop stop-color="#3ED8D2"/>
<stop offset="0.14" stop-color="#33B3AE"/>
<stop offset="0.45" stop-color="#1D6764"/>
<stop offset="0.71" stop-color="#0D2F2E"/>
<stop offset="0.9" stop-color="#030D0C"/>
<stop offset="1"/>
</linearGradient>
<linearGradient id="paint11_linear_25_3077" x1="51.7908" y1="198.64" x2="51.7908" y2="233.456" gradientUnits="userSpaceOnUse">
<stop stop-color="#43E8E1"/>
<stop offset="0.02" stop-color="#41E1DA"/>
<stop offset="0.39" stop-color="#25827E"/>
<stop offset="0.68" stop-color="#113B3A"/>
<stop offset="0.89" stop-color="#041010"/>
<stop offset="1"/>
</linearGradient>
<linearGradient id="paint12_linear_25_3077" x1="61.3686" y1="190.862" x2="42.2133" y2="190.862" gradientUnits="userSpaceOnUse">
<stop offset="0.02" stop-color="#45108A"/>
<stop offset="0.29" stop-color="#3D065F"/>
<stop offset="1" stop-color="#10054D"/>
</linearGradient>
<linearGradient id="paint13_linear_25_3077" x1="107.391" y1="128.427" x2="72.3838" y2="132.725" gradientUnits="userSpaceOnUse">
<stop offset="0.01" stop-color="#C1A1D5"/>
<stop offset="0.05" stop-color="#C7ABD9"/>
<stop offset="0.11" stop-color="#D9C6E5"/>
<stop offset="0.2" stop-color="#F6F2F9"/>
<stop offset="0.22" stop-color="white"/>
<stop offset="0.25" stop-color="#F9F5FB"/>
<stop offset="0.3" stop-color="#E9DBF1"/>
<stop offset="0.36" stop-color="#D1B4E3"/>
<stop offset="0.43" stop-color="#B294D5"/>
<stop offset="0.49" stop-color="#9B7CCB"/>
<stop offset="0.56" stop-color="#8D6EC5"/>
<stop offset="0.61" stop-color="#8969C3"/>
<stop offset="0.76" stop-color="#9371C5"/>
<stop offset="1" stop-color="#B086CC"/>
</linearGradient>
<linearGradient id="paint14_linear_25_3077" x1="59.4368" y1="182.206" x2="44.0271" y2="191.098" gradientUnits="userSpaceOnUse">
<stop offset="0.02" stop-color="#45108A"/>
<stop offset="0.29" stop-color="#3D065F"/>
<stop offset="1" stop-color="#10054D"/>
</linearGradient>
<linearGradient id="paint15_linear_25_3077" x1="96.6707" y1="145.695" x2="7.0437" y2="132.128" gradientUnits="userSpaceOnUse">
<stop offset="0.01" stop-color="#C1A1D5"/>
<stop offset="0.04" stop-color="#C7ABD9"/>
<stop offset="0.1" stop-color="#D9C6E5"/>
<stop offset="0.18" stop-color="#F6F2F9"/>
<stop offset="0.2" stop-color="white"/>
<stop offset="0.23" stop-color="#F9F5FB"/>
<stop offset="0.29" stop-color="#E9DBF1"/>
<stop offset="0.36" stop-color="#D1B4E3"/>
<stop offset="0.43" stop-color="#B294D5"/>
<stop offset="0.49" stop-color="#9B7CCB"/>
<stop offset="0.56" stop-color="#8D6EC5"/>
<stop offset="0.61" stop-color="#8969C3"/>
<stop offset="0.76" stop-color="#9371C5"/>
<stop offset="1" stop-color="#B086CC"/>
</linearGradient>
<radialGradient id="paint16_radial_25_3077" cx="0" cy="0" r="1" gradientUnits="userSpaceOnUse" gradientTransform="translate(55.9566 136.279) rotate(180) scale(56.9496 56.9496)">
<stop offset="0.38" stop-color="white"/>
<stop offset="0.47" stop-color="#F4F2F8"/>
<stop offset="0.63" stop-color="#D7CFE7"/>
<stop offset="0.85" stop-color="#A999CC"/>
<stop offset="1" stop-color="#8770B8"/>
</radialGradient>
<linearGradient id="paint17_linear_25_3077" x1="84.9845" y1="92.7264" x2="18.4131" y2="131.162" gradientUnits="userSpaceOnUse">
<stop stop-color="white"/>
<stop offset="0.31" stop-color="#E8DDF0"/>
<stop offset="0.98" stop-color="#B188CC"/>
<stop offset="1" stop-color="#B086CC"/>
</linearGradient>
<linearGradient id="paint18_linear_25_3077" x1="84.5936" y1="92.7928" x2="18.8332" y2="130.757" gradientUnits="userSpaceOnUse">
<stop stop-color="white"/>
<stop offset="0.31" stop-color="#E8DDF0"/>
<stop offset="0.98" stop-color="#B188CC"/>
<stop offset="1" stop-color="#B086CC"/>
</linearGradient>
<linearGradient id="paint19_linear_25_3077" x1="84.2102" y1="92.8593" x2="19.2534" y2="130.359" gradientUnits="userSpaceOnUse">
<stop stop-color="white"/>
<stop offset="0.31" stop-color="#E8DDF0"/>
<stop offset="0.98" stop-color="#B188CC"/>
<stop offset="1" stop-color="#B086CC"/>
</linearGradient>
<linearGradient id="paint20_linear_25_3077" x1="83.8195" y1="92.9181" x2="19.6812" y2="129.953" gradientUnits="userSpaceOnUse">
<stop stop-color="white"/>
<stop offset="0.31" stop-color="#E8DDF0"/>
<stop offset="0.98" stop-color="#B188CC"/>
<stop offset="1" stop-color="#B086CC"/>
</linearGradient>
<linearGradient id="paint21_linear_25_3077" x1="83.4287" y1="92.9844" x2="20.1014" y2="129.547" gradientUnits="userSpaceOnUse">
<stop stop-color="white"/>
<stop offset="0.31" stop-color="#E8DDF0"/>
<stop offset="0.98" stop-color="#B188CC"/>
<stop offset="1" stop-color="#B086CC"/>
</linearGradient>
<linearGradient id="paint22_linear_25_3077" x1="83.0378" y1="93.0508" x2="20.5216" y2="129.149" gradientUnits="userSpaceOnUse">
<stop stop-color="white"/>
<stop offset="0.31" stop-color="#E8DDF0"/>
<stop offset="0.98" stop-color="#B188CC"/>
<stop offset="1" stop-color="#B086CC"/>
</linearGradient>
<linearGradient id="paint23_linear_25_3077" x1="82.6472" y1="93.1171" x2="20.942" y2="128.744" gradientUnits="userSpaceOnUse">
<stop stop-color="white"/>
<stop offset="0.31" stop-color="#E8DDF0"/>
<stop offset="0.98" stop-color="#B188CC"/>
<stop offset="1" stop-color="#B086CC"/>
</linearGradient>
<linearGradient id="paint24_linear_25_3077" x1="82.2564" y1="93.1835" x2="21.3622" y2="128.346" gradientUnits="userSpaceOnUse">
<stop stop-color="white"/>
<stop offset="0.31" stop-color="#E8DDF0"/>
<stop offset="0.98" stop-color="#B188CC"/>
<stop offset="1" stop-color="#B086CC"/>
</linearGradient>
<linearGradient id="paint25_linear_25_3077" x1="81.8729" y1="93.25" x2="21.7898" y2="127.94" gradientUnits="userSpaceOnUse">
<stop stop-color="white"/>
<stop offset="0.31" stop-color="#E8DDF0"/>
<stop offset="0.98" stop-color="#B188CC"/>
<stop offset="1" stop-color="#B086CC"/>
</linearGradient>
<linearGradient id="paint26_linear_25_3077" x1="81.482" y1="93.3162" x2="22.2099" y2="127.542" gradientUnits="userSpaceOnUse">
<stop stop-color="white"/>
<stop offset="0.31" stop-color="#E8DDF0"/>
<stop offset="0.98" stop-color="#B188CC"/>
<stop offset="1" stop-color="#B086CC"/>
</linearGradient>
<linearGradient id="paint27_linear_25_3077" x1="81.0914" y1="93.3827" x2="22.6303" y2="127.137" gradientUnits="userSpaceOnUse">
<stop stop-color="white"/>
<stop offset="0.31" stop-color="#E8DDF0"/>
<stop offset="0.98" stop-color="#B188CC"/>
<stop offset="1" stop-color="#B086CC"/>
</linearGradient>
<linearGradient id="paint28_linear_25_3077" x1="75.414" y1="89.1358" x2="18.4791" y2="122.012" gradientUnits="userSpaceOnUse">
<stop offset="0.19" stop-color="#3D065F"/>
<stop offset="0.93" stop-color="#3D065F"/>
</linearGradient>
<linearGradient id="paint29_linear_25_3077" x1="74.7432" y1="89.637" x2="19.3125" y2="121.644" gradientUnits="userSpaceOnUse">
<stop offset="0.19" stop-color="#3D065F"/>
<stop offset="0.93" stop-color="#3D065F"/>
</linearGradient>
<linearGradient id="paint30_linear_25_3077" x1="74.072" y1="90.1311" x2="20.1454" y2="121.268" gradientUnits="userSpaceOnUse">
<stop offset="0.19" stop-color="#3D065F"/>
<stop offset="0.93" stop-color="#3D065F"/>
</linearGradient>
<linearGradient id="paint31_linear_25_3077" x1="73.4087" y1="90.6325" x2="20.9788" y2="120.899" gradientUnits="userSpaceOnUse">
<stop offset="0.19" stop-color="#3D065F"/>
<stop offset="0.93" stop-color="#3D065F"/>
</linearGradient>
<linearGradient id="paint32_linear_25_3077" x1="72.7378" y1="91.1266" x2="21.812" y2="120.53" gradientUnits="userSpaceOnUse">
<stop offset="0.19" stop-color="#3D065F"/>
<stop offset="0.93" stop-color="#3D065F"/>
</linearGradient>
<linearGradient id="paint33_linear_25_3077" x1="72.0666" y1="91.6278" x2="22.6449" y2="120.154" gradientUnits="userSpaceOnUse">
<stop offset="0.19" stop-color="#3D065F"/>
<stop offset="0.93" stop-color="#3D065F"/>
</linearGradient>
<linearGradient id="paint34_linear_25_3077" x1="71.3959" y1="92.1218" x2="23.4857" y2="119.786" gradientUnits="userSpaceOnUse">
<stop offset="0.19" stop-color="#3D065F"/>
<stop offset="0.93" stop-color="#3D065F"/>
</linearGradient>
<linearGradient id="paint35_linear_25_3077" x1="70.732" y1="92.6159" x2="24.3186" y2="119.417" gradientUnits="userSpaceOnUse">
<stop offset="0.19" stop-color="#3D065F"/>
<stop offset="0.93" stop-color="#3D065F"/>
</linearGradient>
<linearGradient id="paint36_linear_25_3077" x1="70.0613" y1="93.1173" x2="25.152" y2="119.041" gradientUnits="userSpaceOnUse">
<stop offset="0.19" stop-color="#3D065F"/>
<stop offset="0.93" stop-color="#3D065F"/>
</linearGradient>
<linearGradient id="paint37_linear_25_3077" x1="69.3904" y1="93.6111" x2="25.9851" y2="118.672" gradientUnits="userSpaceOnUse">
<stop offset="0.19" stop-color="#3D065F"/>
<stop offset="0.93" stop-color="#3D065F"/>
</linearGradient>
<linearGradient id="paint38_linear_25_3077" x1="68.7192" y1="94.1126" x2="26.818" y2="118.304" gradientUnits="userSpaceOnUse">
<stop offset="0.19" stop-color="#3D065F"/>
<stop offset="0.93" stop-color="#3D065F"/>
</linearGradient>
<radialGradient id="paint39_radial_25_3077" cx="0" cy="0" r="1" gradientUnits="userSpaceOnUse" gradientTransform="translate(64.7527 57.0187) rotate(180) scale(71.9685 71.9685)">
<stop offset="0.01" stop-color="white"/>
<stop offset="0.16" stop-color="#E6D6F0"/>
<stop offset="0.28" stop-color="#D6BDE6"/>
<stop offset="0.36" stop-color="#D1B4E3"/>
<stop offset="0.48" stop-color="#C3A4DB"/>
<stop offset="0.71" stop-color="#A07BC9"/>
<stop offset="0.72" stop-color="#9F79C8"/>
<stop offset="0.81" stop-color="#A27BC8"/>
<stop offset="0.9" stop-color="#AD84CB"/>
<stop offset="0.91" stop-color="#B086CC"/>
<stop offset="0.96" stop-color="#AD83CB"/>
<stop offset="0.99" stop-color="#A47DC9"/>
<stop offset="1" stop-color="#9F79C8"/>
</radialGradient>
<linearGradient id="paint40_linear_25_3077" x1="101.367" y1="73.2247" x2="47.684" y2="73.2247" gradientUnits="userSpaceOnUse">
<stop offset="0.02" stop-color="#45108A"/>
<stop offset="0.29" stop-color="#3D065F"/>
<stop offset="1" stop-color="#10054D"/>
</linearGradient>
<radialGradient id="paint41_radial_25_3077" cx="0" cy="0" r="1" gradientUnits="userSpaceOnUse" gradientTransform="translate(25.3952 137.326) rotate(180) scale(17.4004 17.4004)">
<stop offset="0.04" stop-color="#6115A3"/>
<stop offset="0.1" stop-color="#5A1399"/>
<stop offset="0.52" stop-color="#2B0658"/>
<stop offset="1" stop-color="#10054D"/>
</radialGradient>
<linearGradient id="paint42_linear_25_3077" x1="34.6781" y1="154.129" x2="-0.0711868" y2="158.398" gradientUnits="userSpaceOnUse">
<stop offset="0.01" stop-color="#C1A1D5"/>
<stop offset="0.05" stop-color="#C7ABD9"/>
<stop offset="0.11" stop-color="#D9C6E5"/>
<stop offset="0.2" stop-color="#F6F2F9"/>
<stop offset="0.22" stop-color="white"/>
<stop offset="0.25" stop-color="#F9F5FB"/>
<stop offset="0.3" stop-color="#E9DBF1"/>
<stop offset="0.36" stop-color="#D1B4E3"/>
<stop offset="0.43" stop-color="#B294D5"/>
<stop offset="0.49" stop-color="#9B7CCB"/>
<stop offset="0.56" stop-color="#8D6EC5"/>
<stop offset="0.61" stop-color="#8969C3"/>
<stop offset="0.76" stop-color="#9371C5"/>
<stop offset="1" stop-color="#B086CC"/>
</linearGradient>
<radialGradient id="paint43_radial_25_3077" cx="0" cy="0" r="1" gradientUnits="userSpaceOnUse" gradientTransform="translate(31.0726 149.809) rotate(-180) scale(24.5302 24.5302)">
<stop offset="0.38" stop-color="white"/>
<stop offset="0.47" stop-color="#F4F2F8"/>
<stop offset="0.63" stop-color="#D7CFE7"/>
<stop offset="0.85" stop-color="#A999CC"/>
<stop offset="1" stop-color="#8770B8"/>
</radialGradient>
<radialGradient id="paint44_radial_25_3077" cx="0" cy="0" r="1" gradientUnits="userSpaceOnUse" gradientTransform="translate(-496.881 -160.016) rotate(-148.86) scale(5.90347 13.4025)">
<stop stop-color="#972A74"/>
<stop offset="0.04" stop-color="#8A266A"/>
<stop offset="0.19" stop-color="#601A49"/>
<stop offset="0.35" stop-color="#3D112F"/>
<stop offset="0.51" stop-color="#22091A"/>
<stop offset="0.67" stop-color="#0F040B"/>
<stop offset="0.83" stop-color="#030102"/>
<stop offset="1"/>
</radialGradient>
<radialGradient id="paint45_radial_25_3077" cx="0" cy="0" r="1" gradientUnits="userSpaceOnUse" gradientTransform="translate(-310.387 7.79214) rotate(-155.63) scale(6.16536 13.997)">
<stop stop-color="#481437"/>
<stop offset="0.07" stop-color="#3D112E"/>
<stop offset="0.3" stop-color="#22091A"/>
<stop offset="0.52" stop-color="#0F040B"/>
<stop offset="0.76" stop-color="#030102"/>
<stop offset="1"/>
</radialGradient>
<linearGradient id="paint46_linear_25_3077" x1="66.8391" y1="33.2405" x2="36.8455" y2="33.2405" gradientUnits="userSpaceOnUse">
<stop offset="0.01" stop-color="#C1A1D5"/>
<stop offset="0.05" stop-color="#C7ABD9"/>
<stop offset="0.11" stop-color="#D9C6E5"/>
<stop offset="0.2" stop-color="#F6F2F9"/>
<stop offset="0.22" stop-color="white"/>
<stop offset="0.25" stop-color="#F9F5FB"/>
<stop offset="0.3" stop-color="#E9DBF1"/>
<stop offset="0.36" stop-color="#D1B4E3"/>
<stop offset="0.43" stop-color="#B294D5"/>
<stop offset="0.49" stop-color="#9B7CCB"/>
<stop offset="0.56" stop-color="#8D6EC5"/>
<stop offset="0.61" stop-color="#8969C3"/>
<stop offset="0.76" stop-color="#9371C5"/>
<stop offset="1" stop-color="#B086CC"/>
</linearGradient>
<linearGradient id="paint47_linear_25_3077" x1="63.8014" y1="20.7282" x2="39.6841" y2="34.656" gradientUnits="userSpaceOnUse">
<stop offset="0.08" stop-color="white"/>
<stop offset="0.21" stop-color="#F8F5FA"/>
<stop offset="0.44" stop-color="#E7DBEF"/>
<stop offset="0.74" stop-color="#CCB1DE"/>
<stop offset="1" stop-color="#B086CC"/>
</linearGradient>
<linearGradient id="paint48_linear_25_3077" x1="54.0027" y1="17.3737" x2="49.5199" y2="17.3737" gradientUnits="userSpaceOnUse">
<stop offset="0.01" stop-color="#C1A1D5"/>
<stop offset="0.05" stop-color="#C7ABD9"/>
<stop offset="0.11" stop-color="#D9C6E5"/>
<stop offset="0.2" stop-color="#F6F2F9"/>
<stop offset="0.22" stop-color="white"/>
<stop offset="0.25" stop-color="#F9F5FB"/>
<stop offset="0.3" stop-color="#E9DBF1"/>
<stop offset="0.36" stop-color="#D1B4E3"/>
<stop offset="0.43" stop-color="#B294D5"/>
<stop offset="0.49" stop-color="#9B7CCB"/>
<stop offset="0.56" stop-color="#8D6EC5"/>
<stop offset="0.61" stop-color="#8969C3"/>
<stop offset="0.76" stop-color="#9371C5"/>
<stop offset="1" stop-color="#B086CC"/>
</linearGradient>
<radialGradient id="paint49_radial_25_3077" cx="0" cy="0" r="1" gradientUnits="userSpaceOnUse" gradientTransform="translate(53.3538 5.9528) rotate(180) scale(9.03201 9.03201)">
<stop offset="0.01" stop-color="white"/>
<stop offset="0.16" stop-color="#E6D6F0"/>
<stop offset="0.28" stop-color="#D6BDE6"/>
<stop offset="0.36" stop-color="#D1B4E3"/>
<stop offset="0.48" stop-color="#C3A4DB"/>
<stop offset="0.71" stop-color="#A07BC9"/>
<stop offset="0.72" stop-color="#9F79C8"/>
<stop offset="0.81" stop-color="#A27BC8"/>
<stop offset="0.9" stop-color="#AD84CB"/>
<stop offset="0.91" stop-color="#B086CC"/>
<stop offset="0.96" stop-color="#AD83CB"/>
<stop offset="0.99" stop-color="#A47DC9"/>
<stop offset="1" stop-color="#9F79C8"/>
</radialGradient>
<radialGradient id="paint50_radial_25_3077" cx="0" cy="0" r="1" gradientUnits="userSpaceOnUse" gradientTransform="translate(66.95 50.324) rotate(180) scale(37.3372)">
<stop stop-color="#972A74"/>
<stop offset="0.04" stop-color="#8A266A"/>
<stop offset="0.19" stop-color="#601A49"/>
<stop offset="0.35" stop-color="#3D112F"/>
<stop offset="0.51" stop-color="#22091A"/>
<stop offset="0.67" stop-color="#0F040B"/>
<stop offset="0.83" stop-color="#030102"/>
<stop offset="1"/>
</radialGradient>
<radialGradient id="paint51_radial_25_3077" cx="0" cy="0" r="1" gradientUnits="userSpaceOnUse" gradientTransform="translate(89.1576 67.1493) rotate(180) scale(14.2743 14.2743)">
<stop stop-color="#43E8E1"/>
<stop offset="0.14" stop-color="#34B5AF"/>
<stop offset="0.3" stop-color="#247E7A"/>
<stop offset="0.46" stop-color="#17514E"/>
<stop offset="0.62" stop-color="#0D2D2C"/>
<stop offset="0.76" stop-color="#051413"/>
<stop offset="0.89" stop-color="#010505"/>
<stop offset="1"/>
</radialGradient>
<radialGradient id="paint52_radial_25_3077" cx="0" cy="0" r="1" gradientUnits="userSpaceOnUse" gradientTransform="translate(66.8982 80.2735) rotate(180) scale(14.2743 14.2743)">
<stop stop-color="#43E8E1"/>
<stop offset="0.14" stop-color="#34B5AF"/>
<stop offset="0.3" stop-color="#247E7A"/>
<stop offset="0.46" stop-color="#17514E"/>
<stop offset="0.62" stop-color="#0D2D2C"/>
<stop offset="0.76" stop-color="#051413"/>
<stop offset="0.89" stop-color="#010505"/>
<stop offset="1"/>
</radialGradient>
<radialGradient id="paint53_radial_25_3077" cx="0" cy="0" r="1" gradientUnits="userSpaceOnUse" gradientTransform="translate(48.6969 132.732) rotate(-166.02) scale(10.4563 45.4623)">
<stop stop-color="#972A74"/>
<stop offset="0.02" stop-color="#8C276B"/>
<stop offset="0.11" stop-color="#671C4F"/>
<stop offset="0.21" stop-color="#471336"/>
<stop offset="0.32" stop-color="#2D0C22"/>
<stop offset="0.43" stop-color="#180613"/>
<stop offset="0.57" stop-color="#0A0308"/>
<stop offset="0.73" stop-color="#020001"/>
<stop offset="1"/>
</radialGradient>
<linearGradient id="paint54_linear_25_3077" x1="92.5101" y1="88.6945" x2="83.7197" y2="103.853" gradientUnits="userSpaceOnUse">
<stop offset="0.02" stop-color="#45108A"/>
<stop offset="0.29" stop-color="#3D065F"/>
<stop offset="1" stop-color="#10054D"/>
</linearGradient>
<clipPath id="clip0_25_3077">
<rect width="102.803" height="250.655" fill="white" transform="translate(0.62915 0.474609)"/>
</clipPath>
</defs>
</svg>
